<?xml version="1.0" standalone="no"?><!-- Generator: Gravit.io --><svg xmlns="http://www.w3.org/2000/svg" xmlns:xlink="http://www.w3.org/1999/xlink" style="isolation:isolate" viewBox="0 0 128 128" width="128px" height="128px"><defs><clipPath id="_clipPath_RHyJz8vpv9sXGSWPtrx1Eo9idDNW15jh"><rect width="128" height="128"/></clipPath></defs><g clip-path="url(#_clipPath_RHyJz8vpv9sXGSWPtrx1Eo9idDNW15jh)"><g><path d=" M 91.889 16.486 L 91.332 16.163 L 93.389 12.613 C 93.181 12.663 92.931 12.689 92.639 12.691 C 92.347 12.693 92.096 12.676 91.886 12.639 L 92.198 12.101 C 92.594 12.135 92.969 12.115 93.323 12.042 C 93.677 11.968 93.959 11.862 94.17 11.722 L 94.529 11.93 L 91.889 16.486 Z " fill="rgb(153,153,153)"/><path d=" M 120.223 62.09 L 120.269 62.738 C 119.9 62.789 119.63 62.899 119.459 63.066 C 119.287 63.234 119.193 63.445 119.178 63.7 C 119.159 64.002 119.248 64.264 119.445 64.485 C 119.641 64.706 119.894 64.826 120.204 64.845 C 120.499 64.863 120.748 64.782 120.952 64.601 C 121.155 64.42 121.266 64.18 121.285 63.883 C 121.292 63.762 121.278 63.609 121.241 63.425 L 121.801 63.531 C 121.793 63.574 121.789 63.608 121.787 63.634 C 121.77 63.908 121.827 64.159 121.956 64.387 C 122.085 64.614 122.299 64.737 122.596 64.756 C 122.832 64.77 123.032 64.702 123.197 64.553 C 123.361 64.403 123.451 64.201 123.467 63.949 C 123.482 63.699 123.416 63.486 123.27 63.31 C 123.123 63.133 122.894 63.012 122.582 62.945 L 122.736 62.309 C 123.162 62.414 123.485 62.613 123.705 62.906 C 123.924 63.2 124.022 63.553 123.996 63.967 C 123.978 64.253 123.901 64.512 123.764 64.745 C 123.626 64.978 123.448 65.152 123.228 65.266 C 123.008 65.38 122.779 65.43 122.541 65.415 C 122.315 65.401 122.113 65.328 121.935 65.195 C 121.757 65.062 121.62 64.874 121.525 64.629 C 121.435 64.934 121.272 65.165 121.036 65.323 C 120.801 65.48 120.514 65.549 120.176 65.528 C 119.719 65.5 119.342 65.309 119.045 64.957 C 118.748 64.604 118.615 64.173 118.646 63.663 C 118.674 63.204 118.835 62.831 119.127 62.544 C 119.419 62.258 119.785 62.106 120.223 62.09 L 120.223 62.09 Z " fill="rgb(153,153,153)"/><path d=" M 112.888 37.726 L 112.353 38.036 L 110.614 35.037 C 110.746 34.956 110.888 34.903 111.039 34.878 C 111.287 34.836 111.559 34.842 111.855 34.895 C 112.151 34.948 112.52 35.059 112.965 35.226 C 113.655 35.484 114.168 35.632 114.505 35.668 C 114.842 35.704 115.115 35.662 115.326 35.54 C 115.546 35.412 115.687 35.225 115.747 34.979 C 115.807 34.733 115.764 34.484 115.617 34.23 C 115.461 33.962 115.256 33.794 115.002 33.726 C 114.748 33.658 114.478 33.706 114.192 33.869 L 113.919 33.262 C 114.368 33.054 114.779 33.013 115.152 33.139 C 115.524 33.265 115.835 33.544 116.085 33.975 C 116.337 34.41 116.416 34.825 116.322 35.218 C 116.228 35.612 116.002 35.912 115.645 36.119 C 115.464 36.225 115.264 36.291 115.045 36.318 C 114.827 36.346 114.571 36.33 114.277 36.27 C 113.983 36.21 113.551 36.078 112.981 35.874 C 112.506 35.702 112.191 35.598 112.036 35.561 C 111.881 35.524 111.735 35.504 111.598 35.501 L 112.888 37.726 Z " fill="rgb(153,153,153)"/><path d=" M 111.65 91.593 L 112.721 92.248 L 113.909 90.308 L 114.412 90.616 L 116.062 94.431 L 115.787 94.879 L 112.889 93.106 L 112.519 93.71 L 112.016 93.402 L 112.385 92.798 L 111.314 92.142 L 111.65 91.593 Z  M 113.225 92.556 L 115.242 93.79 L 114.082 91.156 L 113.225 92.556 Z " fill="rgb(153,153,153)"/><path d=" M 93.77 111.785 L 93.218 112.181 C 93.007 111.924 92.78 111.771 92.539 111.722 C 92.297 111.673 92.066 111.714 91.844 111.846 C 91.578 112.005 91.413 112.24 91.348 112.55 C 91.283 112.861 91.35 113.182 91.548 113.514 C 91.736 113.83 91.973 114.026 92.259 114.102 C 92.545 114.179 92.831 114.132 93.118 113.961 C 93.296 113.854 93.433 113.718 93.528 113.552 C 93.623 113.385 93.673 113.213 93.678 113.035 L 94.238 112.793 L 95.181 115.367 L 92.941 116.702 L 92.626 116.174 L 94.423 115.102 L 93.944 113.747 C 93.786 114.097 93.559 114.36 93.262 114.537 C 92.869 114.772 92.455 114.833 92.023 114.722 C 91.59 114.611 91.246 114.341 90.99 113.913 C 90.747 113.506 90.656 113.082 90.717 112.644 C 90.788 112.107 91.074 111.69 91.573 111.391 C 91.983 111.147 92.386 111.062 92.782 111.137 C 93.178 111.212 93.507 111.428 93.77 111.785 Z " fill="rgb(153,153,153)"/><path d=" M 62.583 122.687 L 63.224 122.638 C 63.281 122.891 63.362 123.074 63.467 123.189 C 63.641 123.373 63.855 123.465 64.11 123.465 C 64.315 123.465 64.495 123.408 64.651 123.294 C 64.853 123.146 65.013 122.93 65.13 122.647 C 65.248 122.363 65.309 121.959 65.314 121.434 C 65.159 121.67 64.969 121.845 64.745 121.96 C 64.52 122.074 64.285 122.131 64.04 122.131 C 63.611 122.13 63.245 121.972 62.944 121.656 C 62.642 121.34 62.492 120.931 62.492 120.43 C 62.493 120.101 62.564 119.795 62.706 119.513 C 62.848 119.23 63.043 119.014 63.291 118.864 C 63.539 118.714 63.821 118.639 64.136 118.639 C 64.672 118.64 65.11 118.837 65.448 119.232 C 65.786 119.627 65.955 120.278 65.954 121.184 C 65.954 122.198 65.766 122.935 65.391 123.395 C 65.064 123.795 64.624 123.995 64.07 123.994 C 63.658 123.994 63.32 123.878 63.057 123.647 C 62.793 123.415 62.636 123.095 62.583 122.687 L 62.583 122.687 Z  M 65.215 120.429 C 65.215 120.207 65.168 119.995 65.074 119.792 C 64.98 119.589 64.848 119.435 64.679 119.328 C 64.51 119.222 64.332 119.169 64.146 119.169 C 63.874 119.169 63.64 119.278 63.445 119.497 C 63.249 119.717 63.151 120.015 63.151 120.391 C 63.15 120.754 63.247 121.04 63.44 121.248 C 63.633 121.457 63.876 121.562 64.169 121.562 C 64.46 121.562 64.707 121.458 64.91 121.25 C 65.113 121.041 65.214 120.767 65.215 120.429 L 65.215 120.429 Z " fill="rgb(153,153,153)"/><path d=" M 34.977 116.395 L 34.677 116.936 L 31.707 115.291 L 31.95 114.853 C 32.414 114.704 32.932 114.451 33.505 114.095 C 34.077 113.739 34.592 113.332 35.05 112.874 C 35.376 112.552 35.681 112.172 35.965 111.732 L 36.544 112.053 C 36.338 112.411 36.025 112.807 35.606 113.243 C 35.188 113.679 34.72 114.064 34.204 114.398 C 33.687 114.732 33.196 114.983 32.73 115.15 L 34.977 116.395 Z " fill="rgb(153,153,153)"/><path d=" M 14.674 93.735 C 14.731 94.013 14.717 94.255 14.631 94.46 C 14.545 94.665 14.395 94.834 14.18 94.967 C 13.856 95.169 13.511 95.222 13.146 95.126 C 12.78 95.03 12.477 94.789 12.237 94.402 C 11.995 94.013 11.914 93.63 11.992 93.252 C 12.071 92.875 12.272 92.586 12.597 92.384 C 12.803 92.256 13.017 92.199 13.237 92.212 C 13.457 92.225 13.677 92.317 13.898 92.486 C 13.817 92.157 13.831 91.859 13.941 91.593 C 14.051 91.327 14.244 91.108 14.519 90.937 C 14.9 90.701 15.304 90.637 15.73 90.745 C 16.157 90.853 16.507 91.127 16.78 91.567 C 17.053 92.006 17.143 92.442 17.05 92.873 C 16.957 93.304 16.716 93.64 16.328 93.882 C 16.038 94.062 15.75 94.139 15.463 94.114 C 15.176 94.088 14.913 93.962 14.674 93.735 L 14.674 93.735 Z  M 13.815 94.42 C 14.025 94.289 14.155 94.114 14.205 93.895 C 14.254 93.676 14.212 93.459 14.077 93.242 C 13.946 93.031 13.772 92.9 13.556 92.847 C 13.34 92.795 13.135 92.829 12.943 92.948 C 12.742 93.073 12.617 93.247 12.566 93.471 C 12.516 93.695 12.555 93.91 12.683 94.116 C 12.813 94.325 12.987 94.457 13.206 94.511 C 13.426 94.566 13.628 94.535 13.815 94.42 L 13.815 94.42 Z  M 15.981 93.318 C 16.137 93.221 16.265 93.09 16.365 92.926 C 16.465 92.761 16.51 92.581 16.499 92.386 C 16.489 92.19 16.431 92.008 16.327 91.84 C 16.164 91.579 15.946 91.415 15.672 91.35 C 15.398 91.284 15.132 91.332 14.873 91.493 C 14.609 91.656 14.446 91.879 14.383 92.161 C 14.319 92.444 14.369 92.716 14.533 92.98 C 14.693 93.237 14.91 93.397 15.186 93.461 C 15.461 93.524 15.726 93.477 15.981 93.318 L 15.981 93.318 Z " fill="rgb(153,153,153)"/><path d=" M 8.068 65.634 L 8.005 65.016 C 8.295 64.961 8.505 64.859 8.635 64.71 C 8.765 64.56 8.828 64.37 8.826 64.139 C 8.824 63.941 8.777 63.768 8.685 63.62 C 8.593 63.472 8.471 63.351 8.319 63.257 C 8.166 63.163 7.961 63.085 7.703 63.023 C 7.445 62.961 7.182 62.931 6.915 62.934 C 6.886 62.934 6.844 62.936 6.786 62.939 C 6.993 63.065 7.161 63.24 7.29 63.461 C 7.42 63.683 7.486 63.924 7.489 64.184 C 7.493 64.618 7.339 64.987 7.027 65.29 C 6.715 65.594 6.302 65.748 5.786 65.753 C 5.255 65.758 4.825 65.605 4.498 65.295 C 4.171 64.984 4.005 64.593 4 64.121 C 3.997 63.78 4.086 63.467 4.267 63.183 C 4.448 62.898 4.707 62.681 5.046 62.531 C 5.384 62.381 5.875 62.303 6.519 62.297 C 7.189 62.291 7.723 62.358 8.122 62.5 C 8.52 62.642 8.825 62.855 9.035 63.141 C 9.245 63.426 9.352 63.762 9.356 64.148 C 9.36 64.558 9.249 64.894 9.024 65.157 C 8.798 65.419 8.48 65.578 8.068 65.634 L 8.068 65.634 Z  M 5.728 63.02 C 5.359 63.024 5.066 63.125 4.851 63.324 C 4.636 63.522 4.53 63.76 4.532 64.037 C 4.535 64.323 4.654 64.571 4.89 64.781 C 5.126 64.991 5.43 65.094 5.802 65.091 C 6.135 65.088 6.406 64.984 6.613 64.781 C 6.819 64.577 6.921 64.328 6.918 64.032 C 6.916 63.734 6.809 63.49 6.598 63.3 C 6.388 63.11 6.098 63.017 5.728 63.02 Z " fill="rgb(153,153,153)"/><path d=" M 15.372 38.521 L 15.058 39.082 L 11.478 37.077 C 11.531 37.284 11.561 37.534 11.567 37.826 C 11.573 38.118 11.559 38.369 11.526 38.58 L 10.983 38.275 C 11.011 37.879 10.986 37.504 10.908 37.151 C 10.829 36.798 10.719 36.517 10.576 36.309 L 10.779 35.947 L 15.372 38.521 Z  M 14.247 35.237 C 14.998 35.658 15.548 35.85 15.895 35.814 C 16.242 35.777 16.488 35.63 16.632 35.372 C 16.777 35.114 16.773 34.827 16.622 34.511 C 16.471 34.196 16.021 33.828 15.272 33.409 C 14.519 32.987 13.969 32.794 13.623 32.831 C 13.277 32.868 13.031 33.018 12.884 33.28 C 12.739 33.538 12.733 33.805 12.865 34.082 C 13.036 34.431 13.496 34.816 14.247 35.237 L 14.247 35.237 L 14.247 35.237 Z  M 13.924 35.815 C 13.383 35.512 12.979 35.212 12.711 34.916 C 12.444 34.62 12.282 34.312 12.226 33.992 C 12.17 33.672 12.236 33.346 12.422 33.013 C 12.56 32.768 12.73 32.58 12.932 32.45 C 13.135 32.321 13.363 32.247 13.617 32.231 C 13.871 32.215 14.151 32.247 14.456 32.328 C 14.762 32.409 15.142 32.577 15.595 32.831 C 16.132 33.132 16.535 33.43 16.803 33.725 C 17.071 34.02 17.233 34.328 17.29 34.648 C 17.347 34.968 17.282 35.296 17.094 35.631 C 16.847 36.072 16.495 36.33 16.037 36.404 C 15.488 36.493 14.783 36.296 13.924 35.815 L 13.924 35.815 Z " fill-rule="evenodd" fill="rgb(153,153,153)"/><path d=" M 34.856 17.682 L 34.298 18.002 L 32.255 14.443 C 32.195 14.649 32.092 14.878 31.947 15.132 C 31.803 15.385 31.662 15.594 31.525 15.758 L 31.215 15.218 C 31.443 14.892 31.614 14.557 31.728 14.214 C 31.842 13.871 31.891 13.573 31.875 13.321 L 32.235 13.114 L 34.856 17.682 Z  M 38.393 15.652 L 37.835 15.972 L 35.792 12.414 C 35.732 12.619 35.629 12.848 35.484 13.102 C 35.34 13.355 35.199 13.564 35.062 13.728 L 34.752 13.188 C 34.98 12.862 35.151 12.527 35.265 12.184 C 35.379 11.841 35.428 11.544 35.412 11.291 L 35.772 11.085 L 38.393 15.652 Z " fill-rule="evenodd" fill="rgb(153,153,153)"/><path d=" M 62.313 9.271 L 61.669 9.271 L 61.669 5.168 C 61.514 5.316 61.31 5.464 61.059 5.612 C 60.807 5.76 60.581 5.871 60.381 5.944 L 60.381 5.322 C 60.741 5.153 61.056 4.948 61.325 4.707 C 61.595 4.466 61.786 4.232 61.898 4.006 L 62.313 4.006 L 62.313 9.271 Z  M 67.349 8.652 L 67.349 9.271 L 63.883 9.271 C 63.878 9.116 63.903 8.967 63.958 8.824 C 64.046 8.588 64.188 8.356 64.382 8.127 C 64.576 7.898 64.857 7.633 65.225 7.332 C 65.794 6.865 66.18 6.495 66.38 6.222 C 66.58 5.949 66.68 5.69 66.68 5.447 C 66.68 5.192 66.589 4.977 66.407 4.802 C 66.224 4.626 65.986 4.539 65.693 4.539 C 65.383 4.539 65.135 4.632 64.949 4.818 C 64.763 5.004 64.669 5.261 64.666 5.59 L 64.005 5.522 C 64.05 5.029 64.221 4.652 64.516 4.394 C 64.812 4.135 65.209 4.006 65.707 4.006 C 66.211 4.006 66.609 4.145 66.902 4.424 C 67.196 4.703 67.342 5.049 67.342 5.462 C 67.342 5.671 67.299 5.878 67.213 6.08 C 67.128 6.283 66.985 6.497 66.786 6.721 C 66.587 6.945 66.256 7.253 65.793 7.644 C 65.407 7.968 65.159 8.188 65.049 8.304 C 64.94 8.419 64.849 8.536 64.777 8.652 L 67.349 8.652 Z " fill-rule="evenodd" fill="rgb(153,153,153)"/><path d=" M 11.781 64 C 11.781 35.176 35.183 11.774 64.007 11.774 C 92.832 11.774 116.233 35.176 116.233 64 C 116.233 92.824 92.832 116.226 64.007 116.226 C 35.183 116.226 11.781 92.824 11.781 64 Z  M 13.49 63.951 C 13.49 36.043 36.148 13.385 64.056 13.385 C 91.964 13.385 114.622 36.043 114.622 63.951 C 114.622 91.859 91.964 114.517 64.056 114.517 C 36.148 114.517 13.49 91.859 13.49 63.951 Z " fill-rule="evenodd" fill="rgb(153,153,153)"/><path d=" M 62.99 12.601 L 65.025 12.601 L 65.025 17.062 L 62.99 17.062 L 62.99 12.601 L 62.99 12.601 L 62.99 12.601 L 62.99 12.601 L 62.99 12.601 L 62.99 12.601 L 62.99 12.601 L 62.99 12.601 L 62.99 12.601 L 62.99 12.601 L 62.99 12.601 Z  M 65.01 115.399 L 62.975 115.399 L 62.975 110.938 L 65.01 110.938 L 65.01 115.399 L 65.01 115.399 L 65.01 115.399 L 65.01 115.399 L 65.01 115.399 L 65.01 115.399 L 65.01 115.399 L 65.01 115.399 L 65.01 115.399 L 65.01 115.399 L 65.01 115.399 Z  M 88.824 18.982 L 90.587 20 L 88.356 23.863 L 86.594 22.846 L 88.824 18.982 L 88.824 18.982 L 88.824 18.982 L 88.824 18.982 L 88.824 18.982 L 88.824 18.982 L 88.824 18.982 L 88.824 18.982 L 88.824 18.982 L 88.824 18.982 Z  M 39.176 109.018 L 37.413 108 L 39.644 104.137 L 41.406 105.154 L 39.176 109.018 L 39.176 109.018 L 39.176 109.018 L 39.176 109.018 L 39.176 109.018 L 39.176 109.018 L 39.176 109.018 L 39.176 109.018 L 39.176 109.018 Z  M 108.007 37.426 L 109.025 39.188 L 105.162 41.418 L 104.144 39.656 L 108.007 37.426 L 108.007 37.426 L 108.007 37.426 L 108.007 37.426 L 108.007 37.426 L 108.007 37.426 L 108.007 37.426 L 108.007 37.426 Z  M 19.993 90.574 L 18.975 88.812 L 22.838 86.582 L 23.856 88.344 L 19.993 90.574 L 19.993 90.574 L 19.993 90.574 L 19.993 90.574 L 19.993 90.574 L 19.993 90.574 L 19.993 90.574 Z  M 115.399 62.99 L 115.399 65.025 L 110.938 65.025 L 110.938 62.99 L 115.399 62.99 L 115.399 62.99 L 115.399 62.99 L 115.399 62.99 L 115.399 62.99 L 115.399 62.99 Z  M 12.601 65.01 L 12.601 62.975 L 17.062 62.975 L 17.062 65.01 L 12.601 65.01 L 12.601 65.01 L 12.601 65.01 L 12.601 65.01 L 12.601 65.01 Z  M 109.018 88.824 L 108 90.587 L 104.137 88.356 L 105.154 86.594 L 109.018 88.824 L 109.018 88.824 L 109.018 88.824 L 109.018 88.824 Z  M 18.982 39.176 L 20 37.413 L 23.863 39.644 L 22.846 41.406 L 18.982 39.176 L 18.982 39.176 L 18.982 39.176 Z  M 90.574 108.007 L 88.812 109.025 L 86.582 105.162 L 88.344 104.144 L 90.574 108.007 L 90.574 108.007 Z  M 37.426 19.993 L 39.188 18.975 L 41.418 22.838 L 39.656 23.856 L 37.426 19.993 Z " fill-rule="evenodd" fill="rgb(153,153,153)"/></g></g></svg>