<?xml version="1.0" encoding="UTF-8" standalone="no"?>
<!-- Created with Inkscape (http://www.inkscape.org/) -->

<svg
   xmlns:dc="http://purl.org/dc/elements/1.1/"
   xmlns:cc="http://creativecommons.org/ns#"
   xmlns:rdf="http://www.w3.org/1999/02/22-rdf-syntax-ns#"
   xmlns:svg="http://www.w3.org/2000/svg"
   xmlns="http://www.w3.org/2000/svg"
   xmlns:sodipodi="http://sodipodi.sourceforge.net/DTD/sodipodi-0.dtd"
   xmlns:inkscape="http://www.inkscape.org/namespaces/inkscape"
   width="64"
   height="64"
   id="svg2"
   version="1.1"
   inkscape:version="0.48.4 r9939"
   sodipodi:docname="label-icon.svg">
  <defs
     id="defs4" />
  <sodipodi:namedview
     id="base"
     pagecolor="#ffffff"
     bordercolor="#666666"
     borderopacity="1.0"
     inkscape:pageopacity="0.0"
     inkscape:pageshadow="2"
     inkscape:zoom="4"
     inkscape:cx="29.108124"
     inkscape:cy="22.260197"
     inkscape:document-units="px"
     inkscape:current-layer="layer1"
     showgrid="true"
     showborder="true"
     inkscape:showpageshadow="false"
     inkscape:snap-bbox="true"
     inkscape:snap-nodes="false"
     inkscape:window-width="1440"
     inkscape:window-height="828"
     inkscape:window-x="0"
     inkscape:window-y="0"
     inkscape:window-maximized="1">
    <inkscape:grid
       type="xygrid"
       id="grid2985"
       empspacing="5"
       visible="true"
       enabled="true"
       snapvisiblegridlinesonly="true"
       spacingx="4px"
       spacingy="4px" />
  </sodipodi:namedview>
  <metadata
     id="metadata7">
    <rdf:RDF>
      <cc:Work
         rdf:about="">
        <dc:format>image/svg+xml</dc:format>
        <dc:type
           rdf:resource="http://purl.org/dc/dcmitype/StillImage" />
        <dc:title />
      </cc:Work>
    </rdf:RDF>
  </metadata>
  <g
     inkscape:label="Layer 1"
     inkscape:groupmode="layer"
     id="layer1"
     transform="translate(0,-988.36218)">
    <rect
       style="fill:#ff0000;fill-opacity:1;stroke:none;stroke-width:4;stroke-miterlimit:4;stroke-dasharray:none;stroke-opacity:1"
       id="rect2987"
       width="48"
       height="32"
       x="8"
       y="1004.3622"
       rx="2" />
    <g
       transform="scale(0.98009776,1.0203064)"
       style="font-size:129.0657196px;font-style:normal;font-weight:normal;line-height:125%;letter-spacing:0px;word-spacing:0px;fill:#000000;fill-opacity:1;stroke:none;font-family:Sans"
       id="text3757">
      <path
         d="m 16.324902,996.13431 1.060843,0 0,6.94799 3.817984,0 0,0.8928 -4.878827,0 0,-7.84079"
         style="font-size:10.75547695px"
         id="path3781" />
      <path
         d="m 25.184516,997.1794 -1.438965,3.902 2.883182,0 -1.444217,-3.902 m -0.598693,-1.04509 1.202639,0 2.988216,7.84079 -1.102857,0 -0.714231,-2.0114 -3.534392,0 -0.714231,2.0114 -1.118612,0 2.993468,-7.84079"
         style="font-size:10.75547695px"
         id="path3783" />
      <path
         d="m 30.97714,1000.2306 0,2.8727 1.70155,0 c 0.57068,0 0.992566,-0.1173 1.265659,-0.3518 0.276584,-0.2381 0.414878,-0.6005 0.414884,-1.0871 -6e-6,-0.4902 -0.1383,-0.8508 -0.414884,-1.0819 -0.273093,-0.2346 -0.694979,-0.3519 -1.265659,-0.3519 l -1.70155,0 m 0,-3.22451 0,2.36327 1.570257,0 c 0.518163,0 0.903288,-0.0963 1.155374,-0.28884 0.255577,-0.19606 0.383368,-0.49366 0.383374,-0.89279 -6e-6,-0.39562 -0.127797,-0.69147 -0.383374,-0.88754 -0.252086,-0.19606 -0.637211,-0.29409 -1.155374,-0.2941 l -1.570257,0 m -1.060843,-0.87178 2.709876,0 c 0.808757,10e-6 1.431957,0.16806 1.869604,0.50417 0.437635,0.33611 0.656456,0.81402 0.656462,1.43371 -6e-6,0.47966 -0.112042,0.86128 -0.336108,1.14487 -0.224079,0.2836 -0.553185,0.4604 -0.98732,0.53042 0.521664,0.11204 0.926044,0.34662 1.213143,0.70372 0.290587,0.3536 0.435884,0.7965 0.435891,1.3287 -7e-6,0.7002 -0.238084,1.2411 -0.714231,1.6228 -0.47616,0.3816 -1.153628,0.5724 -2.032407,0.5724 l -2.81491,0 0,-7.84079"
         style="font-size:10.75547695px"
         id="path3785" />
      <path
         d="m 37.289679,996.13431 4.957603,0 0,0.89279 -3.89676,0 0,2.32125 3.733957,0 0,0.89275 -3.733957,0 0,2.8412 3.99129,0 0,0.8928 -5.052133,0 0,-7.84079"
         style="font-size:10.75547695px"
         id="path3787" />
      <path
         d="m 44.095879,996.13431 1.060843,0 0,6.94799 3.817984,0 0,0.8928 -4.878827,0 0,-7.84079"
         style="font-size:10.75547695px"
         id="path3789" />
    </g>
  </g>
</svg>
