<?xml version="1.0" encoding="UTF-8" standalone="no"?>
<!-- Created with Inkscape (http://www.inkscape.org/) -->

<svg
   xmlns:dc="http://purl.org/dc/elements/1.1/"
   xmlns:cc="http://creativecommons.org/ns#"
   xmlns:rdf="http://www.w3.org/1999/02/22-rdf-syntax-ns#"
   xmlns:svg="http://www.w3.org/2000/svg"
   xmlns="http://www.w3.org/2000/svg"
   xmlns:xlink="http://www.w3.org/1999/xlink"
   xmlns:sodipodi="http://sodipodi.sourceforge.net/DTD/sodipodi-0.dtd"
   xmlns:inkscape="http://www.inkscape.org/namespaces/inkscape"
   sodipodi:docname="737xxA3_fuselage_3.svg"
   inkscape:version="0.48.5 r10040"
   version="1.1"
   id="svg4012"
   height="53.781246"
   width="13.34375">
  <defs
     id="defs4014">
    <linearGradient
       id="linearGradient3823">
      <stop
         id="stop3825"
         offset="0"
         style="stop-color:#765337;stop-opacity:1" />
      <stop
         style="stop-color:#c19069;stop-opacity:1"
         offset="0.33824798"
         id="stop3827" />
      <stop
         style="stop-color:#c19069;stop-opacity:1"
         offset="0.67649597"
         id="stop3829" />
      <stop
         id="stop3831"
         offset="1"
         style="stop-color:#765337;stop-opacity:1" />
    </linearGradient>
    <linearGradient
       id="linearGradient3809">
      <stop
         style="stop-color:#000000;stop-opacity:1;"
         offset="0"
         id="stop3811" />
      <stop
         id="stop3819"
         offset="0.25"
         style="stop-color:#000000;stop-opacity:0.74901961;" />
      <stop
         id="stop3817"
         offset="0.5"
         style="stop-color:#000000;stop-opacity:0.49803922;" />
      <stop
         style="stop-color:#000000;stop-opacity:0;"
         offset="1"
         id="stop3813" />
    </linearGradient>
    <linearGradient
       inkscape:collect="always"
       xlink:href="#linearGradient3809"
       id="linearGradient3815"
       x1="335.74503"
       y1="556.13995"
       x2="398.00497"
       y2="556.13995"
       gradientUnits="userSpaceOnUse" />
    <linearGradient
       inkscape:collect="always"
       xlink:href="#linearGradient3809"
       id="linearGradient3869"
       gradientUnits="userSpaceOnUse"
       x1="335.74503"
       y1="556.13995"
       x2="398.00497"
       y2="556.13995" />
    <linearGradient
       inkscape:collect="always"
       xlink:href="#linearGradient3809"
       id="linearGradient3871"
       gradientUnits="userSpaceOnUse"
       x1="335.74503"
       y1="556.13995"
       x2="398.00497"
       y2="556.13995" />
    <linearGradient
       inkscape:collect="always"
       xlink:href="#linearGradient3809"
       id="linearGradient3873"
       gradientUnits="userSpaceOnUse"
       x1="335.74503"
       y1="556.13995"
       x2="398.00497"
       y2="556.13995" />
    <linearGradient
       inkscape:collect="always"
       xlink:href="#linearGradient3809"
       id="linearGradient3875"
       gradientUnits="userSpaceOnUse"
       x1="335.74503"
       y1="556.13995"
       x2="398.00497"
       y2="556.13995" />
    <linearGradient
       inkscape:collect="always"
       xlink:href="#linearGradient3809"
       id="linearGradient3879"
       gradientUnits="userSpaceOnUse"
       x1="335.74503"
       y1="556.13995"
       x2="398.00497"
       y2="556.13995" />
    <linearGradient
       inkscape:collect="always"
       xlink:href="#linearGradient3809"
       id="linearGradient3881"
       gradientUnits="userSpaceOnUse"
       x1="335.74503"
       y1="556.13995"
       x2="398.00497"
       y2="556.13995" />
    <linearGradient
       inkscape:collect="always"
       xlink:href="#linearGradient3809"
       id="linearGradient3883"
       gradientUnits="userSpaceOnUse"
       x1="335.74503"
       y1="556.13995"
       x2="398.00497"
       y2="556.13995" />
    <linearGradient
       inkscape:collect="always"
       xlink:href="#linearGradient3809"
       id="linearGradient3885"
       gradientUnits="userSpaceOnUse"
       x1="335.74503"
       y1="556.13995"
       x2="398.00497"
       y2="556.13995" />
    <filter
       inkscape:label="Drop Shadow"
       id="filter3064"
       color-interpolation-filters="sRGB">
      <feFlood
         flood-opacity="0.5"
         flood-color="rgb(0,0,0)"
         result="flood"
         id="feFlood3066" />
      <feComposite
         in="flood"
         in2="SourceGraphic"
         operator="in"
         result="composite1"
         id="feComposite3068" />
      <feGaussianBlur
         stdDeviation="3"
         result="blur"
         id="feGaussianBlur3070" />
      <feOffset
         dx="0"
         dy="0"
         result="offset"
         id="feOffset3072" />
      <feComposite
         in="SourceGraphic"
         in2="offset"
         operator="over"
         result="composite2"
         id="feComposite3074" />
    </filter>
    <linearGradient
       inkscape:collect="always"
       xlink:href="#linearGradient3823"
       id="linearGradient3082"
       gradientUnits="userSpaceOnUse"
       x1="335.74503"
       y1="556.13995"
       x2="398.00497"
       y2="556.13995"
       gradientTransform="matrix(-0.18385412,0,0,0.18385412,433.56677,760.18887)" />
    <linearGradient
       inkscape:collect="always"
       xlink:href="#linearGradient3823"
       id="linearGradient3942"
       gradientUnits="userSpaceOnUse"
       gradientTransform="matrix(-0.18385412,0,0,0.18385412,127.23049,-33.24862)"
       x1="335.74503"
       y1="556.13995"
       x2="398.00497"
       y2="556.13995" />
    <linearGradient
       inkscape:collect="always"
       xlink:href="#linearGradient3823"
       id="linearGradient3945"
       gradientUnits="userSpaceOnUse"
       gradientTransform="matrix(-0.19457861,0,0,0.18383532,437.62822,760.20373)"
       x1="335.74503"
       y1="556.13995"
       x2="398.00497"
       y2="556.13995" />
  </defs>
  <sodipodi:namedview
     id="base"
     pagecolor="#ffffff"
     bordercolor="#666666"
     borderopacity="1.0"
     inkscape:pageopacity="0.0"
     inkscape:pageshadow="2"
     inkscape:zoom="22.4"
     inkscape:cx="0.51503581"
     inkscape:cy="7.5405303"
     inkscape:document-units="px"
     inkscape:current-layer="g3808"
     showgrid="false"
     inkscape:window-width="1440"
     inkscape:window-height="802"
     inkscape:window-x="0"
     inkscape:window-y="18"
     inkscape:window-maximized="0"
     inkscape:snap-global="true"
     inkscape:snap-bbox="true"
     fit-margin-top="1"
     fit-margin-left="1"
     fit-margin-right="1"
     fit-margin-bottom="1" />
  <metadata
     id="metadata4017">
    <rdf:RDF>
      <cc:Work
         rdf:about="">
        <dc:format>image/svg+xml</dc:format>
        <dc:type
           rdf:resource="http://purl.org/dc/dcmitype/StillImage" />
        <dc:title />
      </cc:Work>
    </rdf:RDF>
  </metadata>
  <g
     inkscape:label="Layer 1"
     inkscape:groupmode="layer"
     id="layer1"
     style="display:inline"
     transform="translate(-359.43003,-878.65624)">
    <g
       id="g3808">
      <path
         style="fill:url(#linearGradient3945);fill-opacity:1;stroke:none"
         d="m 360.3576,879.65889 c 0.003,1.86187 0,8.36671 0,8.7491 0,3.46833 3.21665,26.40616 5.88697,29.05953 2.67032,-2.65337 5.88697,-25.5912 5.88697,-29.05953 0,-0.38239 -0.003,-6.88723 0,-8.7491 l -11.77394,0 z"
         id="path3899"
         inkscape:connector-curvature="0" />
      <path
         style="font-size:medium;font-style:normal;font-variant:normal;font-weight:normal;font-stretch:normal;text-indent:0;text-align:start;text-decoration:none;line-height:normal;letter-spacing:normal;word-spacing:normal;text-transform:none;direction:ltr;block-progression:tb;writing-mode:lr-tb;text-anchor:start;baseline-shift:baseline;color:#000000;fill:#000000;fill-opacity:1;fill-rule:nonzero;stroke:none;stroke-width:0.18385412px;marker:none;visibility:visible;display:inline;overflow:visible;enable-background:accumulate;font-family:Sans;-inkscape-font-specification:Sans"
         d="m 360.22531,879.65889 c 0.001,1.8626 0,8.36697 0,8.7491 0,0.8805 0.21886,2.94415 0.56224,5.62443 0.34337,2.68027 0.81994,5.96744 1.38906,9.2178 0.56912,3.25037 1.24019,6.48057 1.91822,9.06158 0.33902,1.29051 0.67987,2.41952 1.02526,3.31216 0.33412,0.86347 0.6501,1.48373 0.99219,1.84356 0.004,0.005 -0.004,0.0266 0,0.0312 l 0,0.21873 0.13229,-0.0937 0.0992,0.0937 0,-0.21873 c 0.004,-0.005 -0.004,-0.0266 0,-0.0312 0.34216,-0.35978 0.69106,-0.97989 1.02525,-1.84356 0.3454,-0.89264 0.68625,-2.02165 1.02526,-3.31216 0.67803,-2.58101 1.31604,-5.81121 1.88516,-9.06158 0.56911,-3.25036 1.04568,-6.53753 1.38906,-9.2178 0.34337,-2.68028 0.56223,-4.74393 0.56223,-5.62443 0,-0.38213 -0.004,-6.88651 0,-8.7491 l -0.19843,0 c -0.004,1.86273 0,8.36646 0,8.7491 0,0.85367 -0.18615,2.94694 -0.52917,5.62443 -0.34301,2.67748 -0.85354,5.9392 -1.42213,9.18656 -0.56859,3.24736 -1.20922,6.45731 -1.88515,9.03032 -0.33797,1.28651 -0.68369,2.4294 -1.02526,3.31217 -0.3231,0.83501 -0.62685,1.42194 -0.92604,1.74982 -0.30098,-0.32599 -0.63368,-0.90877 -0.95912,-1.74982 -0.34157,-0.88277 -0.68729,-2.02566 -1.02526,-3.31217 -0.67593,-2.57301 -1.31656,-5.78296 -1.88515,-9.03032 -0.56859,-3.24736 -1.04604,-6.50908 -1.38906,-9.18656 -0.34301,-2.67749 -0.56224,-4.77076 -0.56224,-5.62443 0,-0.38264 0.001,-6.88636 0,-8.7491 l -0.19843,0 z"
         id="path3084"
         inkscape:connector-curvature="0" />
      <path
         sodipodi:nodetypes="cccccc"
         inkscape:connector-curvature="0"
         id="path3922"
         d="m 366.24828,888.07269 c 1.7e-4,0.005 1.51863,10.0235 1.65392,13.98872 -0.0831,9.6953 -1.65392,29.28151 -1.65392,29.28151 0,0 -1.41487,-20.61883 -1.66608,-29.28151 0.39312,-4.89164 1.66606,-13.98872 1.66606,-13.98872 z"
         style="fill:#c19069;fill-opacity:1;stroke:#000000;stroke-width:0.18913069px;stroke-linecap:butt;stroke-linejoin:miter;stroke-opacity:1" />
      <g
         style="fill:none;stroke:#000000;stroke-opacity:1"
         id="g3979"
         transform="matrix(-0.19457861,0,0,0.18383532,437.62822,760.20373)">
        <path
           style="fill:none;stroke:#000000;stroke-width:1px;stroke-linecap:butt;stroke-linejoin:miter;stroke-opacity:1"
           d="m 337.64349,714.33989 c 5.17703,0.25254 10.73287,-0.37881 11.74302,2.14657 1.01015,2.52538 2.14657,13.38452 -0.12627,14.01587 -2.27284,0.63135 -9.84899,-1.51523 -9.84899,-1.51523"
           id="path3971"
           inkscape:connector-curvature="0" />
      </g>
      <g
         style="fill:none;stroke:#000000;stroke-opacity:1"
         transform="matrix(0.19457861,0,0,0.18383532,294.93072,760.20373)"
         id="g3985">
        <path
           inkscape:connector-curvature="0"
           id="path3987"
           d="m 337.64349,714.33989 c 5.17703,0.25254 10.73287,-0.37881 11.74302,2.14657 1.01015,2.52538 2.14657,13.38452 -0.12627,14.01587 -2.27284,0.63135 -9.84899,-1.51523 -9.84899,-1.51523"
           style="fill:none;stroke:#000000;stroke-width:1px;stroke-linecap:butt;stroke-linejoin:miter;stroke-opacity:1" />
      </g>
    </g>
  </g>
</svg>
