<?xml version="1.0" encoding="UTF-8" standalone="no"?>
<!-- Created with Inkscape (http://www.inkscape.org/) -->

<svg
   xmlns:dc="http://purl.org/dc/elements/1.1/"
   xmlns:cc="http://creativecommons.org/ns#"
   xmlns:rdf="http://www.w3.org/1999/02/22-rdf-syntax-ns#"
   xmlns:svg="http://www.w3.org/2000/svg"
   xmlns="http://www.w3.org/2000/svg"
   xmlns:xlink="http://www.w3.org/1999/xlink"
   xmlns:sodipodi="http://sodipodi.sourceforge.net/DTD/sodipodi-0.dtd"
   xmlns:inkscape="http://www.inkscape.org/namespaces/inkscape"
   sodipodi:docname="737_wing_L_1.svg"
   inkscape:version="0.48.5 r10040"
   version="1.1"
   id="svg4012"
   height="23.21875"
   width="35.344639">
  <defs
     id="defs4014">
    <linearGradient
       id="linearGradient3823">
      <stop
         id="stop3825"
         offset="0"
         style="stop-color:#765337;stop-opacity:1" />
      <stop
         style="stop-color:#c19069;stop-opacity:1"
         offset="0.33824798"
         id="stop3827" />
      <stop
         style="stop-color:#c19069;stop-opacity:1"
         offset="0.67649597"
         id="stop3829" />
      <stop
         id="stop3831"
         offset="1"
         style="stop-color:#765337;stop-opacity:1" />
    </linearGradient>
    <linearGradient
       id="linearGradient3809">
      <stop
         style="stop-color:#000000;stop-opacity:1;"
         offset="0"
         id="stop3811" />
      <stop
         id="stop3819"
         offset="0.25"
         style="stop-color:#000000;stop-opacity:0.74901961;" />
      <stop
         id="stop3817"
         offset="0.5"
         style="stop-color:#000000;stop-opacity:0.49803922;" />
      <stop
         style="stop-color:#000000;stop-opacity:0;"
         offset="1"
         id="stop3813" />
    </linearGradient>
    <linearGradient
       inkscape:collect="always"
       xlink:href="#linearGradient3809"
       id="linearGradient3815"
       x1="335.74503"
       y1="556.13995"
       x2="398.00497"
       y2="556.13995"
       gradientUnits="userSpaceOnUse" />
    <linearGradient
       inkscape:collect="always"
       xlink:href="#linearGradient3809"
       id="linearGradient3875"
       gradientUnits="userSpaceOnUse"
       x1="335.74503"
       y1="556.13995"
       x2="398.00497"
       y2="556.13995" />
    <linearGradient
       inkscape:collect="always"
       xlink:href="#linearGradient3809"
       id="linearGradient3885"
       gradientUnits="userSpaceOnUse"
       x1="335.74503"
       y1="556.13995"
       x2="398.00497"
       y2="556.13995" />
    <filter
       inkscape:label="Drop Shadow"
       id="filter3064"
       color-interpolation-filters="sRGB">
      <feFlood
         flood-opacity="0.5"
         flood-color="rgb(0,0,0)"
         result="flood"
         id="feFlood3066" />
      <feComposite
         in="flood"
         in2="SourceGraphic"
         operator="in"
         result="composite1"
         id="feComposite3068" />
      <feGaussianBlur
         stdDeviation="3"
         result="blur"
         id="feGaussianBlur3070" />
      <feOffset
         dx="0"
         dy="0"
         result="offset"
         id="feOffset3072" />
      <feComposite
         in="SourceGraphic"
         in2="offset"
         operator="over"
         result="composite2"
         id="feComposite3074" />
    </filter>
  </defs>
  <sodipodi:namedview
     id="base"
     pagecolor="#ffffff"
     bordercolor="#666666"
     borderopacity="1.0"
     inkscape:pageopacity="0.0"
     inkscape:pageshadow="2"
     inkscape:zoom="18.214835"
     inkscape:cx="22.930449"
     inkscape:cy="17.061246"
     inkscape:document-units="px"
     inkscape:current-layer="layer1"
     showgrid="false"
     inkscape:window-width="1920"
     inkscape:window-height="1060"
     inkscape:window-x="-2"
     inkscape:window-y="-3"
     inkscape:window-maximized="1"
     inkscape:snap-global="false"
     inkscape:snap-bbox="true"
     fit-margin-top="1"
     fit-margin-left="1"
     fit-margin-right="1"
     fit-margin-bottom="1" />
  <metadata
     id="metadata4017">
    <rdf:RDF>
      <cc:Work
         rdf:about="">
        <dc:format>image/svg+xml</dc:format>
        <dc:type
           rdf:resource="http://purl.org/dc/dcmitype/StillImage" />
        <dc:title></dc:title>
      </cc:Work>
    </rdf:RDF>
  </metadata>
  <g
     inkscape:label="Layer 1"
     inkscape:groupmode="layer"
     id="layer1"
     style="display:inline"
     transform="translate(-305.33539,-850.65624)">
    <path
       style="fill:#c19069;fill-opacity:1;stroke:none"
       d="M 32.78125,58.3125 C 22.030177,63.187899 7.8828191,69.599853 7.40625,69.875 6.89249,70.17162 0.35,77.65177 0.1875,78 0.025,78.34823 0.09375,79.28125 0.09375,79.28125 c 0,0 4.77309,-2.98667 5.4375,-3.21875 0.5379904,-0.187925 16.38789,-4.740452 27.8125,-7.8125 l -0.5625,-9.9375 z"
       transform="translate(306.33628,793.43749)"
       id="path4031"
       inkscape:connector-curvature="0" />
    <path
       style="font-size:medium;font-style:normal;font-variant:normal;font-weight:normal;font-stretch:normal;text-indent:0;text-align:start;text-decoration:none;line-height:normal;letter-spacing:normal;word-spacing:normal;text-transform:none;direction:ltr;block-progression:tb;writing-mode:lr-tb;text-anchor:start;baseline-shift:baseline;color:#000000;fill:#000000;fill-opacity:1;stroke:none;stroke-width:0.18385412px;marker:none;visibility:visible;display:inline;overflow:visible;enable-background:accumulate;font-family:Sans;-inkscape-font-specification:Sans"
       d="m 32.875,59.875 c -1.268294,0.578441 -4.845714,2.217948 -9.71875,4.4375 -2.83523,1.29138 -5.704,2.57208 -7.84375,3.5625 -1.06988,0.49521 -1.96149,0.91692 -2.59375,1.21875 -0.31613,0.15092 -0.5443,0.28683 -0.71875,0.375 -0.0872,0.0441 -0.16985,0.06655 -0.21875,0.09375 -0.0245,0.0136 -0.0465,0.02085 -0.0625,0.03125 -0.008,0.005 -0.02385,0.02535 -0.03125,0.03125 -0.005,0.004 5.4e-4,0.03035 0,0.03125 -0.0314,0.0524 -0.051,0.11349 -0.0625,0.1875 -0.0115,0.074 -0.02575,0.15129 -0.03125,0.25 -0.0111,0.19743 -0.003,0.42581 0,0.65625 0.006,0.46087 0.03125,0.90625 0.03125,0.90625 l 0,0.125 0.125,-0.0625 21.34375,-7.78125 0,-0.1875 -21.3125,7.78125 c -0.004,-0.0778 0.005,-0.374 0,-0.78125 -0.003,-0.22806 -0.0107,-0.46628 0,-0.65625 0.005,-0.095 0.02125,-0.18562 0.03125,-0.25 0.01,-0.0644 0.02795,-0.08815 0.03125,-0.09375 0.009,-0.006 0.01785,-0.02375 0.03125,-0.03125 0.0448,-0.025 0.10146,-0.05035 0.1875,-0.09375 0.17207,-0.087 0.43452,-0.22439 0.75,-0.375 0.63097,-0.30122 1.52421,-0.72369 2.59375,-1.21875 2.13908,-0.99011 4.97744,-2.2712 7.8125,-3.5625 4.840021,-2.204514 8.348763,-3.785354 9.65625,-4.375 l 0,-0.21875 z m 0.28125,5 -1.9375,0.5 -0.125,0 0,0.03125 -3.53125,0.90625 -0.03125,0 0,0.03125 -0.09375,1.6875 -0.03125,0 0,0.09375 0.125,1.65625 0.1875,0 -0.125,-1.59375 5.65625,-1.4375 0,-0.21875 -1.96875,0.5 -0.0625,-1.5625 1.9375,-0.5 0,-0.09375 z M 31.09375,65.5 31.1875,67.0625 27.53125,68 27.625,66.40625 31.09375,65.5 z m -4.0625,2.6875 -0.0625,0.03125 -11.25,3.4375 -0.03125,0 0,0.03125 0,1.40625 0.09375,0 0,-1.34375 11.15625,-3.40625 0.125,1.59375 0.09375,-0.03125 -0.125,-1.65625 0,-0.0625 z"
       transform="translate(306.33628,793.43749)"
       id="path4033"
       inkscape:connector-curvature="0" />
    <path
       style="fill:#715138;fill-opacity:1;stroke:none"
       d="M 32.78125,58.40625 7.625,69.84375 7.5,70.625 32.8125,59.09375 32.78125,58.40625 z"
       transform="translate(306.33628,793.43749)"
       id="path4055"
       inkscape:connector-curvature="0" />
    <path
       style="font-size:medium;font-style:normal;font-variant:normal;font-weight:normal;font-stretch:normal;text-indent:0;text-align:start;text-decoration:none;line-height:normal;letter-spacing:normal;word-spacing:normal;text-transform:none;direction:ltr;block-progression:tb;writing-mode:lr-tb;text-anchor:start;baseline-shift:baseline;color:#000000;fill:#000000;fill-opacity:1;fill-rule:nonzero;stroke:none;stroke-width:0.18385412px;marker:none;visibility:visible;display:inline;overflow:visible;enable-background:accumulate;font-family:Sans;-inkscape-font-specification:Sans"
       d="M 32.78125,58.21875 C 29.832573,59.558415 29.229765,59.822922 25.8125,61.375 21.28965,63.42922 16.77988,65.49374 13.34375,67.0625 11.62569,67.84688 10.1635,68.49003 9.125,68.96875 8.60575,69.20811 8.20481,69.39126 7.90625,69.53125 7.60769,69.67124 7.43414,69.77835 7.375,69.8125 7.325,69.8414 7.26538,69.8647 7.1875,69.9375 7.1096,70.0103 7.02104,70.1326 6.90625,70.25 6.67667,70.4848 6.37574,70.78163 6.03125,71.15625 5.34227,71.90549 4.45426,72.89931 3.59375,73.875 2.73324,74.85069 1.89481,75.80706 1.25,76.5625 0.92759,76.94022 0.66492,77.26072 0.46875,77.5 c -0.0981,0.11964 -0.19203,0.23722 -0.25,0.3125 -0.058,0.0753 -0.10318,0.1095 -0.125,0.15625 C -0.00285,78.17573 0.0019,78.5037 0,78.78125 c -0.002,0.27755 0,0.5 0,0.5 l 0.03125,0.15625 0.125,-0.09375 c 0,0 1.16633,-0.72703 2.4375,-1.5 0.63558,-0.38648 1.30558,-0.78259 1.84375,-1.09375 0.53817,-0.31116 0.98444,-0.54465 1.125,-0.59375 0.042,-0.0147 0.22132,-0.0959 0.53125,-0.1875 0.30993,-0.0916 0.7457,-0.18824 1.28125,-0.34375 1.07109,-0.31101 2.54243,-0.74385 4.3125,-1.25 3.54014,-1.0123 8.22539,-2.34591 12.9375,-3.65625 3.019317,-0.839609 5.947626,-1.633081 8.71875,-2.375 l 0,-0.1875 c -2.7873,0.746 -5.739461,1.529139 -8.78125,2.375 -4.71267,1.3105 -9.36572,2.64384 -12.90625,3.65625 -1.77026,0.5062 -3.27231,0.93889 -4.34375,1.25 -0.53572,0.15556 -0.97084,0.28325 -1.28125,0.375 C 5.72084,75.9043 5.55978,75.94787 5.5,75.96875 5.30835,76.03565 4.88402,76.28137 4.34375,76.59375 3.80348,76.90613 3.13623,77.30062 2.5,77.6875 1.28943,78.42362 0.29507,79.0577 0.1875,79.125 c -0.005,-0.0788 -0.001,-0.1468 0,-0.34375 0.002,-0.26857 0.02785,-0.60875 0.09375,-0.75 -0.002,0.003 0.03785,-0.0523 0.09375,-0.125 C 0.431,77.83355 0.49635,77.74381 0.59375,77.625 0.78855,77.38739 1.05306,77.06467 1.375,76.6875 2.01888,75.93315 2.89007,74.94378 3.75,73.96875 4.60993,72.99372 5.46873,72.0289 6.15625,71.28125 6.50001,70.90742 6.804,70.60742 7.03125,70.375 7.14487,70.25879 7.23801,70.16334 7.3125,70.09375 c 0.0745,-0.0696 0.14207,-0.11681 0.15625,-0.125 0.0274,-0.0159 0.20211,-0.11032 0.5,-0.25 0.29789,-0.13968 0.73095,-0.35448 1.25,-0.59375 1.03811,-0.47854 2.46954,-1.12192 4.1875,-1.90625 3.43591,-1.56867 7.94595,-3.63331 12.46875,-5.6875 3.388195,-1.538874 3.973314,-1.79798 6.90625,-3.125 l 0,-0.1875 z"
       transform="translate(306.33628,793.43749)"
       id="path3160"
       inkscape:connector-curvature="0" />
  </g>
</svg>
