<?xml version="1.0" encoding="UTF-8" standalone="no"?>
<!-- Created with Inkscape (http://www.inkscape.org/) -->

<svg
   xmlns:dc="http://purl.org/dc/elements/1.1/"
   xmlns:cc="http://creativecommons.org/ns#"
   xmlns:rdf="http://www.w3.org/1999/02/22-rdf-syntax-ns#"
   xmlns:svg="http://www.w3.org/2000/svg"
   xmlns="http://www.w3.org/2000/svg"
   xmlns:xlink="http://www.w3.org/1999/xlink"
   xmlns:sodipodi="http://sodipodi.sourceforge.net/DTD/sodipodi-0.dtd"
   xmlns:inkscape="http://www.inkscape.org/namespaces/inkscape"
   sodipodi:docname="737_wing_L_2.svg"
   inkscape:version="0.48.5 r10040"
   version="1.1"
   id="svg4012"
   height="23.21875"
   width="35.344639">
  <defs
     id="defs4014">
    <linearGradient
       id="linearGradient3823">
      <stop
         id="stop3825"
         offset="0"
         style="stop-color:#765337;stop-opacity:1" />
      <stop
         style="stop-color:#c19069;stop-opacity:1"
         offset="0.33824798"
         id="stop3827" />
      <stop
         style="stop-color:#c19069;stop-opacity:1"
         offset="0.67649597"
         id="stop3829" />
      <stop
         id="stop3831"
         offset="1"
         style="stop-color:#765337;stop-opacity:1" />
    </linearGradient>
    <linearGradient
       id="linearGradient3809">
      <stop
         style="stop-color:#000000;stop-opacity:1;"
         offset="0"
         id="stop3811" />
      <stop
         id="stop3819"
         offset="0.25"
         style="stop-color:#000000;stop-opacity:0.74901961;" />
      <stop
         id="stop3817"
         offset="0.5"
         style="stop-color:#000000;stop-opacity:0.49803922;" />
      <stop
         style="stop-color:#000000;stop-opacity:0;"
         offset="1"
         id="stop3813" />
    </linearGradient>
    <linearGradient
       inkscape:collect="always"
       xlink:href="#linearGradient3809"
       id="linearGradient3815"
       x1="335.74503"
       y1="556.13995"
       x2="398.00497"
       y2="556.13995"
       gradientUnits="userSpaceOnUse" />
    <linearGradient
       inkscape:collect="always"
       xlink:href="#linearGradient3809"
       id="linearGradient3875"
       gradientUnits="userSpaceOnUse"
       x1="335.74503"
       y1="556.13995"
       x2="398.00497"
       y2="556.13995" />
    <linearGradient
       inkscape:collect="always"
       xlink:href="#linearGradient3809"
       id="linearGradient3885"
       gradientUnits="userSpaceOnUse"
       x1="335.74503"
       y1="556.13995"
       x2="398.00497"
       y2="556.13995" />
    <filter
       inkscape:label="Drop Shadow"
       id="filter3064"
       color-interpolation-filters="sRGB">
      <feFlood
         flood-opacity="0.5"
         flood-color="rgb(0,0,0)"
         result="flood"
         id="feFlood3066" />
      <feComposite
         in="flood"
         in2="SourceGraphic"
         operator="in"
         result="composite1"
         id="feComposite3068" />
      <feGaussianBlur
         stdDeviation="3"
         result="blur"
         id="feGaussianBlur3070" />
      <feOffset
         dx="0"
         dy="0"
         result="offset"
         id="feOffset3072" />
      <feComposite
         in="SourceGraphic"
         in2="offset"
         operator="over"
         result="composite2"
         id="feComposite3074" />
    </filter>
  </defs>
  <sodipodi:namedview
     id="base"
     pagecolor="#ffffff"
     bordercolor="#666666"
     borderopacity="1.0"
     inkscape:pageopacity="0.0"
     inkscape:pageshadow="2"
     inkscape:zoom="18.214835"
     inkscape:cx="22.930449"
     inkscape:cy="17.061246"
     inkscape:document-units="px"
     inkscape:current-layer="layer1"
     showgrid="false"
     inkscape:window-width="1920"
     inkscape:window-height="1060"
     inkscape:window-x="-2"
     inkscape:window-y="-3"
     inkscape:window-maximized="1"
     inkscape:snap-global="false"
     inkscape:snap-bbox="true"
     fit-margin-top="1"
     fit-margin-left="1"
     fit-margin-right="1"
     fit-margin-bottom="1" />
  <metadata
     id="metadata4017">
    <rdf:RDF>
      <cc:Work
         rdf:about="">
        <dc:format>image/svg+xml</dc:format>
        <dc:type
           rdf:resource="http://purl.org/dc/dcmitype/StillImage" />
        <dc:title></dc:title>
      </cc:Work>
    </rdf:RDF>
  </metadata>
  <g
     inkscape:label="Layer 1"
     inkscape:groupmode="layer"
     id="layer1"
     style="display:inline"
     transform="translate(-305.33539,-850.65624)">
    <path
       style="fill:#c19069;fill-opacity:1;stroke:none"
       d="m 306.89789,851.74999 c 10.75107,4.8754 24.89843,11.28735 25.375,11.5625 0.51376,0.29662 7.05625,7.77677 7.21875,8.125 0.1625,0.34823 0.0937,1.28125 0.0937,1.28125 0,0 -4.77309,-2.98667 -5.4375,-3.21875 -0.53799,-0.18792 -16.38789,-4.74045 -27.8125,-7.8125 l 0.5625,-9.9375 z"
       id="path4031"
       inkscape:connector-curvature="0" />
    <path
       style="font-size:medium;font-style:normal;font-variant:normal;font-weight:normal;font-stretch:normal;text-indent:0;text-align:start;text-decoration:none;line-height:normal;letter-spacing:normal;word-spacing:normal;text-transform:none;direction:ltr;block-progression:tb;writing-mode:lr-tb;text-anchor:start;baseline-shift:baseline;color:#000000;fill:#000000;fill-opacity:1;stroke:none;stroke-width:0.18385412px;marker:none;visibility:visible;display:inline;overflow:visible;enable-background:accumulate;font-family:Sans;-inkscape-font-specification:Sans"
       d="m 306.80414,853.31249 c 1.2683,0.57844 4.84572,2.21795 9.71875,4.4375 2.83523,1.29138 5.704,2.57208 7.84375,3.5625 1.06988,0.49521 1.96149,0.91692 2.59375,1.21875 0.31613,0.15092 0.5443,0.28683 0.71875,0.375 0.0872,0.0441 0.16985,0.0666 0.21875,0.0937 0.0245,0.0136 0.0465,0.0208 0.0625,0.0312 0.008,0.005 0.0238,0.0254 0.0312,0.0312 0.005,0.004 -5.4e-4,0.0303 0,0.0312 0.0314,0.0524 0.051,0.11349 0.0625,0.1875 0.0115,0.074 0.0257,0.15129 0.0312,0.25 0.0111,0.19743 0.003,0.42581 0,0.65625 -0.006,0.46087 -0.0312,0.90625 -0.0312,0.90625 l 0,0.125 -0.125,-0.0625 -21.34375,-7.78125 0,-0.1875 21.3125,7.78125 c 0.004,-0.0778 -0.005,-0.374 0,-0.78125 0.003,-0.22806 0.0107,-0.46628 0,-0.65625 -0.005,-0.095 -0.0213,-0.18562 -0.0312,-0.25 -0.01,-0.0644 -0.028,-0.0882 -0.0312,-0.0937 -0.009,-0.006 -0.0179,-0.0238 -0.0312,-0.0312 -0.0448,-0.025 -0.10146,-0.0503 -0.1875,-0.0937 -0.17207,-0.087 -0.43452,-0.22439 -0.75,-0.375 -0.63097,-0.30122 -1.52421,-0.72369 -2.59375,-1.21875 -2.13908,-0.99011 -4.97744,-2.2712 -7.8125,-3.5625 -4.84002,-2.20451 -8.34876,-3.78535 -9.65625,-4.375 l 0,-0.21875 z m -0.28125,5 1.9375,0.5 0.125,0 0,0.0312 3.53125,0.90625 0.0312,0 0,0.0312 0.0937,1.6875 0.0312,0 0,0.0937 -0.125,1.65625 -0.1875,0 0.125,-1.59375 -5.65625,-1.4375 0,-0.21875 1.96875,0.5 0.0625,-1.5625 -1.9375,-0.5 0,-0.0937 z m 2.0625,0.625 -0.0937,1.5625 3.65625,0.9375 -0.0937,-1.59375 -3.46875,-0.90625 z m 4.0625,2.6875 0.0625,0.0312 11.25,3.4375 0.0312,0 0,0.0312 0,1.40625 -0.0937,0 0,-1.34375 -11.15625,-3.40625 -0.125,1.59375 -0.0937,-0.0312 0.125,-1.65625 0,-0.0625 z"
       id="path4033"
       inkscape:connector-curvature="0" />
    <path
       style="fill:#715138;fill-opacity:1;stroke:none"
       d="m 306.89789,851.84374 25.15625,11.4375 0.125,0.78125 -25.3125,-11.53125 0.0312,-0.6875 z"
       id="path4055"
       inkscape:connector-curvature="0" />
    <path
       style="font-size:medium;font-style:normal;font-variant:normal;font-weight:normal;font-stretch:normal;text-indent:0;text-align:start;text-decoration:none;line-height:normal;letter-spacing:normal;word-spacing:normal;text-transform:none;direction:ltr;block-progression:tb;writing-mode:lr-tb;text-anchor:start;baseline-shift:baseline;color:#000000;fill:#000000;fill-opacity:1;fill-rule:nonzero;stroke:none;stroke-width:0.18385412px;marker:none;visibility:visible;display:inline;overflow:visible;enable-background:accumulate;font-family:Sans;-inkscape-font-specification:Sans"
       d="m 306.89789,851.65624 c 2.94868,1.33966 3.55149,1.60417 6.96875,3.15625 4.52285,2.05422 9.03262,4.11874 12.46875,5.6875 1.71806,0.78438 3.18025,1.42753 4.21875,1.90625 0.51925,0.23936 0.92019,0.42251 1.21875,0.5625 0.29856,0.13999 0.47211,0.2471 0.53125,0.28125 0.05,0.0289 0.10962,0.0522 0.1875,0.125 0.0779,0.0728 0.16646,0.1951 0.28125,0.3125 0.22958,0.2348 0.53051,0.53163 0.875,0.90625 0.68898,0.74924 1.57699,1.74306 2.4375,2.71875 0.86051,0.97569 1.69894,1.93206 2.34375,2.6875 0.32241,0.37772 0.58508,0.69822 0.78125,0.9375 0.0981,0.11964 0.19203,0.23722 0.25,0.3125 0.058,0.0753 0.10318,0.1095 0.125,0.15625 0.0966,0.20698 0.0918,0.53495 0.0937,0.8125 0.002,0.27755 0,0.5 0,0.5 l -0.0312,0.15625 -0.125,-0.0937 c 0,0 -1.16633,-0.72703 -2.4375,-1.5 -0.63558,-0.38648 -1.30558,-0.78259 -1.84375,-1.09375 -0.53817,-0.31116 -0.98444,-0.54465 -1.125,-0.59375 -0.042,-0.0147 -0.22132,-0.0959 -0.53125,-0.1875 -0.30993,-0.0916 -0.7457,-0.18824 -1.28125,-0.34375 -1.07109,-0.31101 -2.54243,-0.74385 -4.3125,-1.25 -3.54014,-1.0123 -8.22539,-2.34591 -12.9375,-3.65625 -3.01932,-0.83961 -5.94762,-1.63308 -8.71875,-2.375 l 0,-0.1875 c 2.7873,0.746 5.73946,1.52914 8.78125,2.375 4.71267,1.3105 9.36572,2.64384 12.90625,3.65625 1.77026,0.5062 3.27231,0.93889 4.34375,1.25 0.53572,0.15556 0.97084,0.28325 1.28125,0.375 0.31041,0.0918 0.47147,0.13537 0.53125,0.15625 0.19165,0.0669 0.61598,0.31262 1.15625,0.625 0.54027,0.31238 1.20752,0.70687 1.84375,1.09375 1.21057,0.73612 2.20493,1.3702 2.3125,1.4375 0.005,-0.0788 10e-4,-0.1468 0,-0.34375 -0.002,-0.26857 -0.0279,-0.60875 -0.0937,-0.75 0.002,0.003 -0.0378,-0.0523 -0.0937,-0.125 -0.056,-0.0727 -0.12135,-0.16244 -0.21875,-0.28125 -0.1948,-0.23761 -0.45931,-0.56033 -0.78125,-0.9375 -0.64388,-0.75435 -1.51507,-1.74372 -2.375,-2.71875 -0.85993,-0.97503 -1.71873,-1.93985 -2.40625,-2.6875 -0.34376,-0.37383 -0.64775,-0.67383 -0.875,-0.90625 -0.11362,-0.11621 -0.20676,-0.21166 -0.28125,-0.28125 -0.0745,-0.0696 -0.14207,-0.11681 -0.15625,-0.125 -0.0274,-0.0159 -0.20211,-0.11032 -0.5,-0.25 -0.29789,-0.13968 -0.73095,-0.35448 -1.25,-0.59375 -1.03811,-0.47854 -2.46954,-1.12192 -4.1875,-1.90625 -3.43591,-1.56867 -7.94595,-3.63331 -12.46875,-5.6875 -3.38819,-1.53887 -3.97331,-1.79798 -6.90625,-3.125 l 0,-0.1875 z"
       id="path3160"
       inkscape:connector-curvature="0" />
  </g>
</svg>
