<?xml version="1.0" encoding="UTF-8" standalone="no"?>
<!-- Created with Inkscape (http://www.inkscape.org/) -->

<svg
   xmlns:dc="http://purl.org/dc/elements/1.1/"
   xmlns:cc="http://creativecommons.org/ns#"
   xmlns:rdf="http://www.w3.org/1999/02/22-rdf-syntax-ns#"
   xmlns:svg="http://www.w3.org/2000/svg"
   xmlns="http://www.w3.org/2000/svg"
   xmlns:xlink="http://www.w3.org/1999/xlink"
   xmlns:sodipodi="http://sodipodi.sourceforge.net/DTD/sodipodi-0.dtd"
   xmlns:inkscape="http://www.inkscape.org/namespaces/inkscape"
   sodipodi:docname="737xxA3_wing_R_1.svg"
   inkscape:version="0.48.5 r10040"
   version="1.1"
   id="svg4012"
   height="25.28125"
   width="24.1875">
  <defs
     id="defs4014">
    <linearGradient
       id="linearGradient3783">
      <stop
         style="stop-color:#765337;stop-opacity:1;"
         offset="0"
         id="stop3785" />
      <stop
         id="stop3791"
         offset="0.35502854"
         style="stop-color:#c19069;stop-opacity:1;" />
      <stop
         style="stop-color:#c19069;stop-opacity:1;"
         offset="1"
         id="stop3787" />
    </linearGradient>
    <linearGradient
       id="linearGradient3823">
      <stop
         id="stop3825"
         offset="0"
         style="stop-color:#765337;stop-opacity:1" />
      <stop
         style="stop-color:#c19069;stop-opacity:1"
         offset="0.33824798"
         id="stop3827" />
      <stop
         style="stop-color:#c19069;stop-opacity:1"
         offset="0.67649597"
         id="stop3829" />
      <stop
         id="stop3831"
         offset="1"
         style="stop-color:#765337;stop-opacity:1" />
    </linearGradient>
    <linearGradient
       id="linearGradient3809">
      <stop
         style="stop-color:#000000;stop-opacity:1;"
         offset="0"
         id="stop3811" />
      <stop
         id="stop3819"
         offset="0.25"
         style="stop-color:#000000;stop-opacity:0.74901961;" />
      <stop
         id="stop3817"
         offset="0.5"
         style="stop-color:#000000;stop-opacity:0.49803922;" />
      <stop
         style="stop-color:#000000;stop-opacity:0;"
         offset="1"
         id="stop3813" />
    </linearGradient>
    <linearGradient
       inkscape:collect="always"
       xlink:href="#linearGradient3809"
       id="linearGradient3815"
       x1="335.74503"
       y1="556.13995"
       x2="398.00497"
       y2="556.13995"
       gradientUnits="userSpaceOnUse" />
    <linearGradient
       inkscape:collect="always"
       xlink:href="#linearGradient3823"
       id="linearGradient3821"
       gradientUnits="userSpaceOnUse"
       x1="335.74503"
       y1="556.13995"
       x2="398.00497"
       y2="556.13995" />
    <linearGradient
       inkscape:collect="always"
       xlink:href="#linearGradient3809"
       id="linearGradient3867"
       gradientUnits="userSpaceOnUse"
       x1="335.74503"
       y1="556.13995"
       x2="398.00497"
       y2="556.13995" />
    <linearGradient
       inkscape:collect="always"
       xlink:href="#linearGradient3809"
       id="linearGradient3869"
       gradientUnits="userSpaceOnUse"
       x1="335.74503"
       y1="556.13995"
       x2="398.00497"
       y2="556.13995" />
    <linearGradient
       inkscape:collect="always"
       xlink:href="#linearGradient3809"
       id="linearGradient3871"
       gradientUnits="userSpaceOnUse"
       x1="335.74503"
       y1="556.13995"
       x2="398.00497"
       y2="556.13995" />
    <linearGradient
       inkscape:collect="always"
       xlink:href="#linearGradient3809"
       id="linearGradient3873"
       gradientUnits="userSpaceOnUse"
       x1="335.74503"
       y1="556.13995"
       x2="398.00497"
       y2="556.13995" />
    <linearGradient
       inkscape:collect="always"
       xlink:href="#linearGradient3809"
       id="linearGradient3875"
       gradientUnits="userSpaceOnUse"
       x1="335.74503"
       y1="556.13995"
       x2="398.00497"
       y2="556.13995" />
    <linearGradient
       inkscape:collect="always"
       xlink:href="#linearGradient3809"
       id="linearGradient3877"
       gradientUnits="userSpaceOnUse"
       x1="335.74503"
       y1="556.13995"
       x2="398.00497"
       y2="556.13995" />
    <linearGradient
       inkscape:collect="always"
       xlink:href="#linearGradient3809"
       id="linearGradient3879"
       gradientUnits="userSpaceOnUse"
       x1="335.74503"
       y1="556.13995"
       x2="398.00497"
       y2="556.13995" />
    <linearGradient
       inkscape:collect="always"
       xlink:href="#linearGradient3809"
       id="linearGradient3881"
       gradientUnits="userSpaceOnUse"
       x1="335.74503"
       y1="556.13995"
       x2="398.00497"
       y2="556.13995" />
    <linearGradient
       inkscape:collect="always"
       xlink:href="#linearGradient3809"
       id="linearGradient3883"
       gradientUnits="userSpaceOnUse"
       x1="335.74503"
       y1="556.13995"
       x2="398.00497"
       y2="556.13995" />
    <linearGradient
       inkscape:collect="always"
       xlink:href="#linearGradient3809"
       id="linearGradient3885"
       gradientUnits="userSpaceOnUse"
       x1="335.74503"
       y1="556.13995"
       x2="398.00497"
       y2="556.13995" />
    <filter
       inkscape:label="Drop Shadow"
       id="filter3064"
       color-interpolation-filters="sRGB">
      <feFlood
         flood-opacity="0.5"
         flood-color="rgb(0,0,0)"
         result="flood"
         id="feFlood3066" />
      <feComposite
         in="flood"
         in2="SourceGraphic"
         operator="in"
         result="composite1"
         id="feComposite3068" />
      <feGaussianBlur
         stdDeviation="3"
         result="blur"
         id="feGaussianBlur3070" />
      <feOffset
         dx="0"
         dy="0"
         result="offset"
         id="feOffset3072" />
      <feComposite
         in="SourceGraphic"
         in2="offset"
         operator="over"
         result="composite2"
         id="feComposite3074" />
    </filter>
    <linearGradient
       inkscape:collect="always"
       xlink:href="#linearGradient3783"
       id="linearGradient3789"
       x1="339.21128"
       y1="850.20312"
       x2="361.33628"
       y2="850.20312"
       gradientUnits="userSpaceOnUse" />
  </defs>
  <sodipodi:namedview
     id="base"
     pagecolor="#ffffff"
     bordercolor="#666666"
     borderopacity="1.0"
     inkscape:pageopacity="0.0"
     inkscape:pageshadow="2"
     inkscape:zoom="18.214835"
     inkscape:cx="3.9038232"
     inkscape:cy="11.979566"
     inkscape:document-units="px"
     inkscape:current-layer="layer1"
     showgrid="false"
     inkscape:window-width="1920"
     inkscape:window-height="1060"
     inkscape:window-x="-2"
     inkscape:window-y="-3"
     inkscape:window-maximized="1"
     inkscape:snap-global="false"
     inkscape:snap-bbox="true"
     fit-margin-top="1"
     fit-margin-left="1"
     fit-margin-right="1"
     fit-margin-bottom="1" />
  <metadata
     id="metadata4017">
    <rdf:RDF>
      <cc:Work
         rdf:about="">
        <dc:format>image/svg+xml</dc:format>
        <dc:type
           rdf:resource="http://purl.org/dc/dcmitype/StillImage" />
        <dc:title />
      </cc:Work>
    </rdf:RDF>
  </metadata>
  <g
     inkscape:label="Layer 1"
     inkscape:groupmode="layer"
     id="layer1"
     style="display:inline"
     transform="translate(-338.11753,-837.49999)">
    <path
       style="fill:url(#linearGradient3789);fill-opacity:1;stroke:none"
       d="m 339.21128,838.71874 c 5.18899,4.68012 9.95176,7.5107 10.625,7.8125 0.21006,0.0942 6.62423,3.00769 11.5,5.21875 l -0.5625,9.9375 c -5.86508,-1.57711 -10.64327,-2.81246 -11.40625,-2.78125 -0.59656,0.0244 -10.15625,0.65625 -10.15625,0.65625 l 0,-20.84375 z"
       id="path4031"
       inkscape:connector-curvature="0" />
    <path
       style="font-size:medium;font-style:normal;font-variant:normal;font-weight:normal;font-stretch:normal;text-indent:0;text-align:start;text-decoration:none;line-height:normal;letter-spacing:normal;word-spacing:normal;text-transform:none;direction:ltr;block-progression:tb;writing-mode:lr-tb;text-anchor:start;baseline-shift:baseline;color:#000000;fill:#000000;fill-opacity:1;stroke:none;stroke-width:0.18385412px;marker:none;visibility:visible;display:inline;overflow:visible;enable-background:accumulate;font-family:Sans;-inkscape-font-specification:Sans"
       d="m 339.24253,840.87499 c 1.08872,0.85708 2.57585,1.92739 3.875,2.84375 l 0.46875,0.3125 c 0.45495,0.31764 0.93159,0.67066 1.28125,0.90625 0.47516,0.32015 0.82819,0.51806 0.96875,0.59375 0.14409,0.0776 1.08087,0.57316 2.40625,1.25 1.32538,0.67684 3.02696,1.5444 4.71875,2.40625 3.38357,1.72371 6.6875,3.40625 6.6875,3.40625 0,0 1.38621,0.62409 1.59375,0.71875 l 0,0.21875 c -0.22424,-0.10113 -1.65625,-0.75 -1.65625,-0.75 l -0.125,-0.0625 0.0937,3.9375 1.46875,0.53125 0,0.1875 -1.59375,-0.5625 c 0,0 -3.83823,-1.39637 -7.75,-2.8125 -1.95589,-0.70807 -3.92701,-1.42027 -5.4375,-1.96875 -0.75524,-0.27424 -1.40897,-0.51734 -1.875,-0.6875 -0.46603,-0.17016 -0.74661,-0.2549 -0.8125,-0.28125 -0.0691,-0.0276 -0.0856,-0.12415 -0.0937,-0.1875 -0.008,-0.0634 -0.0149,-0.10492 0,-0.1875 0.0298,-0.16515 0.0951,-0.40559 0.1875,-0.65625 0.1847,-0.50132 0.47888,-1.14161 0.78125,-1.78125 0.58391,-1.2352 1.20676,-2.35542 1.25,-2.4375 l -2.53125,-1.84375 -0.125,-0.0937 c -1.30094,-0.91763 -2.81276,-2.01416 -3.90625,-2.875 l 0.0625,-0.0625 0.0625,-0.0625 z m 6.625,4.90625 0,0.0312 c 0,0 -0.67881,1.25687 -1.28125,2.53125 -0.30122,0.63719 -0.56906,1.25887 -0.75,1.75 -0.0905,0.24556 -0.16142,0.48038 -0.1875,0.625 -0.013,0.0723 -0.004,0.12574 0,0.15625 0.0644,0.0252 0.33102,0.14811 0.78125,0.3125 0.46584,0.17009 1.11981,0.38203 1.875,0.65625 1.51038,0.54844 3.48164,1.29195 5.4375,2 3.86477,1.39912 7.56578,2.71782 7.65625,2.75 l -0.0937,-3.96875 c -0.26681,-0.13463 -3.19829,-1.59983 -6.4375,-3.25 -1.69181,-0.86187 -3.39326,-1.76061 -4.71875,-2.4375 -1.25681,-0.64182 -2.05632,-1.03752 -2.28125,-1.15625 z m 3.625,9.5625 0.0625,0.0312 6.375,1.65625 0.125,0.0312 4.90625,1.25 0,0.0937 -1.625,-0.40625 0.0625,1.59375 1.46875,0.375 0,0.21875 -11.25,-2.875 0.0625,1.59375 -0.1875,0 -0.0312,-1.625 -0.0312,0 -10.25,0.3125 0,-0.1875 8.71875,-0.28125 -0.0937,-1.40625 -7,0.28125 0,1.3125 -0.0937,0 0,-1.375 0,-0.0625 0.0625,0 7.09375,-0.28125 0.0625,0 0,0.0625 0.0937,1.46875 1.40625,-0.0312 0.0312,0 0.0312,0 0,-1.65625 0,-0.0937 z m 0.0937,0.15625 0,1.625 3,0.75 0.15625,-1.5625 -3.15625,-0.8125 z m 3.25,0.84375 -0.125,1.5625 3.15625,0.8125 0.0625,-1.59375 -3.09375,-0.78125 z m 3.21875,0.8125 -0.0937,1.5625 3.3125,0.84375 -0.0312,-1.59375 -3.1875,-0.8125 z"
       id="path4033"
       inkscape:connector-curvature="0" />
    <path
       style="fill:#715138;fill-opacity:1;stroke:none"
       d="m 341.94142,841.16967 -0.67324,0.46431 5.66449,3.90013 0.41787,-0.39466"
       id="path4053"
       inkscape:connector-curvature="0"
       sodipodi:nodetypes="cccc" />
    <path
       style="fill:#715138;fill-opacity:1;stroke:none"
       d="m 349.96128,846.65624 11.375,5.1875 -0.0312,0.6875 -11.875,-5.40625 0.53125,-0.46875 z"
       id="path4055"
       inkscape:connector-curvature="0" />
    <path
       style="font-size:medium;font-style:normal;font-variant:normal;font-weight:normal;font-stretch:normal;text-indent:0;text-align:start;text-decoration:none;line-height:normal;letter-spacing:normal;word-spacing:normal;text-transform:none;direction:ltr;block-progression:tb;writing-mode:lr-tb;text-anchor:start;baseline-shift:baseline;color:#000000;fill:#000000;fill-opacity:1;fill-rule:nonzero;stroke:none;stroke-width:0.18385412px;marker:none;visibility:visible;display:inline;overflow:visible;enable-background:accumulate;font-family:Sans;-inkscape-font-specification:Sans"
       d="m 339.14878,838.49999 0.15625,0.125 c 2.59101,2.33692 5.05193,4.23128 6.96875,5.5625 0.95841,0.66561 1.78704,1.18151 2.40625,1.5625 0.61921,0.38099 1.03153,0.61758 1.1875,0.6875 0.21309,0.0955 6.61211,3.01224 11.46875,5.21875 l 0,0.1875 c -4.89723,-2.21577 -11.32437,-5.12601 -11.53125,-5.21875 -0.18065,-0.081 -0.59637,-0.33581 -1.21875,-0.71875 -0.62238,-0.38294 -1.44509,-0.89498 -2.40625,-1.5625 -1.87929,-1.30516 -4.309,-3.16694 -6.84375,-5.4375 l 0,20.5625 c 0.11791,-0.008 2.32307,-0.15553 4.71875,-0.3125 2.45887,-0.16111 5.0018,-0.33105 5.3125,-0.34375 0.16073,-0.007 0.42163,0.0535 0.8125,0.125 0.39087,0.0715 0.89632,0.17443 1.5,0.3125 1.20736,0.27613 2.82716,0.67347 4.6875,1.15625 1.31917,0.34234 2.87516,0.77772 4.40625,1.1875 l 0,0.1875 c -1.55364,-0.41596 -3.13282,-0.84081 -4.46875,-1.1875 -1.85938,-0.48253 -3.45202,-0.88083 -4.65625,-1.15625 -0.60212,-0.13771 -1.11357,-0.24181 -1.5,-0.3125 -0.38643,-0.0707 -0.66083,-0.12993 -0.78125,-0.125 -0.28586,0.0117 -2.82247,0.18265 -5.28125,0.34375 -2.45878,0.1611 -4.84375,0.3125 -4.84375,0.3125 l -0.0937,0.0312 0,-0.125 0,-20.84375 0,-0.21875 z"
       id="path3160"
       inkscape:connector-curvature="0" />
  </g>
</svg>
