<?xml version="1.0" encoding="UTF-8" standalone="no"?>
<!-- Generator: Adobe Illustrator 15.1.0, SVG Export Plug-In . SVG Version: 6.00 Build 0)  -->

<svg
   xmlns:dc="http://purl.org/dc/elements/1.1/"
   xmlns:cc="http://creativecommons.org/ns#"
   xmlns:rdf="http://www.w3.org/1999/02/22-rdf-syntax-ns#"
   xmlns:svg="http://www.w3.org/2000/svg"
   xmlns="http://www.w3.org/2000/svg"
   xmlns:xlink="http://www.w3.org/1999/xlink"
   xmlns:sodipodi="http://sodipodi.sourceforge.net/DTD/sodipodi-0.dtd"
   xmlns:inkscape="http://www.inkscape.org/namespaces/inkscape"
   version="1.1"
   x="0px"
   y="0px"
   width="27"
   height="73"
   viewBox="0 0 27 73"
   enable-background="new 0 0 1000 1000"
   xml:space="preserve"
   id="svg2"
   inkscape:version="0.91 r13725"
   sodipodi:docname="A-380xxA3_fuselage_2.svg"><metadata
     id="metadata154"><rdf:RDF><cc:Work
         rdf:about=""><dc:format>image/svg+xml</dc:format><dc:type
           rdf:resource="http://purl.org/dc/dcmitype/StillImage" /><dc:title /></cc:Work></rdf:RDF></metadata><defs
     id="defs152"><linearGradient
       id="linearGradient4401"><stop
         style="stop-color:#765337;stop-opacity:1"
         offset="0"
         id="stop4403" /><stop
         id="stop4411"
         offset="0.37651119"
         style="stop-color:#c19069;stop-opacity:1;" /><stop
         id="stop4409"
         offset="0.62651122"
         style="stop-color:#c19069;stop-opacity:1;" /><stop
         style="stop-color:#765337;stop-opacity:1"
         offset="1"
         id="stop4405" /></linearGradient><linearGradient
       inkscape:collect="always"
       xlink:href="#linearGradient4401"
       id="linearGradient4407"
       x1="111.90682"
       y1="107.41063"
       x2="137.07043"
       y2="107.41063"
       gradientUnits="userSpaceOnUse" /><linearGradient
       inkscape:collect="always"
       xlink:href="#linearGradient4401"
       id="linearGradient4443"
       gradientUnits="userSpaceOnUse"
       x1="111.90682"
       y1="107.41063"
       x2="137.07043"
       y2="107.41063" /><linearGradient
       inkscape:collect="always"
       xlink:href="#linearGradient4401"
       id="linearGradient4447"
       gradientUnits="userSpaceOnUse"
       x1="111.90682"
       y1="107.41063"
       x2="137.07043"
       y2="107.41063"
       gradientTransform="translate(-110.78117,-64.90625)" /></defs><sodipodi:namedview
     pagecolor="#ffffff"
     bordercolor="#666666"
     borderopacity="1"
     objecttolerance="10"
     gridtolerance="10"
     guidetolerance="10"
     inkscape:pageopacity="0"
     inkscape:pageshadow="2"
     inkscape:window-width="1912"
     inkscape:window-height="2107"
     id="namedview150"
     showgrid="false"
     inkscape:zoom="10.680141"
     inkscape:cx="18.875454"
     inkscape:cy="24.322624"
     inkscape:window-x="1920"
     inkscape:window-y="0"
     inkscape:window-maximized="0"
     inkscape:current-layer="svg2"
     fit-margin-top="1"
     fit-margin-left="1"
     fit-margin-right="1"
     fit-margin-bottom="1" /><path
     style="fill:url(#linearGradient4447);fill-opacity:1;stroke:none"
     d="m 2.6563285,1.3125 -0.25,25.1875 c 0,0 -1.28125,17.56675 -1.28125,20.90625 0,3.33951 0.0114,17.79199 1.28125,19.0625 0,0 0.23452,4.22031 0.3125,5.53125 l 21.9687495,0 c 0.078,-1.31094 0.3125,-5.53125 0.3125,-5.53125 1.26983,-1.27051 1.28125,-15.72299 1.28125,-19.0625 0,-3.3395 -1.28125,-20.90625 -1.28125,-20.90625 l -0.25,-25.1875 -22.0937495,0 z"
     id="path121"
     inkscape:connector-curvature="0" /><path
     style="font-size:medium;font-style:normal;font-variant:normal;font-weight:normal;font-stretch:normal;text-indent:0;text-align:start;text-decoration:none;line-height:normal;letter-spacing:normal;word-spacing:normal;text-transform:none;direction:ltr;block-progression:tb;writing-mode:lr-tb;text-anchor:start;baseline-shift:baseline;color:#000000;fill:#000000;fill-opacity:1;fill-rule:nonzero;stroke:none;stroke-width:1;marker:none;visibility:visible;display:inline;overflow:visible;enable-background:accumulate;font-family:Sans;-inkscape-font-specification:Sans"
     d="m 2.5313285,1.3125 -0.25,25.1875 c -5e-4,0.007 -0.30203,4.382764 -0.625,9.1875 -0.32324,4.8088 -0.65625,10.03286 -0.65625,11.71875 0,1.67004 -0.009,6.12347 0.15625,10.3125 0.0823,2.09451 0.22488,4.12872 0.40625,5.71875 0.0907,0.79501 0.18848,1.46914 0.3125,2 0.11489,0.49182 0.22989,0.85299 0.40625,1.0625 2.8e-4,0.006 0.23473,4.19944 0.3125,5.5 l 0.25,0 c -0.0782,-1.31026 -0.3125,-5.53125 -0.3125,-5.53125 l 0,-0.0625 -0.0312,-0.0312 c -0.11694,-0.117 -0.25472,-0.48507 -0.375,-1 -0.1203,-0.51493 -0.22245,-1.17939 -0.3125,-1.96875 -0.18008,-1.57873 -0.32408,-3.59635 -0.40625,-5.6875 -0.16434,-4.18231 -0.15625,-8.64303 -0.15625,-10.3125 0,-1.6536 0.33308,-6.87966 0.65625,-11.6875 0.32318,-4.807836 0.625,-9.21875 0.625,-9.21875 l 0.25,-25.1875 -0.25,0 z m 22.0937495,0 0.25,25.1875 c 0,0 0.33307,4.410914 0.65625,9.21875 0.32317,4.80784 0.625,10.0339 0.625,11.6875 0,1.66947 0.008,6.13019 -0.15625,10.3125 -0.0822,2.09115 -0.19492,4.10877 -0.375,5.6875 -0.0901,0.78936 -0.22346,1.45382 -0.34375,1.96875 -0.1203,0.51493 -0.25807,0.883 -0.375,1 l -0.0312,0.0312 0,0.0625 c 0,0 -0.23514,4.22099 -0.3125,5.53125 l 0.25,0 c 0.0778,-1.30056 0.31212,-5.49366 0.3125,-5.5 0.17636,-0.20951 0.29135,-0.57068 0.40625,-1.0625 0.12402,-0.53086 0.22181,-1.20499 0.3125,-2 0.18137,-1.59003 0.32393,-3.62424 0.40625,-5.71875 0.1646,-4.18903 0.15625,-8.64246 0.15625,-10.3125 0,-1.68589 -0.30176,-6.90995 -0.625,-11.71875 -0.32297,-4.804736 -0.6557,-9.18008 -0.65625,-9.1875 l -0.25,-25.1875 -0.25,0 z"
     id="path4134"
     inkscape:connector-curvature="0" /><path
     style="font-size:medium;font-style:normal;font-variant:normal;font-weight:normal;font-stretch:normal;text-indent:0;text-align:start;text-decoration:none;line-height:normal;letter-spacing:normal;word-spacing:normal;text-transform:none;direction:ltr;block-progression:tb;writing-mode:lr-tb;text-anchor:start;baseline-shift:baseline;color:#000000;fill:#000000;fill-opacity:1;fill-rule:nonzero;stroke:none;stroke-width:1;marker:none;visibility:visible;display:inline;overflow:visible;enable-background:accumulate;font-family:Sans;-inkscape-font-specification:Sans"
     d="m 4.1772285,49.59932 c -0.69087,0 -1.59415,0.25797 -1.59415,0.25797 l -0.0938,0.0234 0,0.0938 0,3.58809 0,0.14853 0.14847,-0.0234 c 0,0 0.29477,-0.0498 0.6486,-0.10163 0.35383,-0.0518 0.76915,-0.10944 0.97681,-0.10944 0.28424,0 0.48319,-0.19405 0.60171,-0.3674 0.11853,-0.17336 0.17192,-0.34396 0.17192,-0.34396 l 0.008,-0.0156 0,-0.0234 0,-2.32953 0,-0.008 0,-0.008 c 0,0 -0.0231,-0.19019 -0.14066,-0.38304 -0.11761,-0.19284 -0.35487,-0.39867 -0.72674,-0.39867 z m 0,0.25015 c 0.28729,0 0.42932,0.13187 0.51575,0.2736 0.0865,0.14173 0.1016,0.28924 0.1016,0.28924 l 0,2.29043 c -0.005,0.0142 -0.0506,0.1341 -0.14066,0.26579 -0.0953,0.13933 -0.22136,0.25796 -0.39073,0.25796 -0.24594,0 -0.65828,0.0571 -1.01588,0.10944 -0.27668,0.0405 -0.41237,0.0619 -0.50794,0.0782 l 0,-3.33794 c 0.13765,-0.036 0.86549,-0.2267 1.43786,-0.2267 z"
     id="path129"
     inkscape:connector-curvature="0" /><path
     style="font-size:medium;font-style:normal;font-variant:normal;font-weight:normal;font-stretch:normal;text-indent:0;text-align:start;text-decoration:none;line-height:normal;letter-spacing:normal;word-spacing:normal;text-transform:none;direction:ltr;block-progression:tb;writing-mode:lr-tb;text-anchor:start;baseline-shift:baseline;color:#000000;fill:#000000;fill-opacity:1;fill-rule:nonzero;stroke:none;stroke-width:1;marker:none;visibility:visible;display:inline;overflow:visible;enable-background:accumulate;font-family:Sans;-inkscape-font-specification:Sans"
     d="m 23.260178,49.59932 c -0.37177,0 -0.60917,0.20583 -0.72675,0.39868 -0.11756,0.19284 -0.14066,0.38304 -0.14066,0.38304 l 0,0.008 0,0.008 0,2.32952 0,0.0234 0.008,0.0156 c 0,0 0.0534,0.1706 0.17192,0.34396 0.11853,0.17335 0.31747,0.36741 0.60171,0.36741 0.20753,0 0.62301,0.0576 0.97681,0.10944 0.3538,0.0518 0.6486,0.10162 0.6486,0.10162 l 0.14848,0.0234 0,-0.14853 0,-3.58809 0,-0.0938 -0.0938,-0.0234 c 0,0 -0.90329,-0.25797 -1.59415,-0.25797 z m 0,0.25015 c 0.57237,0 1.30021,0.19074 1.43786,0.2267 l 0,3.33794 c -0.0956,-0.0163 -0.23129,-0.0377 -0.50793,-0.0782 -0.35758,-0.0524 -0.77005,-0.10944 -1.01589,-0.10944 -0.16937,0 -0.29545,-0.11863 -0.39072,-0.25796 -0.0953,-0.13934 -0.14066,-0.28142 -0.14066,-0.28142 l 0,-2.2748 c 0,0 0.023,-0.14751 0.1094,-0.28924 0.0865,-0.14173 0.22079,-0.2736 0.50794,-0.2736 z"
     id="path131"
     inkscape:connector-curvature="0" /><path
     inkscape:connector-curvature="0"
     id="path4207"
     d="m 1.8228951,33.42499 -0.008,0.132874 -0.22804,3.58704 -0.0143,0.11639 0.12411,0.0152 1.31079,0.16101 c 0.27402,0.0337 0.48385,-0.10967 0.61303,-0.24762 0.12918,-0.13793 0.1923,-0.28353 0.1923,-0.28353 l 0.01,-0.0145 0.002,-0.0155 0.27162,-2.211274 9.7e-4,-0.0079 9.8e-4,-0.0079 c 0,0 0.009,-0.223935 -0.0766,-0.466214 -0.0861,-0.242279 -0.29115,-0.524076 -0.66999,-0.570611 l -1.39612,-0.171491 -0.13185,-0.0162 z m 0.23322,0.280677 1.26425,0.155295 c 0.2754,0.03383 0.39401,0.211303 0.46222,0.403321 0.0669,0.188266 0.0648,0.363122 0.0647,0.370245 0,1.41e-4 -9.7e-4,0.0079 -9.7e-4,0.0079 l -0.26781,2.180246 c -0.007,0.0134 -0.0509,0.0979 -0.14208,0.1952 -0.0978,0.10435 -0.22276,0.19316 -0.39899,0.17152 l -1.19444,-0.14672 0.21305,-3.336859 z"
     style="color:#000000;font-style:normal;font-variant:normal;font-weight:normal;font-stretch:normal;font-size:medium;line-height:normal;font-family:Sans;-inkscape-font-specification:Sans;text-indent:0;text-align:start;text-decoration:none;text-decoration-line:none;letter-spacing:normal;word-spacing:normal;text-transform:none;direction:ltr;block-progression:tb;writing-mode:lr-tb;baseline-shift:baseline;text-anchor:start;display:inline;overflow:visible;visibility:visible;fill:#000000;fill-opacity:1;fill-rule:nonzero;stroke:none;stroke-width:1;marker:none;enable-background:accumulate" /><path
     style="color:#000000;font-style:normal;font-variant:normal;font-weight:normal;font-stretch:normal;font-size:medium;line-height:normal;font-family:Sans;-inkscape-font-specification:Sans;text-indent:0;text-align:start;text-decoration:none;text-decoration-line:none;letter-spacing:normal;word-spacing:normal;text-transform:none;direction:ltr;block-progression:tb;writing-mode:lr-tb;baseline-shift:baseline;text-anchor:start;display:inline;overflow:visible;visibility:visible;fill:#000000;fill-opacity:1;fill-rule:nonzero;stroke:none;stroke-width:1;marker:none;enable-background:accumulate"
     d="m 25.564385,33.42499 0.008,0.132874 0.22804,3.58704 0.0143,0.11639 -0.12411,0.0152 -1.31079,0.16101 c -0.27402,0.0337 -0.48385,-0.10967 -0.61303,-0.24762 -0.12918,-0.13793 -0.1923,-0.28353 -0.1923,-0.28353 l -0.01,-0.0145 -0.002,-0.0155 -0.27162,-2.211274 -9.7e-4,-0.0079 -9.8e-4,-0.0079 c 0,0 -0.009,-0.223935 0.0766,-0.466214 0.0861,-0.242279 0.29115,-0.524076 0.66999,-0.570611 l 1.39612,-0.171491 0.13185,-0.0162 z m -0.23322,0.280677 -1.26425,0.155295 c -0.2754,0.03383 -0.39401,0.211303 -0.46222,0.403321 -0.0669,0.188266 -0.0648,0.363122 -0.0647,0.370245 0,1.41e-4 9.7e-4,0.0079 9.7e-4,0.0079 l 0.26781,2.180246 c 0.007,0.0134 0.0509,0.0979 0.14208,0.1952 0.0978,0.10435 0.22276,0.19316 0.39899,0.17152 l 1.19444,-0.14672 -0.21305,-3.336859 z"
     id="path4218"
     inkscape:connector-curvature="0" /><path
     inkscape:connector-curvature="0"
     id="path4226"
     d="m 23.430025,67.445114 c -0.3818,0 -0.61958,0.25468 -0.73457,0.48467 -0.11499,0.22998 -0.13284,0.45339 -0.13284,0.45339 l 0,0.008 0,0.008 0,2.2279 0,0.0156 0.008,0.0156 c 0,0 0.0448,0.15221 0.15628,0.30487 0.11146,0.15266 0.30221,0.3205 0.57827,0.3205 l 1.32065,0 0.12503,0 0,-0.11725 0.211,-3.58809 0.008,-0.1329 -0.13284,0 -1.40661,0 z m 0,0.25015 1.27376,0 -0.18755,3.33794 -1.21125,0 c -0.17754,0 -0.29076,-0.10338 -0.37509,-0.21888 -0.0787,-0.10772 -0.11261,-0.19701 -0.11722,-0.21107 l 0,-2.19663 0,-0.008 c 7.5e-4,-0.007 0.0201,-0.18089 0.10941,-0.35959 0.0912,-0.18226 0.23033,-0.34396 0.50794,-0.34396 z"
     style="color:#000000;font-style:normal;font-variant:normal;font-weight:normal;font-stretch:normal;font-size:medium;line-height:normal;font-family:Sans;-inkscape-font-specification:Sans;text-indent:0;text-align:start;text-decoration:none;text-decoration-line:none;letter-spacing:normal;word-spacing:normal;text-transform:none;direction:ltr;block-progression:tb;writing-mode:lr-tb;baseline-shift:baseline;text-anchor:start;display:inline;overflow:visible;visibility:visible;fill:#000000;fill-opacity:1;fill-rule:nonzero;stroke:none;stroke-width:1;marker:none;enable-background:accumulate" /><path
     inkscape:connector-curvature="0"
     id="path4228"
     d="m 2.3744351,67.445114 0.008,0.13289 0.21098,3.58809 0,0.11726 0.12504,0 1.32064,0 c 0.27608,0 0.46687,-0.16784 0.57827,-0.32051 0.1114,-0.15266 0.1563,-0.30487 0.1563,-0.30487 l 0.008,-0.0156 0,-0.0156 0,-2.2279 0,-0.008 0,-0.008 c 0,0 -0.0179,-0.22342 -0.13285,-0.4534 -0.11495,-0.22998 -0.35287,-0.48467 -0.73456,-0.48467 l -1.40661,0 -0.13284,0 z m 0.2657,0.25015 1.27376,0 c 0.27747,0 0.41683,0.16169 0.50794,0.34396 0.0894,0.1787 0.10861,0.35251 0.1094,0.35959 10e-6,1.4e-4 0,0.008 0,0.008 l 0,2.19663 c -0.005,0.0141 -0.0386,0.10336 -0.11722,0.21107 -0.0843,0.11549 -0.19755,0.21888 -0.3751,0.21888 l -1.20342,0 -0.19536,-3.33794 z"
     style="color:#000000;font-style:normal;font-variant:normal;font-weight:normal;font-stretch:normal;font-size:medium;line-height:normal;font-family:Sans;-inkscape-font-specification:Sans;text-indent:0;text-align:start;text-decoration:none;text-decoration-line:none;letter-spacing:normal;word-spacing:normal;text-transform:none;direction:ltr;block-progression:tb;writing-mode:lr-tb;baseline-shift:baseline;text-anchor:start;display:inline;overflow:visible;visibility:visible;fill:#000000;fill-opacity:1;fill-rule:nonzero;stroke:none;stroke-width:1;marker:none;enable-background:accumulate" /></svg>