<?xml version="1.0" encoding="UTF-8" standalone="no"?>
<!-- Generator: Adobe Illustrator 15.1.0, SVG Export Plug-In . SVG Version: 6.00 Build 0)  -->

<svg
   xmlns:dc="http://purl.org/dc/elements/1.1/"
   xmlns:cc="http://creativecommons.org/ns#"
   xmlns:rdf="http://www.w3.org/1999/02/22-rdf-syntax-ns#"
   xmlns:svg="http://www.w3.org/2000/svg"
   xmlns="http://www.w3.org/2000/svg"
   xmlns:sodipodi="http://sodipodi.sourceforge.net/DTD/sodipodi-0.dtd"
   xmlns:inkscape="http://www.inkscape.org/namespaces/inkscape"
   version="1.1"
   x="0px"
   y="0px"
   width="16"
   height="24"
   viewBox="0 0 16 24"
   enable-background="new 0 0 1000 1000"
   xml:space="preserve"
   id="svg2"
   inkscape:version="0.48.5 r10040"
   sodipodi:docname="A_380_engine_L_2.svg"><metadata
     id="metadata154"><rdf:RDF><cc:Work
         rdf:about=""><dc:format>image/svg+xml</dc:format><dc:type
           rdf:resource="http://purl.org/dc/dcmitype/StillImage" /><dc:title></dc:title></cc:Work></rdf:RDF></metadata><defs
     id="defs152" /><sodipodi:namedview
     pagecolor="#ffffff"
     bordercolor="#666666"
     borderopacity="1"
     objecttolerance="10"
     gridtolerance="10"
     guidetolerance="10"
     inkscape:pageopacity="0"
     inkscape:pageshadow="2"
     inkscape:window-width="1920"
     inkscape:window-height="1060"
     id="namedview150"
     showgrid="false"
     inkscape:zoom="5.3400704"
     inkscape:cx="44.785602"
     inkscape:cy="-22.22027"
     inkscape:window-x="-2"
     inkscape:window-y="-3"
     inkscape:window-maximized="1"
     inkscape:current-layer="svg2"
     fit-margin-top="1"
     fit-margin-left="1"
     fit-margin-right="1"
     fit-margin-bottom="1" /><g
     id="g4162"
     transform="translate(-158.96114,-67.371359)"><path
       stroke-miterlimit="10"
       d="m 167.1978,68.221994 c 0,0 2.87648,0.0265 4.42211,1.0779 1.54565,1.05138 1.82822,2.74565 1.82822,5.83775 0,6.28752 -3.67368,14.54372 -3.67368,14.54372 -2.42137,0.92756 -3.31609,0.61912 -6.07329,-0.24715 0,0 -2.89322,-7.14078 -3.26432,-9.24354 -0.37085,-2.10251 -0.45412,-5.40924 -0.21831,-6.46463 0.23557,-1.05538 0.0458,-1.76756 1.92624,-3.64868 1.88048,-1.88113 5.05303,-1.85537 5.05303,-1.85537 z"
       id="path10"
       inkscape:connector-curvature="0"
       style="fill:#c19069;fill-opacity:1;stroke:#000000;stroke-width:0.25010663;stroke-miterlimit:10" /><path
       stroke-miterlimit="10"
       d="m 167.56589,73.832364 c 0,0 1.27258,10.36196 1.27258,13.02831 0,0 -1.85323,1.51541 -3.45713,-0.0273 0.68342,-3.64568 2.18455,-13.00104 2.18455,-13.00104 z"
       id="path12"
       inkscape:connector-curvature="0"
       style="fill:#c19069;fill-opacity:1;stroke:#000000;stroke-width:0.25010663;stroke-miterlimit:10" /></g></svg>