<?xml version="1.0" encoding="UTF-8" standalone="no"?>
<!-- Generator: Adobe Illustrator 15.1.0, SVG Export Plug-In . SVG Version: 6.00 Build 0)  -->

<svg
   xmlns:dc="http://purl.org/dc/elements/1.1/"
   xmlns:cc="http://creativecommons.org/ns#"
   xmlns:rdf="http://www.w3.org/1999/02/22-rdf-syntax-ns#"
   xmlns:svg="http://www.w3.org/2000/svg"
   xmlns="http://www.w3.org/2000/svg"
   xmlns:sodipodi="http://sodipodi.sourceforge.net/DTD/sodipodi-0.dtd"
   xmlns:inkscape="http://www.inkscape.org/namespaces/inkscape"
   version="1.1"
   x="0px"
   y="0px"
   width="16"
   height="24"
   viewBox="0 0 16 24"
   enable-background="new 0 0 1000 1000"
   xml:space="preserve"
   id="svg2"
   inkscape:version="0.48.5 r10040"
   sodipodi:docname="A_380_engine_R_1.svg"><metadata
     id="metadata154"><rdf:RDF><cc:Work
         rdf:about=""><dc:format>image/svg+xml</dc:format><dc:type
           rdf:resource="http://purl.org/dc/dcmitype/StillImage" /><dc:title></dc:title></cc:Work></rdf:RDF></metadata><defs
     id="defs152" /><sodipodi:namedview
     pagecolor="#ffffff"
     bordercolor="#666666"
     borderopacity="1"
     objecttolerance="10"
     gridtolerance="10"
     guidetolerance="10"
     inkscape:pageopacity="0"
     inkscape:pageshadow="2"
     inkscape:window-width="1920"
     inkscape:window-height="1060"
     id="namedview150"
     showgrid="false"
     inkscape:zoom="5.3400704"
     inkscape:cx="6.5106979"
     inkscape:cy="-1.8092013"
     inkscape:window-x="-2"
     inkscape:window-y="-3"
     inkscape:window-maximized="1"
     inkscape:current-layer="svg2"
     fit-margin-top="1"
     fit-margin-left="1"
     fit-margin-right="1"
     fit-margin-bottom="1" /><g
     id="g4166"
     transform="translate(-191.08188,-88.723891)"><path
       stroke-miterlimit="10"
       d="m 199.31842,89.681364 c 0,0 2.87673,0.0265 4.42237,1.0779 1.54564,1.05138 1.82822,2.74565 1.82822,5.83776 0,3.0921 -2.09179,14.358356 -2.09179,14.358356 -2.42111,0.92755 -4.89824,0.80423 -7.65518,-0.062 0,0 -2.89348,-7.14078 -3.26458,-9.24354 -0.37084,-2.102506 -0.45386,-5.409246 -0.2183,-6.464626 0.2358,-1.05538 0.046,-1.76756 1.92649,-3.6487 1.87996,-1.88112 5.05277,-1.85511 5.05277,-1.85511 z"
       id="path5"
       inkscape:connector-curvature="0"
       style="fill:#c19069;fill-opacity:1;stroke:#000000;stroke-width:0.25010663;stroke-miterlimit:10" /><path
       stroke-miterlimit="10"
       d="m 201.09712,95.638944 1.27258,13.028316 c -2.3341,1.05138 -3.63217,-0.80399 -3.63217,-0.80399 0.7762,-2.71212 2.35959,-12.224326 2.35959,-12.224326 z"
       id="path7"
       inkscape:connector-curvature="0"
       style="fill:#c19069;fill-opacity:1;stroke:#000000;stroke-width:0.25010663;stroke-miterlimit:10" /></g></svg>