<?xml version="1.0" encoding="UTF-8" standalone="no"?>
<!-- Generator: Adobe Illustrator 15.1.0, SVG Export Plug-In . SVG Version: 6.00 Build 0)  -->

<svg
   xmlns:dc="http://purl.org/dc/elements/1.1/"
   xmlns:cc="http://creativecommons.org/ns#"
   xmlns:rdf="http://www.w3.org/1999/02/22-rdf-syntax-ns#"
   xmlns:svg="http://www.w3.org/2000/svg"
   xmlns="http://www.w3.org/2000/svg"
   xmlns:sodipodi="http://sodipodi.sourceforge.net/DTD/sodipodi-0.dtd"
   xmlns:inkscape="http://www.inkscape.org/namespaces/inkscape"
   version="1.1"
   x="0px"
   y="0px"
   width="79"
   height="64"
   viewBox="0 0 79 64"
   enable-background="new 0 0 1000 1000"
   xml:space="preserve"
   id="svg2"
   inkscape:version="0.48.5 r10040"
   sodipodi:docname="A_380_wing_R_1.svg"><metadata
     id="metadata154"><rdf:RDF><cc:Work
         rdf:about=""><dc:format>image/svg+xml</dc:format><dc:type
           rdf:resource="http://purl.org/dc/dcmitype/StillImage" /><dc:title></dc:title></cc:Work></rdf:RDF></metadata><defs
     id="defs152" /><sodipodi:namedview
     pagecolor="#ffffff"
     bordercolor="#666666"
     borderopacity="1"
     objecttolerance="10"
     gridtolerance="10"
     guidetolerance="10"
     inkscape:pageopacity="0"
     inkscape:pageshadow="2"
     inkscape:window-width="1920"
     inkscape:window-height="1060"
     id="namedview150"
     showgrid="false"
     inkscape:zoom="5.3400704"
     inkscape:cx="82.203873"
     inkscape:cy="48.866122"
     inkscape:window-x="-2"
     inkscape:window-y="-3"
     inkscape:window-maximized="1"
     inkscape:current-layer="svg2"
     fit-margin-top="1"
     fit-margin-left="1"
     fit-margin-right="1"
     fit-margin-bottom="1" /><path
     style="fill:#c19069;fill-opacity:1;stroke:none"
     d="M 69.687502,0.85021973 C 41.168798,21.52414 8.1415302,45.52068 6.6562524,47.00647 c -2.3493442,2.35016 -3.84375,3.57715 -3.84375,7.90625 l 0,6.1875 44.6249996,-18.3125 30.15625,-11.78125 -7.90625,-30.15625027 z"
     id="path64"
     inkscape:connector-curvature="0" /><path
     style="fill:#c19069;fill-opacity:1;stroke:#000000;stroke-width:0.25010663;stroke-miterlimit:10"
     inkscape:connector-curvature="0"
     id="path66"
     d="m 1.1250533,62.87495 c 0,-2.10251 1.6896773,-6.67876 1.6896773,-6.67876 v 4.9057 l -1.6896773,1.77306 z"
     stroke-miterlimit="10" /><path
     style="font-size:medium;font-style:normal;font-variant:normal;font-weight:normal;font-stretch:normal;text-indent:0;text-align:start;text-decoration:none;line-height:normal;letter-spacing:normal;word-spacing:normal;text-transform:none;direction:ltr;block-progression:tb;writing-mode:lr-tb;text-anchor:start;baseline-shift:baseline;color:#000000;fill:#000000;fill-opacity:1;fill-rule:nonzero;stroke:none;stroke-width:1;marker:none;visibility:visible;display:inline;overflow:visible;enable-background:accumulate;font-family:Sans;-inkscape-font-specification:Sans"
     d="M 70.218752,2.9127197 6.4687524,48.47522 l -0.125,0.0625 0.0625,0.0937 2.75,4.25 0.03125,0.0937 0.125,-0.0625 65.5937496,-32.0625 -0.0625,-0.21875 -65.5624996,32.03125 -2.59375,-4.0625 63.5937496,-45.4062503 -0.0625,-0.28125 z m 5.28125,20.1875003 -3.5625,1.65625 -0.125,0.0625 -5.375,2.5625 -0.125,0.0312 -14.53125,6.84375 -0.09375,0.0625 0.03125,0.0937 0.78125,2.15625 -5.0625,2.125 -0.09375,0.0312 0.03125,0.0937 0.96875,3.625 0.03125,0.125 0.125,-0.0625 19.125,-7.46875 0.125,-0.0312 9.875,-3.875 -0.09375,-0.25 -9.875,3.875 -1.125,-3.8125 1,-0.40625 0,-0.0312 0.09375,-0.0312 0.625,-0.25 2.8125,-1.1875 1.90625,-0.8125 0.125,-0.0312 3.375,-1.40625 -0.0625,-0.28125 -3.40625,1.4375 -0.96875,-2.9375 3.53125,-1.6875 -0.0625,-0.21875 z m -3.6875,2 0.96875,2.9375 -5.125,2.15625 -1.03125,-2.625 5.1875,-2.46875 z m -5.40625,2.5625 1.03125,2.625 -8.15625,3.40625 -0.875,-2.28125 8,-3.75 z m -0.09375,3.375 1.125,3.8125 -18.875,7.375 -0.90625,-3.34375 18.65625,-7.84375 z m -8.125,0.5 0.875,2.25 -6.34375,2.65625 -0.71875,-2 6.1875,-2.90625 z m -11.8125,5.40625 -0.125,0.0625 -12.78125,5.8125 -0.125,0.0625 -14.34375,6.5625 -0.0625,0.0312 0,0.0937 0,4.875 0,0.1875 0.15625,-0.0625 16.25,-6.65625 0.125,-0.0625 12.34375,-5.0625 0.09375,-0.0312 -0.03125,-0.0937 -1.46875,-5.59375 -0.03125,-0.125 z m -0.15625,0.34375 1.375,5.3125 -12.21875,5.03125 -1.8125,-4.5625 12.65625,-5.78125 z m -12.875,5.875 1.78125,4.5625 -15.9375,6.53125 0,-4.625 14.15625,-6.46875 z"
     id="polygon68"
     inkscape:connector-curvature="0" /><path
     style="fill:#c19069;fill-opacity:1;stroke:#000000;stroke-width:0.25010663;stroke-miterlimit:10"
     inkscape:connector-curvature="0"
     id="path92"
     d="m 71.917454,33.23667 c 0,0 0.693926,7.08575 1.009505,7.08575 0.315581,0 0.920984,-7.83995 0.920984,-7.83995 l -1.930489,0.7542 z"
     stroke-miterlimit="10" /><path
     style="fill:#c19069;fill-opacity:1;stroke:#000000;stroke-width:0.25010663;stroke-miterlimit:10"
     inkscape:connector-curvature="0"
     id="path94"
     d="m 59.347776,38.14786 c 0,0 0.692925,7.06299 1.008255,7.06299 0.315329,0 0.920982,-7.81719 0.920982,-7.81719 l -1.929237,0.7542 z"
     stroke-miterlimit="10" /><path
     style="fill:#c19069;fill-opacity:1;stroke:#000000;stroke-width:0.25010663;stroke-miterlimit:10"
     inkscape:connector-curvature="0"
     id="path96"
     d="m 47.450017,42.7964 c 0,0 0.832711,6.82434 1.14804,6.82434 0.31533,0 0.921233,-7.63282 0.921233,-7.63282 l -2.069273,0.80848 z"
     stroke-miterlimit="10" /><path
     style="font-size:medium;font-style:normal;font-variant:normal;font-weight:normal;font-stretch:normal;text-indent:0;text-align:start;text-decoration:none;line-height:normal;letter-spacing:normal;word-spacing:normal;text-transform:none;direction:ltr;block-progression:tb;writing-mode:lr-tb;text-anchor:start;baseline-shift:baseline;color:#000000;fill:#000000;fill-opacity:1;fill-rule:nonzero;stroke:none;stroke-width:1;marker:none;visibility:visible;display:inline;overflow:visible;enable-background:accumulate;font-family:Sans;-inkscape-font-specification:Sans"
     d="m 69.656252,0.72521973 c -5.98158,4.33630697 -6.405199,4.61339997 -12.875,9.31250027 -12.18664,8.85132 -24.452048,17.76603 -33.8125,24.625 -4.680225,3.42949 -8.609725,6.33938 -11.46875,8.46875 -1.429512,1.06468 -2.6021866,1.92276 -3.4374996,2.5625 -0.835312,0.63973 -1.332227,1.05092 -1.5,1.21875 -1.173121,1.17353 -2.1359535,2.08529 -2.8125,3.25 -0.6765466,1.1647 -1.0625,2.57116 -1.0625,4.75 l 0,6.1875 0,0.1875 0.1875,-0.0625 44.6249996,-18.3125 30.125,-11.78125 -0.0625,-0.25 -30.15625,11.8125 -44.4687496,18.21875 0,-6 c 0,-2.15026 0.3786479,-3.50152 1.03125,-4.625 0.6526023,-1.12349 1.605027,-2.01087 2.78125,-3.1875 l 0,-0.0312 c 0.133522,-0.13121 0.644702,-0.52514 1.46875,-1.15625 0.833698,-0.6385 1.9772306,-1.49818 3.4062496,-2.5625 2.858037,-2.12863 6.82005,-5.07071 11.5,-8.5 9.3599,-6.85857 21.626006,-15.77379 33.8125,-24.625 6.42888,-4.6693793 6.830005,-4.9352053 12.78125,-9.25000027 l -0.0625,-0.25 z"
     id="path4124"
     inkscape:connector-curvature="0" /></svg>