<?xml version="1.0" encoding="UTF-8" standalone="no"?>
<!-- Generator: Adobe Illustrator 15.1.0, SVG Export Plug-In . SVG Version: 6.00 Build 0)  -->

<svg
   xmlns:dc="http://purl.org/dc/elements/1.1/"
   xmlns:cc="http://creativecommons.org/ns#"
   xmlns:rdf="http://www.w3.org/1999/02/22-rdf-syntax-ns#"
   xmlns:svg="http://www.w3.org/2000/svg"
   xmlns="http://www.w3.org/2000/svg"
   xmlns:xlink="http://www.w3.org/1999/xlink"
   xmlns:sodipodi="http://sodipodi.sourceforge.net/DTD/sodipodi-0.dtd"
   xmlns:inkscape="http://www.inkscape.org/namespaces/inkscape"
   version="1.1"
   x="0px"
   y="0px"
   width="46"
   height="67"
   viewBox="0 0 46 67"
   enable-background="new 0 0 1000 1000"
   xml:space="preserve"
   id="svg2"
   inkscape:version="0.48.5 r10040"
   sodipodi:docname="A_380_wing_R_1.svg"><metadata
     id="metadata154"><rdf:RDF><cc:Work
         rdf:about=""><dc:format>image/svg+xml</dc:format><dc:type
           rdf:resource="http://purl.org/dc/dcmitype/StillImage" /><dc:title /></cc:Work></rdf:RDF></metadata><defs
     id="defs152"><linearGradient
       inkscape:collect="always"
       id="linearGradient3754"><stop
         style="stop-color:#765337;stop-opacity:1"
         offset="0"
         id="stop3756" /><stop
         style="stop-color:#c19069;stop-opacity:1"
         offset="1"
         id="stop3758" /></linearGradient><linearGradient
       inkscape:collect="always"
       xlink:href="#linearGradient3754"
       id="linearGradient3760"
       x1="1.125"
       y1="33.484375"
       x2="11.82991"
       y2="33.484375"
       gradientUnits="userSpaceOnUse" /></defs><sodipodi:namedview
     pagecolor="#ffffff"
     bordercolor="#666666"
     borderopacity="1"
     objecttolerance="10"
     gridtolerance="10"
     guidetolerance="10"
     inkscape:pageopacity="0"
     inkscape:pageshadow="2"
     inkscape:window-width="1920"
     inkscape:window-height="1060"
     id="namedview150"
     showgrid="false"
     inkscape:zoom="5.3400704"
     inkscape:cx="18.440666"
     inkscape:cy="18.956278"
     inkscape:window-x="-2"
     inkscape:window-y="-3"
     inkscape:window-maximized="1"
     inkscape:current-layer="svg2"
     fit-margin-top="1"
     fit-margin-left="1"
     fit-margin-right="1"
     fit-margin-bottom="1" /><path
     style="fill:url(#linearGradient3760);fill-opacity:1;stroke:none"
     d="M 1.125,1.09375 9.53125,9.875 c 0,0 19.034132,13.816616 35.625,25.84375 L 37.25,65.875 22.75,60.21875 2.90625,56.09375 2.81255,53.03125 2.4688,47.59375 2.25005,44.125 l -0.375,-5.59375 -0.25,-3.34375 -0.5,-34.09375 z"
     id="path64"
     inkscape:connector-curvature="0" /><path
     style="font-size:medium;font-style:normal;font-variant:normal;font-weight:normal;font-stretch:normal;text-indent:0;text-align:start;text-decoration:none;line-height:normal;letter-spacing:normal;word-spacing:normal;text-transform:none;direction:ltr;block-progression:tb;writing-mode:lr-tb;text-anchor:start;baseline-shift:baseline;color:#000000;fill:#000000;fill-opacity:1;fill-rule:nonzero;stroke:none;stroke-width:1;marker:none;visibility:visible;display:inline;overflow:visible;enable-background:accumulate;font-family:Sans;-inkscape-font-specification:Sans"
     d="m 1.25,8.5625 0.1875,0.15625 5.5625,4 0.0625,0.03125 0,0.0625 0,6.3125 23.90625,8.90625 L 31,28.0625 44.625,37.78125 44.5625,38.0625 30.875,28.28125 30.84375,28.25 7.0625,19.40625 7,19.375 6.875,19.34375 1.5625,17.375 l 0.125,13.90625 3.90625,2.375 0.0625,0.03125 0,0.0625 0.71875,8.40625 6.6875,2.6875 11.375,3.0625 0.03125,0 L 40,55.5 39.9375,55.71875 24.375,48.125 l -0.03125,0 L 13,45.09375 l -0.0312,0 -6.75,-2.71875 -0.0625,-0.03125 0,-0.09375 -0.75,-8.40625 -3.90625,-2.375 -0.0625,-0.03125 0,-0.0625 -0.125,-14.09375 0,-0.09375 0,-0.1875 -0.0625,-8.1875 0,-0.25 z m 0.25,0.5 0.0625,8.03125 5.25,1.9375 0,-6.15625 L 1.5,9.0625 z m 10.09375,38.625 0.125,0.0312 6.5625,1.625 0.15625,0.0312 5.65625,1.40625 0.03125,0 0.09375,0.0312 5.75,2.71875 0.15625,0.0625 6.3125,3 2.90625,1.375 -0.0625,0.21875 -2.8125,-1.3125 -0.96875,3.28125 2.9375,1.21875 -0.0625,0.28125 -2.9375,-1.25 -0.125,-0.0625 -6.53125,-2.75 -5.5,-2.28125 -0.375,4.8125 14.40625,5.625 -0.09375,0.25 L 22.75,60.3436 l -0.03125,0 -19.84375,-4.125 -0.0937,-0.0312 0,-0.0937 -0.25,-5.75 0,-0.15625 0.15625,0.0312 8.4375,1.96875 0.4375,-4.34375 0.0312,-0.15615 z M 11.8125,48 11.375,52.25 17.71875,53.71875 18.25,49.59375 11.8125,48 z m 6.6875,1.65625 -0.53125,4.125 5.09375,1.1875 L 23.90625,51 18.5,49.65625 z M 2.78125,50.5 l 0.25,5.46875 19.625,4.09375 0.375,-4.84375 -5.25,-1.21875 -0.09375,-0.0312 -6.46875,-1.5 -0.125,-0.0312 -8.3125,-1.9375 z m 21.375,0.5625 -0.84375,3.96875 5.4375,2.28125 1.15625,-3.53125 -5.75,-2.71875 z m 5.96875,2.84375 -1.125,3.5 4.46875,1.875 1.78125,0.78125 1,-3.28125 -6.125,-2.875 z"
     id="polygon68"
     inkscape:connector-curvature="0" /><path
     style="fill:#c19069;fill-opacity:1;stroke:#000000;stroke-width:0.25010663;stroke-miterlimit:10"
     inkscape:connector-curvature="0"
     id="path98"
     d="m 29.60768,62.90133 c 0,0 -0.200301,2.8312 -0.51588,2.8312 -0.31558,0 -0.545138,-3.2457 -0.545138,-3.2457 l 1.061018,0.4145 z"
     stroke-miterlimit="10" /><path
     style="fill:#c19069;fill-opacity:1;stroke:#000000;stroke-width:0.25010663;stroke-miterlimit:10"
     inkscape:connector-curvature="0"
     id="path100"
     d="m 18.017503,59.23513 c 0,0 -0.26857,3.43256 -0.5839,3.43256 -0.31533,0 -0.59165,-3.67796 -0.59165,-3.67796 l 1.17555,0.2454 z"
     stroke-miterlimit="10" /><path
     style="font-size:medium;font-style:normal;font-variant:normal;font-weight:normal;font-stretch:normal;text-indent:0;text-align:start;text-decoration:none;line-height:normal;letter-spacing:normal;word-spacing:normal;text-transform:none;direction:ltr;block-progression:tb;writing-mode:lr-tb;text-anchor:start;baseline-shift:baseline;color:#000000;fill:#000000;fill-opacity:1;fill-rule:nonzero;stroke:none;stroke-width:1;marker:none;visibility:visible;display:inline;overflow:visible;enable-background:accumulate;font-family:Sans;-inkscape-font-specification:Sans"
     d="m 1,0.78125 0.21875,0.25 8.40625,8.75 c 0.0167,0.01205 19.020649,13.820595 35.5625,25.8125 l -0.0625,0.25 C 28.514055,23.800418 9.46875,10 9.46875,10 l -0.0312,-0.03125 -8.1875,-8.5625 0.5,33.75 0,0.03125 0.25,3.34375 0.375,5.59375 0.21875,3.46875 0.34375,5.4375 0.0937,2.9375 19.75,4.125 0.03125,0 L 37.28125,65.75 37.21875,66 22.75,60.34375 l -0.03125,0 -19.84375,-4.125 -0.0937,-0.0312 0,-0.0937 L 2.6876,53.0626 2.34385,47.59385 2.1251,44.15635 1.7501,38.5626 l -0.25,-3.375 -0.5,-34.09375 0,-0.3125 z"
     id="path4124"
     inkscape:connector-curvature="0" /></svg>