<?xml version="1.0" encoding="UTF-8" standalone="no"?>
<!-- Generator: Adobe Illustrator 15.1.0, SVG Export Plug-In . SVG Version: 6.00 Build 0)  -->

<svg
   xmlns:dc="http://purl.org/dc/elements/1.1/"
   xmlns:cc="http://creativecommons.org/ns#"
   xmlns:rdf="http://www.w3.org/1999/02/22-rdf-syntax-ns#"
   xmlns:svg="http://www.w3.org/2000/svg"
   xmlns="http://www.w3.org/2000/svg"
   xmlns:sodipodi="http://sodipodi.sourceforge.net/DTD/sodipodi-0.dtd"
   xmlns:inkscape="http://www.inkscape.org/namespaces/inkscape"
   version="1.1"
   x="0px"
   y="0px"
   width="16"
   height="24"
   viewBox="0 0 16 24"
   enable-background="new 0 0 1000 1000"
   xml:space="preserve"
   id="svg2"
   inkscape:version="0.48.5 r10040"
   sodipodi:docname="A_380_engine_L_1.svg"><metadata
     id="metadata154"><rdf:RDF><cc:Work
         rdf:about=""><dc:format>image/svg+xml</dc:format><dc:type
           rdf:resource="http://purl.org/dc/dcmitype/StillImage" /><dc:title></dc:title></cc:Work></rdf:RDF></metadata><defs
     id="defs152" /><sodipodi:namedview
     pagecolor="#ffffff"
     bordercolor="#666666"
     borderopacity="1"
     objecttolerance="10"
     gridtolerance="10"
     guidetolerance="10"
     inkscape:pageopacity="0"
     inkscape:pageshadow="2"
     inkscape:window-width="1920"
     inkscape:window-height="1060"
     id="namedview150"
     showgrid="false"
     inkscape:zoom="5.3400704"
     inkscape:cx="41.389331"
     inkscape:cy="-31.578297"
     inkscape:window-x="-2"
     inkscape:window-y="-3"
     inkscape:window-maximized="1"
     inkscape:current-layer="svg2"
     fit-margin-top="1"
     fit-margin-left="1"
     fit-margin-right="1"
     fit-margin-bottom="1" /><g
     id="g4158"
     transform="translate(-42.306446,-88.802189)"><path
       stroke-miterlimit="10"
       d="m 49.681829,89.759664 c 0,0 -2.876728,0.0265 -4.422368,1.07789 -1.545391,1.05138 -1.827962,2.74566 -1.827962,5.83776 0,3.09211 2.091779,14.358356 2.091779,14.358356 2.421362,0.92756 4.898239,0.80424 7.655185,-0.062 0,0 2.893482,-7.14078 3.264576,-9.24355 0.371094,-2.102756 0.453865,-5.409236 0.218306,-6.464616 -0.235561,-1.05538 -0.04601,-1.76731 -1.926488,-3.6487 -1.880476,-1.88138 -5.053028,-1.85511 -5.053028,-1.85511 z"
       id="path54"
       inkscape:connector-curvature="0"
       style="fill:#c19069;fill-opacity:1;stroke:#000000;stroke-width:0.25010663;stroke-miterlimit:10" /><path
       stroke-miterlimit="10"
       d="m 47.903129,95.717244 -1.272571,13.028306 c 2.33409,1.05138 3.632168,-0.80398 3.632168,-0.80398 -0.776196,-2.71188 -2.359597,-12.224326 -2.359597,-12.224326 z"
       id="path56"
       inkscape:connector-curvature="0"
       style="fill:#c19069;fill-opacity:1;stroke:#000000;stroke-width:0.25010663;stroke-miterlimit:10" /></g></svg>