<?xml version="1.0" encoding="UTF-8" standalone="no"?>
<!-- Generator: Adobe Illustrator 15.1.0, SVG Export Plug-In . SVG Version: 6.00 Build 0)  -->

<svg
   xmlns:dc="http://purl.org/dc/elements/1.1/"
   xmlns:cc="http://creativecommons.org/ns#"
   xmlns:rdf="http://www.w3.org/1999/02/22-rdf-syntax-ns#"
   xmlns:svg="http://www.w3.org/2000/svg"
   xmlns="http://www.w3.org/2000/svg"
   xmlns:sodipodi="http://sodipodi.sourceforge.net/DTD/sodipodi-0.dtd"
   xmlns:inkscape="http://www.inkscape.org/namespaces/inkscape"
   version="1.1"
   x="0px"
   y="0px"
   width="16"
   height="24"
   viewBox="0 0 16 24"
   enable-background="new 0 0 1000 1000"
   xml:space="preserve"
   id="svg2"
   inkscape:version="0.48.5 r10040"
   sodipodi:docname="A_380_engine_L_!.svg"><metadata
     id="metadata154"><rdf:RDF><cc:Work
         rdf:about=""><dc:format>image/svg+xml</dc:format><dc:type
           rdf:resource="http://purl.org/dc/dcmitype/StillImage" /><dc:title></dc:title></cc:Work></rdf:RDF></metadata><defs
     id="defs152" /><sodipodi:namedview
     pagecolor="#ffffff"
     bordercolor="#666666"
     borderopacity="1"
     objecttolerance="10"
     gridtolerance="10"
     guidetolerance="10"
     inkscape:pageopacity="0"
     inkscape:pageshadow="2"
     inkscape:window-width="1920"
     inkscape:window-height="1060"
     id="namedview150"
     showgrid="false"
     inkscape:zoom="5.3400704"
     inkscape:cx="52.235517"
     inkscape:cy="-11.431495"
     inkscape:window-x="-2"
     inkscape:window-y="-3"
     inkscape:window-maximized="1"
     inkscape:current-layer="svg2"
     fit-margin-top="1"
     fit-margin-left="1"
     fit-margin-right="1"
     fit-margin-bottom="1" /><g
     id="g4154"
     transform="translate(-74.427318,-67.449905)"><path
       stroke-miterlimit="10"
       d="m 81.802702,68.300544 c 0,0 -2.876477,0.0265 -4.422118,1.0779 -1.545641,1.05138 -1.828213,2.74564 -1.828213,5.83775 0,6.28752 3.67368,14.54372 3.67368,14.54372 2.421362,0.92755 3.316088,0.61912 6.073285,-0.24715 0,0 2.893482,-7.14078 3.264576,-9.24354 0.370843,-2.10276 0.453864,-5.40925 0.218305,-6.46463 -0.23581,-1.05538 -0.04601,-1.76731 -1.926488,-3.64869 -1.880475,-1.88138 -5.053027,-1.85536 -5.053027,-1.85536 z"
       id="path59"
       inkscape:connector-curvature="0"
       style="fill:#c19069;fill-opacity:1;stroke:#000000;stroke-width:0.25010663;stroke-miterlimit:10" /><path
       stroke-miterlimit="10"
       d="m 81.434358,73.910904 c 0,0 -1.272571,10.36197 -1.272571,13.02832 0,0 1.853219,1.51541 3.457124,-0.0275 -0.683422,-3.64544 -2.184553,-13.0008 -2.184553,-13.0008 z"
       id="path61"
       inkscape:connector-curvature="0"
       style="fill:#c19069;fill-opacity:1;stroke:#000000;stroke-width:0.25010663;stroke-miterlimit:10" /></g></svg>