<?xml version="1.0" encoding="UTF-8" standalone="no"?>
<!-- Generator: Adobe Illustrator 15.1.0, SVG Export Plug-In . SVG Version: 6.00 Build 0)  -->

<svg
   xmlns:dc="http://purl.org/dc/elements/1.1/"
   xmlns:cc="http://creativecommons.org/ns#"
   xmlns:rdf="http://www.w3.org/1999/02/22-rdf-syntax-ns#"
   xmlns:svg="http://www.w3.org/2000/svg"
   xmlns="http://www.w3.org/2000/svg"
   xmlns:xlink="http://www.w3.org/1999/xlink"
   xmlns:sodipodi="http://sodipodi.sourceforge.net/DTD/sodipodi-0.dtd"
   xmlns:inkscape="http://www.inkscape.org/namespaces/inkscape"
   version="1.1"
   x="0px"
   y="0px"
   width="24"
   height="105"
   viewBox="0 0 24 105"
   enable-background="new 0 0 1000 1000"
   xml:space="preserve"
   id="svg2"
   inkscape:version="0.91 r13725"
   sodipodi:docname="A-380xxA3_fuselage_3.svg"><metadata
     id="metadata154"><rdf:RDF><cc:Work
         rdf:about=""><dc:format>image/svg+xml</dc:format><dc:type
           rdf:resource="http://purl.org/dc/dcmitype/StillImage" /><dc:title /></cc:Work></rdf:RDF></metadata><defs
     id="defs152"><linearGradient
       id="linearGradient4401"><stop
         style="stop-color:#765337;stop-opacity:1"
         offset="0"
         id="stop4403" /><stop
         id="stop4411"
         offset="0.37651119"
         style="stop-color:#c19069;stop-opacity:1;" /><stop
         id="stop4409"
         offset="0.62651122"
         style="stop-color:#c19069;stop-opacity:1;" /><stop
         style="stop-color:#765337;stop-opacity:1"
         offset="1"
         id="stop4405" /></linearGradient><linearGradient
       inkscape:collect="always"
       xlink:href="#linearGradient4401"
       id="linearGradient4407"
       x1="111.90682"
       y1="107.41063"
       x2="137.07043"
       y2="107.41063"
       gradientUnits="userSpaceOnUse" /><linearGradient
       inkscape:collect="always"
       xlink:href="#linearGradient4401"
       id="linearGradient4472"
       gradientUnits="userSpaceOnUse"
       x1="111.90682"
       y1="107.41063"
       x2="137.07043"
       y2="107.41063"
       gradientTransform="translate(-112.375,-136.00001)" /></defs><sodipodi:namedview
     pagecolor="#ffffff"
     bordercolor="#666666"
     borderopacity="1"
     objecttolerance="10"
     gridtolerance="10"
     guidetolerance="10"
     inkscape:pageopacity="0"
     inkscape:pageshadow="2"
     inkscape:window-width="1912"
     inkscape:window-height="2107"
     id="namedview150"
     showgrid="false"
     inkscape:zoom="10.680141"
     inkscape:cx="25.467813"
     inkscape:cy="74.102502"
     inkscape:window-x="1920"
     inkscape:window-y="0"
     inkscape:window-maximized="0"
     inkscape:current-layer="svg2"
     fit-margin-top="1"
     fit-margin-left="1"
     fit-margin-right="1"
     fit-margin-bottom="1" /><path
     style="fill:url(#linearGradient4472);fill-opacity:1;stroke:none"
     d="m 1.125,0.90624237 c 0.47632,8.00766003 2,33.27384963 2,37.31249963 0,4.70007 3.09375,20.46875 3.09375,20.46875 0,0 2.94239,12.48436 3.375,13.96875 0.43261,1.48414 1.76005,5.03125 2.53125,5.03125 0.77145,0 2.06689,-3.54711 2.5,-5.03125 0.4326,-1.48439 3.40625,-13.96875 3.40625,-13.96875 0,0 3.09375,-15.76868 3.09375,-20.46875 0,-4.03865 1.49238,-29.3048396 1.96875,-37.31249963 l -21.96875,0 z"
     id="path121"
     inkscape:connector-curvature="0" /><path
     style="font-size:medium;font-style:normal;font-variant:normal;font-weight:normal;font-stretch:normal;text-indent:0;text-align:start;text-decoration:none;line-height:normal;letter-spacing:normal;word-spacing:normal;text-transform:none;direction:ltr;block-progression:tb;writing-mode:lr-tb;text-anchor:start;baseline-shift:baseline;color:#000000;fill:#000000;fill-opacity:1;fill-rule:nonzero;stroke:none;stroke-width:1;marker:none;visibility:visible;display:inline;overflow:visible;enable-background:accumulate;font-family:Sans;-inkscape-font-specification:Sans"
     d="M 1,0.90624237 C 1.19976,4.2468924 1.43172,7.7510624 1.84375,15.031242 2.41688,25.157732 3,35.889182 3,38.218742 c 0,2.37746 0.75818,7.49948 1.53125,12.03125 0.77305,4.53176 1.5625,8.46875 1.5625,8.46875 0,0 0.73525,3.13274 1.53125,6.4375 0.79601,3.30478 1.65385,6.77243 1.875,7.53125 0.2182,0.74859 0.64599,2.00989 1.125,3.09375 0.23949,0.54193 0.47458,1.03841 0.71875,1.40625 0.12209,0.18392 0.25267,0.32612 0.375,0.4375 0.12234,0.11138 0.26171,0.1875 0.40625,0.1875 0.14455,0 0.25263,-0.0761 0.375,-0.1875 0.12236,-0.11138 0.2529,-0.25358 0.375,-0.4375 0.24421,-0.36784 0.51048,-0.86433 0.75,-1.40625 0.47903,-1.08386 0.90655,-2.3452 1.125,-3.09375 0.22115,-0.75882 1.04775,-4.22647 1.84375,-7.53125 0.796,-3.30476 1.5625,-6.4375 1.5625,-6.4375 0,0 0.75819,-3.93699 1.53125,-8.46875 0.77306,-4.53177 1.5625,-9.65379 1.5625,-12.03125 0,-2.32956 0.5518,-13.06101 1.125,-23.1875 0.41208,-7.2801796 0.64397,-10.7843496 0.84375,-14.12499963 l -0.25,0 C 22.77116,4.2528424 22.53695,7.7535524 22.125,15.031242 21.55178,25.158272 21,35.848482 21,38.218742 c 0,2.32261 -0.79003,7.44052 -1.5625,11.96875 -0.77245,4.52823 -1.53125,8.46875 -1.53125,8.46875 0,0 -0.73534,3.13318 -1.53125,6.4375 -0.79589,3.30434 -1.66353,6.80567 -1.875,7.53125 -0.21466,0.73558 -0.65249,1.99338 -1.125,3.0625 -0.23626,0.53456 -0.48854,1.02823 -0.71875,1.375 -0.1151,0.17338 -0.21438,0.28568 -0.3125,0.375 -0.0982,0.0893 -0.17044,0.125 -0.21875,0.125 -0.0483,0 -0.15189,-0.0357 -0.25,-0.125 -0.0981,-0.0893 -0.1974,-0.20162 -0.3125,-0.375 -0.23019,-0.34677 -0.48251,-0.84044 -0.71875,-1.375 -0.47249,-1.06912 -0.91059,-2.32696 -1.125,-3.0625 -0.21145,-0.72558 -1.04786,-4.22691 -1.84375,-7.53125 -0.7959,-3.30432 -1.5625,-6.4375 -1.5625,-6.4375 l 0.0312,0 c 0,0 -0.79005,-3.94052 -1.5625,-8.46875 -0.77246,-4.52823 -1.53125,-9.64614 -1.53125,-11.96875 0,-2.37025 -0.58309,-13.06047 -1.15625,-23.1875 C 1.6818,7.7535524 1.44982,4.2528424 1.24995,0.90624237 l -0.25,0 z"
     id="path4134"
     inkscape:connector-curvature="0" /><path
     style="fill:#c19069;fill-opacity:1;stroke:#000000;stroke-width:0.25010663;stroke-miterlimit:10"
     inkscape:connector-curvature="0"
     id="path142"
     d="m 12.11375,103.87494 c 0,0 -1.16705,-11.709268 -1.16705,-14.930948 0,-3.22168 -1.41711,-48.85431 -1.41711,-53.19041 0,-4.3361 2.58416,-13.761 2.58416,-13.761 0,0 2.58415,9.4249 2.58415,13.761 0,4.3361 -1.41711,49.96848 -1.41711,53.19041 0,3.22193 -1.16704,14.930948 -1.16704,14.930948 z"
     stroke-miterlimit="10" /><line
     style="fill:#c19069;fill-opacity:1;stroke:#000000;stroke-width:0.25010663;stroke-miterlimit:10"
     id="line144"
     y2="21.992561"
     x2="12.113747"
     y1="103.87494"
     x1="12.113747"
     stroke-miterlimit="10" /><polygon
     style="fill:#c19069;fill-opacity:1;stroke:#000000;stroke-miterlimit:10"
     id="polygon146"
     points="500.268,901.25 500.268,693 505.25,698 503.25,904.5 "
     stroke-miterlimit="10"
     transform="matrix(0.25006324,0,0,0.25015005,-112.98489,-139.10405)" /><polygon
     style="fill:#c19069;fill-opacity:1;stroke:#000000;stroke-miterlimit:10"
     id="polygon148"
     points="500.268,901.25 500.268,693 495.285,698 497.285,904.5 "
     stroke-miterlimit="10"
     transform="matrix(0.25006324,0,0,0.25015005,-112.98489,-139.10405)" /><path
     style="color:#000000;font-style:normal;font-variant:normal;font-weight:normal;font-stretch:normal;font-size:medium;line-height:normal;font-family:Sans;-inkscape-font-specification:Sans;text-indent:0;text-align:start;text-decoration:none;text-decoration-line:none;letter-spacing:normal;word-spacing:normal;text-transform:none;direction:ltr;block-progression:tb;writing-mode:lr-tb;baseline-shift:baseline;text-anchor:start;display:inline;overflow:visible;visibility:visible;fill:#000000;fill-opacity:1;fill-rule:nonzero;stroke:none;stroke-width:1;marker:none;enable-background:accumulate"
     d="m 20.3106,24.093977 c -0.3818,0 -0.61958,0.25468 -0.73457,0.48467 -0.11499,0.22998 -0.13284,0.45339 -0.13284,0.45339 l 0,0.008 0,0.008 0,2.2279 0,0.0156 0.008,0.0156 c 0,0 0.0448,0.15221 0.15628,0.30487 0.11146,0.15266 0.30221,0.3205 0.57827,0.3205 l 1.32065,0 0.12503,0 0,-0.11725 0.211,-3.58809 0.008,-0.1329 -0.13284,0 -1.40661,0 z m 0,0.25015 1.27376,0 -0.18755,3.33794 -1.21125,0 c -0.17754,0 -0.29076,-0.10338 -0.37509,-0.21888 -0.0787,-0.10772 -0.11261,-0.19701 -0.11722,-0.21107 l 0,-2.19663 0,-0.008 c 7.5e-4,-0.007 0.0201,-0.18089 0.10941,-0.35959 0.0912,-0.18226 0.23033,-0.34396 0.50794,-0.34396 z"
     id="path125"
     inkscape:connector-curvature="0" /><path
     style="color:#000000;font-style:normal;font-variant:normal;font-weight:normal;font-stretch:normal;font-size:medium;line-height:normal;font-family:Sans;-inkscape-font-specification:Sans;text-indent:0;text-align:start;text-decoration:none;text-decoration-line:none;letter-spacing:normal;word-spacing:normal;text-transform:none;direction:ltr;block-progression:tb;writing-mode:lr-tb;baseline-shift:baseline;text-anchor:start;display:inline;overflow:visible;visibility:visible;fill:#000000;fill-opacity:1;fill-rule:nonzero;stroke:none;stroke-width:1;marker:none;enable-background:accumulate"
     d="m 2.3667701,24.093977 0.008,0.13289 0.21098,3.58809 0,0.11726 0.12504,0 1.32064,0 c 0.27608,0 0.46687,-0.16784 0.57827,-0.32051 0.1114,-0.15266 0.1563,-0.30487 0.1563,-0.30487 l 0.008,-0.0156 0,-0.0156 0,-2.2279 0,-0.008 0,-0.008 c 0,0 -0.0179,-0.22342 -0.13285,-0.4534 -0.11495,-0.22998 -0.35287,-0.48467 -0.73456,-0.48467 l -1.40661,0 -0.13284,0 z m 0.2657,0.25015 1.27376,0 c 0.27747,0 0.41683,0.16169 0.50794,0.34396 0.0894,0.1787 0.10861,0.35251 0.1094,0.35959 1e-5,1.4e-4 0,0.008 0,0.008 l 0,2.19663 c -0.005,0.0141 -0.0386,0.10336 -0.11722,0.21107 -0.0843,0.11549 -0.19755,0.21888 -0.3751,0.21888 l -1.20342,0 -0.19536,-3.33794 z"
     id="path127"
     inkscape:connector-curvature="0" /><path
     inkscape:connector-curvature="0"
     id="path4222"
     d="m 5.3787301,10.753218 c -0.69087,0 -1.59415,0.25797 -1.59415,0.25797 l -0.0938,0.0234 0,0.0938 0,3.588089 0,0.14853 0.14847,-0.0234 c 0,0 0.29477,-0.0498 0.6486,-0.10163 0.35383,-0.0518 0.76915,-0.10944 0.97681,-0.10944 0.28424,0 0.48319,-0.19405 0.60171,-0.3674 0.11853,-0.17336 0.17192,-0.34396 0.17192,-0.34396 l 0.008,-0.0156 0,-0.0234 0,-2.329529 0,-0.008 0,-0.008 c 0,0 -0.0231,-0.19019 -0.14066,-0.38304 -0.11761,-0.19284 -0.35487,-0.39867 -0.72674,-0.39867 z m 0,0.25015 c 0.28729,0 0.42932,0.13187 0.51575,0.2736 0.0865,0.14173 0.1016,0.28924 0.1016,0.28924 l 0,2.290429 c -0.005,0.0142 -0.0506,0.1341 -0.14066,0.26579 -0.0953,0.13933 -0.22136,0.25796 -0.39073,0.25796 -0.24594,0 -0.65828,0.0571 -1.01588,0.10944 -0.27668,0.0405 -0.41237,0.0619 -0.50794,0.0782 l 0,-3.337939 c 0.13765,-0.036 0.86549,-0.2267 1.43786,-0.2267 z"
     style="color:#000000;font-style:normal;font-variant:normal;font-weight:normal;font-stretch:normal;font-size:medium;line-height:normal;font-family:Sans;-inkscape-font-specification:Sans;text-indent:0;text-align:start;text-decoration:none;text-decoration-line:none;letter-spacing:normal;word-spacing:normal;text-transform:none;direction:ltr;block-progression:tb;writing-mode:lr-tb;baseline-shift:baseline;text-anchor:start;display:inline;overflow:visible;visibility:visible;fill:#000000;fill-opacity:1;fill-rule:nonzero;stroke:none;stroke-width:1;marker:none;enable-background:accumulate" /><path
     inkscape:connector-curvature="0"
     id="path4224"
     d="m 18.93741,10.753218 c -0.37177,0 -0.60917,0.20583 -0.72675,0.39868 -0.11756,0.19284 -0.14066,0.38304 -0.14066,0.38304 l 0,0.008 0,0.008 0,2.329519 0,0.0234 0.008,0.0156 c 0,0 0.0534,0.1706 0.17192,0.34396 0.11853,0.17335 0.31747,0.36741 0.60171,0.36741 0.20753,0 0.62301,0.0576 0.97681,0.10944 0.3538,0.0518 0.6486,0.10162 0.6486,0.10162 l 0.14848,0.0234 0,-0.14853 0,-3.588089 0,-0.0938 -0.0938,-0.0234 c 0,0 -0.90329,-0.25797 -1.59415,-0.25797 z m 0,0.25015 c 0.57237,0 1.30021,0.19074 1.43786,0.2267 l 0,3.337939 c -0.0956,-0.0163 -0.23129,-0.0377 -0.50793,-0.0782 -0.35758,-0.0524 -0.77005,-0.10944 -1.01589,-0.10944 -0.16937,0 -0.29545,-0.11863 -0.39072,-0.25796 -0.0953,-0.13934 -0.14066,-0.28142 -0.14066,-0.28142 l 0,-2.274799 c 0,0 0.023,-0.14751 0.1094,-0.28924 0.0865,-0.14173 0.22079,-0.2736 0.50794,-0.2736 z"
     style="color:#000000;font-style:normal;font-variant:normal;font-weight:normal;font-stretch:normal;font-size:medium;line-height:normal;font-family:Sans;-inkscape-font-specification:Sans;text-indent:0;text-align:start;text-decoration:none;text-decoration-line:none;letter-spacing:normal;word-spacing:normal;text-transform:none;direction:ltr;block-progression:tb;writing-mode:lr-tb;baseline-shift:baseline;text-anchor:start;display:inline;overflow:visible;visibility:visible;fill:#000000;fill-opacity:1;fill-rule:nonzero;stroke:none;stroke-width:1;marker:none;enable-background:accumulate" /></svg>