<?xml version="1.0" encoding="UTF-8" standalone="no"?>
<!-- Generator: Adobe Illustrator 15.1.0, SVG Export Plug-In . SVG Version: 6.00 Build 0)  -->

<svg
   xmlns:dc="http://purl.org/dc/elements/1.1/"
   xmlns:cc="http://creativecommons.org/ns#"
   xmlns:rdf="http://www.w3.org/1999/02/22-rdf-syntax-ns#"
   xmlns:svg="http://www.w3.org/2000/svg"
   xmlns="http://www.w3.org/2000/svg"
   xmlns:xlink="http://www.w3.org/1999/xlink"
   xmlns:sodipodi="http://sodipodi.sourceforge.net/DTD/sodipodi-0.dtd"
   xmlns:inkscape="http://www.inkscape.org/namespaces/inkscape"
   version="1.1"
   x="0px"
   y="0px"
   width="24"
   height="67"
   viewBox="0 0 24 67"
   enable-background="new 0 0 1000 1000"
   xml:space="preserve"
   id="svg2"
   inkscape:version="0.91 r13725"
   sodipodi:docname="A-380xxA3_fuselage_1.svg"><metadata
     id="metadata154"><rdf:RDF><cc:Work
         rdf:about=""><dc:format>image/svg+xml</dc:format><dc:type
           rdf:resource="http://purl.org/dc/dcmitype/StillImage" /><dc:title /></cc:Work></rdf:RDF></metadata><defs
     id="defs152"><linearGradient
       id="linearGradient4401"><stop
         style="stop-color:#765337;stop-opacity:1"
         offset="0"
         id="stop4403" /><stop
         id="stop4411"
         offset="0.37651119"
         style="stop-color:#c19069;stop-opacity:1;" /><stop
         id="stop4409"
         offset="0.62651122"
         style="stop-color:#c19069;stop-opacity:1;" /><stop
         style="stop-color:#765337;stop-opacity:1"
         offset="1"
         id="stop4405" /></linearGradient><linearGradient
       inkscape:collect="always"
       xlink:href="#linearGradient4401"
       id="linearGradient4407"
       x1="111.90682"
       y1="107.41063"
       x2="137.07043"
       y2="107.41063"
       gradientUnits="userSpaceOnUse" /><linearGradient
       inkscape:collect="always"
       xlink:href="#linearGradient4401"
       id="linearGradient4420"
       gradientUnits="userSpaceOnUse"
       x1="111.90682"
       y1="107.41063"
       x2="137.07043"
       y2="107.41063"
       gradientTransform="translate(-112.3125,-0.21875)" /></defs><sodipodi:namedview
     pagecolor="#ffffff"
     bordercolor="#666666"
     borderopacity="1"
     objecttolerance="10"
     gridtolerance="10"
     guidetolerance="10"
     inkscape:pageopacity="0"
     inkscape:pageshadow="2"
     inkscape:window-width="1912"
     inkscape:window-height="2107"
     id="namedview150"
     showgrid="false"
     inkscape:zoom="7.552"
     inkscape:cx="4.0079049"
     inkscape:cy="-21.361246"
     inkscape:window-x="1920"
     inkscape:window-y="0"
     inkscape:window-maximized="0"
     inkscape:current-layer="svg2"
     fit-margin-top="1"
     fit-margin-left="1"
     fit-margin-right="1"
     fit-margin-bottom="1" /><path
     style="fill:url(#linearGradient4420);fill-opacity:1;stroke:none"
     d="m 12.1875,0.90625 c -1.2068,0 -10.875,5.4437595 -10.875,35.4375 L 1.1875,58.28125 1.125,66 l 22.09375,0 -0.0625,-7.71875 -0.125,-21.9375 c 0,-29.9939905 -9.63694,-35.4375 -10.84375,-35.4375 z"
     id="path121"
     inkscape:connector-curvature="0" /><path
     style="font-size:medium;font-style:normal;font-variant:normal;font-weight:normal;font-stretch:normal;text-indent:0;text-align:start;text-decoration:none;line-height:normal;letter-spacing:normal;word-spacing:normal;text-transform:none;direction:ltr;block-progression:tb;writing-mode:lr-tb;text-anchor:start;baseline-shift:baseline;color:#000000;fill:#000000;fill-opacity:1;fill-rule:nonzero;stroke:none;stroke-width:1;marker:none;visibility:visible;display:inline;overflow:visible;enable-background:accumulate;font-family:Sans;-inkscape-font-specification:Sans"
     d="m 12.1875,0.78125 c -0.19783,0 -0.48547,0.09943 -0.875,0.3125 C 10.92297,1.30679 10.41843,1.62963 9.875,2.125 8.78813,3.11574 7.47439,4.74577 6.1875,7.3125 c -2.57376,5.133451 -5,14.02098 -5,29.03125 L 1.0625,58.28125 1,66 1.25,66 1.3125,58.28125 1.4375,36.34375 C 1.4375,21.3603 3.85622,12.523611 6.40625,7.4375 7.68126,4.89445 9.00168,3.27949 10.0625,2.3125 c 0.53042,-0.4835 0.97488,-0.79826 1.34375,-1 0.36887,-0.20175 0.67736,-0.28125 0.78125,-0.28125 0.10387,0 0.38112,0.07955 0.75,0.28125 0.36888,0.20174 0.84459,0.51651 1.375,1 1.06083,0.96697 2.34999,2.58197 3.625,5.125 2.55003,5.08608 4.96875,13.92267 4.96875,28.90625 l 0.125,21.9375 0.0625,7.71875 0.25,0 -0.0625,-7.71875 -0.125,-21.9375 c 0,-15.0104 -2.42623,-23.89783 -5,-29.03125 C 16.86936,4.74578 15.55563,3.11572 14.46875,2.125 13.92531,1.62964 13.45204,1.30678 13.0625,1.09375 12.67298,0.88071 12.38532,0.78125 12.1875,0.78125 z"
     id="path4134"
     inkscape:connector-curvature="0" /><path
     style="fill:#292929;stroke:#000000;stroke-width:0.25010663;stroke-miterlimit:10"
     inkscape:connector-curvature="0"
     id="path123"
     d="m 12.176,5.5417835 c 0,0 -4.85423,0.83475 -6.09054,4.4526705 0,-4.4216505 6.09054,-5.2876705 6.09054,-5.2876705 0,0 6.09079,0.86577 6.09079,5.2876705 C 17.03022,6.3765335 12.176,5.5417835 12.176,5.5417835 z"
     stroke-miterlimit="10" /><path
     style="font-size:medium;font-style:normal;font-variant:normal;font-weight:normal;font-stretch:normal;text-indent:0;text-align:start;text-decoration:none;line-height:normal;letter-spacing:normal;word-spacing:normal;text-transform:none;direction:ltr;block-progression:tb;writing-mode:lr-tb;text-anchor:start;baseline-shift:baseline;color:#000000;fill:#000000;fill-opacity:1;fill-rule:nonzero;stroke:none;stroke-width:1;marker:none;visibility:visible;display:inline;overflow:visible;enable-background:accumulate;font-family:Sans;-inkscape-font-specification:Sans"
     d="m 3.00537,58.644074 c -0.64239,0.0412 -1.121,0.19676 -1.43786,0.34396 -0.31687,0.14719 -0.4845,0.28923 -0.4845,0.28923 l -0.0391,0.0391 0,0.0547 0,3.93986 0,0.21106 0.18754,-0.10162 c 0,0 1.03771,-0.558 1.87547,-0.5472 l 0.0156,0 0.0156,0 c 0.62444,-0.16064 0.85959,-0.76609 0.85959,-0.76609 l 0.008,-0.0234 0,-0.0234 0,-2.55622 0,-0.008 0,-0.008 c 0,0 -0.0272,-0.21259 -0.1641,-0.42213 -0.13693,-0.20954 -0.40113,-0.42213 -0.82834,-0.42213 l -0.008,0 z m 0.008,0.25015 c 0.003,0 0.005,-3e-5 0.008,0 0.3417,0.003 0.50729,0.14841 0.60953,0.30487 0.1032,0.15793 0.12503,0.3205 0.12503,0.3205 l 0,2.51714 c -0.0108,0.0263 -0.20243,0.45922 -0.67204,0.58629 -0.004,10e-4 -0.004,0.007 -0.008,0.008 -0.80093,0.001 -1.54387,0.36159 -1.7817,0.48467 l 0,-3.6819 c 0.0268,-0.0226 0.11728,-0.0991 0.3751,-0.21888 0.28983,-0.13464 0.7384,-0.28055 1.34409,-0.3205 z"
     id="path133"
     inkscape:connector-curvature="0" /><path
     style="font-size:medium;font-style:normal;font-variant:normal;font-weight:normal;font-stretch:normal;text-indent:0;text-align:start;text-decoration:none;line-height:normal;letter-spacing:normal;word-spacing:normal;text-transform:none;direction:ltr;block-progression:tb;writing-mode:lr-tb;text-anchor:start;baseline-shift:baseline;color:#000000;fill:#000000;fill-opacity:1;fill-rule:nonzero;stroke:none;stroke-width:1;marker:none;visibility:visible;display:inline;overflow:visible;enable-background:accumulate;font-family:Sans;-inkscape-font-specification:Sans"
     d="m 21.31469,58.644074 c -0.42722,0 -0.69141,0.21259 -0.82834,0.42213 -0.13692,0.20954 -0.1641,0.42213 -0.1641,0.42213 l 0,0.008 0,0.008 0,2.55622 0,0.0234 0.008,0.0234 c 0,0 0.22734,0.60545 0.85177,0.76609 l 0.0156,0 0.0156,0 c 0.83777,-0.0108 1.8833,0.5472 1.8833,0.5472 l 0.18754,0.10162 0,-0.21106 0,-3.93986 0,-0.0547 -0.0469,-0.039 c 0,0 -0.16763,-0.14204 -0.4845,-0.28923 -0.31686,-0.1472 -0.78767,-0.30278 -1.43005,-0.34396 l -0.008,0 z m -0.008,0.25015 c 0.003,1.9e-4 0.005,-2e-4 0.008,0 0.60565,0.04 1.04645,0.18587 1.33627,0.3205 0.26417,0.12272 0.36078,0.20773 0.38291,0.2267 l 0,3.6819 c -0.2306,-0.11975 -0.983,-0.4916 -1.78952,-0.49249 -0.004,-10e-4 -0.004,-0.007 -0.008,-0.008 -0.46961,-0.12707 -0.65341,-0.55999 -0.66423,-0.58629 l 0,-2.51713 c 0,0 0.014,-0.16258 0.11722,-0.32051 0.10226,-0.15648 0.27553,-0.30211 0.61734,-0.30487 z"
     id="path135"
     inkscape:connector-curvature="0" /><path
     style="font-size:medium;font-style:normal;font-variant:normal;font-weight:normal;font-stretch:normal;text-indent:0;text-align:start;text-decoration:none;line-height:normal;letter-spacing:normal;word-spacing:normal;text-transform:none;direction:ltr;block-progression:tb;writing-mode:lr-tb;text-anchor:start;baseline-shift:baseline;color:#000000;fill:#000000;fill-opacity:1;fill-rule:nonzero;stroke:none;stroke-width:1;marker:none;visibility:visible;display:inline;overflow:visible;enable-background:accumulate;font-family:Sans;-inkscape-font-specification:Sans"
     d="m 4.35727,15.172684 c -0.15631,-0.039 -0.30986,0.0143 -0.46105,0.0782 -0.30239,0.12769 -0.58609,0.34396 -0.58609,0.34396 l -0.0391,0.0313 -0.008,0.0469 -0.67987,3.19723 -0.12502,0.60974 0.35165,-0.50812 c 0,0 0.55393,-0.77442 1.21125,-0.89897 l 0.0156,0 0.008,-0.008 c 0.20767,-0.0874 0.35589,-0.24952 0.44541,-0.44558 0.0896,-0.19606 0.12841,-0.4272 0.14848,-0.66446 0.0402,-0.47452 -0.008,-0.9943 -0.008,-1.36019 0,-0.10971 -0.0228,-0.19793 -0.0704,-0.2736 -0.0476,-0.0757 -0.12504,-0.12905 -0.20319,-0.14853 z m -0.0547,0.24233 c 0.0271,0.007 0.0331,0.0171 0.0469,0.0391 0.0138,0.022 0.0313,0.062 0.0313,0.14071 0,0.38756 0.0452,0.90339 0.008,1.34455 -0.0187,0.22058 -0.054,0.42291 -0.12504,0.57848 -0.0711,0.15557 -0.16953,0.26031 -0.31257,0.3205 -0.45052,0.0938 -0.77823,0.36262 -1.01589,0.60974 l 0.55483,-2.67348 c 0.0313,-0.0231 0.2577,-0.19468 0.50013,-0.29705 0.12931,-0.0546 0.25851,-0.076 0.31258,-0.0625 z"
     id="path137"
     inkscape:connector-curvature="0" /><path
     style="font-size:medium;font-style:normal;font-variant:normal;font-weight:normal;font-stretch:normal;text-indent:0;text-align:start;text-decoration:none;line-height:normal;letter-spacing:normal;word-spacing:normal;text-transform:none;direction:ltr;block-progression:tb;writing-mode:lr-tb;text-anchor:start;baseline-shift:baseline;color:#000000;fill:#000000;fill-opacity:1;fill-rule:nonzero;stroke:none;stroke-width:1;marker:none;visibility:visible;display:inline;overflow:visible;enable-background:accumulate;font-family:Sans;-inkscape-font-specification:Sans"
     d="m 20.00185,15.172684 c -0.0782,0.0195 -0.15563,0.0728 -0.20318,0.14853 -0.0476,0.0757 -0.0625,0.16389 -0.0625,0.2736 0,0.3659 -0.0559,0.88567 -0.0156,1.36019 0.0201,0.23726 0.0668,0.4684 0.15629,0.66446 0.0896,0.19606 0.22994,0.35819 0.43761,0.44558 l 0.0156,0.008 0.008,0 c 0.65732,0.12455 1.21125,0.89897 1.21125,0.89897 l 0.35166,0.50812 -0.12503,-0.60974 -0.67204,-3.19723 -0.008,-0.0469 -0.0391,-0.0313 c 0,0 -0.28365,-0.21628 -0.58608,-0.34396 -0.15123,-0.0638 -0.31255,-0.11713 -0.46888,-0.0782 z m 0.0625,0.24233 c 0.0541,-0.0135 0.17542,0.008 0.30476,0.0625 0.24249,0.10237 0.46884,0.27394 0.50013,0.29705 l 0.56265,2.67348 c -0.23766,-0.24712 -0.57319,-0.51593 -1.0237,-0.60974 -0.14305,-0.0602 -0.23371,-0.16493 -0.30476,-0.3205 -0.0711,-0.15558 -0.11416,-0.3579 -0.13286,-0.57848 -0.0374,-0.44115 0.0156,-0.957 0.0156,-1.34455 0,-0.0786 0.01,-0.11869 0.0234,-0.14071 0.0138,-0.022 0.0277,-0.0323 0.0547,-0.0391 z"
     id="path139"
     inkscape:connector-curvature="0" /><path
     style="color:#000000;font-style:normal;font-variant:normal;font-weight:normal;font-stretch:normal;font-size:medium;line-height:normal;font-family:Sans;-inkscape-font-specification:Sans;text-indent:0;text-align:start;text-decoration:none;text-decoration-line:none;letter-spacing:normal;word-spacing:normal;text-transform:none;direction:ltr;block-progression:tb;writing-mode:lr-tb;baseline-shift:baseline;text-anchor:start;display:inline;overflow:visible;visibility:visible;fill:#000000;fill-opacity:1;fill-rule:nonzero;stroke:none;stroke-width:1;marker:none;enable-background:accumulate"
     d="m 21.667252,43.077279 c -0.3818,0 -0.61958,0.25468 -0.73457,0.48467 -0.11499,0.22998 -0.13284,0.45339 -0.13284,0.45339 l 0,0.008 0,0.008 0,2.2279 0,0.0156 0.008,0.0156 c 0,0 0.0448,0.15221 0.15628,0.30487 0.11146,0.15266 0.30221,0.3205 0.57827,0.3205 l 1.53132,0 0.12503,0 0,-0.11725 3.3e-4,-3.58809 0.008,-0.1329 -0.13284,0 -1.40661,0 z m 0,0.25015 1.27376,0 0.0231,3.33794 -1.42192,0 c -0.17754,0 -0.29076,-0.10338 -0.37509,-0.21888 -0.0787,-0.10772 -0.11261,-0.19701 -0.11722,-0.21107 l 0,-2.19663 0,-0.008 c 7.5e-4,-0.007 0.0201,-0.18089 0.10941,-0.35959 0.0912,-0.18226 0.23033,-0.34396 0.50794,-0.34396 z"
     id="path4230"
     inkscape:connector-curvature="0"
     sodipodi:nodetypes="cccccccccscccccccccccsccccccc" /><path
     sodipodi:nodetypes="cccccccccscccccccccccsccccccc"
     inkscape:connector-curvature="0"
     id="path4234"
     d="m 2.7238121,43.077279 c 0.3818,0 0.61958,0.25468 0.73457,0.48467 0.11499,0.22998 0.13284,0.45339 0.13284,0.45339 l 0,0.008 0,0.008 0,2.2279 0,0.0156 -0.008,0.0156 c 0,0 -0.0448,0.15221 -0.15628,0.30487 -0.11146,0.15266 -0.30221,0.3205 -0.57827,0.3205 l -1.53132,0 -0.12503,0 0,-0.11725 -3.3e-4,-3.58809 -0.008,-0.1329 0.13284,0 1.40661,0 z m 0,0.25015 -1.27376,0 -0.0231,3.33794 1.42192,0 c 0.17754,0 0.29076,-0.10338 0.37509,-0.21888 0.0787,-0.10772 0.11261,-0.19701 0.11722,-0.21107 l 0,-2.19663 0,-0.008 c -7.5e-4,-0.007 -0.0201,-0.18089 -0.10941,-0.35959 -0.0912,-0.18226 -0.23033,-0.34396 -0.50794,-0.34396 z"
     style="color:#000000;font-style:normal;font-variant:normal;font-weight:normal;font-stretch:normal;font-size:medium;line-height:normal;font-family:Sans;-inkscape-font-specification:Sans;text-indent:0;text-align:start;text-decoration:none;text-decoration-line:none;letter-spacing:normal;word-spacing:normal;text-transform:none;direction:ltr;block-progression:tb;writing-mode:lr-tb;baseline-shift:baseline;text-anchor:start;display:inline;overflow:visible;visibility:visible;fill:#000000;fill-opacity:1;fill-rule:nonzero;stroke:none;stroke-width:1;marker:none;enable-background:accumulate" /></svg>