<?xml version="1.0" encoding="UTF-8" standalone="no"?>
<!-- Generator: Adobe Illustrator 15.1.0, SVG Export Plug-In . SVG Version: 6.00 Build 0)  -->

<svg
   xmlns:dc="http://purl.org/dc/elements/1.1/"
   xmlns:cc="http://creativecommons.org/ns#"
   xmlns:rdf="http://www.w3.org/1999/02/22-rdf-syntax-ns#"
   xmlns:svg="http://www.w3.org/2000/svg"
   xmlns="http://www.w3.org/2000/svg"
   xmlns:xlink="http://www.w3.org/1999/xlink"
   xmlns:sodipodi="http://sodipodi.sourceforge.net/DTD/sodipodi-0.dtd"
   xmlns:inkscape="http://www.inkscape.org/namespaces/inkscape"
   version="1.1"
   x="0px"
   y="0px"
   width="249"
   height="241"
   viewBox="0 0 249 241"
   enable-background="new 0 0 1000 1000"
   xml:space="preserve"
   id="svg2"
   inkscape:version="0.91 r13725"
   sodipodi:docname="A-380xxA3.svg"><metadata
     id="metadata154"><rdf:RDF><cc:Work
         rdf:about=""><dc:format>image/svg+xml</dc:format><dc:type
           rdf:resource="http://purl.org/dc/dcmitype/StillImage" /></cc:Work></rdf:RDF></metadata><defs
     id="defs152"><linearGradient
       id="linearGradient3823"><stop
         style="stop-color:#c19069;stop-opacity:1;"
         offset="0"
         id="stop3825" /><stop
         id="stop3831"
         offset="0.5"
         style="stop-color:#c19069;stop-opacity:1;" /><stop
         style="stop-color:#765337;stop-opacity:1;"
         offset="1"
         id="stop3827" /></linearGradient><linearGradient
       id="linearGradient3812"><stop
         style="stop-color:#765337;stop-opacity:1;"
         offset="0"
         id="stop3815" /><stop
         id="stop3821"
         offset="0.5"
         style="stop-color:#c19069;stop-opacity:1;" /><stop
         style="stop-color:#c19069;stop-opacity:1;"
         offset="1"
         id="stop3817" /></linearGradient><linearGradient
       inkscape:collect="always"
       id="linearGradient3818"><stop
         style="stop-color:#765337;stop-opacity:1"
         offset="0"
         id="stop3820" /><stop
         style="stop-color:#c19069;stop-opacity:1"
         offset="1"
         id="stop3822" /></linearGradient><linearGradient
       inkscape:collect="always"
       id="linearGradient3810"><stop
         style="stop-color:#c19069;stop-opacity:1;"
         offset="0"
         id="stop3812" /><stop
         style="stop-color:#765337;stop-opacity:1"
         offset="1"
         id="stop3814" /></linearGradient><linearGradient
       id="linearGradient3798"><stop
         style="stop-color:#765337;stop-opacity:1"
         offset="0"
         id="stop3800" /><stop
         id="stop3808"
         offset="0.38395303"
         style="stop-color:#c19069;stop-opacity:1;" /><stop
         id="stop3806"
         offset="0.61906934"
         style="stop-color:#c19069;stop-opacity:1;" /><stop
         style="stop-color:#765337;stop-opacity:1"
         offset="1"
         id="stop3802" /></linearGradient><linearGradient
       inkscape:collect="always"
       xlink:href="#linearGradient3798"
       id="linearGradient3804"
       x1="111.90682"
       y1="107.41063"
       x2="137.07043"
       y2="107.41063"
       gradientUnits="userSpaceOnUse" /><linearGradient
       inkscape:collect="always"
       xlink:href="#linearGradient3810"
       id="linearGradient3816"
       x1="102.99438"
       y1="104.84947"
       x2="113.71452"
       y2="104.84947"
       gradientUnits="userSpaceOnUse" /><linearGradient
       inkscape:collect="always"
       xlink:href="#linearGradient3818"
       id="linearGradient3824"
       x1="135.28574"
       y1="104.77117"
       x2="145.83868"
       y2="104.77117"
       gradientUnits="userSpaceOnUse" /><linearGradient
       inkscape:collect="always"
       xlink:href="#linearGradient3812"
       id="linearGradient3819"
       x1="128.84483"
       y1="196.70331"
       x2="170.35537"
       y2="196.70331"
       gradientUnits="userSpaceOnUse" /><linearGradient
       inkscape:collect="always"
       xlink:href="#linearGradient3823"
       id="linearGradient3829"
       x1="78.632629"
       y1="196.70331"
       x2="120.14317"
       y2="196.70331"
       gradientUnits="userSpaceOnUse" /></defs><sodipodi:namedview
     pagecolor="#ffffff"
     bordercolor="#666666"
     borderopacity="1"
     objecttolerance="10"
     gridtolerance="10"
     guidetolerance="10"
     inkscape:pageopacity="0"
     inkscape:pageshadow="2"
     inkscape:window-width="3840"
     inkscape:window-height="2107"
     id="namedview150"
     showgrid="false"
     inkscape:zoom="5.3400704"
     inkscape:cx="72.726317"
     inkscape:cy="134.65817"
     inkscape:window-x="-8"
     inkscape:window-y="0"
     inkscape:window-maximized="1"
     inkscape:current-layer="svg2"
     fit-margin-top="1"
     fit-margin-left="1"
     fit-margin-right="1"
     fit-margin-bottom="1" /><path
     style="fill:#c19069;fill-opacity:1;stroke:#000000;stroke-width:0.25010663;stroke-miterlimit:10"
     inkscape:connector-curvature="0"
     id="path5"
     d="m 199.31842,89.681364 c 0,0 2.87673,0.0265 4.42237,1.0779 1.54564,1.05138 1.82822,2.74565 1.82822,5.83776 0,3.0921 -2.09179,14.358356 -2.09179,14.358356 -2.42111,0.92755 -4.89824,0.80423 -7.65518,-0.062 0,0 -2.89348,-7.14078 -3.26458,-9.24354 -0.37084,-2.102506 -0.45386,-5.409246 -0.2183,-6.464626 0.2358,-1.05538 0.046,-1.76756 1.92649,-3.6487 1.87996,-1.88112 5.05277,-1.85511 5.05277,-1.85511 z"
     stroke-miterlimit="10" /><path
     style="fill:#c19069;fill-opacity:1;stroke:#000000;stroke-width:0.25010663;stroke-miterlimit:10"
     inkscape:connector-curvature="0"
     id="path7"
     d="m 201.09712,95.638944 1.27258,13.028316 c -2.3341,1.05138 -3.63217,-0.80399 -3.63217,-0.80399 0.7762,-2.71212 2.35959,-12.224326 2.35959,-12.224326 z"
     stroke-miterlimit="10" /><path
     style="fill:#c19069;fill-opacity:1;stroke:#000000;stroke-width:0.25010663;stroke-miterlimit:10"
     inkscape:connector-curvature="0"
     id="path10"
     d="m 167.1978,68.221994 c 0,0 2.87648,0.0265 4.42211,1.0779 1.54565,1.05138 1.82822,2.74565 1.82822,5.83775 0,6.28752 -3.67368,14.54372 -3.67368,14.54372 -2.42137,0.92756 -3.31609,0.61912 -6.07329,-0.24715 0,0 -2.89322,-7.14078 -3.26432,-9.24354 -0.37085,-2.10251 -0.45412,-5.40924 -0.21831,-6.46463 0.23557,-1.05538 0.0458,-1.76756 1.92624,-3.64868 1.88048,-1.88113 5.05303,-1.85537 5.05303,-1.85537 z"
     stroke-miterlimit="10" /><path
     style="fill:#c19069;fill-opacity:1;stroke:#000000;stroke-width:0.25010663;stroke-miterlimit:10"
     inkscape:connector-curvature="0"
     id="path12"
     d="m 167.56589,73.832364 c 0,0 1.27258,10.36196 1.27258,13.02831 0,0 -1.85323,1.51541 -3.45713,-0.0273 0.68342,-3.64568 2.18455,-13.00104 2.18455,-13.00104 z"
     stroke-miterlimit="10" /><path
     style="fill:url(#linearGradient3824);fill-opacity:1;stroke:none"
     inkscape:connector-curvature="0"
     id="path15"
     d="m 135.28573,57.337474 8.39963,8.78151 c 0,0 96.31785,69.635266 98.66694,71.985426 2.3491,2.35016 3.83297,3.5869 3.83297,7.91599 0,4.32911 0,6.18447 0,6.18447 l -44.63503,-18.30573 -44.63529,-17.43971 -19.84452,-4.14349 -0.11278,-3.04057 -0.32183,-5.44001 -0.22781,-3.46483 -0.38859,-5.600106 -0.24182,-3.35777 -0.49187,-34.07518 z"
     stroke-miterlimit="10" /><path
     style="fill:#c19069;fill-opacity:1;stroke:#000000;stroke-width:0.25010663;stroke-miterlimit:10"
     inkscape:connector-curvature="0"
     id="path17"
     d="m 247.87495,153.97743 c 0,-2.10251 -1.68968,-6.67901 -1.68968,-6.67901 v 4.9062 l 1.68968,1.77281 z"
     stroke-miterlimit="10" /><path
     style="font-size:medium;font-style:normal;font-variant:normal;font-weight:normal;font-stretch:normal;text-indent:0;text-align:start;text-decoration:none;line-height:normal;letter-spacing:normal;word-spacing:normal;text-transform:none;direction:ltr;block-progression:tb;writing-mode:lr-tb;text-anchor:start;baseline-shift:baseline;color:#000000;fill:#000000;fill-opacity:1;fill-rule:nonzero;stroke:none;stroke-width:1;marker:none;visibility:visible;display:inline;overflow:visible;enable-background:accumulate;font-family:Sans;-inkscape-font-specification:Sans"
     d="m 135.15882,57.017964 0,0.32051 0.49231,34.07512 0,0.008 0.24225,3.3614 0.39072,5.597106 0.22663,3.46301 0.32039,5.44076 0.11721,3.03307 0,0.10163 0.0938,0.0234 19.82532,4.13529 0.0234,0.008 44.61286,17.43233 44.63628,18.30005 0.17192,0.0704 0,-0.17979 0,-6.19123 c 0,-2.17884 -0.37838,-3.59596 -1.05495,-4.76066 -0.67658,-1.1647 -1.64023,-2.06279 -2.81322,-3.23632 -0.16776,-0.16784 -0.6729,-0.57192 -1.5082,-1.21166 -0.83529,-0.63974 -1.99323,-1.50717 -3.42273,-2.57186 -2.85901,-2.12937 -6.81488,-5.04433 -11.4951,-8.47383 -9.36041,-6.859 -21.6188,-15.78061 -33.80542,-24.63196 C 167.85057,83.435994 143.80088,66.047554 143.77823,66.031184 l -8.40056,-8.7787 -0.21881,-0.23452 z m 0.25788,0.63319 8.18176,8.55201 0.008,0.008 0.008,0.008 c 0,0 24.0768,17.41233 48.44975,35.114806 12.18648,8.85124 24.44556,17.77337 33.80542,24.63196 4.67994,3.4293 8.63708,6.34519 11.4951,8.47383 1.42901,1.06432 2.58124,1.93335 3.41493,2.57186 0.83368,0.6385 1.35888,1.05446 1.48474,1.18039 l 0.008,0.008 c 1.17212,1.17237 2.11528,2.06085 2.76632,3.18159 0.65263,1.12349 1.0237,2.48534 1.0237,4.63559 l 0,6.00361 -44.46433,-18.23747 -44.63629,-17.44014 -0.008,0 -0.0156,-0.008 -19.73938,-4.11967 -0.11721,-2.94708 -0.3204,-5.44076 -0.22662,-3.46301 -0.39073,-5.604926 -0.24224,-3.34576 0,-0.008 -0.4845,-33.75461 z"
     id="path4128"
     inkscape:connector-curvature="0" /><path
     style="font-size:medium;font-style:normal;font-variant:normal;font-weight:normal;font-stretch:normal;text-indent:0;text-align:start;text-decoration:none;line-height:normal;letter-spacing:normal;word-spacing:normal;text-transform:none;direction:ltr;block-progression:tb;writing-mode:lr-tb;text-anchor:start;baseline-shift:baseline;color:#000000;fill:#000000;fill-opacity:1;fill-rule:nonzero;stroke:none;stroke-width:1;marker:none;visibility:visible;display:inline;overflow:visible;enable-background:accumulate;font-family:Sans;-inkscape-font-specification:Sans"
     d="m 135.40107,64.803884 0,0.24233 0.0782,8.19242 0,0.17979 0,0.086 0.11722,14.09439 0,0.0703 0.0625,0.0391 3.91505,2.36079 0.73456,8.42694 0,0.0782 0.0782,0.0235 6.75171,2.720376 0.008,0.008 0.008,0 11.35443,3.04089 0.0235,0.008 81.16896,39.6566 0.10159,0.0469 0.0625,-0.0938 2.71943,-4.24473 0.0625,-0.10162 -0.10158,-0.0704 -77.39458,-55.283156 -0.0156,-0.0156 -0.0156,0 -23.90448,-8.89596 0,-6.32411 0,-0.0625 -0.0547,-0.0391 -5.56391,-4.0024 -0.19536,-0.14071 z m 0.25006,0.48467 5.31385,3.83042 0,6.15994 -5.2357,-1.94648 -0.0782,-8.04388 z m 0.0782,8.30967 3.06327,1.14131 2.25057,0.83644 0.17192,0.0625 23.78727,8.84906 0.0313,0.0156 77.27735,55.197166 -2.5944,4.05712 -81.09864,-39.6175 -0.008,0 -0.0156,-0.008 -11.37005,-3.0487 -6.68138,-2.681296 -0.73457,-8.41912 0,-0.0703 -0.0547,-0.0313 -3.90723,-2.35298 -0.11722,-13.93022 z m 10.01034,30.338506 -0.0156,0.14071 -0.43762,4.33854 -8.45526,-1.96993 -0.15629,-0.0391 0.008,0.16416 0.26568,5.75345 0,0.0938 0.0938,0.0234 19.82532,4.13529 0.0235,0.008 24.37335,9.52133 0.1094,0.0391 19.11421,7.47323 0.12503,0.0469 0.0391,-0.13289 0.9768,-3.5959 0.0313,-0.10944 -0.10158,-0.0391 -5.04815,-2.11846 0.76581,-2.14191 0.0391,-0.10162 -0.1016,-0.0469 -6.4235,-3.03307 -0.12502,-0.0625 0,0.008 -7.97859,-3.76789 -0.1094,-0.0469 -5.3998,-2.5484 -0.12503,-0.0625 -6.36098,-2.99398 -0.0938,-0.0469 -6.32973,-2.98616 -0.13284,-0.0625 -5.78271,-2.7282 0.008,-0.0235 -0.10159,-0.0235 -0.0156,0 -5.64987,-1.38364 -0.0547,-0.0156 -6.65793,-1.63379 -0.14066,-0.0313 z m 0.21881,0.30487 6.46257,1.58689 -0.54702,4.11966 -6.34534,-1.47745 0.42979,-4.2291 z m 6.71263,1.64943 5.3998,1.32892 -0.83615,3.97113 -5.11066,-1.18821 0.54701,-4.11184 z m -15.73053,0.83644 8.32241,1.93866 0.10158,0.0234 6.47821,1.50872 0.1094,0.0235 5.24352,1.2273 -0.39073,4.85447 -19.61433,-4.08839 -0.25006,-5.48766 z m 21.36477,0.57847 5.75146,2.71256 -1.14873,3.54119 -5.43106,-2.28262 0.82833,-3.97113 z m 5.97808,2.822 6.11092,2.87673 -0.97681,3.28322 -6.26722,-2.63439 1.13311,-3.52556 z m -6.84549,1.4071 5.5014,2.30607 6.51726,2.73601 0.12504,0.0547 6.33754,2.65785 0.1094,0.0469 4.72776,1.98557 0.60953,0.25796 0.11721,0.0469 0.98463,0.41431 -1.1331,3.8226 -24.28739,-9.49006 0.39072,-4.83884 z m 13.19084,1.57907 6.34536,2.99398 -0.97681,2.94708 -6.34536,-2.66566 0.97681,-3.2754 z m 6.56416,3.10342 5.17319,2.43897 -1.01589,2.6422 -5.11849,-2.14972 0.96119,-2.93145 z m 5.39981,2.54059 7.98639,3.76788 -0.86741,2.28262 -7.04866,-2.9549 -0.0469,-0.0235 -1.03933,-0.43776 1.01589,-2.63439 z m 0.10158,3.37702 6.92363,2.908 0.11721,0.0469 6.56416,2.75947 0.12504,0.0469 4.93093,2.07156 -0.90648,3.3692 -18.87978,-7.37942 1.12529,-3.82261 z m 8.11143,0.49249 6.19688,2.92362 -0.71893,2.01684 -6.33754,-2.66566 0.85959,-2.2748 z m 11.81549,5.40949 -0.0391,0.14071 -1.45349,5.57365 -0.0234,0.10163 0.1016,0.0469 12.33124,5.0499 0,0.008 0.11722,0.0469 16.24629,6.65243 0.17192,0.0782 0,-0.18761 0,-4.88574 0,-0.0782 -0.0782,-0.0391 -14.34737,-6.55862 -0.11722,-0.0547 -12.77667,-5.83944 -0.13284,-0.0547 z m 0.1641,0.35177 12.65163,5.7769 -1.80514,4.55743 -12.22965,-5.01864 1.38316,-5.31569 z m 12.88607,5.88635 14.15202,6.46481 0,4.61996 -15.95716,-6.54299 1.80514,-4.54178 z"
     id="polygon19"
     inkscape:connector-curvature="0" /><path
     style="fill:#c19069;fill-opacity:1;stroke:#000000;stroke-width:0.25010663;stroke-miterlimit:10"
     inkscape:connector-curvature="0"
     id="path43"
     d="m 177.08305,124.3394 c 0,0 -0.69393,7.086 -1.0095,7.086 -0.31533,0 -0.92099,-7.84045 -0.92099,-7.84045 l 1.93049,0.75445 z"
     stroke-miterlimit="10" /><path
     style="fill:#c19069;fill-opacity:1;stroke:#000000;stroke-width:0.25010663;stroke-miterlimit:10"
     inkscape:connector-curvature="0"
     id="path45"
     d="m 189.65248,129.2506 c 0,0 -0.69293,7.06323 -1.00825,7.06323 -0.31533,0 -0.92099,-7.81743 -0.92099,-7.81743 l 1.92924,0.7542 z"
     stroke-miterlimit="10" /><path
     style="fill:#c19069;fill-opacity:1;stroke:#000000;stroke-width:0.25010663;stroke-miterlimit:10"
     inkscape:connector-curvature="0"
     id="path47"
     d="m 201.55049,133.89914 c 0,0 -0.83271,6.82409 -1.14804,6.82409 -0.31558,0 -0.92123,-7.63258 -0.92123,-7.63258 l 2.06927,0.80849 z"
     stroke-miterlimit="10" /><path
     style="fill:#c19069;fill-opacity:1;stroke:#000000;stroke-width:0.25010663;stroke-miterlimit:10"
     inkscape:connector-curvature="0"
     id="path49"
     d="m 163.76418,119.13553 c 0,0 -0.2003,2.8312 -0.51588,2.8312 -0.31533,0 -0.54513,-3.2457 -0.54513,-3.2457 l 1.06101,0.4145 z"
     stroke-miterlimit="10" /><path
     style="fill:#c19069;fill-opacity:1;stroke:#000000;stroke-width:0.25010663;stroke-miterlimit:10"
     inkscape:connector-curvature="0"
     id="path51"
     d="m 152.17375,115.46933 c 0,0 -0.26832,3.43231 -0.5839,3.43231 -0.31533,0 -0.5914,-3.67795 -0.5914,-3.67795 l 1.1753,0.24564 z"
     stroke-miterlimit="10" /><path
     style="fill:#c19069;fill-opacity:1;stroke:#000000;stroke-width:0.25010663;stroke-miterlimit:10"
     inkscape:connector-curvature="0"
     id="path54"
     d="m 49.681829,89.759664 c 0,0 -2.876728,0.0265 -4.422368,1.07789 -1.545391,1.05138 -1.827962,2.74566 -1.827962,5.83776 0,3.09211 2.091779,14.358356 2.091779,14.358356 2.421362,0.92756 4.898239,0.80424 7.655185,-0.062 0,0 2.893482,-7.14078 3.264576,-9.24355 0.371094,-2.102756 0.453865,-5.409236 0.218306,-6.464616 -0.235561,-1.05538 -0.04601,-1.76731 -1.926488,-3.6487 -1.880476,-1.88138 -5.053028,-1.85511 -5.053028,-1.85511 z"
     stroke-miterlimit="10" /><path
     style="fill:#c19069;fill-opacity:1;stroke:#000000;stroke-width:0.25010663;stroke-miterlimit:10"
     inkscape:connector-curvature="0"
     id="path56"
     d="m 47.903129,95.717244 -1.272571,13.028306 c 2.33409,1.05138 3.632168,-0.80398 3.632168,-0.80398 -0.776196,-2.71188 -2.359597,-12.224326 -2.359597,-12.224326 z"
     stroke-miterlimit="10" /><path
     style="fill:#c19069;fill-opacity:1;stroke:#000000;stroke-width:0.25010663;stroke-miterlimit:10"
     inkscape:connector-curvature="0"
     id="path59"
     d="m 81.802702,68.300544 c 0,0 -2.876477,0.0265 -4.422118,1.0779 -1.545641,1.05138 -1.828213,2.74564 -1.828213,5.83775 0,6.28752 3.67368,14.54372 3.67368,14.54372 2.421362,0.92755 3.316088,0.61912 6.073285,-0.24715 0,0 2.893482,-7.14078 3.264576,-9.24354 0.370843,-2.10276 0.453864,-5.40925 0.218305,-6.46463 -0.23581,-1.05538 -0.04601,-1.76731 -1.926488,-3.64869 -1.880475,-1.88138 -5.053027,-1.85536 -5.053027,-1.85536 z"
     stroke-miterlimit="10" /><path
     style="fill:#c19069;fill-opacity:1;stroke:#000000;stroke-width:0.25010663;stroke-miterlimit:10"
     inkscape:connector-curvature="0"
     id="path61"
     d="m 81.434358,73.910904 c 0,0 -1.272571,10.36197 -1.272571,13.02832 0,0 1.853219,1.51541 3.457124,-0.0275 -0.683422,-3.64544 -2.184553,-13.0008 -2.184553,-13.0008 z"
     stroke-miterlimit="10" /><path
     style="fill:url(#linearGradient3816);fill-opacity:1;stroke:none"
     inkscape:connector-curvature="0"
     id="path64"
     d="m 113.71452,57.415764 -8.39937,8.78177 c 0,0 -96.3178586,69.635006 -98.6672025,71.985166 -2.3493442,2.35016 -3.8329693,3.5869 -3.8329693,7.916 0,4.32911 0,6.18447 0,6.18447 l 44.6352858,-18.30549 44.635288,-17.43971 19.844518,-4.14348 0.11278,-3.04032 0.32183,-5.44001 0.22806,-3.46483 0.38835,-5.600106 0.24207,-3.35777 0.49136,-34.07569 z"
     stroke-miterlimit="10" /><path
     style="fill:#c19069;fill-opacity:1;stroke:#000000;stroke-width:0.25010663;stroke-miterlimit:10"
     inkscape:connector-curvature="0"
     id="path66"
     d="m 1.1250509,154.05598 c 0,-2.10251 1.6896773,-6.67876 1.6896773,-6.67876 v 4.9057 l -1.6896773,1.77306 z"
     stroke-miterlimit="10" /><path
     style="font-size:medium;font-style:normal;font-variant:normal;font-weight:normal;font-stretch:normal;text-indent:0;text-align:start;text-decoration:none;line-height:normal;letter-spacing:normal;word-spacing:normal;text-transform:none;direction:ltr;block-progression:tb;writing-mode:lr-tb;text-anchor:start;baseline-shift:baseline;color:#000000;fill:#000000;fill-opacity:1;fill-rule:nonzero;stroke:none;stroke-width:1;marker:none;visibility:visible;display:inline;overflow:visible;enable-background:accumulate;font-family:Sans;-inkscape-font-specification:Sans"
     d="m 113.59868,64.882054 -0.19536,0.14071 -5.56391,4.0024 -0.0547,0.0391 0,0.0625 0,6.3241 -23.904483,8.89596 -0.01563,0 -0.01562,0.0156 -77.3945714,55.283156 -0.101588,0.0704 0.06252,0.10162 2.727252,4.24473 0.0547,0.0938 0.101588,-0.0469 81.1689624,-39.65659 0.02344,-0.008 11.35444,-3.04089 0.008,0 0.008,-0.008 6.75952,-2.720386 0.0703,-0.0235 0.008,-0.0782 0.72675,-8.42694 3.91505,-2.36079 0.0625,-0.0391 0,-0.0704 0.11722,-14.09439 0,-0.086 0,-0.17979 0.0782,-8.19241 0,-0.24234 z m -0.25006,0.48467 -0.0782,8.04388 -5.2357,1.94648 0,-6.15994 5.31384,-3.83042 z m -0.0782,8.30967 -0.11722,13.93023 -3.90725,2.35297 -0.0547,0.0313 0,0.0703 -0.73455,8.41912 -6.67357,2.681296 -0.0156,0.008 -11.362255,3.04088 -0.01563,0.008 -0.0078,0 L 9.2832135,143.836 6.6888065,139.77888 83.96616,84.581714 l 0.02344,-0.008 0.0078,-0.008 23.78726,-8.84906 0.0469,-0.0156 0.12504,-0.0469 5.31384,-1.97775 z m -10.01035,30.338506 -0.14066,0.0313 -6.571973,1.61034 -0.14066,0.0391 -5.649871,1.38364 -0.01563,0 -0.0078,0.008 -0.09378,0.0234 0,0.0156 -5.774898,2.7282 -0.132846,0.0625 -6.329726,2.98617 -6.454757,3.04088 -0.125032,0.0625 -5.399802,2.5484 -0.109403,0.0469 -14.527111,6.84786 -0.101589,0.0547 0.03908,0.10162 0.765819,2.14191 -5.048151,2.11846 -0.101589,0.0391 0.03126,0.10944 0.976809,3.5959 0.03908,0.1329 0.125032,-0.0469 19.114209,-7.47323 0.109402,-0.0391 24.373352,-9.52134 0.02344,-0.008 19.825335,-4.1353 0.0938,-0.0234 0,-0.0938 0.2657,-5.75345 0.008,-0.16417 -0.15629,0.0391 -8.45526,1.96993 -0.43762,-4.33854 -0.0156,-0.14071 z m -0.2188,0.30487 0.42979,4.2291 -6.345353,1.47745 -0.54702,-4.11966 6.462583,-1.58689 z m -6.712643,1.64943 0.55482,4.11184 -5.110659,1.18821 -0.843964,-3.97113 5.399803,-1.32892 z m 15.730543,0.83644 -0.25006,5.48766 -19.61434,4.08839 -0.390724,-4.85447 5.243521,-1.2273 0.1094,-0.0235 6.478193,-1.50872 0.1016,-0.0234 8.32241,-1.93866 z m -21.364779,0.57065 0.836148,3.97113 -5.438875,2.28262 -1.156542,-3.54118 5.759269,-2.71257 z m -5.978075,2.82983 1.1331,3.52555 -4.469882,1.87612 -1.797329,0.75827 -0.976809,-3.28322 6.11092,-2.87672 z m 6.845482,1.40709 0.390723,4.83884 -24.287391,9.49006 -1.1331,-3.8226 0.984624,-0.41431 0.02344,-0.008 0.09378,-0.0391 0.609528,-0.25797 2.805398,-1.17258 1.922361,-0.81299 0.109402,-0.0469 6.33754,-2.65784 0.125032,-0.0547 6.517273,-2.73602 5.501392,-2.30607 z m -13.183022,1.57125 0.968995,3.28322 -6.345354,2.66566 -0.97681,-2.95489 6.353169,-2.99399 z m -6.571974,3.11124 0.96118,2.93145 -5.110668,2.14191 -1.023695,-2.63439 5.173183,-2.43897 z m -5.399804,2.53277 1.015883,2.64221 -8.13487,3.41611 -0.867407,-2.29043 7.986394,-3.76789 z m -0.101587,3.39266 1.125284,3.81479 -18.879774,7.37942 -0.90648,-3.36139 18.66097,-7.83282 z m -8.111427,0.48467 0.867407,2.2748 -6.33754,2.65784 -0.726746,-2.00901 6.196879,-2.92363 z m -11.815488,5.40949 -0.132846,0.0625 -12.776668,5.83162 -0.117217,0.0547 -14.347378,6.55862 -0.07814,0.0391 0,0.0782 0,4.88574 0,0.18761 0.171918,-0.0703 16.246296,-6.66024 0.109403,-0.0469 12.346872,-5.05772 0.09378,-0.0469 -0.02344,-0.10162 -1.453492,-5.57366 -0.03908,-0.14071 z m -0.164104,0.35178 1.383162,5.31568 -12.229654,5.01864 -1.805144,-4.55742 12.651636,-5.7769 z m -12.886071,5.88634 1.805144,4.54178 -15.95716,6.54299 0,-4.61996 14.152016,-6.46481 z"
     id="polygon68"
     inkscape:connector-curvature="0" /><path
     style="fill:#c19069;fill-opacity:1;stroke:#000000;stroke-width:0.25010663;stroke-miterlimit:10"
     inkscape:connector-curvature="0"
     id="path92"
     d="m 71.917452,124.4177 c 0,0 0.693926,7.08575 1.009505,7.08575 0.315581,0 0.920984,-7.83995 0.920984,-7.83995 l -1.930489,0.7542 z"
     stroke-miterlimit="10" /><path
     style="fill:#c19069;fill-opacity:1;stroke:#000000;stroke-width:0.25010663;stroke-miterlimit:10"
     inkscape:connector-curvature="0"
     id="path94"
     d="m 59.347774,129.32889 c 0,0 0.692925,7.06299 1.008255,7.06299 0.315329,0 0.920982,-7.81719 0.920982,-7.81719 l -1.929237,0.7542 z"
     stroke-miterlimit="10" /><path
     style="fill:#c19069;fill-opacity:1;stroke:#000000;stroke-width:0.25010663;stroke-miterlimit:10"
     inkscape:connector-curvature="0"
     id="path96"
     d="m 47.450015,133.97743 c 0,0 0.832711,6.82434 1.14804,6.82434 0.31533,0 0.921233,-7.63282 0.921233,-7.63282 l -2.069273,0.80848 z"
     stroke-miterlimit="10" /><path
     style="fill:#c19069;fill-opacity:1;stroke:#000000;stroke-width:0.25010663;stroke-miterlimit:10"
     inkscape:connector-curvature="0"
     id="path98"
     d="m 85.23607,119.21383 c 0,0 0.200301,2.8312 0.51588,2.8312 0.31558,0 0.545138,-3.2457 0.545138,-3.2457 l -1.061018,0.4145 z"
     stroke-miterlimit="10" /><path
     style="fill:#c19069;fill-opacity:1;stroke:#000000;stroke-width:0.25010663;stroke-miterlimit:10"
     inkscape:connector-curvature="0"
     id="path100"
     d="m 96.826247,115.54763 c 0,0 0.26857,3.43256 0.5839,3.43256 0.31533,0 0.59165,-3.67796 0.59165,-3.67796 l -1.17555,0.2454 z"
     stroke-miterlimit="10" /><path
     style="fill:url(#linearGradient3819);fill-opacity:1;stroke:#000000;stroke-width:0.25010663000000000;stroke-miterlimit:10"
     inkscape:connector-curvature="0"
     id="path103"
     d="m 133.4085,175.53436 0.68768,2.25135 c 0,0 32.18014,24.98373 33.25841,25.828 1.07827,0.84425 2.3756,3.53337 2.3756,5.003 0,1.46963 0.50013,9.25555 0.50013,9.25555 l -41.26044,-17.26036 4.43862,-25.07754 z"
     stroke-miterlimit="10" /><polygon
     style="fill:none;fill-opacity:1;stroke:#000000;stroke-miterlimit:10"
     id="polygon105"
     points="518.188,814.375 523.342,785.267 670.75,860 670.75,878.174 "
     stroke-miterlimit="10"
     transform="matrix(0.25006324,0,0,0.25015005,-0.6098879,-3.1040365)" /><polygon
     style="fill:none;fill-opacity:1;stroke:#000000;stroke-miterlimit:10"
     id="polygon107"
     points="523.342,785.267 518.188,814.375 570.41,836.214 578.309,813.134 "
     stroke-miterlimit="10"
     transform="matrix(0.25006324,0,0,0.25015005,-0.6098879,-3.1040365)" /><polygon
     style="fill:none;fill-opacity:1;stroke:#000000;stroke-miterlimit:10"
     id="polygon109"
     points="525.571,772.674 531.747,737.794 635,811.75 624,824.5 "
     stroke-miterlimit="10"
     transform="matrix(0.25006324,0,0,0.25015005,-0.6098879,-3.1040365)" /><path
     style="fill:url(#linearGradient3829);fill-opacity:1;stroke:#000000;stroke-width:0.25010663000000000;stroke-miterlimit:10"
     inkscape:connector-curvature="0"
     id="path112"
     d="m 115.5795,175.53436 -0.68767,2.25135 c 0,0 -32.180149,24.98373 -33.258421,25.828 -1.078273,0.84425 -2.3756,3.53337 -2.3756,5.003 0,1.46963 -0.500127,9.25555 -0.500127,9.25555 L 120.01812,200.6119 115.5795,175.53436 z"
     stroke-miterlimit="10" /><polygon
     style="fill:none;fill-opacity:1;stroke:#000000;stroke-miterlimit:10"
     id="polygon114"
     points="482.39,814.375 477.235,785.267 329.827,860 329.827,878.174 "
     stroke-miterlimit="10"
     transform="matrix(0.25006324,0,0,0.25015005,-0.6098879,-3.1040365)" /><polygon
     style="fill:none;fill-opacity:1;stroke:#000000;stroke-miterlimit:10"
     id="polygon116"
     points="477.235,785.267 482.39,814.375 430.167,836.214 422.269,813.134 "
     stroke-miterlimit="10"
     transform="matrix(0.25006324,0,0,0.25015005,-0.6098879,-3.1040365)" /><polygon
     style="fill:none;fill-opacity:1;stroke:#000000;stroke-miterlimit:10"
     id="polygon118"
     points="475.006,772.674 468.83,737.794 365.577,811.75 376.577,824.5 "
     stroke-miterlimit="10"
     transform="matrix(0.25006324,0,0,0.25015005,-0.6098879,-3.1040365)" /><path
     style="font-size:medium;font-style:normal;font-variant:normal;font-weight:normal;font-stretch:normal;text-indent:0;text-align:start;text-decoration:none;line-height:normal;letter-spacing:normal;word-spacing:normal;text-transform:none;direction:ltr;block-progression:tb;writing-mode:lr-tb;text-anchor:start;baseline-shift:baseline;color:#000000;fill:#000000;fill-opacity:1;fill-rule:nonzero;stroke:none;stroke-width:1;marker:none;visibility:visible;display:inline;overflow:visible;enable-background:accumulate;font-family:Sans;-inkscape-font-specification:Sans"
     d="m 113.84093,57.096134 -0.2188,0.23452 -8.40057,8.7787 c -0.0227,0.0164 -24.072311,17.40488 -48.434121,35.099176 -12.18664,8.85132 -24.444972,17.77299 -33.805424,24.63196 -4.680225,3.42949 -8.63607,6.34446 -11.495095,8.47383 -1.429512,1.06468 -2.5874264,1.93212 -3.4227394,2.57186 -0.835312,0.63973 -1.340421,1.04383 -1.508194,1.21166 -1.173121,1.17353 -2.1366647,2.07161 -2.8132112,3.23632 -0.6765466,1.1647 -1.0549543,2.58182 -1.0549543,4.76066 l 0,6.19123 0,0.17979 0.1719185,-0.0703 44.6362874,-18.30005 44.612844,-17.43233 0.02343,-0.008 19.825339,-4.13529 0.0938,-0.0234 0,-0.0938 0.11722,-3.04089 0.32039,-5.44076 0.22664,-3.46304 0.39073,-5.597096 0.24224,-3.3614 0,-0.008 0.49231,-34.07512 0,-0.3205 z m -0.25788,0.6332 -0.48449,33.75461 0,0.008 -0.24225,3.34576 -0.39072,5.604926 -0.22662,3.46301 -0.3204,5.44076 -0.11722,2.94708 -19.739366,4.11966 -0.01563,0.008 -0.0078,0 -44.636287,17.44015 -44.4643683,18.23751 0,-6.00361 c 0,-2.15026 0.3710944,-3.51211 1.0236965,-4.63559 0.6526023,-1.12349 1.5979163,-2.01279 2.7741393,-3.18942 l 0.01562,-0.0156 c 0.133522,-0.13121 0.645075,-0.53365 1.469123,-1.16476 0.833698,-0.6385 1.9859055,-1.50754 3.4149245,-2.57186 2.858037,-2.12863 6.815144,-5.04454 11.495094,-8.47383 9.3599,-6.85857 21.61893,-15.78075 33.805424,-24.63196 24.372986,-17.702416 48.44976,-35.114806 48.44976,-35.114806 l 0.0156,-0.008 0.008,-0.008 8.17394,-8.552 z"
     id="path4124"
     inkscape:connector-curvature="0" /><path
     style="fill:url(#linearGradient3804);fill-opacity:1;stroke:none"
     inkscape:connector-curvature="0"
     id="path121"
     d="m 124.4885,1.1222535 c -1.2068,0 -10.851,5.44226 -10.851,35.4360005 -0.12353,21.95442 -0.12353,21.95442 -0.12353,21.95442 l -0.31433,32.90023 c 0,0 -1.29282,17.563536 -1.29282,20.903036 0,3.33951 0.023,17.77716 1.29282,19.04767 0,0 2.29259,38.15714 2.29259,42.85696 0,4.70007 3.09103,20.47003 3.09103,20.47003 0,0 2.9675,12.47599 3.40011,13.96038 0.43261,1.48414 1.73368,5.04803 2.50488,5.04803 0.77145,0 2.07228,-3.56389 2.50539,-5.04803 0.4326,-1.48439 3.4001,-13.96038 3.4001,-13.96038 0,0 3.09104,-15.76996 3.09104,-20.47003 0,-4.69982 2.29282,-42.85696 2.29282,-42.85696 1.26983,-1.27051 1.29283,-15.70816 1.29283,-19.04767 0,-3.3395 -1.29283,-20.903036 -1.29283,-20.903036 l -0.31457,-32.90023 c 0,0 0,0 -0.12354,-21.95442 0,-29.9939905 -9.64418,-35.4360005 -10.85099,-35.4360005 z"
     stroke-miterlimit="10" /><path
     style="font-size:medium;font-style:normal;font-variant:normal;font-weight:normal;font-stretch:normal;text-indent:0;text-align:start;text-decoration:none;line-height:normal;letter-spacing:normal;word-spacing:normal;text-transform:none;direction:ltr;block-progression:tb;writing-mode:lr-tb;text-anchor:start;baseline-shift:baseline;color:#000000;fill:#000000;fill-opacity:1;fill-rule:nonzero;stroke:none;stroke-width:1;marker:none;visibility:visible;display:inline;overflow:visible;enable-background:accumulate;font-family:Sans;-inkscape-font-specification:Sans"
     d="m 124.49207,0.99999355 c -0.19783,0 -0.4857,0.0918 -0.87523,0.30486995 -0.38953,0.21304 -0.87099,0.55213 -1.41442,1.0475 -1.08687,0.99074 -2.41718,2.61607 -3.70407,5.1828 -2.57376,5.1334505 -4.98563,14.0149405 -4.98563,29.0252105 l -0.12503,21.95068 -0.31257,32.89472 0,0.008 c -5e-4,0.007 -0.32564,4.38829 -0.64861,9.193026 -0.32324,4.8088 -0.6486,10.02425 -0.6486,11.71014 0,1.67004 0.007,6.11403 0.17192,10.30306 0.0823,2.09451 0.20935,4.12433 0.39072,5.71436 0.0907,0.79501 0.19638,1.47816 0.3204,2.00902 0.11489,0.49182 0.23781,0.83799 0.41417,1.0475 0.001,0.0226 0.57628,9.53014 1.14872,19.6446 0.57313,10.12649 1.14091,20.85622 1.14091,23.18578 0,2.37746 0.77421,7.48325 1.54728,12.01502 0.77305,4.53176 1.54726,8.48165 1.54726,8.48165 0,0 0.74344,3.12096 1.53944,6.42572 0.79601,3.30478 1.64652,6.78478 1.86767,7.5436 0.2182,0.74859 0.64628,2.01175 1.12529,3.09561 0.23949,0.54193 0.49038,1.03925 0.73455,1.40709 0.12209,0.18392 0.24495,0.3342 0.36728,0.44558 0.12234,0.11138 0.25401,0.18761 0.39855,0.18761 0.14455,0 0.26835,-0.0762 0.39072,-0.18761 0.12236,-0.11138 0.24517,-0.26166 0.36727,-0.44558 0.24421,-0.36784 0.49505,-0.86517 0.73457,-1.40709 0.47903,-1.08386 0.90683,-2.34706 1.12528,-3.09561 0.22115,-0.75882 1.07166,-4.23882 1.86766,-7.5436 0.796,-3.30476 1.53945,-6.42572 1.53945,-6.42572 0,0 0.77421,-3.94989 1.54727,-8.48165 0.77306,-4.53177 1.54726,-9.63756 1.54726,-12.01502 0,-2.32956 0.56772,-13.05929 1.14092,-23.18578 0.57251,-10.11446 1.14737,-19.62197 1.14873,-19.6446 0.17636,-0.20951 0.30708,-0.55568 0.42198,-1.0475 0.12402,-0.53086 0.22189,-1.21401 0.31258,-2.00902 0.18137,-1.59003 0.30841,-3.61985 0.39073,-5.71436 0.1646,-4.18903 0.17191,-8.63302 0.17191,-10.30306 0,-1.68589 -0.32536,-6.90134 -0.6486,-11.71014 -0.32297,-4.804736 -0.64805,-9.185606 -0.6486,-9.193026 l 0,-0.008 -0.31258,-32.89472 -0.12503,-21.95068 c 0,-15.0104 -2.41187,-23.89179 -4.98564,-29.0252105 -1.28689,-2.56672 -2.61718,-4.19208 -3.70406,-5.1828 -0.54344,-0.49536 -1.02489,-0.83447 -1.41443,-1.0475 -0.38952,-0.21304 -0.66957,-0.30486995 -0.86739,-0.30486995 z m 0,0.25014995 c 0.10387,0 0.3813,0.0719 0.75018,0.2736 0.36888,0.20174 0.83712,0.52493 1.36753,1.00842 1.06083,0.96697 2.36654,2.57722 3.64155,5.12025 2.55003,5.0860805 4.9622,13.9243805 4.9622,28.9079605 l 0.12502,21.95068 0.31258,32.90254 0,0.008 c 0,0 0.32543,4.393 0.64861,9.200836 0.32317,4.80784 0.64859,10.04091 0.64859,11.69451 0,1.66947 -0.008,6.11293 -0.17191,10.29524 -0.0822,2.09115 -0.20283,4.12 -0.38291,5.69873 -0.0901,0.78936 -0.2001,1.46282 -0.32039,1.97775 -0.1203,0.51493 -0.26598,0.86796 -0.38291,0.98496 l -0.0313,0.0391 -0.008,0.0469 c 0,0 -0.56768,9.5332 -1.14091,19.66024 -0.57322,10.12703 -1.14872,20.83115 -1.14872,23.20141 0,2.32261 -0.77481,7.4477 -1.54728,11.97593 -0.77245,4.52823 -1.53944,8.46602 -1.53944,8.46602 0,0 -0.74355,3.1214 -1.53946,6.42572 -0.79589,3.30434 -1.64837,6.80239 -1.85984,7.52797 -0.21466,0.73558 -0.65277,1.99521 -1.12528,3.06433 -0.23626,0.53456 -0.48091,1.02124 -0.71112,1.36801 -0.1151,0.17338 -0.22227,0.30936 -0.32039,0.39868 -0.0982,0.0893 -0.17831,0.12507 -0.22662,0.12507 -0.0483,0 -0.13633,-0.0358 -0.23444,-0.12507 -0.0981,-0.0893 -0.20529,-0.2253 -0.32039,-0.39868 -0.23019,-0.34677 -0.47488,-0.83345 -0.71112,-1.36801 -0.47249,-1.06912 -0.91088,-2.32879 -1.12529,-3.06433 -0.21145,-0.72558 -1.06395,-4.22363 -1.85984,-7.52797 -0.7959,-3.30432 -1.53946,-6.42572 -1.53946,-6.42572 l 0.008,0 c 0,0 -0.77481,-3.93779 -1.54726,-8.46602 -0.77246,-4.52823 -1.54727,-9.65332 -1.54727,-11.97593 0,-2.37025 -0.56776,-13.07438 -1.14092,-23.20141 -0.57316,-10.12704 -1.14872,-19.66024 -1.14872,-19.66024 l 0,-0.0469 -0.0391,-0.0391 c -0.11694,-0.117 -0.26262,-0.47003 -0.3829,-0.98496 -0.1203,-0.51493 -0.23035,-1.18839 -0.3204,-1.97775 -0.18008,-1.57873 -0.30074,-3.60758 -0.38291,-5.69873 -0.16434,-4.18231 -0.17192,-8.62577 -0.17192,-10.29524 0,-1.6536 0.32543,-6.88667 0.6486,-11.69451 0.32318,-4.807836 0.64861,-9.200836 0.64861,-9.200836 l 0,-0.008 0.31257,-32.90254 0.12504,-21.95068 c 0,-14.98345 2.41216,-23.82185 4.96219,-28.9079605 1.27501,-2.54305 2.58072,-4.15326 3.64154,-5.12025 0.53042,-0.4835 0.99867,-0.80668 1.36754,-1.00842 0.36887,-0.20175 0.65412,-0.2736 0.75801,-0.2736 z"
     id="path4134"
     inkscape:connector-curvature="0" /><path
     style="fill:#c19069;fill-opacity:1;stroke:#000000;stroke-width:0.25010663;stroke-miterlimit:10"
     inkscape:connector-curvature="0"
     id="path142"
     d="m 124.48875,239.87495 c 0,0 -1.16705,-11.70927 -1.16705,-14.93095 0,-3.22168 -1.41711,-48.85431 -1.41711,-53.19041 0,-4.3361 2.58416,-13.761 2.58416,-13.761 0,0 2.58415,9.4249 2.58415,13.761 0,4.3361 -1.41711,49.96848 -1.41711,53.19041 0,3.22193 -1.16704,14.93095 -1.16704,14.93095 z"
     stroke-miterlimit="10" /><line
     style="fill:#c19069;fill-opacity:1;stroke:#000000;stroke-width:0.25010663;stroke-miterlimit:10"
     id="line144"
     y2="157.99257"
     x2="124.48875"
     y1="239.87495"
     x1="124.48875"
     stroke-miterlimit="10" /><polygon
     style="fill:#c19069;fill-opacity:1;stroke:#000000;stroke-miterlimit:10"
     id="polygon146"
     points="503.25,904.5 500.268,901.25 500.268,693 505.25,698 "
     stroke-miterlimit="10"
     transform="matrix(0.25006324,0,0,0.25015005,-0.6098879,-3.1040365)" /><polygon
     style="fill:#c19069;fill-opacity:1;stroke:#000000;stroke-miterlimit:10"
     id="polygon148"
     points="497.285,904.5 500.268,901.25 500.268,693 495.285,698 "
     stroke-miterlimit="10"
     transform="matrix(0.25006324,0,0,0.25015005,-0.6098879,-3.1040365)" /><path
     style="fill:#292929;stroke:#000000;stroke-width:0.25010663;stroke-miterlimit:10"
     inkscape:connector-curvature="0"
     id="path123"
     d="m 124.4885,5.7605335 c 0,0 -4.85423,0.83475 -6.09054,4.4526705 0,-4.4216505 6.09054,-5.2876705 6.09054,-5.2876705 0,0 6.09079,0.86577 6.09079,5.2876705 -1.23657,-3.6179205 -6.09079,-4.4526705 -6.09079,-4.4526705 z"
     stroke-miterlimit="10" /><path
     style="color:#000000;font-style:normal;font-variant:normal;font-weight:normal;font-stretch:normal;font-size:medium;line-height:normal;font-family:Sans;-inkscape-font-specification:Sans;text-indent:0;text-align:start;text-decoration:none;text-decoration-line:none;letter-spacing:normal;word-spacing:normal;text-transform:none;direction:ltr;block-progression:tb;writing-mode:lr-tb;baseline-shift:baseline;text-anchor:start;display:inline;overflow:visible;visibility:visible;fill:#000000;fill-opacity:1;fill-rule:nonzero;stroke:none;stroke-width:1;marker:none;enable-background:accumulate"
     d="m 132.65241,160.66425 c -0.3818,0 -0.61958,0.25468 -0.73457,0.48467 -0.11499,0.22998 -0.13284,0.45339 -0.13284,0.45339 l 0,0.008 0,0.008 0,2.2279 0,0.0156 0.008,0.0156 c 0,0 0.0448,0.15221 0.15628,0.30487 0.11146,0.15266 0.30221,0.3205 0.57827,0.3205 l 1.32065,0 0.12503,0 0,-0.11725 0.211,-3.58809 0.008,-0.1329 -0.13284,0 -1.40661,0 z m 0,0.25015 1.27376,0 -0.18755,3.33794 -1.21125,0 c -0.17754,0 -0.29076,-0.10338 -0.37509,-0.21888 -0.0787,-0.10772 -0.11261,-0.19701 -0.11722,-0.21107 l 0,-2.19663 0,-0.008 c 7.5e-4,-0.007 0.0201,-0.18089 0.10941,-0.35959 0.0912,-0.18226 0.23033,-0.34396 0.50794,-0.34396 z"
     id="path125"
     inkscape:connector-curvature="0" /><path
     style="color:#000000;font-style:normal;font-variant:normal;font-weight:normal;font-stretch:normal;font-size:medium;line-height:normal;font-family:Sans;-inkscape-font-specification:Sans;text-indent:0;text-align:start;text-decoration:none;text-decoration-line:none;letter-spacing:normal;word-spacing:normal;text-transform:none;direction:ltr;block-progression:tb;writing-mode:lr-tb;baseline-shift:baseline;text-anchor:start;display:inline;overflow:visible;visibility:visible;fill:#000000;fill-opacity:1;fill-rule:nonzero;stroke:none;stroke-width:1;marker:none;enable-background:accumulate"
     d="m 114.70858,160.66425 0.008,0.13289 0.21098,3.58809 0,0.11726 0.12504,0 1.32064,0 c 0.27608,0 0.46687,-0.16784 0.57827,-0.32051 0.1114,-0.15266 0.1563,-0.30487 0.1563,-0.30487 l 0.008,-0.0156 0,-0.0156 0,-2.2279 0,-0.008 0,-0.008 c 0,0 -0.0179,-0.22342 -0.13285,-0.4534 -0.11495,-0.22998 -0.35287,-0.48467 -0.73456,-0.48467 l -1.40661,0 -0.13284,0 z m 0.2657,0.25015 1.27376,0 c 0.27747,0 0.41683,0.16169 0.50794,0.34396 0.0894,0.1787 0.10861,0.35251 0.1094,0.35959 1e-5,1.4e-4 0,0.008 0,0.008 l 0,2.19663 c -0.005,0.0141 -0.0386,0.10336 -0.11722,0.21107 -0.0843,0.11549 -0.19755,0.21888 -0.3751,0.21888 l -1.20342,0 -0.19536,-3.33794 z"
     id="path127"
     inkscape:connector-curvature="0" /><path
     style="font-size:medium;font-style:normal;font-variant:normal;font-weight:normal;font-stretch:normal;text-indent:0;text-align:start;text-decoration:none;line-height:normal;letter-spacing:normal;word-spacing:normal;text-transform:none;direction:ltr;block-progression:tb;writing-mode:lr-tb;text-anchor:start;baseline-shift:baseline;color:#000000;fill:#000000;fill-opacity:1;fill-rule:nonzero;stroke:none;stroke-width:1;marker:none;visibility:visible;display:inline;overflow:visible;enable-background:accumulate;font-family:Sans;-inkscape-font-specification:Sans"
     d="m 114.9584,114.50557 c -0.69087,0 -1.59415,0.25797 -1.59415,0.25797 l -0.0938,0.0234 0,0.0938 0,3.58809 0,0.14853 0.14847,-0.0234 c 0,0 0.29477,-0.0498 0.6486,-0.10163 0.35383,-0.0518 0.76915,-0.10944 0.97681,-0.10944 0.28424,0 0.48319,-0.19405 0.60171,-0.3674 0.11853,-0.17336 0.17192,-0.34396 0.17192,-0.34396 l 0.008,-0.0156 0,-0.0234 0,-2.32953 0,-0.008 0,-0.008 c 0,0 -0.0231,-0.19019 -0.14066,-0.38304 -0.11761,-0.19284 -0.35487,-0.39867 -0.72674,-0.39867 z m 0,0.25015 c 0.28729,0 0.42932,0.13187 0.51575,0.2736 0.0865,0.14173 0.1016,0.28924 0.1016,0.28924 l 0,2.29043 c -0.005,0.0142 -0.0506,0.1341 -0.14066,0.26579 -0.0953,0.13933 -0.22136,0.25796 -0.39073,0.25796 -0.24594,0 -0.65828,0.0571 -1.01588,0.10944 -0.27668,0.0405 -0.41237,0.0619 -0.50794,0.0782 l 0,-3.33794 c 0.13765,-0.036 0.86549,-0.2267 1.43786,-0.2267 z"
     id="path129"
     inkscape:connector-curvature="0" /><path
     style="font-size:medium;font-style:normal;font-variant:normal;font-weight:normal;font-stretch:normal;text-indent:0;text-align:start;text-decoration:none;line-height:normal;letter-spacing:normal;word-spacing:normal;text-transform:none;direction:ltr;block-progression:tb;writing-mode:lr-tb;text-anchor:start;baseline-shift:baseline;color:#000000;fill:#000000;fill-opacity:1;fill-rule:nonzero;stroke:none;stroke-width:1;marker:none;visibility:visible;display:inline;overflow:visible;enable-background:accumulate;font-family:Sans;-inkscape-font-specification:Sans"
     d="m 134.04135,114.50557 c -0.37177,0 -0.60917,0.20583 -0.72675,0.39868 -0.11756,0.19284 -0.14066,0.38304 -0.14066,0.38304 l 0,0.008 0,0.008 0,2.32952 0,0.0234 0.008,0.0156 c 0,0 0.0534,0.1706 0.17192,0.34396 0.11853,0.17335 0.31747,0.36741 0.60171,0.36741 0.20753,0 0.62301,0.0576 0.97681,0.10944 0.3538,0.0518 0.6486,0.10162 0.6486,0.10162 l 0.14848,0.0234 0,-0.14853 0,-3.58809 0,-0.0938 -0.0938,-0.0234 c 0,0 -0.90329,-0.25797 -1.59415,-0.25797 z m 0,0.25015 c 0.57237,0 1.30021,0.19074 1.43786,0.2267 l 0,3.33794 c -0.0956,-0.0163 -0.23129,-0.0377 -0.50793,-0.0782 -0.35758,-0.0524 -0.77005,-0.10944 -1.01589,-0.10944 -0.16937,0 -0.29545,-0.11863 -0.39072,-0.25796 -0.0953,-0.13934 -0.14066,-0.28142 -0.14066,-0.28142 l 0,-2.2748 c 0,0 0.023,-0.14751 0.1094,-0.28924 0.0865,-0.14173 0.22079,-0.2736 0.50794,-0.2736 z"
     id="path131"
     inkscape:connector-curvature="0" /><path
     style="font-size:medium;font-style:normal;font-variant:normal;font-weight:normal;font-stretch:normal;text-indent:0;text-align:start;text-decoration:none;line-height:normal;letter-spacing:normal;word-spacing:normal;text-transform:none;direction:ltr;block-progression:tb;writing-mode:lr-tb;text-anchor:start;baseline-shift:baseline;color:#000000;fill:#000000;fill-opacity:1;fill-rule:nonzero;stroke:none;stroke-width:1;marker:none;visibility:visible;display:inline;overflow:visible;enable-background:accumulate;font-family:Sans;-inkscape-font-specification:Sans"
     d="m 115.31787,58.862824 c -0.64239,0.0412 -1.121,0.19676 -1.43786,0.34396 -0.31687,0.14719 -0.4845,0.28923 -0.4845,0.28923 l -0.0391,0.0391 0,0.0547 0,3.93986 0,0.21106 0.18754,-0.10162 c 0,0 1.03771,-0.558 1.87547,-0.5472 l 0.0156,0 0.0156,0 c 0.62444,-0.16064 0.85959,-0.76609 0.85959,-0.76609 l 0.008,-0.0234 0,-0.0234 0,-2.55622 0,-0.008 0,-0.008 c 0,0 -0.0272,-0.21259 -0.1641,-0.42213 -0.13693,-0.20954 -0.40113,-0.42213 -0.82834,-0.42213 l -0.008,0 z m 0.008,0.25015 c 0.003,0 0.005,-3e-5 0.008,0 0.3417,0.003 0.50729,0.14841 0.60953,0.30487 0.1032,0.15793 0.12503,0.3205 0.12503,0.3205 l 0,2.51714 c -0.0108,0.0263 -0.20243,0.45922 -0.67204,0.58629 -0.004,10e-4 -0.004,0.007 -0.008,0.008 -0.80093,0.001 -1.54387,0.36159 -1.7817,0.48467 l 0,-3.6819 c 0.0268,-0.0226 0.11728,-0.0991 0.3751,-0.21888 0.28983,-0.13464 0.7384,-0.28055 1.34409,-0.3205 z"
     id="path133"
     inkscape:connector-curvature="0" /><path
     style="font-size:medium;font-style:normal;font-variant:normal;font-weight:normal;font-stretch:normal;text-indent:0;text-align:start;text-decoration:none;line-height:normal;letter-spacing:normal;word-spacing:normal;text-transform:none;direction:ltr;block-progression:tb;writing-mode:lr-tb;text-anchor:start;baseline-shift:baseline;color:#000000;fill:#000000;fill-opacity:1;fill-rule:nonzero;stroke:none;stroke-width:1;marker:none;visibility:visible;display:inline;overflow:visible;enable-background:accumulate;font-family:Sans;-inkscape-font-specification:Sans"
     d="m 133.62719,58.862824 c -0.42722,0 -0.69141,0.21259 -0.82834,0.42213 -0.13692,0.20954 -0.1641,0.42213 -0.1641,0.42213 l 0,0.008 0,0.008 0,2.55622 0,0.0234 0.008,0.0234 c 0,0 0.22734,0.60545 0.85177,0.76609 l 0.0156,0 0.0156,0 c 0.83777,-0.0108 1.8833,0.5472 1.8833,0.5472 l 0.18754,0.10162 0,-0.21106 0,-3.93986 0,-0.0547 -0.0469,-0.039 c 0,0 -0.16763,-0.14204 -0.4845,-0.28923 -0.31686,-0.1472 -0.78767,-0.30278 -1.43005,-0.34396 l -0.008,0 z m -0.008,0.25015 c 0.003,1.9e-4 0.005,-2e-4 0.008,0 0.60565,0.04 1.04645,0.18587 1.33627,0.3205 0.26417,0.12272 0.36078,0.20773 0.38291,0.2267 l 0,3.6819 c -0.2306,-0.11975 -0.983,-0.4916 -1.78952,-0.49249 -0.004,-10e-4 -0.004,-0.007 -0.008,-0.008 -0.46961,-0.12707 -0.65341,-0.55999 -0.66423,-0.58629 l 0,-2.51713 c 0,0 0.014,-0.16258 0.11722,-0.32051 0.10226,-0.15648 0.27553,-0.30211 0.61734,-0.30487 z"
     id="path135"
     inkscape:connector-curvature="0" /><path
     style="font-size:medium;font-style:normal;font-variant:normal;font-weight:normal;font-stretch:normal;text-indent:0;text-align:start;text-decoration:none;line-height:normal;letter-spacing:normal;word-spacing:normal;text-transform:none;direction:ltr;block-progression:tb;writing-mode:lr-tb;text-anchor:start;baseline-shift:baseline;color:#000000;fill:#000000;fill-opacity:1;fill-rule:nonzero;stroke:none;stroke-width:1;marker:none;visibility:visible;display:inline;overflow:visible;enable-background:accumulate;font-family:Sans;-inkscape-font-specification:Sans"
     d="m 116.66977,15.391434 c -0.15631,-0.039 -0.30986,0.0143 -0.46105,0.0782 -0.30239,0.12769 -0.58609,0.34396 -0.58609,0.34396 l -0.0391,0.0313 -0.008,0.0469 -0.67987,3.19723 -0.12502,0.60974 0.35165,-0.50812 c 0,0 0.55393,-0.77442 1.21125,-0.89897 l 0.0156,0 0.008,-0.008 c 0.20767,-0.0874 0.35589,-0.24952 0.44541,-0.44558 0.0896,-0.19606 0.12841,-0.4272 0.14848,-0.66446 0.0402,-0.47452 -0.008,-0.9943 -0.008,-1.36019 0,-0.10971 -0.0228,-0.19793 -0.0704,-0.2736 -0.0476,-0.0757 -0.12504,-0.12905 -0.20319,-0.14853 z m -0.0547,0.24233 c 0.0271,0.007 0.0331,0.0171 0.0469,0.0391 0.0138,0.022 0.0313,0.062 0.0313,0.14071 0,0.38756 0.0452,0.90339 0.008,1.34455 -0.0187,0.22058 -0.054,0.42291 -0.12504,0.57848 -0.0711,0.15557 -0.16953,0.26031 -0.31257,0.3205 -0.45052,0.0938 -0.77823,0.36262 -1.01589,0.60974 l 0.55483,-2.67348 c 0.0313,-0.0231 0.2577,-0.19468 0.50013,-0.29705 0.12931,-0.0546 0.25851,-0.076 0.31258,-0.0625 z"
     id="path137"
     inkscape:connector-curvature="0" /><path
     style="font-size:medium;font-style:normal;font-variant:normal;font-weight:normal;font-stretch:normal;text-indent:0;text-align:start;text-decoration:none;line-height:normal;letter-spacing:normal;word-spacing:normal;text-transform:none;direction:ltr;block-progression:tb;writing-mode:lr-tb;text-anchor:start;baseline-shift:baseline;color:#000000;fill:#000000;fill-opacity:1;fill-rule:nonzero;stroke:none;stroke-width:1;marker:none;visibility:visible;display:inline;overflow:visible;enable-background:accumulate;font-family:Sans;-inkscape-font-specification:Sans"
     d="m 132.31435,15.391434 c -0.0782,0.0195 -0.15563,0.0728 -0.20318,0.14853 -0.0476,0.0757 -0.0625,0.16389 -0.0625,0.2736 0,0.3659 -0.0559,0.88567 -0.0156,1.36019 0.0201,0.23726 0.0668,0.4684 0.15629,0.66446 0.0896,0.19606 0.22994,0.35819 0.43761,0.44558 l 0.0156,0.008 0.008,0 c 0.65732,0.12455 1.21125,0.89897 1.21125,0.89897 l 0.35166,0.50812 -0.12503,-0.60974 -0.67204,-3.19723 -0.008,-0.0469 -0.0391,-0.0313 c 0,0 -0.28365,-0.21628 -0.58608,-0.34396 -0.15123,-0.0638 -0.31255,-0.11713 -0.46888,-0.0782 z m 0.0625,0.24233 c 0.0541,-0.0135 0.17542,0.008 0.30476,0.0625 0.24249,0.10237 0.46884,0.27394 0.50013,0.29705 l 0.56265,2.67348 c -0.23766,-0.24712 -0.57319,-0.51593 -1.0237,-0.60974 -0.14305,-0.0602 -0.23371,-0.16493 -0.30476,-0.3205 -0.0711,-0.15558 -0.11416,-0.3579 -0.13286,-0.57848 -0.0374,-0.44115 0.0156,-0.957 0.0156,-1.34455 0,-0.0786 0.01,-0.11869 0.0234,-0.14071 0.0138,-0.022 0.0277,-0.0323 0.0547,-0.0391 z"
     id="path139"
     inkscape:connector-curvature="0" /><path
     inkscape:connector-curvature="0"
     id="path4207"
     d="m 112.63426,98.307266 -0.008,0.132874 -0.22804,3.58704 -0.0143,0.11639 0.12411,0.0152 1.31079,0.16101 c 0.27402,0.0337 0.48385,-0.10967 0.61303,-0.24762 0.12918,-0.13793 0.1923,-0.28353 0.1923,-0.28353 l 0.01,-0.0145 0.002,-0.0155 0.27162,-2.211274 9.7e-4,-0.0079 9.8e-4,-0.0079 c 0,0 0.009,-0.223935 -0.0766,-0.466214 -0.0861,-0.242279 -0.29115,-0.524076 -0.66999,-0.570611 l -1.39612,-0.171491 -0.13185,-0.0162 z m 0.23322,0.280677 1.26425,0.155295 c 0.2754,0.03383 0.39401,0.211303 0.46222,0.403321 0.0669,0.188266 0.0648,0.363122 0.0647,0.370245 0,1.41e-4 -9.7e-4,0.0079 -9.7e-4,0.0079 l -0.26781,2.180246 c -0.007,0.0134 -0.0509,0.0979 -0.14208,0.1952 -0.0978,0.10435 -0.22276,0.19316 -0.39899,0.17152 l -1.19444,-0.14672 0.21305,-3.336859 z"
     style="color:#000000;font-style:normal;font-variant:normal;font-weight:normal;font-stretch:normal;font-size:medium;line-height:normal;font-family:Sans;-inkscape-font-specification:Sans;text-indent:0;text-align:start;text-decoration:none;text-decoration-line:none;letter-spacing:normal;word-spacing:normal;text-transform:none;direction:ltr;block-progression:tb;writing-mode:lr-tb;baseline-shift:baseline;text-anchor:start;display:inline;overflow:visible;visibility:visible;fill:#000000;fill-opacity:1;fill-rule:nonzero;stroke:none;stroke-width:1;marker:none;enable-background:accumulate" /><path
     style="color:#000000;font-style:normal;font-variant:normal;font-weight:normal;font-stretch:normal;font-size:medium;line-height:normal;font-family:Sans;-inkscape-font-specification:Sans;text-indent:0;text-align:start;text-decoration:none;text-decoration-line:none;letter-spacing:normal;word-spacing:normal;text-transform:none;direction:ltr;block-progression:tb;writing-mode:lr-tb;baseline-shift:baseline;text-anchor:start;display:inline;overflow:visible;visibility:visible;fill:#000000;fill-opacity:1;fill-rule:nonzero;stroke:none;stroke-width:1;marker:none;enable-background:accumulate"
     d="m 136.37575,98.307266 0.008,0.132874 0.22804,3.58704 0.0143,0.11639 -0.12411,0.0152 -1.31079,0.16101 c -0.27402,0.0337 -0.48385,-0.10967 -0.61303,-0.24762 -0.12918,-0.13793 -0.1923,-0.28353 -0.1923,-0.28353 l -0.01,-0.0145 -0.002,-0.0155 -0.27162,-2.211274 -9.7e-4,-0.0079 -9.8e-4,-0.0079 c 0,0 -0.009,-0.223935 0.0766,-0.466214 0.0861,-0.242279 0.29115,-0.524076 0.66999,-0.570611 l 1.39612,-0.171491 0.13185,-0.0162 z m -0.23322,0.280677 -1.26425,0.155295 c -0.2754,0.03383 -0.39401,0.211303 -0.46222,0.403321 -0.0669,0.188266 -0.0648,0.363122 -0.0647,0.370245 0,1.41e-4 9.7e-4,0.0079 9.7e-4,0.0079 l 0.26781,2.180246 c 0.007,0.0134 0.0509,0.0979 0.14208,0.1952 0.0978,0.10435 0.22276,0.19316 0.39899,0.17152 l 1.19444,-0.14672 -0.21305,-3.336859 z"
     id="path4218"
     inkscape:connector-curvature="0" /><path
     inkscape:connector-curvature="0"
     id="path4222"
     d="m 117.72054,147.32349 c -0.69087,0 -1.59415,0.25797 -1.59415,0.25797 l -0.0938,0.0234 0,0.0938 0,3.58809 0,0.14853 0.14847,-0.0234 c 0,0 0.29477,-0.0498 0.6486,-0.10163 0.35383,-0.0518 0.76915,-0.10944 0.97681,-0.10944 0.28424,0 0.48319,-0.19405 0.60171,-0.3674 0.11853,-0.17336 0.17192,-0.34396 0.17192,-0.34396 l 0.008,-0.0156 0,-0.0234 0,-2.32953 0,-0.008 0,-0.008 c 0,0 -0.0231,-0.19019 -0.14066,-0.38304 -0.11761,-0.19284 -0.35487,-0.39867 -0.72674,-0.39867 z m 0,0.25015 c 0.28729,0 0.42932,0.13187 0.51575,0.2736 0.0865,0.14173 0.1016,0.28924 0.1016,0.28924 l 0,2.29043 c -0.005,0.0142 -0.0506,0.1341 -0.14066,0.26579 -0.0953,0.13933 -0.22136,0.25796 -0.39073,0.25796 -0.24594,0 -0.65828,0.0571 -1.01588,0.10944 -0.27668,0.0405 -0.41237,0.0619 -0.50794,0.0782 l 0,-3.33794 c 0.13765,-0.036 0.86549,-0.2267 1.43786,-0.2267 z"
     style="color:#000000;font-style:normal;font-variant:normal;font-weight:normal;font-stretch:normal;font-size:medium;line-height:normal;font-family:Sans;-inkscape-font-specification:Sans;text-indent:0;text-align:start;text-decoration:none;text-decoration-line:none;letter-spacing:normal;word-spacing:normal;text-transform:none;direction:ltr;block-progression:tb;writing-mode:lr-tb;baseline-shift:baseline;text-anchor:start;display:inline;overflow:visible;visibility:visible;fill:#000000;fill-opacity:1;fill-rule:nonzero;stroke:none;stroke-width:1;marker:none;enable-background:accumulate" /><path
     inkscape:connector-curvature="0"
     id="path4224"
     d="m 131.27922,147.32349 c -0.37177,0 -0.60917,0.20583 -0.72675,0.39868 -0.11756,0.19284 -0.14066,0.38304 -0.14066,0.38304 l 0,0.008 0,0.008 0,2.32952 0,0.0234 0.008,0.0156 c 0,0 0.0534,0.1706 0.17192,0.34396 0.11853,0.17335 0.31747,0.36741 0.60171,0.36741 0.20753,0 0.62301,0.0576 0.97681,0.10944 0.3538,0.0518 0.6486,0.10162 0.6486,0.10162 l 0.14848,0.0234 0,-0.14853 0,-3.58809 0,-0.0938 -0.0938,-0.0234 c 0,0 -0.90329,-0.25797 -1.59415,-0.25797 z m 0,0.25015 c 0.57237,0 1.30021,0.19074 1.43786,0.2267 l 0,3.33794 c -0.0956,-0.0163 -0.23129,-0.0377 -0.50793,-0.0782 -0.35758,-0.0524 -0.77005,-0.10944 -1.01589,-0.10944 -0.16937,0 -0.29545,-0.11863 -0.39072,-0.25796 -0.0953,-0.13934 -0.14066,-0.28142 -0.14066,-0.28142 l 0,-2.2748 c 0,0 0.023,-0.14751 0.1094,-0.28924 0.0865,-0.14173 0.22079,-0.2736 0.50794,-0.2736 z"
     style="color:#000000;font-style:normal;font-variant:normal;font-weight:normal;font-stretch:normal;font-size:medium;line-height:normal;font-family:Sans;-inkscape-font-specification:Sans;text-indent:0;text-align:start;text-decoration:none;text-decoration-line:none;letter-spacing:normal;word-spacing:normal;text-transform:none;direction:ltr;block-progression:tb;writing-mode:lr-tb;baseline-shift:baseline;text-anchor:start;display:inline;overflow:visible;visibility:visible;fill:#000000;fill-opacity:1;fill-rule:nonzero;stroke:none;stroke-width:1;marker:none;enable-background:accumulate" /><path
     inkscape:connector-curvature="0"
     id="path4226"
     d="m 134.24139,132.32739 c -0.3818,0 -0.61958,0.25468 -0.73457,0.48467 -0.11499,0.22998 -0.13284,0.45339 -0.13284,0.45339 l 0,0.008 0,0.008 0,2.2279 0,0.0156 0.008,0.0156 c 0,0 0.0448,0.15221 0.15628,0.30487 0.11146,0.15266 0.30221,0.3205 0.57827,0.3205 l 1.32065,0 0.12503,0 0,-0.11725 0.211,-3.58809 0.008,-0.1329 -0.13284,0 -1.40661,0 z m 0,0.25015 1.27376,0 -0.18755,3.33794 -1.21125,0 c -0.17754,0 -0.29076,-0.10338 -0.37509,-0.21888 -0.0787,-0.10772 -0.11261,-0.19701 -0.11722,-0.21107 l 0,-2.19663 0,-0.008 c 7.5e-4,-0.007 0.0201,-0.18089 0.10941,-0.35959 0.0912,-0.18226 0.23033,-0.34396 0.50794,-0.34396 z"
     style="color:#000000;font-style:normal;font-variant:normal;font-weight:normal;font-stretch:normal;font-size:medium;line-height:normal;font-family:Sans;-inkscape-font-specification:Sans;text-indent:0;text-align:start;text-decoration:none;text-decoration-line:none;letter-spacing:normal;word-spacing:normal;text-transform:none;direction:ltr;block-progression:tb;writing-mode:lr-tb;baseline-shift:baseline;text-anchor:start;display:inline;overflow:visible;visibility:visible;fill:#000000;fill-opacity:1;fill-rule:nonzero;stroke:none;stroke-width:1;marker:none;enable-background:accumulate" /><path
     inkscape:connector-curvature="0"
     id="path4228"
     d="m 113.1858,132.32739 0.008,0.13289 0.21098,3.58809 0,0.11726 0.12504,0 1.32064,0 c 0.27608,0 0.46687,-0.16784 0.57827,-0.32051 0.1114,-0.15266 0.1563,-0.30487 0.1563,-0.30487 l 0.008,-0.0156 0,-0.0156 0,-2.2279 0,-0.008 0,-0.008 c 0,0 -0.0179,-0.22342 -0.13285,-0.4534 -0.11495,-0.22998 -0.35287,-0.48467 -0.73456,-0.48467 l -1.40661,0 -0.13284,0 z m 0.2657,0.25015 1.27376,0 c 0.27747,0 0.41683,0.16169 0.50794,0.34396 0.0894,0.1787 0.10861,0.35251 0.1094,0.35959 10e-6,1.4e-4 0,0.008 0,0.008 l 0,2.19663 c -0.005,0.0141 -0.0386,0.10336 -0.11722,0.21107 -0.0843,0.11549 -0.19755,0.21888 -0.3751,0.21888 l -1.20342,0 -0.19536,-3.33794 z"
     style="color:#000000;font-style:normal;font-variant:normal;font-weight:normal;font-stretch:normal;font-size:medium;line-height:normal;font-family:Sans;-inkscape-font-specification:Sans;text-indent:0;text-align:start;text-decoration:none;text-decoration-line:none;letter-spacing:normal;word-spacing:normal;text-transform:none;direction:ltr;block-progression:tb;writing-mode:lr-tb;baseline-shift:baseline;text-anchor:start;display:inline;overflow:visible;visibility:visible;fill:#000000;fill-opacity:1;fill-rule:nonzero;stroke:none;stroke-width:1;marker:none;enable-background:accumulate" /><path
     style="color:#000000;font-style:normal;font-variant:normal;font-weight:normal;font-stretch:normal;font-size:medium;line-height:normal;font-family:Sans;-inkscape-font-specification:Sans;text-indent:0;text-align:start;text-decoration:none;text-decoration-line:none;letter-spacing:normal;word-spacing:normal;text-transform:none;direction:ltr;block-progression:tb;writing-mode:lr-tb;baseline-shift:baseline;text-anchor:start;display:inline;overflow:visible;visibility:visible;fill:#000000;fill-opacity:1;fill-rule:nonzero;stroke:none;stroke-width:1;marker:none;enable-background:accumulate"
     d="m 133.93709,44.271246 c -0.3818,0 -0.61958,0.25468 -0.73457,0.48467 -0.11499,0.22998 -0.13284,0.45339 -0.13284,0.45339 l 0,0.008 0,0.008 0,2.2279 0,0.0156 0.008,0.0156 c 0,0 0.0448,0.15221 0.15628,0.30487 0.11146,0.15266 0.30221,0.3205 0.57827,0.3205 l 1.53132,0 0.12503,0 0,-0.11725 3.3e-4,-3.58809 0.008,-0.1329 -0.13284,0 -1.40661,0 z m 0,0.25015 1.27376,0 0.0231,3.33794 -1.42192,0 c -0.17754,0 -0.29076,-0.10338 -0.37509,-0.21888 -0.0787,-0.10772 -0.11261,-0.19701 -0.11722,-0.21107 l 0,-2.19663 0,-0.008 c 7.5e-4,-0.007 0.0201,-0.18089 0.10941,-0.35959 0.0912,-0.18226 0.23033,-0.34396 0.50794,-0.34396 z"
     id="path4230"
     inkscape:connector-curvature="0"
     sodipodi:nodetypes="cccccccccscccccccccccsccccccc" /><path
     sodipodi:nodetypes="cccccccccscccccccccccsccccccc"
     inkscape:connector-curvature="0"
     id="path4234"
     d="m 114.99365,44.271246 c 0.3818,0 0.61958,0.25468 0.73457,0.48467 0.11499,0.22998 0.13284,0.45339 0.13284,0.45339 l 0,0.008 0,0.008 0,2.2279 0,0.0156 -0.008,0.0156 c 0,0 -0.0448,0.15221 -0.15628,0.30487 -0.11146,0.15266 -0.30221,0.3205 -0.57827,0.3205 l -1.53132,0 -0.12503,0 0,-0.11725 -3.3e-4,-3.58809 -0.008,-0.1329 0.13284,0 1.40661,0 z m 0,0.25015 -1.27376,0 -0.0231,3.33794 1.42192,0 c 0.17754,0 0.29076,-0.10338 0.37509,-0.21888 0.0787,-0.10772 0.11261,-0.19701 0.11722,-0.21107 l 0,-2.19663 0,-0.008 c -7.5e-4,-0.007 -0.0201,-0.18089 -0.10941,-0.35959 -0.0912,-0.18226 -0.23033,-0.34396 -0.50794,-0.34396 z"
     style="color:#000000;font-style:normal;font-variant:normal;font-weight:normal;font-stretch:normal;font-size:medium;line-height:normal;font-family:Sans;-inkscape-font-specification:Sans;text-indent:0;text-align:start;text-decoration:none;text-decoration-line:none;letter-spacing:normal;word-spacing:normal;text-transform:none;direction:ltr;block-progression:tb;writing-mode:lr-tb;baseline-shift:baseline;text-anchor:start;display:inline;overflow:visible;visibility:visible;fill:#000000;fill-opacity:1;fill-rule:nonzero;stroke:none;stroke-width:1;marker:none;enable-background:accumulate" /></svg>