<?xml version="1.0" encoding="UTF-8" standalone="no"?>
<!-- Generator: Adobe Illustrator 15.1.0, SVG Export Plug-In . SVG Version: 6.00 Build 0)  -->

<svg
   xmlns:dc="http://purl.org/dc/elements/1.1/"
   xmlns:cc="http://creativecommons.org/ns#"
   xmlns:rdf="http://www.w3.org/1999/02/22-rdf-syntax-ns#"
   xmlns:svg="http://www.w3.org/2000/svg"
   xmlns="http://www.w3.org/2000/svg"
   xmlns:xlink="http://www.w3.org/1999/xlink"
   xmlns:sodipodi="http://sodipodi.sourceforge.net/DTD/sodipodi-0.dtd"
   xmlns:inkscape="http://www.inkscape.org/namespaces/inkscape"
   version="1.1"
   x="0px"
   y="0px"
   width="23"
   height="91"
   viewBox="0 0 23.000001 91.000001"
   enable-background="new 0 0 1000 1000"
   xml:space="preserve"
   id="svg2"
   inkscape:version="0.91 r13725"
   sodipodi:docname="777-CargoxxA3_fuselage_3.svg"><metadata
     id="metadata122"><rdf:RDF><cc:Work
         rdf:about=""><dc:format>image/svg+xml</dc:format><dc:type
           rdf:resource="http://purl.org/dc/dcmitype/StillImage" /><dc:title></dc:title></cc:Work></rdf:RDF></metadata><defs
     id="defs120"><linearGradient
       inkscape:collect="always"
       id="linearGradient3900"><stop
         style="stop-color:#765337;stop-opacity:1"
         offset="0"
         id="stop3902" /><stop
         style="stop-color:#c19069;stop-opacity:1"
         offset="1"
         id="stop3904" /></linearGradient><linearGradient
       inkscape:collect="always"
       id="linearGradient3892"><stop
         style="stop-color:#765337;stop-opacity:1"
         offset="0"
         id="stop3894" /><stop
         style="stop-color:#c19069;stop-opacity:1"
         offset="1"
         id="stop3896" /></linearGradient><linearGradient
       id="linearGradient3880"><stop
         style="stop-color:#765337;stop-opacity:1"
         offset="0"
         id="stop3882" /><stop
         id="stop3890"
         offset="0.34999999"
         style="stop-color:#c19069;stop-opacity:1" /><stop
         id="stop3888"
         offset="0.61000001"
         style="stop-color:#c19069;stop-opacity:1" /><stop
         style="stop-color:#765337;stop-opacity:1"
         offset="1"
         id="stop3884" /></linearGradient><linearGradient
       inkscape:collect="always"
       xlink:href="#linearGradient3880"
       id="linearGradient3886"
       x1="456.966"
       y1="459.198"
       x2="537.76099"
       y2="459.198"
       gradientUnits="userSpaceOnUse" /><linearGradient
       inkscape:collect="always"
       xlink:href="#linearGradient3892"
       id="linearGradient3898"
       x1="535.79999"
       y1="480.41699"
       x2="603.63165"
       y2="480.41699"
       gradientUnits="userSpaceOnUse" /><linearGradient
       inkscape:collect="always"
       xlink:href="#linearGradient3900"
       id="linearGradient3906"
       x1="459.46045"
       y1="481.01501"
       x2="402.87878"
       y2="481.01501"
       gradientUnits="userSpaceOnUse" /><linearGradient
       inkscape:collect="always"
       xlink:href="#linearGradient3892"
       id="linearGradient3910"
       gradientUnits="userSpaceOnUse"
       x1="535.79999"
       y1="480.41699"
       x2="603.63165"
       y2="480.41699" /><linearGradient
       inkscape:collect="always"
       xlink:href="#linearGradient3892"
       id="linearGradient3912"
       gradientUnits="userSpaceOnUse"
       x1="535.79999"
       y1="480.41699"
       x2="603.63165"
       y2="480.41699" /><linearGradient
       inkscape:collect="always"
       xlink:href="#linearGradient3892"
       id="linearGradient3914"
       gradientUnits="userSpaceOnUse"
       x1="535.79999"
       y1="480.41699"
       x2="603.63165"
       y2="480.41699" /><linearGradient
       inkscape:collect="always"
       xlink:href="#linearGradient3892"
       id="linearGradient3916"
       gradientUnits="userSpaceOnUse"
       x1="535.79999"
       y1="480.41699"
       x2="603.63165"
       y2="480.41699" /><linearGradient
       inkscape:collect="always"
       xlink:href="#linearGradient3892"
       id="linearGradient3918"
       gradientUnits="userSpaceOnUse"
       x1="535.79999"
       y1="480.41699"
       x2="603.63165"
       y2="480.41699" /><linearGradient
       inkscape:collect="always"
       xlink:href="#linearGradient3892"
       id="linearGradient3920"
       gradientUnits="userSpaceOnUse"
       x1="535.79999"
       y1="480.41699"
       x2="603.63165"
       y2="480.41699" /><linearGradient
       inkscape:collect="always"
       xlink:href="#linearGradient3892"
       id="linearGradient3922"
       gradientUnits="userSpaceOnUse"
       x1="535.79999"
       y1="480.41699"
       x2="603.63165"
       y2="480.41699" /><linearGradient
       inkscape:collect="always"
       xlink:href="#linearGradient3892"
       id="linearGradient3924"
       gradientUnits="userSpaceOnUse"
       x1="535.79999"
       y1="480.41699"
       x2="603.63165"
       y2="480.41699" /><linearGradient
       inkscape:collect="always"
       xlink:href="#linearGradient3892"
       id="linearGradient3926"
       gradientUnits="userSpaceOnUse"
       x1="535.79999"
       y1="480.41699"
       x2="603.63165"
       y2="480.41699" /><linearGradient
       inkscape:collect="always"
       xlink:href="#linearGradient3892"
       id="linearGradient3928"
       gradientUnits="userSpaceOnUse"
       x1="535.79999"
       y1="480.41699"
       x2="603.63165"
       y2="480.41699" /><linearGradient
       inkscape:collect="always"
       xlink:href="#linearGradient3892"
       id="linearGradient3930"
       gradientUnits="userSpaceOnUse"
       x1="535.79999"
       y1="480.41699"
       x2="603.63165"
       y2="480.41699" /><linearGradient
       inkscape:collect="always"
       xlink:href="#linearGradient3892"
       id="linearGradient3932"
       gradientUnits="userSpaceOnUse"
       x1="535.79999"
       y1="480.41699"
       x2="603.63165"
       y2="480.41699" /><linearGradient
       inkscape:collect="always"
       xlink:href="#linearGradient3880"
       id="linearGradient3861"
       gradientUnits="userSpaceOnUse"
       x1="456.966"
       y1="459.198"
       x2="537.76099"
       y2="459.198"
       gradientTransform="matrix(0.25798773,0,0,0.21084574,-117.26731,-119.42763)" /><linearGradient
       inkscape:collect="always"
       xlink:href="#linearGradient3892"
       id="linearGradient4218"
       gradientUnits="userSpaceOnUse"
       x1="535.79999"
       y1="480.41699"
       x2="603.63165"
       y2="480.41699" /><linearGradient
       inkscape:collect="always"
       xlink:href="#linearGradient3900"
       id="linearGradient4220"
       gradientUnits="userSpaceOnUse"
       x1="459.46045"
       y1="481.01501"
       x2="402.87878"
       y2="481.01501" /><linearGradient
       inkscape:collect="always"
       xlink:href="#linearGradient3900-2"
       id="linearGradient4220-7"
       gradientUnits="userSpaceOnUse"
       x1="459.46045"
       y1="481.01501"
       x2="402.87878"
       y2="481.01501" /><linearGradient
       inkscape:collect="always"
       id="linearGradient3900-2"><stop
         style="stop-color:#765337;stop-opacity:1"
         offset="0"
         id="stop3902-7" /><stop
         style="stop-color:#c19069;stop-opacity:1"
         offset="1"
         id="stop3904-2" /></linearGradient></defs><sodipodi:namedview
     pagecolor="#ffffff"
     bordercolor="#666666"
     borderopacity="1"
     objecttolerance="10"
     gridtolerance="10"
     guidetolerance="10"
     inkscape:pageopacity="0"
     inkscape:pageshadow="2"
     inkscape:window-width="3840"
     inkscape:window-height="2115"
     id="namedview118"
     showgrid="true"
     inkscape:zoom="6.1412641"
     inkscape:cx="-62.075708"
     inkscape:cy="71.8643"
     inkscape:window-x="-13"
     inkscape:window-y="-13"
     inkscape:window-maximized="1"
     inkscape:current-layer="svg2"
     fit-margin-top="1"
     fit-margin-left="1"
     fit-margin-right="1"
     fit-margin-bottom="1"
     inkscape:snap-bbox="true"
     inkscape:snap-bbox-edge-midpoints="true"
     inkscape:snap-global="true"
     inkscape:snap-nodes="false"><inkscape:grid
       type="xygrid"
       id="grid4154"
       empspacing="128"
       visible="true"
       enabled="true"
       snapvisiblegridlinesonly="true"
       originx="-116.94594"
       originy="-22.600339" /></sodipodi:namedview><path
     style="fill:url(#linearGradient3861);fill-opacity:1;stroke:none;stroke-width:0.23322867;stroke-miterlimit:10"
     d="M 1.115235,0.77473448 C 1.168905,13.567964 1.25,32.503964 1.25,33.786444 c 0,5.5522 7.695019,39.79297 9.738279,39.79297 l 0.11524,0 c 2.04326,0 9.73828,-34.24077 9.73828,-39.79297 0,-1.28248 0.0831,-20.21849 0.13672,-33.01170952 l -19.863284,0 z"
     id="path5"
     inkscape:connector-curvature="0" /><path
     style="color:#000000;font-style:normal;font-variant:normal;font-weight:normal;font-stretch:normal;font-size:medium;line-height:normal;font-family:sans-serif;text-indent:0;text-align:start;text-decoration:none;text-decoration-line:none;text-decoration-style:solid;text-decoration-color:#000000;letter-spacing:normal;word-spacing:normal;text-transform:none;direction:ltr;block-progression:tb;writing-mode:lr-tb;baseline-shift:baseline;text-anchor:start;white-space:normal;clip-rule:nonzero;display:inline;overflow:visible;visibility:visible;opacity:1;isolation:auto;mix-blend-mode:normal;color-interpolation:sRGB;color-interpolation-filters:linearRGB;solid-color:#000000;solid-opacity:1;fill:#000000;fill-opacity:1;fill-rule:nonzero;stroke:none;stroke-width:0.23322867;stroke-linecap:butt;stroke-linejoin:miter;stroke-miterlimit:10;stroke-dasharray:none;stroke-dashoffset:0;stroke-opacity:1;color-rendering:auto;image-rendering:auto;shape-rendering:auto;text-rendering:auto;enable-background:accumulate"
     d="M 1,0.77473448 C 1.05377,13.568724 1.134766,32.506114 1.134766,33.786444 c 0,1.41499 0.482579,4.58908 1.236328,8.58204 0.753749,3.99295 1.779185,8.79523 2.869145,13.42382 1.08996,4.6286 2.24384,9.08373 3.2539,12.38477 0.50503,1.65052 0.97373,3.01047 1.38281,3.96484 0.20455,0.47719 0.39262,0.85242 0.56836,1.11524 0.0879,0.13141 0.1732,0.23505 0.25977,0.31054 0.0866,0.0755 0.17864,0.12696 0.2832,0.12696 l 0.11524,0 c 0.10456,0 0.19858,-0.0515 0.28515,-0.12696 0.0866,-0.0755 0.16994,-0.17913 0.25782,-0.31054 0.17574,-0.26282 0.36577,-0.63805 0.57031,-1.11524 0.40908,-0.95437 0.87778,-2.31432 1.38281,-3.96484 1.01006,-3.30104 2.16394,-7.75617 3.25391,-12.38477 1.08996,-4.62859 2.11539,-9.43087 2.86914,-13.42382 0.75375,-3.99296 1.23633,-7.16705 1.23633,-8.58204 0,-1.28033 0.0829,-20.21775 0.13671,-33.01170952 l -0.23437,0 c -0.0536,12.79251952 -0.13477,31.72707952 -0.13477,33.01170952 0,1.36112 -0.4795,4.55053 -1.23242,8.53907 -0.75291,3.98853 -1.77994,8.78676 -2.86914,13.41211 -1.0892,4.62534 -2.24063,9.07868 -3.24805,12.37109 -0.50371,1.6462 -0.97216,3.00161 -1.375,3.94141 -0.20141,0.46989 -0.38737,0.83668 -0.54882,1.07812 -0.0807,0.12072 -0.15636,0.20926 -0.21875,0.26367 -0.0624,0.0544 -0.10772,0.0703 -0.13086,0.0703 l -0.11524,0 c -0.0231,0 -0.0685,-0.0159 -0.13086,-0.0703 -0.0624,-0.0544 -0.13802,-0.14295 -0.21875,-0.26367 -0.16145,-0.24144 -0.34741,-0.60823 -0.54883,-1.07812 -0.40282,-0.9398 -0.86933,-2.29521 -1.37304,-3.94141 -1.00742,-3.29241 -2.16081,-7.74575 -3.25,-12.37109 -1.0892,-4.62535 -2.114275,-9.42358 -2.867189,-13.41211 -0.752915,-3.98854 -1.232422,-7.17795 -1.232422,-8.53907 0,-1.28463 -0.08101,-20.21916 -0.134766,-33.01170952 l -0.232422,0 z"
     id="path5462"
     inkscape:connector-curvature="0" /><path
     inkscape:connector-curvature="0"
     style="fill:#c19069;fill-opacity:1;stroke:#000000;stroke-width:0.23322867;stroke-miterlimit:10"
     id="path32"
     d="m 11.046239,41.131404 c 0,0 -1.84126,1.99861 -1.84126,4.37062 0,2.37201 1.84126,44.49288 1.84126,44.49288 0,0 1.84126,-42.12087 1.84126,-44.49288 0,-2.37201 -1.84126,-4.37062 -1.84126,-4.37062 z"
     stroke-miterlimit="10" /><line
     style="fill:#c19069;fill-opacity:1;stroke:#000000;stroke-width:0.23322867;stroke-miterlimit:10"
     id="line34"
     y2="89.994896"
     x2="11.046242"
     y1="41.131401"
     x1="11.046242"
     stroke-miterlimit="10" /><polygon
     style="fill:#c19069;fill-opacity:1;stroke:#000000;stroke-miterlimit:10"
     id="polygon36"
     points="497.363,915.25 494.479,911.595 493.75,791 497.363,788.75 "
     stroke-miterlimit="10"
     transform="matrix(0.25798773,0,0,0.21084574,-117.26731,-119.42763)" /><polygon
     style="fill:#c19069;fill-opacity:1;stroke:#000000;stroke-miterlimit:10"
     id="polygon38"
     points="497.363,915.25 500.247,911.595 500.977,791 497.363,788.75 "
     stroke-miterlimit="10"
     transform="matrix(0.25798773,0,0,0.21084574,-117.26731,-119.42763)" /></svg>