<?xml version="1.0" standalone="no"?><!-- Generator: Gravit.io --><svg xmlns="http://www.w3.org/2000/svg" xmlns:xlink="http://www.w3.org/1999/xlink" style="isolation:isolate" viewBox="0 0 24 24.000000000000007" width="24" height="24.000000000000007"><path d=" M 0.032017305810520647 21.207743188069905 L 2.4871150118947307 23.961584033247824 L 19.582048833647914 11.828484822508027 L 14.42347619046107 11.839284114600686 L 11.361768999666765 8.378084178290855 L 0.032017305810520647 21.207743188069905 Z " fill="rgb(255,255,255)"/><path d=" M 14.769770513696692 16.41281968107434 L 17.795654955020993 14.269143823493291 L 23.49874162040801 20.230400054050794 C 23.777137730686214 20.5213981658192 24.182253890084795 21.14841108709372 23.680247460894243 21.709914463571675 L 21.87474693080109 23.729398224736595 C 21.55456127536515 24.08753094144592 20.97975067274767 24.140638919658915 20.5277864400496 23.578206711336044 L 14.769770513696692 16.41281968107434 Z " fill="rgb(255,255,255)"/><path d=" M 9.389349218315598 9.21064125749786 L 10.80788473294016 7.629924368241687 L 8.221249898432905 4.7467940860936 C 6.4900648715290155 2.4044030416783864 9.849604944118175 1.1076817898354134 12.023770767232428 1.3223307151199686 L 12.486484022305861 0.7686987533850198 C 10.98896604338063 0.21070207314747158 7.3887461287630645 -0.7478456658768975 5.857935294305239 1.0027985567848585 L 3.18041148838293 4.0164806643969415 L 3.1005114485085667 4.911397804747827 L 2.066787365678307 6.0616179383032724 L 1.5342119737858924 5.47035195871313 L 0 7.7139238378666235 L 1.7697908066739054 9.676456124138292 L 3.748984522687053 7.943013724834108 L 3.2423653009072573 7.347381158001317 L 3.816534279479312 6.698294634960824 C 4.848942795066863 5.5311774678092505 6.486149971062478 5.888484125464672 7.180488246802449 6.683021917810635 L 9.389349218315598 9.21064125749786 Z " fill="rgb(255,255,255)"/><path d=" M 17.13053268866196 1.502896891641933 C 17.032531754210208 1.5100925693502307 16.937981088676388 1.5571828406674517 16.853020491090323 1.65408816769193 L 12.096865379117972 7.07618457023718 C 11.884800513824116 7.318062746961827 11.923607291004526 7.723412638419312 12.101876317343613 7.924745643659331 L 14.748271069242552 10.91266303188254 L 20.848520779224213 10.937231662699736 L 23.847656888288185 7.569446022310717 C 24.00238150348384 7.3957158582869145 24.04456926426314 7.192681049555905 23.949634380141905 7.042166539059694 C 23.472466387901942 6.099958843080224 22.713646575240528 5.381469713437339 21.908416096596806 4.827214625792064 C 20.727084610495396 4.014081762321149 19.74425066448641 3.8527888465812623 17.981453685880982 3.3134121592771115 C 17.724804067709666 3.234882907930675 17.620717222809564 2.9554866496037215 17.839354395488478 2.5253275329814766 C 18.023529470387086 2.162970134597963 17.55519780580591 1.471729124182084 17.130527789700015 1.5028968916419316 L 17.13053268866196 1.502896891641933 Z  M 16.130820419023404 5.125817291160979 C 18.460218039865733 5.100934329089961 20.278555949829403 6.417440569515091 21.35005340880879 8.264925955434185 L 19.964165066531493 9.808966803746099 L 14.567248126434482 6.591562757541583 L 15.903460994514028 5.133376906389433 C 15.979661548277416 5.129754145726839 16.05567874089345 5.126620327210888 16.130820419023404 5.125817291160979 Z " fill-rule="evenodd" fill="rgb(255,255,255)"/></svg>