<?xml version="1.0" standalone="no"?><!-- Generator: Gravit.io --><svg xmlns="http://www.w3.org/2000/svg" xmlns:xlink="http://www.w3.org/1999/xlink" style="isolation:isolate" width="24" height="24"><path d=" M 9.87256552659556 10.88067246169 L 2.9918930649055593 4 L 4.991893064905559 2 L 21.99189306490556 19 L 19.99189306490556 21 L 12.58131432385556 13.58942125895 Q 12.049626216467132 15.578141448729736 11.99189306490556 18 Q 11.908537635770918 21.496692167051236 17.99189306490556 23 L 13.99189306490556 23 L 5.991893064905559 23 L 0.9918930649055593 23 Q 6.300704896540159 20.717826508824743 6.991893064905559 18 C 7.711430067670959 15.170702813358519 8.693963962782945 12.82404338587804 9.87256552659556 10.88067246169 L 9.87256552659556 10.88067246169 Z  M 14.49391135022556 9.50201828532 Q 16.22706010553665 7.152935960155619 19.15739647994556 5.89794048303 Q 20.607075597850525 7.626956931669474 22.99189306490556 9 Q 23.024320805283935 9.014648822065903 22.99189306490556 1 L 16.99189306490556 1 Q 17.181658188200032 2.492404894319194 17.81148092981556 3.81729575388 C 15.90544332514062 4.665053099210098 14.096925922449982 5.851137478234325 12.485550434985559 7.49365737008 L 14.49391135022556 9.50201828532 L 14.49391135022556 9.50201828532 Z " fill-rule="evenodd" fill="rgb(255,255,255)" fill-opacity="100" stroke-width="0" stroke="rgb(0,0,0)" stroke-opacity="100" stroke-linejoin="miter" stroke-linecap="square"/></svg>