<?xml version="1.0" encoding="UTF-8" standalone="no"?>
<!-- Created with Inkscape (http://www.inkscape.org/) -->

<svg
   xmlns:dc="http://purl.org/dc/elements/1.1/"
   xmlns:cc="http://creativecommons.org/ns#"
   xmlns:rdf="http://www.w3.org/1999/02/22-rdf-syntax-ns#"
   xmlns:svg="http://www.w3.org/2000/svg"
   xmlns="http://www.w3.org/2000/svg"
   xmlns:xlink="http://www.w3.org/1999/xlink"
   xmlns:sodipodi="http://sodipodi.sourceforge.net/DTD/sodipodi-0.dtd"
   xmlns:inkscape="http://www.inkscape.org/namespaces/inkscape"
   width="870"
   height="870"
   id="svg4365"
   version="1.1"
   inkscape:version="0.48.4 r9939"
   sodipodi:docname="icon.svg">
  <defs
     id="defs4367">
    <linearGradient
       inkscape:collect="always"
       id="linearGradient4949">
      <stop
         style="stop-color:#ffffff;stop-opacity:1;"
         offset="0"
         id="stop4951" />
      <stop
         style="stop-color:#ffffff;stop-opacity:0;"
         offset="1"
         id="stop4953" />
    </linearGradient>
    <linearGradient
       inkscape:collect="always"
       id="linearGradient4936">
      <stop
         style="stop-color:#ffffff;stop-opacity:1;"
         offset="0"
         id="stop4938" />
      <stop
         style="stop-color:#ffffff;stop-opacity:0;"
         offset="1"
         id="stop4940" />
    </linearGradient>
    <linearGradient
       inkscape:collect="always"
       id="linearGradient4925">
      <stop
         style="stop-color:#ff0000;stop-opacity:1;"
         offset="0"
         id="stop4927" />
      <stop
         style="stop-color:#000000;stop-opacity:1"
         offset="1"
         id="stop4929" />
    </linearGradient>
    <linearGradient
       inkscape:collect="always"
       id="linearGradient4399">
      <stop
         style="stop-color:#808080;stop-opacity:1"
         offset="0"
         id="stop4401" />
      <stop
         style="stop-color:#000000;stop-opacity:1"
         offset="1"
         id="stop4403" />
    </linearGradient>
    <linearGradient
       inkscape:collect="always"
       id="linearGradient4391">
      <stop
         style="stop-color:#808080;stop-opacity:1"
         offset="0"
         id="stop4393" />
      <stop
         style="stop-color:#000000;stop-opacity:1"
         offset="1"
         id="stop4395" />
    </linearGradient>
    <linearGradient
       inkscape:collect="always"
       xlink:href="#linearGradient4391"
       id="linearGradient4397"
       x1="238.396"
       y1="1.8034887"
       x2="246.47722"
       y2="921.0423"
       gradientUnits="userSpaceOnUse"
       gradientTransform="translate(-1258.6501,-26.263966)" />
    <linearGradient
       inkscape:collect="always"
       xlink:href="#linearGradient4399"
       id="linearGradient4405"
       x1="303.04578"
       y1="632.13867"
       x2="301.02545"
       y2="-285.07983"
       gradientUnits="userSpaceOnUse" />
    <radialGradient
       inkscape:collect="always"
       xlink:href="#linearGradient4925"
       id="radialGradient4931"
       cx="765.69562"
       cy="345.25534"
       fx="765.69562"
       fy="345.25534"
       r="430.32501"
       gradientUnits="userSpaceOnUse"
       gradientTransform="matrix(2.2346169,-0.01695264,0.01629487,2.1455989,-950.96663,-382.5436)" />
    <linearGradient
       inkscape:collect="always"
       xlink:href="#linearGradient4936"
       id="linearGradient4942"
       x1="763.67535"
       y1="472.83786"
       x2="763.67535"
       y2="-200.22702"
       gradientUnits="userSpaceOnUse" />
    <linearGradient
       inkscape:collect="always"
       xlink:href="#linearGradient4949"
       id="linearGradient4955"
       x1="763.67535"
       y1="234.13858"
       x2="810.14233"
       y2="13.92532"
       gradientUnits="userSpaceOnUse" />
  </defs>
  <sodipodi:namedview
     id="base"
     pagecolor="#ffffff"
     bordercolor="#666666"
     borderopacity="1.0"
     inkscape:pageopacity="0.0"
     inkscape:pageshadow="2"
     inkscape:zoom="0.49497475"
     inkscape:cx="-36.607444"
     inkscape:cy="683.75674"
     inkscape:document-units="px"
     inkscape:current-layer="layer1"
     showgrid="false"
     inkscape:window-width="1440"
     inkscape:window-height="828"
     inkscape:window-x="0"
     inkscape:window-y="0"
     inkscape:window-maximized="1"
     fit-margin-top="5"
     fit-margin-left="5"
     fit-margin-right="5"
     fit-margin-bottom="5" />
  <metadata
     id="metadata4370">
    <rdf:RDF>
      <cc:Work
         rdf:about="">
        <dc:format>image/svg+xml</dc:format>
        <dc:type
           rdf:resource="http://purl.org/dc/dcmitype/StillImage" />
        <dc:title />
      </cc:Work>
    </rdf:RDF>
  </metadata>
  <g
     inkscape:label="Layer 1"
     inkscape:groupmode="layer"
     id="layer1"
     transform="translate(-338.45187,109.62265)">
    <rect
       style="fill:url(#radialGradient4931);fill-opacity:1;stroke:none"
       id="rect4923"
       width="860.65002"
       height="860.65002"
       x="343.45187"
       y="-105.27267"
       ry="188.61543" />
    <g
       id="layer1-8"
       inkscape:label="Layer 1"
       transform="matrix(0.4047253,-0.10043904,0.10043904,0.4047253,621.72308,-139.66456)"
       style="fill:#ff0000;stroke:none">
      <path
         sodipodi:nodetypes="aaacasaaacszaacccccccccccccccccccccccccccaczzcczszcaazza"
         inkscape:connector-curvature="0"
         id="path3363"
         d="m 253.88621,981.44847 c -12.52413,-7.7207 -23.87945,-17.49392 -33.89704,-28.2694 -11.36442,-12.22421 -20.96207,-26.16273 -29.18545,-40.6871 -9.90067,-17.48685 -19.71429,-35.24765 -23.9255,-55.33433 -3.02325,-14.93429 -6.67374,-34.54937 -5.22408,-51.8644 2.04336,-24.40629 9.76822,-52.83215 19.41698,-70.86297 9.64877,-18.03082 20.6489,-29.5573 30.33612,-44.75489 9.26337,-14.53263 20.98248,-28.05436 26.54931,-44.36441 4.63517,-13.58042 7.0317,-28.52882 5.09192,-42.74676 -1.11813,-8.19554 -9.42839,-22.95341 -9.42839,-22.95341 0,0 12.17851,4.35844 17.98841,7.33539 5.8099,2.97695 9.71176,3.99578 16.7288,10.48405 7.01704,6.48827 17.06898,18.8568 22.39664,30.20125 9.81997,20.91015 14.89639,44.26971 16.475,67.31692 0.73517,10.73326 -1.94741,23.66875 -3.32633,32.10335 -1.4169,8.70621 -3.6045,19.27027 -6.10302,35.42278 12.83522,-18.30871 28.18435,-36.26377 35.46919,-54.77051 3.28207,-8.45133 5.50043,-20.03781 6.5301,-27.85534 2.29626,-15.63579 -0.6024,-29.76805 -4.39776,-44.92896 -5.81532,-17.63587 -10.41956,-33.86065 -13.76398,-52.09899 -2.67976,-19.07469 -5.75465,-36.66134 -5.1733,-56.54317 0.33786,-8.95211 3.3394,-23.77114 6.08194,-32.2995 6.71867,-21.91615 16.07543,-40.34603 31.00399,-58.11967 l 21.51523,-25.3974 c 0,0 -6.6159,24.23232 -7.31181,29.28754 -4.97345,21.95909 -3.74473,40.54517 0.0263,61.58955 4.72,22.96875 11.38506,49.12957 20.69235,68.31221 11.41309,21.69716 24.54372,39.06331 36.25166,58.38221 10.86543,18.64117 19.58535,37.67804 26.09064,56.79695 3.08142,9.166 5.35965,21.8678 7.34095,26.65352 3.50822,-3.07876 7.22201,-16.61162 9.67321,-25.01392 5.01355,-16.976 6.47527,-34.26 5.25992,-50.64505 -1.21474,-16.49017 -5.96669,-31.99432 -10.7589,-46.4933 -5.73202,-15.16199 -10.57799,-30.18703 -14.54568,-44.78809 -4.18956,-13.86165 -6.15231,-27.46695 -9.02577,-40.68711 -1.83933,-8.39283 -6.04603,-25.05692 -6.04603,-25.05692 10.00814,4.46585 18.70494,10.80971 27.28029,17.33104 13.94734,12.90427 25.62327,21.35941 39.04931,36.56239 9.70292,11.31296 19.94062,21.15257 29.05024,33.10969 12.33699,15.49294 23.66711,32.74739 33.17374,47.38509 11.9238,16.72681 21.75736,36.74004 28.9136,51.97802 5.49221,11.64907 9.44148,22.38739 12.88456,34.01164 3.77618,12.7488 6.11367,28.7978 8.46375,38.98061 2.19151,9.86486 2.54253,18.85879 2.99456,30.60354 0.45203,11.74475 -0.22721,28.2002 -2.26542,40.463 -2.03821,12.2628 -5.74761,23.20971 -9.19904,32.79406 -4.0761,11.13866 -6.58462,20.45377 -13.26507,31.88109 -6.68045,11.42733 -15.49907,29.09458 -24.81617,40.25816 -9.3171,11.16358 -15.62896,21.02625 -25.63197,31.03989 -10.00301,10.01364 -23.7175,20.77214 -34.41262,28.47862 -10.69512,7.70648 -18.31435,13.07982 -29.21393,18.21249 -10.89958,5.13267 -23.74507,8.63188 -35.90501,12.00798 -10.4275,2.8951 -20.95936,5.6558 -31.6911,7.0501 -14.68064,1.9073 -26.98288,2.7684 -44.37744,1.7537 -17.39455,-1.0147 -40.97805,-3.989 -59.40214,-9.3447 -18.4241,-5.3558 -34.83302,-12.28797 -50.43576,-21.90653 z"
         style="fill:#ff0000;stroke:none" />
    </g>
    <path
       sodipodi:nodetypes="csccccssccssssscccscccccssscccczacccccsssccccaccscsccscssscasscsssscscczzzsc"
       inkscape:connector-curvature="0"
       id="path4147-3"
       d="m 997.96144,62.942314 c -11.25591,9.547255 -18.40894,15.587896 -30.87326,27.681809 -14.25711,13.833087 -48.04571,45.038707 -61.70278,58.592587 -16.58207,16.38806 -45.39455,46.67887 -56.04488,52.76588 -9.58454,1.27677 -4.8919,0.24792 -13.08884,0.27789 -7.03984,-0.68827 -47.76386,-14.05368 -47.76386,-14.05368 0,0 6.10874,-5.02766 9.04101,-7.68071 1.46329,-1.32392 2.9303,-2.65219 4.26375,-4.10679 2.68768,-2.93192 5.1916,-6.04135 7.5008,-9.27962 1.77146,-2.48409 4.21765,-4.77552 4.8556,-7.75913 0.70158,-3.28085 0.13155,-6.85214 -1.38303,-9.96952 -1.51457,-3.11738 -4.94277,-6.19842 -7.42399,-8.77448 -2.48123,-2.57606 -4.18507,-5.2513 -7.46324,-6.68175 -3.51701,-1.53464 -6.88833,-1.81101 -11.50964,-0.21582 -4.62133,1.59519 -9.74321,7.46703 -13.81798,11.25448 -4.07477,3.78745 -6.51161,6.37017 -10.67917,11.3135 -4.16725,4.94355 -13.95541,18.57877 -13.95541,18.57877 l -211.37835,-65.1209 c 0,0 -9.53577,6.26964 -13.91098,9.8305 -4.37527,3.56092 -12.10092,11.29224 -12.10092,11.29224 l 2.56109,1.46478 141.44024,76.44417 70.44381,39.00189 35.38215,38.86779 c 0,0 -64.72976,60.89928 -94.90845,93.46953 -11.46038,12.36853 -23.84862,27.86911 -32.64872,38.63871 -8.80007,10.76958 -12.84457,15.99307 -20.37067,25.78533 -7.5261,9.79226 -24.69332,33.03123 -24.69332,33.03123 l -148.6404,-27.38454 -7.57937,13.4649 118.53887,69.73453 c 0,0 -5.06222,4.81716 -4.3423,8.29206 0.71992,3.47491 3.84147,6.60538 7.18697,7.46165 1.60297,0.41029 4.73788,-1.48119 4.73788,-1.48119 l 3.71121,-2.54712 63.05076,126.26223 13.83762,-12.30088 -19.73938,-147.43059 c 0,0 16.17032,-9.38548 23.8269,-14.73027 21.95708,-15.32752 42.68228,-32.38233 63.20792,-49.57942 5.10852,-4.28006 -3.8171,3.85397 14.90361,-13.3275 18.72079,-17.18154 96.4289,-90.82424 96.4289,-90.82424 l 37.4552,39.95333 107.42131,216.06329 2.66422,5.65156 c 0,0 8.84212,-6.43794 12.78882,-10.20082 4.424,-4.21773 12.10476,-13.77456 12.10476,-13.77456 L 928.93911,359.1849 c 0,0 5.21577,-2.04396 8.4491,-4.0283 3.23331,-1.98435 6.79842,-5.02897 10.62024,-8.17435 3.82188,-3.14543 8.87405,-7.10743 12.23871,-10.76082 3.36466,-3.65339 8.05347,-10.83928 8.05347,-10.83928 0,0 2.15847,-2.2079 2.68452,-3.61304 1.0415,-2.78166 1.65746,-5.27572 0.68989,-8.88398 -0.96756,-3.60825 -4.58816,-7.99368 -7.64141,-11.13355 -3.05344,-3.13967 -6.93525,-6.26938 -10.32593,-7.52051 -3.39069,-1.25112 -6.01999,-1.47711 -8.88399,-0.68989 -6.25662,1.71976 -11.08359,6.87888 -15.91064,11.21518 -4.41921,3.9699 -11.76464,13.38649 -11.76464,13.38649 0,0 -9.47106,-30.86411 -13.11459,-46.57632 -0.48192,-2.07838 -1.26057,-4.05806 -1.15386,-6.2958 0.10668,-2.2377 -1.1078,-4.09112 1.92233,-6.77335 6.29122,-5.5688 29.27729,-26.9182 48.59462,-45.44426 19.31746,-18.52592 48.45867,-46.71177 67.06037,-65.95332 9.6255,-9.95642 21.8642,-23.89769 27.7932,-30.87964 5.929,-6.98194 4.0406,-4.66691 6.9678,-8.76626 2.9273,-4.09934 6.4075,-8.90379 10.2442,-16.031637 3.8368,-7.12785 9.318,-19.524128 12.0198,-26.988672 2.7018,-7.464544 4.146,-12.191193 4.9214,-17.404346 0.7755,-5.213153 2.9216,-10.239971 0.2672,-13.533571 -0.9568,-1.132931 -2.1839,-2.047767 -3.5145,-2.524902 -6.1299,-2.198016 -12.1631,-0.264742 -17.8071,0.712823 -5.6439,0.977564 -9.5953,2.505232 -15.793,4.937333 -6.1977,2.432103 -11.1661,4.399189 -17.4115,7.523692 -6.2454,3.124503 -15.7122,8.350391 -20.096,11.136792 -4.3838,2.786339 -7.0601,5.061048 -10.08736,7.660902 z"
       style="fill:#000000;stroke:#000000;stroke-width:1.83833838;stroke-linecap:butt;stroke-linejoin:miter;stroke-opacity:1" />
  </g>
</svg>
