<?xml version="1.0" encoding="UTF-8" standalone="no"?>
<!-- Created with Inkscape (http://www.inkscape.org/) -->

<svg
   xmlns:dc="http://purl.org/dc/elements/1.1/"
   xmlns:cc="http://creativecommons.org/ns#"
   xmlns:rdf="http://www.w3.org/1999/02/22-rdf-syntax-ns#"
   xmlns:svg="http://www.w3.org/2000/svg"
   xmlns="http://www.w3.org/2000/svg"
   xmlns:sodipodi="http://sodipodi.sourceforge.net/DTD/sodipodi-0.dtd"
   xmlns:inkscape="http://www.inkscape.org/namespaces/inkscape"
   width="24"
   height="24"
   id="svg2"
   version="1.1"
   inkscape:version="0.48.4 r9939"
   sodipodi:docname="motion_freeze_on.svg">
  <defs
     id="defs4" />
  <sodipodi:namedview
     id="base"
     pagecolor="#ffffff"
     bordercolor="#666666"
     borderopacity="1.0"
     inkscape:pageopacity="0.0"
     inkscape:pageshadow="2"
     inkscape:zoom="11.313708"
     inkscape:cx="3.8002182"
     inkscape:cy="24.506469"
     inkscape:document-units="px"
     inkscape:current-layer="layer1"
     showgrid="true"
     inkscape:snap-bbox="true"
     inkscape:bbox-nodes="true"
     inkscape:window-width="1142"
     inkscape:window-height="820"
     inkscape:window-x="0"
     inkscape:window-y="0"
     inkscape:window-maximized="0">
    <inkscape:grid
       type="xygrid"
       id="grid3753"
       empspacing="2"
       visible="true"
       enabled="true"
       snapvisiblegridlinesonly="true" />
  </sodipodi:namedview>
  <metadata
     id="metadata7">
    <rdf:RDF>
      <cc:Work
         rdf:about="">
        <dc:format>image/svg+xml</dc:format>
        <dc:type
           rdf:resource="http://purl.org/dc/dcmitype/StillImage" />
        <dc:title></dc:title>
      </cc:Work>
    </rdf:RDF>
  </metadata>
  <g
     inkscape:label="Layer 1"
     inkscape:groupmode="layer"
     id="layer1"
     transform="translate(0,-1028.3622)">
    <path
       style="fill:#ffffff;fill-opacity:1;stroke:none"
       d="M 15.9375 1 L 10.28125 6.65625 L 10.15625 6.78125 L 17.21875 13.84375 L 17.34375 13.71875 L 23 8.0625 L 15.9375 1 z M 4.375 3 L 3 4.375 L 7.78125 9.15625 L 4.625 12.3125 L 11.6875 19.375 L 14.84375 16.21875 L 19.625 21 L 21 19.625 L 4.375 3 z M 15.9375 3.84375 L 20.15625 8.0625 L 18.75 9.5 L 14.5 5.25 L 15.9375 3.84375 z M 3.1875 13.71875 L 0.375 16.5625 L 1.78125 17.96875 L 4.625 15.15625 L 3.1875 13.71875 z M 6.03125 16.5625 L 1.78125 20.8125 L 3.1875 22.21875 L 7.4375 17.96875 L 6.03125 16.5625 z M 8.84375 19.375 L 6.03125 22.21875 L 7.4375 23.625 L 10.28125 20.8125 L 8.84375 19.375 z "
       transform="translate(0,1028.3622)"
       id="rect3755" />
  </g>
</svg>
