<?xml version="1.0" encoding="UTF-8" standalone="no"?>
<!-- Created with Inkscape (http://www.inkscape.org/) -->

<svg
   xmlns:dc="http://purl.org/dc/elements/1.1/"
   xmlns:cc="http://creativecommons.org/ns#"
   xmlns:rdf="http://www.w3.org/1999/02/22-rdf-syntax-ns#"
   xmlns:svg="http://www.w3.org/2000/svg"
   xmlns="http://www.w3.org/2000/svg"
   xmlns:sodipodi="http://sodipodi.sourceforge.net/DTD/sodipodi-0.dtd"
   xmlns:inkscape="http://www.inkscape.org/namespaces/inkscape"
   width="24"
   height="24"
   id="svg2"
   version="1.1"
   inkscape:version="0.48.4 r9939"
   sodipodi:docname="vehicle_tracks_icon.svg">
  <defs
     id="defs4" />
  <sodipodi:namedview
     id="base"
     pagecolor="#ffffff"
     bordercolor="#666666"
     borderopacity="1.0"
     inkscape:pageopacity="0.0"
     inkscape:pageshadow="2"
     inkscape:zoom="4.492108"
     inkscape:cx="-24.048132"
     inkscape:cy="18.666413"
     inkscape:document-units="px"
     inkscape:current-layer="layer1"
     showgrid="false"
     showguides="true"
     inkscape:snap-global="false"
     inkscape:window-width="1920"
     inkscape:window-height="1128"
     inkscape:window-x="0"
     inkscape:window-y="0"
     inkscape:window-maximized="1">
    <inkscape:grid
       type="xygrid"
       id="grid2985"
       empspacing="5"
       visible="true"
       enabled="true"
       snapvisiblegridlinesonly="true" />
  </sodipodi:namedview>
  <metadata
     id="metadata7">
    <rdf:RDF>
      <cc:Work
         rdf:about="">
        <dc:format>image/svg+xml</dc:format>
        <dc:type
           rdf:resource="http://purl.org/dc/dcmitype/StillImage" />
        <dc:title />
      </cc:Work>
    </rdf:RDF>
  </metadata>
  <g
     inkscape:label="Layer 1"
     inkscape:groupmode="layer"
     id="layer1"
     transform="translate(0,-1028.3622)">
    <path
       style="font-size:medium;font-style:normal;font-variant:normal;font-weight:normal;font-stretch:normal;text-indent:0;text-align:start;text-decoration:none;line-height:normal;letter-spacing:normal;word-spacing:normal;text-transform:none;direction:ltr;block-progression:tb;writing-mode:lr-tb;text-anchor:start;baseline-shift:baseline;color:#000000;fill:#ffffff;fill-opacity:1;stroke:none;stroke-width:1.47889245000000003;marker:none;visibility:visible;display:inline;overflow:visible;enable-background:accumulate;font-family:Sans;-inkscape-font-specification:Sans"
       d="m 11.03125,1030.3438 c -0.775927,0.1017 -1.54997,0.2566 -2.28125,0.5312 0.1770833,0.4583 0.3541667,0.9167 0.53125,1.375 0.6641922,-0.215 1.369563,-0.3855 2.070817,-0.4448 1.08461,-0.077 2.185045,0.057 3.210433,0.4134 0.15625,-0.4583 0.3125,-0.9167 0.46875,-1.375 -0.752999,-0.2789 -1.544005,-0.4541 -2.352109,-0.5055 -0.550187,-0.036 -1.097613,-0.019 -1.647891,0.01 z m 4.78125,2.4062 c 1.522215,0.8502 2.888785,2.1647 3.40625,3.874 0.479167,-0.1146 0.958333,-0.2292 1.4375,-0.3438 -0.321062,-1.0276 -0.825597,-2.02 -1.578011,-2.8176 -0.749898,-0.8096 -1.582575,-1.4783 -2.546989,-1.9929 -0.239583,0.4268 -0.479167,0.8535 -0.71875,1.2803 z m -8.59375,-1.1875 c -1.1849835,0.6937 -2.2774109,1.6101 -3.1531672,2.6666 -0.4734048,0.4921 -0.8371942,1.0873 -1.2218328,1.6431 0.4175878,0.2425 0.826623,0.4986 1.21875,0.7807 0.2420536,-0.3264 0.5996921,-0.7394 0.75,-1.031 0.8615907,-1.0026 1.7843033,-1.9777 2.9416064,-2.6395 0.4633227,-0.1199 -0.0046,-0.4961 -0.085289,-0.7732 -0.1538922,-0.1701 -0.2227336,-0.6838 -0.4500677,-0.6467 z M 19.375,1038.25 c -0.137532,1.2508 -0.869843,2.3889 -1.861688,3.1481 -0.255252,0.1947 -0.566487,0.2853 -0.857062,0.4123 0.1875,0.4583 0.375,0.9167 0.5625,1.375 0.854278,-0.2923 1.574654,-0.8409 2.154437,-1.5247 0.602681,-0.6859 1.051488,-1.5071 1.314313,-2.3778 0.07903,-0.4349 0.193033,-0.8642 0.1875,-1.312 -0.489583,-0.031 -0.979167,-0.063 -1.46875,-0.094 -0.01042,0.1244 -0.02083,0.2487 -0.03125,0.3731 z m -9.84375,4.5938 c 0.987059,0.053 1.952925,0.2921 2.935848,0.4002 1.004184,0.1294 2.017545,0.3084 3.032902,0.2243 -0.02083,-0.4896 -0.04167,-0.9792 -0.0625,-1.4688 -0.772866,0.074 -1.546799,-0.06 -2.3125,-0.156 -0.317907,0.02 -0.768911,-0.1159 -1.137852,-0.1555 -0.776894,-0.1073 -1.543999,-0.2985 -2.330898,-0.3133 -0.041667,0.4897 -0.083333,0.9794 -0.125,1.4691 z m -1.90625,-1.375 c -0.5678572,0.1997 -1.1410801,0.4379 -1.5,0.9355 -0.6012946,0.775 -0.7540272,1.7962 -0.6954551,2.753 0.056089,0.7922 0.409381,1.5926 1.0704551,2.0524 0.2795572,0.2944 0.3993418,-0.4022 0.6051025,-0.5655 0.097942,-0.2543 0.5794822,-0.5642 0.1470524,-0.7141 -0.4612436,-0.5481 -0.3994448,-1.3495 -0.2486622,-2.0127 0.083974,-0.5737 0.5849923,-0.9926 1.149435,-1.0322 0.1988535,-0.1625 -0.071237,-0.6481 -0.059549,-0.9395 -0.094091,-0.3614 0.04879,-0.6936 -0.468379,-0.4769 z m 0.71875,6.5 c 1.948382,0.2505 3.917981,0.1514 5.874804,0.2087 0.221751,-0.1065 0.07684,-0.6448 0.153407,-0.9222 0.09516,-0.3927 0.02999,-0.6631 -0.426863,-0.5689 -1.794267,-0.062 -3.599423,0.062 -5.382598,-0.1863 -0.072917,0.4896 -0.1458333,0.9791 -0.21875,1.4687 z m 7.40625,0.3437 c 0.754785,0.058 1.529913,0.1616 2.209349,0.4304 1.02663,0.2779 1.991436,0.7543 2.7819,1.4736 0.2362,-0.1025 0.439135,-0.5137 0.662463,-0.7357 0.347859,-0.274 0.330768,-0.5046 -0.07748,-0.6887 -0.86464,-0.6873 -1.85991,-1.1497 -2.930503,-1.4627 -0.604582,-0.2255 -1.279876,-0.2999 -1.903635,-0.4367 -0.377911,-0.073 -0.722979,-0.1054 -0.632324,0.3884 -0.03659,0.3438 -0.07318,0.6876 -0.109766,1.0314 z"
       id="path3755"
       inkscape:connector-curvature="0" />
  </g>
</svg>
