<?xml version="1.0" encoding="UTF-8" standalone="no"?>
<!-- Generator: Adobe Illustrator 15.1.0, SVG Export Plug-In . SVG Version: 6.00 Build 0)  -->

<svg
   xmlns:dc="http://purl.org/dc/elements/1.1/"
   xmlns:cc="http://creativecommons.org/ns#"
   xmlns:rdf="http://www.w3.org/1999/02/22-rdf-syntax-ns#"
   xmlns:svg="http://www.w3.org/2000/svg"
   xmlns="http://www.w3.org/2000/svg"
   xmlns:xlink="http://www.w3.org/1999/xlink"
   xmlns:sodipodi="http://sodipodi.sourceforge.net/DTD/sodipodi-0.dtd"
   xmlns:inkscape="http://www.inkscape.org/namespaces/inkscape"
   version="1.1"
   x="0px"
   y="0px"
   width="14"
   height="36"
   viewBox="0 0 14 36"
   enable-background="new 0 0 1000 1000"
   xml:space="preserve"
   id="svg2"
   inkscape:version="0.48.5 r10040"
   sodipodi:docname="A_320_fuselage_1.svg"><metadata
     id="metadata160"><rdf:RDF><cc:Work
         rdf:about=""><dc:format>image/svg+xml</dc:format><dc:type
           rdf:resource="http://purl.org/dc/dcmitype/StillImage" /><dc:title></dc:title></cc:Work></rdf:RDF></metadata><defs
     id="defs158"><linearGradient
       id="linearGradient4032"><stop
         style="stop-color:#765337;stop-opacity:1"
         offset="0"
         id="stop4034" /><stop
         style="stop-color:#c19069;stop-opacity:1"
         offset="1"
         id="stop4036" /></linearGradient><linearGradient
       id="linearGradient4020"><stop
         style="stop-color:#765337;stop-opacity:1"
         offset="0"
         id="stop4022" /><stop
         id="stop4030"
         offset="0.36925456"
         style="stop-color:#c19069;stop-opacity:1;" /><stop
         id="stop4028"
         offset="0.62720484"
         style="stop-color:#c19069;stop-opacity:1;" /><stop
         style="stop-color:#765337;stop-opacity:1"
         offset="1"
         id="stop4024" /></linearGradient><linearGradient
       inkscape:collect="always"
       xlink:href="#linearGradient4020"
       id="linearGradient4026"
       x1="439.78299"
       y1="465.07999"
       x2="534"
       y2="465.07999"
       gradientUnits="userSpaceOnUse"
       gradientTransform="matrix(0.12704891,0,0,0.12658774,-6.3568245,-0.37274859)" /><linearGradient
       inkscape:collect="always"
       xlink:href="#linearGradient4032"
       id="linearGradient4038"
       x1="536"
       y1="447.83301"
       x2="584.39734"
       y2="447.83301"
       gradientUnits="userSpaceOnUse" /><linearGradient
       inkscape:collect="always"
       xlink:href="#linearGradient4032"
       id="linearGradient4046"
       x1="439.1781"
       y1="447.6665"
       x2="387.70541"
       y2="447.6665"
       gradientUnits="userSpaceOnUse" /><linearGradient
       inkscape:collect="always"
       xlink:href="#linearGradient4020"
       id="linearGradient4292"
       gradientUnits="userSpaceOnUse"
       gradientTransform="matrix(0.12704891,0,0,0.12658774,-6.3568244,-0.37274592)"
       x1="439.78299"
       y1="465.07999"
       x2="534"
       y2="465.07999" /><linearGradient
       inkscape:collect="always"
       xlink:href="#linearGradient4020"
       id="linearGradient4296"
       gradientUnits="userSpaceOnUse"
       gradientTransform="matrix(0.12704891,0,0,0.12658774,-54.810212,-39.653997)"
       x1="439.78299"
       y1="465.07999"
       x2="534"
       y2="465.07999" /></defs><sodipodi:namedview
     pagecolor="#ffffff"
     bordercolor="#666666"
     borderopacity="1"
     objecttolerance="10"
     gridtolerance="10"
     guidetolerance="10"
     inkscape:pageopacity="0"
     inkscape:pageshadow="2"
     inkscape:window-width="1920"
     inkscape:window-height="1060"
     id="namedview156"
     showgrid="false"
     inkscape:zoom="7.552"
     inkscape:cx="11.808901"
     inkscape:cy="34.154815"
     inkscape:window-x="-2"
     inkscape:window-y="-3"
     inkscape:window-maximized="1"
     inkscape:current-layer="svg2"
     fit-margin-top="1"
     fit-margin-left="1"
     fit-margin-right="1"
     fit-margin-bottom="1" /><path
     style="fill:url(#linearGradient4296);fill-opacity:1;stroke:none"
     d="m 1.077862,1.0937491 0,33.9062499 11.96875,0 0,-33.9062499 -11.96875,0 z"
     id="path115"
     inkscape:connector-curvature="0" /><path
     style="font-size:medium;font-style:normal;font-variant:normal;font-weight:normal;font-stretch:normal;text-indent:0;text-align:start;text-decoration:none;line-height:normal;letter-spacing:normal;word-spacing:normal;text-transform:none;direction:ltr;block-progression:tb;writing-mode:lr-tb;text-anchor:start;baseline-shift:baseline;color:#000000;fill:#000000;fill-opacity:1;fill-rule:nonzero;stroke:none;stroke-width:1;marker:none;visibility:visible;display:inline;overflow:visible;enable-background:accumulate;font-family:Sans;-inkscape-font-specification:Sans"
     d="m 1.015362,1.0937491 0,33.9062499 0.125,0 0,-33.9062499 -0.125,0 z m 11.96875,0 0,33.9062499 0.125,0 0,-33.9062499 -0.125,0 z"
     id="path3998"
     inkscape:connector-curvature="0" /><path
     inkscape:connector-curvature="0"
     id="path141"
     d="m 12.930676,5.0433501 c -0.07276,-0.007 -0.166675,-0.004 -0.266005,0.0316 -0.09936,0.036 -0.20118,0.10816 -0.273954,0.2334 -0.07276,0.125239 -0.119102,0.300819 -0.119102,0.545909 0,0.245089 0.04637,0.420669 0.119102,0.545909 0.07276,0.125239 0.174623,0.197409 0.273954,0.233399 0.19866,0.072 0.389081,0.008 0.389081,0.008 l 0.04366,-0.0119 0,-0.0475 0,-1.455757 0,-0.0475 -0.04366,-0.0119 c 0,0 -0.05028,-0.0169 -0.123076,-0.0237 z m -0.01194,0.12658 c 0.03151,0.003 0.03442,0.004 0.05159,0.008 l 0,1.352897 c -0.04908,0.0107 -0.149914,0.0263 -0.266016,-0.0158 -0.07537,-0.0273 -0.148207,-0.0778 -0.206449,-0.178009 -0.05821,-0.10024 -0.09926,-0.253 -0.09926,-0.482619 0,-0.22962 0.04105,-0.38238 0.09926,-0.48262 0.05821,-0.100239 0.131096,-0.150709 0.206459,-0.178009 0.07537,-0.0273 0.156127,-0.0288 0.214388,-0.0237 z"
     style="font-size:medium;font-style:normal;font-variant:normal;font-weight:normal;font-stretch:normal;text-indent:0;text-align:start;text-decoration:none;line-height:normal;letter-spacing:normal;word-spacing:normal;text-transform:none;direction:ltr;block-progression:tb;writing-mode:lr-tb;text-anchor:start;baseline-shift:baseline;color:#000000;fill:#000000;fill-opacity:1;fill-rule:nonzero;stroke:none;stroke-width:1;marker:none;visibility:visible;display:inline;overflow:visible;enable-background:accumulate;font-family:Sans;-inkscape-font-specification:Sans" /><path
     inkscape:connector-curvature="0"
     id="path143"
     d="m 12.930676,7.1320461 c -0.07276,-0.007 -0.166675,-0.004 -0.266005,0.0316 -0.09936,0.036 -0.20118,0.10816 -0.273954,0.2334 -0.07276,0.125239 -0.119102,0.300819 -0.119102,0.545909 0,0.245089 0.04637,0.420669 0.119102,0.545909 0.07276,0.125249 0.174623,0.197409 0.273954,0.233399 0.19866,0.072 0.389081,0.008 0.389081,0.008 l 0.04366,-0.0158 0,-0.0435 0,-1.455757 0,-0.0475 -0.04366,-0.0158 c 0,0 -0.05028,-0.013 -0.123076,-0.0198 z m -0.01194,0.12659 c 0.03151,0.003 0.03442,0.004 0.05159,0.008 l 0,1.348947 c -0.04888,0.0107 -0.149643,0.0303 -0.266016,-0.0119 -0.07537,-0.0273 -0.148207,-0.0778 -0.206449,-0.178019 -0.05821,-0.10024 -0.09926,-0.253 -0.09926,-0.482619 0,-0.22962 0.04105,-0.38237 0.09926,-0.482619 0.05821,-0.10024 0.131096,-0.1507 0.206459,-0.17801 0.07537,-0.0273 0.156127,-0.0288 0.214388,-0.0237 z"
     style="font-size:medium;font-style:normal;font-variant:normal;font-weight:normal;font-stretch:normal;text-indent:0;text-align:start;text-decoration:none;line-height:normal;letter-spacing:normal;word-spacing:normal;text-transform:none;direction:ltr;block-progression:tb;writing-mode:lr-tb;text-anchor:start;baseline-shift:baseline;color:#000000;fill:#000000;fill-opacity:1;fill-rule:nonzero;stroke:none;stroke-width:1;marker:none;visibility:visible;display:inline;overflow:visible;enable-background:accumulate;font-family:Sans;-inkscape-font-specification:Sans" /><path
     inkscape:connector-curvature="0"
     id="path145"
     d="m 1.166746,5.0433501 c -0.07276,0.007 -0.123086,0.0237 -0.123086,0.0237 L 1,5.0789501 l 0,0.0475 0,1.455757 0,0.0475 0.04366,0.0119 c 0,0 0.194405,0.0641 0.393066,-0.008 0.09936,-0.036 0.197205,-0.10815 0.269979,-0.233389 0.07276,-0.12525 0.119102,-0.30082 0.119102,-0.545909 0,-0.24509 -0.04637,-0.42067 -0.119102,-0.545909 -0.07276,-0.12525 -0.170649,-0.19741 -0.269979,-0.2334 -0.09936,-0.036 -0.197226,-0.0385 -0.26998,-0.0317 z m 0.01586,0.12658 c 0.05821,-0.005 0.13506,-0.004 0.210423,0.0237 0.07537,0.0273 0.148208,0.0778 0.206459,0.178009 0.05821,0.10024 0.09926,0.253 0.09926,0.48262 0,0.229619 -0.04105,0.382379 -0.09926,0.482619 -0.05821,0.100239 -0.131095,0.150709 -0.206459,0.178009 -0.117456,0.0426 -0.218011,0.0265 -0.266005,0.0158 l 0,-1.352897 c 0.01716,-0.004 0.02308,-0.005 0.0556,-0.008 z"
     style="font-size:medium;font-style:normal;font-variant:normal;font-weight:normal;font-stretch:normal;text-indent:0;text-align:start;text-decoration:none;line-height:normal;letter-spacing:normal;word-spacing:normal;text-transform:none;direction:ltr;block-progression:tb;writing-mode:lr-tb;text-anchor:start;baseline-shift:baseline;color:#000000;fill:#000000;fill-opacity:1;fill-rule:nonzero;stroke:none;stroke-width:1;marker:none;visibility:visible;display:inline;overflow:visible;enable-background:accumulate;font-family:Sans;-inkscape-font-specification:Sans" /><path
     inkscape:connector-curvature="0"
     id="path147"
     d="m 1.166746,7.1320461 c -0.07276,0.007 -0.123086,0.0198 -0.123086,0.0198 L 1,7.1676461 l 0,0.0475 0,1.455757 0,0.0435 0.04366,0.0158 c 0,0 0.194405,0.0641 0.393066,-0.008 0.09936,-0.036 0.197205,-0.10815 0.269979,-0.233399 0.07276,-0.12524 0.119102,-0.30082 0.119102,-0.545909 0,-0.24509 -0.04637,-0.42067 -0.119102,-0.545909 -0.07276,-0.12524 -0.170649,-0.19741 -0.269979,-0.2334 -0.09936,-0.036 -0.197226,-0.0385 -0.26998,-0.0316 z m 0.01586,0.12659 c 0.05821,-0.005 0.13506,-0.004 0.210423,0.0237 0.07537,0.0273 0.148208,0.0778 0.206459,0.17801 0.05821,0.100249 0.09926,0.252999 0.09926,0.482619 0,0.229619 -0.04105,0.382379 -0.09926,0.482619 -0.05821,0.10024 -0.131095,0.150709 -0.206459,0.178009 -0.117677,0.0426 -0.218201,0.0225 -0.266005,0.0119 l 0,-1.348947 c 0.01716,-0.004 0.02308,-0.005 0.0556,-0.008 z"
     style="font-size:medium;font-style:normal;font-variant:normal;font-weight:normal;font-stretch:normal;text-indent:0;text-align:start;text-decoration:none;line-height:normal;letter-spacing:normal;word-spacing:normal;text-transform:none;direction:ltr;block-progression:tb;writing-mode:lr-tb;text-anchor:start;baseline-shift:baseline;color:#000000;fill:#000000;fill-opacity:1;fill-rule:nonzero;stroke:none;stroke-width:1;marker:none;visibility:visible;display:inline;overflow:visible;enable-background:accumulate;font-family:Sans;-inkscape-font-specification:Sans" /><path
     inkscape:connector-curvature="0"
     id="path149"
     d="m 7.050693,30.412323 c -0.101348,0 -0.203739,0.054 -0.266005,0.166139 -0.06223,0.11211 -0.09524,0.28031 -0.09524,0.522179 0,0.24187 0.03332,0.702209 0.08732,1.107638 0.027,0.20272 0.05861,0.389229 0.09525,0.530089 0.01837,0.0704 0.03663,0.12835 0.05952,0.17406 0.01144,0.0229 0.02258,0.0458 0.03974,0.0633 0.01716,0.0175 0.04687,0.0317 0.07939,0.0317 0.03252,0 0.05821,-0.0141 0.07547,-0.0317 0.01716,-0.0175 0.0282,-0.0404 0.03974,-0.0633 0.02288,-0.0457 0.04125,-0.10363 0.05952,-0.17406 0.03663,-0.14086 0.06825,-0.327369 0.09524,-0.530089 0.054,-0.405429 0.08732,-0.865768 0.08732,-1.107638 0,-0.241869 -0.03302,-0.410069 -0.09524,-0.522179 -0.06223,-0.1121 -0.160643,-0.166139 -0.262041,-0.166139 z m 0,0.126589 c 0.06233,0 0.105864,0.0218 0.150878,0.10285 0.04496,0.0811 0.07939,0.22883 0.07939,0.458879 0,0.23005 -0.03412,0.692149 -0.08732,1.091818 -0.0266,0.19984 -0.05701,0.382709 -0.09133,0.514259 -0.01716,0.0658 -0.03593,0.11904 -0.05159,0.15033 -0.001,0.003 -0.003,0.002 -0.004,0.004 -8.83e-4,-0.002 8.93e-4,-0.002 0,-0.004 -0.01566,-0.0313 -0.03453,-0.0846 -0.05159,-0.15033 -0.03422,-0.13155 -0.06473,-0.314419 -0.09133,-0.514259 -0.05319,-0.399669 -0.08732,-0.861768 -0.08732,-1.091818 0,-0.230049 0.03443,-0.377809 0.07939,-0.458879 0.04506,-0.0811 0.09254,-0.10285 0.154842,-0.10285 z"
     style="font-size:medium;font-style:normal;font-variant:normal;font-weight:normal;font-stretch:normal;text-indent:0;text-align:start;text-decoration:none;line-height:normal;letter-spacing:normal;word-spacing:normal;text-transform:none;direction:ltr;block-progression:tb;writing-mode:lr-tb;text-anchor:start;baseline-shift:baseline;color:#000000;fill:#000000;fill-opacity:1;fill-rule:nonzero;stroke:none;stroke-width:1;marker:none;visibility:visible;display:inline;overflow:visible;enable-background:accumulate;font-family:Sans;-inkscape-font-specification:Sans" /></svg>