<?xml version="1.0" encoding="UTF-8" standalone="no"?>
<!-- Generator: Adobe Illustrator 15.1.0, SVG Export Plug-In . SVG Version: 6.00 Build 0)  -->

<svg
   xmlns:dc="http://purl.org/dc/elements/1.1/"
   xmlns:cc="http://creativecommons.org/ns#"
   xmlns:rdf="http://www.w3.org/1999/02/22-rdf-syntax-ns#"
   xmlns:svg="http://www.w3.org/2000/svg"
   xmlns="http://www.w3.org/2000/svg"
   xmlns:xlink="http://www.w3.org/1999/xlink"
   xmlns:sodipodi="http://sodipodi.sourceforge.net/DTD/sodipodi-0.dtd"
   xmlns:inkscape="http://www.inkscape.org/namespaces/inkscape"
   version="1.1"
   x="0px"
   y="0px"
   width="14"
   height="52"
   viewBox="0 0 14 52"
   enable-background="new 0 0 1000 1000"
   xml:space="preserve"
   id="svg2"
   inkscape:version="0.48.5 r10040"
   sodipodi:docname="A_320_fuselage_2.svg"><metadata
     id="metadata160"><rdf:RDF><cc:Work
         rdf:about=""><dc:format>image/svg+xml</dc:format><dc:type
           rdf:resource="http://purl.org/dc/dcmitype/StillImage" /><dc:title></dc:title></cc:Work></rdf:RDF></metadata><defs
     id="defs158"><linearGradient
       id="linearGradient4032"><stop
         style="stop-color:#765337;stop-opacity:1"
         offset="0"
         id="stop4034" /><stop
         style="stop-color:#c19069;stop-opacity:1"
         offset="1"
         id="stop4036" /></linearGradient><linearGradient
       id="linearGradient4020"><stop
         style="stop-color:#765337;stop-opacity:1"
         offset="0"
         id="stop4022" /><stop
         id="stop4030"
         offset="0.36925456"
         style="stop-color:#c19069;stop-opacity:1;" /><stop
         id="stop4028"
         offset="0.62720484"
         style="stop-color:#c19069;stop-opacity:1;" /><stop
         style="stop-color:#765337;stop-opacity:1"
         offset="1"
         id="stop4024" /></linearGradient><linearGradient
       inkscape:collect="always"
       xlink:href="#linearGradient4020"
       id="linearGradient4026"
       x1="439.78299"
       y1="465.07999"
       x2="534"
       y2="465.07999"
       gradientUnits="userSpaceOnUse"
       gradientTransform="matrix(0.12704891,0,0,0.12658774,-6.3568244,-0.37274592)" /><linearGradient
       inkscape:collect="always"
       xlink:href="#linearGradient4032"
       id="linearGradient4038"
       x1="536"
       y1="447.83301"
       x2="584.39734"
       y2="447.83301"
       gradientUnits="userSpaceOnUse" /><linearGradient
       inkscape:collect="always"
       xlink:href="#linearGradient4032"
       id="linearGradient4046"
       x1="439.1781"
       y1="447.6665"
       x2="387.70541"
       y2="447.6665"
       gradientUnits="userSpaceOnUse" /><linearGradient
       inkscape:collect="always"
       xlink:href="#linearGradient4020"
       id="linearGradient4321"
       gradientUnits="userSpaceOnUse"
       gradientTransform="matrix(0.12704891,0,0,0.12658774,-54.825574,-73.372572)"
       x1="439.78299"
       y1="465.07999"
       x2="534"
       y2="465.07999" /></defs><sodipodi:namedview
     pagecolor="#ffffff"
     bordercolor="#666666"
     borderopacity="1"
     objecttolerance="10"
     gridtolerance="10"
     guidetolerance="10"
     inkscape:pageopacity="0"
     inkscape:pageshadow="2"
     inkscape:window-width="1920"
     inkscape:window-height="1060"
     id="namedview156"
     showgrid="false"
     inkscape:zoom="7.552"
     inkscape:cx="18.160067"
     inkscape:cy="46.20466"
     inkscape:window-x="-2"
     inkscape:window-y="-3"
     inkscape:window-maximized="1"
     inkscape:current-layer="svg2"
     fit-margin-top="1"
     fit-margin-left="1"
     fit-margin-right="1"
     fit-margin-bottom="1" /><path
     style="fill:url(#linearGradient4321);fill-opacity:1;stroke:none"
     d="m 1.0625,1.2814246 0,9.4999994 c 0,5.35897 1.505891,12.680343 2.15625,14.65625 L 4.375,28.96892 4.53125,32.87517 c 0,0 0.139703,2.08323 0.40625,3.71875 0.266547,1.63551 0.90625,5.75 0.90625,5.75 0,0 0.199816,0.59375 1.1875,0.59375 0.987673,0 1.1875,-0.59375 1.1875,-0.59375 0,0 0.639703,-4.11449 0.90625,-5.75 0.266547,-1.63552 0.40625,-3.71875 0.40625,-3.71875 l 0.15625,-3.90625 1.15625,-3.531246 c 0.65036,-1.976037 2.1875,-9.29728 2.1875,-14.65625 l 0,-9.4999994 -11.96875,0 z"
     id="path115"
     inkscape:connector-curvature="0" /><path
     style="font-size:medium;font-style:normal;font-variant:normal;font-weight:normal;font-stretch:normal;text-indent:0;text-align:start;text-decoration:none;line-height:normal;letter-spacing:normal;word-spacing:normal;text-transform:none;direction:ltr;block-progression:tb;writing-mode:lr-tb;text-anchor:start;baseline-shift:baseline;color:#000000;fill:#000000;fill-opacity:1;fill-rule:nonzero;stroke:none;stroke-width:1;marker:none;visibility:visible;display:inline;overflow:visible;enable-background:accumulate;font-family:Sans;-inkscape-font-specification:Sans"
     d="m 1,1.2814246 0,9.4687494 c 0,5.37081 1.50042,12.726233 2.15625,14.71875 l 1.15625,3.499996 0.15625,3.90625 c 0,0 0.13897,2.10998 0.40625,3.75 0.266367,1.63441 0.90625,5.71875 0.90625,5.71875 0,0 0.0625,0.18223 0.25,0.34375 0.1875,0.16153 0.493081,0.3125 1,0.3125 0.506919,0 0.8125,-0.15097 1,-0.3125 0.1875,-0.16152 0.25,-0.34375 0.25,-0.34375 0,0 0.639884,-4.08434 0.90625,-5.71875 0.26729,-1.64002 0.40625,-3.75 0.40625,-3.75 l 0.1875,-3.90625 1.125,-3.499996 c 0.655839,-1.992637 2.1875,-9.34794 2.1875,-14.71875 l 0,-9.4687494 -0.125,0 0,9.4687494 c 0,5.34713 -1.51136,12.728083 -2.15625,14.6875 L 9.65625,28.93767 9.625,28.96887 9.46875,32.87512 c -5.12e-4,0.007 -0.140857,2.09031 -0.40625,3.71875 -0.267028,1.63883 -0.90625,5.71875 -0.90625,5.71875 -0.004,0.0118 -0.02997,0.14556 -0.1875,0.28125 -0.165309,0.14242 -0.456736,0.28125 -0.9375,0.28125 -0.480755,0 -0.77218,-0.13883 -0.9375,-0.28125 -0.157511,-0.13569 -0.183245,-0.26944 -0.1875,-0.28125 0,0 -0.639523,-4.08213 -0.90625,-5.71875 C 4.734597,34.96542 4.594251,32.88166 4.59375,32.87512 l -0.15625,-3.90625 0,-0.0312 -1.15625,-3.499996 C 2.636346,23.478377 1.125,16.097294 1.125,10.750174 l 0,-9.4687494 -0.125,0 z"
     id="path3998"
     inkscape:connector-curvature="0" /><path
     inkscape:connector-curvature="0"
     id="path133"
     d="m 12.808115,14.815574 -0.123077,0.359979 c -0.287272,0.838318 -0.999576,1.095118 -1.33401,1.317307 -0.346727,0.23035 -0.404969,0.676449 -0.404969,0.676449 l -0.004,0 0,0.004 c 0,0 -0.0834,1.544537 -0.0834,1.954197 0,0.109089 0.02258,0.187559 0.06754,0.241309 0.04496,0.0537 0.107861,0.0745 0.162781,0.0752 0.101327,0.001 0.17382,-0.0478 0.186597,-0.0554 l 0,0.004 c 0,0 0.01475,-0.008 0.01586,-0.008 0.02399,-0.007 0.271013,-0.0755 0.547898,-0.336249 0.290594,-0.2737 0.604985,-0.750549 0.710678,-1.562567 l 0,-0.004 c 0.128326,-1.091858 0.194185,-1.660897 0.226301,-1.958157 0.03021,-0.279169 0.0277,-0.304259 0.0278,-0.308559 10e-6,-2.5e-4 0.004,-0.0198 0.004,-0.0198 l 0,-0.379769 z m -0.158806,0.688318 c -7.63e-4,0.007 7.62e-4,6.3e-4 0,0.008 -0.03202,0.29595 -0.09856,0.866799 -0.226311,1.954197 -2.51e-4,0.002 2.61e-4,0.002 0,0.004 -0.102924,0.784168 -0.401256,1.233377 -0.670975,1.487407 -0.27019,0.254489 -0.508193,0.312519 -0.508193,0.312519 l -0.008,0.004 -0.008,0.004 c 0,0 -0.07537,0.0403 -0.134989,0.0396 -0.02981,-3.8e-4 -0.04888,-0.009 -0.06754,-0.0316 -0.01857,-0.0222 -0.03975,-0.0669 -0.03975,-0.158239 0,-0.39109 0.083,-1.936047 0.0834,-1.942327 0,-2e-5 0,-0.004 0,-0.004 10e-4,-0.006 0.06714,-0.391389 0.353352,-0.581519 0.262382,-0.174309 0.869354,-0.444669 1.226821,-1.095768 z"
     style="font-size:medium;font-style:normal;font-variant:normal;font-weight:normal;font-stretch:normal;text-indent:0;text-align:start;text-decoration:none;line-height:normal;letter-spacing:normal;word-spacing:normal;text-transform:none;direction:ltr;block-progression:tb;writing-mode:lr-tb;text-anchor:start;baseline-shift:baseline;color:#000000;fill:#000000;fill-opacity:1;fill-rule:nonzero;stroke:none;stroke-width:1;marker:none;visibility:visible;display:inline;overflow:visible;enable-background:accumulate;font-family:Sans;-inkscape-font-specification:Sans" /><path
     inkscape:connector-curvature="0"
     id="path135"
     d="m 1.266522,14.815574 0,0.379759 c 0,0 0.004,0.0195 0.004,0.0198 1.2e-4,0.004 -0.002,0.0294 0.0278,0.308559 0.03212,0.29726 0.09796,0.866289 0.226301,1.958157 l 0,0.004 c 0.105704,0.812018 0.420084,1.288857 0.710679,1.562567 0.276603,0.260509 0.519525,0.329529 0.543933,0.336249 10e-4,3.8e-4 0.01586,0.008 0.01586,0.008 l 0,-0.004 c 0.01275,0.008 0.08531,0.0567 0.186607,0.0554 0.0549,-7.6e-4 0.121792,-0.0214 0.166755,-0.0752 0.04496,-0.0538 0.06754,-0.13223 0.06754,-0.241309 0,-0.40967 -0.08732,-1.954197 -0.08732,-1.954197 l 0,-0.004 c 0,0 -0.06223,-0.446099 -0.408944,-0.676459 C 2.385321,16.270711 1.676981,16.013911 1.389709,15.175603 L 1.266642,14.815614 z m 0.158806,0.688318 c 0.357467,0.651099 0.960475,0.921459 1.222847,1.095778 0.286168,0.19012 0.352288,0.575129 0.353352,0.581509 0,0 0,0.004 0,0.004 3.81e-4,0.006 0.08732,1.551237 0.08732,1.942327 0,0.0913 -0.02118,0.136039 -0.03974,0.158239 -0.01857,0.0222 -0.03774,0.0313 -0.06755,0.0317 -0.05962,7.6e-4 -0.138954,-0.0396 -0.138954,-0.0396 l -0.008,-0.004 -0.008,-0.004 c 0,0 -0.234029,-0.058 -0.50423,-0.312519 -0.269718,-0.25403 -0.572015,-0.703229 -0.674948,-1.487397 -2.51e-4,-0.002 2.51e-4,-0.002 0,-0.004 -0.127794,-1.087398 -0.190361,-1.658257 -0.222337,-1.954207 -7.63e-4,-0.007 7.63e-4,-8.8e-4 0,-0.008 z"
     style="font-size:medium;font-style:normal;font-variant:normal;font-weight:normal;font-stretch:normal;text-indent:0;text-align:start;text-decoration:none;line-height:normal;letter-spacing:normal;word-spacing:normal;text-transform:none;direction:ltr;block-progression:tb;writing-mode:lr-tb;text-anchor:start;baseline-shift:baseline;color:#000000;fill:#000000;fill-opacity:1;fill-rule:nonzero;stroke:none;stroke-width:1;marker:none;visibility:visible;display:inline;overflow:visible;enable-background:accumulate;font-family:Sans;-inkscape-font-specification:Sans" /><g
     id="Fin"
     transform="matrix(0.12704891,0,0,0.12658774,-54.825574,-73.372572)"><path
       stroke-miterlimit="10"
       d="m 478.609,736.002 c 0,-10.331 6.48,-19.813 8.231,-19.813 1.751,0 8.334,9.482 8.334,19.813 0,10.331 -5.335,245.998 -8.209,245.998 -2.874,0 -8.356,-235.667 -8.356,-245.998 z"
       id="path154"
       style="fill:#c19069;fill-opacity:1;stroke:#000000;stroke-miterlimit:10"
       inkscape:connector-curvature="0" /></g></svg>