<?xml version="1.0" encoding="UTF-8" standalone="no"?>
<!-- Generator: Adobe Illustrator 15.1.0, SVG Export Plug-In . SVG Version: 6.00 Build 0)  -->

<svg
   xmlns:dc="http://purl.org/dc/elements/1.1/"
   xmlns:cc="http://creativecommons.org/ns#"
   xmlns:rdf="http://www.w3.org/1999/02/22-rdf-syntax-ns#"
   xmlns:svg="http://www.w3.org/2000/svg"
   xmlns="http://www.w3.org/2000/svg"
   xmlns:xlink="http://www.w3.org/1999/xlink"
   xmlns:sodipodi="http://sodipodi.sourceforge.net/DTD/sodipodi-0.dtd"
   xmlns:inkscape="http://www.inkscape.org/namespaces/inkscape"
   version="1.1"
   x="0px"
   y="0px"
   width="111.0002"
   height="124.99976"
   viewBox="0 0 111.0002 124.99976"
   enable-background="new 0 0 1000 1000"
   xml:space="preserve"
   id="svg2"
   inkscape:version="0.48.5 r10040"
   sodipodi:docname="A-320xxA3.svg"><metadata
     id="metadata160"><rdf:RDF><cc:Work
         rdf:about=""><dc:format>image/svg+xml</dc:format><dc:type
           rdf:resource="http://purl.org/dc/dcmitype/StillImage" /></cc:Work></rdf:RDF></metadata><defs
     id="defs158"><linearGradient
       id="linearGradient3832"><stop
         style="stop-color:#c19069;stop-opacity:1;"
         offset="0"
         id="stop3834" /><stop
         id="stop3840"
         offset="0.5"
         style="stop-color:#c19069;stop-opacity:1;" /><stop
         style="stop-color:#765337;stop-opacity:1;"
         offset="1"
         id="stop3836" /></linearGradient><linearGradient
       id="linearGradient3822"><stop
         style="stop-color:#765337;stop-opacity:1;"
         offset="0"
         id="stop3824" /><stop
         id="stop3830"
         offset="0.5"
         style="stop-color:#c19069;stop-opacity:1;" /><stop
         style="stop-color:#c19069;stop-opacity:1;"
         offset="1"
         id="stop3826" /></linearGradient><linearGradient
       id="linearGradient4032"><stop
         style="stop-color:#765337;stop-opacity:1"
         offset="0"
         id="stop4034" /><stop
         style="stop-color:#c19069;stop-opacity:1"
         offset="1"
         id="stop4036" /></linearGradient><linearGradient
       id="linearGradient4020"><stop
         style="stop-color:#765337;stop-opacity:1"
         offset="0"
         id="stop4022" /><stop
         id="stop4030"
         offset="0.36925456"
         style="stop-color:#c19069;stop-opacity:1;" /><stop
         id="stop4028"
         offset="0.62720484"
         style="stop-color:#c19069;stop-opacity:1;" /><stop
         style="stop-color:#765337;stop-opacity:1"
         offset="1"
         id="stop4024" /></linearGradient><linearGradient
       inkscape:collect="always"
       xlink:href="#linearGradient4020"
       id="linearGradient4026"
       x1="439.78299"
       y1="465.07999"
       x2="534"
       y2="465.07999"
       gradientUnits="userSpaceOnUse"
       gradientTransform="matrix(0.12704891,0,0,0.12658774,-6.3568245,-0.37274859)" /><linearGradient
       inkscape:collect="always"
       xlink:href="#linearGradient4032"
       id="linearGradient4038"
       x1="536"
       y1="447.83301"
       x2="584.39734"
       y2="447.83301"
       gradientUnits="userSpaceOnUse" /><linearGradient
       inkscape:collect="always"
       xlink:href="#linearGradient4032"
       id="linearGradient4046"
       x1="439.1781"
       y1="447.6665"
       x2="387.70541"
       y2="447.6665"
       gradientUnits="userSpaceOnUse" /><linearGradient
       inkscape:collect="always"
       xlink:href="#linearGradient3822"
       id="linearGradient3828"
       x1="57.511413"
       y1="106.66579"
       x2="76.039233"
       y2="106.66579"
       gradientUnits="userSpaceOnUse" /><linearGradient
       inkscape:collect="always"
       xlink:href="#linearGradient3832"
       id="linearGradient3838"
       x1="34.949941"
       y1="106.55313"
       x2="53.477761"
       y2="106.55313"
       gradientUnits="userSpaceOnUse" /></defs><sodipodi:namedview
     pagecolor="#ffffff"
     bordercolor="#666666"
     borderopacity="1"
     objecttolerance="10"
     gridtolerance="10"
     guidetolerance="10"
     inkscape:pageopacity="0"
     inkscape:pageshadow="2"
     inkscape:window-width="1920"
     inkscape:window-height="1060"
     id="namedview156"
     showgrid="false"
     inkscape:zoom="15.104"
     inkscape:cx="51.400773"
     inkscape:cy="26.879462"
     inkscape:window-x="-2"
     inkscape:window-y="-3"
     inkscape:window-maximized="1"
     inkscape:current-layer="svg2"
     fit-margin-top="1"
     fit-margin-left="1"
     fit-margin-right="1"
     fit-margin-bottom="1" /><g
     id="R_Turbine"
     transform="matrix(0.12704891,0,0,0.12658774,-6.3568245,-0.37274859)"><path
       stroke-miterlimit="10"
       d="m 636.375,373.375 c 0,0 -9.375,28 -13.125,28 -3.75,0 -16,-28 -16,-28"
       id="path5"
       style="fill:#c19069;fill-opacity:1;stroke:#000000;stroke-miterlimit:10"
       inkscape:connector-curvature="0" /><path
       stroke-miterlimit="10"
       d="m 619,373.375 h -13.875 l -4,-7.948 v -27.524 l -2.375,-2.778 v -23.75 l 3.375,-4.75 c 0,0 0,1.125 0,-12.25 0,-10.5 39.125,-12.25 39.125,0 0,14.75 0,12.25 0,12.25 l 3.375,4.75 v 23.75 l -2.375,2.778 v 27.524 l -4,7.948 H 624.375 619 z"
       id="path7"
       style="fill:#c19069;fill-opacity:1;stroke:#000000;stroke-miterlimit:10"
       inkscape:connector-curvature="0" /><path
       stroke-miterlimit="10"
       d="m 602.125,298.211 c 3.875,-3.875 32.375,-6.375 39.125,0.375"
       id="path9"
       style="fill:#c19069;fill-opacity:1;stroke:#000000;stroke-miterlimit:10"
       inkscape:connector-curvature="0" /><path
       stroke-miterlimit="10"
       d="m 600.877,337.711 c 4.086,-3.875 34.134,-6.375 41.25,0.375"
       id="path11"
       style="fill:#c19069;fill-opacity:1;stroke:#000000;stroke-miterlimit:10"
       inkscape:connector-curvature="0" /><path
       stroke-miterlimit="10"
       d="m 602.125,306.522 c 3.875,-3.875 32.375,-6.647 39.125,0.103"
       id="path13"
       style="fill:#c19069;fill-opacity:1;stroke:#000000;stroke-miterlimit:10"
       inkscape:connector-curvature="0" /><path
       stroke-miterlimit="10"
       d="m 624.5,298.667 c 3.5,0 5.667,4.333 5.667,4.333 0,0 0,56.334 0,59.667 0,3.333 4.946,14.473 4.946,14.473 l -18.179,-9.013 c 0,0 2.565,-3.293 2.565,-4.96 0,-1.667 0,-60.167 0,-60.167 0,0 1.501,-4.333 5.001,-4.333 z"
       id="path15"
       style="fill:#c19069;fill-opacity:1;stroke:#000000;stroke-miterlimit:10"
       inkscape:connector-curvature="0" /></g><polygon
     style="fill:url(#linearGradient4038);fill-opacity:1;stroke:none"
     id="polygon18"
     points="915.334,560.333 902.333,530.333 902.333,522.333 893,505 536,328 536,465.333 639.333,464 896.667,547.667 915.334,567.666 "
     stroke-miterlimit="10"
     transform="matrix(0.12704891,0,0,0.12658774,-6.3568245,-0.37274859)" /><path
     style="font-size:medium;font-style:normal;font-variant:normal;font-weight:normal;font-stretch:normal;text-indent:0;text-align:start;text-decoration:none;line-height:normal;letter-spacing:normal;word-spacing:normal;text-transform:none;direction:ltr;block-progression:tb;writing-mode:lr-tb;text-anchor:start;baseline-shift:baseline;color:#000000;fill:#000000;fill-opacity:1;fill-rule:nonzero;stroke:none;stroke-width:1;marker:none;visibility:visible;display:inline;overflow:visible;enable-background:accumulate;font-family:Sans;-inkscape-font-specification:Sans"
     d="m 61.67787,41.045184 0,0.10285 0,17.386037 0,0.0633 0.06353,0 13.121776,-0.170099 0.008,0 32.663484,10.5859 2.35437,2.515925 0.11117,0.11868 0,-0.16219 0,-0.925678 0,-0.0158 -0.008,-0.0119 -1.6437,-3.777853 0,-1.004788 0,-0.0158 -0.008,-0.0158 -1.18712,-2.195506 -0.008,-0.0158 -0.0199,-0.008 -45.356469,-22.406028 -0.09133,-0.0475 z m 0.127051,0.20175 45.245289,22.350648 1.17123,2.163856 0,1.000828 0,0.0119 0.004,0.0119 1.64767,3.789713 0,0.751618 -2.26306,-2.417035 -0.0119,-0.0119 -0.0159,-0.004 -32.691273,-10.58985 -0.01194,-0.004 -0.01194,0 -13.06221,0.1701 0,-17.223848 z"
     id="polygon4007"
     inkscape:connector-curvature="0" /><path
     inkscape:connector-curvature="0"
     id="path20"
     d="m 62.916594,41.658343 0,0.10285 0,1.368727 0,0.0396 0.03573,0.0198 8.841808,4.343542 0.07547,0.0396 0.01194,-0.0831 0.206449,-1.250048 0.008,-0.0475 -0.04366,-0.0198 -9.044292,-4.470132 -0.09133,-0.0435 z m 0.127051,0.20175 8.909303,4.402871 -0.182633,1.119518 -8.72667,-4.292122 0,-1.230267 z m 11.466159,5.526339 -0.01586,0.0791 -0.222336,1.004788 -0.01194,0.0475 0.04767,0.0237 6.558896,3.235894 0.04767,0.0237 8.13114,4.011243 0.06744,0.0317 8.881522,4.383102 0.04767,0.0237 8.182744,4.034983 0.0913,0.0435 0,-0.0989 0,-1.095778 0,-0.0396 -0.0357,-0.0158 -7.877043,-3.888623 -0.06353,-0.0356 -8.877548,-4.383102 -0.05159,-0.0277 -0.492326,-0.24131 -14.336674,-7.080997 -0.07146,-0.0356 z m 0.09133,0.18197 6.594635,3.259634 -0.289831,0.826778 -6.49935,-3.208204 0.194546,-0.878208 z m 6.69786,3.350624 8.008053,3.916302 -0.269979,0.830739 -8.012028,-3.955873 0.273954,-0.791168 z m -13.352051,3.880702 0,0.0633 0,0.22945 -6.205544,0 -0.06353,0 0,0.0633 0,2.405165 0,0.0633 0,0.909858 0,0.0633 0.06353,0 13.129715,-0.170099 20.955125,6.792217 0.05952,0.0198 0.01987,-0.0554 0.19851,-0.510309 0.02379,-0.0593 -0.06353,-0.0237 -0.583628,-0.19384 0.623332,-1.665416 0.02379,-0.0593 -0.05952,-0.0198 -4.974758,-1.879037 -0.04366,-0.0198 -4.490391,-1.697067 -0.06754,-0.0237 -4.950932,-1.871126 -0.0556,-0.0237 -4.728596,-1.788047 -0.06754,-0.0237 -0.01586,0.0673 -0.643184,2.492196 -1.095795,-0.36789 0,-0.0198 0,-2.634615 0,-0.0633 -0.06353,0 -6.86064,0 -0.06353,0 z m 21.471267,0.091 8.877548,4.387052 -0.262041,0.826778 -8.881512,-4.383101 0.266005,-0.830729 z m -21.344216,0.0356 6.733589,0 0,2.571315 -6.733589,0 0,-2.341875 0,-0.0633 0,-0.16615 z m -6.269064,0.29273 6.142013,0 0,2.278585 -6.142013,0 0,-2.278585 z m 14.971918,0.272959 4.6611,1.764317 -0.813903,2.163856 -4.470539,-1.495317 0.623342,-2.432856 z m 4.780212,1.811787 4.823891,1.823656 -0.956841,1.898817 -3.799555,-1.269838 -0.881398,-0.296689 0.813903,-2.155946 z m -19.75213,0.320419 6.142013,0 6.86064,0 0,0.676459 -13.002653,0.1701 0,-0.846559 z m 13.129704,0.0277 1.079918,0.359979 0.03974,0.0158 8.643298,2.891745 0.726556,0.24526 0.01194,0.004 0.05159,0.0158 9.88996,3.311054 0.0556,0.0198 0.528056,0.17802 -0.154842,0.387669 -20.871753,-6.760577 0,-0.668539 z m 11.569394,1.519047 4.482442,1.693117 -0.825816,1.748487 -4.609493,-1.542787 0.952867,-1.898817 z m 11.906868,0.16219 7.777774,3.845103 0,0.949408 -8.043789,-3.967733 0.266015,-0.826778 z m -7.305314,1.578397 4.855646,1.835517 -0.599515,1.606087 -5.081947,-1.701027 0.825816,-1.740577 z m 6.257161,2.223196 -0.02379,0.0593 -0.774209,2.195506 -0.02379,0.0633 0.06353,0.0198 9.119736,2.951075 0.0556,0.0198 0.0238,-0.0554 0.71863,-1.859257 0.0238,-0.0593 -0.0635,-0.0198 -9.060179,-3.291284 -0.05952,-0.0237 z m 0.07547,0.16219 8.941077,3.247763 -0.67495,1.740587 -8.996657,-2.915474 0.73053,-2.072876 z m 10.783277,3.453473 c 0,0 -0.0709,0.435719 -0.19454,0.925668 -0.0617,0.24498 -0.13549,0.505229 -0.22234,0.727879 -0.0868,0.22265 -0.18717,0.408019 -0.28586,0.506349 l 0.0913,0.091 c 0.12363,-0.1232 0.22382,-0.32351 0.31364,-0.553819 0.0898,-0.23032 0.16768,-0.491539 0.23028,-0.739749 0.12519,-0.496429 0.19057,-0.937538 0.19057,-0.937538 l -0.12308,-0.0198 z"
     style="font-size:medium;font-style:normal;font-variant:normal;font-weight:normal;font-stretch:normal;text-indent:0;text-align:start;text-decoration:none;line-height:normal;letter-spacing:normal;word-spacing:normal;text-transform:none;direction:ltr;block-progression:tb;writing-mode:lr-tb;text-anchor:start;baseline-shift:baseline;color:#000000;fill:#000000;fill-opacity:1;fill-rule:nonzero;stroke:none;stroke-width:1;marker:none;visibility:visible;display:inline;overflow:visible;enable-background:accumulate;font-family:Sans;-inkscape-font-specification:Sans" /><path
     inkscape:connector-curvature="0"
     style="fill:#c19069;fill-opacity:1;stroke:#000000;stroke-width:0.12681811;stroke-miterlimit:10"
     id="path46"
     d="m 69.914833,58.427642 c 0,0 0.254092,2.679105 0.508194,2.679105 0.254092,0 0.592931,-2.679105 0.592931,-2.679105 h -1.101125 z"
     stroke-miterlimit="10" /><path
     inkscape:connector-curvature="0"
     style="fill:#c19069;fill-opacity:1;stroke:#000000;stroke-width:0.12681811;stroke-miterlimit:10"
     id="path48"
     d="m 80.107964,60.060879 c 0,0 0.254092,2.857964 0.508194,2.857964 0.254102,0 0.592941,-2.501245 0.592941,-2.501245 l -1.101135,-0.356719 z"
     stroke-miterlimit="10" /><path
     inkscape:connector-curvature="0"
     style="fill:#c19069;fill-opacity:1;stroke:#000000;stroke-width:0.12681811;stroke-miterlimit:10"
     id="path50"
     d="m 91.731414,63.826222 c 0,0 0.254102,2.971144 0.508193,2.971144 0.254102,0 0.592942,-2.568215 0.592942,-2.568215 l -1.101135,-0.402929 z"
     stroke-miterlimit="10" /><g
     id="L_Turbine"
     transform="matrix(0.12704891,0,0,0.12658774,-6.3568245,-0.37274859)"><path
       stroke-miterlimit="10"
       d="m 337.225,373.208 c 0,0 9.375,28 13.125,28 3.75,0 16,-28 16,-28"
       id="path53"
       style="fill:#c19069;fill-opacity:1;stroke:#000000;stroke-miterlimit:10"
       inkscape:connector-curvature="0" /><path
       stroke-miterlimit="10"
       d="m 354.6,373.208 h 13.875 l 4,-7.948 v -27.524 l 2.375,-2.778 v -23.75 l -3.375,-4.75 c 0,0 0,1.125 0,-12.25 0,-10.5 -39.125,-12.25 -39.125,0 0,14.75 0,12.25 0,12.25 l -3.375,4.75 v 23.75 l 2.375,2.778 v 27.524 l 4,7.948 h 13.875 5.375 z"
       id="path55"
       style="fill:#c19069;fill-opacity:1;stroke:#000000;stroke-miterlimit:10"
       inkscape:connector-curvature="0" /><path
       stroke-miterlimit="10"
       d="M 371.475,298.044 C 367.6,294.169 339.1,291.669 332.35,298.419"
       id="path57"
       style="fill:#c19069;fill-opacity:1;stroke:#000000;stroke-miterlimit:10"
       inkscape:connector-curvature="0" /><path
       stroke-miterlimit="10"
       d="m 372.723,337.544 c -4.086,-3.875 -34.134,-6.375 -41.25,0.375"
       id="path59"
       style="fill:#c19069;fill-opacity:1;stroke:#000000;stroke-miterlimit:10"
       inkscape:connector-curvature="0" /><path
       stroke-miterlimit="10"
       d="M 371.475,306.355 C 367.6,302.48 339.1,299.708 332.35,306.458"
       id="path61"
       style="fill:#c19069;fill-opacity:1;stroke:#000000;stroke-miterlimit:10"
       inkscape:connector-curvature="0" /><path
       stroke-miterlimit="10"
       d="m 349.1,298.5 c -3.5,0 -5.667,4.333 -5.667,4.333 0,0 0,56.334 0,59.667 0,3.333 -4.946,14.473 -4.946,14.473 l 18.179,-9.013 c 0,0 -2.565,-3.293 -2.565,-4.96 0,-1.667 0,-60.167 0,-60.167 0,0 -1.501,-4.333 -5.001,-4.333 z"
       id="path63"
       style="fill:#c19069;fill-opacity:1;stroke:#000000;stroke-miterlimit:10"
       inkscape:connector-curvature="0" /></g><polygon
     style="fill:url(#linearGradient4046);fill-opacity:1;stroke:none"
     id="polygon66"
     points="58.391,560.166 71.392,530.166 71.392,522.166 80.725,504.834 437.725,327.833 437.725,465.167 334.392,463.833 77.058,547.5 58.391,567.5 "
     stroke-miterlimit="10"
     transform="matrix(0.12704891,0,0,0.12658774,-6.3568245,-0.37274859)" /><path
     style="font-size:medium;font-style:normal;font-variant:normal;font-weight:normal;font-stretch:normal;text-indent:0;text-align:start;text-decoration:none;line-height:normal;letter-spacing:normal;word-spacing:normal;text-transform:none;direction:ltr;block-progression:tb;writing-mode:lr-tb;text-anchor:start;baseline-shift:baseline;color:#000000;fill:#000000;fill-opacity:1;fill-rule:nonzero;stroke:none;stroke-width:1;marker:none;visibility:visible;display:inline;overflow:visible;enable-background:accumulate;font-family:Sans;-inkscape-font-specification:Sans"
     d="m 49.31839,41.025404 -0.09133,0.0435 -45.3564655,22.406028 -0.015878,0.0119 -0.011913,0.0158 -1.1871128,2.195506 -0.00401,0.0119 0,0.0158 0,0.996878 L 1.004015,70.512439 1,70.524339 l 0,0.0119 0,0.929628 0,0.16219 0.1071979,-0.11867 2.3662859,-2.523845 32.6515692,-10.57799 0.0079,0 13.121773,0.166149 0.06353,0.004 0,-0.0672 0,-17.382077 0,-0.10286 z m -0.127051,0.20175 0,17.219888 -13.062214,-0.16615 -0.0119,0 -0.0079,0 -32.6952428,10.59381 -0.015878,0.004 -0.011913,0.0119 -2.259089,2.413086 0,-0.759529 1.6436953,-3.777853 0.00793,-0.0119 0,-0.0158 0,-0.996878 1.1632584,-2.159896 45.2492531,-22.354598 z"
     id="polygon4016"
     inkscape:connector-curvature="0" /><path
     inkscape:connector-curvature="0"
     id="path68"
     d="m 48.079665,41.638563 -0.09133,0.0435 -9.044292,4.466172 -0.0397,0.0237 0.0039,0.0435 0.206454,1.250057 0.0119,0.087 0.07941,-0.0396 8.837837,-4.347502 0.03573,-0.0158 0,-0.0396 0,-1.372687 0,-0.0989 z m -0.127051,0.20175 0,1.230267 -8.726672,4.288162 -0.182632,-1.115558 8.909304,-4.402871 z m -11.466164,5.522389 -0.07147,0.0356 -14.777376,7.302527 -0.05162,0.0237 -0.04764,0.0237 -8.913276,4.402881 -0.03177,0.0158 -7.8770324,3.892573 -0.031765,0.0158 0,0.0396 0,1.091818 0,0.10285 0.091321,-0.0435 17.1079304,-8.441824 0.02382,-0.0119 0.04367,-0.0198 8.131129,-4.011253 0.04764,-0.0277 6.56287,-3.235894 0.04367,-0.0198 -0.0119,-0.0475 -0.218365,-1.008748 -0.01985,-0.0791 z m -0.09132,0.18592 0.194544,0.878208 -6.499346,3.208204 -0.28983,-0.826778 6.594632,-3.259634 z m -6.697859,3.346664 0.277919,0.795128 -8.015993,3.955873 -0.269978,-0.830739 8.008052,-3.920262 z m 6.368326,3.880712 0,0.0633 0,2.654385 -1.099767,0.37185 -0.639215,-2.492196 -0.01985,-0.0672 -0.06352,0.0237 -4.728602,1.788047 -0.05956,0.0237 -2.664057,1.004788 -2.28688,0.862379 -0.06352,0.0277 -4.522147,1.704977 -0.01588,0.008 -4.970789,1.879037 -0.05956,0.0237 0.01985,0.0593 0.623334,1.665416 -0.583631,0.19384 -0.06352,0.0198 0.02383,0.0633 0.198514,0.506359 0.01985,0.0554 0.05956,-0.0158 20.963071,-6.792217 13.121779,0.166139 0.06353,0.004 0,-0.0672 0,-0.969178 0,-0.0633 0,-2.341875 0,-0.0633 -0.06353,0 -6.201583,0 0,-0.2334 0,-0.0633 -0.06352,0 -6.860641,0 -0.06352,0 z m -14.487545,0.0949 0.269978,0.830729 -8.885483,4.379142 -0.262038,-0.822819 8.877543,-4.387052 z m 14.614594,0.0316 6.733593,0 0,0.17011 0,0.0633 0,2.341875 -6.733593,0 0,-2.575275 z m 6.860642,0.29669 6.138052,0 0,2.278585 -6.138052,0 0,-2.278585 z m -8.83387,0.272959 0.623334,2.432856 -4.466564,1.495317 -0.817877,-2.163856 4.661107,-1.764317 z m -4.780215,1.807827 0.817877,2.159906 -0.381147,0.126589 -4.303782,1.439938 -0.956837,-1.902777 4.823889,-1.823656 z m 6.753443,0.324389 6.733593,0 6.265101,0 0,0.842599 -12.998694,-0.16615 0,-0.676449 z m -0.127049,0.0237 0,0.668539 -20.879694,6.760577 -0.15087,-0.387669 0.528046,-0.17802 0.05558,-0.0198 5.205035,-1.740576 0.0675,-0.0237 4.617434,-1.542787 0.05162,-0.0198 2.826839,-0.945449 1.973229,-0.660628 0.05956,-0.0198 4.522146,-1.515098 0.05558,-0.0198 1.068004,-0.356029 z m -11.573362,1.523007 0.960808,1.894867 -4.613463,1.546737 -0.825819,-1.748487 4.478474,-1.693117 z m -11.906865,0.16219 0.266009,0.826778 -8.0398136,3.963783 0,-0.949408 7.7738046,-3.841153 z m 7.305313,1.574437 0.825818,1.744537 -5.081956,1.701027 -0.603483,-1.606087 4.859621,-1.839477 z m -6.253189,2.227156 -0.06352,0.0198 -9.0601749,3.291284 -0.063521,0.0237 0.023827,0.0593 0.7225905,1.859257 0.019852,0.0554 0.059556,-0.0198 9.1157584,-2.955035 0.06352,-0.0198 -0.02383,-0.0593 -0.774205,-2.195506 -0.01985,-0.0593 z m -0.07941,0.15823 0.734502,2.076836 -8.9966503,2.915474 -0.6789182,-1.740587 8.9410665,-3.251723 z m -10.783275,3.457433 -0.1230785,0.0198 c 0,0 0.069352,0.441119 0.1945438,0.937538 0.062597,0.24821 0.1364802,0.509429 0.226305,0.739749 0.089826,0.230309 0.1939758,0.426669 0.3176224,0.549859 l 0.087347,-0.087 C 3.3788615,68.792162 3.2785255,68.602813 3.1916895,68.380163 3.1048544,68.157513 3.031136,67.901214 2.9693538,67.656234 2.8457885,67.166285 2.77481,66.730566 2.77481,66.730566 z"
     style="font-size:medium;font-style:normal;font-variant:normal;font-weight:normal;font-stretch:normal;text-indent:0;text-align:start;text-decoration:none;line-height:normal;letter-spacing:normal;word-spacing:normal;text-transform:none;direction:ltr;block-progression:tb;writing-mode:lr-tb;text-anchor:start;baseline-shift:baseline;color:#000000;fill:#000000;fill-opacity:1;fill-rule:nonzero;stroke:none;stroke-width:1;marker:none;visibility:visible;display:inline;overflow:visible;enable-background:accumulate;font-family:Sans;-inkscape-font-specification:Sans" /><path
     inkscape:connector-curvature="0"
     style="fill:#c19069;fill-opacity:1;stroke:#000000;stroke-width:0.12681811;stroke-miterlimit:10"
     id="path94"
     d="m 41.082222,58.406622 c 0,0 -0.254098,2.679105 -0.508196,2.679105 -0.254098,0 -0.592937,-2.679105 -0.592937,-2.679105 h 1.101133 z"
     stroke-miterlimit="10" /><path
     inkscape:connector-curvature="0"
     style="fill:#c19069;fill-opacity:1;stroke:#000000;stroke-width:0.12681811;stroke-miterlimit:10"
     id="path96"
     d="m 30.889088,60.039739 c 0,0 -0.254098,2.857964 -0.508196,2.857964 -0.254098,0 -0.592937,-2.501245 -0.592937,-2.501245 l 1.101133,-0.356719 z"
     stroke-miterlimit="10" /><path
     inkscape:connector-curvature="0"
     style="fill:#c19069;fill-opacity:1;stroke:#000000;stroke-width:0.12681811;stroke-miterlimit:10"
     id="path98"
     d="m 19.265637,63.805212 c 0,0 -0.254098,2.971144 -0.508195,2.971144 -0.254098,0 -0.592938,-2.568345 -0.592938,-2.568345 l 1.101133,-0.402799 z"
     stroke-miterlimit="10" /><path
     inkscape:connector-curvature="0"
     style="fill:url(#linearGradient3828);fill-opacity:1;stroke:#000000;stroke-width:0.12681812000000001;stroke-miterlimit:10"
     id="path101"
     d="m 59.268892,98.42797 1.079916,1.411706 13.94222,9.513444 c 0,0 1.684796,1.14094 1.684796,2.19592 0,1.05498 0,3.35458 0,3.35458 l -18.401002,-5.1901 0.08474,-7.46868 1.609328,-3.81687 z"
     stroke-miterlimit="10" /><polygon
     style="fill:none;fill-opacity:1;stroke:#000000;stroke-miterlimit:10"
     id="polygon103"
     points="503.205,869.645 648.039,910.645 648.039,898.312 503.55,839.143 "
     stroke-miterlimit="10"
     transform="matrix(0.12704891,0,0,0.12658774,-6.3568245,-0.37274859)" /><path
     inkscape:connector-curvature="0"
     style="fill:none;fill-opacity:1;stroke:#000000;stroke-width:0.12681812000000001;stroke-miterlimit:10"
     id="path105"
     d="m 60.348808,99.839803 -0.465888,0.654077 14.038904,9.47294 0.369204,-0.61357 c -0.627875,-0.52572 -13.94222,-9.513447 -13.94222,-9.513447 z"
     stroke-miterlimit="10" /><path
     inkscape:connector-curvature="0"
     style="fill:url(#linearGradient3838);fill-opacity:1;stroke:#000000;stroke-width:0.12681812000000001;stroke-miterlimit:10"
     id="path108"
     d="m 51.720281,98.315307 -1.079915,1.411706 -13.942221,9.513447 c 0,0 -1.684795,1.14094 -1.684795,2.19592 0,1.05498 0,3.35457 0,3.35457 l 18.401002,-5.19009 -0.08474,-7.46868 -1.609329,-3.816873 z"
     stroke-miterlimit="10" /><polygon
     style="fill:none;fill-opacity:1;stroke:#000000;stroke-miterlimit:10"
     id="polygon110"
     points="470.458,868.754 325.624,909.754 325.624,897.421 470.113,838.252 "
     stroke-miterlimit="10"
     transform="matrix(0.12704891,0,0,0.12658774,-6.3568245,-0.37274859)" /><path
     inkscape:connector-curvature="0"
     style="fill:none;fill-opacity:1;stroke:#000000;stroke-width:0.12681812000000001;stroke-miterlimit:10"
     id="path112"
     d="m 50.640366,99.727013 0.465888,0.654077 -14.038905,9.47294 -0.369204,-0.61357 c 0.627876,-0.52572 13.942221,-9.513447 13.942221,-9.513447 z"
     stroke-miterlimit="10" /><path
     inkscape:connector-curvature="0"
     style="fill:url(#linearGradient4026);fill-opacity:1;stroke:none"
     id="path115"
     d="m 55.502024,115.93936 c -0.987684,0 -1.199472,-0.60788 -1.199472,-0.60788 0,0 -0.622669,-4.09562 -0.889216,-5.73113 -0.266547,-1.63552 -0.423587,-3.71636 -0.423587,-3.71636 l -0.156387,-3.91865 -1.156406,-3.513443 c -0.650359,-1.975907 -2.159825,-9.326983 -2.159825,-14.685953 0,-5.35896 0,-67.850903 0,-72.297924 0,-4.4470324 4.404268,-10.4060212 5.984893,-10.4060212 h 2.51e-4 c 1.580614,0 5.985023,5.9589888 5.985023,10.4060212 0,4.447021 0,66.938964 0,72.297924 0,5.35897 -1.509476,12.709916 -2.159836,14.685953 l -1.156395,3.513443 -0.156397,3.91865 c 0,0 -0.15704,2.08084 -0.423587,3.71636 -0.266547,1.63551 -0.889337,5.73113 -0.889337,5.73113 0,0 -0.211798,0.60788 -1.199471,0.60788 h -2.51e-4 z"
     stroke-miterlimit="10" /><path
     style="font-size:medium;font-style:normal;font-variant:normal;font-weight:normal;font-stretch:normal;text-indent:0;text-align:start;text-decoration:none;line-height:normal;letter-spacing:normal;word-spacing:normal;text-transform:none;direction:ltr;block-progression:tb;writing-mode:lr-tb;text-anchor:start;baseline-shift:baseline;color:#000000;fill:#000000;fill-opacity:1;fill-rule:nonzero;stroke:none;stroke-width:1;marker:none;visibility:visible;display:inline;overflow:visible;enable-background:accumulate;font-family:Sans;-inkscape-font-specification:Sans"
     d="m 55.500117,0.99993885 c -0.435219,0 -1.003912,0.38395935 -1.643704,1.01665815 -0.639781,0.6326988 -1.341587,1.5213471 -1.99307,2.5475752 -1.302988,2.0524562 -2.409964,4.6586613 -2.409964,6.9029878 l 0,72.297424 c 0,5.37081 1.507971,12.715396 2.163801,14.707913 l 1.151387,3.496993 0,0.004 0.158806,3.91235 0,0.004 c 0,0 0.157541,2.08245 0.424821,3.72247 0.266367,1.63441 0.889337,5.7281 0.889337,5.7281 l 0,0.008 0,0.004 c 0,0 0.06263,0.17077 0.250127,0.33229 0.1875,0.16153 0.50154,0.31647 1.008459,0.31647 l 0.004,0 c 0.506919,0 0.820949,-0.15494 1.008449,-0.31647 0.1875,-0.16152 0.250127,-0.33229 0.250127,-0.33229 l 0,-0.004 0,-0.008 c 0,0 0.622971,-4.09369 0.889337,-5.7281 0.26729,-1.64002 0.424821,-3.72247 0.424821,-3.72247 l 0,-0.004 0.158816,-3.91235 0,-0.004 1.151378,-3.496993 c 0.655839,-1.992637 2.16381,-9.337103 2.16381,-14.707913 l 0,-72.297424 c 0,-2.2443265 -1.106946,-4.8505316 -2.409963,-6.9029878 C 58.489402,3.5379441 57.787636,2.6492958 57.147825,2.016597 56.508023,1.3838982 55.93935,0.99993885 55.504131,0.99993885 l -0.004,0 z m 0,0.12658985 0.004,0 c 0.355089,0 0.925769,0.3574793 1.556347,0.9810481 0.630567,0.6235788 1.326051,1.5044472 1.973229,2.5238453 1.294346,2.0387962 2.390101,4.6330513 2.390101,6.8357379 l 0,72.297424 c 0,5.34713 -1.510962,12.708936 -2.155852,14.668353 l -1.155351,3.512813 -0.004,0.008 0,0.008 -0.158816,3.91631 c 0,0 0,0.004 0,0.004 -5.12e-4,0.007 -0.155454,2.0782 -0.420847,3.70664 l 0,0.004 c -0.267028,1.63883 -0.889346,5.7281 -0.889346,5.7281 -0.004,0.0118 -0.05289,0.12935 -0.210424,0.26504 -0.165309,0.14242 -0.444312,0.28878 -0.925076,0.28878 l -0.004,0 c -0.480755,0 -0.759757,-0.14636 -0.925077,-0.28878 -0.157511,-0.13569 -0.206168,-0.25323 -0.210423,-0.26504 0,0 -0.622609,-4.09543 -0.889336,-5.73205 -0.265403,-1.62845 -0.420356,-3.70011 -0.420857,-3.70665 l 0,-0.004 -0.158807,-3.9163 0,-0.008 0,-0.008 -1.159326,-3.512803 C 51.091352,96.4737 49.58038,89.111764 49.58038,83.764644 l 0,-72.297424 c 0,-2.2026966 1.095806,-4.7969417 2.390111,-6.8357379 C 52.617649,3.612084 53.313163,2.7312156 53.94372,2.1076368 54.574278,1.484058 55.144978,1.1265787 55.500067,1.1265787 z"
     id="path3998"
     inkscape:connector-curvature="0" /><path
     inkscape:connector-curvature="0"
     style="fill:#765337;fill-opacity:1;stroke:#000000;stroke-width:0.12681811;stroke-miterlimit:10"
     id="path117"
     d="m 61.487298,37.308251 c 0,0 1.143439,1.603487 1.016388,6.835737 0,5.65429 -1.016388,17.680127 -1.016388,17.680127 V 37.308251 z"
     stroke-miterlimit="10" /><path
     inkscape:connector-curvature="0"
     style="fill:#765337;fill-opacity:1;stroke:#000000;stroke-width:0.12681811;stroke-miterlimit:10"
     id="path119"
     d="m 49.517131,37.308251 c 0,0 -1.143449,1.603487 -1.016398,6.835737 0,5.65429 1.016398,17.680127 1.016398,17.680127 V 37.308251 z"
     stroke-miterlimit="10" /><path
     style="fill:#333d40;stroke:#000000;stroke-width:0.12681811;stroke-miterlimit:10"
     inkscape:connector-curvature="0"
     id="path121"
     d="m 55.729439,4.2265628 c 0,0.7173787 0,0.7173787 0,0.7173787 0,0 0.970651,0 2.076744,0.7173687 0,0 0.38025,0.1940596 0.970772,0 C 57.512819,4.4587224 56.587271,4.2265628 55.729439,4.2265628 z"
     stroke-miterlimit="10" /><path
     style="fill:#333d40;stroke:#000000;stroke-width:0.12681811;stroke-miterlimit:10"
     inkscape:connector-curvature="0"
     id="path123"
     d="m 59.24399,6.2056391 c -0.414815,-0.1012698 -0.615293,0.0675 -0.615293,0.0675 0,0 0.614148,0.8649784 0.783503,1.1392879 0.169364,0.2743195 0.825826,0.5696489 0.825826,0.5696489 0,0 -0.511124,-1.5063972 -0.994036,-1.7764067 z"
     stroke-miterlimit="10" /><path
     style="fill:#333d40;stroke:#000000;stroke-width:0.12681811;stroke-miterlimit:10"
     inkscape:connector-curvature="0"
     id="path125"
     d="m 59.729822,8.1086356 c 0,0 0.451789,0.1126598 0.663578,0.3658393 0.06403,0.1160798 0.26477,0.507869 0.331603,1.2587876 C 59.803891,8.8154942 59.729822,8.1086356 59.729822,8.1086356 z"
     stroke-miterlimit="10" /><path
     style="fill:#333d40;stroke:#000000;stroke-width:0.12681811;stroke-miterlimit:10"
     inkscape:connector-curvature="0"
     id="path127"
     d="m 55.27498,4.2265628 c 0,0.7173787 0,0.7173787 0,0.7173787 0,0 -0.968494,0 -2.072419,0.7173687 0,0 -0.379366,0.1940596 -0.968624,0 1.261467,-1.2025878 2.184987,-1.4347474 3.041043,-1.4347474 z"
     stroke-miterlimit="10" /><path
     style="fill:#333d40;stroke:#000000;stroke-width:0.12681811;stroke-miterlimit:10"
     inkscape:connector-curvature="0"
     id="path129"
     d="m 51.766913,6.2056391 c 0.414815,-0.1012698 0.615292,0.0675 0.615292,0.0675 0,0 -0.614158,0.8649784 -0.783513,1.1392879 -0.169354,0.2743195 -0.825816,0.5696489 -0.825816,0.5696489 0,0 0.511115,-1.5063972 0.994037,-1.7764067 z"
     stroke-miterlimit="10" /><path
     style="fill:#333d40;stroke:#000000;stroke-width:0.12681811;stroke-miterlimit:10"
     inkscape:connector-curvature="0"
     id="path131"
     d="m 51.28107,8.1086356 c 0,0 -0.451779,0.1126598 -0.663577,0.3658393 -0.06403,0.1160798 -0.264771,0.507869 -0.331593,1.2587876 0.921101,-0.9177683 0.99517,-1.6246269 0.99517,-1.6246269 z"
     stroke-miterlimit="10" /><path
     inkscape:connector-curvature="0"
     id="path133"
     d="m 61.276865,87.815397 -0.123077,0.359979 c -0.287272,0.838318 -0.999576,1.095118 -1.33401,1.317307 -0.346727,0.23035 -0.404969,0.676449 -0.404969,0.676449 l -0.004,0 0,0.004 c 0,0 -0.0834,1.544537 -0.0834,1.954197 0,0.109089 0.02258,0.187559 0.06754,0.241309 0.04496,0.0537 0.107861,0.0745 0.162781,0.0752 0.101327,0.001 0.17382,-0.0478 0.186597,-0.0554 l 0,0.004 c 0,0 0.01475,-0.008 0.01586,-0.008 0.02399,-0.007 0.271013,-0.0755 0.547898,-0.336249 0.290594,-0.2737 0.604985,-0.750549 0.710678,-1.562567 l 0,-0.004 c 0.128326,-1.091858 0.194185,-1.660897 0.226301,-1.958157 0.03021,-0.279169 0.0277,-0.304259 0.0278,-0.308559 1e-5,-2.5e-4 0.004,-0.0198 0.004,-0.0198 l 0,-0.379769 z m -0.158806,0.688318 c -7.63e-4,0.007 7.62e-4,6.3e-4 0,0.008 -0.03202,0.29595 -0.09856,0.866799 -0.226311,1.954197 -2.51e-4,0.002 2.61e-4,0.002 0,0.004 -0.102924,0.784168 -0.401256,1.233377 -0.670975,1.487407 -0.27019,0.254489 -0.508193,0.312519 -0.508193,0.312519 l -0.008,0.004 -0.008,0.004 c 0,0 -0.07537,0.0403 -0.134989,0.0396 -0.02981,-3.8e-4 -0.04888,-0.009 -0.06754,-0.0316 -0.01857,-0.0222 -0.03975,-0.0669 -0.03975,-0.158239 0,-0.39109 0.083,-1.936047 0.0834,-1.942327 0,-2e-5 0,-0.004 0,-0.004 0.001,-0.006 0.06714,-0.391389 0.353352,-0.581519 0.262382,-0.174309 0.869354,-0.444669 1.226821,-1.095768 z"
     style="font-size:medium;font-style:normal;font-variant:normal;font-weight:normal;font-stretch:normal;text-indent:0;text-align:start;text-decoration:none;line-height:normal;letter-spacing:normal;word-spacing:normal;text-transform:none;direction:ltr;block-progression:tb;writing-mode:lr-tb;text-anchor:start;baseline-shift:baseline;color:#000000;fill:#000000;fill-opacity:1;fill-rule:nonzero;stroke:none;stroke-width:1;marker:none;visibility:visible;display:inline;overflow:visible;enable-background:accumulate;font-family:Sans;-inkscape-font-specification:Sans" /><path
     inkscape:connector-curvature="0"
     id="path135"
     d="m 49.735272,87.815397 0,0.379759 c 0,0 0.004,0.0195 0.004,0.0198 1.2e-4,0.004 -0.002,0.0294 0.0278,0.308559 0.03212,0.29726 0.09796,0.866289 0.226301,1.958157 l 0,0.004 c 0.105704,0.812018 0.420084,1.288857 0.710679,1.562567 0.276603,0.260509 0.519525,0.329529 0.543933,0.336249 10e-4,3.8e-4 0.01586,0.008 0.01586,0.008 l 0,-0.004 c 0.01275,0.008 0.08531,0.0567 0.186607,0.0554 0.0549,-7.6e-4 0.121792,-0.0214 0.166755,-0.0752 0.04496,-0.0538 0.06754,-0.13223 0.06754,-0.241309 0,-0.40967 -0.08732,-1.954197 -0.08732,-1.954197 l 0,-0.004 c 0,0 -0.06223,-0.446099 -0.408944,-0.676459 -0.334412,-0.222189 -1.042752,-0.478989 -1.330024,-1.317297 l -0.123067,-0.359989 z m 0.158806,0.688318 c 0.357467,0.651099 0.960475,0.921459 1.222847,1.095778 0.286168,0.19012 0.352288,0.575129 0.353352,0.581509 0,0 0,0.004 0,0.004 3.81e-4,0.006 0.08732,1.551237 0.08732,1.942327 0,0.0913 -0.02118,0.136039 -0.03974,0.158239 -0.01857,0.0222 -0.03774,0.0313 -0.06755,0.0317 -0.05962,7.6e-4 -0.138954,-0.0396 -0.138954,-0.0396 l -0.008,-0.004 -0.008,-0.004 c 0,0 -0.234029,-0.058 -0.50423,-0.312519 -0.269718,-0.25403 -0.572015,-0.703229 -0.674948,-1.487397 -2.51e-4,-0.002 2.51e-4,-0.002 0,-0.004 -0.127794,-1.087398 -0.190361,-1.658257 -0.222337,-1.954207 -7.63e-4,-0.007 7.63e-4,-8.8e-4 0,-0.008 z"
     style="font-size:medium;font-style:normal;font-variant:normal;font-weight:normal;font-stretch:normal;text-indent:0;text-align:start;text-decoration:none;line-height:normal;letter-spacing:normal;word-spacing:normal;text-transform:none;direction:ltr;block-progression:tb;writing-mode:lr-tb;text-anchor:start;baseline-shift:baseline;color:#000000;fill:#000000;fill-opacity:1;fill-rule:nonzero;stroke:none;stroke-width:1;marker:none;visibility:visible;display:inline;overflow:visible;enable-background:accumulate;font-family:Sans;-inkscape-font-specification:Sans" /><path
     inkscape:connector-curvature="0"
     id="path137"
     d="m 59.394957,12.123838 c -0.06534,0.026 -0.1213,0.0712 -0.166755,0.11867 -0.09093,0.0949 -0.146893,0.20175 -0.146893,0.20175 l -0.008,0.0158 0,0.0158 0,2.405165 0,0.008 0.004,0.008 c 0,0 0.04306,0.16735 0.123086,0.34811 0.07999,0.180769 0.188374,0.383589 0.357317,0.454929 0.138181,0.0584 0.607594,0.235619 1.044188,0.502389 0.218292,0.133389 0.428193,0.290789 0.579663,0.458889 0.15147,0.1681 0.242179,0.345309 0.242179,0.530079 l 0.127051,0 0,-3.164694 c 0,-0.19947 -0.116062,-0.400989 -0.281883,-0.601289 -0.165832,-0.2003 -0.384987,-0.401819 -0.611428,-0.581509 -0.452873,-0.359389 -0.929623,-0.642879 -1.044179,-0.708099 -0.07246,-0.0412 -0.153085,-0.0379 -0.218372,-0.0119 z m 0.04767,0.11867 c 0.03894,-0.0155 0.06845,-0.0181 0.107199,0.004 0.107771,0.0614 0.583888,0.347519 1.028301,0.700189 0.222206,0.176339 0.438782,0.368429 0.59554,0.557779 0.156759,0.189349 0.250128,0.373529 0.250128,0.522169 l 0,2.765155 c -0.04356,-0.0744 -0.08983,-0.14981 -0.150867,-0.21757 -0.164166,-0.18219 -0.378704,-0.341309 -0.60348,-0.478659 -0.449571,-0.27471 -0.935414,-0.459949 -1.06404,-0.514269 -0.09786,-0.0413 -0.214207,-0.21684 -0.289832,-0.387669 -0.07206,-0.1629 -0.111304,-0.29882 -0.115137,-0.31252 l 0,-0.004 0,-2.381425 c 0.006,-0.0113 0.05209,-0.0921 0.123076,-0.16615 0.03794,-0.0396 0.08019,-0.0715 0.119112,-0.087 z"
     style="font-size:medium;font-style:normal;font-variant:normal;font-weight:normal;font-stretch:normal;text-indent:0;text-align:start;text-decoration:none;line-height:normal;letter-spacing:normal;word-spacing:normal;text-transform:none;direction:ltr;block-progression:tb;writing-mode:lr-tb;text-anchor:start;baseline-shift:baseline;color:#000000;fill:#000000;fill-opacity:1;fill-rule:nonzero;stroke:none;stroke-width:1;marker:none;visibility:visible;display:inline;overflow:visible;enable-background:accumulate;font-family:Sans;-inkscape-font-specification:Sans" /><path
     inkscape:connector-curvature="0"
     id="path139"
     d="m 51.609241,12.123838 c -0.06524,-0.026 -0.14595,-0.0294 -0.218363,0.0119 -0.114565,0.0652 -0.591315,0.34871 -1.044188,0.708099 -0.226431,0.17969 -0.445596,0.381209 -0.611418,0.581509 -0.165832,0.2003 -0.281893,0.401819 -0.281893,0.601289 l 0,3.164694 0.127051,0 c 0,-0.18477 0.09464,-0.361979 0.246153,-0.530079 0.15147,-0.1681 0.357397,-0.3255 0.575689,-0.458889 0.436604,-0.26677 0.906007,-0.444039 1.044188,-0.502389 0.168943,-0.0713 0.277306,-0.27416 0.357327,-0.454929 0.07999,-0.18076 0.123076,-0.34811 0.123076,-0.34811 l 0.004,-0.008 0,-0.008 0,-2.405165 0,-0.0158 -0.008,-0.0158 c 0,0 -0.056,-0.10686 -0.146902,-0.20175 -0.04547,-0.0474 -0.101469,-0.0926 -0.166755,-0.11867 z m -0.04767,0.11867 c 0.03894,0.0155 0.08119,0.0475 0.119112,0.087 0.07096,0.0741 0.116774,0.15488 0.123076,0.16615 l 0,2.381435 0,0.004 c -0.004,0.0137 -0.04306,0.14962 -0.115137,0.31251 -0.07568,0.170829 -0.191977,0.346359 -0.289832,0.387679 -0.128626,0.0543 -0.614469,0.239559 -1.06404,0.514259 -0.224786,0.13735 -0.439314,0.296469 -0.60348,0.478659 -0.06102,0.0678 -0.107259,0.14321 -0.150867,0.21757 l 0,-2.765145 c 0,-0.14865 0.09735,-0.33282 0.254092,-0.522179 0.156769,-0.18935 0.36937,-0.38144 0.591576,-0.557779 0.444412,-0.35267 0.92053,-0.638819 1.028301,-0.700189 0.03874,-0.0221 0.06825,-0.0195 0.107199,-0.004 z"
     style="font-size:medium;font-style:normal;font-variant:normal;font-weight:normal;font-stretch:normal;text-indent:0;text-align:start;text-decoration:none;line-height:normal;letter-spacing:normal;word-spacing:normal;text-transform:none;direction:ltr;block-progression:tb;writing-mode:lr-tb;text-anchor:start;baseline-shift:baseline;color:#000000;fill:#000000;fill-opacity:1;fill-rule:nonzero;stroke:none;stroke-width:1;marker:none;visibility:visible;display:inline;overflow:visible;enable-background:accumulate;font-family:Sans;-inkscape-font-specification:Sans" /><path
     inkscape:connector-curvature="0"
     id="path141"
     d="m 61.384064,44.324598 c -0.07276,-0.007 -0.166675,-0.004 -0.266005,0.0316 -0.09936,0.036 -0.20118,0.10816 -0.273954,0.2334 -0.07276,0.125239 -0.119102,0.300819 -0.119102,0.545909 0,0.245089 0.04637,0.420669 0.119102,0.545909 0.07276,0.125239 0.174623,0.197409 0.273954,0.233399 0.19866,0.072 0.389081,0.008 0.389081,0.008 l 0.04366,-0.0119 0,-0.0475 0,-1.455757 0,-0.0475 -0.04366,-0.0119 c 0,0 -0.05028,-0.0169 -0.123076,-0.0237 z m -0.01194,0.12658 c 0.03151,0.003 0.03442,0.004 0.05159,0.008 l 0,1.352897 c -0.04908,0.0107 -0.149914,0.0263 -0.266016,-0.0158 -0.07537,-0.0273 -0.148207,-0.0778 -0.206449,-0.178009 -0.05821,-0.10024 -0.09926,-0.253 -0.09926,-0.482619 0,-0.22962 0.04105,-0.38238 0.09926,-0.48262 0.05821,-0.100239 0.131096,-0.150709 0.206459,-0.178009 0.07537,-0.0273 0.156127,-0.0288 0.214388,-0.0237 z"
     style="font-size:medium;font-style:normal;font-variant:normal;font-weight:normal;font-stretch:normal;text-indent:0;text-align:start;text-decoration:none;line-height:normal;letter-spacing:normal;word-spacing:normal;text-transform:none;direction:ltr;block-progression:tb;writing-mode:lr-tb;text-anchor:start;baseline-shift:baseline;color:#000000;fill:#000000;fill-opacity:1;fill-rule:nonzero;stroke:none;stroke-width:1;marker:none;visibility:visible;display:inline;overflow:visible;enable-background:accumulate;font-family:Sans;-inkscape-font-specification:Sans" /><path
     inkscape:connector-curvature="0"
     id="path143"
     d="m 61.384064,46.413294 c -0.07276,-0.007 -0.166675,-0.004 -0.266005,0.0316 -0.09936,0.036 -0.20118,0.10816 -0.273954,0.2334 -0.07276,0.125239 -0.119102,0.300819 -0.119102,0.545909 0,0.245089 0.04637,0.420669 0.119102,0.545909 0.07276,0.125249 0.174623,0.197409 0.273954,0.233399 0.19866,0.072 0.389081,0.008 0.389081,0.008 l 0.04366,-0.0158 0,-0.0435 0,-1.455757 0,-0.0475 -0.04366,-0.0158 c 0,0 -0.05028,-0.013 -0.123076,-0.0198 z m -0.01194,0.12659 c 0.03151,0.003 0.03442,0.004 0.05159,0.008 l 0,1.348947 c -0.04888,0.0107 -0.149643,0.0303 -0.266016,-0.0119 -0.07537,-0.0273 -0.148207,-0.0778 -0.206449,-0.178019 -0.05821,-0.10024 -0.09926,-0.253 -0.09926,-0.482619 0,-0.22962 0.04105,-0.38237 0.09926,-0.482619 0.05821,-0.10024 0.131096,-0.1507 0.206459,-0.17801 0.07537,-0.0273 0.156127,-0.0288 0.214388,-0.0237 z"
     style="font-size:medium;font-style:normal;font-variant:normal;font-weight:normal;font-stretch:normal;text-indent:0;text-align:start;text-decoration:none;line-height:normal;letter-spacing:normal;word-spacing:normal;text-transform:none;direction:ltr;block-progression:tb;writing-mode:lr-tb;text-anchor:start;baseline-shift:baseline;color:#000000;fill:#000000;fill-opacity:1;fill-rule:nonzero;stroke:none;stroke-width:1;marker:none;visibility:visible;display:inline;overflow:visible;enable-background:accumulate;font-family:Sans;-inkscape-font-specification:Sans" /><path
     inkscape:connector-curvature="0"
     id="path145"
     d="m 49.620134,44.324598 c -0.07276,0.007 -0.123086,0.0237 -0.123086,0.0237 l -0.04366,0.0119 0,0.0475 0,1.455757 0,0.0475 0.04366,0.0119 c 0,0 0.194405,0.0641 0.393066,-0.008 0.09936,-0.036 0.197205,-0.10815 0.269979,-0.233389 0.07276,-0.12525 0.119102,-0.30082 0.119102,-0.545909 0,-0.24509 -0.04637,-0.42067 -0.119102,-0.545909 -0.07276,-0.12525 -0.170649,-0.19741 -0.269979,-0.2334 -0.09936,-0.036 -0.197226,-0.0385 -0.26998,-0.0317 z m 0.01586,0.12658 c 0.05821,-0.005 0.13506,-0.004 0.210423,0.0237 0.07537,0.0273 0.148208,0.0778 0.206459,0.178009 0.05821,0.10024 0.09926,0.253 0.09926,0.48262 0,0.229619 -0.04105,0.382379 -0.09926,0.482619 -0.05821,0.100239 -0.131095,0.150709 -0.206459,0.178009 -0.117456,0.0426 -0.218011,0.0265 -0.266005,0.0158 l 0,-1.352897 c 0.01716,-0.004 0.02308,-0.005 0.0556,-0.008 z"
     style="font-size:medium;font-style:normal;font-variant:normal;font-weight:normal;font-stretch:normal;text-indent:0;text-align:start;text-decoration:none;line-height:normal;letter-spacing:normal;word-spacing:normal;text-transform:none;direction:ltr;block-progression:tb;writing-mode:lr-tb;text-anchor:start;baseline-shift:baseline;color:#000000;fill:#000000;fill-opacity:1;fill-rule:nonzero;stroke:none;stroke-width:1;marker:none;visibility:visible;display:inline;overflow:visible;enable-background:accumulate;font-family:Sans;-inkscape-font-specification:Sans" /><path
     inkscape:connector-curvature="0"
     id="path147"
     d="m 49.620134,46.413294 c -0.07276,0.007 -0.123086,0.0198 -0.123086,0.0198 l -0.04366,0.0158 0,0.0475 0,1.455757 0,0.0435 0.04366,0.0158 c 0,0 0.194405,0.0641 0.393066,-0.008 0.09936,-0.036 0.197205,-0.10815 0.269979,-0.233399 0.07276,-0.12524 0.119102,-0.30082 0.119102,-0.545909 0,-0.24509 -0.04637,-0.42067 -0.119102,-0.545909 -0.07276,-0.12524 -0.170649,-0.19741 -0.269979,-0.2334 -0.09936,-0.036 -0.197226,-0.0385 -0.26998,-0.0316 z m 0.01586,0.12659 c 0.05821,-0.005 0.13506,-0.004 0.210423,0.0237 0.07537,0.0273 0.148208,0.0778 0.206459,0.17801 0.05821,0.100249 0.09926,0.252999 0.09926,0.482619 0,0.229619 -0.04105,0.382379 -0.09926,0.482619 -0.05821,0.10024 -0.131095,0.150709 -0.206459,0.178009 -0.117677,0.0426 -0.218201,0.0225 -0.266005,0.0119 l 0,-1.348947 c 0.01716,-0.004 0.02308,-0.005 0.0556,-0.008 z"
     style="font-size:medium;font-style:normal;font-variant:normal;font-weight:normal;font-stretch:normal;text-indent:0;text-align:start;text-decoration:none;line-height:normal;letter-spacing:normal;word-spacing:normal;text-transform:none;direction:ltr;block-progression:tb;writing-mode:lr-tb;text-anchor:start;baseline-shift:baseline;color:#000000;fill:#000000;fill-opacity:1;fill-rule:nonzero;stroke:none;stroke-width:1;marker:none;visibility:visible;display:inline;overflow:visible;enable-background:accumulate;font-family:Sans;-inkscape-font-specification:Sans" /><path
     inkscape:connector-curvature="0"
     id="path149"
     d="m 55.504081,69.693571 c -0.101348,0 -0.203739,0.054 -0.266005,0.166139 -0.06223,0.11211 -0.09524,0.28031 -0.09524,0.522179 0,0.24187 0.03332,0.702209 0.08732,1.107638 0.027,0.20272 0.05861,0.389229 0.09525,0.530089 0.01837,0.0704 0.03663,0.12835 0.05952,0.17406 0.01144,0.0229 0.02258,0.0458 0.03974,0.0633 0.01716,0.0175 0.04687,0.0317 0.07939,0.0317 0.03252,0 0.05821,-0.0141 0.07547,-0.0317 0.01716,-0.0175 0.0282,-0.0404 0.03974,-0.0633 0.02288,-0.0457 0.04125,-0.10363 0.05952,-0.17406 0.03663,-0.14086 0.06825,-0.327369 0.09524,-0.530089 0.054,-0.405429 0.08732,-0.865768 0.08732,-1.107638 0,-0.241869 -0.03302,-0.410069 -0.09524,-0.522179 -0.06223,-0.1121 -0.160643,-0.166139 -0.262041,-0.166139 z m 0,0.126589 c 0.06233,0 0.105864,0.0218 0.150878,0.10285 0.04496,0.0811 0.07939,0.22883 0.07939,0.458879 0,0.23005 -0.03412,0.692149 -0.08732,1.091818 -0.0266,0.19984 -0.05701,0.382709 -0.09133,0.514259 -0.01716,0.0658 -0.03593,0.11904 -0.05159,0.15033 -10e-4,0.003 -0.003,0.002 -0.004,0.004 -8.83e-4,-0.002 8.93e-4,-0.002 0,-0.004 -0.01566,-0.0313 -0.03453,-0.0846 -0.05159,-0.15033 -0.03422,-0.13155 -0.06473,-0.314419 -0.09133,-0.514259 -0.05319,-0.399669 -0.08732,-0.861768 -0.08732,-1.091818 0,-0.230049 0.03443,-0.377809 0.07939,-0.458879 0.04506,-0.0811 0.09254,-0.10285 0.154842,-0.10285 z"
     style="font-size:medium;font-style:normal;font-variant:normal;font-weight:normal;font-stretch:normal;text-indent:0;text-align:start;text-decoration:none;line-height:normal;letter-spacing:normal;word-spacing:normal;text-transform:none;direction:ltr;block-progression:tb;writing-mode:lr-tb;text-anchor:start;baseline-shift:baseline;color:#000000;fill:#000000;fill-opacity:1;fill-rule:nonzero;stroke:none;stroke-width:1;marker:none;visibility:visible;display:inline;overflow:visible;enable-background:accumulate;font-family:Sans;-inkscape-font-specification:Sans" /><path
     inkscape:connector-curvature="0"
     id="path151"
     d="m 55.504081,12.594587 c -0.0823,0 -0.168632,0.0449 -0.218362,0.1345 -0.04978,0.0896 -0.07547,0.2167 -0.07547,0.403499 0,0.18674 0.02599,0.538989 0.06755,0.850509 0.02078,0.15576 0.04707,0.302319 0.07547,0.411409 0.01425,0.0546 0.02921,0.0978 0.04767,0.1345 0.009,0.0184 0.01696,0.0363 0.03172,0.0514 0.01485,0.0152 0.04135,0.0316 0.07146,0.0316 0.03011,0 0.05269,-0.0165 0.06755,-0.0316 0.01485,-0.0152 0.02258,-0.0331 0.03171,-0.0514 0.01837,-0.0367 0.03342,-0.08 0.04767,-0.1345 0.0284,-0.10908 0.0547,-0.255659 0.07547,-0.411409 0.04155,-0.3115 0.06755,-0.663709 0.06755,-0.850509 0,-0.186809 -0.02569,-0.313929 -0.07547,-0.403499 -0.04978,-0.0896 -0.132109,-0.1345 -0.214397,-0.1345 z m 0,0.12659 c 0.04326,0 0.07076,0.009 0.103235,0.0672 0.03252,0.0585 0.05952,0.16918 0.05952,0.344159 0,0.17498 -0.0268,0.528949 -0.06754,0.834689 -0.02037,0.15287 -0.04547,0.295809 -0.07146,0.395579 -0.009,0.0359 -0.01887,0.0565 -0.0278,0.0791 -0.009,-0.0226 -0.01455,-0.0437 -0.02379,-0.0791 -0.02599,-0.0998 -0.05109,-0.242709 -0.07146,-0.395579 -0.04075,-0.30576 -0.06754,-0.659779 -0.06754,-0.834689 0,-0.174989 0.0271,-0.285639 0.05952,-0.344159 0.03252,-0.0585 0.06383,-0.0672 0.107199,-0.0672 z"
     style="font-size:medium;font-style:normal;font-variant:normal;font-weight:normal;font-stretch:normal;text-indent:0;text-align:start;text-decoration:none;line-height:normal;letter-spacing:normal;word-spacing:normal;text-transform:none;direction:ltr;block-progression:tb;writing-mode:lr-tb;text-anchor:start;baseline-shift:baseline;color:#000000;fill:#000000;fill-opacity:1;fill-rule:nonzero;stroke:none;stroke-width:1;marker:none;visibility:visible;display:inline;overflow:visible;enable-background:accumulate;font-family:Sans;-inkscape-font-specification:Sans" /><g
     id="Fin"
     transform="matrix(0.12704891,0,0,0.12658774,-6.3568245,-0.37274859)"><path
       stroke-miterlimit="10"
       d="m 478.609,736.002 c 0,-10.331 6.48,-19.813 8.231,-19.813 1.751,0 8.334,9.482 8.334,19.813 0,10.331 -5.335,245.998 -8.209,245.998 -2.874,0 -8.356,-235.667 -8.356,-245.998 z"
       id="path154"
       style="fill:#c19069;fill-opacity:1;stroke:#000000;stroke-miterlimit:10"
       inkscape:connector-curvature="0" /></g></svg>