<?xml version="1.0" encoding="UTF-8" standalone="no"?>
<!-- Generator: Adobe Illustrator 15.1.0, SVG Export Plug-In . SVG Version: 6.00 Build 0)  -->

<svg
   xmlns:dc="http://purl.org/dc/elements/1.1/"
   xmlns:cc="http://creativecommons.org/ns#"
   xmlns:rdf="http://www.w3.org/1999/02/22-rdf-syntax-ns#"
   xmlns:svg="http://www.w3.org/2000/svg"
   xmlns="http://www.w3.org/2000/svg"
   xmlns:xlink="http://www.w3.org/1999/xlink"
   xmlns:sodipodi="http://sodipodi.sourceforge.net/DTD/sodipodi-0.dtd"
   xmlns:inkscape="http://www.inkscape.org/namespaces/inkscape"
   version="1.1"
   x="0px"
   y="0px"
   width="21"
   height="27"
   viewBox="0 0 21 27"
   enable-background="new 0 0 1000 1000"
   xml:space="preserve"
   id="svg2"
   inkscape:version="0.48.5 r10040"
   sodipodi:docname="A_320_tail_R.svg"><metadata
     id="metadata160"><rdf:RDF><cc:Work
         rdf:about=""><dc:format>image/svg+xml</dc:format><dc:type
           rdf:resource="http://purl.org/dc/dcmitype/StillImage" /><dc:title></dc:title></cc:Work></rdf:RDF></metadata><defs
     id="defs158"><linearGradient
       id="linearGradient4032"><stop
         style="stop-color:#765337;stop-opacity:1"
         offset="0"
         id="stop4034" /><stop
         style="stop-color:#c19069;stop-opacity:1"
         offset="1"
         id="stop4036" /></linearGradient><linearGradient
       id="linearGradient4020"><stop
         style="stop-color:#765337;stop-opacity:1"
         offset="0"
         id="stop4022" /><stop
         id="stop4030"
         offset="0.36925456"
         style="stop-color:#c19069;stop-opacity:1;" /><stop
         id="stop4028"
         offset="0.62720484"
         style="stop-color:#c19069;stop-opacity:1;" /><stop
         style="stop-color:#765337;stop-opacity:1"
         offset="1"
         id="stop4024" /></linearGradient><linearGradient
       inkscape:collect="always"
       xlink:href="#linearGradient4020"
       id="linearGradient4026"
       x1="439.78299"
       y1="465.07999"
       x2="534"
       y2="465.07999"
       gradientUnits="userSpaceOnUse"
       gradientTransform="matrix(0.12704891,0,0,0.12658774,-6.3568245,-0.37274859)" /><linearGradient
       inkscape:collect="always"
       xlink:href="#linearGradient4032"
       id="linearGradient4038"
       x1="536"
       y1="447.83301"
       x2="584.39734"
       y2="447.83301"
       gradientUnits="userSpaceOnUse" /><linearGradient
       inkscape:collect="always"
       xlink:href="#linearGradient4032"
       id="linearGradient4046"
       x1="439.1781"
       y1="447.6665"
       x2="387.70541"
       y2="447.6665"
       gradientUnits="userSpaceOnUse"
       gradientTransform="matrix(0.12704891,0,0,0.12658774,-6.3568244,-0.37274592)" /><linearGradient
       inkscape:collect="always"
       xlink:href="#linearGradient4032"
       id="linearGradient4193"
       gradientUnits="userSpaceOnUse"
       gradientTransform="matrix(0.12704891,0,0,0.12658774,-35.450574,-36.260273)"
       x1="439.1781"
       y1="447.6665"
       x2="387.70541"
       y2="447.6665" /></defs><sodipodi:namedview
     pagecolor="#ffffff"
     bordercolor="#666666"
     borderopacity="1"
     objecttolerance="10"
     gridtolerance="10"
     guidetolerance="10"
     inkscape:pageopacity="0"
     inkscape:pageshadow="2"
     inkscape:window-width="1920"
     inkscape:window-height="1060"
     id="namedview156"
     showgrid="false"
     inkscape:zoom="15.104"
     inkscape:cx="15.086582"
     inkscape:cy="8.6840734"
     inkscape:window-x="-2"
     inkscape:window-y="-3"
     inkscape:window-maximized="1"
     inkscape:current-layer="svg2"
     fit-margin-top="1"
     fit-margin-left="1"
     fit-margin-right="1"
     fit-margin-bottom="1" /><path
     style="fill:url(#linearGradient4193);fill-opacity:1;stroke:none"
     d="M 20.15625,5.237473 1,14.706223 l 1.6875,9.15625 4.34375,-1.40625 13.125,0.15625 0,-17.375 z"
     id="polygon66"
     inkscape:connector-curvature="0" /><path
     style="font-size:medium;font-style:normal;font-variant:normal;font-weight:normal;font-stretch:normal;text-indent:0;text-align:start;text-decoration:none;line-height:normal;letter-spacing:normal;word-spacing:normal;text-transform:none;direction:ltr;block-progression:tb;writing-mode:lr-tb;text-anchor:start;baseline-shift:baseline;color:#000000;fill:#000000;fill-opacity:1;fill-rule:nonzero;stroke:none;stroke-width:1;marker:none;visibility:visible;display:inline;overflow:visible;enable-background:accumulate;font-family:Sans;-inkscape-font-specification:Sans"
     d="M 20.21875,5.143723 20.125,5.174973 1,14.612473 l 0.03125,0.15625 19.0625,-9.4375 0,17.21875 -13.0625,-0.15625 -0.03125,0 -4.3125,1.40625 0.03125,0.125 4.3125,-1.40625 13.125,0.15625 0.0625,0 0,-0.0625 0,-17.375 0,-0.09375 z"
     id="polygon4016"
     inkscape:connector-curvature="0" /><path
     style="font-size:medium;font-style:normal;font-variant:normal;font-weight:normal;font-stretch:normal;text-indent:0;text-align:start;text-decoration:none;line-height:normal;letter-spacing:normal;word-spacing:normal;text-transform:none;direction:ltr;block-progression:tb;writing-mode:lr-tb;text-anchor:start;baseline-shift:baseline;color:#000000;fill:#000000;fill-opacity:1;fill-rule:nonzero;stroke:none;stroke-width:1;marker:none;visibility:visible;display:inline;overflow:visible;enable-background:accumulate;font-family:Sans;-inkscape-font-specification:Sans"
     d="m 19,5.737473 -0.09375,0.0625 -9.0625,4.46875 -0.03125,0.03125 0,0.03125 0.21875,1.25 0,0.09375 0.09375,-0.0625 8.8125,-4.34375 0.0625,0 0,-0.03125 0,-1.375 0,-0.125 z m -0.15625,0.21875 0,1.21875 -8.71875,4.28125 -0.1875,-1.09375 8.90625,-4.40625 z M 7.40625,11.487473 7.3125,11.518723 1,14.612473 l 0.03125,0.15625 6.28125,-3.09375 0.1875,0.875 -6.3125,3.09375 0.03125,0.125 6.375,-3.125 0.0625,-0.03125 -0.03125,-0.0625 -0.21875,-1 0,-0.0625 z m -0.4375,7.40625 0,0.0625 0,2.65625 -1.09375,0.375 -0.65625,-2.5 0,-0.0625 -0.0625,0.03125 -3.0625,1.15625 0.03125,0.125 3,-1.15625 0.625,2.4375 -3.1875,1.0625 0.03125,0.125 3.25,-1.09375 0.0625,-0.03125 1.0625,-0.34375 0,0.65625 -4.28125,1.40625 0.03125,0.125 4.3125,-1.40625 13.125,0.15625 0.0625,0 0,-0.0625 0,-0.96875 0,-0.0625 0,-2.34375 0,-0.0625 -0.0625,0 -6.1875,0 0,-0.21875 0,-0.0625 -0.0625,0 -6.875,0 -0.0625,0 z m 0.125,0.125 6.75,0 0,0.15625 0,0.0625 0,2.34375 -6.75,0 0,-2.5625 z m 6.875,0.28125 6.125,0 0,2.28125 -6.125,0 0,-2.28125 z m -6.875,2.40625 6.75,0 6.25,0 0,0.84375 -13,-0.15625 0,-0.6875 z"
     id="path68"
     inkscape:connector-curvature="0" /><path
     inkscape:connector-curvature="0"
     style="fill:#c19069;fill-opacity:1;stroke:#000000;stroke-width:0.12681811;stroke-miterlimit:10"
     id="path94"
     d="m 11.988472,22.519098 c 0,0 -0.254098,2.679105 -0.508196,2.679105 -0.254098,0 -0.592937,-2.679105 -0.592937,-2.679105 h 1.101133 z"
     stroke-miterlimit="10" /><path
     inkscape:connector-curvature="0"
     style="fill:#765337;fill-opacity:1;stroke:#000000;stroke-width:0.12681811;stroke-miterlimit:10"
     id="path119"
     d="m 20.423381,1.420727 c 0,0 -1.143449,1.603487 -1.016398,6.835737 0,5.65429 1.016398,17.680127 1.016398,17.680127 V 1.420727 z"
     stroke-miterlimit="10" /></svg>