<?xml version="1.0" encoding="UTF-8" standalone="no"?>
<!-- Generator: Adobe Illustrator 15.1.0, SVG Export Plug-In . SVG Version: 6.00 Build 0)  -->

<svg
   xmlns:dc="http://purl.org/dc/elements/1.1/"
   xmlns:cc="http://creativecommons.org/ns#"
   xmlns:rdf="http://www.w3.org/1999/02/22-rdf-syntax-ns#"
   xmlns:svg="http://www.w3.org/2000/svg"
   xmlns="http://www.w3.org/2000/svg"
   xmlns:xlink="http://www.w3.org/1999/xlink"
   xmlns:sodipodi="http://sodipodi.sourceforge.net/DTD/sodipodi-0.dtd"
   xmlns:inkscape="http://www.inkscape.org/namespaces/inkscape"
   version="1.1"
   x="0px"
   y="0px"
   width="33"
   height="23.120001"
   viewBox="0 0 33 23.120001"
   enable-background="new 0 0 1000 1000"
   xml:space="preserve"
   id="svg2"
   inkscape:version="0.48.5 r10040"
   sodipodi:docname="A_320_wing_L_2.svg"><metadata
     id="metadata160"><rdf:RDF><cc:Work
         rdf:about=""><dc:format>image/svg+xml</dc:format><dc:type
           rdf:resource="http://purl.org/dc/dcmitype/StillImage" /><dc:title></dc:title></cc:Work></rdf:RDF></metadata><defs
     id="defs158"><linearGradient
       id="linearGradient4032"><stop
         style="stop-color:#765337;stop-opacity:1"
         offset="0"
         id="stop4034" /><stop
         style="stop-color:#c19069;stop-opacity:1"
         offset="1"
         id="stop4036" /></linearGradient><linearGradient
       id="linearGradient4020"><stop
         style="stop-color:#765337;stop-opacity:1"
         offset="0"
         id="stop4022" /><stop
         id="stop4030"
         offset="0.36925456"
         style="stop-color:#c19069;stop-opacity:1;" /><stop
         id="stop4028"
         offset="0.62720484"
         style="stop-color:#c19069;stop-opacity:1;" /><stop
         style="stop-color:#765337;stop-opacity:1"
         offset="1"
         id="stop4024" /></linearGradient><linearGradient
       inkscape:collect="always"
       xlink:href="#linearGradient4020"
       id="linearGradient4026"
       x1="439.78299"
       y1="465.07999"
       x2="534"
       y2="465.07999"
       gradientUnits="userSpaceOnUse"
       gradientTransform="matrix(0.12704891,0,0,0.12658774,-6.3568245,-0.37274859)" /><linearGradient
       inkscape:collect="always"
       xlink:href="#linearGradient4032"
       id="linearGradient4038"
       x1="536"
       y1="447.83301"
       x2="584.39734"
       y2="447.83301"
       gradientUnits="userSpaceOnUse" /><linearGradient
       inkscape:collect="always"
       xlink:href="#linearGradient4032"
       id="linearGradient4046"
       x1="439.1781"
       y1="447.6665"
       x2="387.70541"
       y2="447.6665"
       gradientUnits="userSpaceOnUse" /><linearGradient
       inkscape:collect="always"
       xlink:href="#linearGradient4032"
       id="linearGradient4237"
       gradientUnits="userSpaceOnUse"
       x1="439.1781"
       y1="447.6665"
       x2="387.70541"
       y2="447.6665"
       gradientTransform="matrix(0.12704891,0,0,0.12658774,-6.3568244,-0.37274592)" /><linearGradient
       inkscape:collect="always"
       xlink:href="#linearGradient4032"
       id="linearGradient4242"
       gradientUnits="userSpaceOnUse"
       gradientTransform="matrix(-0.12704891,0,0,0.12658774,39.169324,-49.877747)"
       x1="439.1781"
       y1="447.6665"
       x2="387.70541"
       y2="447.6665" /></defs><sodipodi:namedview
     pagecolor="#ffffff"
     bordercolor="#666666"
     borderopacity="1"
     objecttolerance="10"
     gridtolerance="10"
     guidetolerance="10"
     inkscape:pageopacity="0"
     inkscape:pageshadow="2"
     inkscape:window-width="1920"
     inkscape:window-height="1060"
     id="namedview156"
     showgrid="false"
     inkscape:zoom="15.104"
     inkscape:cx="46.458077"
     inkscape:cy="15.186284"
     inkscape:window-x="-2"
     inkscape:window-y="-3"
     inkscape:window-maximized="1"
     inkscape:current-layer="svg2"
     fit-margin-top="1"
     fit-margin-left="1"
     fit-margin-right="1"
     fit-margin-bottom="1" /><path
     style="fill:url(#linearGradient4242);fill-opacity:1;stroke:none"
     d="m 2.71875,1.0887491 26.1875,12.9374999 1.1875,2.1875 0,1.03125 1.65625,3.78125 0,0.9375 -2.375,-2.53125 -28.34375,-9.1875 1.6875,-9.1562499 z"
     id="polygon66"
     inkscape:connector-curvature="0" /><path
     style="font-size:medium;font-style:normal;font-variant:normal;font-weight:normal;font-stretch:normal;text-indent:0;text-align:start;text-decoration:none;line-height:normal;letter-spacing:normal;word-spacing:normal;text-transform:none;direction:ltr;block-progression:tb;writing-mode:lr-tb;text-anchor:start;baseline-shift:baseline;color:#000000;fill:#000000;fill-opacity:1;fill-rule:nonzero;stroke:none;stroke-width:1;marker:none;visibility:visible;display:inline;overflow:visible;enable-background:accumulate;font-family:Sans;-inkscape-font-specification:Sans"
     d="M 2.71875,0.99499909 28.9375,13.963749 l 0.03125,0.03125 1.1875,2.1875 0,0.03125 0,1 1.65625,3.78125 0,0.03125 0,0.9375 0,0.15625 -0.09375,-0.125 -2.375,-2.5 L 1,10.307499 l 0.03125,-0.125 28.375,9.1875 0.03125,0 2.25,2.4375 0,-0.78125 -1.65625,-3.75 0,-0.03125 0,-1 L 28.875,14.088749 2.6875,1.1512491 2.71875,0.99499909 z"
     id="polygon4016"
     inkscape:connector-curvature="0" /><path
     style="font-size:medium;font-style:normal;font-variant:normal;font-weight:normal;font-stretch:normal;text-indent:0;text-align:start;text-decoration:none;line-height:normal;letter-spacing:normal;word-spacing:normal;text-transform:none;direction:ltr;block-progression:tb;writing-mode:lr-tb;text-anchor:start;baseline-shift:baseline;color:#000000;fill:#000000;fill-opacity:1;fill-rule:nonzero;stroke:none;stroke-width:1;marker:none;visibility:visible;display:inline;overflow:visible;enable-background:accumulate;font-family:Sans;-inkscape-font-specification:Sans"
     d="m 2.71875,0.99499909 8.46875,4.18750001 0.03125,0.03125 0.0625,0.03125 8.90625,4.40625 0.03125,0 7.875,3.9062499 0.03125,0 0,0.0625 0,1.09375 0,0.09375 -0.09375,-0.03125 -17.09375,-8.4687499 -0.03125,0 -0.03125,-0.03125 -8.15625,-4 -0.03125,-0.03125 -0.1875,-0.09375 0.03125,-0.125 0.1875,0.09375 L 3,1.3074991 2.6875,1.1512491 2.71875,0.99499909 z M 3.125,1.4012491 l -0.28125,0.78125 8,3.96875 0.28125,-0.84375 -8,-3.90625 z m 8.125,3.96875 -0.28125,0.8125 8.875,4.4062499 0.28125,-0.8437499 -8.875,-4.375 z m -9.625,1.625 1.6875,0.625 0.03125,0.03125 2.6875,1 2.28125,0.84375 0.0625,0.03125 4.53125,1.7187499 4.96875,1.875 0.0625,0.03125 -0.03125,0.0625 -0.59375,1.65625 0.5625,0.1875 0.0625,0.03125 -0.03125,0.0625 -0.1875,0.5 -0.03125,0.0625 -0.03125,-0.03125 L 1,10.307499 l 0.03125,-0.125 16.59375,5.375 0.15625,-0.40625 -0.53125,-0.15625 -0.0625,-0.03125 -5.1875,-1.75 -0.09375,0 -4.59375,-1.5625 -0.0625,0 -2.8125,-0.96875 -2,-0.65625 -0.03125,0 -1.28125,-0.4374999 0.03125,-0.125 1.28125,0.4375 0.8125,-2.15625 -1.65625,-0.625 0.03125,-0.125 z m 1.75,0.78125 -0.8125,2.15625 0.375,0.1249999 4.3125,1.4375 0.9375,-1.9062499 -4.8125,-1.8125 z m 4.9375,1.875 -0.9375,1.8749999 4.59375,1.5625 0.84375,-1.75 -4.5,-1.6874999 z m 11.90625,0.15625 -0.25,0.8124999 8.03125,3.96875 0,-0.9375 -7.78125,-3.8437499 z m -7.3125,1.5624999 -0.8125,1.75 5.09375,1.71875 0.59375,-1.625 -4.875,-1.84375 z m 6.34375,2.25 9.0625,3.3125 0.0625,0 -0.03125,0.0625 -0.71875,1.875 -0.03125,0.0625 -0.0625,-0.03125 -9.125,-2.96875 -0.0625,0 0.03125,-0.0625 0.78125,-2.1875 0.03125,-0.0625 0.0625,0 z m 0,0.15625 -0.71875,2.0625 9,2.90625 0.65625,-1.71875 -8.9375,-3.25 z m 10.78125,3.4375 0.125,0.03125 c 0,0 -0.06231,0.441081 -0.1875,0.9375 -0.0626,0.24821 -0.128925,0.51968 -0.21875,0.75 -0.08983,0.230309 -0.188853,0.40806 -0.3125,0.53125 l -0.09375,-0.09375 c 0.09869,-0.0983 0.194414,-0.27735 0.28125,-0.5 0.08684,-0.22265 0.156968,-0.47377 0.21875,-0.71875 0.123565,-0.489949 0.1875,-0.9375 0.1875,-0.9375 z"
     id="path68"
     inkscape:connector-curvature="0" /><path
     inkscape:connector-curvature="0"
     style="fill:#c19069;fill-opacity:1;stroke:#000000;stroke-width:0.12681811;stroke-miterlimit:10"
     id="path96"
     d="m 1.923412,10.534741 c 0,0 0.254098,2.857964 0.508196,2.857964 0.254098,0 0.592937,-2.501245 0.592937,-2.501245 L 1.923412,10.534741 z"
     stroke-miterlimit="10" /><path
     inkscape:connector-curvature="0"
     style="fill:#c19069;fill-opacity:1;stroke:#000000;stroke-width:0.12681811;stroke-miterlimit:10"
     id="path98"
     d="m 13.546863,14.300214 c 0,0 0.254098,2.971144 0.508195,2.971144 0.254098,0 0.592938,-2.568345 0.592938,-2.568345 l -1.101133,-0.402799 z"
     stroke-miterlimit="10" /></svg>