<?xml version="1.0" encoding="UTF-8" standalone="no"?>
<!-- Generator: Adobe Illustrator 15.1.0, SVG Export Plug-In . SVG Version: 6.00 Build 0)  -->

<svg
   xmlns:dc="http://purl.org/dc/elements/1.1/"
   xmlns:cc="http://creativecommons.org/ns#"
   xmlns:rdf="http://www.w3.org/1999/02/22-rdf-syntax-ns#"
   xmlns:svg="http://www.w3.org/2000/svg"
   xmlns="http://www.w3.org/2000/svg"
   xmlns:xlink="http://www.w3.org/1999/xlink"
   xmlns:sodipodi="http://sodipodi.sourceforge.net/DTD/sodipodi-0.dtd"
   xmlns:inkscape="http://www.inkscape.org/namespaces/inkscape"
   version="1.1"
   x="0px"
   y="0px"
   width="14"
   height="41"
   viewBox="0 0 14 41"
   enable-background="new 0 0 1000 1000"
   xml:space="preserve"
   id="svg2"
   inkscape:version="0.48.5 r10040"
   sodipodi:docname="A_320_fuselage_1.svg"><metadata
     id="metadata160"><rdf:RDF><cc:Work
         rdf:about=""><dc:format>image/svg+xml</dc:format><dc:type
           rdf:resource="http://purl.org/dc/dcmitype/StillImage" /></cc:Work></rdf:RDF></metadata><defs
     id="defs158"><linearGradient
       id="linearGradient4032"><stop
         style="stop-color:#765337;stop-opacity:1"
         offset="0"
         id="stop4034" /><stop
         style="stop-color:#c19069;stop-opacity:1"
         offset="1"
         id="stop4036" /></linearGradient><linearGradient
       id="linearGradient4020"><stop
         style="stop-color:#765337;stop-opacity:1"
         offset="0"
         id="stop4022" /><stop
         id="stop4030"
         offset="0.36925456"
         style="stop-color:#c19069;stop-opacity:1;" /><stop
         id="stop4028"
         offset="0.62720484"
         style="stop-color:#c19069;stop-opacity:1;" /><stop
         style="stop-color:#765337;stop-opacity:1"
         offset="1"
         id="stop4024" /></linearGradient><linearGradient
       inkscape:collect="always"
       xlink:href="#linearGradient4032"
       id="linearGradient4038"
       x1="536"
       y1="447.83301"
       x2="584.39734"
       y2="447.83301"
       gradientUnits="userSpaceOnUse" /><linearGradient
       inkscape:collect="always"
       xlink:href="#linearGradient4032"
       id="linearGradient4046"
       x1="439.1781"
       y1="447.6665"
       x2="387.70541"
       y2="447.6665"
       gradientUnits="userSpaceOnUse" /><linearGradient
       inkscape:collect="always"
       xlink:href="#linearGradient4020"
       id="linearGradient4269"
       gradientUnits="userSpaceOnUse"
       gradientTransform="matrix(0.12704891,0,0,0.12658774,-54.825574,-0.74774678)"
       x1="439.78299"
       y1="465.07999"
       x2="534"
       y2="465.07999" /></defs><sodipodi:namedview
     pagecolor="#ffffff"
     bordercolor="#666666"
     borderopacity="1"
     objecttolerance="10"
     gridtolerance="10"
     guidetolerance="10"
     inkscape:pageopacity="0"
     inkscape:pageshadow="2"
     inkscape:window-width="1920"
     inkscape:window-height="1060"
     id="namedview156"
     showgrid="false"
     inkscape:zoom="7.552"
     inkscape:cx="13.916949"
     inkscape:cy="-32.122432"
     inkscape:window-x="-2"
     inkscape:window-y="-3"
     inkscape:window-maximized="1"
     inkscape:current-layer="svg2"
     fit-margin-top="1"
     fit-margin-left="1"
     fit-margin-right="1"
     fit-margin-bottom="1" /><path
     style="fill:url(#linearGradient4269);fill-opacity:1;stroke:none"
     d="m 7.03125,0.6874991 c -1.580625,0 -5.96875,5.9592177 -5.96875,10.4062499 l 0,28.90625 11.96875,0 0,-28.90625 c 0,-4.4470322 -4.419386,-10.4062499 -6,-10.4062499 z"
     id="path115"
     inkscape:connector-curvature="0" /><path
     style="font-size:medium;font-style:normal;font-variant:normal;font-weight:normal;font-stretch:normal;text-indent:0;text-align:start;text-decoration:none;line-height:normal;letter-spacing:normal;word-spacing:normal;text-transform:none;direction:ltr;block-progression:tb;writing-mode:lr-tb;text-anchor:start;baseline-shift:baseline;color:#000000;fill:#000000;fill-opacity:1;fill-rule:nonzero;stroke:none;stroke-width:1;marker:none;visibility:visible;display:inline;overflow:visible;enable-background:accumulate;font-family:Sans;-inkscape-font-specification:Sans"
     d="M 7.03125,0.62499909 C 6.596031,0.62499909 6.014792,1.0235503 5.375,1.6562491 4.735219,2.2889479 4.057733,3.161271 3.40625,4.1874991 2.103262,6.2399553 1,8.8494226 1,11.093749 l 0,28.90625 0.125,0 0,-28.90625 C 1.125,8.8910525 2.205695,6.2887953 3.5,4.2499991 4.147158,3.230601 4.838193,2.3423279 5.46875,1.7187491 c 0.630558,-0.6235788 1.207411,-0.96875 1.5625,-0.96875 0.355089,0 0.931922,0.3451812 1.5625,0.96875 0.630567,0.6235788 1.321572,1.5118519 1.96875,2.53125 1.294346,2.0387962 2.40625,4.6410634 2.40625,6.8437499 l 0,28.90625 0.125,0 0,-28.90625 c 0,-2.2443264 -1.103233,-4.8537937 -2.40625,-6.9062499 -0.65149,-1.0262281 -1.360189,-1.8985512 -2,-2.53125 C 8.047698,1.0235503 7.466469,0.62499909 7.03125,0.62499909 z"
     id="path3998"
     inkscape:connector-curvature="0" /><path
     style="fill:#333d40;stroke:#000000;stroke-width:0.12681811;stroke-miterlimit:10"
     inkscape:connector-curvature="0"
     id="path121"
     d="m 7.260689,3.8515646 c 0,0.7173787 0,0.7173787 0,0.7173787 0,0 0.970651,0 2.076744,0.7173687 0,0 0.38025,0.1940596 0.970772,0 C 9.044069,4.0837242 8.118521,3.8515646 7.260689,3.8515646 z"
     stroke-miterlimit="10" /><path
     style="fill:#333d40;stroke:#000000;stroke-width:0.12681811;stroke-miterlimit:10"
     inkscape:connector-curvature="0"
     id="path123"
     d="m 10.77524,5.8306409 c -0.414815,-0.1012698 -0.615293,0.0675 -0.615293,0.0675 0,0 0.614148,0.8649784 0.783503,1.1392879 0.169364,0.2743195 0.825826,0.5696489 0.825826,0.5696489 0,0 -0.511124,-1.5063972 -0.994036,-1.7764067 z"
     stroke-miterlimit="10" /><path
     style="fill:#333d40;stroke:#000000;stroke-width:0.12681811;stroke-miterlimit:10"
     inkscape:connector-curvature="0"
     id="path125"
     d="m 11.261072,7.7336374 c 0,0 0.451789,0.1126598 0.663578,0.3658393 0.06403,0.1160798 0.26477,0.507869 0.331603,1.2587876 C 11.335141,8.440496 11.261072,7.7336374 11.261072,7.7336374 z"
     stroke-miterlimit="10" /><path
     style="fill:#333d40;stroke:#000000;stroke-width:0.12681811;stroke-miterlimit:10"
     inkscape:connector-curvature="0"
     id="path127"
     d="m 6.80623,3.8515646 c 0,0.7173787 0,0.7173787 0,0.7173787 0,0 -0.968494,0 -2.072419,0.7173687 0,0 -0.379366,0.1940596 -0.968624,0 C 5.026654,4.0837242 5.950174,3.8515646 6.80623,3.8515646 z"
     stroke-miterlimit="10" /><path
     style="fill:#333d40;stroke:#000000;stroke-width:0.12681811;stroke-miterlimit:10"
     inkscape:connector-curvature="0"
     id="path129"
     d="m 3.298163,5.8306409 c 0.414815,-0.1012698 0.615292,0.0675 0.615292,0.0675 0,0 -0.614158,0.8649784 -0.783513,1.1392879 -0.169354,0.2743195 -0.825816,0.5696489 -0.825816,0.5696489 0,0 0.511115,-1.5063972 0.994037,-1.7764067 z"
     stroke-miterlimit="10" /><path
     style="fill:#333d40;stroke:#000000;stroke-width:0.12681811;stroke-miterlimit:10"
     inkscape:connector-curvature="0"
     id="path131"
     d="m 2.81232,7.7336374 c 0,0 -0.451779,0.1126598 -0.663577,0.3658393 C 2.084713,8.2155565 1.883972,8.6073457 1.81715,9.3582643 2.738251,8.440496 2.81232,7.7336374 2.81232,7.7336374 z"
     stroke-miterlimit="10" /><path
     inkscape:connector-curvature="0"
     id="path137"
     d="m 10.926207,11.74884 c -0.06534,0.026 -0.1213,0.0712 -0.166755,0.11867 -0.09093,0.0949 -0.146893,0.20175 -0.146893,0.20175 l -0.008,0.0158 0,0.0158 0,2.405165 0,0.008 0.004,0.008 c 0,0 0.04306,0.16735 0.123086,0.34811 0.07999,0.180769 0.188374,0.383589 0.357317,0.454929 0.138181,0.0584 0.607594,0.235619 1.044188,0.502389 0.218292,0.133389 0.428193,0.290789 0.579663,0.458889 0.15147,0.1681 0.242179,0.345309 0.242179,0.530079 l 0.127051,0 0,-3.164694 c 0,-0.19947 -0.116062,-0.400989 -0.281883,-0.601289 -0.165832,-0.2003 -0.384987,-0.401819 -0.611428,-0.581509 -0.452873,-0.359389 -0.929623,-0.642879 -1.044179,-0.708099 -0.07246,-0.0412 -0.153085,-0.0379 -0.218372,-0.0119 z m 0.04767,0.11867 c 0.03894,-0.0155 0.06845,-0.0181 0.107199,0.004 0.107771,0.0614 0.583888,0.347519 1.028301,0.700189 0.222206,0.176339 0.438782,0.368429 0.59554,0.557779 0.156759,0.189349 0.250128,0.373529 0.250128,0.522169 l 0,2.765155 c -0.04356,-0.0744 -0.08983,-0.14981 -0.150867,-0.21757 -0.164166,-0.18219 -0.378704,-0.341309 -0.60348,-0.478659 -0.449571,-0.27471 -0.935414,-0.459949 -1.06404,-0.514269 -0.09786,-0.0413 -0.214207,-0.21684 -0.289832,-0.387669 -0.07206,-0.1629 -0.111304,-0.29882 -0.115137,-0.31252 l 0,-0.004 0,-2.381425 c 0.006,-0.0113 0.05209,-0.0921 0.123076,-0.16615 0.03794,-0.0396 0.08019,-0.0715 0.119112,-0.087 z"
     style="font-size:medium;font-style:normal;font-variant:normal;font-weight:normal;font-stretch:normal;text-indent:0;text-align:start;text-decoration:none;line-height:normal;letter-spacing:normal;word-spacing:normal;text-transform:none;direction:ltr;block-progression:tb;writing-mode:lr-tb;text-anchor:start;baseline-shift:baseline;color:#000000;fill:#000000;fill-opacity:1;fill-rule:nonzero;stroke:none;stroke-width:1;marker:none;visibility:visible;display:inline;overflow:visible;enable-background:accumulate;font-family:Sans;-inkscape-font-specification:Sans" /><path
     inkscape:connector-curvature="0"
     id="path139"
     d="m 3.140491,11.74884 c -0.06524,-0.026 -0.14595,-0.0294 -0.218363,0.0119 -0.114565,0.0652 -0.591315,0.34871 -1.044188,0.708099 -0.226431,0.17969 -0.445596,0.381209 -0.611418,0.581509 -0.165832,0.2003 -0.28189299,0.401819 -0.28189299,0.601289 l 0,3.164694 0.12705099,0 c 0,-0.18477 0.09464,-0.361979 0.246153,-0.530079 0.15147,-0.1681 0.357397,-0.3255 0.575689,-0.458889 0.436604,-0.26677 0.906007,-0.444039 1.044188,-0.502389 0.168943,-0.0713 0.277306,-0.27416 0.357327,-0.454929 0.07999,-0.18076 0.123076,-0.34811 0.123076,-0.34811 l 0.004,-0.008 0,-0.008 0,-2.405165 0,-0.0158 -0.008,-0.0158 c 0,0 -0.056,-0.10686 -0.146902,-0.20175 -0.04547,-0.0474 -0.101469,-0.0926 -0.166755,-0.11867 z m -0.04767,0.11867 c 0.03894,0.0155 0.08119,0.0475 0.119112,0.087 0.07096,0.0741 0.116774,0.15488 0.123076,0.16615 l 0,2.381435 0,0.004 c -0.004,0.0137 -0.04306,0.14962 -0.115137,0.31251 -0.07568,0.170829 -0.191977,0.346359 -0.289832,0.387679 -0.128626,0.0543 -0.614469,0.239559 -1.06404,0.514259 -0.224786,0.13735 -0.439314,0.296469 -0.60348,0.478659 -0.06102,0.0678 -0.107259,0.14321 -0.150867,0.21757 l 0,-2.765145 c 0,-0.14865 0.09735,-0.33282 0.254092,-0.522179 0.156769,-0.18935 0.36937,-0.38144 0.591576,-0.557779 0.444412,-0.35267 0.92053,-0.638819 1.028301,-0.700189 0.03874,-0.0221 0.06825,-0.0195 0.107199,-0.004 z"
     style="font-size:medium;font-style:normal;font-variant:normal;font-weight:normal;font-stretch:normal;text-indent:0;text-align:start;text-decoration:none;line-height:normal;letter-spacing:normal;word-spacing:normal;text-transform:none;direction:ltr;block-progression:tb;writing-mode:lr-tb;text-anchor:start;baseline-shift:baseline;color:#000000;fill:#000000;fill-opacity:1;fill-rule:nonzero;stroke:none;stroke-width:1;marker:none;visibility:visible;display:inline;overflow:visible;enable-background:accumulate;font-family:Sans;-inkscape-font-specification:Sans" /><path
     inkscape:connector-curvature="0"
     id="path151"
     d="m 7.035331,12.219589 c -0.0823,0 -0.168632,0.0449 -0.218362,0.1345 -0.04978,0.0896 -0.07547,0.2167 -0.07547,0.403499 0,0.18674 0.02599,0.538989 0.06755,0.850509 0.02078,0.15576 0.04707,0.302319 0.07547,0.411409 0.01425,0.0546 0.02921,0.0978 0.04767,0.1345 0.009,0.0184 0.01696,0.0363 0.03172,0.0514 0.01485,0.0152 0.04135,0.0316 0.07146,0.0316 0.03011,0 0.05269,-0.0165 0.06755,-0.0316 0.01485,-0.0152 0.02258,-0.0331 0.03171,-0.0514 0.01837,-0.0367 0.03342,-0.08 0.04767,-0.1345 0.0284,-0.10908 0.0547,-0.255659 0.07547,-0.411409 0.04155,-0.3115 0.06755,-0.663709 0.06755,-0.850509 0,-0.186809 -0.02569,-0.313929 -0.07547,-0.403499 -0.04978,-0.0896 -0.132109,-0.1345 -0.214397,-0.1345 z m 0,0.12659 c 0.04326,0 0.07076,0.009 0.103235,0.0672 0.03252,0.0585 0.05952,0.16918 0.05952,0.344159 0,0.17498 -0.0268,0.528949 -0.06754,0.834689 -0.02037,0.15287 -0.04547,0.295809 -0.07146,0.395579 -0.009,0.0359 -0.01887,0.0565 -0.0278,0.0791 -0.009,-0.0226 -0.01455,-0.0437 -0.02379,-0.0791 -0.02599,-0.0998 -0.05109,-0.242709 -0.07146,-0.395579 -0.04075,-0.30576 -0.06754,-0.659779 -0.06754,-0.834689 0,-0.174989 0.0271,-0.285639 0.05952,-0.344159 0.03252,-0.0585 0.06383,-0.0672 0.107199,-0.0672 z"
     style="font-size:medium;font-style:normal;font-variant:normal;font-weight:normal;font-stretch:normal;text-indent:0;text-align:start;text-decoration:none;line-height:normal;letter-spacing:normal;word-spacing:normal;text-transform:none;direction:ltr;block-progression:tb;writing-mode:lr-tb;text-anchor:start;baseline-shift:baseline;color:#000000;fill:#000000;fill-opacity:1;fill-rule:nonzero;stroke:none;stroke-width:1;marker:none;visibility:visible;display:inline;overflow:visible;enable-background:accumulate;font-family:Sans;-inkscape-font-specification:Sans" /></svg>