<?xml version="1.0" encoding="UTF-8" standalone="no"?>
<!-- Generator: Adobe Illustrator 15.1.0, SVG Export Plug-In . SVG Version: 6.00 Build 0)  -->

<svg
   xmlns:dc="http://purl.org/dc/elements/1.1/"
   xmlns:cc="http://creativecommons.org/ns#"
   xmlns:rdf="http://www.w3.org/1999/02/22-rdf-syntax-ns#"
   xmlns:svg="http://www.w3.org/2000/svg"
   xmlns="http://www.w3.org/2000/svg"
   xmlns:xlink="http://www.w3.org/1999/xlink"
   xmlns:sodipodi="http://sodipodi.sourceforge.net/DTD/sodipodi-0.dtd"
   xmlns:inkscape="http://www.inkscape.org/namespaces/inkscape"
   version="1.1"
   x="0px"
   y="0px"
   width="23"
   height="61"
   viewBox="0 0 23 61.000001"
   enable-background="new 0 0 1000 1000"
   xml:space="preserve"
   id="svg2"
   inkscape:version="0.91 r13725"
   sodipodi:docname="777xxA3_fuselage_1.svg"><metadata
     id="metadata122"><rdf:RDF><cc:Work
         rdf:about=""><dc:format>image/svg+xml</dc:format><dc:type
           rdf:resource="http://purl.org/dc/dcmitype/StillImage" /><dc:title></dc:title></cc:Work></rdf:RDF></metadata><defs
     id="defs120"><linearGradient
       inkscape:collect="always"
       id="linearGradient3900"><stop
         style="stop-color:#765337;stop-opacity:1"
         offset="0"
         id="stop3902" /><stop
         style="stop-color:#c19069;stop-opacity:1"
         offset="1"
         id="stop3904" /></linearGradient><linearGradient
       inkscape:collect="always"
       id="linearGradient3892"><stop
         style="stop-color:#765337;stop-opacity:1"
         offset="0"
         id="stop3894" /><stop
         style="stop-color:#c19069;stop-opacity:1"
         offset="1"
         id="stop3896" /></linearGradient><linearGradient
       id="linearGradient3880"><stop
         style="stop-color:#765337;stop-opacity:1"
         offset="0"
         id="stop3882" /><stop
         id="stop3890"
         offset="0.34999999"
         style="stop-color:#c19069;stop-opacity:1" /><stop
         id="stop3888"
         offset="0.61000001"
         style="stop-color:#c19069;stop-opacity:1" /><stop
         style="stop-color:#765337;stop-opacity:1"
         offset="1"
         id="stop3884" /></linearGradient><linearGradient
       inkscape:collect="always"
       xlink:href="#linearGradient3880"
       id="linearGradient3886"
       x1="456.966"
       y1="459.198"
       x2="537.76099"
       y2="459.198"
       gradientUnits="userSpaceOnUse" /><linearGradient
       inkscape:collect="always"
       xlink:href="#linearGradient3892"
       id="linearGradient3898"
       x1="535.79999"
       y1="480.41699"
       x2="603.63165"
       y2="480.41699"
       gradientUnits="userSpaceOnUse" /><linearGradient
       inkscape:collect="always"
       xlink:href="#linearGradient3900"
       id="linearGradient3906"
       x1="459.46045"
       y1="481.01501"
       x2="402.87878"
       y2="481.01501"
       gradientUnits="userSpaceOnUse" /><linearGradient
       inkscape:collect="always"
       xlink:href="#linearGradient3892"
       id="linearGradient3910"
       gradientUnits="userSpaceOnUse"
       x1="535.79999"
       y1="480.41699"
       x2="603.63165"
       y2="480.41699" /><linearGradient
       inkscape:collect="always"
       xlink:href="#linearGradient3892"
       id="linearGradient3912"
       gradientUnits="userSpaceOnUse"
       x1="535.79999"
       y1="480.41699"
       x2="603.63165"
       y2="480.41699" /><linearGradient
       inkscape:collect="always"
       xlink:href="#linearGradient3892"
       id="linearGradient3914"
       gradientUnits="userSpaceOnUse"
       x1="535.79999"
       y1="480.41699"
       x2="603.63165"
       y2="480.41699" /><linearGradient
       inkscape:collect="always"
       xlink:href="#linearGradient3892"
       id="linearGradient3916"
       gradientUnits="userSpaceOnUse"
       x1="535.79999"
       y1="480.41699"
       x2="603.63165"
       y2="480.41699" /><linearGradient
       inkscape:collect="always"
       xlink:href="#linearGradient3892"
       id="linearGradient3918"
       gradientUnits="userSpaceOnUse"
       x1="535.79999"
       y1="480.41699"
       x2="603.63165"
       y2="480.41699" /><linearGradient
       inkscape:collect="always"
       xlink:href="#linearGradient3892"
       id="linearGradient3920"
       gradientUnits="userSpaceOnUse"
       x1="535.79999"
       y1="480.41699"
       x2="603.63165"
       y2="480.41699" /><linearGradient
       inkscape:collect="always"
       xlink:href="#linearGradient3892"
       id="linearGradient3922"
       gradientUnits="userSpaceOnUse"
       x1="535.79999"
       y1="480.41699"
       x2="603.63165"
       y2="480.41699" /><linearGradient
       inkscape:collect="always"
       xlink:href="#linearGradient3892"
       id="linearGradient3924"
       gradientUnits="userSpaceOnUse"
       x1="535.79999"
       y1="480.41699"
       x2="603.63165"
       y2="480.41699" /><linearGradient
       inkscape:collect="always"
       xlink:href="#linearGradient3892"
       id="linearGradient3926"
       gradientUnits="userSpaceOnUse"
       x1="535.79999"
       y1="480.41699"
       x2="603.63165"
       y2="480.41699" /><linearGradient
       inkscape:collect="always"
       xlink:href="#linearGradient3892"
       id="linearGradient3928"
       gradientUnits="userSpaceOnUse"
       x1="535.79999"
       y1="480.41699"
       x2="603.63165"
       y2="480.41699" /><linearGradient
       inkscape:collect="always"
       xlink:href="#linearGradient3892"
       id="linearGradient3930"
       gradientUnits="userSpaceOnUse"
       x1="535.79999"
       y1="480.41699"
       x2="603.63165"
       y2="480.41699" /><linearGradient
       inkscape:collect="always"
       xlink:href="#linearGradient3892"
       id="linearGradient3932"
       gradientUnits="userSpaceOnUse"
       x1="535.79999"
       y1="480.41699"
       x2="603.63165"
       y2="480.41699" /><linearGradient
       inkscape:collect="always"
       xlink:href="#linearGradient3880"
       id="linearGradient3861"
       gradientUnits="userSpaceOnUse"
       x1="456.966"
       y1="459.198"
       x2="537.76099"
       y2="459.198"
       gradientTransform="matrix(0.25798773,0,0,0.21084574,-116.90341,1.204467)" /><linearGradient
       inkscape:collect="always"
       xlink:href="#linearGradient3892"
       id="linearGradient4218"
       gradientUnits="userSpaceOnUse"
       x1="535.79999"
       y1="480.41699"
       x2="603.63165"
       y2="480.41699" /></defs><sodipodi:namedview
     pagecolor="#ffffff"
     bordercolor="#666666"
     borderopacity="1"
     objecttolerance="10"
     gridtolerance="10"
     guidetolerance="10"
     inkscape:pageopacity="0"
     inkscape:pageshadow="2"
     inkscape:window-width="3840"
     inkscape:window-height="2115"
     id="namedview118"
     showgrid="true"
     inkscape:zoom="10.153611"
     inkscape:cx="8.7882216"
     inkscape:cy="-18.885833"
     inkscape:window-x="-13"
     inkscape:window-y="-13"
     inkscape:window-maximized="1"
     inkscape:current-layer="svg2"
     fit-margin-top="1"
     fit-margin-left="1"
     fit-margin-right="1"
     fit-margin-bottom="1"
     inkscape:snap-bbox="false"
     inkscape:snap-bbox-edge-midpoints="true"
     inkscape:snap-global="true"><inkscape:grid
       type="xygrid"
       id="grid4154"
       empspacing="128"
       visible="true"
       enabled="true"
       snapvisiblegridlinesonly="true"
       originx="-233.16406"
       originy="-338.82674" /></sodipodi:namedview><path
     style="fill:url(#linearGradient3861);fill-opacity:1;stroke:none;stroke-width:0.23322867;stroke-miterlimit:10"
     d="m 11.41797,1.232423 c -2,0 -10.18872,8.015856 -10.30078,26.583984 0,2.902187 0.0764,20.566687 0.12109,32.183594 l 20.34375,0 c 0.0447,-11.616947 0.1211,-29.281304 0.1211,-32.183594 0,-18.573068 -8.28516,-26.583984 -10.28516,-26.583984 z"
     id="path5"
     inkscape:connector-curvature="0" /><path
     inkscape:connector-curvature="0"
     style="fill:#484848;fill-opacity:1;stroke:#000000;stroke-width:0.23322867;stroke-miterlimit:10"
     id="path7"
     d="m 11.67122,5.760971 0,0.92245 c 0,0 3.39512,0.702117 5.77248,3.821579 0,-2.820061 -5.77248,-4.744029 -5.77248,-4.744029 z"
     stroke-miterlimit="10" /><path
     inkscape:connector-curvature="0"
     style="fill:#484848;fill-opacity:1;stroke:#000000;stroke-width:0.23322867;stroke-miterlimit:10"
     id="path9"
     d="m 11.20993,5.760971 0,0.92245 c 0,0 -3.3951,0.702117 -5.77247,3.821579 0,-2.820061 5.77247,-4.744029 5.77247,-4.744029 z"
     stroke-miterlimit="10" /><path
     inkscape:connector-curvature="0"
     style="fill:none;stroke:#000000;stroke-width:0.23322867;stroke-miterlimit:10"
     id="path19"
     d="m 21.63934,50.475742 c 0,-0.584464 -2.15315,-1.005101 -2.15315,-1.005101 l 0,-3.070336 c 0,0 2.15315,0.535338 2.15315,1.005102 0,0.469764 0,3.070335 0,3.070335 z"
     stroke-miterlimit="10" /><path
     inkscape:connector-curvature="0"
     style="fill:none;stroke:#000000;stroke-width:0.23322867;stroke-miterlimit:10"
     id="path21"
     d="m 1.20879,50.475742 c 0,-0.584464 2.15316,-1.005101 2.15316,-1.005101 l 0,-3.070336 c 0,0 -2.15316,0.535338 -2.15316,1.005102 0,0.469764 0,3.070335 0,3.070335 z"
     stroke-miterlimit="10" /><path
     inkscape:connector-curvature="0"
     style="fill:none;stroke:#000000;stroke-width:0.23322867;stroke-miterlimit:10"
     id="path23"
     d="m 21.49715,22.574526 c 0,-1.155224 -2.69902,-1.866828 -2.98925,-2.10403 -0.29024,-0.237201 -0.22574,-3.109975 0,-3.294465 0.22574,-0.18449 2.30828,0.955975 2.4027,1.240617 z"
     stroke-miterlimit="10"
     sodipodi:nodetypes="csscc" /><path
     inkscape:connector-curvature="0"
     style="fill:none;stroke:#000000;stroke-width:0.23322867;stroke-miterlimit:10"
     id="path25"
     d="m 1.35176,22.601725 c 0,-1.155224 2.69902,-1.866828 2.98926,-2.10403 0.29023,-0.237201 0.22574,-3.109974 0,-3.294465 -0.22574,-0.18449 -2.30829,0.955975 -2.40272,1.240617 z"
     stroke-miterlimit="10"
     sodipodi:nodetypes="csscc" /><path
     style="color:#000000;font-style:normal;font-variant:normal;font-weight:normal;font-stretch:normal;font-size:medium;line-height:normal;font-family:sans-serif;text-indent:0;text-align:start;text-decoration:none;text-decoration-line:none;text-decoration-style:solid;text-decoration-color:#000000;letter-spacing:normal;word-spacing:normal;text-transform:none;direction:ltr;block-progression:tb;writing-mode:lr-tb;baseline-shift:baseline;text-anchor:start;white-space:normal;clip-rule:nonzero;display:inline;overflow:visible;visibility:visible;opacity:1;isolation:auto;mix-blend-mode:normal;color-interpolation:sRGB;color-interpolation-filters:linearRGB;solid-color:#000000;solid-opacity:1;fill:#000000;fill-opacity:1;fill-rule:nonzero;stroke:none;stroke-width:0.23322867;stroke-linecap:butt;stroke-linejoin:miter;stroke-miterlimit:10;stroke-dasharray:none;stroke-dashoffset:0;stroke-opacity:1;color-rendering:auto;image-rendering:auto;shape-rendering:auto;text-rendering:auto;enable-background:accumulate"
     d="m 11.41797,1.115235 c -0.28895,0 -0.64852,0.136752 -1.07422,0.398438 C 9.91805,1.775359 9.4288,2.165655 8.89844,2.691407 7.83772,3.742912 6.61749,5.334325 5.45703,7.505861 3.13612,11.848929 1.05613,18.51335 1,27.814454 l 0,0.002 c 0,2.902721 0.0763,20.567421 0.12109,32.183594 l 0.23438,0 C 1.31087,48.383375 1.23438,30.717935 1.23438,27.816454 1.29028,18.549431 3.36066,11.92194 5.66211,7.615282 6.81284,5.461954 8.02183,3.889105 9.0625,2.85747 9.58284,2.341652 10.06143,1.962126 10.4668,1.712939 c 0.40537,-0.249188 0.74012,-0.363281 0.95117,-0.363281 0.21108,0 0.54724,0.114157 0.95508,0.363281 0.40784,0.249124 0.89008,0.628897 1.41406,1.144531 1.04795,1.031267 2.26418,2.604917 3.41992,4.757812 2.31148,4.305795 4.37891,10.931979 4.37891,20.201172 0,2.901584 -0.0765,20.5669 -0.12109,32.183594 l 0.23437,0 c 0.0448,-11.616194 0.12109,-29.280771 0.12109,-32.183594 0,-9.303874 -2.07501,-15.969907 -4.40625,-20.3125 C 16.24845,5.332658 15.01924,3.742515 13.95117,2.691454 13.41714,2.165924 12.92222,1.775207 12.49414,1.51372 12.06606,1.252139 11.70689,1.115236 11.41797,1.115235 Z"
     id="path4374"
     inkscape:connector-curvature="0" /></svg>