<?xml version="1.0" encoding="UTF-8" standalone="no"?>
<!-- Generator: Adobe Illustrator 15.1.0, SVG Export Plug-In . SVG Version: 6.00 Build 0)  -->

<svg
   xmlns:dc="http://purl.org/dc/elements/1.1/"
   xmlns:cc="http://creativecommons.org/ns#"
   xmlns:rdf="http://www.w3.org/1999/02/22-rdf-syntax-ns#"
   xmlns:svg="http://www.w3.org/2000/svg"
   xmlns="http://www.w3.org/2000/svg"
   xmlns:xlink="http://www.w3.org/1999/xlink"
   xmlns:sodipodi="http://sodipodi.sourceforge.net/DTD/sodipodi-0.dtd"
   xmlns:inkscape="http://www.inkscape.org/namespaces/inkscape"
   version="1.1"
   x="0px"
   y="0px"
   width="23"
   height="91"
   viewBox="0 0 23 91"
   enable-background="new 0 0 1000 1000"
   xml:space="preserve"
   id="svg2"
   inkscape:version="0.91 r13725"
   sodipodi:docname="777xxA3_fuselage_3.svg"><metadata
     id="metadata122"><rdf:RDF><cc:Work
         rdf:about=""><dc:format>image/svg+xml</dc:format><dc:type
           rdf:resource="http://purl.org/dc/dcmitype/StillImage" /><dc:title></dc:title></cc:Work></rdf:RDF></metadata><defs
     id="defs120"><linearGradient
       inkscape:collect="always"
       id="linearGradient3900"><stop
         style="stop-color:#765337;stop-opacity:1"
         offset="0"
         id="stop3902" /><stop
         style="stop-color:#c19069;stop-opacity:1"
         offset="1"
         id="stop3904" /></linearGradient><linearGradient
       inkscape:collect="always"
       id="linearGradient3892"><stop
         style="stop-color:#765337;stop-opacity:1"
         offset="0"
         id="stop3894" /><stop
         style="stop-color:#c19069;stop-opacity:1"
         offset="1"
         id="stop3896" /></linearGradient><linearGradient
       id="linearGradient3880"><stop
         style="stop-color:#765337;stop-opacity:1"
         offset="0"
         id="stop3882" /><stop
         id="stop3890"
         offset="0.34999999"
         style="stop-color:#c19069;stop-opacity:1" /><stop
         id="stop3888"
         offset="0.61000001"
         style="stop-color:#c19069;stop-opacity:1" /><stop
         style="stop-color:#765337;stop-opacity:1"
         offset="1"
         id="stop3884" /></linearGradient><linearGradient
       inkscape:collect="always"
       xlink:href="#linearGradient3880"
       id="linearGradient3886"
       x1="456.966"
       y1="459.198"
       x2="537.76099"
       y2="459.198"
       gradientUnits="userSpaceOnUse" /><linearGradient
       inkscape:collect="always"
       xlink:href="#linearGradient3892"
       id="linearGradient3898"
       x1="535.79999"
       y1="480.41699"
       x2="603.63165"
       y2="480.41699"
       gradientUnits="userSpaceOnUse" /><linearGradient
       inkscape:collect="always"
       xlink:href="#linearGradient3900"
       id="linearGradient3906"
       x1="459.46045"
       y1="481.01501"
       x2="402.87878"
       y2="481.01501"
       gradientUnits="userSpaceOnUse" /><linearGradient
       inkscape:collect="always"
       xlink:href="#linearGradient3892"
       id="linearGradient3910"
       gradientUnits="userSpaceOnUse"
       x1="535.79999"
       y1="480.41699"
       x2="603.63165"
       y2="480.41699" /><linearGradient
       inkscape:collect="always"
       xlink:href="#linearGradient3892"
       id="linearGradient3912"
       gradientUnits="userSpaceOnUse"
       x1="535.79999"
       y1="480.41699"
       x2="603.63165"
       y2="480.41699" /><linearGradient
       inkscape:collect="always"
       xlink:href="#linearGradient3892"
       id="linearGradient3914"
       gradientUnits="userSpaceOnUse"
       x1="535.79999"
       y1="480.41699"
       x2="603.63165"
       y2="480.41699" /><linearGradient
       inkscape:collect="always"
       xlink:href="#linearGradient3892"
       id="linearGradient3916"
       gradientUnits="userSpaceOnUse"
       x1="535.79999"
       y1="480.41699"
       x2="603.63165"
       y2="480.41699" /><linearGradient
       inkscape:collect="always"
       xlink:href="#linearGradient3892"
       id="linearGradient3918"
       gradientUnits="userSpaceOnUse"
       x1="535.79999"
       y1="480.41699"
       x2="603.63165"
       y2="480.41699" /><linearGradient
       inkscape:collect="always"
       xlink:href="#linearGradient3892"
       id="linearGradient3920"
       gradientUnits="userSpaceOnUse"
       x1="535.79999"
       y1="480.41699"
       x2="603.63165"
       y2="480.41699" /><linearGradient
       inkscape:collect="always"
       xlink:href="#linearGradient3892"
       id="linearGradient3922"
       gradientUnits="userSpaceOnUse"
       x1="535.79999"
       y1="480.41699"
       x2="603.63165"
       y2="480.41699" /><linearGradient
       inkscape:collect="always"
       xlink:href="#linearGradient3892"
       id="linearGradient3924"
       gradientUnits="userSpaceOnUse"
       x1="535.79999"
       y1="480.41699"
       x2="603.63165"
       y2="480.41699" /><linearGradient
       inkscape:collect="always"
       xlink:href="#linearGradient3892"
       id="linearGradient3926"
       gradientUnits="userSpaceOnUse"
       x1="535.79999"
       y1="480.41699"
       x2="603.63165"
       y2="480.41699" /><linearGradient
       inkscape:collect="always"
       xlink:href="#linearGradient3892"
       id="linearGradient3928"
       gradientUnits="userSpaceOnUse"
       x1="535.79999"
       y1="480.41699"
       x2="603.63165"
       y2="480.41699" /><linearGradient
       inkscape:collect="always"
       xlink:href="#linearGradient3892"
       id="linearGradient3930"
       gradientUnits="userSpaceOnUse"
       x1="535.79999"
       y1="480.41699"
       x2="603.63165"
       y2="480.41699" /><linearGradient
       inkscape:collect="always"
       xlink:href="#linearGradient3892"
       id="linearGradient3932"
       gradientUnits="userSpaceOnUse"
       x1="535.79999"
       y1="480.41699"
       x2="603.63165"
       y2="480.41699" /><linearGradient
       inkscape:collect="always"
       xlink:href="#linearGradient3880"
       id="linearGradient3861"
       gradientUnits="userSpaceOnUse"
       x1="456.966"
       y1="459.198"
       x2="537.76099"
       y2="459.198"
       gradientTransform="matrix(0.25798773,0,0,0.21084574,-117.26669,-119.42763)" /><linearGradient
       inkscape:collect="always"
       xlink:href="#linearGradient3892"
       id="linearGradient4218"
       gradientUnits="userSpaceOnUse"
       x1="535.79999"
       y1="480.41699"
       x2="603.63165"
       y2="480.41699" /></defs><sodipodi:namedview
     pagecolor="#ffffff"
     bordercolor="#666666"
     borderopacity="1"
     objecttolerance="10"
     gridtolerance="10"
     guidetolerance="10"
     inkscape:pageopacity="0"
     inkscape:pageshadow="2"
     inkscape:window-width="3840"
     inkscape:window-height="2115"
     id="namedview118"
     showgrid="true"
     inkscape:zoom="8"
     inkscape:cx="7.701686"
     inkscape:cy="139.56837"
     inkscape:window-x="-13"
     inkscape:window-y="-13"
     inkscape:window-maximized="1"
     inkscape:current-layer="svg2"
     fit-margin-top="1"
     fit-margin-left="1"
     fit-margin-right="1"
     fit-margin-bottom="1"
     inkscape:snap-bbox="false"
     inkscape:snap-bbox-edge-midpoints="true"
     inkscape:snap-global="true"><inkscape:grid
       type="xygrid"
       id="grid4154"
       empspacing="128"
       visible="true"
       enabled="true"
       snapvisiblegridlinesonly="true"
       originx="-466.81249"
       originy="-473.35285" /></sodipodi:namedview><path
     style="fill:url(#linearGradient3861);fill-opacity:1;stroke:none;stroke-width:0.23322867;stroke-miterlimit:10"
     d="M 1.11524,0.67454529 C 1.16914,13.529295 1.25196,32.501435 1.25196,33.787825 c 0,5.5522 7.69502,39.79102 9.73828,39.79102 l 0.11523,0 c 2.04326,0 9.73828,-34.23882 9.73828,-39.79102 0,-1.28639 0.0808,-20.25855 0.13477,-33.11327971 l -19.86328,0 z"
     id="path5"
     inkscape:connector-curvature="0" /><path
     inkscape:connector-curvature="0"
     style="fill:none;stroke:#000000;stroke-width:0.23322867;stroke-miterlimit:10"
     id="path15"
     d="m 20.94404,8.1342453 c -0.67102,0.47419 -2.34562,0.68504 -2.34562,0.68504 l 0,-3.05748 c 1.6101,-0.15792 2.34562,-0.68503 2.34562,-0.68503 l 0,3.05747 z"
     stroke-miterlimit="10" /><path
     inkscape:connector-curvature="0"
     style="fill:none;stroke:#000000;stroke-width:0.23322867;stroke-miterlimit:10"
     id="path17"
     d="m 1.15818,8.1342453 c 0.67103,0.47419 2.34563,0.68504 2.34563,0.68504 l 0,-3.05748 c -1.61009,-0.15792 -2.34563,-0.68503 -2.34563,-0.68503 l 0,3.05747 z"
     stroke-miterlimit="10" /><path
     inkscape:connector-curvature="0"
     style="fill:none;stroke:#000000;stroke-width:0.23322867;stroke-miterlimit:10"
     id="path27"
     d="m 19.80348,41.492785 c 0,0 -0.36892,1.21995 -2.1426,1.21995 0,-1.00152 0,-2.60921 0,-2.60921 2.06391,-0.52712 2.64438,-1.81855 2.64438,-1.81855 l -0.50178,3.20781 z"
     stroke-miterlimit="10" /><path
     inkscape:connector-curvature="0"
     style="fill:none;stroke:#000000;stroke-width:0.23322867;stroke-miterlimit:10"
     id="path29"
     d="m 2.3181,41.492785 c 0,0 0.36893,1.21995 2.14259,1.21995 0,-1.00152 0,-2.60921 0,-2.60921 -2.06391,-0.52712 -2.64438,-1.81855 -2.64438,-1.81855 l 0.50179,3.20781 z"
     stroke-miterlimit="10" /><path
     inkscape:connector-curvature="0"
     style="fill:#c19069;fill-opacity:1;stroke:#000000;stroke-width:0.23322867;stroke-miterlimit:10"
     id="path32"
     d="m 11.04686,41.131405 c 0,0 -1.84126,1.9986 -1.84126,4.37062 0,2.37201 1.84126,44.49288 1.84126,44.49288 0,0 1.84126,-42.12087 1.84126,-44.49288 0,-2.37202 -1.84126,-4.37062 -1.84126,-4.37062 z"
     stroke-miterlimit="10" /><line
     style="fill:#c19069;fill-opacity:1;stroke:#000000;stroke-width:0.23322867;stroke-miterlimit:10"
     id="line34"
     y2="89.994904"
     x2="11.046863"
     y1="41.131409"
     x1="11.046863"
     stroke-miterlimit="10" /><polygon
     style="fill:#c19069;fill-opacity:1;stroke:#000000;stroke-miterlimit:10"
     id="polygon36"
     points="497.363,788.75 497.363,915.25 494.479,911.595 493.75,791 "
     stroke-miterlimit="10"
     transform="matrix(0.25798773,0,0,0.21084574,-117.26669,-119.42763)" /><polygon
     style="fill:#c19069;fill-opacity:1;stroke:#000000;stroke-miterlimit:10"
     id="polygon38"
     points="497.363,788.75 497.363,915.25 500.247,911.595 500.977,791 "
     stroke-miterlimit="10"
     transform="matrix(0.25798773,0,0,0.21084574,-117.26669,-119.42763)" /><path
     style="fill:#000000;fill-opacity:1;stroke:none;stroke-width:0.25;stroke-linecap:square;stroke-linejoin:miter;stroke-miterlimit:4;stroke-dasharray:none;stroke-opacity:1"
     d="M 1,0.67454529 C 1.054,13.530705 1.13477,32.503555 1.13477,33.787825 c 0,1.41499 0.48258,4.58712 1.23633,8.58008 0.75375,3.99295 1.77918,8.79523 2.86914,13.42383 1.08996,4.62859 2.24384,9.08373 3.2539,12.38476 0.50503,1.65052 0.97373,3.01242 1.38282,3.9668 0.20454,0.47719 0.39456,0.85241 0.57031,1.11523 0.0879,0.13141 0.17124,0.23505 0.25781,0.31055 0.0866,0.0755 0.18059,0.12695 0.28516,0.12695 l 0.11523,0 c 0.10456,0 0.19663,-0.0514 0.2832,-0.12695 0.0866,-0.0755 0.1719,-0.17914 0.25977,-0.31055 0.17575,-0.26282 0.36382,-0.63804 0.56836,-1.11523 0.40908,-0.95438 0.87778,-2.31628 1.38281,-3.9668 1.01006,-3.30103 2.16395,-7.75617 3.25391,-12.38476 1.08996,-4.6286 2.11539,-9.43088 2.86914,-13.42383 0.75375,-3.99296 1.23633,-7.16509 1.23633,-8.58008 0,-1.28427 0.0807,-20.25715 0.13476,-33.11327971 l -0.23242,0 C 20.80753,13.529215 20.72656,32.499235 20.72657,33.787825 c 0,1.36111 -0.47951,4.54857 -1.23243,8.53711 -0.75291,3.98854 -1.77799,8.78871 -2.86718,13.41406 -1.0892,4.62535 -2.24258,9.07674 -3.25,12.36914 -0.50371,1.64621 -0.97217,3.00357 -1.375,3.94336 -0.20142,0.4699 -0.38738,0.83473 -0.54883,1.07617 -0.0807,0.12073 -0.15441,0.21122 -0.2168,0.26563 -0.0624,0.0544 -0.10772,0.0684 -0.13086,0.0684 l -0.11523,0 c -0.0231,0 -0.0704,-0.014 -0.13282,-0.0684 -0.0624,-0.0544 -0.13607,-0.1449 -0.21679,-0.26563 -0.16145,-0.24144 -0.34742,-0.60627 -0.54883,-1.07617 -0.40283,-0.93979 -0.87129,-2.29715 -1.375,-3.94336 -1.00742,-3.2924 -2.1608,-7.74379 -3.25,-12.36914 -1.0892,-4.62535 -2.11427,-9.42552 -2.86719,-13.41406 -0.75291,-3.98854 -1.23242,-7.176 -1.23242,-8.53711 0,-1.28859 -0.081,-20.25857 -0.13477,-33.11327971 l -0.23242,0 z"
     id="rect4371"
     inkscape:connector-curvature="0" /></svg>