<?xml version="1.0" encoding="UTF-8" standalone="no"?>
<!-- Generator: Adobe Illustrator 15.1.0, SVG Export Plug-In . SVG Version: 6.00 Build 0)  -->

<svg
   xmlns:dc="http://purl.org/dc/elements/1.1/"
   xmlns:cc="http://creativecommons.org/ns#"
   xmlns:rdf="http://www.w3.org/1999/02/22-rdf-syntax-ns#"
   xmlns:svg="http://www.w3.org/2000/svg"
   xmlns="http://www.w3.org/2000/svg"
   xmlns:xlink="http://www.w3.org/1999/xlink"
   xmlns:sodipodi="http://sodipodi.sourceforge.net/DTD/sodipodi-0.dtd"
   xmlns:inkscape="http://www.inkscape.org/namespaces/inkscape"
   version="1.1"
   x="0px"
   y="0px"
   width="11"
   height="32"
   viewBox="0 0 11 32"
   enable-background="new 0 0 1000 1000"
   xml:space="preserve"
   id="svg2"
   inkscape:version="0.48.5 r10040"
   sodipodi:docname="Gulfstream_5_fuselage_1.svg"><metadata
     id="metadata80"><rdf:RDF><cc:Work
         rdf:about=""><dc:format>image/svg+xml</dc:format><dc:type
           rdf:resource="http://purl.org/dc/dcmitype/StillImage" /><dc:title /></cc:Work></rdf:RDF></metadata><defs
     id="defs78"><linearGradient
       inkscape:collect="always"
       id="linearGradient3842"><stop
         style="stop-color:#c19069;stop-opacity:1;"
         offset="0"
         id="stop3844" /><stop
         style="stop-color:#765337;stop-opacity:1"
         offset="1"
         id="stop3846" /></linearGradient><linearGradient
       inkscape:collect="always"
       id="linearGradient3834"><stop
         style="stop-color:#765337;stop-opacity:1"
         offset="0"
         id="stop3836" /><stop
         style="stop-color:#c19069;stop-opacity:1"
         offset="1"
         id="stop3838" /></linearGradient><linearGradient
       id="linearGradient3825"><stop
         style="stop-color:#765337;stop-opacity:1"
         offset="0"
         id="stop3827" /><stop
         id="stop3835"
         offset="0.36749631"
         style="stop-color:#c19069;stop-opacity:1;" /><stop
         id="stop3833"
         offset="0.61749631"
         style="stop-color:#c19069;stop-opacity:1;" /><stop
         style="stop-color:#765337;stop-opacity:1"
         offset="1"
         id="stop3829" /></linearGradient><linearGradient
       inkscape:collect="always"
       xlink:href="#linearGradient3825"
       id="linearGradient3831"
       x1="448.49799"
       y1="457.32599"
       x2="550.5"
       y2="457.32599"
       gradientUnits="userSpaceOnUse" /><linearGradient
       inkscape:collect="always"
       xlink:href="#linearGradient3834"
       id="linearGradient3872"
       x1="504.328"
       y1="892.24847"
       x2="533.47711"
       y2="892.24847"
       gradientUnits="userSpaceOnUse" /><linearGradient
       inkscape:collect="always"
       xlink:href="#linearGradient3842"
       id="linearGradient3880"
       x1="467.51077"
       y1="892.24847"
       x2="494.591"
       y2="892.24847"
       gradientUnits="userSpaceOnUse" /><linearGradient
       inkscape:collect="always"
       xlink:href="#linearGradient3834"
       id="linearGradient3998"
       gradientUnits="userSpaceOnUse"
       x1="504.328"
       y1="892.24847"
       x2="533.47711"
       y2="892.24847" /><linearGradient
       inkscape:collect="always"
       xlink:href="#linearGradient3842"
       id="linearGradient4006"
       gradientUnits="userSpaceOnUse"
       x1="467.51077"
       y1="892.24847"
       x2="494.591"
       y2="892.24847" /><linearGradient
       inkscape:collect="always"
       xlink:href="#linearGradient3825"
       id="linearGradient4262"
       gradientUnits="userSpaceOnUse"
       x1="448.49799"
       y1="457.32599"
       x2="550.5"
       y2="457.32599"
       gradientTransform="matrix(0.09964553,0,0,0.09964553,-2.2166823,-1.0427334)" /><linearGradient
       inkscape:collect="always"
       xlink:href="#linearGradient3825"
       id="linearGradient4274"
       gradientUnits="userSpaceOnUse"
       gradientTransform="matrix(0.09964553,0,0,0.09964553,-2.2166822,-1.0427334)"
       x1="448.49799"
       y1="457.32599"
       x2="550.5"
       y2="457.32599" /><linearGradient
       inkscape:collect="always"
       xlink:href="#linearGradient3825"
       id="linearGradient4278"
       gradientUnits="userSpaceOnUse"
       gradientTransform="matrix(0.09964553,0,0,0.09964553,-44.435432,-1.417783)"
       x1="448.49799"
       y1="457.32599"
       x2="550.5"
       y2="457.32599" /></defs><sodipodi:namedview
     pagecolor="#ffffff"
     bordercolor="#666666"
     borderopacity="1"
     objecttolerance="10"
     gridtolerance="10"
     guidetolerance="10"
     inkscape:pageopacity="0"
     inkscape:pageshadow="2"
     inkscape:window-width="1920"
     inkscape:window-height="1060"
     id="namedview76"
     showgrid="false"
     inkscape:zoom="7.8015632"
     inkscape:cx="8.2587326"
     inkscape:cy="-2.6954342"
     inkscape:window-x="-2"
     inkscape:window-y="-3"
     inkscape:window-maximized="1"
     inkscape:current-layer="svg2"
     fit-margin-top="1"
     fit-margin-left="1"
     fit-margin-right="1"
     fit-margin-bottom="1" /><path
     style="fill:url(#linearGradient4278);fill-opacity:1;stroke:none"
     d="m 5.3437499,0.6874504 c -0.465046,0 -0.84375,0.53125 -0.84375,0.53125 0,0 -3.181089,4.345289 -3.375,13.5624996 0,9.456868 -0.03763,13.780013 -0.0625,16.1875 3.59779,0.0042 6.056933,0.01714 8.5625,0.03125 -0.02482,-2.388679 -0.0625,-6.71286 -0.0625,-16.21875 -0.19381,-9.2172106 -3.40625,-13.5624996 -3.40625,-13.5624996 0,0 -0.347454,-0.53125 -0.8125,-0.53125 z"
     id="path5"
     inkscape:connector-curvature="0" /><path
     inkscape:connector-curvature="0"
     style="fill:#4f3521;fill-opacity:1;stroke:#000000;stroke-width:0.09964553;stroke-miterlimit:10"
     id="path7"
     d="M 1.9101019,7.9820788 C 2.5142529,7.5170331 2.6637209,6.8361552 2.6637209,6.8361552 L 2.2713169,6.5682084 1.9101019,7.9820788 z"
     stroke-miterlimit="10" /><path
     inkscape:connector-curvature="0"
     style="fill:#4f3521;fill-opacity:1;stroke:#000000;stroke-width:0.09964553;stroke-miterlimit:10"
     id="path9"
     d="M 8.7867399,7.9820788 C 8.1824889,7.5170331 8.0330209,6.8361552 8.0330209,6.8361552 l 0.392504,-0.2679468 0.361215,1.4138704 z"
     stroke-miterlimit="10" /><path
     inkscape:connector-curvature="0"
     style="fill:#4f3521;fill-opacity:1;stroke:#000000;stroke-width:0.09964553;stroke-miterlimit:10"
     id="path11"
     d="m 5.3592329,4.8598854 c 0,0 1.677333,-0.1494683 2.491138,1.5611465 l 0.431764,-0.449501 c 0,0 -0.579239,-1.109553 -1.276758,-1.4914943 -0.697519,-0.3819413 -1.381187,-0.516961 -1.646144,-0.516961 h -0.02172 c -0.264958,0 -0.948626,0.1349201 -1.646144,0.5168614 -0.697519,0.3819413 -1.276758,1.4914943 -1.276758,1.4914943 l 0.431764,0.449501 c 0.813802,-1.7105152 2.491135,-1.5610469 2.491135,-1.5610469 h 0.02172 z"
     stroke-miterlimit="10" /><path
     inkscape:connector-curvature="0"
     style="fill:#c19069;fill-opacity:1;stroke:#000000;stroke-width:0.09964553;stroke-miterlimit:10"
     id="path15"
     d="m 1.4259249,10.838119 c -0.09915,0.361713 -0.26725,2.715838 -0.26725,2.715838 0.342482,-0.535594 0.886347,-0.597873 1.255933,-0.822075 0.369585,-0.224203 0.35703,-0.797164 0.35703,-0.797164 v -1.494683 c 0,0 0.06198,-0.271235 -0.417416,-0.260175 -0.479394,0.01106 -0.898304,0.343179 -0.928297,0.658259 z"
     stroke-miterlimit="10" /><path
     style="font-size:medium;font-style:normal;font-variant:normal;font-weight:normal;font-stretch:normal;text-indent:0;text-align:start;text-decoration:none;line-height:normal;letter-spacing:normal;word-spacing:normal;text-transform:none;direction:ltr;block-progression:tb;writing-mode:lr-tb;text-anchor:start;baseline-shift:baseline;color:#000000;fill:#000000;fill-opacity:1;fill-rule:nonzero;stroke:none;stroke-width:0.09964553;marker:none;visibility:visible;display:inline;overflow:visible;enable-background:accumulate;font-family:Sans;-inkscape-font-specification:Sans"
     d="m 5.3437499,0.6249504 c -0.252164,0 -0.473811,0.1397237 -0.625,0.28125 -0.151189,0.1415263 -0.25,0.28125 -0.25,0.28125 0,0 -0.797994,1.1005851 -1.625,3.34375 -0.827006,2.2431649 -1.684176,5.6357696 -1.78125,10.2499996 0,9.427344 -0.03488,13.764647 -0.0625,16.1875 0.04248,4.7e-5 0.08228,-5.2e-5 0.1249999,0 0.01841,-2.422868 0.03125,-6.76016 0.03125,-16.1875 0.09684,-4.602981 0.9578771,-7.9854388 1.7812502,-10.2187496 0.823373,-2.2333108 1.6249999,-3.3125 1.6249999,-3.3125 0,0 0.0772,-0.1175011 0.21875,-0.25 0.141545,-0.1324989 0.349618,-0.28125 0.5625,-0.28125 0.212882,0 0.387596,0.1486504 0.53125,0.28125 0.143654,0.1325996 0.25,0.25 0.25,0.25 0,0 0.80164,1.0791893 1.625,3.3125 C 8.5733599,6.7957611 9.403213,10.178219 9.5,14.7812 c 0,9.476439 0.03493,13.814564 0.0625,16.21875 0.0307,1.72e-4 0.06362,-1.7e-4 0.09375,0 C 9.62871,28.617754 9.59375,24.290901 9.59375,14.7812 9.49673,10.16697 8.6707439,6.7743654 7.8437499,4.5312004 c -0.826994,-2.243165 -1.65625,-3.34375 -1.65625,-3.34375 0,0 -0.06553,-0.1398244 -0.21875,-0.28125 -0.153215,-0.1414256 -0.372836,-0.28125 -0.625,-0.28125 z"
     id="path4266"
     inkscape:connector-curvature="0" /></svg>