<?xml version="1.0" encoding="UTF-8" standalone="no"?>
<!-- Generator: Adobe Illustrator 15.1.0, SVG Export Plug-In . SVG Version: 6.00 Build 0)  -->

<svg
   xmlns:dc="http://purl.org/dc/elements/1.1/"
   xmlns:cc="http://creativecommons.org/ns#"
   xmlns:rdf="http://www.w3.org/1999/02/22-rdf-syntax-ns#"
   xmlns:svg="http://www.w3.org/2000/svg"
   xmlns="http://www.w3.org/2000/svg"
   xmlns:xlink="http://www.w3.org/1999/xlink"
   xmlns:sodipodi="http://sodipodi.sourceforge.net/DTD/sodipodi-0.dtd"
   xmlns:inkscape="http://www.inkscape.org/namespaces/inkscape"
   version="1.1"
   x="0px"
   y="0px"
   width="95"
   height="98"
   viewBox="0 0 95 98"
   enable-background="new 0 0 1000 1000"
   xml:space="preserve"
   id="svg2"
   inkscape:version="0.91 r13725"
   sodipodi:docname="GS-5xxA3.svg"><metadata
     id="metadata80"><rdf:RDF><cc:Work
         rdf:about=""><dc:format>image/svg+xml</dc:format><dc:type
           rdf:resource="http://purl.org/dc/dcmitype/StillImage" /><dc:title /></cc:Work></rdf:RDF></metadata><defs
     id="defs78"><linearGradient
       inkscape:collect="always"
       id="linearGradient3842"><stop
         style="stop-color:#c19069;stop-opacity:1;"
         offset="0"
         id="stop3844" /><stop
         style="stop-color:#765337;stop-opacity:1"
         offset="1"
         id="stop3846" /></linearGradient><linearGradient
       inkscape:collect="always"
       id="linearGradient3834"><stop
         style="stop-color:#765337;stop-opacity:1"
         offset="0"
         id="stop3836" /><stop
         style="stop-color:#c19069;stop-opacity:1"
         offset="1"
         id="stop3838" /></linearGradient><linearGradient
       id="linearGradient3825"><stop
         style="stop-color:#765337;stop-opacity:1"
         offset="0"
         id="stop3827" /><stop
         id="stop3835"
         offset="0.36749631"
         style="stop-color:#c19069;stop-opacity:1;" /><stop
         id="stop3833"
         offset="0.61749631"
         style="stop-color:#c19069;stop-opacity:1;" /><stop
         style="stop-color:#765337;stop-opacity:1"
         offset="1"
         id="stop3829" /></linearGradient><linearGradient
       inkscape:collect="always"
       xlink:href="#linearGradient3825"
       id="linearGradient3831"
       x1="448.49799"
       y1="457.32599"
       x2="550.5"
       y2="457.32599"
       gradientUnits="userSpaceOnUse" /><linearGradient
       inkscape:collect="always"
       xlink:href="#linearGradient3834"
       id="linearGradient3840"
       x1="546.25"
       y1="497.16949"
       x2="591.63"
       y2="497.16949"
       gradientUnits="userSpaceOnUse" /><linearGradient
       inkscape:collect="always"
       xlink:href="#linearGradient3842"
       id="linearGradient3848"
       x1="404.34042"
       y1="497.16949"
       x2="452.866"
       y2="497.16949"
       gradientUnits="userSpaceOnUse" /><linearGradient
       inkscape:collect="always"
       xlink:href="#linearGradient3825"
       id="linearGradient3856"
       x1="543.4505"
       y1="638.5918"
       x2="609.45276"
       y2="638.5918"
       gradientUnits="userSpaceOnUse" /><linearGradient
       inkscape:collect="always"
       xlink:href="#linearGradient3825"
       id="linearGradient3864"
       x1="389.51923"
       y1="639.49878"
       x2="455.52151"
       y2="639.49878"
       gradientUnits="userSpaceOnUse" /><linearGradient
       inkscape:collect="always"
       xlink:href="#linearGradient3834"
       id="linearGradient3872"
       x1="504.328"
       y1="892.24847"
       x2="533.47711"
       y2="892.24847"
       gradientUnits="userSpaceOnUse" /><linearGradient
       inkscape:collect="always"
       xlink:href="#linearGradient3842"
       id="linearGradient3880"
       x1="467.51077"
       y1="892.24847"
       x2="494.591"
       y2="892.24847"
       gradientUnits="userSpaceOnUse" /><linearGradient
       inkscape:collect="always"
       xlink:href="#linearGradient3834"
       id="linearGradient3888"
       x1="523.75"
       y1="653.5835"
       x2="553.16699"
       y2="653.5835"
       gradientUnits="userSpaceOnUse" /><linearGradient
       inkscape:collect="always"
       xlink:href="#linearGradient3842"
       id="linearGradient3896"
       x1="445.80499"
       y1="654.49048"
       x2="475.22198"
       y2="654.49048"
       gradientUnits="userSpaceOnUse" /><linearGradient
       inkscape:collect="always"
       xlink:href="#linearGradient3834"
       id="linearGradient3992"
       gradientUnits="userSpaceOnUse"
       x1="504.328"
       y1="892.24847"
       x2="533.47711"
       y2="892.24847" /><linearGradient
       inkscape:collect="always"
       xlink:href="#linearGradient3834"
       id="linearGradient3994"
       gradientUnits="userSpaceOnUse"
       x1="504.328"
       y1="892.24847"
       x2="533.47711"
       y2="892.24847" /><linearGradient
       inkscape:collect="always"
       xlink:href="#linearGradient3834"
       id="linearGradient3996"
       gradientUnits="userSpaceOnUse"
       x1="504.328"
       y1="892.24847"
       x2="533.47711"
       y2="892.24847" /><linearGradient
       inkscape:collect="always"
       xlink:href="#linearGradient3834"
       id="linearGradient3998"
       gradientUnits="userSpaceOnUse"
       x1="504.328"
       y1="892.24847"
       x2="533.47711"
       y2="892.24847" /><linearGradient
       inkscape:collect="always"
       xlink:href="#linearGradient3842"
       id="linearGradient4000"
       gradientUnits="userSpaceOnUse"
       x1="467.51077"
       y1="892.24847"
       x2="494.591"
       y2="892.24847" /><linearGradient
       inkscape:collect="always"
       xlink:href="#linearGradient3842"
       id="linearGradient4002"
       gradientUnits="userSpaceOnUse"
       x1="467.51077"
       y1="892.24847"
       x2="494.591"
       y2="892.24847" /><linearGradient
       inkscape:collect="always"
       xlink:href="#linearGradient3842"
       id="linearGradient4004"
       gradientUnits="userSpaceOnUse"
       x1="467.51077"
       y1="892.24847"
       x2="494.591"
       y2="892.24847" /><linearGradient
       inkscape:collect="always"
       xlink:href="#linearGradient3842"
       id="linearGradient4006"
       gradientUnits="userSpaceOnUse"
       x1="467.51077"
       y1="892.24847"
       x2="494.591"
       y2="892.24847" /></defs><sodipodi:namedview
     pagecolor="#ffffff"
     bordercolor="#666666"
     borderopacity="1"
     objecttolerance="10"
     gridtolerance="10"
     guidetolerance="10"
     inkscape:pageopacity="0"
     inkscape:pageshadow="2"
     inkscape:window-width="3840"
     inkscape:window-height="2107"
     id="namedview76"
     showgrid="false"
     inkscape:zoom="31.206253"
     inkscape:cx="46.259677"
     inkscape:cy="66.534537"
     inkscape:window-x="-8"
     inkscape:window-y="0"
     inkscape:window-maximized="1"
     inkscape:current-layer="svg2"
     fit-margin-top="1"
     fit-margin-left="1"
     fit-margin-right="1"
     fit-margin-bottom="1" /><g
     id="Body"
     transform="matrix(0.09964553,0,0,0.09964553,-2.2166823,-1.0605404)"><path
       stroke-miterlimit="10"
       d="m 491.249,26.5 c 0,0 -32.152,43.598 -34.098,136.098 0,136 -0.848,188.652 -0.848,188.652 l -4.055,4.755 -3.25,179.245 c 0,0 5.524,24.894 7.625,43.935 2.101,19.041 18.126,164.315 18.126,164.315 l 18,150.152 h 6.75 6.75 l 18,-150.152 c 0,0 16.024,-145.274 18.125,-164.315 C 544.475,560.144 550,535.25 550,535.25 l -3.25,-179.245 -4.055,-4.755 c 0,0 -0.848,-52.652 -0.848,-188.652 C 539.902,70.098 507.75,26.5 507.75,26.5 c 0,0 -3.625,-5.5 -8.292,-5.5 -4.667,0 -8.209,5.5 -8.209,5.5 z"
       id="path5"
       style="fill:url(#linearGradient3831);fill-opacity:1;stroke:#000000;stroke-miterlimit:10"
       inkscape:connector-curvature="0" /><path
       stroke-miterlimit="10"
       d="m 465.104,94.333 c 6.063,-4.667 7.563,-11.5 7.563,-11.5 l -3.938,-2.689 -3.625,14.189 z"
       id="path7"
       style="fill:#4f3521;fill-opacity:1;stroke:#000000;stroke-miterlimit:10"
       inkscape:connector-curvature="0" /><path
       stroke-miterlimit="10"
       d="m 534.115,94.333 c -6.064,-4.667 -7.564,-11.5 -7.564,-11.5 l 3.939,-2.689 3.625,14.189 z"
       id="path9"
       style="fill:#4f3521;fill-opacity:1;stroke:#000000;stroke-miterlimit:10"
       inkscape:connector-curvature="0" /><path
       stroke-miterlimit="10"
       d="m 499.718,63 c 0,0 16.833,-1.5 25,15.667 l 4.333,-4.511 c 0,0 -5.813,-11.135 -12.813,-14.968 C 509.238,55.355 502.377,54 499.718,54 H 499.5 c -2.659,0 -9.52,1.354 -16.52,5.187 -7,3.833 -12.813,14.968 -12.813,14.968 l 4.333,4.511 C 482.667,61.5 499.5,63 499.5,63 h 0.218 z"
       id="path11"
       style="fill:#4f3521;fill-opacity:1;stroke:#000000;stroke-miterlimit:10"
       inkscape:connector-curvature="0" /><path
       stroke-miterlimit="10"
       d="m 496.189,332.5 c 0,0 0.187,-2.25 3.186,-2.25 2.999,0 3.354,2.25 3.354,2.25 v 305.834 h -6.54 V 332.5 z"
       id="path13"
       style="fill:#c19069;fill-opacity:1;stroke:#000000;stroke-miterlimit:10"
       inkscape:connector-curvature="0" /><path
       stroke-miterlimit="10"
       d="m 460.245,122.995 c -0.995,3.63 -2.682,27.255 -2.682,27.255 3.437,-5.375 8.895,-6 12.604,-8.25 3.709,-2.25 3.583,-8 3.583,-8 v -15 c 0,0 0.622,-2.722 -4.189,-2.611 -4.811,0.111 -9.015,3.444 -9.316,6.606 z"
       id="path15"
       style="fill:none;fill-opacity:1;stroke:#000000;stroke-miterlimit:10"
       inkscape:connector-curvature="0" /></g><g
     id="R_Turbine"
     transform="matrix(0.09964553,0,0,0.09964553,-2.2166823,-1.0605404)"><path
       stroke-miterlimit="10"
       d="m 524.25,743.5 c 6.75,0 28.417,0 28.417,0 L 546.75,563.667 c 0,0 -12.75,5.237 -12.75,10.619 0,5.382 -4.338,124.067 -9.75,169.214 z"
       id="path18"
       style="fill:url(#linearGradient3888);fill-opacity:1;stroke:#000000;stroke-miterlimit:10"
       inkscape:connector-curvature="0" /><path
       stroke-miterlimit="10"
       d="m 556,727.803 c 0,0 4.825,3.53 16.158,3.53 11.333,0 17.509,-3.987 17.509,-3.987 0,0 16.333,-57.157 16.333,-75.346 0,-18.189 10.833,-102.007 -9,-104.25 -12.5,-2.257 -20.171,-1.875 -20.171,-1.875 0,0 -22.496,-0.208 -26.329,3.625 -6.333,5.167 -7.989,88.936 -5.333,106.167 2.656,17.231 10.833,72.136 10.833,72.136 z"
       id="path20"
       style="fill:url(#linearGradient3856);fill-opacity:1;stroke:#000000;stroke-miterlimit:10"
       inkscape:connector-curvature="0" /></g><g
     id="L_Turbine"
     transform="matrix(0.09964553,0,0,0.09964553,-2.2166823,-1.0605404)"><path
       stroke-miterlimit="10"
       d="m 474.722,744.407 c -6.75,0 -28.417,0 -28.417,0 l 5.917,-179.833 c 0,0 12.75,5.237 12.75,10.619 0,5.382 4.338,124.067 9.75,169.214 z"
       id="path23"
       style="fill:url(#linearGradient3896);fill-opacity:1;stroke:#000000;stroke-miterlimit:10"
       inkscape:connector-curvature="0" /><path
       stroke-miterlimit="10"
       d="m 442.972,728.71 c 0,0 -4.825,3.53 -16.158,3.53 -11.333,0 -17.509,-3.987 -17.509,-3.987 0,0 -16.333,-57.156 -16.333,-75.346 0,-18.19 -10.833,-102.007 9,-104.25 12.5,-2.257 20.171,-1.875 20.171,-1.875 0,0 22.496,-0.208 26.329,3.625 6.333,5.167 7.989,88.936 5.333,106.167 -2.656,17.231 -10.833,72.136 -10.833,72.136 z"
       id="path25"
       style="fill:url(#linearGradient3864);fill-opacity:1;stroke:#000000;stroke-miterlimit:10"
       inkscape:connector-curvature="0" /></g><g
     id="R_Tail"
     style="fill:url(#linearGradient3998);fill-opacity:1"
     transform="matrix(0.09964553,0,0,0.09964553,-2.2166823,-1.0605404)"><path
       stroke-miterlimit="10"
       d="M 504.828,801.082 V 916 l 204.506,67.415 c 0,0 0,-42.416 0,-50.082 0,-7.666 -13.667,-18.666 -13.667,-18.666 L 504.828,801.082 z"
       id="path28"
       style="fill:url(#linearGradient3992);fill-opacity:1;stroke:#000000;stroke-miterlimit:10"
       inkscape:connector-curvature="0" /><path
       stroke-miterlimit="10"
       d="m 704.704,981.889 c 0,0 0.296,-41.89 0.296,-47.556 0,-5.666 -5.406,-7.391 -5.406,-7.391 L 504.828,817.667 v -16.585 l 190.839,113.585 c 0,0 13.667,10.999 13.667,18.666 0,7.667 0,50.082 0,50.082 l -4.63,-1.526 z"
       id="path30"
       style="fill:url(#linearGradient3994);fill-opacity:1;stroke:#000000;stroke-miterlimit:10"
       inkscape:connector-curvature="0" /><polygon
       stroke-miterlimit="10"
       points="504.828,916 504.828,888 656.667,948 656.667,966.054 "
       id="polygon32"
       style="fill:url(#linearGradient3996);fill-opacity:1;stroke:#000000;stroke-miterlimit:10" /></g><g
     id="L_Tail"
     style="fill:url(#linearGradient4006);fill-opacity:1"
     transform="matrix(0.09964553,0,0,0.09964553,-2.2166823,-1.0605404)"><path
       stroke-miterlimit="10"
       d="M 494.091,801.082 V 916 l -204.506,67.415 c 0,0 0,-42.416 0,-50.082 0,-7.666 13.667,-18.666 13.667,-18.666 L 494.091,801.082 z"
       id="path35"
       style="fill:url(#linearGradient4000);fill-opacity:1;stroke:#000000;stroke-miterlimit:10"
       inkscape:connector-curvature="0" /><path
       stroke-miterlimit="10"
       d="m 294.215,981.889 c 0,0 -0.296,-41.89 -0.296,-47.556 0,-5.666 5.406,-7.391 5.406,-7.391 L 494.091,817.667 V 801.082 L 303.252,914.667 c 0,0 -13.667,10.999 -13.667,18.666 0,7.667 0,50.082 0,50.082 l 4.63,-1.526 z"
       id="path37"
       style="fill:url(#linearGradient4002);fill-opacity:1;stroke:#000000;stroke-miterlimit:10"
       inkscape:connector-curvature="0" /><polygon
       stroke-miterlimit="10"
       points="494.091,916 494.091,888 342.252,948 342.252,966.054 "
       id="polygon39"
       style="fill:url(#linearGradient4004);fill-opacity:1;stroke:#000000;stroke-miterlimit:10" /></g><g
     id="Fins"
     transform="matrix(0.09964553,0,0,0.09964553,-2.2166823,-1.0605404)"><path
       stroke-miterlimit="10"
       d="m 499.005,983.415 c 0,0 -4.143,-20 -4.677,-46 -0.534,-26 0,-264.666 0,-277.333 0,-12.667 4.677,-41.333 4.677,-41.333 h 0.909 c 0,0 4.677,28.666 4.677,41.333 0,12.75 0.532,251.415 0,277.333 -0.534,26 -4.677,46 -4.677,46 h -0.909 z"
       id="path42"
       style="fill:#c19069;fill-opacity:1;stroke:#000000;stroke-miterlimit:10"
       inkscape:connector-curvature="0" /><polygon
       stroke-miterlimit="10"
       points="504.695,802.667 504.695,722.999 499.459,720 499.459,798.333 "
       id="polygon44"
       style="fill:#c19069;fill-opacity:1;stroke:#000000;stroke-miterlimit:10" /><polygon
       stroke-miterlimit="10"
       points="494.091,802.667 494.091,722.999 499.327,720 499.327,798.333 "
       id="polygon46"
       style="fill:#c19069;fill-opacity:1;stroke:#000000;stroke-miterlimit:10" /><line
       stroke-miterlimit="10"
       x1="499.5"
       y1="618.74902"
       x2="499.327"
       y2="720"
       id="line48"
       style="fill:#91adb8;stroke:#000000;stroke-miterlimit:10" /></g><g
     id="R_Wing"
     transform="matrix(0.09964553,0,0,0.09964553,-2.2166823,-1.0605404)"><polygon
       stroke-miterlimit="10"
       points="546.891,380 546.75,356.005 563,367.333 918.335,559.667 966.335,625.667 966.335,638.334 924.002,621 571.002,529.334 550,535.25 548.749,466.254 547.731,411.33 "
       id="polygon51"
       style="fill:url(#linearGradient3840);fill-opacity:1;stroke:#000000;stroke-miterlimit:10" /><path
       style="font-size:medium;font-style:normal;font-variant:normal;font-weight:normal;font-stretch:normal;text-indent:0;text-align:start;text-decoration:none;line-height:normal;letter-spacing:normal;word-spacing:normal;text-transform:none;direction:ltr;block-progression:tb;writing-mode:lr-tb;text-anchor:start;baseline-shift:baseline;color:#000000;fill:#000000;fill-opacity:1;fill-rule:nonzero;stroke:none;stroke-width:1;marker:none;visibility:visible;display:inline;overflow:visible;enable-background:accumulate;font-family:Sans;-inkscape-font-specification:Sans"
       d="m 549.46875,375.59375 0.0312,1.09375 2.34375,106.65625 0,0.34375 0.3125,0.125 19.65625,6.9375 -0.65625,20.15625 0,0.0625 0,0.0312 0,0.375 -0.65625,17.9375 0,0.40625 0.375,0.0937 234.28125,60.84375 0.375,0.0937 0.625,0.15625 35.71875,9.28125 36.34375,9.4375 0.625,0.15625 0,-0.625 0,-17.15625 0,-0.34375 -0.34375,-0.125 -72.65625,-25.65625 -0.6875,-0.25 0,0.71875 0,11 -22,-6.3125 0,-11.03125 0,-0.375 -0.34375,-0.0937 -203.65625,-67.375 0,-92.5 0,-0.21875 -0.1875,-0.15625 -28.65625,-23 -0.84375,-0.6875 z m 1.0625,2.125 27.625,22.1875 0,91.90625 -5.6875,-1.875 -0.65625,-0.21875 L 552.84375,483 550.53125,377.71875 z m 22.25,113.375 5.71875,2.03125 0.65625,0.25 0,-0.1875 203,67.15625 0,10.40625 -210,-60.125 0.625,-19.53125 z m -0.65625,20.5625 138.90625,39.78125 71.5,20.46875 0.625,0.15625 22,6.3125 0,11.25 L 571.5,528.9375 572.125,511.65625 z M 918.8125,559.5 l -0.9375,0.34375 c 0,0 1.3999,3.8408 2.8125,13.4375 1.4126,9.5967 2.8125,24.90593 2.8125,47.71875 l 1,0 c 0,-22.85418 -1.42285,-38.22195 -2.84375,-47.875 -1.4209,-9.65305 -2.84375,-13.625 -2.84375,-13.625 z m -112.65625,7.53125 71.6875,25.3125 0,16.15625 -35.71875,-9.28125 -35.96875,-9.34375 0,-11.875 0,-0.375 0,-10.59375 z"
       id="polygon53"
       inkscape:connector-curvature="0" /></g><g
     id="Layer_5"
     transform="matrix(0.09964553,0,0,0.09964553,-2.2166823,-1.0605404)"><polygon
       stroke-miterlimit="10"
       points="452.225,380 452.366,356.005 436.116,367.333 80.781,559.667 32.781,625.667 32.781,638.334 75.114,621 428.114,529.334 449.116,535.25 450.367,466.254 451.384,411.33 "
       id="polygon64"
       style="fill:url(#linearGradient3848);fill-opacity:1;stroke:#000000;stroke-miterlimit:10" /><path
       style="font-size:medium;font-style:normal;font-variant:normal;font-weight:normal;font-stretch:normal;text-indent:0;text-align:start;text-decoration:none;line-height:normal;letter-spacing:normal;word-spacing:normal;text-transform:none;direction:ltr;block-progression:tb;writing-mode:lr-tb;text-anchor:start;baseline-shift:baseline;color:#000000;fill:#000000;fill-opacity:1;fill-rule:nonzero;stroke:none;stroke-width:1;marker:none;visibility:visible;display:inline;overflow:visible;enable-background:accumulate;font-family:Sans;-inkscape-font-specification:Sans"
       d="m 449.625,375.59375 -0.8125,0.6875 -28.6875,23 -0.1875,0.15625 0,0.21875 0,92.5 -203.65625,67.375 -0.34375,0.0937 0,0.375 0,11.0625 -22,6.28125 0,-11 0,-0.71875 -0.65625,0.25 -72.65625,25.65625 -0.34375,0.125 0,0.34375 0,17.15625 0,0.625 0.625,-0.15625 36.34375,-9.4375 35.6875,-9.28125 0.625,-0.15625 0.375,-0.0937 234.3125,-60.84375 0.375,-0.0937 0,-0.40625 -0.65625,-17.9375 -0.0312,-0.375 0,-0.0312 0,-0.625 -0.0312,0 -0.59375,-19.59375 19.625,-6.9375 0.34375,-0.125 0,-0.34375 2.34375,-106.65625 0,-1.09375 z m -1.03125,2.125 -2.3125,105.28125 -19,6.71875 -0.625,0.21875 -5.71875,1.90625 0,-91.9375 27.65625,-22.1875 z m -22.25,113.375 0.59375,19.5625 -107.4375,30.75 -102.5625,29.34375 0,-10.40625 203,-67.125 0,0.15625 0.6875,-0.25 5.71875,-2.03125 z m 0.625,20.5625 0.65625,17.28125 -233.6875,60.6875 0,-11.25 22,-6.3125 0.28125,-0.0625 0.375,-0.0937 210.375,-60.25 z M 80.3125,559.5 c 0,0 -1.454102,3.97195 -2.875,13.625 -1.420898,9.65305 -2.8125,25.02082 -2.8125,47.875 l 1,0 c 0,-22.81282 1.399898,-38.12205 2.8125,-47.71875 1.412602,-9.5967 2.8125,-13.4375 2.8125,-13.4375 L 80.3125,559.5 z m 112.625,7.5625 0,10.5625 0,0.375 0,11.875 L 157,599.21875 121.28125,608.5 l 0,-16.15625 71.65625,-25.28125 z"
       id="polygon66"
       inkscape:connector-curvature="0" /></g><path
     style="fill:none;fill-rule:evenodd;stroke:#000000;stroke-width:0.088;stroke-linecap:butt;stroke-linejoin:miter;stroke-miterlimit:4;stroke-dasharray:none;stroke-opacity:1"
     d="m 42.773056,38.079808 c 1.089053,0 1.089965,1.606391 0,1.606391"
     id="path4192"
     inkscape:connector-curvature="0"
     sodipodi:nodetypes="cc" /><path
     sodipodi:nodetypes="cc"
     inkscape:connector-curvature="0"
     id="path4194"
     d="m 42.773056,40.771577 c 1.089053,0 1.089965,1.606391 0,1.606391"
     style="fill:none;fill-rule:evenodd;stroke:#000000;stroke-width:0.088;stroke-linecap:butt;stroke-linejoin:miter;stroke-miterlimit:4;stroke-dasharray:none;stroke-opacity:1" /><path
     sodipodi:nodetypes="cc"
     inkscape:connector-curvature="0"
     id="path4196"
     d="m 52.334367,38.079808 c -1.089053,0 -1.089965,1.606391 0,1.606391"
     style="fill:none;fill-rule:evenodd;stroke:#000000;stroke-width:0.088;stroke-linecap:butt;stroke-linejoin:miter;stroke-miterlimit:4;stroke-dasharray:none;stroke-opacity:1" /><path
     style="fill:none;fill-rule:evenodd;stroke:#000000;stroke-width:0.088;stroke-linecap:butt;stroke-linejoin:miter;stroke-miterlimit:4;stroke-dasharray:none;stroke-opacity:1"
     d="m 52.334367,40.771577 c -1.089053,0 -1.089965,1.606391 0,1.606391"
     id="path4198"
     inkscape:connector-curvature="0"
     sodipodi:nodetypes="cc" /></svg>