<?xml version="1.0" encoding="UTF-8" standalone="no"?>
<!-- Generator: Adobe Illustrator 15.1.0, SVG Export Plug-In . SVG Version: 6.00 Build 0)  -->

<svg
   xmlns:dc="http://purl.org/dc/elements/1.1/"
   xmlns:cc="http://creativecommons.org/ns#"
   xmlns:rdf="http://www.w3.org/1999/02/22-rdf-syntax-ns#"
   xmlns:svg="http://www.w3.org/2000/svg"
   xmlns="http://www.w3.org/2000/svg"
   xmlns:xlink="http://www.w3.org/1999/xlink"
   xmlns:sodipodi="http://sodipodi.sourceforge.net/DTD/sodipodi-0.dtd"
   xmlns:inkscape="http://www.inkscape.org/namespaces/inkscape"
   version="1.1"
   x="0px"
   y="0px"
   width="12"
   height="29"
   viewBox="0 0 12 29"
   enable-background="new 0 0 1000 1000"
   xml:space="preserve"
   id="svg2"
   inkscape:version="0.91 r13725"
   sodipodi:docname="GS-5xxA3_fuselage_2.svg"><metadata
     id="metadata80"><rdf:RDF><cc:Work
         rdf:about=""><dc:format>image/svg+xml</dc:format><dc:type
           rdf:resource="http://purl.org/dc/dcmitype/StillImage" /><dc:title /></cc:Work></rdf:RDF></metadata><defs
     id="defs78"><linearGradient
       inkscape:collect="always"
       id="linearGradient3842"><stop
         style="stop-color:#c19069;stop-opacity:1;"
         offset="0"
         id="stop3844" /><stop
         style="stop-color:#765337;stop-opacity:1"
         offset="1"
         id="stop3846" /></linearGradient><linearGradient
       inkscape:collect="always"
       id="linearGradient3834"><stop
         style="stop-color:#765337;stop-opacity:1"
         offset="0"
         id="stop3836" /><stop
         style="stop-color:#c19069;stop-opacity:1"
         offset="1"
         id="stop3838" /></linearGradient><linearGradient
       id="linearGradient3825"><stop
         style="stop-color:#765337;stop-opacity:1"
         offset="0"
         id="stop3827" /><stop
         id="stop3835"
         offset="0.36749631"
         style="stop-color:#c19069;stop-opacity:1;" /><stop
         id="stop3833"
         offset="0.61749631"
         style="stop-color:#c19069;stop-opacity:1;" /><stop
         style="stop-color:#765337;stop-opacity:1"
         offset="1"
         id="stop3829" /></linearGradient><linearGradient
       inkscape:collect="always"
       xlink:href="#linearGradient3825"
       id="linearGradient3831"
       x1="448.49799"
       y1="457.32599"
       x2="550.5"
       y2="457.32599"
       gradientUnits="userSpaceOnUse" /><linearGradient
       inkscape:collect="always"
       xlink:href="#linearGradient3834"
       id="linearGradient3872"
       x1="504.328"
       y1="892.24847"
       x2="533.47711"
       y2="892.24847"
       gradientUnits="userSpaceOnUse" /><linearGradient
       inkscape:collect="always"
       xlink:href="#linearGradient3842"
       id="linearGradient3880"
       x1="467.51077"
       y1="892.24847"
       x2="494.591"
       y2="892.24847"
       gradientUnits="userSpaceOnUse" /><linearGradient
       inkscape:collect="always"
       xlink:href="#linearGradient3834"
       id="linearGradient3998"
       gradientUnits="userSpaceOnUse"
       x1="504.328"
       y1="892.24847"
       x2="533.47711"
       y2="892.24847" /><linearGradient
       inkscape:collect="always"
       xlink:href="#linearGradient3842"
       id="linearGradient4006"
       gradientUnits="userSpaceOnUse"
       x1="467.51077"
       y1="892.24847"
       x2="494.591"
       y2="892.24847" /><linearGradient
       inkscape:collect="always"
       xlink:href="#linearGradient3825"
       id="linearGradient4262"
       gradientUnits="userSpaceOnUse"
       x1="448.49799"
       y1="457.32599"
       x2="550.5"
       y2="457.32599"
       gradientTransform="matrix(0.09964553,0,0,0.09964553,-2.2166822,-1.0427334)" /><linearGradient
       inkscape:collect="always"
       xlink:href="#linearGradient3825"
       id="linearGradient4350"
       gradientUnits="userSpaceOnUse"
       gradientTransform="matrix(0.09964553,0,0,0.09964553,-43.685432,-31.167733)"
       x1="448.49799"
       y1="457.32599"
       x2="550.5"
       y2="457.32599" /></defs><sodipodi:namedview
     pagecolor="#ffffff"
     bordercolor="#666666"
     borderopacity="1"
     objecttolerance="10"
     gridtolerance="10"
     guidetolerance="10"
     inkscape:pageopacity="0"
     inkscape:pageshadow="2"
     inkscape:window-width="3840"
     inkscape:window-height="2107"
     id="namedview76"
     showgrid="false"
     inkscape:zoom="22.066153"
     inkscape:cx="6.6050807"
     inkscape:cy="11.006314"
     inkscape:window-x="-8"
     inkscape:window-y="0"
     inkscape:window-maximized="1"
     inkscape:current-layer="svg2"
     fit-margin-top="1"
     fit-margin-left="1"
     fit-margin-right="1"
     fit-margin-bottom="1" /><path
     style="fill:url(#linearGradient4350);fill-opacity:1;stroke:none"
     d="m 1.8124999,1.2187503 c -0.01077,1.042468 -0.03125,2.625 -0.03125,2.625 l -0.40625,0.46875 -0.3125,17.8437507 c 0,0 0.540644,2.477649 0.75,4.375 0.01877,0.170102 0.117328,1.115941 0.15625,1.46875 l 8.2500001,0 c 0.03892,-0.352809 0.137481,-1.298648 0.15625,-1.46875 0.209356,-1.897351 0.75,-4.375 0.75,-4.375 l -0.34375,-17.8437507 -0.375,-0.46875 c 0,0 -0.02068,-1.577079 -0.03125,-2.59375 -2.5055671,-0.01411 -4.9647101,-0.02706 -8.5625001,-0.03125 z"
     id="path5"
     inkscape:connector-curvature="0" /><path
     style="font-size:medium;font-style:normal;font-variant:normal;font-weight:normal;font-stretch:normal;text-indent:0;text-align:start;text-decoration:none;line-height:normal;letter-spacing:normal;word-spacing:normal;text-transform:none;direction:ltr;block-progression:tb;writing-mode:lr-tb;text-anchor:start;baseline-shift:baseline;color:#000000;fill:#000000;fill-opacity:1;fill-rule:nonzero;stroke:none;stroke-width:0.09964553;marker:none;visibility:visible;display:inline;overflow:visible;enable-background:accumulate;font-family:Sans;-inkscape-font-specification:Sans"
     d="m 6.0624999,1.6875003 c -0.161924,0 -0.261956,0.05757 -0.3125,0.125 -0.05054,0.06743 -0.03125,0.15625 -0.03125,0.15625 l 0,26.0312507 0.09375,0 0,-26.0312507 c 0,0 -0.0022,-0.04908 0.03125,-0.09375 0.03348,-0.04467 0.08183,-0.09375 0.21875,-0.09375 0.136914,0 0.212215,0.04791 0.25,0.09375 0.03778,0.04584 0.0625,0.09375 0.0625,0.09375 l -0.03125,0 0,26.0312507 0.125,0 0,-26.0312507 c 0,0 -0.0079,-0.08999 -0.0625,-0.15625 -0.05461,-0.06626 -0.181827,-0.125 -0.34375,-0.125 z"
     id="path13"
     inkscape:connector-curvature="0" /><path
     style="font-size:medium;font-style:normal;font-variant:normal;font-weight:normal;font-stretch:normal;text-indent:0;text-align:start;text-decoration:none;line-height:normal;letter-spacing:normal;word-spacing:normal;text-transform:none;direction:ltr;block-progression:tb;writing-mode:lr-tb;text-anchor:start;baseline-shift:baseline;color:#000000;fill:#000000;fill-opacity:1;fill-rule:nonzero;stroke:none;stroke-width:0.09964553;marker:none;visibility:visible;display:inline;overflow:visible;enable-background:accumulate;font-family:Sans;-inkscape-font-specification:Sans"
     d="m 1.7499999,1.2187503 c -0.01208,1.059941 -0.03125,2.625 -0.03125,2.625 l -0.375,0.4375 0,0.03125 -0.34374995,17.8437507 0,0.03125 c 0,0 0.54117095,2.482423 0.74999995,4.375 0.01837,0.166524 0.118429,1.095455 0.15625,1.4375 l 0.125,0 c -0.03857,-0.352945 -0.137477,-1.298611 -0.15625,-1.46875 -0.209883,-1.902125 -0.78125,-4.375 -0.78125,-4.375 l 0.34375,-17.8437507 0.375,-0.4375 0.03125,-0.03125 c 0,0 0.0232,-1.564944 0.03125,-2.625 -0.04272,-5.2e-5 -0.08252,4.7e-5 -0.125,0 z m 8.5625001,0.03125 c 0.01186,1.033976 0.03125,2.59375 0.03125,2.59375 l 0,0.03125 0.40625,0.4375 0.3125,17.8437507 c 0,0 -0.540117,2.472873 -0.75,4.375 -0.01877,0.170103 -0.117235,1.115915 -0.15625,1.46875 l 0.09375,0 c 0.03782,-0.342045 0.137876,-1.270976 0.15625,-1.4375 0.208829,-1.892575 0.75,-4.375 0.75,-4.375 l 0,-0.03125 -0.3125,-17.8437507 0,-0.03125 -0.40625,-0.4375 0,-0.03125 c -8.3e-5,-0.0052 -0.01961,-1.55564 -0.03125,-2.5625 -0.03013,-1.7e-4 -0.06305,1.72e-4 -0.09375,0 z"
     id="path4266"
     inkscape:connector-curvature="0" /><path
     style="fill:none;fill-rule:evenodd;stroke:#000000;stroke-width:0.088;stroke-linecap:butt;stroke-linejoin:miter;stroke-miterlimit:4;stroke-dasharray:none;stroke-opacity:1"
     d="m 1.3259817,7.1601293 c 1.089053,0 1.089965,1.606391 0,1.606391"
     id="path4192"
     inkscape:connector-curvature="0"
     sodipodi:nodetypes="cc" /><path
     sodipodi:nodetypes="cc"
     inkscape:connector-curvature="0"
     id="path4194"
     d="m 1.3259817,9.8518983 c 1.089053,0 1.089965,1.6063907 0,1.6063907"
     style="fill:none;fill-rule:evenodd;stroke:#000000;stroke-width:0.088;stroke-linecap:butt;stroke-linejoin:miter;stroke-miterlimit:4;stroke-dasharray:none;stroke-opacity:1" /><path
     sodipodi:nodetypes="cc"
     inkscape:connector-curvature="0"
     id="path4196"
     d="m 10.887293,7.1601293 c -1.0890533,0 -1.0899653,1.606391 0,1.606391"
     style="fill:none;fill-rule:evenodd;stroke:#000000;stroke-width:0.088;stroke-linecap:butt;stroke-linejoin:miter;stroke-miterlimit:4;stroke-dasharray:none;stroke-opacity:1" /><path
     style="fill:none;fill-rule:evenodd;stroke:#000000;stroke-width:0.088;stroke-linecap:butt;stroke-linejoin:miter;stroke-miterlimit:4;stroke-dasharray:none;stroke-opacity:1"
     d="m 10.887293,9.8518983 c -1.0890533,0 -1.0899653,1.6063907 0,1.6063907"
     id="path4198"
     inkscape:connector-curvature="0"
     sodipodi:nodetypes="cc" /></svg>