<?xml version="1.0" encoding="UTF-8" standalone="no"?>
<!-- Generator: Adobe Illustrator 15.1.0, SVG Export Plug-In . SVG Version: 6.00 Build 0)  -->

<svg
   xmlns:dc="http://purl.org/dc/elements/1.1/"
   xmlns:cc="http://creativecommons.org/ns#"
   xmlns:rdf="http://www.w3.org/1999/02/22-rdf-syntax-ns#"
   xmlns:svg="http://www.w3.org/2000/svg"
   xmlns="http://www.w3.org/2000/svg"
   xmlns:xlink="http://www.w3.org/1999/xlink"
   xmlns:sodipodi="http://sodipodi.sourceforge.net/DTD/sodipodi-0.dtd"
   xmlns:inkscape="http://www.inkscape.org/namespaces/inkscape"
   version="1.1"
   x="0px"
   y="0px"
   width="28"
   height="21"
   viewBox="0 0 28 21"
   enable-background="new 0 0 1000 1000"
   xml:space="preserve"
   id="svg2"
   inkscape:version="0.48.5 r10040"
   sodipodi:docname="Gulfstream_5_wing_L_2.svg"><metadata
     id="metadata80"><rdf:RDF><cc:Work
         rdf:about=""><dc:format>image/svg+xml</dc:format><dc:type
           rdf:resource="http://purl.org/dc/dcmitype/StillImage" /><dc:title /></cc:Work></rdf:RDF></metadata><defs
     id="defs78"><linearGradient
       inkscape:collect="always"
       id="linearGradient3842"><stop
         style="stop-color:#c19069;stop-opacity:1;"
         offset="0"
         id="stop3844" /><stop
         style="stop-color:#765337;stop-opacity:1"
         offset="1"
         id="stop3846" /></linearGradient><linearGradient
       inkscape:collect="always"
       id="linearGradient3834"><stop
         style="stop-color:#765337;stop-opacity:1"
         offset="0"
         id="stop3836" /><stop
         style="stop-color:#c19069;stop-opacity:1"
         offset="1"
         id="stop3838" /></linearGradient><linearGradient
       id="linearGradient3825"><stop
         style="stop-color:#765337;stop-opacity:1"
         offset="0"
         id="stop3827" /><stop
         id="stop3835"
         offset="0.36749631"
         style="stop-color:#c19069;stop-opacity:1;" /><stop
         id="stop3833"
         offset="0.61749631"
         style="stop-color:#c19069;stop-opacity:1;" /><stop
         style="stop-color:#765337;stop-opacity:1"
         offset="1"
         id="stop3829" /></linearGradient><linearGradient
       inkscape:collect="always"
       xlink:href="#linearGradient3842"
       id="linearGradient3848"
       x1="404.34042"
       y1="497.16949"
       x2="452.866"
       y2="497.16949"
       gradientUnits="userSpaceOnUse"
       gradientTransform="matrix(0.09964553,0,0,0.09964553,-2.2166822,-1.0427334)" /><linearGradient
       inkscape:collect="always"
       xlink:href="#linearGradient3834"
       id="linearGradient3872"
       x1="504.328"
       y1="892.24847"
       x2="533.47711"
       y2="892.24847"
       gradientUnits="userSpaceOnUse" /><linearGradient
       inkscape:collect="always"
       xlink:href="#linearGradient3842"
       id="linearGradient3880"
       x1="467.51077"
       y1="892.24847"
       x2="494.591"
       y2="892.24847"
       gradientUnits="userSpaceOnUse" /><linearGradient
       inkscape:collect="always"
       xlink:href="#linearGradient3834"
       id="linearGradient3998"
       gradientUnits="userSpaceOnUse"
       x1="504.328"
       y1="892.24847"
       x2="533.47711"
       y2="892.24847" /><linearGradient
       inkscape:collect="always"
       xlink:href="#linearGradient3842"
       id="linearGradient4006"
       gradientUnits="userSpaceOnUse"
       x1="467.51077"
       y1="892.24847"
       x2="494.591"
       y2="892.24847" /><linearGradient
       inkscape:collect="always"
       xlink:href="#linearGradient3842"
       id="linearGradient4216"
       gradientUnits="userSpaceOnUse"
       gradientTransform="matrix(0.09964553,0,0,0.09964553,-2.2166823,-43.667733)"
       x1="404.34042"
       y1="497.16949"
       x2="452.866"
       y2="497.16949" /></defs><sodipodi:namedview
     pagecolor="#ffffff"
     bordercolor="#666666"
     borderopacity="1"
     objecttolerance="10"
     gridtolerance="10"
     guidetolerance="10"
     inkscape:pageopacity="0"
     inkscape:pageshadow="2"
     inkscape:window-width="1920"
     inkscape:window-height="1060"
     id="namedview76"
     showgrid="false"
     inkscape:zoom="15.603126"
     inkscape:cx="17.868672"
     inkscape:cy="14.189411"
     inkscape:window-x="-2"
     inkscape:window-y="-3"
     inkscape:window-maximized="1"
     inkscape:current-layer="svg2"
     fit-margin-top="1"
     fit-margin-left="1"
     fit-margin-right="1"
     fit-margin-bottom="1" /><path
     style="fill:url(#linearGradient4216);fill-opacity:1;stroke:none"
     d="m 25.53125,1.4375 -19.6875001,10.65625 -4.78125,6.59375 0,1.25 4.21875,-1.71875 L 26.75,12.625 25.53125,1.4375 z"
     id="polygon64"
     inkscape:connector-curvature="0" /><path
     style="font-size:medium;font-style:normal;font-variant:normal;font-weight:normal;font-stretch:normal;text-indent:0;text-align:start;text-decoration:none;line-height:normal;letter-spacing:normal;word-spacing:normal;text-transform:none;direction:ltr;block-progression:tb;writing-mode:lr-tb;text-anchor:start;baseline-shift:baseline;color:#000000;fill:#000000;fill-opacity:1;fill-rule:nonzero;stroke:none;stroke-width:1;marker:none;visibility:visible;display:inline;overflow:visible;enable-background:accumulate;font-family:Sans;-inkscape-font-specification:Sans"
     d="m 26.4375,9.75 -7.09375,2.34375 -0.03125,0 0,0.03125 0,1.125 -2.21875,0.625 0,-1.09375 0,-0.09375 -0.0625,0.03125 -7.2187501,2.5625 -0.03125,0 0,0.03125 0,1.71875 0,0.0625 0.0625,0 L 13.4375,16.125 17,15.21875 l 0.0625,-0.03125 0.03125,0 9.65625,-2.5 0,-0.09375 -9.65625,2.5 0,-1.125 2.21875,-0.625 0.03125,0 0.03125,-0.03125 7.21875,-2.0625 0,-0.09375 -7.1875,2.0625 0,-1.0625 7.03125,-2.34375 0,-0.0625 z M 5.7812499,12.09375 c 0,0 -0.1396638,0.381867 -0.28125,1.34375 -0.1415861,0.961883 -0.28125,2.503933 -0.28125,4.78125 l 0.09375,0 c 0,-2.273196 0.1404905,-3.793732 0.28125,-4.75 0.1407594,-0.956269 0.28125,-1.34375 0.28125,-1.34375 l -0.09375,-0.03125 z M 17,12.84375 l 0,1.03125 0,0.0625 0,1.1875 -3.5625,0.90625 -3.5625001,0.9375 0,-1.625 L 17,12.84375 z"
     id="polygon66"
     inkscape:connector-curvature="0" /><path
     style="font-size:medium;font-style:normal;font-variant:normal;font-weight:normal;font-stretch:normal;text-indent:0;text-align:start;text-decoration:none;line-height:normal;letter-spacing:normal;word-spacing:normal;text-transform:none;direction:ltr;block-progression:tb;writing-mode:lr-tb;text-anchor:start;baseline-shift:baseline;color:#000000;fill:#000000;fill-opacity:1;fill-rule:nonzero;stroke:none;stroke-width:1;marker:none;visibility:visible;display:inline;overflow:visible;enable-background:accumulate;font-family:Sans;-inkscape-font-specification:Sans"
     d="M 25.53125,1.40625 5.8124999,12.0625 l -0.03125,0 -4.78124995,6.59375 0,0.03125 0,1.25 0,0.0625 L 1.0624998,19.96875 5.2812498,18.25 26.75,12.6875 l 0,-0.09375 -21.5000002,5.5625 -4.15625,1.71875 0,-1.1875 4.78125,-6.5625 19.6562502,-10.65625 0,-0.0625 z"
     id="polygon4171"
     inkscape:connector-curvature="0" /></svg>