<?xml version="1.0" encoding="UTF-8" standalone="no"?>
<!-- Generator: Adobe Illustrator 15.1.0, SVG Export Plug-In . SVG Version: 6.00 Build 0)  -->

<svg
   xmlns:dc="http://purl.org/dc/elements/1.1/"
   xmlns:cc="http://creativecommons.org/ns#"
   xmlns:rdf="http://www.w3.org/1999/02/22-rdf-syntax-ns#"
   xmlns:svg="http://www.w3.org/2000/svg"
   xmlns="http://www.w3.org/2000/svg"
   xmlns:sodipodi="http://sodipodi.sourceforge.net/DTD/sodipodi-0.dtd"
   xmlns:inkscape="http://www.inkscape.org/namespaces/inkscape"
   version="1.1"
   x="0px"
   y="0px"
   width="12.211918"
   height="42.632076"
   viewBox="0 0 12.211918 42.632077"
   enable-background="new 0 0 1000 1000"
   xml:space="preserve"
   id="svg2"
   inkscape:version="0.48.5 r10040"
   sodipodi:docname="Crane.svg"><metadata
     id="metadata483"><rdf:RDF><cc:Work
         rdf:about=""><dc:format>image/svg+xml</dc:format><dc:type
           rdf:resource="http://purl.org/dc/dcmitype/StillImage" /></cc:Work></rdf:RDF></metadata><defs
     id="defs481" /><sodipodi:namedview
     pagecolor="#ffffff"
     bordercolor="#666666"
     borderopacity="1"
     objecttolerance="10"
     gridtolerance="10"
     guidetolerance="10"
     inkscape:pageopacity="0"
     inkscape:pageshadow="2"
     inkscape:window-width="1920"
     inkscape:window-height="1060"
     id="namedview479"
     showgrid="false"
     fit-margin-top="1"
     fit-margin-left="1"
     fit-margin-right="1"
     fit-margin-bottom="1"
     inkscape:zoom="15.104"
     inkscape:cx="13.563214"
     inkscape:cy="21.739916"
     inkscape:window-x="-2"
     inkscape:window-y="-3"
     inkscape:window-maximized="1"
     inkscape:current-layer="svg2" /><g
     id="g3460"
     transform="matrix(1.1950528,0,0,1.1950528,-0.19505231,-0.19505278)"><g
       transform="matrix(0.03449721,0,0,0.03449721,-12.112936,0.8232018)"
       id="Body"><path
         style="fill:#6b6b6b;stroke:#000000;stroke-miterlimit:10"
         inkscape:connector-curvature="0"
         id="path119"
         d="m 608,189 c 0,0 6.5,-15 -104.25,-15 C 393,174 399.5,189.25 399.5,189.25 V 348.5 H 503.75 608 V 189 z"
         stroke-miterlimit="10" /><path
         style="fill:#171f21;stroke:#000000;stroke-miterlimit:10"
         inkscape:connector-curvature="0"
         id="path121"
         d="m 607.974,972.25 c 0,0 -51.224,17.75 -104.849,17.75 C 449.5,990 398.276,972.125 398.276,972.125 V 397.026 H 503.125 607.974 V 972.25 z"
         stroke-miterlimit="10" /><polygon
         style="fill:#fcbf1b;stroke:#000000;stroke-miterlimit:10"
         id="polygon123"
         points="607.974,540 539.584,540 539.584,476.5 528.75,476.5 477.5,476.5 466.667,476.5 466.667,540 398.276,540 398.276,434.333 452.333,418.833 477.333,418.833 528.916,418.833 553.916,418.833 607.974,434.333 "
         stroke-miterlimit="10" /><circle
         style="fill:#8c8c8c;stroke:#000000;stroke-miterlimit:10"
         sodipodi:ry="13.417"
         sodipodi:rx="13.417"
         sodipodi:cy="457.75"
         sodipodi:cx="455.58401"
         d="m 469.00101,457.75 c 0,7.41 -6.00699,13.417 -13.417,13.417 -7.41,0 -13.41699,-6.007 -13.41699,-13.417 0,-7.41 6.00699,-13.417 13.41699,-13.417 7.41001,0 13.417,6.007 13.417,13.417 z"
         id="circle125"
         r="13.417"
         cy="457.75"
         cx="455.58401"
         stroke-miterlimit="10" /><circle
         style="fill:#171f21;stroke:#000000;stroke-miterlimit:10"
         sodipodi:ry="10.955"
         sodipodi:rx="10.955"
         sodipodi:cy="458.12601"
         sodipodi:cx="455.45801"
         d="m 466.41301,458.12601 c 0,6.05028 -4.90472,10.955 -10.955,10.955 -6.05028,0 -10.955,-4.90472 -10.955,-10.955 0,-6.05028 4.90472,-10.955 10.955,-10.955 6.05028,0 10.955,4.90472 10.955,10.955 z"
         id="circle127"
         r="10.955"
         cy="458.12601"
         cx="455.45801"
         stroke-miterlimit="10" /><path
         style="fill:#8c8c8c;stroke:#000000;stroke-miterlimit:10"
         inkscape:connector-curvature="0"
         id="path129"
         d="m 465.831,461.653 h -20.747 c 0,0 -0.581,-1.522 -0.581,-3.527 0,-2.005 0.582,-3.527 0.582,-3.527 h 20.747 c 0,0 0.581,2.277 0.581,3.527 0,1.25 -0.582,3.527 -0.582,3.527 z"
         stroke-miterlimit="10" /><path
         style="fill:none;stroke:#000000;stroke-miterlimit:10"
         inkscape:connector-curvature="0"
         id="path131"
         d="m 466.667,476.5 -11.209,0.125 c 0,0 0,15.75 0,20.25 -24.583,3.125 -49.333,19 -49.333,19 h -7.849"
         stroke-miterlimit="10" /><circle
         style="fill:#8c8c8c;stroke:#000000;stroke-miterlimit:10"
         sodipodi:ry="13.417"
         sodipodi:rx="13.417"
         sodipodi:cy="457.75"
         sodipodi:cx="550.66699"
         d="m 564.08399,457.75 c 0,7.41 -6.00699,13.417 -13.417,13.417 -7.41,0 -13.417,-6.007 -13.417,-13.417 0,-7.41 6.007,-13.417 13.417,-13.417 7.41001,0 13.417,6.007 13.417,13.417 z"
         id="circle133"
         r="13.417"
         cy="457.75"
         cx="550.66699"
         stroke-miterlimit="10" /><circle
         style="fill:#171f21;stroke:#000000;stroke-miterlimit:10"
         sodipodi:ry="10.955"
         sodipodi:rx="10.955"
         sodipodi:cy="458.12601"
         sodipodi:cx="550.79199"
         d="m 561.74699,458.12601 c 0,6.05028 -4.90472,10.955 -10.955,10.955 -6.05028,0 -10.955,-4.90472 -10.955,-10.955 0,-6.05028 4.90472,-10.955 10.955,-10.955 6.05028,0 10.955,4.90472 10.955,10.955 z"
         id="circle135"
         r="10.955"
         cy="458.12601"
         cx="550.79199"
         stroke-miterlimit="10" /><path
         style="fill:#8c8c8c;stroke:#000000;stroke-miterlimit:10"
         inkscape:connector-curvature="0"
         id="path137"
         d="m 540.42,461.653 h 20.746 c 0,0 0.581,-1.522 0.581,-3.527 0,-2.005 -0.581,-3.527 -0.581,-3.527 h -20.747 c 0,0 -0.581,2.277 -0.581,3.527 0,1.25 0.582,3.527 0.582,3.527 z"
         stroke-miterlimit="10" /><path
         style="fill:none;stroke:#000000;stroke-miterlimit:10"
         inkscape:connector-curvature="0"
         id="path139"
         d="m 539.584,476.5 11.209,0.125 c 0,0 0,15.75 0,20.25 24.582,3.125 49.332,19 49.332,19 h 7.849"
         stroke-miterlimit="10" /><rect
         style="fill:#171f21;stroke:#000000;stroke-miterlimit:10"
         id="rect141"
         height="28.834"
         width="11.5"
         stroke-miterlimit="10"
         y="476.5"
         x="455.16699" /><rect
         style="fill:#424242;stroke:#000000;stroke-miterlimit:10"
         id="rect143"
         height="8.1669998"
         width="20.083"
         stroke-miterlimit="10"
         y="468.33301"
         x="460.91699" /><rect
         style="fill:#8c8c8c;stroke:#000000;stroke-miterlimit:10"
         id="rect145"
         height="36.667"
         width="8.1669998"
         stroke-miterlimit="10"
         y="471.16699"
         x="465" /><rect
         style="fill:#171f21;stroke:#000000;stroke-miterlimit:10"
         id="rect147"
         height="41.833"
         width="77.057999"
         stroke-miterlimit="10"
         y="570.83398"
         x="398.276" /><path
         style="fill:#fcbf1b;stroke:#000000;stroke-miterlimit:10"
         inkscape:connector-curvature="0"
         id="path149"
         d="m 601,197.25 c 0,0 -37.75,-11 -97,-11 -59.25,0 -97,11 -97,11 v 127 h 97 97 v -127 z"
         stroke-miterlimit="10" /><path
         style="fill:#171f21"
         inkscape:connector-curvature="0"
         id="path151"
         d="m 608.071,189 c 0,0 6.429,-15 -104.321,-15 -110.75,0 -104.322,15.25 -104.322,15.25 v -9.083 c 0,0 -4.428,-15 104.322,-15 108.75,0 104.321,15.333 104.321,15.333 v 8.5 z" /><polygon
         style="fill:#fca81f;stroke:#000000;stroke-miterlimit:10"
         id="polygon153"
         points="466.667,540 465,545.75 398.276,545.75 398.276,540 "
         stroke-miterlimit="10" /><polygon
         style="fill:#fca81f;stroke:#000000;stroke-miterlimit:10"
         id="polygon155"
         points="539.584,540 541.25,545.75 607.974,545.75 607.974,540 "
         stroke-miterlimit="10" /><circle
         style="fill:#fcbf1b;stroke:#000000;stroke-miterlimit:10"
         sodipodi:ry="6"
         sodipodi:rx="6"
         sodipodi:cy="430.83301"
         sodipodi:cx="445.33301"
         d="m 451.33301,430.83301 c 0,3.31371 -2.68629,6 -6,6 -3.31371,0 -6,-2.68629 -6,-6 0,-3.31371 2.68629,-6 6,-6 3.31371,0 6,2.68629 6,6 z"
         id="circle157"
         r="6"
         cy="430.83301"
         cx="445.33301"
         stroke-miterlimit="10" /><circle
         style="fill:#171f21;stroke:#000000;stroke-miterlimit:10"
         sodipodi:ry="5"
         sodipodi:rx="5"
         sodipodi:cy="482.33401"
         sodipodi:cx="437.02899"
         d="m 442.02899,482.33401 c 0,2.76143 -2.23857,5 -5,5 -2.76142,0 -5,-2.23857 -5,-5 0,-2.76142 2.23858,-5 5,-5 2.76143,0 5,2.23858 5,5 z"
         id="circle159"
         r="5"
         cy="482.33401"
         cx="437.02899"
         stroke-miterlimit="10" /><path
         style="fill:#ff4900;stroke:#000000;stroke-miterlimit:10"
         inkscape:connector-curvature="0"
         id="path161"
         d="m 398.276,467.333 h 3.75 c 1.657,0 3,-1.343 3,-3 V 451 c 0,-1.657 -1.343,-3 -3,-3 h -3.75 v 19.333 z"
         stroke-miterlimit="10" /><path
         style="fill:#ff4900;stroke:#000000;stroke-miterlimit:10"
         inkscape:connector-curvature="0"
         id="path163"
         d="m 601.224,464.417 c 0,1.657 1.343,3 3,3 h 3.75 v -19.333 h -3.75 c -1.657,0 -3,1.343 -3,3 v 13.333 z"
         stroke-miterlimit="10" /><circle
         style="fill:#171f21;stroke:#000000;stroke-miterlimit:10"
         sodipodi:ry="5"
         sodipodi:rx="5"
         sodipodi:cy="482.33401"
         sodipodi:cx="570.25"
         d="m 575.25,482.33401 c 0,2.76143 -2.23858,5 -5,5 -2.76142,0 -5,-2.23857 -5,-5 0,-2.76142 2.23858,-5 5,-5 2.76142,0 5,2.23858 5,5 z"
         id="circle165"
         r="5"
         cy="482.33401"
         cx="570.25"
         stroke-miterlimit="10" /><circle
         style="fill:#171f21;stroke:#000000;stroke-miterlimit:10"
         sodipodi:ry="3.9579999"
         sodipodi:rx="3.9579999"
         sodipodi:cy="432.95801"
         sodipodi:cx="568.04199"
         d="m 571.99999,432.95801 c 0,2.18594 -1.77205,3.958 -3.958,3.958 -2.18594,0 -3.958,-1.77206 -3.958,-3.958 0,-2.18595 1.77206,-3.958 3.958,-3.958 2.18595,0 3.958,1.77205 3.958,3.958 z"
         id="circle167"
         r="3.9579999"
         cy="432.95801"
         cx="568.04199"
         stroke-miterlimit="10" /><rect
         style="fill:#424242;stroke:#000000;stroke-miterlimit:10"
         id="rect169"
         height="17.167"
         width="168.83299"
         stroke-miterlimit="10"
         y="348.5"
         x="428.83301" /><circle
         style="fill:#8c8c8c;stroke:#000000;stroke-miterlimit:10"
         sodipodi:ry="10.667"
         sodipodi:rx="10.667"
         sodipodi:cy="353"
         sodipodi:cx="447.83301"
         d="m 458.50001,353 c 0,5.89122 -4.77578,10.667 -10.667,10.667 -5.89122,0 -10.667,-4.77578 -10.667,-10.667 0,-5.89122 4.77578,-10.667 10.667,-10.667 5.89122,0 10.667,4.77578 10.667,10.667 z"
         id="circle171"
         r="10.667"
         cy="353"
         cx="447.83301"
         stroke-miterlimit="10" /><circle
         style="fill:#8c8c8c;stroke:#000000;stroke-miterlimit:10"
         sodipodi:ry="10.333"
         sodipodi:rx="10.333"
         sodipodi:cy="353"
         sodipodi:cx="425.83301"
         d="m 436.16601,353 c 0,5.70676 -4.62624,10.333 -10.333,10.333 -5.70676,0 -10.333,-4.62624 -10.333,-10.333 0,-5.70676 4.62624,-10.333 10.333,-10.333 5.70676,0 10.333,4.62624 10.333,10.333 z"
         id="circle173"
         r="10.333"
         cy="353"
         cx="425.83301"
         stroke-miterlimit="10" /><rect
         style="fill:#6b6b6b;stroke:#000000;stroke-miterlimit:10"
         id="rect175"
         height="31.358999"
         width="76.333"
         stroke-miterlimit="10"
         y="365.66699"
         x="465.83301" /><path
         style="fill:#bdd4db;stroke:#000000;stroke-miterlimit:10"
         inkscape:connector-curvature="0"
         id="path177"
         d="m 505.059,186.25 c 59.25,0 93.661,10.385 93.661,10.385 0,0 0.137,-7.721 0.115,-8.095 -0.166,-2.784 -0.229,-14.54 -93.776,-14.54 -93.547,0 -95.727,11.756 -95.893,14.54 -0.022,0.374 0.115,8.095 0.115,8.095 0,0 36.528,-10.385 95.778,-10.385 z"
         stroke-miterlimit="10" /><path
         style="fill:#ff4900;stroke:#000000;stroke-miterlimit:10"
         inkscape:connector-curvature="0"
         id="path179"
         d="m 407,324.25 h 27.183 v 3.29 c 0,5.426 -4.478,9.825 -10,9.825 H 417 c -5.523,0 -10,-4.399 -10,-9.825 v -3.29 z"
         stroke-miterlimit="10" /><path
         style="fill:#fee821;stroke:#000000;stroke-miterlimit:10"
         inkscape:connector-curvature="0"
         id="path181"
         d="m 435.75,324.404 c 10.75,0 16.625,0 24.692,0 0,6.818 -5.527,12.346 -12.346,12.346 -6.819,0 -12.346,-5.527 -12.346,-12.346 z"
         stroke-miterlimit="10" /><path
         style="fill:#ff4900;stroke:#000000;stroke-miterlimit:10"
         inkscape:connector-curvature="0"
         id="path183"
         d="m 601,324.02 h -27.183 v 3.29 c 0,5.426 4.478,9.825 10,9.825 H 591 c 5.523,0 10,-4.399 10,-9.825 v -3.29 z"
         stroke-miterlimit="10" /><path
         style="fill:#fee821;stroke:#000000;stroke-miterlimit:10"
         inkscape:connector-curvature="0"
         id="path185"
         d="m 572.25,324.174 c -10.75,0 -16.625,0 -24.691,0 0,6.818 5.527,12.346 12.346,12.346 6.819,0 12.345,-5.528 12.345,-12.346 z"
         stroke-miterlimit="10" /><path
         style="fill:#171f21;stroke:#000000;stroke-miterlimit:10"
         inkscape:connector-curvature="0"
         id="path187"
         d="m 384.095,227.929 c -5.08,0 -4.135,-13.586 0,-17.722 4.135,-4.135 18.076,-4.253 18.076,0 0,4.253 -12.996,17.722 -18.076,17.722 z"
         stroke-miterlimit="10" /><path
         style="fill:#bdd4db;stroke:#000000;stroke-miterlimit:10"
         inkscape:connector-curvature="0"
         id="path189"
         d="m 384.095,227.929 c 0,0 -0.032,-9.741 4.155,-13.929 4.187,-4.188 13.921,-3.793 13.921,-3.793 0,0 -0.58,3.896 -7.639,10.956 -7.059,7.06 -10.437,6.766 -10.437,6.766 z"
         stroke-miterlimit="10" /><polygon
         style="fill:#171f21;stroke:#000000;stroke-miterlimit:10"
         id="polygon191"
         points="402.171,210.207 398.216,217.091 407,217.091 407,211.083 "
         stroke-miterlimit="10" /><path
         style="fill:#171f21;stroke:#000000;stroke-miterlimit:10"
         inkscape:connector-curvature="0"
         id="path193"
         d="m 623.849,227.118 c 5.08,0 4.135,-13.586 0,-17.722 -4.136,-4.135 -18.076,-4.253 -18.076,0 -10e-4,4.254 12.995,17.722 18.076,17.722 z"
         stroke-miterlimit="10" /><path
         style="fill:#bdd4db;stroke:#000000;stroke-miterlimit:10"
         inkscape:connector-curvature="0"
         id="path195"
         d="m 623.849,227.118 c 0,0 0.032,-9.741 -4.155,-13.929 -4.187,-4.188 -13.921,-3.793 -13.921,-3.793 0,0 0.58,3.896 7.64,10.956 7.058,7.06 10.436,6.766 10.436,6.766 z"
         stroke-miterlimit="10" /><polygon
         style="fill:#171f21;stroke:#000000;stroke-miterlimit:10"
         id="polygon197"
         points="605.772,209.396 609.727,216.28 600.943,216.28 600.943,210.273 "
         stroke-miterlimit="10" /><rect
         style="fill:#424242;stroke:#000000;stroke-miterlimit:10"
         id="rect199"
         height="28.301001"
         width="85.583"
         stroke-miterlimit="10"
         y="337.36499"
         x="460.91699" /><rect
         style="fill:#171f21;stroke:#000000;stroke-miterlimit:10"
         id="rect201"
         height="81.324997"
         width="69"
         stroke-miterlimit="10"
         y="337.509"
         x="473.16699" /><rect
         style="fill:#424242;stroke:#000000;stroke-miterlimit:10"
         id="rect203"
         height="21.639999"
         width="82.75"
         stroke-miterlimit="10"
         y="397.194"
         x="462.5" /><rect
         style="fill:#6b6b6b;stroke:#000000;stroke-miterlimit:10"
         id="rect205"
         height="6.8270001"
         width="19.25"
         stroke-miterlimit="10"
         y="406.84299"
         x="534.5" /><rect
         style="fill:#6b6b6b;stroke:#000000;stroke-miterlimit:10"
         id="rect207"
         height="3.306"
         width="11.583"
         stroke-miterlimit="10"
         y="397.194"
         x="542.16699" /><rect
         style="fill:#171f21;stroke:#000000;stroke-miterlimit:10"
         id="rect209"
         height="60.5"
         width="7.5"
         stroke-miterlimit="10"
         y="288"
         x="399.5" /><rect
         style="fill:#171f21;stroke:#000000;stroke-miterlimit:10"
         id="rect211"
         height="60.5"
         width="7.0570002"
         stroke-miterlimit="10"
         y="288"
         x="600.94299" /><rect
         style="fill:#424242;stroke:#000000;stroke-miterlimit:10"
         id="rect213"
         height="17.75"
         width="7.0300002"
         stroke-miterlimit="10"
         y="270.25"
         x="600.94299" /><rect
         style="fill:#424242;stroke:#000000;stroke-miterlimit:10"
         id="rect215"
         height="17.75"
         width="7.6420002"
         stroke-miterlimit="10"
         y="270.25"
         x="399.358" /><polygon
         style="fill:#424242;stroke:#000000;stroke-miterlimit:10"
         id="polygon217"
         points="431.408,424.833 431.333,397.026 398.276,397.026 398.276,434.333 "
         stroke-miterlimit="10" /><polygon
         style="fill:#424242;stroke:#000000;stroke-miterlimit:10"
         id="polygon219"
         points="574.841,424.833 574.915,397.026 607.974,397.026 607.974,434.333 "
         stroke-miterlimit="10" /><rect
         style="fill:#6b6b6b;stroke:#000000;stroke-miterlimit:10"
         id="rect221"
         height="5.6570001"
         width="18.806999"
         stroke-miterlimit="10"
         y="406.84299"
         x="405.85901" /><rect
         style="fill:#6b6b6b;stroke:#000000;stroke-miterlimit:10"
         id="rect223"
         height="5.6570001"
         width="18.806999"
         stroke-miterlimit="10"
         y="420.34299"
         x="406.09698" /><rect
         style="fill:#171f21;stroke:#000000;stroke-miterlimit:10"
         id="rect225"
         height="7.8429999"
         width="10.333"
         stroke-miterlimit="10"
         y="412.5"
         x="410.16699" /><rect
         style="fill:#6b6b6b;stroke:#000000;stroke-miterlimit:10"
         id="rect227"
         height="5.6570001"
         width="18.806999"
         stroke-miterlimit="10"
         y="406.84299"
         x="582.81299" /><rect
         style="fill:#6b6b6b;stroke:#000000;stroke-miterlimit:10"
         id="rect229"
         height="5.6570001"
         width="18.806999"
         stroke-miterlimit="10"
         y="420.34299"
         x="582.57501" /><rect
         style="fill:#171f21;stroke:#000000;stroke-miterlimit:10"
         id="rect231"
         height="7.8429999"
         width="10.334"
         stroke-miterlimit="10"
         y="412.5"
         x="586.979" /><path
         style="fill:#ff4900;stroke:#000000;stroke-miterlimit:10"
         inkscape:connector-curvature="0"
         id="path233"
         d="m 421.759,397.026 c -2.592,0 -9.097,0 -13.833,0 0,-3.82 3.097,-6.917 6.917,-6.917 3.819,0 6.916,3.097 6.916,6.917 z"
         stroke-miterlimit="10" /><path
         style="fill:#ff4900;stroke:#000000;stroke-miterlimit:10"
         inkscape:connector-curvature="0"
         id="path235"
         d="m 598.895,397.026 c -2.592,0 -9.096,0 -13.833,0 0,-3.82 3.097,-6.917 6.917,-6.917 3.82,0 6.916,3.097 6.916,6.917 z"
         stroke-miterlimit="10" /><rect
         style="fill:#424242;stroke:#000000;stroke-miterlimit:10"
         id="rect237"
         height="132.41701"
         width="77.057999"
         stroke-miterlimit="10"
         y="612.66699"
         x="398.276" /><polygon
         style="fill:#8c8c8c;stroke:#000000;stroke-miterlimit:10"
         id="polygon239"
         points="407.306,608.658 409.621,604.649 411.936,608.658 414.25,612.667 409.621,612.667 404.992,612.667 "
         stroke-miterlimit="10" /><polygon
         style="fill:#8c8c8c;stroke:#000000;stroke-miterlimit:10"
         id="polygon241"
         points="465.357,608.658 467.672,604.649 469.987,608.658 472.301,612.667 467.672,612.667 463.043,612.667 "
         stroke-miterlimit="10" /></g><g
       transform="matrix(0.03449721,0,0,0.03449721,-12.112936,0.8232018)"
       id="Control_turret"><rect
         style="fill:#ff4900;stroke:#000000;stroke-miterlimit:10"
         id="rect244"
         height="19.833"
         width="9.224"
         stroke-miterlimit="10"
         y="935.83398"
         x="398.276" /><rect
         style="fill:#ff4900;stroke:#000000;stroke-miterlimit:10"
         id="rect246"
         height="19.833"
         width="9.2250004"
         stroke-miterlimit="10"
         y="935.83398"
         x="598.74902" /><polygon
         style="fill:#fcbf1b;stroke:#000000;stroke-miterlimit:10"
         id="polygon248"
         points="603.361,742 603.361,973.623 402.888,973.623 402.888,756.75 537,756.75 537.166,743.333 "
         stroke-miterlimit="10" /><rect
         style="fill:#fcbf1b;stroke:#000000;stroke-miterlimit:10"
         id="rect250"
         height="120.917"
         width="63.778999"
         stroke-miterlimit="10"
         y="756.75"
         x="402.888" /><rect
         style="fill:#fca81f;stroke:#000000;stroke-miterlimit:10"
         id="rect252"
         height="37"
         width="47.667"
         stroke-miterlimit="10"
         y="877.66699"
         x="419" /><rect
         style="fill:#fcbf1b;stroke:#000000;stroke-miterlimit:10"
         id="rect254"
         height="37"
         width="35"
         stroke-miterlimit="10"
         y="877.66699"
         x="426.33301" /><rect
         style="fill:#fca81f;stroke:#000000;stroke-miterlimit:10"
         id="rect256"
         height="86.417"
         width="5.3330002"
         stroke-miterlimit="10"
         y="791.25"
         x="461.33301" /><circle
         style="fill:#424242;stroke:#000000;stroke-miterlimit:10"
         sodipodi:ry="18.5"
         sodipodi:rx="18.5"
         sodipodi:cy="838.83398"
         sodipodi:cx="423.5"
         d="m 442,838.83398 c 0,10.21727 -8.28273,18.5 -18.5,18.5 -10.21727,0 -18.5,-8.28273 -18.5,-18.5 0,-10.21726 8.28273,-18.5 18.5,-18.5 10.21727,0 18.5,8.28274 18.5,18.5 z"
         id="circle258"
         r="18.5"
         cy="838.83398"
         cx="423.5"
         stroke-miterlimit="10" /><rect
         style="fill:#fca81f;stroke:#000000;stroke-miterlimit:10"
         id="rect260"
         height="92.75"
         width="70.973999"
         stroke-miterlimit="10"
         y="664"
         x="537" /><polygon
         style="fill:#fcbf1b;stroke:#000000;stroke-miterlimit:10"
         id="polygon262"
         points="546.25,873 546.25,756.75 574.25,756.75 574.25,883.333 554,883.333 "
         stroke-miterlimit="10" /><rect
         style="fill:#fcbf1b;stroke:#000000;stroke-miterlimit:10"
         id="rect264"
         height="85.250999"
         width="28"
         stroke-miterlimit="10"
         y="756.75"
         x="546.25" /><rect
         style="fill:#403940;stroke:#000000;stroke-miterlimit:10"
         id="rect266"
         height="13.374"
         width="8.25"
         stroke-miterlimit="10"
         y="792.68799"
         x="562" /><rect
         style="fill:none;stroke:#000000;stroke-miterlimit:10"
         id="rect268"
         height="14.75"
         width="26.236"
         stroke-miterlimit="10"
         y="671.25"
         x="546.25" /><polygon
         style="fill:#bdd4db;stroke:#000000;stroke-miterlimit:10"
         id="polygon270"
         points="402.888,791.25 402.888,774 421.5,774 422.132,777.757 466.667,777.757 466.667,791.25 "
         stroke-miterlimit="10" /><rect
         style="fill:#fca81f;stroke:#000000;stroke-miterlimit:10"
         id="rect272"
         height="62.287998"
         width="79.583"
         stroke-miterlimit="10"
         y="848.5"
         x="466.66699" /><polygon
         style="fill:#fca81f;stroke:#000000;stroke-miterlimit:10"
         id="polygon274"
         points="466.667,756.75 466.667,777.757 422.132,777.757 421.5,773.623 402.888,773.623 402.888,756.75 "
         stroke-miterlimit="10" /><rect
         style="fill:#fcbf1b;stroke:#000000;stroke-miterlimit:10"
         id="rect276"
         height="117.75"
         width="28.414"
         stroke-miterlimit="10"
         y="756.75"
         x="574.25" /><rect
         style="fill:#fca81f;stroke:#000000;stroke-miterlimit:10"
         id="rect278"
         height="5.145"
         width="28.414"
         stroke-miterlimit="10"
         y="874.5"
         x="574.25" /><rect
         style="fill:#fcbf1b;stroke:#000000;stroke-miterlimit:10"
         id="rect280"
         height="78.25"
         width="63.25"
         stroke-miterlimit="10"
         y="671.25"
         x="537" /><line
         style="fill:#fcbf1b;stroke:#000000;stroke-miterlimit:10"
         id="line282"
         y2="671.25"
         x2="600.25"
         y1="664"
         x1="607.974"
         stroke-miterlimit="10" /><line
         style="fill:#fcbf1b;stroke:#000000;stroke-miterlimit:10"
         id="line284"
         y2="749.5"
         x2="600.25"
         y1="756.75"
         x1="607.974"
         stroke-miterlimit="10" /><path
         style="fill:#fcbf1b;stroke:#000000;stroke-miterlimit:10"
         inkscape:connector-curvature="0"
         id="path286"
         d="m 603.361,973.623 c 0,0 0,-38.455 0,-50.268 0,-11.813 -26.678,-12.567 -33.537,-12.567 -14.047,0 -66.699,0 -66.699,0 0,0 -59.735,0 -66.613,0 -6.878,0 -33.624,0.754 -33.624,12.567 0,10.977 0,10.756 0,50.268 0,0 45.481,16.589 100.237,16.589 54.757,0 100.236,-16.589 100.236,-16.589 z"
         stroke-miterlimit="10" /><rect
         style="fill:#8c8c8c;stroke:#000000;stroke-miterlimit:10"
         id="rect288"
         height="16"
         width="17.777"
         stroke-miterlimit="10"
         y="834.00098"
         x="417" /><rect
         style="fill:#8c8c8c;stroke:#000000;stroke-miterlimit:10"
         id="rect290"
         height="8.3330002"
         width="9.2220001"
         stroke-miterlimit="10"
         y="823.66699"
         x="419" /></g><g
       transform="matrix(0.03449721,0,0,0.03449721,-12.112936,0.8232018)"
       id="Crane"><polygon
         style="fill:#d64528;stroke:#000000;stroke-miterlimit:10"
         id="polygon293"
         points="536,769.667 536,910.788 477,910.788 477,223.75 480.875,223.75 480.75,209.75 477,209.625 477,168.75 479.917,168.75 480.083,120 531.667,120 531.667,222.375 533.834,222.167 532.938,598.137 529.5,598.375 529.5,607.75 532.75,607.75 532.816,769.667 "
         stroke-miterlimit="10" /><rect
         style="stroke:#000000;stroke-miterlimit:10"
         id="rect295"
         height="30.625"
         width="45.875"
         stroke-miterlimit="10"
         y="120"
         x="483.25" /><rect
         style="fill:#d64528;stroke:#000000;stroke-miterlimit:10"
         id="rect297"
         height="8"
         width="55.167"
         stroke-miterlimit="10"
         y="112"
         x="477.83301" /><rect
         style="fill:#d64528;stroke:#000000;stroke-miterlimit:10"
         id="rect299"
         height="9"
         width="63.5"
         stroke-miterlimit="10"
         y="103"
         x="474.5" /><rect
         style="fill:#d64528;stroke:#000000;stroke-miterlimit:10"
         id="rect301"
         height="4.5"
         width="47.292"
         stroke-miterlimit="10"
         y="98.5"
         x="481.83301" /><rect
         style="fill:#d64528;stroke:#000000;stroke-miterlimit:10"
         id="rect303"
         height="14.333"
         width="59.271"
         stroke-miterlimit="10"
         y="84.167"
         x="477" /><rect
         style="fill:#d64528;stroke:#000000;stroke-miterlimit:10"
         id="rect305"
         height="14.333"
         width="48.667"
         stroke-miterlimit="10"
         y="84.167"
         x="481.83301" /><rect
         style="fill:#d64528;stroke:#000000;stroke-miterlimit:10"
         id="rect307"
         height="5.5"
         width="11.833"
         stroke-miterlimit="10"
         y="84.167"
         x="481.83301" /><rect
         style="fill:#d64528;stroke:#000000;stroke-miterlimit:10"
         id="rect309"
         height="5.5"
         width="11.667"
         stroke-miterlimit="10"
         y="84.167"
         x="518.83301" /><rect
         style="fill:#d64528;stroke:#000000;stroke-miterlimit:10"
         id="rect311"
         height="13"
         width="53.667"
         stroke-miterlimit="10"
         y="71.167"
         x="479.33301" /><rect
         style="fill:#d64528;stroke:#000000;stroke-miterlimit:10"
         id="rect313"
         height="11.833"
         width="48.667"
         stroke-miterlimit="10"
         y="59.333"
         x="481.83301" /><rect
         style="fill:#d64528;stroke:#000000;stroke-miterlimit:10"
         id="rect315"
         height="34.5"
         width="27"
         stroke-miterlimit="10"
         y="24.833"
         x="491.83301" /><rect
         style="fill:#d64528;stroke:#000000;stroke-miterlimit:10"
         id="rect317"
         height="4.8330002"
         width="19.5"
         stroke-miterlimit="10"
         y="50.333"
         x="472.33301" /><polygon
         style="fill:#d64528;stroke:#000000;stroke-miterlimit:10"
         id="polygon319"
         points="477.833,112 477.833,118.333 465.167,118.333 465.167,109.833 474.5,109.833 474.5,112 "
         stroke-miterlimit="10" /><rect
         style="fill:#d64528;stroke:#000000;stroke-miterlimit:10"
         id="rect321"
         height="9.25"
         width="50.459"
         stroke-miterlimit="10"
         y="37.875"
         x="480.75" /><rect
         style="fill:#d64528;stroke:#000000;stroke-miterlimit:10"
         id="rect323"
         height="7.2080002"
         width="10.334"
         stroke-miterlimit="10"
         y="52.125"
         x="518.83301" /><rect
         style="fill:#d64528;stroke:#000000;stroke-miterlimit:10"
         id="rect325"
         height="9.5"
         width="14.167"
         stroke-miterlimit="10"
         y="72.375"
         x="465.16699" /><polygon
         style="fill:#d64528;stroke:#000000;stroke-miterlimit:10"
         id="polygon327"
         points="481.833,98.5 481.833,101.625 464.625,101.625 464.625,95.125 477,95.125 477,98.5 "
         stroke-miterlimit="10" /><polygon
         style="fill:#d64528;stroke:#000000;stroke-miterlimit:10"
         id="polygon329"
         points="590.383,665.167 595.383,69.291 600.25,69.291 595.25,665.167 "
         stroke-miterlimit="10" /><polygon
         style="fill:#d64528;stroke:#000000;stroke-miterlimit:10"
         id="polygon331"
         points="567.25,665.167 545,69.917 550.422,69.917 572.25,665.167 "
         stroke-miterlimit="10" /><polygon
         style="fill:#424242;stroke:#000000;stroke-miterlimit:10"
         id="polygon333"
         points="563,68.75 572.25,618 588.75,618 581.5,68.75 "
         stroke-miterlimit="10" /><polygon
         style="fill:#d64528;stroke:#000000;stroke-miterlimit:10"
         id="polygon335"
         points="570.559,621.25 570.438,618 590.657,618 590.63,621.25 "
         stroke-miterlimit="10" /><polygon
         style="fill:#d64528;stroke:#000000;stroke-miterlimit:10"
         id="polygon337"
         points="571.75,645.5 571.419,642.506 590.25,642.506 590.25,645.5 "
         stroke-miterlimit="10" /><polygon
         style="fill:#d64528;stroke:#000000;stroke-miterlimit:10"
         id="polygon339"
         points="573.79,618 570.438,618 570.318,614.814 590.838,596.498 590.757,602.454 "
         stroke-miterlimit="10" /><polygon
         style="fill:#d64528;stroke:#000000;stroke-miterlimit:10"
         id="polygon341"
         points="590.892,590.123 568.426,563.813 568.729,572.309 590.838,596.498 "
         stroke-miterlimit="10" /><polygon
         style="fill:#d64528;stroke:#000000;stroke-miterlimit:10"
         id="polygon343"
         points="568.258,559.686 568.426,563.813 569.638,565.06 591.331,537.749 591.412,530.565 "
         stroke-miterlimit="10" /><polygon
         style="fill:#d64528;stroke:#000000;stroke-miterlimit:10"
         id="polygon345"
         points="565.719,491.747 591.462,522.241 591.462,529.588 566.011,499.563 "
         stroke-miterlimit="10" /><polygon
         style="fill:#d64528;stroke:#000000;stroke-miterlimit:10"
         id="polygon347"
         points="567.82,494.235 565.719,491.747 565.595,488.427 592.007,458.25 591.929,466.665 "
         stroke-miterlimit="10" /><polygon
         style="fill:#d64528;stroke:#000000;stroke-miterlimit:10"
         id="polygon349"
         points="592.052,451.988 563,419.833 563.285,426.62 592.007,458.25 "
         stroke-miterlimit="10" /><polygon
         style="fill:#d64528;stroke:#000000;stroke-miterlimit:10"
         id="polygon351"
         points="562.984,418.586 563,419.833 565.707,422.83 592.602,393.625 592.602,386.561 "
         stroke-miterlimit="10" /><polygon
         style="fill:#d64528;stroke:#000000;stroke-miterlimit:10"
         id="polygon353"
         points="592.652,380.498 560.402,351.037 560.68,358.438 592.602,386.561 "
         stroke-miterlimit="10" /><polygon
         style="fill:#d64528;stroke:#000000;stroke-miterlimit:10"
         id="polygon355"
         points="562.393,352.855 560.402,351.037 560.35,348.082 593.092,321.875 593.092,328.187 "
         stroke-miterlimit="10" /><polygon
         style="fill:#d64528;stroke:#000000;stroke-miterlimit:10"
         id="polygon357"
         points="593.348,311.583 558.251,286.5 558.341,294.338 593.207,318.899 "
         stroke-miterlimit="10" /><polygon
         style="fill:#d64528;stroke:#000000;stroke-miterlimit:10"
         id="polygon359"
         points="557.821,280.443 558.251,286.5 559.43,287.342 593.799,257.837 593.881,248.167 "
         stroke-miterlimit="10" /><polygon
         style="fill:#d64528;stroke:#000000;stroke-miterlimit:10"
         id="polygon361"
         points="555.491,218.084 592.653,249.265 587.439,253.932 555.861,227.984 "
         stroke-miterlimit="10" /><polygon
         style="fill:#d64528;stroke:#000000;stroke-miterlimit:10"
         id="polygon363"
         points="594.31,197.057 561.229,222.897 555.958,218.476 594.274,188.547 "
         stroke-miterlimit="10" /><polygon
         style="fill:#d64528;stroke:#000000;stroke-miterlimit:10"
         id="polygon365"
         points="594.399,186.329 594.385,188.161 589.764,192.07 553.56,166.413 553.195,156.662 "
         stroke-miterlimit="10" /><polygon
         style="fill:#d64528;stroke:#000000;stroke-miterlimit:10"
         id="polygon367"
         points="594.866,130.75 553.886,157.159 559.583,161.261 594.795,139.234 "
         stroke-miterlimit="10" /><polygon
         style="fill:#d64528;stroke:#000000;stroke-miterlimit:10"
         id="polygon369"
         points="551.463,110.305 593.151,131.855 587.939,135.214 551.694,116.507 "
         stroke-miterlimit="10" /><polygon
         style="fill:#d64528;stroke:#000000;stroke-miterlimit:10"
         id="polygon371"
         points="551.317,106.423 551.463,110.305 554.742,112 595.24,86.251 595.24,78.375 "
         stroke-miterlimit="10" /><polygon
         style="fill:#d64528;stroke:#000000;stroke-miterlimit:10"
         id="polygon373"
         points="550.589,86.917 550.422,81.875 595.316,81.25 595.24,86.251 "
         stroke-miterlimit="10" /><polygon
         style="fill:#d64528;stroke:#000000;stroke-miterlimit:10"
         id="polygon375"
         points="560.583,68.75 563.917,62.167 580.917,62.167 583.917,68.75 "
         stroke-miterlimit="10" /><rect
         style="fill:#d64528;stroke:#000000;stroke-miterlimit:10"
         id="rect377"
         height="15.75"
         width="12"
         stroke-miterlimit="10"
         y="42.5"
         x="566.125" /><rect
         style="fill:#d64528;stroke:#000000;stroke-miterlimit:10"
         id="rect379"
         height="3.9170001"
         width="7.5939999"
         stroke-miterlimit="10"
         y="58.25"
         x="568" /><rect
         style="fill:#d64528;stroke:#000000;stroke-miterlimit:10"
         id="rect381"
         height="5.5"
         width="48.667"
         stroke-miterlimit="10"
         y="84.167"
         x="481.83301" /><rect
         style="fill:#d64528;stroke:#000000;stroke-miterlimit:10"
         id="rect383"
         height="7.0419998"
         width="49.792"
         stroke-miterlimit="10"
         y="77.125"
         x="479.33301" /><rect
         style="fill:#d64528;stroke:#000000;stroke-miterlimit:10"
         id="rect385"
         height="8"
         width="34.333"
         stroke-miterlimit="10"
         y="76.167"
         x="488.83301" /><rect
         style="fill:#d64528;stroke:#000000;stroke-miterlimit:10"
         id="rect387"
         height="25.5"
         width="9.25"
         stroke-miterlimit="10"
         y="31.125"
         x="591" /><rect
         style="fill:#d64528;stroke:#000000;stroke-miterlimit:10"
         id="rect389"
         height="25.5"
         width="9.25"
         stroke-miterlimit="10"
         y="31.125"
         x="542.06702" /><rect
         style="fill:#d64528;stroke:#000000;stroke-miterlimit:10"
         id="rect391"
         height="4.875"
         width="14.808"
         stroke-miterlimit="10"
         y="47.25"
         x="551.31702" /><rect
         style="fill:#d64528;stroke:#000000;stroke-miterlimit:10"
         id="rect393"
         height="4.875"
         width="12.875"
         stroke-miterlimit="10"
         y="47.25"
         x="578.125" /><rect
         style="fill:#d64528;stroke:#000000;stroke-miterlimit:10"
         id="rect395"
         height="13.292"
         width="4.6609998"
         stroke-miterlimit="10"
         y="56.625"
         x="545.422" /><rect
         style="fill:#d64528;stroke:#000000;stroke-miterlimit:10"
         id="rect397"
         height="12.583"
         width="4.2080002"
         stroke-miterlimit="10"
         y="56.708"
         x="595.625" /><path
         style="fill:#d64528;stroke:#000000;stroke-miterlimit:10"
         inkscape:connector-curvature="0"
         id="path399"
         d="m 531.5,22.75 c 0,3.728 3.022,6.75 6.75,6.75 0.607,0 3.01,-0.875 3.817,1.625 h 9.25 c 0,0 -0.896,-15.75 -13.067,-15.125 -3.723,0.191 -6.75,3.022 -6.75,6.75 z"
         stroke-miterlimit="10" /><circle
         style="fill:none;stroke:#000000;stroke-miterlimit:10"
         sodipodi:ry="3.4170001"
         sodipodi:rx="3.4170001"
         sodipodi:cy="23.084"
         sodipodi:cx="538.65002"
         d="m 542.06702,23.084 c 0,1.887157 -1.52984,3.417 -3.417,3.417 -1.88715,0 -3.417,-1.529843 -3.417,-3.417 0,-1.887157 1.52985,-3.417 3.417,-3.417 1.88716,0 3.417,1.529843 3.417,3.417 z"
         id="circle401"
         r="3.4170001"
         cy="23.084"
         cx="538.65002"
         stroke-miterlimit="10" /><path
         style="fill:#d64528;stroke:#000000;stroke-miterlimit:10"
         inkscape:connector-curvature="0"
         id="path403"
         d="M 604.067,13.789 C 591.896,13.075 591,31.072 591,31.072 h 9.25 c 0.808,-2.857 3.21,-1.857 3.817,-1.857 3.728,0 6.75,-3.453 6.75,-7.713 0,-4.26 -3.027,-7.495 -6.75,-7.713 z m -0.4,12 c -1.887,0 -3.417,-1.748 -3.417,-3.905 0,-2.156 1.53,-3.904 3.417,-3.904 1.887,0 3.417,1.748 3.417,3.904 0,2.157 -1.53,3.905 -3.417,3.905 z"
         stroke-miterlimit="10" /><rect
         style="fill:#d64528;stroke:#000000;stroke-miterlimit:10"
         id="rect405"
         height="8.375"
         width="39.682999"
         stroke-miterlimit="10"
         y="31.625"
         x="551.31702" /><rect
         style="fill:#d64528;stroke:#000000;stroke-miterlimit:10"
         id="rect407"
         height="4.75"
         width="41"
         stroke-miterlimit="10"
         y="5.625"
         x="485.625" /><rect
         style="fill:#d64528;stroke:#000000;stroke-miterlimit:10"
         id="rect409"
         height="6.75"
         width="36.791"
         stroke-miterlimit="10"
         y="10.375"
         x="487.875" /><path
         style="fill:#d64528;stroke:#000000;stroke-miterlimit:10"
         inkscape:connector-curvature="0"
         id="path411"
         d="m 487.75,17.979 c 0,0 -4.966,-1.479 -6.75,-1.479 -3.797,0 -6.875,3.078 -6.875,6.875 0,3.797 3.078,6.875 6.875,6.875 0.987,0 0.833,7.625 0.833,7.625 h 6.042 v -14.5 l -0.125,-5.396 z m -7.833,8.938 c -1.841,0 -3.333,-1.492 -3.333,-3.333 0,-1.841 1.492,-3.333 3.333,-3.333 1.841,0 3.333,1.492 3.333,3.333 0,1.84 -1.492,3.333 -3.333,3.333 z"
         stroke-miterlimit="10" /><path
         style="fill:#d64528;stroke:#000000;stroke-miterlimit:10"
         inkscape:connector-curvature="0"
         id="path413"
         d="m 524.625,23.104 v 14.5 h 6.041 c 0,0 -0.153,-7.625 0.834,-7.625 3.797,0 6.875,-3.078 6.875,-6.875 0,-3.797 -3.078,-6.875 -6.875,-6.875 -1.783,0 -6.75,1.479 -6.75,1.479 l -0.125,5.396 z"
         stroke-miterlimit="10" /><circle
         style="fill:none;stroke:#000000;stroke-miterlimit:10"
         sodipodi:ry="3.3329999"
         sodipodi:rx="3.3329999"
         sodipodi:cy="23.312"
         sodipodi:cx="532.58301"
         d="m 535.91601,23.312 c 0,1.840765 -1.49224,3.333 -3.333,3.333 -1.84077,0 -3.333,-1.492235 -3.333,-3.333 0,-1.840765 1.49223,-3.333 3.333,-3.333 1.84076,0 3.333,1.492235 3.333,3.333 z"
         id="circle415"
         r="3.3329999"
         cy="23.312"
         cx="532.58301"
         stroke-miterlimit="10" /><rect
         style="fill:none;stroke:#000000;stroke-miterlimit:10"
         id="rect417"
         height="20.479"
         width="36.938"
         stroke-miterlimit="10"
         y="17.125"
         x="487.68799" /><polygon
         style="fill:#d64528;stroke:#000000;stroke-miterlimit:10"
         id="polygon419"
         points="492.042,24.833 488.396,17.125 524,17.125 518.678,24.833 "
         stroke-miterlimit="10" /><rect
         style="fill:none;stroke:#000000;stroke-miterlimit:10"
         id="rect421"
         height="5.5"
         width="27"
         stroke-miterlimit="10"
         y="32.25"
         x="491.83301" /><rect
         style="fill:#d64528;stroke:#000000;stroke-miterlimit:10"
         id="rect423"
         height="4.1669998"
         width="27"
         stroke-miterlimit="10"
         y="55.167"
         x="491.83301" /><path
         style="fill:#424242;stroke:#000000;stroke-miterlimit:10"
         inkscape:connector-curvature="0"
         id="path425"
         d="m 542.067,23.155 c 0,1.928 -1.563,3.49 -3.49,3.49 h -6.052 c -1.928,0 -3.491,-1.563 -3.491,-3.49 l 0,0 c 0,-1.928 1.563,-3.491 3.491,-3.491 h 6.052 c 1.928,10e-4 3.49,1.564 3.49,3.491 l 0,0 z"
         stroke-miterlimit="10" /><rect
         style="fill:#d64528;stroke:#000000;stroke-miterlimit:10"
         id="rect427"
         height="19"
         width="31.916"
         stroke-miterlimit="10"
         y="665.16699"
         x="564.63702" /><rect
         style="fill:#d64528;stroke:#000000;stroke-miterlimit:10"
         id="rect429"
         height="23.333"
         width="26.681"
         stroke-miterlimit="10"
         y="706.5"
         x="568.63599" /><rect
         style="fill:#403940;stroke:#000000;stroke-miterlimit:10"
         id="rect431"
         height="22.333"
         width="21.193001"
         stroke-miterlimit="10"
         y="684.16699"
         x="570.97302" /><rect
         style="fill:#d64528;stroke:#000000;stroke-miterlimit:10"
         id="rect433"
         height="7.1669998"
         width="20.229"
         stroke-miterlimit="10"
         y="729.83301"
         x="573.771" /><rect
         style="fill:#403940;stroke:#000000;stroke-miterlimit:10"
         id="rect435"
         height="25"
         width="16.333"
         stroke-miterlimit="10"
         y="737"
         x="576.16699" /><rect
         style="fill:none;stroke:#000000;stroke-miterlimit:10"
         id="rect437"
         height="5.5"
         width="32.167"
         stroke-miterlimit="10"
         y="756.5"
         x="574" /><rect
         style="fill:#d64528;stroke:#000000;stroke-miterlimit:10"
         id="rect439"
         height="8.8330002"
         width="37.5"
         stroke-miterlimit="10"
         y="747.66699"
         x="564.33301" /><rect
         style="fill:#d64528;stroke:#000000;stroke-miterlimit:10"
         id="rect441"
         height="5.1669998"
         width="30.197001"
         stroke-miterlimit="10"
         y="742.5"
         x="568.63599" /><rect
         style="fill:#d64528;stroke:#000000;stroke-miterlimit:10"
         id="rect443"
         height="4.1669998"
         width="8.5830002"
         stroke-miterlimit="10"
         y="55.167"
         x="483.25" /><polygon
         style="fill:#d64528;stroke:#000000;stroke-miterlimit:10"
         id="polygon445"
         points="571.419,642.506 590.25,642.506 590.63,621.25 570.559,621.25 "
         stroke-miterlimit="10" /><polygon
         style="fill:#d64528;stroke:#000000;stroke-miterlimit:10"
         id="polygon447"
         points="572.25,665.167 590.383,665.167 590.25,645.5 571.75,645.5 "
         stroke-miterlimit="10" /><circle
         style="fill:#6b6b6b;stroke:#000000;stroke-miterlimit:10"
         sodipodi:ry="8"
         sodipodi:rx="8"
         sodipodi:cy="119.167"
         sodipodi:cx="466.5"
         d="m 474.5,119.167 c 0,4.41828 -3.58172,8 -8,8 -4.41828,0 -8,-3.58172 -8,-8 0,-4.41828 3.58172,-8 8,-8 4.41828,0 8,3.58172 8,8 z"
         id="circle449"
         r="8"
         cy="119.167"
         cx="466.5"
         stroke-miterlimit="10" /><rect
         style="fill:#403940;stroke:#000000;stroke-miterlimit:10"
         id="rect451"
         height="18.167"
         width="20"
         stroke-miterlimit="10"
         y="762"
         x="574" /><rect
         style="fill:#403940;stroke:#000000;stroke-miterlimit:10"
         id="rect453"
         height="23.667"
         width="7.0830002"
         stroke-miterlimit="10"
         y="762"
         x="580.83301" /><rect
         style="fill:#403940;stroke:#000000;stroke-miterlimit:10"
         id="rect455"
         height="13.5"
         width="6.5"
         stroke-miterlimit="10"
         y="793.00098"
         x="587.91602" /><rect
         style="fill:#403940;stroke:#000000;stroke-miterlimit:10"
         id="rect457"
         height="13.5"
         width="6.5"
         stroke-miterlimit="10"
         y="793.125"
         x="574.33301" /><rect
         style="fill:#403940;stroke:#000000;stroke-miterlimit:10"
         id="rect459"
         height="14.333"
         width="14.999"
         stroke-miterlimit="10"
         y="780.16699"
         x="577.16699" /><rect
         style="fill:#171f21;stroke:#000000;stroke-miterlimit:10"
         id="rect461"
         height="8.8339996"
         width="7.0830002"
         stroke-miterlimit="10"
         y="794.5"
         x="580.83301" /><polygon
         style="fill:#d64528;stroke:#000000;stroke-miterlimit:10"
         id="polygon463"
         points="471.667,953.834 484.5,953.834 484.5,934.016 530.167,934.016 530.167,953.834 542.667,953.834 542.667,923.834 471.667,923.834 "
         stroke-miterlimit="10" /><rect
         style="fill:#7d3023;stroke:#000000;stroke-miterlimit:10"
         id="rect465"
         height="15"
         width="12.667"
         stroke-miterlimit="10"
         y="953.83398"
         x="471.66699" /><rect
         style="fill:#7d3023;stroke:#000000;stroke-miterlimit:10"
         id="rect467"
         height="15"
         width="12.5"
         stroke-miterlimit="10"
         y="953.83398"
         x="530.16699" /><rect
         style="fill:#d64528;stroke:#000000;stroke-miterlimit:10"
         id="rect469"
         height="13.046"
         width="53.5"
         stroke-miterlimit="10"
         y="910.78802"
         x="480.5" /><rect
         style="fill:#d64528;stroke:#000000;stroke-miterlimit:10"
         id="rect471"
         height="6.5840001"
         width="53.5"
         stroke-miterlimit="10"
         y="917.25"
         x="480.5" /><rect
         style="fill:#171f21;stroke:#000000;stroke-miterlimit:10"
         id="rect473"
         height="45.484001"
         width="45.667"
         stroke-miterlimit="10"
         y="934.01599"
         x="484.5" /><path
         style="fill:#7d3023;stroke:#000000;stroke-miterlimit:10"
         inkscape:connector-curvature="0"
         id="path475"
         d="m 526.833,885.047 c 0,5.404 -4.496,9.786 -10.041,9.786 h -20.417 c -5.546,0 -10.042,-4.382 -10.042,-9.786 v -41.594 c 0,-5.404 4.495,-9.786 10.042,-9.786 h 20.417 c 5.545,0 10.041,4.382 10.041,9.786 v 41.594 z"
         stroke-miterlimit="10" /><path
         style="fill:#d64528;stroke:#000000;stroke-miterlimit:10"
         inkscape:connector-curvature="0"
         id="path477"
         d="m 522.916,879.474 c 0,6.182 -4.477,11.193 -10,11.193 h -12.833 c -5.522,0 -10,-5.012 -10,-11.193 v -30.78 c 0,-6.182 4.478,-11.193 10,-11.193 h 12.833 c 5.523,0 10,5.012 10,11.193 v 30.78 z"
         stroke-miterlimit="10" /></g></g></svg>