<?xml version="1.0" encoding="UTF-8" standalone="no"?>
<!-- Generator: Adobe Illustrator 15.1.0, SVG Export Plug-In . SVG Version: 6.00 Build 0)  -->

<svg
   xmlns:dc="http://purl.org/dc/elements/1.1/"
   xmlns:cc="http://creativecommons.org/ns#"
   xmlns:rdf="http://www.w3.org/1999/02/22-rdf-syntax-ns#"
   xmlns:svg="http://www.w3.org/2000/svg"
   xmlns="http://www.w3.org/2000/svg"
   xmlns:sodipodi="http://sodipodi.sourceforge.net/DTD/sodipodi-0.dtd"
   xmlns:inkscape="http://www.inkscape.org/namespaces/inkscape"
   version="1.1"
   id="Body"
   x="0px"
   y="0px"
   width="12.252872"
   height="32.628761"
   viewBox="0 0 12.252871 32.628762"
   enable-background="new 0 0 1000 1000"
   xml:space="preserve"
   inkscape:version="0.48.4 r9939"
   sodipodi:docname="Fire_Engine.svg"
   inkscape:export-filename="/media/lachoneus/Wills External Hardrive/Thor_Media/2014/Clients/Kieth Blackburn - Airport Crisis App/asset creation/Trucks/Fire_Truck/Fire Truck.png"
   inkscape:export-xdpi="602.354"
   inkscape:export-ydpi="602.354"><metadata
     id="metadata143"><rdf:RDF><cc:Work
         rdf:about=""><dc:format>image/svg+xml</dc:format><dc:type
           rdf:resource="http://purl.org/dc/dcmitype/StillImage" /><dc:title /></cc:Work></rdf:RDF></metadata><defs
     id="defs141" /><sodipodi:namedview
     pagecolor="#ffffff"
     bordercolor="#666666"
     borderopacity="1"
     objecttolerance="10"
     gridtolerance="10"
     guidetolerance="10"
     inkscape:pageopacity="0"
     inkscape:pageshadow="2"
     inkscape:window-width="1168"
     inkscape:window-height="746"
     id="namedview139"
     showgrid="true"
     inkscape:zoom="42.720564"
     inkscape:cx="8.6288662"
     inkscape:cy="30.270935"
     inkscape:window-x="0"
     inkscape:window-y="18"
     inkscape:window-maximized="0"
     inkscape:current-layer="Body"
     fit-margin-top="1"
     fit-margin-left="1"
     fit-margin-right="1"
     fit-margin-bottom="1"><inkscape:grid
       type="xygrid"
       id="grid3607"
       empspacing="5"
       visible="true"
       enabled="true"
       snapvisiblegridlinesonly="true"
       originx="0.7815269px"
       originy="-0.59058855px" /></sodipodi:namedview><path
     stroke-miterlimit="10"
     d="m 6.1619512,31.393471 c 0,0 -2.9541587,0 -3.2437443,0 -0.4447468,0 -0.5947203,-0.196539 -0.5947203,-0.196539 0,0 -0.258597,-0.186177 -0.258597,-0.610241 0,-0.379081 0,-22.7929008 0,-27.5479671 0,-0.367738 0,-0.8688253 0,-0.8688253 h 0.049152 c 0,0 -0.00544,-0.3723537 0.2120461,-0.6128422 C 2.5937249,1.2894051 2.76566,1.27387 2.76566,1.27387 h 3.3962912 3.3963046 c 0,0 0.1719352,0.015522 0.4395729,0.2831591 0.2172063,0.2404749 0.2120463,0.6128423 0.2120463,0.6128423 h 0.04916 c 0,0 0,0.5011145 0,0.8688254 0,4.7550934 0,27.1689132 0,27.5479662 0,0.424065 -0.258597,0.610242 -0.258597,0.610242 0,0 -0.1499739,0.196525 -0.5947205,0.196525 -0.2895859,4.1e-5 -3.243758,4.1e-5 -3.243758,4.1e-5 z"
     id="path3"
     inkscape:connector-curvature="0"
     style="fill:#8c8c8c;stroke:#000000;stroke-width:0.03102977;stroke-miterlimit:10" /><rect
     x="6.927352"
     y="31.393488"
     stroke-miterlimit="10"
     width="1.2024031"
     height="0.18099657"
     id="rect5"
     style="fill:#c2c2c2;stroke:#000000;stroke-width:0.03102977;stroke-miterlimit:10" /><polygon
     stroke-miterlimit="10"
     points="390.417,113.25 519.72,113.25 649.024,113.25 649.024,389.917 519.72,389.917 390.417,389.917 "
     id="polygon7"
     transform="matrix(0.03102977,0,0,0.03102977,-9.9838732,0.7463825)"
     style="fill:#ffffff;stroke:#000000;stroke-miterlimit:10" /><rect
     x="10.226865"
     y="29.722975"
     stroke-miterlimit="10"
     width="0.11893705"
     height="0.86365116"
     id="rect9"
     style="fill:#e8001a;stroke:#000000;stroke-width:0.03102977;stroke-miterlimit:10" /><rect
     x="8.1452494"
     y="30.705654"
     stroke-miterlimit="10"
     width="0.85074276"
     height="0.14996681"
     id="rect11"
     style="fill:#e8001a;stroke:#000000;stroke-width:0.03102977;stroke-miterlimit:10" /><rect
     x="10.17368"
     y="2.169838"
     stroke-miterlimit="10"
     width="0.17066363"
     height="0.86883301"
     id="rect13"
     style="fill:#e8001a;stroke:#000000;stroke-width:0.03102977;stroke-miterlimit:10" /><rect
     x="8.1646538"
     y="2.3017206"
     stroke-miterlimit="10"
     width="0.86107564"
     height="0.15514876"
     id="rect15"
     style="fill:#e8001a;stroke:#000000;stroke-width:0.03102977;stroke-miterlimit:10" /><rect
     x="9.2079964"
     y="12.925615"
     stroke-miterlimit="10"
     width="0.82228845"
     height="3.475332"
     id="rect17"
     style="fill:#8c8c8c;stroke:#000000;stroke-width:0.03102977;stroke-miterlimit:10" /><rect
     x="9.2079964"
     y="12.987608"
     stroke-miterlimit="10"
     width="0.13445193"
     height="0.42923459"
     id="rect19"
     style="fill:#c2c2c2;stroke:#000000;stroke-width:0.03102977;stroke-miterlimit:10" /><rect
     x="9.2079964"
     y="13.473754"
     stroke-miterlimit="10"
     width="0.13445193"
     height="0.42923459"
     id="rect21"
     style="fill:#292b2b;stroke:#000000;stroke-width:0.03102977;stroke-miterlimit:10" /><rect
     x="9.2079964"
     y="13.944358"
     stroke-miterlimit="10"
     width="0.13445193"
     height="0.42923459"
     id="rect23"
     style="fill:#c2c2c2;stroke:#000000;stroke-width:0.03102977;stroke-miterlimit:10" /><rect
     x="9.2079964"
     y="14.89072"
     stroke-miterlimit="10"
     width="0.13445193"
     height="0.42923459"
     id="rect25"
     style="fill:#c2c2c2;stroke:#000000;stroke-width:0.03102977;stroke-miterlimit:10" /><rect
     x="9.2079964"
     y="15.392406"
     stroke-miterlimit="10"
     width="0.13445193"
     height="0.42923459"
     id="rect27"
     style="fill:#292b2b;stroke:#000000;stroke-width:0.03102977;stroke-miterlimit:10" /><rect
     x="9.2079964"
     y="15.904395"
     stroke-miterlimit="10"
     width="0.13445193"
     height="0.42923459"
     id="rect29"
     style="fill:#c2c2c2;stroke:#000000;stroke-width:0.03102977;stroke-miterlimit:10" /><rect
     x="7.0204253"
     y="1.0566902"
     stroke-miterlimit="10"
     width="1.3135825"
     height="0.21720825"
     id="rect31"
     style="fill:#c2c2c2;stroke:#000000;stroke-width:0.03102977;stroke-miterlimit:10" /><rect
     x="4.1298141"
     y="31.393488"
     stroke-miterlimit="10"
     width="1.2024031"
     height="0.18099657"
     id="rect33"
     style="fill:#c2c2c2;stroke:#000000;stroke-width:0.03102977;stroke-miterlimit:10" /><polygon
     stroke-miterlimit="10"
     points="502.344,994.75 519.297,994.75 536.25,994.75 536.25,987.667 519.297,987.667 502.344,987.667 "
     id="polygon35"
     transform="matrix(0.03102977,0,0,0.03102977,-9.9838732,0.7463825)"
     style="fill:#292b2b;stroke:#000000;stroke-miterlimit:10" /><rect
     x="1.9137809"
     y="29.722975"
     stroke-miterlimit="10"
     width="0.11893705"
     height="0.86365116"
     id="rect37"
     style="fill:#e8001a;stroke:#000000;stroke-width:0.03102977;stroke-miterlimit:10" /><rect
     x="3.2635612"
     y="30.705654"
     stroke-miterlimit="10"
     width="0.85074276"
     height="0.14996681"
     id="rect39"
     style="fill:#e8001a;stroke:#000000;stroke-width:0.03102977;stroke-miterlimit:10" /><rect
     x="2.0453308"
     y="2.169838"
     stroke-miterlimit="10"
     width="0.17066363"
     height="0.86883301"
     id="rect41"
     style="fill:#e8001a;stroke:#000000;stroke-width:0.03102977;stroke-miterlimit:10" /><rect
     x="3.2338519"
     y="2.3017206"
     stroke-miterlimit="10"
     width="0.86107564"
     height="0.15514876"
     id="rect43"
     style="fill:#e8001a;stroke:#000000;stroke-width:0.03102977;stroke-miterlimit:10" /><polygon
     stroke-miterlimit="10"
     points="393.594,504.5 519.297,504.5 645,504.5 645,956 519.297,956 393.594,956 "
     id="polygon45"
     transform="matrix(0.03102977,0,0,0.03102977,-9.9838732,0.7463825)"
     style="fill:#a6a6a6;stroke:#000000;stroke-miterlimit:10" /><rect
     x="2.2292349"
     y="12.925615"
     stroke-miterlimit="10"
     width="0.82228845"
     height="3.475332"
     id="rect47"
     style="fill:#8c8c8c;stroke:#000000;stroke-width:0.03102977;stroke-miterlimit:10" /><path
     stroke-miterlimit="10"
     d="m 6.1458577,2.5564396 c 0,0 -2.9097587,0 -3.168206,0 -0.4153648,0 -0.5841003,0.2249672 -0.5841003,0.2249672 0,0 -0.2569905,0.1822963 -0.2569905,0.5656377 0,0.3833413 0,0.9056958 0,0.9056958 V 12.832464 H 2.0326748 c 0,0 0,-9.2623859 0,-9.4692582 0,-0.2068721 0.020831,-0.4447467 0.2647784,-0.6878086 C 2.5414418,2.4323487 2.9205079,2.4568839 2.9205079,2.4568839 h 3.2253226 3.2253227 c 0,0 0.3790252,-0.024644 0.6230402,0.2185133 0.2439876,0.2430619 0.2647786,0.4809637 0.2647786,0.6878496 0,0.2068722 0,9.4692452 0,9.4692452 H 10.155087 V 4.2527403 c 0,0 0,-0.5223273 0,-0.9056958 0,-0.3833686 -0.2570046,-0.5656377 -0.2570046,-0.5656377 0,0 -0.168722,-0.2249672 -0.5840867,-0.2249672 -0.2583927,0 -3.1681924,0 -3.1681924,0 z"
     id="path49"
     inkscape:connector-curvature="0"
     style="fill:#cf0800;stroke:#000000;stroke-width:0.03102977;stroke-miterlimit:10" /><path
     stroke-miterlimit="10"
     d="m 6.1297781,31.39343 c 0,0 -2.8197067,0 -3.243758,0 -0.4240514,0 -0.5947066,-0.196525 -0.5947066,-0.196525 0,0 -0.2586108,-0.211978 -0.2586108,-0.491271 h 0.1034774 c 0,0.201658 0.2327278,0.418864 0.2327278,0.418864 0,0 0.170669,0.181003 0.5068193,0.181003 0.3361368,0 3.2540784,0 3.2540784,0 0,0 2.9179415,0 3.2540919,0 0.3361504,0 0.5068194,-0.181003 0.5068194,-0.181003 0,0 0.2327141,-0.217206 0.2327141,-0.418864 h 0.103478 c 0,0.279293 -0.2585976,0.491271 -0.2585976,0.491271 0,0 -0.1706688,0.196525 -0.5947201,0.196525 -0.4240515,0 -3.2437579,0 -3.2437579,0"
     id="path51"
     inkscape:connector-curvature="0"
     style="fill:#cf0800;stroke:#000000;stroke-width:0.03102977;stroke-miterlimit:10" /><line
     stroke-miterlimit="10"
     x1="10.030331"
     y1="30.410809"
     x2="6.1297412"
     y2="30.410809"
     id="line53"
     style="fill:#c2c2c2;stroke:#000000;stroke-width:0.03102977;stroke-miterlimit:10" /><polygon
     stroke-miterlimit="10"
     points="651.334,956 651.334,965.501 519.297,965.501 387.26,965.501 387.26,956 387.26,389.5 393.594,389.5 393.594,956 519.297,956 645,956 645,389.5 651.334,389.5 "
     id="polygon55"
     transform="matrix(0.03102977,0,0,0.03102977,-9.9838732,0.7463825)"
     style="fill:#cf0800;stroke:#000000;stroke-miterlimit:10" /><polygon
     stroke-miterlimit="10"
     points="420.094,392.5 393.594,392.5 393.594,389.5 519.297,389.5 645,389.5 645,392.5 618.5,392.5 618.5,504.5 519.297,504.5 420.094,504.5 "
     id="polygon57"
     transform="matrix(0.03102977,0,0,0.03102977,-9.9838732,0.7463825)"
     style="fill:#cf0800;stroke:#000000;stroke-miterlimit:10" /><path
     stroke-miterlimit="10"
     d="m 6.1861592,1.27387 c 0,0 -3.2230624,0 -3.3963046,0 -0.1732421,0 -0.483224,0.3372667 -0.483224,0.3372667 0,0 -0.168395,0.2316386 -0.168395,0.5587347 h 0.054325 c 0,-0.3245229 0.1768367,-0.5476245 0.1768367,-0.5476245 0,0 0.2085604,-0.2604624 0.4333914,-0.2604624 0.2248445,0 3.3833973,0.00545 3.3833973,0.00545 0,0 3.1585528,-0.00545 3.3833974,-0.00545 0.2248308,0 0.4333916,0.2604624 0.4333916,0.2604624 0,0 0.176836,0.2230744 0.176836,0.5476245 h 0.05433 c 0,-0.3271234 -0.168409,-0.5587347 -0.168409,-0.5587347 0,0 -0.3099675,-0.3372667 -0.4832096,-0.3372667 -0.1732423,0 -3.3963048,0 -3.3963048,0"
     id="path59"
     inkscape:connector-curvature="0"
     style="fill:#cf0800;stroke:#000000;stroke-width:0.03102977;stroke-miterlimit:10" /><rect
     x="2.9170682"
     y="12.987608"
     stroke-miterlimit="10"
     width="0.13445193"
     height="0.42923459"
     id="rect61"
     style="fill:#c2c2c2;stroke:#000000;stroke-width:0.03102977;stroke-miterlimit:10" /><rect
     x="2.9170682"
     y="13.473754"
     stroke-miterlimit="10"
     width="0.13445193"
     height="0.42923459"
     id="rect63"
     style="fill:#292b2b;stroke:#000000;stroke-width:0.03102977;stroke-miterlimit:10" /><rect
     x="2.9170682"
     y="13.944358"
     stroke-miterlimit="10"
     width="0.13445193"
     height="0.42923459"
     id="rect65"
     style="fill:#c2c2c2;stroke:#000000;stroke-width:0.03102977;stroke-miterlimit:10" /><rect
     x="2.9170682"
     y="14.89072"
     stroke-miterlimit="10"
     width="0.13445193"
     height="0.42923459"
     id="rect67"
     style="fill:#c2c2c2;stroke:#000000;stroke-width:0.03102977;stroke-miterlimit:10" /><rect
     x="2.9170682"
     y="15.392406"
     stroke-miterlimit="10"
     width="0.13445193"
     height="0.42923459"
     id="rect69"
     style="fill:#292b2b;stroke:#000000;stroke-width:0.03102977;stroke-miterlimit:10" /><rect
     x="2.9170682"
     y="15.904395"
     stroke-miterlimit="10"
     width="0.13445193"
     height="0.42923459"
     id="rect71"
     style="fill:#c2c2c2;stroke:#000000;stroke-width:0.03102977;stroke-miterlimit:10" /><rect
     x="3.9255493"
     y="1.0566902"
     stroke-miterlimit="10"
     width="1.3135825"
     height="0.21720825"
     id="rect73"
     style="fill:#c2c2c2;stroke:#000000;stroke-width:0.03102977;stroke-miterlimit:10" /><polygon
     stroke-miterlimit="10"
     points="496.594,10 519.297,10 542,10 542,17 519.297,17 496.594,17 "
     id="polygon75"
     transform="matrix(0.03102977,0,0,0.03102977,-9.9838732,0.7463825)"
     style="fill:#292b2b;stroke:#000000;stroke-miterlimit:10" /><rect
     x="10.123403"
     y="4.1958585"
     stroke-miterlimit="10"
     width="0.48096114"
     height="0.12930097"
     id="rect79"
     style="fill:#c2c2c2;stroke:#000000;stroke-width:0.03102977;stroke-miterlimit:10" /><path
     stroke-miterlimit="10"
     d="m 10.511347,4.3388847 c -0.0081,0.050649 0.02546,0.098712 0.07611,0.1074253 l 0.501891,0.085504 c 0.05065,0.00816 0.09871,-0.025461 0.107424,-0.07611 l 0.01961,-0.1146415 c 0.0081,-0.050649 -0.02546,-0.098711 -0.07611,-0.1074251 L 10.638357,4.148133 c -0.05065,-0.00816 -0.09871,0.02546 -0.107426,0.07611 l -0.01947,0.1146414 z"
     id="path81"
     inkscape:connector-curvature="0"
     style="fill:#c2c2c2;stroke:#000000;stroke-width:0.03102977;stroke-miterlimit:10" /><rect
     x="1.6496834"
     y="4.2450547"
     stroke-miterlimit="10"
     width="0.48096114"
     height="0.12930097"
     id="rect83"
     style="fill:#c2c2c2;stroke:#000000;stroke-width:0.03102977;stroke-miterlimit:10" /><path
     stroke-miterlimit="10"
     d="m 1.7427357,4.3879955 c 0.00816,0.050649 -0.025461,0.098711 -0.07611,0.1074252 l -0.5019168,0.085504 c -0.050649,0.00816 -0.098712,-0.025461 -0.1074252,-0.07611 L 1.0376767,4.3901731 c -0.00817,-0.050649 0.025461,-0.098711 0.076109,-0.1074263 l 0.5019039,-0.085503 c 0.050649,-0.00816 0.098712,0.025461 0.1074251,0.07611 l 0.019607,0.1146415 z"
     id="path85"
     inkscape:connector-curvature="0"
     style="fill:#c2c2c2;stroke:#000000;stroke-width:0.03102977;stroke-miterlimit:10" /><circle
     stroke-miterlimit="10"
     cx="627.91602"
     cy="161.41701"
     r="10.75"
     id="circle87"
     sodipodi:cx="627.91602"
     sodipodi:cy="161.41701"
     sodipodi:rx="10.75"
     sodipodi:ry="10.75"
     transform="matrix(0.03102977,0,0,0.03102977,-9.9838732,0.7463825)"
     style="fill:#e8001a;stroke:#000000;stroke-miterlimit:10" /><circle
     stroke-miterlimit="10"
     cx="591.89301"
     cy="150.66701"
     r="10.75"
     id="circle89"
     sodipodi:cx="591.89301"
     sodipodi:cy="150.66701"
     sodipodi:rx="10.75"
     sodipodi:ry="10.75"
     transform="matrix(0.03102977,0,0,0.03102977,-9.9838732,0.7463825)"
     style="fill:#e8001a;stroke:#000000;stroke-miterlimit:10" /><circle
     stroke-miterlimit="10"
     cx="555.45898"
     cy="139.91701"
     r="10.75"
     id="circle91"
     sodipodi:cx="555.45898"
     sodipodi:cy="139.91701"
     sodipodi:rx="10.75"
     sodipodi:ry="10.75"
     transform="matrix(0.03102977,0,0,0.03102977,-9.9838732,0.7463825)"
     style="fill:#ffffff;stroke:#000000;stroke-miterlimit:10" /><circle
     stroke-miterlimit="10"
     cx="410.67801"
     cy="161.41701"
     r="10.75"
     id="circle93"
     sodipodi:cx="410.67801"
     sodipodi:cy="161.41701"
     sodipodi:rx="10.75"
     sodipodi:ry="10.75"
     transform="matrix(0.03102977,0,0,0.03102977,-9.9838732,0.7463825)"
     style="fill:#e8001a;stroke:#000000;stroke-miterlimit:10" /><circle
     stroke-miterlimit="10"
     cx="446.702"
     cy="150.66701"
     r="10.75"
     id="circle95"
     sodipodi:cx="446.702"
     sodipodi:cy="150.66701"
     sodipodi:rx="10.75"
     sodipodi:ry="10.75"
     transform="matrix(0.03102977,0,0,0.03102977,-9.9838732,0.7463825)"
     style="fill:#e8001a;stroke:#000000;stroke-miterlimit:10" /><path
     stroke-miterlimit="10"
     d="M 2.1361525,4.2449794 H 6.0976047 V 2.5487061 c 0,0 -2.7926526,0 -3.1236427,0 -0.3310038,0 -0.4783497,0.1214491 -0.5818129,0.2249671 -0.1034774,0.1034773 -0.2559966,0.2857189 -0.2559966,0.5656514 0,0.279905 0,0.9056548 0,0.9056548 z"
     id="path97"
     inkscape:connector-curvature="0"
     style="fill:#cce3ff;stroke:#000000;stroke-width:0.03102977;stroke-miterlimit:10" /><path
     stroke-miterlimit="10"
     d="M 10.123404,4.2449794 H 6.1619512 V 2.5487061 c 0,0 2.7926527,0 3.1236565,0 0.3309765,0 0.4783495,0.1214491 0.5817992,0.2249671 0.1034774,0.1034773 0.2559971,0.2857189 0.2559971,0.5656514 0,0.279905 0,0.9056548 0,0.9056548 z"
     id="path99"
     inkscape:connector-curvature="0"
     style="fill:#cce3ff;stroke:#000000;stroke-width:0.03102977;stroke-miterlimit:10" /><circle
     stroke-miterlimit="10"
     cx="483.13501"
     cy="139.91701"
     r="10.75"
     id="circle101"
     sodipodi:cx="483.13501"
     sodipodi:cy="139.91701"
     sodipodi:rx="10.75"
     sodipodi:ry="10.75"
     transform="matrix(0.03102977,0,0,0.03102977,-9.9838732,0.7463825)"
     style="fill:#ffffff;stroke:#000000;stroke-miterlimit:10" /><circle
     stroke-miterlimit="10"
     cx="518.26099"
     cy="129.979"
     r="10.75"
     id="circle103"
     sodipodi:cx="518.26099"
     sodipodi:cy="129.979"
     sodipodi:rx="10.75"
     sodipodi:ry="10.75"
     transform="matrix(0.03102977,0,0,0.03102977,-9.9838732,0.7463825)"
     style="fill:#e8001a;stroke:#000000;stroke-miterlimit:10" /><path
     stroke-miterlimit="10"
     d="m 8.6546704,4.2527403 h 0.4240785 c 0,-0.1170927 -0.0949,-0.2120325 -0.2120596,-0.2120325 -0.1170914,0 -0.2120189,0.0949 -0.2120189,0.2120325 z"
     id="path105"
     inkscape:connector-curvature="0"
     style="fill:#ff4d00;stroke:#000000;stroke-width:0.03102977;stroke-miterlimit:10" /><path
     stroke-miterlimit="10"
     d="M 7.0832638,4.2527403 H 7.507356 c 0,-0.1170927 -0.0949,-0.2120325 -0.2120597,-0.2120325 -0.1170914,0 -0.2120325,0.0949 -0.2120325,0.2120325 z"
     id="path107"
     inkscape:connector-curvature="0"
     style="fill:#ff4d00;stroke:#000000;stroke-width:0.03102977;stroke-miterlimit:10" /><path
     stroke-miterlimit="10"
     d="M 3.6048854,4.2527403 H 3.180807 c 0,-0.1170927 0.0949,-0.2120325 0.212046,-0.2120325 0.1170926,0 0.2120324,0.0949 0.2120324,0.2120325 z"
     id="path109"
     inkscape:connector-curvature="0"
     style="fill:#ff4d00;stroke:#000000;stroke-width:0.03102977;stroke-miterlimit:10" /><path
     stroke-miterlimit="10"
     d="M 5.1762922,4.2527403 H 4.7522136 c 0,-0.1170927 0.0949,-0.2120325 0.2120597,-0.2120325 0.1170914,0 0.2120189,0.0949 0.2120189,0.2120325 z"
     id="path111"
     inkscape:connector-curvature="0"
     style="fill:#ff4d00;stroke:#000000;stroke-width:0.03102977;stroke-miterlimit:10" /><path
     stroke-miterlimit="10"
     d="m 5.9177591,4.2527403 h 0.4240786 c 0,-0.1170927 -0.0949,-0.2120325 -0.2120596,-0.2120325 -0.1170927,0 -0.212019,0.0949 -0.212019,0.2120325 z"
     id="path113"
     inkscape:connector-curvature="0"
     style="fill:#ff4d00;stroke:#000000;stroke-width:0.03102977;stroke-miterlimit:10" /><circle
     stroke-miterlimit="10"
     cx="629.16699"
     cy="939.5"
     r="11.167"
     id="circle115"
     sodipodi:cx="629.16699"
     sodipodi:cy="939.5"
     sodipodi:rx="11.167"
     sodipodi:ry="11.167"
     transform="matrix(0.03102977,0,0,0.03102977,-9.9838732,0.7463825)"
     style="fill:#a6a6a6;stroke:#000000;stroke-miterlimit:10" /><path
     stroke-miterlimit="10"
     d="m 9.8855153,16.862459 c 0,0 -0.037578,-0.06332 -0.1732558,-0.06332 -0.1357454,0 -0.1732421,0.06332 -0.1732421,0.06332 v 12.167543 c 0,0 0.052965,0.06726 0.1732421,0.06726 0.1202243,0 0.1732558,-0.06726 0.1732558,-0.06726 V 16.862459 z"
     id="path117"
     inkscape:connector-curvature="0"
     style="fill:#c2c2c2;stroke:#000000;stroke-width:0.03102977;stroke-miterlimit:10" /><path
     stroke-miterlimit="10"
     d="M 9.8855153,28.98733 H 9.5390174 c 0,0 -0.016882,-0.02953 -0.016882,-0.06985 0,-0.04031 0.016882,-0.06985 0.016882,-0.06985 h 0.3464979 c 0,0 0.016747,0.01553 0.016747,0.06985 0,0.05433 -0.016747,0.06985 -0.016747,0.06985 z"
     id="path119"
     inkscape:connector-curvature="0"
     style="fill:#c2c2c2;stroke:#000000;stroke-width:0.03102977;stroke-miterlimit:10" /><path
     stroke-miterlimit="10"
     d="M 9.8855153,24.809951 H 9.5390174 c 0,0 -0.016882,-0.02955 -0.016882,-0.06985 0,-0.04031 0.016882,-0.06985 0.016882,-0.06985 h 0.3464979 c 0,0 0.016747,0.01553 0.016747,0.06985 0,0.05433 -0.016747,0.06985 -0.016747,0.06985 z"
     id="path121"
     inkscape:connector-curvature="0"
     style="fill:#c2c2c2;stroke:#000000;stroke-width:0.03102977;stroke-miterlimit:10" /><path
     stroke-miterlimit="10"
     d="M 9.8855153,20.95839 H 9.5390174 c 0,0 -0.016882,-0.02955 -0.016882,-0.06985 0,-0.0403 0.016882,-0.06985 0.016882,-0.06985 h 0.3464979 c 0,0 0.016747,0.01553 0.016747,0.06985 0,0.05433 -0.016747,0.06985 -0.016747,0.06985 z"
     id="path123"
     inkscape:connector-curvature="0"
     style="fill:#c2c2c2;stroke:#000000;stroke-width:0.03102977;stroke-miterlimit:10" /><path
     stroke-miterlimit="10"
     d="M 9.8855562,17.104241 H 9.5390581 c 0,0 -0.016882,-0.02956 -0.016882,-0.06985 0,-0.04031 0.016882,-0.06985 0.016882,-0.06985 h 0.3464981 c 0,0 0.016747,0.01553 0.016747,0.06985 0,0.05433 -0.016747,0.06985 -0.016747,0.06985 z"
     id="path125"
     inkscape:connector-curvature="0"
     style="fill:#c2c2c2;stroke:#000000;stroke-width:0.03102977;stroke-miterlimit:10" /><circle
     stroke-miterlimit="10"
     cx="409.427"
     cy="939.5"
     r="11.167"
     id="circle127"
     sodipodi:cx="409.427"
     sodipodi:cy="939.5"
     sodipodi:rx="11.167"
     sodipodi:ry="11.167"
     transform="matrix(0.03102977,0,0,0.03102977,-9.9838732,0.7463825)"
     style="fill:#a6a6a6;stroke:#000000;stroke-miterlimit:10" /><path
     stroke-miterlimit="10"
     d="m 2.374027,16.862459 c 0,0 0.037578,-0.06332 0.1732695,-0.06332 0.1357453,0 0.1732421,0.06332 0.1732421,0.06332 v 12.167543 c 0,0 -0.052964,0.06726 -0.1732421,0.06726 -0.1202242,0 -0.1732695,-0.06726 -0.1732695,-0.06726 V 16.862459 z"
     id="path129"
     inkscape:connector-curvature="0"
     style="fill:#c2c2c2;stroke:#000000;stroke-width:0.03102977;stroke-miterlimit:10" /><path
     stroke-miterlimit="10"
     d="m 2.374027,28.98733 h 0.3465116 c 0,0 0.016882,-0.02953 0.016882,-0.06985 0,-0.04031 -0.016882,-0.06985 -0.016882,-0.06985 H 2.374027 c 0,0 -0.016747,0.01553 -0.016747,0.06985 0,0.05433 0.016747,0.06985 0.016747,0.06985 z"
     id="path131"
     inkscape:connector-curvature="0"
     style="fill:#c2c2c2;stroke:#000000;stroke-width:0.03102977;stroke-miterlimit:10" /><path
     stroke-miterlimit="10"
     d="m 2.374027,24.809951 h 0.3465116 c 0,0 0.016882,-0.02955 0.016882,-0.06985 0,-0.04031 -0.016882,-0.06985 -0.016882,-0.06985 H 2.374027 c 0,0 -0.016747,0.01553 -0.016747,0.06985 0,0.05433 0.016747,0.06985 0.016747,0.06985 z"
     id="path133"
     inkscape:connector-curvature="0"
     style="fill:#c2c2c2;stroke:#000000;stroke-width:0.03102977;stroke-miterlimit:10" /><path
     stroke-miterlimit="10"
     d="m 2.374027,20.95839 h 0.3465116 c 0,0 0.016882,-0.02955 0.016882,-0.06985 0,-0.0403 -0.016882,-0.06985 -0.016882,-0.06985 H 2.374027 c 0,0 -0.016747,0.01553 -0.016747,0.06985 0,0.05433 0.016747,0.06985 0.016747,0.06985 z"
     id="path135"
     inkscape:connector-curvature="0"
     style="fill:#c2c2c2;stroke:#000000;stroke-width:0.03102977;stroke-miterlimit:10" /><path
     stroke-miterlimit="10"
     d="m 2.3739997,17.104241 h 0.3465116 c 0,0 0.016882,-0.02956 0.016882,-0.06985 0,-0.04031 -0.016882,-0.06985 -0.016882,-0.06985 H 2.3739997 c 0,0 -0.016747,0.01553 -0.016747,0.06985 0,0.05433 0.016747,0.06985 0.016747,0.06985 z"
     id="path137"
     inkscape:connector-curvature="0"
     style="fill:#c2c2c2;stroke:#000000;stroke-width:0.03102977;stroke-miterlimit:10" /></svg>