<?xml version="1.0" standalone="no"?><!-- Generator: Gravit.io --><svg xmlns="http://www.w3.org/2000/svg" xmlns:xlink="http://www.w3.org/1999/xlink" style="isolation:isolate" viewBox="0 0 12.253 32.629" width="12.253px" height="32.629px"><defs><clipPath id="_clipPath_PlKoEGgiqqUeGIjQYw9WrM8AZgUJZrcI"><rect width="12.253" height="32.629"/></clipPath></defs><g clip-path="url(#_clipPath_PlKoEGgiqqUeGIjQYw9WrM8AZgUJZrcI)"><mask id="_mask_Gapev70aWKm3RffOxUfRf47GnpOhDFDO" x="-200%" y="-200%" width="400%" height="400%"><rect x="-200%" y="-200%" width="400%" height="400%" style="fill:white;"/><path d=" M 6.162 31.393 C 6.162 31.393 3.208 31.393 2.918 31.393 C 2.473 31.393 2.323 31.197 2.323 31.197 C 2.323 31.197 2.065 31.011 2.065 30.587 C 2.065 30.208 2.065 7.794 2.065 3.039 C 2.065 2.671 2.065 2.17 2.065 2.17 L 2.114 2.17 C 2.114 2.17 2.109 1.798 2.326 1.557 C 2.594 1.289 2.766 1.274 2.766 1.274 L 6.162 1.274 L 9.558 1.274 C 9.558 1.274 9.73 1.289 9.998 1.557 C 10.215 1.798 10.21 2.17 10.21 2.17 L 10.259 2.17 C 10.259 2.17 10.259 2.671 10.259 3.039 C 10.259 7.794 10.259 30.208 10.259 30.587 C 10.259 31.011 10 31.197 10 31.197 C 10 31.197 9.85 31.393 9.406 31.393 C 9.116 31.393 6.162 31.393 6.162 31.393 L 6.162 31.393 Z " fill="black" stroke="none"/></mask><path d=" M 6.162 31.393 C 6.162 31.393 3.208 31.393 2.918 31.393 C 2.473 31.393 2.323 31.197 2.323 31.197 C 2.323 31.197 2.065 31.011 2.065 30.587 C 2.065 30.208 2.065 7.794 2.065 3.039 C 2.065 2.671 2.065 2.17 2.065 2.17 L 2.114 2.17 C 2.114 2.17 2.109 1.798 2.326 1.557 C 2.594 1.289 2.766 1.274 2.766 1.274 L 6.162 1.274 L 9.558 1.274 C 9.558 1.274 9.73 1.289 9.998 1.557 C 10.215 1.798 10.21 2.17 10.21 2.17 L 10.259 2.17 C 10.259 2.17 10.259 2.671 10.259 3.039 C 10.259 7.794 10.259 30.208 10.259 30.587 C 10.259 31.011 10 31.197 10 31.197 C 10 31.197 9.85 31.393 9.406 31.393 C 9.116 31.393 6.162 31.393 6.162 31.393 L 6.162 31.393 Z " fill="rgb(140,140,140)" mask="url(#_mask_Gapev70aWKm3RffOxUfRf47GnpOhDFDO)" vector-effect="non-scaling-stroke" stroke-width="0.062" stroke="rgb(0,0,0)" stroke-linejoin="miter" stroke-linecap="butt" stroke-miterlimit="10"/><path d=" M 6.162 31.393 C 6.162 31.393 3.208 31.393 2.918 31.393 C 2.473 31.393 2.323 31.197 2.323 31.197 C 2.323 31.197 2.065 31.011 2.065 30.587 C 2.065 30.208 2.065 7.794 2.065 3.039 C 2.065 2.671 2.065 2.17 2.065 2.17 L 2.114 2.17 C 2.114 2.17 2.109 1.798 2.326 1.557 C 2.594 1.289 2.766 1.274 2.766 1.274 L 6.162 1.274 L 9.558 1.274 C 9.558 1.274 9.73 1.289 9.998 1.557 C 10.215 1.798 10.21 2.17 10.21 2.17 L 10.259 2.17 C 10.259 2.17 10.259 2.671 10.259 3.039 C 10.259 7.794 10.259 30.208 10.259 30.587 C 10.259 31.011 10 31.197 10 31.197 C 10 31.197 9.85 31.393 9.406 31.393 C 9.116 31.393 6.162 31.393 6.162 31.393 L 6.162 31.393 Z " fill="rgb(140,140,140)"/><rect x="6.927" y="31.393" width="1.202" height="0.181" transform="matrix(1,0,0,1,0,0)" fill="rgb(194,194,194)" vector-effect="non-scaling-stroke" stroke-width="0.031" stroke="rgb(0,0,0)" stroke-linejoin="miter" stroke-linecap="butt" stroke-miterlimit="2"/><mask id="_mask_VXmWAk6QfLHPyb3tUpa6y90CjBIRPgAe" x="-200%" y="-200%" width="400%" height="400%"><rect x="-200%" y="-200%" width="400%" height="400%" style="fill:white;"/><path d=" M 2.131 4.261 L 6.143 4.261 L 10.155 4.261 L 10.155 12.845 L 6.143 12.845 L 2.131 12.845 L 2.131 4.261 Z " fill="black" stroke="none"/></mask><path d=" M 2.131 4.261 L 6.143 4.261 L 10.155 4.261 L 10.155 12.845 L 6.143 12.845 L 2.131 12.845 L 2.131 4.261 Z " fill="rgb(255,251,138)" mask="url(#_mask_VXmWAk6QfLHPyb3tUpa6y90CjBIRPgAe)" vector-effect="non-scaling-stroke" stroke-width="0.062" stroke="rgb(0,0,0)" stroke-linejoin="miter" stroke-linecap="butt" stroke-miterlimit="10"/><path d=" M 2.131 4.261 L 6.143 4.261 L 10.155 4.261 L 10.155 12.845 L 6.143 12.845 L 2.131 12.845 L 2.131 4.261 Z " fill="rgb(255,251,138)"/><rect x="10.227" y="29.723" width="0.119" height="0.864" transform="matrix(1,0,0,1,0,0)" fill="rgb(232,0,26)" vector-effect="non-scaling-stroke" stroke-width="0.031" stroke="rgb(0,0,0)" stroke-linejoin="miter" stroke-linecap="butt" stroke-miterlimit="2"/><rect x="8.145" y="30.706" width="0.851" height="0.15" transform="matrix(1,0,0,1,0,0)" fill="rgb(232,0,26)" vector-effect="non-scaling-stroke" stroke-width="0.031" stroke="rgb(0,0,0)" stroke-linejoin="miter" stroke-linecap="butt" stroke-miterlimit="2"/><rect x="10.174" y="2.17" width="0.171" height="0.869" transform="matrix(1,0,0,1,0,0)" fill="rgb(232,0,26)" vector-effect="non-scaling-stroke" stroke-width="0.031" stroke="rgb(0,0,0)" stroke-linejoin="miter" stroke-linecap="butt" stroke-miterlimit="2"/><rect x="8.165" y="2.302" width="0.861" height="0.155" transform="matrix(1,0,0,1,0,0)" fill="rgb(232,0,26)" vector-effect="non-scaling-stroke" stroke-width="0.031" stroke="rgb(0,0,0)" stroke-linejoin="miter" stroke-linecap="butt" stroke-miterlimit="2"/><rect x="9.208" y="12.926" width="0.822" height="3.475" transform="matrix(1,0,0,1,0,0)" fill="rgb(140,140,140)" vector-effect="non-scaling-stroke" stroke-width="0.031" stroke="rgb(0,0,0)" stroke-linejoin="miter" stroke-linecap="butt" stroke-miterlimit="2"/><rect x="9.208" y="12.988" width="0.134" height="0.429" transform="matrix(1,0,0,1,0,0)" fill="rgb(194,194,194)" vector-effect="non-scaling-stroke" stroke-width="0.031" stroke="rgb(0,0,0)" stroke-linejoin="miter" stroke-linecap="butt" stroke-miterlimit="2"/><rect x="9.208" y="13.474" width="0.134" height="0.429" transform="matrix(1,0,0,1,0,0)" fill="rgb(41,43,43)" vector-effect="non-scaling-stroke" stroke-width="0.031" stroke="rgb(0,0,0)" stroke-linejoin="miter" stroke-linecap="butt" stroke-miterlimit="2"/><rect x="9.208" y="13.944" width="0.134" height="0.429" transform="matrix(1,0,0,1,0,0)" fill="rgb(194,194,194)" vector-effect="non-scaling-stroke" stroke-width="0.031" stroke="rgb(0,0,0)" stroke-linejoin="miter" stroke-linecap="butt" stroke-miterlimit="2"/><rect x="9.208" y="14.891" width="0.134" height="0.429" transform="matrix(1,0,0,1,0,0)" fill="rgb(194,194,194)" vector-effect="non-scaling-stroke" stroke-width="0.031" stroke="rgb(0,0,0)" stroke-linejoin="miter" stroke-linecap="butt" stroke-miterlimit="2"/><rect x="9.208" y="15.392" width="0.134" height="0.429" transform="matrix(1,0,0,1,0,0)" fill="rgb(41,43,43)" vector-effect="non-scaling-stroke" stroke-width="0.031" stroke="rgb(0,0,0)" stroke-linejoin="miter" stroke-linecap="butt" stroke-miterlimit="2"/><rect x="9.208" y="15.904" width="0.134" height="0.429" transform="matrix(1,0,0,1,0,0)" fill="rgb(194,194,194)" vector-effect="non-scaling-stroke" stroke-width="0.031" stroke="rgb(0,0,0)" stroke-linejoin="miter" stroke-linecap="butt" stroke-miterlimit="2"/><rect x="7.02" y="1.057" width="1.314" height="0.217" transform="matrix(1,0,0,1,0,0)" fill="rgb(194,194,194)" vector-effect="non-scaling-stroke" stroke-width="0.031" stroke="rgb(0,0,0)" stroke-linejoin="miter" stroke-linecap="butt" stroke-miterlimit="2"/><rect x="4.13" y="31.393" width="1.202" height="0.181" transform="matrix(1,0,0,1,0,0)" fill="rgb(194,194,194)" vector-effect="non-scaling-stroke" stroke-width="0.031" stroke="rgb(0,0,0)" stroke-linejoin="miter" stroke-linecap="butt" stroke-miterlimit="2"/><mask id="_mask_H36NrTKNprdH8xkVClWDuW88fbRxULtL" x="-200%" y="-200%" width="400%" height="400%"><rect x="-200%" y="-200%" width="400%" height="400%" style="fill:white;"/><path d=" M 5.604 31.613 L 6.13 31.613 L 6.656 31.613 L 6.656 31.393 L 6.13 31.393 L 5.604 31.393 L 5.604 31.613 Z " fill="black" stroke="none"/></mask><path d=" M 5.604 31.613 L 6.13 31.613 L 6.656 31.613 L 6.656 31.393 L 6.13 31.393 L 5.604 31.393 L 5.604 31.613 Z " fill="rgb(41,43,43)" mask="url(#_mask_H36NrTKNprdH8xkVClWDuW88fbRxULtL)" vector-effect="non-scaling-stroke" stroke-width="0.062" stroke="rgb(0,0,0)" stroke-linejoin="miter" stroke-linecap="butt" stroke-miterlimit="10"/><path d=" M 5.604 31.613 L 6.13 31.613 L 6.656 31.613 L 6.656 31.393 L 6.13 31.393 L 5.604 31.393 L 5.604 31.613 Z " fill="rgb(41,43,43)"/><rect x="1.914" y="29.723" width="0.119" height="0.864" transform="matrix(1,0,0,1,0,0)" fill="rgb(232,0,26)" vector-effect="non-scaling-stroke" stroke-width="0.031" stroke="rgb(0,0,0)" stroke-linejoin="miter" stroke-linecap="butt" stroke-miterlimit="2"/><rect x="3.264" y="30.706" width="0.851" height="0.15" transform="matrix(1,0,0,1,0,0)" fill="rgb(232,0,26)" vector-effect="non-scaling-stroke" stroke-width="0.031" stroke="rgb(0,0,0)" stroke-linejoin="miter" stroke-linecap="butt" stroke-miterlimit="2"/><rect x="2.045" y="2.17" width="0.171" height="0.869" transform="matrix(1,0,0,1,0,0)" fill="rgb(232,0,26)" vector-effect="non-scaling-stroke" stroke-width="0.031" stroke="rgb(0,0,0)" stroke-linejoin="miter" stroke-linecap="butt" stroke-miterlimit="2"/><rect x="3.234" y="2.302" width="0.861" height="0.155" transform="matrix(1,0,0,1,0,0)" fill="rgb(232,0,26)" vector-effect="non-scaling-stroke" stroke-width="0.031" stroke="rgb(0,0,0)" stroke-linejoin="miter" stroke-linecap="butt" stroke-miterlimit="2"/><mask id="_mask_Fkn7Ku1llnVBYE0ohznIPlnhxxW1MK2Q" x="-200%" y="-200%" width="400%" height="400%"><rect x="-200%" y="-200%" width="400%" height="400%" style="fill:white;"/><path d=" M 2.229 16.401 L 6.13 16.401 L 10.03 16.401 L 10.03 30.411 L 6.13 30.411 L 2.229 30.411 L 2.229 16.401 Z " fill="black" stroke="none"/></mask><path d=" M 2.229 16.401 L 6.13 16.401 L 10.03 16.401 L 10.03 30.411 L 6.13 30.411 L 2.229 30.411 L 2.229 16.401 Z " fill="rgb(166,166,166)" mask="url(#_mask_Fkn7Ku1llnVBYE0ohznIPlnhxxW1MK2Q)" vector-effect="non-scaling-stroke" stroke-width="0.062" stroke="rgb(0,0,0)" stroke-linejoin="miter" stroke-linecap="butt" stroke-miterlimit="10"/><path d=" M 2.229 16.401 L 6.13 16.401 L 10.03 16.401 L 10.03 30.411 L 6.13 30.411 L 2.229 30.411 L 2.229 16.401 Z " fill="rgb(166,166,166)"/><rect x="2.229" y="12.926" width="0.822" height="3.475" transform="matrix(1,0,0,1,0,0)" fill="rgb(140,140,140)" vector-effect="non-scaling-stroke" stroke-width="0.031" stroke="rgb(0,0,0)" stroke-linejoin="miter" stroke-linecap="butt" stroke-miterlimit="2"/><mask id="_mask_Ifwgu68U7RSfW6X7HB5p1n17qM3P9To8" x="-200%" y="-200%" width="400%" height="400%"><rect x="-200%" y="-200%" width="400%" height="400%" style="fill:white;"/><path d=" M 6.146 2.556 C 6.146 2.556 3.236 2.556 2.978 2.556 C 2.562 2.556 2.394 2.781 2.394 2.781 C 2.394 2.781 2.137 2.964 2.137 3.347 C 2.137 3.73 2.137 4.253 2.137 4.253 L 2.137 12.832 L 2.033 12.832 C 2.033 12.832 2.033 3.57 2.033 3.363 C 2.033 3.156 2.054 2.918 2.297 2.675 C 2.541 2.432 2.921 2.457 2.921 2.457 L 6.146 2.457 L 9.371 2.457 C 9.371 2.457 9.75 2.432 9.994 2.675 C 10.238 2.918 10.259 3.156 10.259 3.363 C 10.259 3.57 10.259 12.832 10.259 12.832 L 10.155 12.832 L 10.155 4.253 C 10.155 4.253 10.155 3.73 10.155 3.347 C 10.155 2.964 9.898 2.781 9.898 2.781 C 9.898 2.781 9.729 2.556 9.314 2.556 C 9.056 2.556 6.146 2.556 6.146 2.556 L 6.146 2.556 Z " fill="black" stroke="none"/></mask><path d=" M 6.146 2.556 C 6.146 2.556 3.236 2.556 2.978 2.556 C 2.562 2.556 2.394 2.781 2.394 2.781 C 2.394 2.781 2.137 2.964 2.137 3.347 C 2.137 3.73 2.137 4.253 2.137 4.253 L 2.137 12.832 L 2.033 12.832 C 2.033 12.832 2.033 3.57 2.033 3.363 C 2.033 3.156 2.054 2.918 2.297 2.675 C 2.541 2.432 2.921 2.457 2.921 2.457 L 6.146 2.457 L 9.371 2.457 C 9.371 2.457 9.75 2.432 9.994 2.675 C 10.238 2.918 10.259 3.156 10.259 3.363 C 10.259 3.57 10.259 12.832 10.259 12.832 L 10.155 12.832 L 10.155 4.253 C 10.155 4.253 10.155 3.73 10.155 3.347 C 10.155 2.964 9.898 2.781 9.898 2.781 C 9.898 2.781 9.729 2.556 9.314 2.556 C 9.056 2.556 6.146 2.556 6.146 2.556 L 6.146 2.556 Z " fill="rgb(255,251,138)" mask="url(#_mask_Ifwgu68U7RSfW6X7HB5p1n17qM3P9To8)" vector-effect="non-scaling-stroke" stroke-width="0.062" stroke="rgb(0,0,0)" stroke-linejoin="miter" stroke-linecap="butt" stroke-miterlimit="10"/><path d=" M 6.146 2.556 C 6.146 2.556 3.236 2.556 2.978 2.556 C 2.562 2.556 2.394 2.781 2.394 2.781 C 2.394 2.781 2.137 2.964 2.137 3.347 C 2.137 3.73 2.137 4.253 2.137 4.253 L 2.137 12.832 L 2.033 12.832 C 2.033 12.832 2.033 3.57 2.033 3.363 C 2.033 3.156 2.054 2.918 2.297 2.675 C 2.541 2.432 2.921 2.457 2.921 2.457 L 6.146 2.457 L 9.371 2.457 C 9.371 2.457 9.75 2.432 9.994 2.675 C 10.238 2.918 10.259 3.156 10.259 3.363 C 10.259 3.57 10.259 12.832 10.259 12.832 L 10.155 12.832 L 10.155 4.253 C 10.155 4.253 10.155 3.73 10.155 3.347 C 10.155 2.964 9.898 2.781 9.898 2.781 C 9.898 2.781 9.729 2.556 9.314 2.556 C 9.056 2.556 6.146 2.556 6.146 2.556 L 6.146 2.556 Z " fill="rgb(255,251,138)"/><mask id="_mask_tW4pkkZljdJ3MO9SUaa756Fw1xxoFIfR" x="-200%" y="-200%" width="400%" height="400%"><rect x="-200%" y="-200%" width="400%" height="400%" style="fill:white;"/><path d=" M 6.13 31.393 C 6.13 31.393 3.31 31.393 2.886 31.393 C 2.462 31.393 2.291 31.197 2.291 31.197 C 2.291 31.197 2.033 30.985 2.033 30.706 L 2.136 30.706 C 2.136 30.907 2.369 31.124 2.369 31.124 C 2.369 31.124 2.54 31.306 2.876 31.306 C 3.212 31.306 6.13 31.306 6.13 31.306 C 6.13 31.306 9.048 31.306 9.384 31.306 C 9.72 31.306 9.891 31.124 9.891 31.124 C 9.891 31.124 10.123 30.907 10.123 30.706 L 10.227 30.706 C 10.227 30.985 9.968 31.197 9.968 31.197 C 9.968 31.197 9.798 31.393 9.374 31.393 C 8.95 31.393 6.13 31.393 6.13 31.393" fill="black" stroke="none"/></mask><path d=" M 6.13 31.393 C 6.13 31.393 3.31 31.393 2.886 31.393 C 2.462 31.393 2.291 31.197 2.291 31.197 C 2.291 31.197 2.033 30.985 2.033 30.706 L 2.136 30.706 C 2.136 30.907 2.369 31.124 2.369 31.124 C 2.369 31.124 2.54 31.306 2.876 31.306 C 3.212 31.306 6.13 31.306 6.13 31.306 C 6.13 31.306 9.048 31.306 9.384 31.306 C 9.72 31.306 9.891 31.124 9.891 31.124 C 9.891 31.124 10.123 30.907 10.123 30.706 L 10.227 30.706 C 10.227 30.985 9.968 31.197 9.968 31.197 C 9.968 31.197 9.798 31.393 9.374 31.393 C 8.95 31.393 6.13 31.393 6.13 31.393" fill="rgb(255,251,138)" mask="url(#_mask_tW4pkkZljdJ3MO9SUaa756Fw1xxoFIfR)" vector-effect="non-scaling-stroke" stroke-width="0.062" stroke="rgb(0,0,0)" stroke-linejoin="miter" stroke-linecap="butt" stroke-miterlimit="10"/><path d=" M 6.13 31.393 C 6.13 31.393 3.31 31.393 2.886 31.393 C 2.462 31.393 2.291 31.197 2.291 31.197 C 2.291 31.197 2.033 30.985 2.033 30.706 L 2.136 30.706 C 2.136 30.907 2.369 31.124 2.369 31.124 C 2.369 31.124 2.54 31.306 2.876 31.306 C 3.212 31.306 6.13 31.306 6.13 31.306 C 6.13 31.306 9.048 31.306 9.384 31.306 C 9.72 31.306 9.891 31.124 9.891 31.124 C 9.891 31.124 10.123 30.907 10.123 30.706 L 10.227 30.706 C 10.227 30.985 9.968 31.197 9.968 31.197 C 9.968 31.197 9.798 31.393 9.374 31.393 C 8.95 31.393 6.13 31.393 6.13 31.393" fill="rgb(255,251,138)"/><mask id="_mask_RrXHM0muKhNUWrchExCRflcyeq0m3g1Q" x="-200%" y="-200%" width="400%" height="400%"><rect x="-200%" y="-200%" width="400%" height="400%" style="fill:white;"/><line x1="10.03" y1="30.411" x2="6.13" y2="30.411" fill="black" stroke="none"/></mask><line x1="10.03" y1="30.411" x2="6.13" y2="30.411" mask="url(#_mask_RrXHM0muKhNUWrchExCRflcyeq0m3g1Q)" vector-effect="non-scaling-stroke" stroke-width="0.062" stroke="rgb(0,0,0)" stroke-linejoin="miter" stroke-linecap="butt" stroke-miterlimit="10"/><mask id="_mask_QUHejxQogpwnmZrJENHnW7v3KYQ91fpi" x="-200%" y="-200%" width="400%" height="400%"><rect x="-200%" y="-200%" width="400%" height="400%" style="fill:white;"/><path d=" M 10.227 30.411 L 10.227 30.706 L 6.13 30.706 L 2.033 30.706 L 2.033 30.411 L 2.033 12.832 L 2.229 12.832 L 2.229 30.411 L 6.13 30.411 L 10.03 30.411 L 10.03 12.832 L 10.227 12.832 L 10.227 30.411 Z " fill="black" stroke="none"/></mask><path d=" M 10.227 30.411 L 10.227 30.706 L 6.13 30.706 L 2.033 30.706 L 2.033 30.411 L 2.033 12.832 L 2.229 12.832 L 2.229 30.411 L 6.13 30.411 L 10.03 30.411 L 10.03 12.832 L 10.227 12.832 L 10.227 30.411 Z " fill="rgb(255,251,138)" mask="url(#_mask_QUHejxQogpwnmZrJENHnW7v3KYQ91fpi)" vector-effect="non-scaling-stroke" stroke-width="0.062" stroke="rgb(0,0,0)" stroke-linejoin="miter" stroke-linecap="butt" stroke-miterlimit="10"/><path d=" M 10.227 30.411 L 10.227 30.706 L 6.13 30.706 L 2.033 30.706 L 2.033 30.411 L 2.033 12.832 L 2.229 12.832 L 2.229 30.411 L 6.13 30.411 L 10.03 30.411 L 10.03 12.832 L 10.227 12.832 L 10.227 30.411 Z " fill="rgb(255,251,138)"/><mask id="_mask_ZeMZETsTy3HtOjlDux6RaX1LKDlacndd" x="-200%" y="-200%" width="400%" height="400%"><rect x="-200%" y="-200%" width="400%" height="400%" style="fill:white;"/><path d=" M 3.052 12.926 L 2.229 12.926 L 2.229 12.832 L 6.13 12.832 L 10.03 12.832 L 10.03 12.926 L 9.208 12.926 L 9.208 16.401 L 6.13 16.401 L 3.052 16.401 L 3.052 12.926 Z " fill="black" stroke="none"/></mask><path d=" M 3.052 12.926 L 2.229 12.926 L 2.229 12.832 L 6.13 12.832 L 10.03 12.832 L 10.03 12.926 L 9.208 12.926 L 9.208 16.401 L 6.13 16.401 L 3.052 16.401 L 3.052 12.926 Z " fill="rgb(255,251,138)" mask="url(#_mask_ZeMZETsTy3HtOjlDux6RaX1LKDlacndd)" vector-effect="non-scaling-stroke" stroke-width="0.062" stroke="rgb(0,0,0)" stroke-linejoin="miter" stroke-linecap="butt" stroke-miterlimit="10"/><path d=" M 3.052 12.926 L 2.229 12.926 L 2.229 12.832 L 6.13 12.832 L 10.03 12.832 L 10.03 12.926 L 9.208 12.926 L 9.208 16.401 L 6.13 16.401 L 3.052 16.401 L 3.052 12.926 Z " fill="rgb(255,251,138)"/><mask id="_mask_CAph9wXpnJ6sQi4NrMRJo2VrVpX5X8L9" x="-200%" y="-200%" width="400%" height="400%"><rect x="-200%" y="-200%" width="400%" height="400%" style="fill:white;"/><path d=" M 6.186 1.274 C 6.186 1.274 2.963 1.274 2.79 1.274 C 2.617 1.274 2.307 1.611 2.307 1.611 C 2.307 1.611 2.138 1.843 2.138 2.17 L 2.193 2.17 C 2.193 1.845 2.369 1.622 2.369 1.622 C 2.369 1.622 2.578 1.362 2.803 1.362 C 3.028 1.362 6.186 1.367 6.186 1.367 C 6.186 1.367 9.345 1.362 9.57 1.362 C 9.794 1.362 10.003 1.622 10.003 1.622 C 10.003 1.622 10.18 1.845 10.18 2.17 L 10.234 2.17 C 10.234 1.843 10.066 1.611 10.066 1.611 C 10.066 1.611 9.756 1.274 9.583 1.274 C 9.409 1.274 6.186 1.274 6.186 1.274" fill="black" stroke="none"/></mask><path d=" M 6.186 1.274 C 6.186 1.274 2.963 1.274 2.79 1.274 C 2.617 1.274 2.307 1.611 2.307 1.611 C 2.307 1.611 2.138 1.843 2.138 2.17 L 2.193 2.17 C 2.193 1.845 2.369 1.622 2.369 1.622 C 2.369 1.622 2.578 1.362 2.803 1.362 C 3.028 1.362 6.186 1.367 6.186 1.367 C 6.186 1.367 9.345 1.362 9.57 1.362 C 9.794 1.362 10.003 1.622 10.003 1.622 C 10.003 1.622 10.18 1.845 10.18 2.17 L 10.234 2.17 C 10.234 1.843 10.066 1.611 10.066 1.611 C 10.066 1.611 9.756 1.274 9.583 1.274 C 9.409 1.274 6.186 1.274 6.186 1.274" fill="rgb(255,251,138)" mask="url(#_mask_CAph9wXpnJ6sQi4NrMRJo2VrVpX5X8L9)" vector-effect="non-scaling-stroke" stroke-width="0.062" stroke="rgb(0,0,0)" stroke-linejoin="miter" stroke-linecap="butt" stroke-miterlimit="10"/><path d=" M 6.186 1.274 C 6.186 1.274 2.963 1.274 2.79 1.274 C 2.617 1.274 2.307 1.611 2.307 1.611 C 2.307 1.611 2.138 1.843 2.138 2.17 L 2.193 2.17 C 2.193 1.845 2.369 1.622 2.369 1.622 C 2.369 1.622 2.578 1.362 2.803 1.362 C 3.028 1.362 6.186 1.367 6.186 1.367 C 6.186 1.367 9.345 1.362 9.57 1.362 C 9.794 1.362 10.003 1.622 10.003 1.622 C 10.003 1.622 10.18 1.845 10.18 2.17 L 10.234 2.17 C 10.234 1.843 10.066 1.611 10.066 1.611 C 10.066 1.611 9.756 1.274 9.583 1.274 C 9.409 1.274 6.186 1.274 6.186 1.274" fill="rgb(255,251,138)"/><rect x="2.917" y="12.988" width="0.134" height="0.429" transform="matrix(1,0,0,1,0,0)" fill="rgb(194,194,194)" vector-effect="non-scaling-stroke" stroke-width="0.031" stroke="rgb(0,0,0)" stroke-linejoin="miter" stroke-linecap="butt" stroke-miterlimit="2"/><rect x="2.917" y="13.474" width="0.134" height="0.429" transform="matrix(1,0,0,1,0,0)" fill="rgb(41,43,43)" vector-effect="non-scaling-stroke" stroke-width="0.031" stroke="rgb(0,0,0)" stroke-linejoin="miter" stroke-linecap="butt" stroke-miterlimit="2"/><rect x="2.917" y="13.944" width="0.134" height="0.429" transform="matrix(1,0,0,1,0,0)" fill="rgb(194,194,194)" vector-effect="non-scaling-stroke" stroke-width="0.031" stroke="rgb(0,0,0)" stroke-linejoin="miter" stroke-linecap="butt" stroke-miterlimit="2"/><rect x="2.917" y="14.891" width="0.134" height="0.429" transform="matrix(1,0,0,1,0,0)" fill="rgb(194,194,194)" vector-effect="non-scaling-stroke" stroke-width="0.031" stroke="rgb(0,0,0)" stroke-linejoin="miter" stroke-linecap="butt" stroke-miterlimit="2"/><rect x="2.917" y="15.392" width="0.134" height="0.429" transform="matrix(1,0,0,1,0,0)" fill="rgb(41,43,43)" vector-effect="non-scaling-stroke" stroke-width="0.031" stroke="rgb(0,0,0)" stroke-linejoin="miter" stroke-linecap="butt" stroke-miterlimit="2"/><rect x="2.917" y="15.904" width="0.134" height="0.429" transform="matrix(1,0,0,1,0,0)" fill="rgb(194,194,194)" vector-effect="non-scaling-stroke" stroke-width="0.031" stroke="rgb(0,0,0)" stroke-linejoin="miter" stroke-linecap="butt" stroke-miterlimit="2"/><rect x="3.926" y="1.057" width="1.314" height="0.217" transform="matrix(1,0,0,1,0,0)" fill="rgb(194,194,194)" vector-effect="non-scaling-stroke" stroke-width="0.031" stroke="rgb(0,0,0)" stroke-linejoin="miter" stroke-linecap="butt" stroke-miterlimit="2"/><mask id="_mask_tsJH0AjrfDkx8qjRsgkUEeFEjcA3Nzhl" x="-200%" y="-200%" width="400%" height="400%"><rect x="-200%" y="-200%" width="400%" height="400%" style="fill:white;"/><path d=" M 5.425 1.057 L 6.13 1.057 L 6.834 1.057 L 6.834 1.274 L 6.13 1.274 L 5.425 1.274 L 5.425 1.057 Z " fill="black" stroke="none"/></mask><path d=" M 5.425 1.057 L 6.13 1.057 L 6.834 1.057 L 6.834 1.274 L 6.13 1.274 L 5.425 1.274 L 5.425 1.057 Z " fill="rgb(41,43,43)" mask="url(#_mask_tsJH0AjrfDkx8qjRsgkUEeFEjcA3Nzhl)" vector-effect="non-scaling-stroke" stroke-width="0.062" stroke="rgb(0,0,0)" stroke-linejoin="miter" stroke-linecap="butt" stroke-miterlimit="10"/><path d=" M 5.425 1.057 L 6.13 1.057 L 6.834 1.057 L 6.834 1.274 L 6.13 1.274 L 5.425 1.274 L 5.425 1.057 Z " fill="rgb(41,43,43)"/><rect x="10.123" y="4.196" width="0.481" height="0.129" transform="matrix(1,0,0,1,0,0)" fill="rgb(194,194,194)" vector-effect="non-scaling-stroke" stroke-width="0.031" stroke="rgb(0,0,0)" stroke-linejoin="miter" stroke-linecap="butt" stroke-miterlimit="2"/><mask id="_mask_qrjHZ6f5n6RvMo0SAXJwxSciYk4EuKeE" x="-200%" y="-200%" width="400%" height="400%"><rect x="-200%" y="-200%" width="400%" height="400%" style="fill:white;"/><path d=" M 10.511 4.339 C 10.503 4.39 10.537 4.438 10.587 4.446 L 11.089 4.532 C 11.14 4.54 11.188 4.506 11.197 4.456 L 11.216 4.341 C 11.224 4.29 11.191 4.242 11.14 4.234 L 10.638 4.148 C 10.588 4.14 10.54 4.174 10.531 4.224 L 10.511 4.339 L 10.511 4.339 Z " fill="black" stroke="none"/></mask><path d=" M 10.511 4.339 C 10.503 4.39 10.537 4.438 10.587 4.446 L 11.089 4.532 C 11.14 4.54 11.188 4.506 11.197 4.456 L 11.216 4.341 C 11.224 4.29 11.191 4.242 11.14 4.234 L 10.638 4.148 C 10.588 4.14 10.54 4.174 10.531 4.224 L 10.511 4.339 L 10.511 4.339 Z " fill="rgb(194,194,194)" mask="url(#_mask_qrjHZ6f5n6RvMo0SAXJwxSciYk4EuKeE)" vector-effect="non-scaling-stroke" stroke-width="0.062" stroke="rgb(0,0,0)" stroke-linejoin="miter" stroke-linecap="butt" stroke-miterlimit="10"/><path d=" M 10.511 4.339 C 10.503 4.39 10.537 4.438 10.587 4.446 L 11.089 4.532 C 11.14 4.54 11.188 4.506 11.197 4.456 L 11.216 4.341 C 11.224 4.29 11.191 4.242 11.14 4.234 L 10.638 4.148 C 10.588 4.14 10.54 4.174 10.531 4.224 L 10.511 4.339 L 10.511 4.339 Z " fill="rgb(194,194,194)"/><rect x="1.65" y="4.245" width="0.481" height="0.129" transform="matrix(1,0,0,1,0,0)" fill="rgb(194,194,194)" vector-effect="non-scaling-stroke" stroke-width="0.031" stroke="rgb(0,0,0)" stroke-linejoin="miter" stroke-linecap="butt" stroke-miterlimit="2"/><mask id="_mask_KcNeHq6XB0cOjwMPCKgiCz2LRCWzOwZJ" x="-200%" y="-200%" width="400%" height="400%"><rect x="-200%" y="-200%" width="400%" height="400%" style="fill:white;"/><path d=" M 1.743 4.388 C 1.751 4.439 1.717 4.487 1.667 4.495 L 1.165 4.581 C 1.114 4.589 1.066 4.555 1.057 4.505 L 1.038 4.39 C 1.03 4.34 1.063 4.291 1.114 4.283 L 1.616 4.197 C 1.666 4.189 1.714 4.223 1.723 4.273 L 1.743 4.388 L 1.743 4.388 Z " fill="black" stroke="none"/></mask><path d=" M 1.743 4.388 C 1.751 4.439 1.717 4.487 1.667 4.495 L 1.165 4.581 C 1.114 4.589 1.066 4.555 1.057 4.505 L 1.038 4.39 C 1.03 4.34 1.063 4.291 1.114 4.283 L 1.616 4.197 C 1.666 4.189 1.714 4.223 1.723 4.273 L 1.743 4.388 L 1.743 4.388 Z " fill="rgb(194,194,194)" mask="url(#_mask_KcNeHq6XB0cOjwMPCKgiCz2LRCWzOwZJ)" vector-effect="non-scaling-stroke" stroke-width="0.062" stroke="rgb(0,0,0)" stroke-linejoin="miter" stroke-linecap="butt" stroke-miterlimit="10"/><path d=" M 1.743 4.388 C 1.751 4.439 1.717 4.487 1.667 4.495 L 1.165 4.581 C 1.114 4.589 1.066 4.555 1.057 4.505 L 1.038 4.39 C 1.03 4.34 1.063 4.291 1.114 4.283 L 1.616 4.197 C 1.666 4.189 1.714 4.223 1.723 4.273 L 1.743 4.388 L 1.743 4.388 Z " fill="rgb(194,194,194)"/><circle vector-effect="non-scaling-stroke" cx="9.50021687651639" cy="5.755115018006039" r="0.33357001727680924" fill="rgb(232,0,26)" stroke-width="0.031" stroke="rgb(0,0,0)" stroke-linejoin="miter" stroke-linecap="butt" stroke-miterlimit="10"/><circle vector-effect="non-scaling-stroke" cx="8.382431195766372" cy="5.421545000729229" r="0.33357001727680924" fill="rgb(232,0,26)" stroke-width="0.031" stroke="rgb(0,0,0)" stroke-linejoin="miter" stroke-linecap="butt" stroke-miterlimit="10"/><circle vector-effect="non-scaling-stroke" cx="7.25189165934183" cy="5.087974983452419" r="0.3335700172768101" fill="rgb(255,255,255)" stroke-width="0.031" stroke="rgb(0,0,0)" stroke-linejoin="miter" stroke-linecap="butt" stroke-miterlimit="10"/><circle vector-effect="non-scaling-stroke" cx="2.759371597550823" cy="5.755115018006039" r="0.3335700172768101" fill="rgb(232,0,26)" stroke-width="0.031" stroke="rgb(0,0,0)" stroke-linejoin="miter" stroke-linecap="butt" stroke-miterlimit="10"/><circle vector-effect="non-scaling-stroke" cx="3.8771876874745104" cy="5.421545000729229" r="0.3335700172768101" fill="rgb(232,0,26)" stroke-width="0.031" stroke="rgb(0,0,0)" stroke-linejoin="miter" stroke-linecap="butt" stroke-miterlimit="10"/><mask id="_mask_5l34zDz8hJ1aDpUWVRgKB6yq3Jw3Lm7f" x="-200%" y="-200%" width="400%" height="400%"><rect x="-200%" y="-200%" width="400%" height="400%" style="fill:white;"/><path d=" M 2.136 4.245 L 6.098 4.245 L 6.098 2.549 C 6.098 2.549 3.305 2.549 2.974 2.549 C 2.643 2.549 2.496 2.67 2.392 2.774 C 2.289 2.877 2.136 3.059 2.136 3.339 C 2.136 3.619 2.136 4.245 2.136 4.245 Z " fill="black" stroke="none"/></mask><path d=" M 2.136 4.245 L 6.098 4.245 L 6.098 2.549 C 6.098 2.549 3.305 2.549 2.974 2.549 C 2.643 2.549 2.496 2.67 2.392 2.774 C 2.289 2.877 2.136 3.059 2.136 3.339 C 2.136 3.619 2.136 4.245 2.136 4.245 Z " fill="rgb(204,227,255)" mask="url(#_mask_5l34zDz8hJ1aDpUWVRgKB6yq3Jw3Lm7f)" vector-effect="non-scaling-stroke" stroke-width="0.062" stroke="rgb(0,0,0)" stroke-linejoin="miter" stroke-linecap="butt" stroke-miterlimit="10"/><path d=" M 2.136 4.245 L 6.098 4.245 L 6.098 2.549 C 6.098 2.549 3.305 2.549 2.974 2.549 C 2.643 2.549 2.496 2.67 2.392 2.774 C 2.289 2.877 2.136 3.059 2.136 3.339 C 2.136 3.619 2.136 4.245 2.136 4.245 Z " fill="rgb(204,227,255)"/><mask id="_mask_Nxm7xds4wJ2sm08AIOo5cKz9MMG1rRLp" x="-200%" y="-200%" width="400%" height="400%"><rect x="-200%" y="-200%" width="400%" height="400%" style="fill:white;"/><path d=" M 10.123 4.245 L 6.162 4.245 L 6.162 2.549 C 6.162 2.549 8.955 2.549 9.286 2.549 C 9.617 2.549 9.764 2.67 9.867 2.774 C 9.971 2.877 10.123 3.059 10.123 3.339 C 10.123 3.619 10.123 4.245 10.123 4.245 Z " fill="black" stroke="none"/></mask><path d=" M 10.123 4.245 L 6.162 4.245 L 6.162 2.549 C 6.162 2.549 8.955 2.549 9.286 2.549 C 9.617 2.549 9.764 2.67 9.867 2.774 C 9.971 2.877 10.123 3.059 10.123 3.339 C 10.123 3.619 10.123 4.245 10.123 4.245 Z " fill="rgb(204,227,255)" mask="url(#_mask_Nxm7xds4wJ2sm08AIOo5cKz9MMG1rRLp)" vector-effect="non-scaling-stroke" stroke-width="0.062" stroke="rgb(0,0,0)" stroke-linejoin="miter" stroke-linecap="butt" stroke-miterlimit="10"/><path d=" M 10.123 4.245 L 6.162 4.245 L 6.162 2.549 C 6.162 2.549 8.955 2.549 9.286 2.549 C 9.617 2.549 9.764 2.67 9.867 2.774 C 9.971 2.877 10.123 3.059 10.123 3.339 C 10.123 3.619 10.123 4.245 10.123 4.245 Z " fill="rgb(204,227,255)"/><circle vector-effect="non-scaling-stroke" cx="5.0076955735346225" cy="5.087974983452419" r="0.3335700172768101" fill="rgb(255,255,255)" stroke-width="0.031" stroke="rgb(0,0,0)" stroke-linejoin="miter" stroke-linecap="butt" stroke-miterlimit="10"/><circle vector-effect="non-scaling-stroke" cx="6.09764662055461" cy="4.779600828345711" r="0.3335700172768101" fill="rgb(232,0,26)" stroke-width="0.031" stroke="rgb(0,0,0)" stroke-linejoin="miter" stroke-linecap="butt" stroke-miterlimit="10"/><mask id="_mask_4Qu0Ba1i25fdRPYx6TOlHq9gPdGy1RdG" x="-200%" y="-200%" width="400%" height="400%"><rect x="-200%" y="-200%" width="400%" height="400%" style="fill:white;"/><path d=" M 8.655 4.253 L 9.079 4.253 C 9.079 4.136 8.984 4.041 8.867 4.041 C 8.75 4.041 8.655 4.136 8.655 4.253 Z " fill="black" stroke="none"/></mask><path d=" M 8.655 4.253 L 9.079 4.253 C 9.079 4.136 8.984 4.041 8.867 4.041 C 8.75 4.041 8.655 4.136 8.655 4.253 Z " fill="rgb(255,77,0)" mask="url(#_mask_4Qu0Ba1i25fdRPYx6TOlHq9gPdGy1RdG)" vector-effect="non-scaling-stroke" stroke-width="0.062" stroke="rgb(0,0,0)" stroke-linejoin="miter" stroke-linecap="butt" stroke-miterlimit="10"/><path d=" M 8.655 4.253 L 9.079 4.253 C 9.079 4.136 8.984 4.041 8.867 4.041 C 8.75 4.041 8.655 4.136 8.655 4.253 Z " fill="rgb(255,77,0)"/><mask id="_mask_vfC0C2gDoRuMoQOCtclBdm48mxju2hRL" x="-200%" y="-200%" width="400%" height="400%"><rect x="-200%" y="-200%" width="400%" height="400%" style="fill:white;"/><path d=" M 7.083 4.253 L 7.507 4.253 C 7.507 4.136 7.412 4.041 7.295 4.041 C 7.178 4.041 7.083 4.136 7.083 4.253 Z " fill="black" stroke="none"/></mask><path d=" M 7.083 4.253 L 7.507 4.253 C 7.507 4.136 7.412 4.041 7.295 4.041 C 7.178 4.041 7.083 4.136 7.083 4.253 Z " fill="rgb(255,77,0)" mask="url(#_mask_vfC0C2gDoRuMoQOCtclBdm48mxju2hRL)" vector-effect="non-scaling-stroke" stroke-width="0.062" stroke="rgb(0,0,0)" stroke-linejoin="miter" stroke-linecap="butt" stroke-miterlimit="10"/><path d=" M 7.083 4.253 L 7.507 4.253 C 7.507 4.136 7.412 4.041 7.295 4.041 C 7.178 4.041 7.083 4.136 7.083 4.253 Z " fill="rgb(255,77,0)"/><mask id="_mask_22MiYjkgrt3XBXWbAKwPKPyCig9DJ7lz" x="-200%" y="-200%" width="400%" height="400%"><rect x="-200%" y="-200%" width="400%" height="400%" style="fill:white;"/><path d=" M 3.605 4.253 L 3.181 4.253 C 3.181 4.136 3.276 4.041 3.393 4.041 C 3.51 4.041 3.605 4.136 3.605 4.253 Z " fill="black" stroke="none"/></mask><path d=" M 3.605 4.253 L 3.181 4.253 C 3.181 4.136 3.276 4.041 3.393 4.041 C 3.51 4.041 3.605 4.136 3.605 4.253 Z " fill="rgb(255,77,0)" mask="url(#_mask_22MiYjkgrt3XBXWbAKwPKPyCig9DJ7lz)" vector-effect="non-scaling-stroke" stroke-width="0.062" stroke="rgb(0,0,0)" stroke-linejoin="miter" stroke-linecap="butt" stroke-miterlimit="10"/><path d=" M 3.605 4.253 L 3.181 4.253 C 3.181 4.136 3.276 4.041 3.393 4.041 C 3.51 4.041 3.605 4.136 3.605 4.253 Z " fill="rgb(255,77,0)"/><mask id="_mask_IUZDcGEGABLVNhToF5LK9Kfl2lhTrIP4" x="-200%" y="-200%" width="400%" height="400%"><rect x="-200%" y="-200%" width="400%" height="400%" style="fill:white;"/><path d=" M 5.176 4.253 L 4.752 4.253 C 4.752 4.136 4.847 4.041 4.964 4.041 C 5.081 4.041 5.176 4.136 5.176 4.253 Z " fill="black" stroke="none"/></mask><path d=" M 5.176 4.253 L 4.752 4.253 C 4.752 4.136 4.847 4.041 4.964 4.041 C 5.081 4.041 5.176 4.136 5.176 4.253 Z " fill="rgb(255,77,0)" mask="url(#_mask_IUZDcGEGABLVNhToF5LK9Kfl2lhTrIP4)" vector-effect="non-scaling-stroke" stroke-width="0.062" stroke="rgb(0,0,0)" stroke-linejoin="miter" stroke-linecap="butt" stroke-miterlimit="10"/><path d=" M 5.176 4.253 L 4.752 4.253 C 4.752 4.136 4.847 4.041 4.964 4.041 C 5.081 4.041 5.176 4.136 5.176 4.253 Z " fill="rgb(255,77,0)"/><mask id="_mask_oeLAw4x0n1rhAbkpHZ1N4XIg13idbbnl" x="-200%" y="-200%" width="400%" height="400%"><rect x="-200%" y="-200%" width="400%" height="400%" style="fill:white;"/><path d=" M 5.918 4.253 L 6.342 4.253 C 6.342 4.136 6.247 4.041 6.13 4.041 C 6.013 4.041 5.918 4.136 5.918 4.253 Z " fill="black" stroke="none"/></mask><path d=" M 5.918 4.253 L 6.342 4.253 C 6.342 4.136 6.247 4.041 6.13 4.041 C 6.013 4.041 5.918 4.136 5.918 4.253 Z " fill="rgb(255,77,0)" mask="url(#_mask_oeLAw4x0n1rhAbkpHZ1N4XIg13idbbnl)" vector-effect="non-scaling-stroke" stroke-width="0.062" stroke="rgb(0,0,0)" stroke-linejoin="miter" stroke-linecap="butt" stroke-miterlimit="10"/><path d=" M 5.918 4.253 L 6.342 4.253 C 6.342 4.136 6.247 4.041 6.13 4.041 C 6.013 4.041 5.918 4.136 5.918 4.253 Z " fill="rgb(255,77,0)"/><circle vector-effect="non-scaling-stroke" cx="9.539034186703628" cy="29.89885049866577" r="0.34650943097024545" fill="rgb(166,166,166)" stroke-width="0.031" stroke="rgb(0,0,0)" stroke-linejoin="miter" stroke-linecap="butt" stroke-miterlimit="10"/><mask id="_mask_DawWpb6RfIeGrYxKIPWrLcu25yhjKYN1" x="-200%" y="-200%" width="400%" height="400%"><rect x="-200%" y="-200%" width="400%" height="400%" style="fill:white;"/><path d=" M 9.886 16.862 C 9.886 16.862 9.848 16.799 9.712 16.799 C 9.577 16.799 9.539 16.862 9.539 16.862 L 9.539 29.03 C 9.539 29.03 9.592 29.097 9.712 29.097 C 9.832 29.097 9.886 29.03 9.886 29.03 L 9.886 16.862 Z " fill="black" stroke="none"/></mask><path d=" M 9.886 16.862 C 9.886 16.862 9.848 16.799 9.712 16.799 C 9.577 16.799 9.539 16.862 9.539 16.862 L 9.539 29.03 C 9.539 29.03 9.592 29.097 9.712 29.097 C 9.832 29.097 9.886 29.03 9.886 29.03 L 9.886 16.862 Z " fill="rgb(194,194,194)" mask="url(#_mask_DawWpb6RfIeGrYxKIPWrLcu25yhjKYN1)" vector-effect="non-scaling-stroke" stroke-width="0.062" stroke="rgb(0,0,0)" stroke-linejoin="miter" stroke-linecap="butt" stroke-miterlimit="10"/><path d=" M 9.886 16.862 C 9.886 16.862 9.848 16.799 9.712 16.799 C 9.577 16.799 9.539 16.862 9.539 16.862 L 9.539 29.03 C 9.539 29.03 9.592 29.097 9.712 29.097 C 9.832 29.097 9.886 29.03 9.886 29.03 L 9.886 16.862 Z " fill="rgb(194,194,194)"/><mask id="_mask_Y3RQORT7svVkcuu0CHBvhoc0IHvgqbHN" x="-200%" y="-200%" width="400%" height="400%"><rect x="-200%" y="-200%" width="400%" height="400%" style="fill:white;"/><path d=" M 9.886 28.987 L 9.539 28.987 C 9.539 28.987 9.522 28.958 9.522 28.917 C 9.522 28.877 9.539 28.848 9.539 28.848 L 9.886 28.848 C 9.886 28.848 9.902 28.863 9.902 28.917 C 9.902 28.972 9.886 28.987 9.886 28.987 Z " fill="black" stroke="none"/></mask><path d=" M 9.886 28.987 L 9.539 28.987 C 9.539 28.987 9.522 28.958 9.522 28.917 C 9.522 28.877 9.539 28.848 9.539 28.848 L 9.886 28.848 C 9.886 28.848 9.902 28.863 9.902 28.917 C 9.902 28.972 9.886 28.987 9.886 28.987 Z " fill="rgb(194,194,194)" mask="url(#_mask_Y3RQORT7svVkcuu0CHBvhoc0IHvgqbHN)" vector-effect="non-scaling-stroke" stroke-width="0.062" stroke="rgb(0,0,0)" stroke-linejoin="miter" stroke-linecap="butt" stroke-miterlimit="10"/><path d=" M 9.886 28.987 L 9.539 28.987 C 9.539 28.987 9.522 28.958 9.522 28.917 C 9.522 28.877 9.539 28.848 9.539 28.848 L 9.886 28.848 C 9.886 28.848 9.902 28.863 9.902 28.917 C 9.902 28.972 9.886 28.987 9.886 28.987 Z " fill="rgb(194,194,194)"/><mask id="_mask_ZTYJ0FnZF3XMrJWoAId8OYLMwhxhC9fF" x="-200%" y="-200%" width="400%" height="400%"><rect x="-200%" y="-200%" width="400%" height="400%" style="fill:white;"/><path d=" M 9.886 24.81 L 9.539 24.81 C 9.539 24.81 9.522 24.78 9.522 24.74 C 9.522 24.7 9.539 24.67 9.539 24.67 L 9.886 24.67 C 9.886 24.67 9.902 24.686 9.902 24.74 C 9.902 24.794 9.886 24.81 9.886 24.81 Z " fill="black" stroke="none"/></mask><path d=" M 9.886 24.81 L 9.539 24.81 C 9.539 24.81 9.522 24.78 9.522 24.74 C 9.522 24.7 9.539 24.67 9.539 24.67 L 9.886 24.67 C 9.886 24.67 9.902 24.686 9.902 24.74 C 9.902 24.794 9.886 24.81 9.886 24.81 Z " fill="rgb(194,194,194)" mask="url(#_mask_ZTYJ0FnZF3XMrJWoAId8OYLMwhxhC9fF)" vector-effect="non-scaling-stroke" stroke-width="0.062" stroke="rgb(0,0,0)" stroke-linejoin="miter" stroke-linecap="butt" stroke-miterlimit="10"/><path d=" M 9.886 24.81 L 9.539 24.81 C 9.539 24.81 9.522 24.78 9.522 24.74 C 9.522 24.7 9.539 24.67 9.539 24.67 L 9.886 24.67 C 9.886 24.67 9.902 24.686 9.902 24.74 C 9.902 24.794 9.886 24.81 9.886 24.81 Z " fill="rgb(194,194,194)"/><mask id="_mask_PpJWpGv4R2926WVjOs04rRAYNWbiMu26" x="-200%" y="-200%" width="400%" height="400%"><rect x="-200%" y="-200%" width="400%" height="400%" style="fill:white;"/><path d=" M 9.886 20.958 L 9.539 20.958 C 9.539 20.958 9.522 20.929 9.522 20.889 C 9.522 20.848 9.539 20.819 9.539 20.819 L 9.886 20.819 C 9.886 20.819 9.902 20.834 9.902 20.889 C 9.902 20.943 9.886 20.958 9.886 20.958 Z " fill="black" stroke="none"/></mask><path d=" M 9.886 20.958 L 9.539 20.958 C 9.539 20.958 9.522 20.929 9.522 20.889 C 9.522 20.848 9.539 20.819 9.539 20.819 L 9.886 20.819 C 9.886 20.819 9.902 20.834 9.902 20.889 C 9.902 20.943 9.886 20.958 9.886 20.958 Z " fill="rgb(194,194,194)" mask="url(#_mask_PpJWpGv4R2926WVjOs04rRAYNWbiMu26)" vector-effect="non-scaling-stroke" stroke-width="0.062" stroke="rgb(0,0,0)" stroke-linejoin="miter" stroke-linecap="butt" stroke-miterlimit="10"/><path d=" M 9.886 20.958 L 9.539 20.958 C 9.539 20.958 9.522 20.929 9.522 20.889 C 9.522 20.848 9.539 20.819 9.539 20.819 L 9.886 20.819 C 9.886 20.819 9.902 20.834 9.902 20.889 C 9.902 20.943 9.886 20.958 9.886 20.958 Z " fill="rgb(194,194,194)"/><mask id="_mask_xtO77lfes0bAUx6QCV6vhhz9AjFY30fS" x="-200%" y="-200%" width="400%" height="400%"><rect x="-200%" y="-200%" width="400%" height="400%" style="fill:white;"/><path d=" M 9.886 17.104 L 9.539 17.104 C 9.539 17.104 9.522 17.075 9.522 17.034 C 9.522 16.994 9.539 16.965 9.539 16.965 L 9.886 16.965 C 9.886 16.965 9.902 16.98 9.902 17.034 C 9.902 17.089 9.886 17.104 9.886 17.104 Z " fill="black" stroke="none"/></mask><path d=" M 9.886 17.104 L 9.539 17.104 C 9.539 17.104 9.522 17.075 9.522 17.034 C 9.522 16.994 9.539 16.965 9.539 16.965 L 9.886 16.965 C 9.886 16.965 9.902 16.98 9.902 17.034 C 9.902 17.089 9.886 17.104 9.886 17.104 Z " fill="rgb(194,194,194)" mask="url(#_mask_xtO77lfes0bAUx6QCV6vhhz9AjFY30fS)" vector-effect="non-scaling-stroke" stroke-width="0.062" stroke="rgb(0,0,0)" stroke-linejoin="miter" stroke-linecap="butt" stroke-miterlimit="10"/><path d=" M 9.886 17.104 L 9.539 17.104 C 9.539 17.104 9.522 17.075 9.522 17.034 C 9.522 16.994 9.539 16.965 9.539 16.965 L 9.886 16.965 C 9.886 16.965 9.902 16.98 9.902 17.034 C 9.902 17.089 9.886 17.104 9.886 17.104 Z " fill="rgb(194,194,194)"/><circle vector-effect="non-scaling-stroke" cx="2.720553046172828" cy="29.89885049866577" r="0.34650943097024545" fill="rgb(166,166,166)" stroke-width="0.031" stroke="rgb(0,0,0)" stroke-linejoin="miter" stroke-linecap="butt" stroke-miterlimit="10"/><mask id="_mask_SPkn1B0bVlvc4gq2xhfyWam7uZa9eIRT" x="-200%" y="-200%" width="400%" height="400%"><rect x="-200%" y="-200%" width="400%" height="400%" style="fill:white;"/><path d=" M 2.374 16.862 C 2.374 16.862 2.412 16.799 2.547 16.799 C 2.683 16.799 2.721 16.862 2.721 16.862 L 2.721 29.03 C 2.721 29.03 2.668 29.097 2.547 29.097 C 2.427 29.097 2.374 29.03 2.374 29.03 L 2.374 16.862 Z " fill="black" stroke="none"/></mask><path d=" M 2.374 16.862 C 2.374 16.862 2.412 16.799 2.547 16.799 C 2.683 16.799 2.721 16.862 2.721 16.862 L 2.721 29.03 C 2.721 29.03 2.668 29.097 2.547 29.097 C 2.427 29.097 2.374 29.03 2.374 29.03 L 2.374 16.862 Z " fill="rgb(194,194,194)" mask="url(#_mask_SPkn1B0bVlvc4gq2xhfyWam7uZa9eIRT)" vector-effect="non-scaling-stroke" stroke-width="0.062" stroke="rgb(0,0,0)" stroke-linejoin="miter" stroke-linecap="butt" stroke-miterlimit="10"/><path d=" M 2.374 16.862 C 2.374 16.862 2.412 16.799 2.547 16.799 C 2.683 16.799 2.721 16.862 2.721 16.862 L 2.721 29.03 C 2.721 29.03 2.668 29.097 2.547 29.097 C 2.427 29.097 2.374 29.03 2.374 29.03 L 2.374 16.862 Z " fill="rgb(194,194,194)"/><mask id="_mask_uBYAwR8LHgRlMVMTMAzH2zmXtSEmJo1U" x="-200%" y="-200%" width="400%" height="400%"><rect x="-200%" y="-200%" width="400%" height="400%" style="fill:white;"/><path d=" M 2.374 28.987 L 2.721 28.987 C 2.721 28.987 2.737 28.958 2.737 28.917 C 2.737 28.877 2.721 28.848 2.721 28.848 L 2.374 28.848 C 2.374 28.848 2.357 28.863 2.357 28.917 C 2.357 28.972 2.374 28.987 2.374 28.987 Z " fill="black" stroke="none"/></mask><path d=" M 2.374 28.987 L 2.721 28.987 C 2.721 28.987 2.737 28.958 2.737 28.917 C 2.737 28.877 2.721 28.848 2.721 28.848 L 2.374 28.848 C 2.374 28.848 2.357 28.863 2.357 28.917 C 2.357 28.972 2.374 28.987 2.374 28.987 Z " fill="rgb(194,194,194)" mask="url(#_mask_uBYAwR8LHgRlMVMTMAzH2zmXtSEmJo1U)" vector-effect="non-scaling-stroke" stroke-width="0.062" stroke="rgb(0,0,0)" stroke-linejoin="miter" stroke-linecap="butt" stroke-miterlimit="10"/><path d=" M 2.374 28.987 L 2.721 28.987 C 2.721 28.987 2.737 28.958 2.737 28.917 C 2.737 28.877 2.721 28.848 2.721 28.848 L 2.374 28.848 C 2.374 28.848 2.357 28.863 2.357 28.917 C 2.357 28.972 2.374 28.987 2.374 28.987 Z " fill="rgb(194,194,194)"/><mask id="_mask_V1jrr9O2KhteUUuInrDTgSeaMXkJe2xt" x="-200%" y="-200%" width="400%" height="400%"><rect x="-200%" y="-200%" width="400%" height="400%" style="fill:white;"/><path d=" M 2.374 24.81 L 2.721 24.81 C 2.721 24.81 2.737 24.78 2.737 24.74 C 2.737 24.7 2.721 24.67 2.721 24.67 L 2.374 24.67 C 2.374 24.67 2.357 24.686 2.357 24.74 C 2.357 24.794 2.374 24.81 2.374 24.81 Z " fill="black" stroke="none"/></mask><path d=" M 2.374 24.81 L 2.721 24.81 C 2.721 24.81 2.737 24.78 2.737 24.74 C 2.737 24.7 2.721 24.67 2.721 24.67 L 2.374 24.67 C 2.374 24.67 2.357 24.686 2.357 24.74 C 2.357 24.794 2.374 24.81 2.374 24.81 Z " fill="rgb(194,194,194)" mask="url(#_mask_V1jrr9O2KhteUUuInrDTgSeaMXkJe2xt)" vector-effect="non-scaling-stroke" stroke-width="0.062" stroke="rgb(0,0,0)" stroke-linejoin="miter" stroke-linecap="butt" stroke-miterlimit="10"/><path d=" M 2.374 24.81 L 2.721 24.81 C 2.721 24.81 2.737 24.78 2.737 24.74 C 2.737 24.7 2.721 24.67 2.721 24.67 L 2.374 24.67 C 2.374 24.67 2.357 24.686 2.357 24.74 C 2.357 24.794 2.374 24.81 2.374 24.81 Z " fill="rgb(194,194,194)"/><mask id="_mask_JtkwcHO5223wkVmSLJRjf4dvOntmvBvi" x="-200%" y="-200%" width="400%" height="400%"><rect x="-200%" y="-200%" width="400%" height="400%" style="fill:white;"/><path d=" M 2.374 20.958 L 2.721 20.958 C 2.721 20.958 2.737 20.929 2.737 20.889 C 2.737 20.848 2.721 20.819 2.721 20.819 L 2.374 20.819 C 2.374 20.819 2.357 20.834 2.357 20.889 C 2.357 20.943 2.374 20.958 2.374 20.958 Z " fill="black" stroke="none"/></mask><path d=" M 2.374 20.958 L 2.721 20.958 C 2.721 20.958 2.737 20.929 2.737 20.889 C 2.737 20.848 2.721 20.819 2.721 20.819 L 2.374 20.819 C 2.374 20.819 2.357 20.834 2.357 20.889 C 2.357 20.943 2.374 20.958 2.374 20.958 Z " fill="rgb(194,194,194)" mask="url(#_mask_JtkwcHO5223wkVmSLJRjf4dvOntmvBvi)" vector-effect="non-scaling-stroke" stroke-width="0.062" stroke="rgb(0,0,0)" stroke-linejoin="miter" stroke-linecap="butt" stroke-miterlimit="10"/><path d=" M 2.374 20.958 L 2.721 20.958 C 2.721 20.958 2.737 20.929 2.737 20.889 C 2.737 20.848 2.721 20.819 2.721 20.819 L 2.374 20.819 C 2.374 20.819 2.357 20.834 2.357 20.889 C 2.357 20.943 2.374 20.958 2.374 20.958 Z " fill="rgb(194,194,194)"/><mask id="_mask_oFDsL9M9Ke99Ba475NP67EMKUlRRuD49" x="-200%" y="-200%" width="400%" height="400%"><rect x="-200%" y="-200%" width="400%" height="400%" style="fill:white;"/><path d=" M 2.374 17.104 L 2.721 17.104 C 2.721 17.104 2.737 17.075 2.737 17.034 C 2.737 16.994 2.721 16.965 2.721 16.965 L 2.374 16.965 C 2.374 16.965 2.357 16.98 2.357 17.034 C 2.357 17.089 2.374 17.104 2.374 17.104 Z " fill="black" stroke="none"/></mask><path d=" M 2.374 17.104 L 2.721 17.104 C 2.721 17.104 2.737 17.075 2.737 17.034 C 2.737 16.994 2.721 16.965 2.721 16.965 L 2.374 16.965 C 2.374 16.965 2.357 16.98 2.357 17.034 C 2.357 17.089 2.374 17.104 2.374 17.104 Z " fill="rgb(194,194,194)" mask="url(#_mask_oFDsL9M9Ke99Ba475NP67EMKUlRRuD49)" vector-effect="non-scaling-stroke" stroke-width="0.062" stroke="rgb(0,0,0)" stroke-linejoin="miter" stroke-linecap="butt" stroke-miterlimit="10"/><path d=" M 2.374 17.104 L 2.721 17.104 C 2.721 17.104 2.737 17.075 2.737 17.034 C 2.737 16.994 2.721 16.965 2.721 16.965 L 2.374 16.965 C 2.374 16.965 2.357 16.98 2.357 17.034 C 2.357 17.089 2.374 17.104 2.374 17.104 Z " fill="rgb(194,194,194)"/></g></svg>