<?xml version="1.0" standalone="no"?><!-- Generator: Gravit.io --><svg xmlns="http://www.w3.org/2000/svg" xmlns:xlink="http://www.w3.org/1999/xlink" style="isolation:isolate" viewBox="0 0 11 26" width="11" height="26"><defs><clipPath id="_clipPath_fba3z5L6Ju8HP36OPNjcoO5Vh9ETmc5V"><rect width="11" height="26"/></clipPath></defs><g clip-path="url(#_clipPath_fba3z5L6Ju8HP36OPNjcoO5Vh9ETmc5V)"><clipPath id="_clipPath_bqau5ineQYIaZAS84LWoQhwAkX1NJwJJ"><rect x="0" y="0" width="11" height="26" transform="matrix(1,0,0,1,0,0)" fill="rgb(255,255,255)"/></clipPath><g clip-path="url(#_clipPath_bqau5ineQYIaZAS84LWoQhwAkX1NJwJJ)"><g><path d=" M 5.485 0.508 L 5.485 0.508 C 3.511 0.508 1.65 0.837 1.65 1.536 L 1.65 3.418 L 9.35 3.418 L 9.35 1.485 C 9.319 0.837 7.459 0.508 5.485 0.508 Z " fill="rgb(169,174,178)"/><g><path d=" M 5.485 0.508 L 5.485 0.508 C 3.511 0.508 1.65 0.837 1.65 1.536 L 1.65 3.418 L 9.35 3.418 L 9.35 1.485 C 9.319 0.837 7.459 0.508 5.485 0.508 Z " fill="none" vector-effect="non-scaling-stroke" stroke-width="0.09" stroke="rgb(132,134,135)" stroke-opacity="100" stroke-linejoin="miter" stroke-linecap="square" stroke-miterlimit="3"/></g><path d=" M 3.912 9.772 C 3.662 9.772 3.459 9.974 3.459 10.224 L 3.459 16.948 C 3.459 17.068 3.507 17.183 3.592 17.268 C 3.677 17.353 3.792 17.4 3.912 17.4 L 7.068 17.4 C 7.188 17.4 7.303 17.353 7.388 17.268 C 7.473 17.183 7.52 17.068 7.52 16.948 L 7.52 10.224 C 7.52 9.974 7.318 9.772 7.068 9.772 L 3.912 9.772 L 3.912 9.772 Z  M 3.624 10.676 L 3.86 10.676 L 3.86 10.759 L 3.603 10.759 L 3.624 10.676 L 3.624 10.676 Z  M 3.891 10.676 L 4.127 10.676 L 4.127 10.759 L 3.912 10.759 L 3.891 10.676 L 3.891 10.676 Z  M 4.158 10.676 L 4.395 10.676 L 4.395 10.759 L 4.138 10.759 L 4.158 10.676 L 4.158 10.676 Z  M 4.426 10.676 L 4.662 10.676 L 4.662 10.759 L 4.415 10.759 L 4.426 10.676 L 4.426 10.676 Z  M 4.693 10.676 L 4.94 10.676 L 4.94 10.759 L 4.683 10.759 L 4.693 10.676 L 4.693 10.676 Z  M 4.96 10.676 L 5.197 10.676 L 5.197 10.759 L 4.94 10.759 L 4.96 10.676 L 4.96 10.676 Z  M 5.228 10.676 L 5.454 10.676 L 5.454 10.759 L 5.228 10.759 L 5.228 10.676 L 5.228 10.676 Z  M 5.495 10.676 L 5.731 10.676 L 5.731 10.759 L 5.495 10.759 L 5.495 10.676 L 5.495 10.676 Z  M 5.762 10.676 L 5.968 10.676 L 5.968 10.759 L 5.762 10.759 L 5.762 10.676 L 5.762 10.676 Z  M 6.029 10.676 L 6.266 10.676 L 6.266 10.759 L 6.029 10.759 L 6.029 10.676 L 6.029 10.676 Z  M 6.297 10.676 L 6.533 10.676 L 6.533 10.759 L 6.307 10.759 L 6.297 10.676 L 6.297 10.676 Z  M 6.564 10.676 L 6.801 10.676 L 6.801 10.759 L 6.574 10.759 L 6.564 10.676 L 6.564 10.676 Z  M 6.831 10.676 L 7.068 10.676 L 7.068 10.759 L 6.842 10.759 L 6.831 10.676 L 6.831 10.676 Z  M 7.099 10.676 L 7.335 10.676 L 7.335 10.759 L 7.119 10.759 L 7.099 10.676 L 7.099 10.676 Z  M 3.583 10.841 L 3.819 10.841 L 3.819 10.923 L 3.603 10.923 L 3.583 10.841 L 3.583 10.841 Z  M 3.85 10.841 L 4.086 10.841 L 4.086 10.923 L 3.912 10.923 L 3.85 10.841 L 3.85 10.841 Z  M 4.117 10.841 L 4.354 10.841 L 4.354 10.923 L 4.138 10.923 L 4.117 10.841 L 4.117 10.841 Z  M 4.384 10.841 L 4.621 10.841 L 4.621 10.923 L 4.415 10.923 L 4.384 10.841 L 4.384 10.841 Z  M 4.652 10.841 L 4.94 10.841 L 4.94 10.923 L 4.683 10.923 L 4.652 10.841 L 4.652 10.841 Z  M 4.919 10.841 L 5.156 10.841 L 5.156 10.923 L 4.94 10.923 L 4.919 10.841 L 4.919 10.841 Z  M 5.186 10.841 L 5.454 10.841 L 5.454 10.923 L 5.228 10.923 L 5.186 10.841 L 5.186 10.841 Z  M 5.454 10.841 L 5.69 10.841 L 5.69 10.923 L 5.495 10.923 L 5.454 10.841 L 5.454 10.841 Z  M 5.721 10.841 L 5.968 10.841 L 5.968 10.923 L 5.762 10.923 L 5.721 10.841 L 5.721 10.841 Z  M 5.988 10.841 L 6.225 10.841 L 6.225 10.923 L 6.029 10.923 L 5.988 10.841 L 5.988 10.841 Z  M 6.256 10.841 L 6.492 10.841 L 6.492 10.923 L 6.307 10.923 L 6.256 10.841 L 6.256 10.841 Z  M 6.523 10.841 L 6.759 10.841 L 6.759 10.923 L 6.574 10.923 L 6.523 10.841 L 6.523 10.841 Z  M 6.79 10.841 L 7.027 10.841 L 7.027 10.923 L 6.842 10.923 L 6.79 10.841 L 6.79 10.841 Z  M 7.058 10.841 L 7.294 10.841 L 7.294 10.923 L 7.119 10.923 L 7.058 10.841 L 7.058 10.841 Z  M 3.541 11.005 L 3.778 11.005 L 3.778 11.088 L 3.603 11.088 L 3.541 11.005 L 3.541 11.005 Z  M 3.809 11.005 L 4.045 11.005 L 4.045 11.088 L 3.912 11.088 L 3.809 11.005 L 3.809 11.005 Z  M 4.076 11.005 L 4.313 11.005 L 4.313 11.088 L 4.138 11.088 L 4.076 11.005 L 4.076 11.005 Z  M 4.343 11.005 L 4.58 11.005 L 4.58 11.088 L 4.415 11.088 L 4.343 11.005 L 4.343 11.005 Z  M 4.611 11.005 L 4.94 11.005 L 4.94 11.088 L 4.683 11.088 L 4.611 11.005 L 4.611 11.005 Z  M 4.878 11.005 L 5.114 11.005 L 5.114 11.088 L 4.94 11.088 L 4.878 11.005 L 4.878 11.005 Z  M 5.145 11.005 L 5.454 11.005 L 5.454 11.088 L 5.228 11.088 L 5.145 11.005 L 5.145 11.005 Z  M 5.413 11.005 L 5.649 11.005 L 5.649 11.088 L 5.495 11.088 L 5.413 11.005 L 5.413 11.005 Z  M 5.68 11.005 L 5.968 11.005 L 5.968 11.088 L 5.762 11.088 L 5.68 11.005 L 5.68 11.005 Z  M 5.947 11.005 L 6.184 11.005 L 6.184 11.088 L 6.029 11.088 L 5.947 11.005 L 5.947 11.005 Z  M 6.215 11.005 L 6.451 11.005 L 6.451 11.088 L 6.307 11.088 L 6.215 11.005 L 6.215 11.005 Z  M 6.482 11.005 L 6.718 11.005 L 6.718 11.088 L 6.574 11.088 L 6.482 11.005 L 6.482 11.005 Z  M 6.749 11.005 L 6.986 11.005 L 6.986 11.088 L 6.842 11.088 L 6.749 11.005 L 6.749 11.005 Z  M 7.016 11.005 L 7.253 11.005 L 7.253 11.088 L 7.119 11.088 L 7.016 11.005 L 7.016 11.005 Z  M 3.5 11.242 L 3.737 11.242 L 3.737 11.324 L 3.603 11.324 L 3.5 11.242 L 3.5 11.242 Z  M 3.768 11.242 L 4.004 11.242 L 4.004 11.324 L 3.912 11.324 L 3.768 11.242 L 3.768 11.242 Z  M 4.035 11.242 L 4.271 11.242 L 4.271 11.324 L 4.138 11.324 L 4.035 11.242 L 4.035 11.242 Z  M 4.302 11.242 L 4.539 11.242 L 4.539 11.324 L 4.415 11.324 L 4.302 11.242 L 4.302 11.242 Z  M 4.57 11.242 L 4.94 11.242 L 4.94 11.324 L 4.683 11.324 L 4.57 11.242 L 4.57 11.242 Z  M 4.837 11.242 L 5.073 11.242 L 5.073 11.324 L 4.94 11.324 L 4.837 11.242 L 4.837 11.242 Z  M 5.104 11.242 L 5.454 11.242 L 5.454 11.324 L 5.228 11.324 L 5.104 11.242 L 5.104 11.242 Z  M 5.371 11.242 L 5.608 11.242 L 5.608 11.324 L 5.495 11.324 L 5.371 11.242 L 5.371 11.242 Z  M 5.639 11.242 L 5.968 11.242 L 5.968 11.324 L 5.762 11.324 L 5.639 11.242 L 5.639 11.242 Z  M 5.906 11.242 L 6.143 11.242 L 6.143 11.324 L 6.029 11.324 L 5.906 11.242 L 5.906 11.242 Z  M 6.173 11.242 L 6.41 11.242 L 6.41 11.324 L 6.307 11.324 L 6.173 11.242 L 6.173 11.242 Z  M 6.441 11.242 L 6.677 11.242 L 6.677 11.324 L 6.574 11.324 L 6.441 11.242 L 6.441 11.242 Z  M 6.708 11.242 L 6.945 11.242 L 6.945 11.324 L 6.842 11.324 L 6.708 11.242 L 6.708 11.242 Z  M 6.975 11.242 L 7.212 11.242 L 7.212 11.324 L 7.119 11.324 L 6.975 11.242 L 6.975 11.242 Z  M 3.603 11.396 L 3.84 11.396 L 3.84 11.478 L 3.603 11.478 L 3.603 11.396 L 3.603 11.396 Z  M 3.912 11.396 L 4.148 11.396 L 4.148 11.478 L 3.912 11.478 L 3.912 11.396 L 3.912 11.396 Z  M 4.179 11.396 L 4.415 11.396 L 4.415 11.478 L 4.138 11.478 L 4.179 11.396 L 4.179 11.396 Z  M 4.446 11.396 L 4.683 11.396 L 4.683 11.478 L 4.415 11.478 L 4.446 11.396 L 4.446 11.396 Z  M 4.713 11.396 L 4.94 11.396 L 4.94 11.478 L 4.683 11.478 L 4.713 11.396 L 4.713 11.396 Z  M 4.94 11.396 L 5.176 11.396 L 5.176 11.478 L 4.94 11.478 L 4.94 11.396 L 4.94 11.396 Z  M 5.207 11.396 L 5.454 11.396 L 5.454 11.478 L 5.228 11.478 L 5.207 11.396 L 5.207 11.396 Z  M 5.474 11.396 L 5.711 11.396 L 5.711 11.478 L 5.495 11.478 L 5.474 11.396 L 5.474 11.396 Z  M 5.742 11.396 L 5.968 11.396 L 5.968 11.478 L 5.762 11.478 L 5.742 11.396 L 5.742 11.396 Z  M 6.009 11.396 L 6.245 11.396 L 6.245 11.478 L 6.029 11.478 L 6.009 11.396 L 6.009 11.396 Z  M 6.276 11.396 L 6.513 11.396 L 6.513 11.478 L 6.307 11.478 L 6.276 11.396 L 6.276 11.396 Z  M 6.544 11.396 L 6.78 11.396 L 6.78 11.478 L 6.574 11.478 L 6.544 11.396 L 6.544 11.396 Z  M 6.811 11.396 L 7.047 11.396 L 7.047 11.478 L 6.842 11.478 L 6.811 11.396 L 6.811 11.396 Z  M 7.078 11.396 L 7.315 11.396 L 7.315 11.478 L 7.119 11.478 L 7.078 11.396 L 7.078 11.396 Z  M 3.562 11.561 L 3.798 11.561 L 3.798 11.643 L 3.603 11.643 L 3.562 11.561 L 3.562 11.561 Z  M 3.829 11.561 L 4.066 11.561 L 4.066 11.643 L 3.912 11.643 L 3.829 11.561 L 3.829 11.561 Z  M 4.097 11.561 L 4.333 11.561 L 4.333 11.643 L 4.138 11.643 L 4.097 11.561 L 4.097 11.561 Z  M 4.364 11.561 L 4.6 11.561 L 4.6 11.643 L 4.415 11.643 L 4.364 11.561 L 4.364 11.561 Z  M 4.631 11.561 L 4.94 11.561 L 4.94 11.643 L 4.683 11.643 L 4.631 11.561 L 4.631 11.561 Z  M 4.899 11.561 L 5.135 11.561 L 5.135 11.643 L 4.94 11.643 L 4.899 11.561 L 4.899 11.561 Z  M 5.166 11.561 L 5.454 11.561 L 5.454 11.643 L 5.228 11.643 L 5.166 11.561 L 5.166 11.561 Z  M 5.433 11.561 L 5.67 11.561 L 5.67 11.643 L 5.495 11.643 L 5.433 11.561 L 5.433 11.561 Z  M 5.7 11.561 L 5.968 11.561 L 5.968 11.643 L 5.762 11.643 L 5.7 11.561 L 5.7 11.561 Z  M 5.968 11.561 L 6.204 11.561 L 6.204 11.643 L 6.029 11.643 L 5.968 11.561 L 5.968 11.561 Z  M 6.235 11.561 L 6.472 11.561 L 6.472 11.643 L 6.307 11.643 L 6.235 11.561 L 6.235 11.561 Z  M 6.502 11.561 L 6.739 11.561 L 6.739 11.643 L 6.574 11.643 L 6.502 11.561 L 6.502 11.561 Z  M 6.77 11.561 L 7.006 11.561 L 7.006 11.643 L 6.842 11.643 L 6.77 11.561 L 6.77 11.561 Z  M 7.037 11.561 L 7.274 11.561 L 7.274 11.643 L 7.119 11.643 L 7.037 11.561 L 7.037 11.561 Z  M 3.521 11.828 L 3.757 11.828 L 3.757 11.91 L 3.603 11.91 L 3.521 11.828 L 3.521 11.828 Z  M 3.788 11.828 L 4.025 11.828 L 4.025 11.91 L 3.912 11.91 L 3.788 11.828 L 3.788 11.828 Z  M 4.055 11.828 L 4.292 11.828 L 4.292 11.91 L 4.138 11.91 L 4.055 11.828 L 4.055 11.828 Z  M 4.323 11.828 L 4.559 11.828 L 4.559 11.91 L 4.415 11.91 L 4.323 11.828 L 4.323 11.828 Z  M 4.59 11.828 L 4.94 11.828 L 4.94 11.91 L 4.683 11.91 L 4.59 11.828 L 4.59 11.828 Z  M 4.857 11.828 L 5.094 11.828 L 5.094 11.91 L 4.94 11.91 L 4.857 11.828 L 4.857 11.828 Z  M 5.125 11.828 L 5.454 11.828 L 5.454 11.91 L 5.228 11.91 L 5.125 11.828 L 5.125 11.828 Z  M 5.392 11.828 L 5.629 11.828 L 5.629 11.91 L 5.495 11.91 L 5.392 11.828 L 5.392 11.828 Z  M 5.659 11.828 L 5.968 11.828 L 5.968 11.91 L 5.762 11.91 L 5.659 11.828 L 5.659 11.828 Z  M 5.927 11.828 L 6.163 11.828 L 6.163 11.91 L 6.029 11.91 L 5.927 11.828 L 5.927 11.828 Z  M 6.194 11.828 L 6.43 11.828 L 6.43 11.91 L 6.307 11.91 L 6.194 11.828 L 6.194 11.828 Z  M 6.461 11.828 L 6.698 11.828 L 6.698 11.91 L 6.574 11.91 L 6.461 11.828 L 6.461 11.828 Z  M 6.729 11.828 L 6.965 11.828 L 6.965 11.91 L 6.842 11.91 L 6.729 11.828 L 6.729 11.828 Z  M 6.996 11.828 L 7.232 11.828 L 7.232 11.91 L 7.119 11.91 L 6.996 11.828 L 6.996 11.828 Z  M 3.48 11.992 L 3.716 11.992 L 3.716 12.075 L 3.603 12.075 L 3.48 11.992 L 3.48 11.992 Z  M 3.747 11.992 L 3.984 11.992 L 3.984 12.075 L 3.912 12.075 L 3.747 11.992 L 3.747 11.992 Z  M 4.014 11.992 L 4.251 11.992 L 4.251 12.075 L 4.138 12.075 L 4.014 11.992 L 4.014 11.992 Z  M 4.282 11.992 L 4.518 11.992 L 4.518 12.075 L 4.415 12.075 L 4.282 11.992 L 4.282 11.992 Z  M 4.549 11.992 L 4.94 11.992 L 4.94 12.075 L 4.683 12.075 L 4.549 11.992 L 4.549 11.992 Z  M 4.816 11.992 L 5.053 11.992 L 5.053 12.075 L 4.94 12.075 L 4.816 11.992 L 4.816 11.992 Z  M 5.084 11.992 L 5.454 11.992 L 5.454 12.075 L 5.228 12.075 L 5.084 11.992 L 5.084 11.992 Z  M 5.351 11.992 L 5.587 11.992 L 5.587 12.075 L 5.495 12.075 L 5.351 11.992 L 5.351 11.992 Z  M 5.618 11.992 L 5.968 11.992 L 5.968 12.075 L 5.762 12.075 L 5.618 11.992 L 5.618 11.992 Z  M 5.886 11.992 L 6.122 11.992 L 6.122 12.075 L 6.029 12.075 L 5.886 11.992 L 5.886 11.992 Z  M 6.153 11.992 L 6.389 11.992 L 6.389 12.075 L 6.307 12.075 L 6.153 11.992 L 6.153 11.992 Z  M 6.42 11.992 L 6.657 11.992 L 6.657 12.075 L 6.574 12.075 L 6.42 11.992 L 6.42 11.992 Z  M 6.687 11.992 L 6.924 11.992 L 6.924 12.075 L 6.842 12.075 L 6.687 11.992 L 6.687 11.992 Z  M 6.955 11.992 L 7.191 11.992 L 7.191 12.075 L 7.119 12.075 L 6.955 11.992 L 6.955 11.992 Z  M 3.439 12.157 L 3.675 12.157 L 3.675 12.239 L 3.603 12.239 L 3.439 12.157 L 3.439 12.157 Z  M 3.706 12.157 L 3.942 12.157 L 3.942 12.239 L 3.912 12.239 L 3.706 12.157 L 3.706 12.157 Z  M 3.973 12.157 L 4.21 12.157 L 4.21 12.239 L 4.138 12.239 L 3.973 12.157 L 3.973 12.157 Z  M 4.241 12.157 L 4.477 12.157 L 4.477 12.239 L 4.415 12.239 L 4.241 12.157 L 4.241 12.157 Z  M 4.508 12.157 L 4.94 12.157 L 4.94 12.239 L 4.683 12.239 L 4.508 12.157 L 4.508 12.157 Z  M 4.775 12.157 L 5.012 12.157 L 5.012 12.239 L 4.94 12.239 L 4.775 12.157 L 4.775 12.157 Z  M 5.042 12.157 L 5.454 12.157 L 5.454 12.239 L 5.228 12.239 L 5.042 12.157 L 5.042 12.157 Z  M 5.31 12.157 L 5.546 12.157 L 5.546 12.239 L 5.495 12.239 L 5.31 12.157 L 5.31 12.157 Z  M 5.577 12.157 L 5.968 12.157 L 5.968 12.239 L 5.762 12.239 L 5.577 12.157 L 5.577 12.157 Z  M 5.844 12.157 L 6.081 12.157 L 6.081 12.239 L 6.029 12.239 L 5.844 12.157 L 5.844 12.157 Z  M 6.112 12.157 L 6.348 12.157 L 6.348 12.239 L 6.307 12.239 L 6.112 12.157 L 6.112 12.157 Z  M 6.379 12.157 L 6.616 12.157 L 6.616 12.239 L 6.574 12.239 L 6.379 12.157 L 6.379 12.157 Z  M 6.646 12.157 L 6.883 12.157 L 6.883 12.239 L 6.842 12.239 L 6.646 12.157 L 6.646 12.157 Z  M 6.914 12.157 L 7.15 12.157 L 7.15 12.239 L 7.119 12.239 L 6.914 12.157 L 6.914 12.157 Z  M 3.603 12.424 L 3.84 12.424 L 3.84 12.506 L 3.603 12.506 L 3.603 12.424 L 3.603 12.424 Z  M 3.912 12.424 L 4.148 12.424 L 4.148 12.506 L 3.912 12.506 L 3.912 12.424 L 3.912 12.424 Z  M 4.179 12.424 L 4.415 12.424 L 4.415 12.506 L 4.138 12.506 L 4.179 12.424 L 4.179 12.424 Z  M 4.446 12.424 L 4.683 12.424 L 4.683 12.506 L 4.415 12.506 L 4.446 12.424 L 4.446 12.424 Z  M 4.713 12.424 L 4.94 12.424 L 4.94 12.506 L 4.683 12.506 L 4.713 12.424 L 4.713 12.424 Z  M 4.94 12.424 L 5.176 12.424 L 5.176 12.506 L 4.94 12.506 L 4.94 12.424 L 4.94 12.424 Z  M 5.207 12.424 L 5.454 12.424 L 5.454 12.506 L 5.228 12.506 L 5.207 12.424 L 5.207 12.424 Z  M 5.474 12.424 L 5.711 12.424 L 5.711 12.506 L 5.495 12.506 L 5.474 12.424 L 5.474 12.424 Z  M 5.742 12.424 L 5.968 12.424 L 5.968 12.506 L 5.762 12.506 L 5.742 12.424 L 5.742 12.424 Z  M 6.009 12.424 L 6.245 12.424 L 6.245 12.506 L 6.029 12.506 L 6.009 12.424 L 6.009 12.424 Z  M 6.276 12.424 L 6.513 12.424 L 6.513 12.506 L 6.307 12.506 L 6.276 12.424 L 6.276 12.424 Z  M 6.544 12.424 L 6.78 12.424 L 6.78 12.506 L 6.574 12.506 L 6.544 12.424 L 6.544 12.424 Z  M 6.811 12.424 L 7.047 12.424 L 7.047 12.506 L 6.842 12.506 L 6.811 12.424 L 6.811 12.424 Z  M 7.078 12.424 L 7.315 12.424 L 7.315 12.506 L 7.119 12.506 L 7.078 12.424 L 7.078 12.424 Z  M 3.562 12.589 L 3.798 12.589 L 3.798 12.671 L 3.603 12.671 L 3.562 12.589 L 3.562 12.589 Z  M 3.829 12.589 L 4.066 12.589 L 4.066 12.671 L 3.912 12.671 L 3.829 12.589 L 3.829 12.589 Z  M 4.097 12.589 L 4.333 12.589 L 4.333 12.671 L 4.138 12.671 L 4.097 12.589 L 4.097 12.589 Z  M 4.364 12.589 L 4.6 12.589 L 4.6 12.671 L 4.415 12.671 L 4.364 12.589 L 4.364 12.589 Z  M 4.631 12.589 L 4.94 12.589 L 4.94 12.671 L 4.683 12.671 L 4.631 12.589 L 4.631 12.589 Z  M 4.899 12.589 L 5.135 12.589 L 5.135 12.671 L 4.94 12.671 L 4.899 12.589 L 4.899 12.589 Z  M 5.166 12.589 L 5.454 12.589 L 5.454 12.671 L 5.228 12.671 L 5.166 12.589 L 5.166 12.589 Z  M 5.433 12.589 L 5.67 12.589 L 5.67 12.671 L 5.495 12.671 L 5.433 12.589 L 5.433 12.589 Z  M 5.7 12.589 L 5.968 12.589 L 5.968 12.671 L 5.762 12.671 L 5.7 12.589 L 5.7 12.589 Z  M 5.968 12.589 L 6.204 12.589 L 6.204 12.671 L 6.029 12.671 L 5.968 12.589 L 5.968 12.589 Z  M 6.235 12.589 L 6.472 12.589 L 6.472 12.671 L 6.307 12.671 L 6.235 12.589 L 6.235 12.589 Z  M 6.502 12.589 L 6.739 12.589 L 6.739 12.671 L 6.574 12.671 L 6.502 12.589 L 6.502 12.589 Z  M 6.77 12.589 L 7.006 12.589 L 7.006 12.671 L 6.842 12.671 L 6.77 12.589 L 6.77 12.589 Z  M 7.037 12.589 L 7.274 12.589 L 7.274 12.671 L 7.119 12.671 L 7.037 12.589 L 7.037 12.589 Z  M 3.603 12.733 L 3.84 12.733 L 3.84 12.815 L 3.603 12.815 L 3.603 12.733 L 3.603 12.733 Z  M 3.87 12.733 L 4.107 12.733 L 4.107 12.815 L 3.912 12.815 L 3.87 12.733 L 3.87 12.733 Z  M 4.138 12.733 L 4.374 12.733 L 4.374 12.815 L 4.138 12.815 L 4.138 12.733 L 4.138 12.733 Z  M 4.405 12.733 L 4.642 12.733 L 4.642 12.815 L 4.415 12.815 L 4.405 12.733 L 4.405 12.733 Z  M 4.672 12.733 L 4.94 12.733 L 4.94 12.815 L 4.683 12.815 L 4.672 12.733 L 4.672 12.733 Z  M 4.94 12.733 L 5.176 12.733 L 5.176 12.815 L 4.94 12.815 L 4.94 12.733 L 4.94 12.733 Z  M 5.207 12.733 L 5.454 12.733 L 5.454 12.815 L 5.228 12.815 L 5.207 12.733 L 5.207 12.733 Z  M 5.474 12.733 L 5.711 12.733 L 5.711 12.815 L 5.495 12.815 L 5.474 12.733 L 5.474 12.733 Z  M 5.742 12.733 L 5.968 12.733 L 5.968 12.815 L 5.762 12.815 L 5.742 12.733 L 5.742 12.733 Z  M 6.009 12.733 L 6.245 12.733 L 6.245 12.815 L 6.029 12.815 L 6.009 12.733 L 6.009 12.733 Z  M 6.276 12.733 L 6.513 12.733 L 6.513 12.815 L 6.307 12.815 L 6.276 12.733 L 6.276 12.733 Z  M 6.544 12.733 L 6.78 12.733 L 6.78 12.815 L 6.574 12.815 L 6.544 12.733 L 6.544 12.733 Z  M 6.811 12.733 L 7.047 12.733 L 7.047 12.815 L 6.842 12.815 L 6.811 12.733 L 6.811 12.733 Z  M 7.078 12.733 L 7.315 12.733 L 7.315 12.815 L 7.119 12.815 L 7.078 12.733 L 7.078 12.733 Z  M 3.562 12.99 L 3.798 12.99 L 3.798 13.072 L 3.603 13.072 L 3.562 12.99 L 3.562 12.99 Z  M 3.829 12.99 L 4.066 12.99 L 4.066 13.072 L 3.912 13.072 L 3.829 12.99 L 3.829 12.99 Z  M 4.097 12.99 L 4.333 12.99 L 4.333 13.072 L 4.138 13.072 L 4.097 12.99 L 4.097 12.99 Z  M 4.364 12.99 L 4.6 12.99 L 4.6 13.072 L 4.415 13.072 L 4.364 12.99 L 4.364 12.99 Z  M 4.631 12.99 L 4.94 12.99 L 4.94 13.072 L 4.683 13.072 L 4.631 12.99 L 4.631 12.99 Z  M 4.899 12.99 L 5.135 12.99 L 5.135 13.072 L 4.94 13.072 L 4.899 12.99 L 4.899 12.99 Z  M 5.166 12.99 L 5.454 12.99 L 5.454 13.072 L 5.228 13.072 L 5.166 12.99 L 5.166 12.99 Z  M 5.433 12.99 L 5.67 12.99 L 5.67 13.072 L 5.495 13.072 L 5.433 12.99 L 5.433 12.99 Z  M 5.7 12.99 L 5.968 12.99 L 5.968 13.072 L 5.762 13.072 L 5.7 12.99 L 5.7 12.99 Z  M 5.968 12.99 L 6.204 12.99 L 6.204 13.072 L 6.029 13.072 L 5.968 12.99 L 5.968 12.99 Z  M 6.235 12.99 L 6.472 12.99 L 6.472 13.072 L 6.307 13.072 L 6.235 12.99 L 6.235 12.99 Z  M 6.502 12.99 L 6.739 12.99 L 6.739 13.072 L 6.574 13.072 L 6.502 12.99 L 6.502 12.99 Z  M 6.77 12.99 L 7.006 12.99 L 7.006 13.072 L 6.842 13.072 L 6.77 12.99 L 6.77 12.99 Z  M 7.037 12.99 L 7.274 12.99 L 7.274 13.072 L 7.119 13.072 L 7.037 12.99 L 7.037 12.99 Z  M 3.521 13.154 L 3.757 13.154 L 3.757 13.236 L 3.603 13.236 L 3.521 13.154 L 3.521 13.154 Z  M 3.788 13.154 L 4.025 13.154 L 4.025 13.236 L 3.912 13.236 L 3.788 13.154 L 3.788 13.154 Z  M 4.055 13.154 L 4.292 13.154 L 4.292 13.236 L 4.138 13.236 L 4.055 13.154 L 4.055 13.154 Z  M 4.323 13.154 L 4.559 13.154 L 4.559 13.236 L 4.415 13.236 L 4.323 13.154 L 4.323 13.154 Z  M 4.59 13.154 L 4.94 13.154 L 4.94 13.236 L 4.683 13.236 L 4.59 13.154 L 4.59 13.154 Z  M 4.857 13.154 L 5.094 13.154 L 5.094 13.236 L 4.94 13.236 L 4.857 13.154 L 4.857 13.154 Z  M 5.125 13.154 L 5.454 13.154 L 5.454 13.236 L 5.228 13.236 L 5.125 13.154 L 5.125 13.154 Z  M 5.392 13.154 L 5.629 13.154 L 5.629 13.236 L 5.495 13.236 L 5.392 13.154 L 5.392 13.154 Z  M 5.659 13.154 L 5.968 13.154 L 5.968 13.236 L 5.762 13.236 L 5.659 13.154 L 5.659 13.154 Z  M 5.927 13.154 L 6.163 13.154 L 6.163 13.236 L 6.029 13.236 L 5.927 13.154 L 5.927 13.154 Z  M 6.194 13.154 L 6.43 13.154 L 6.43 13.236 L 6.307 13.236 L 6.194 13.154 L 6.194 13.154 Z  M 6.461 13.154 L 6.698 13.154 L 6.698 13.236 L 6.574 13.236 L 6.461 13.154 L 6.461 13.154 Z  M 6.729 13.154 L 6.965 13.154 L 6.965 13.236 L 6.842 13.236 L 6.729 13.154 L 6.729 13.154 Z  M 6.996 13.154 L 7.232 13.154 L 7.232 13.236 L 7.119 13.236 L 6.996 13.154 L 6.996 13.154 Z  M 3.48 13.319 L 3.716 13.319 L 3.716 13.452 L 3.603 13.452 L 3.48 13.319 L 3.48 13.319 Z  M 3.747 13.319 L 3.984 13.319 L 3.984 13.452 L 3.912 13.452 L 3.747 13.319 L 3.747 13.319 Z  M 4.014 13.319 L 4.251 13.319 L 4.251 13.452 L 4.138 13.452 L 4.014 13.319 L 4.014 13.319 Z  M 4.282 13.319 L 4.518 13.319 L 4.518 13.452 L 4.415 13.452 L 4.282 13.319 L 4.282 13.319 Z  M 4.549 13.319 L 4.94 13.319 L 4.94 13.452 L 4.683 13.452 L 4.549 13.319 L 4.549 13.319 Z  M 4.816 13.319 L 5.053 13.319 L 5.053 13.452 L 4.94 13.452 L 4.816 13.319 L 4.816 13.319 Z  M 5.084 13.319 L 5.454 13.319 L 5.454 13.452 L 5.228 13.452 L 5.084 13.319 L 5.084 13.319 Z  M 5.351 13.319 L 5.587 13.319 L 5.587 13.452 L 5.495 13.452 L 5.351 13.319 L 5.351 13.319 Z  M 5.618 13.319 L 5.968 13.319 L 5.968 13.452 L 5.762 13.452 L 5.618 13.319 L 5.618 13.319 Z  M 5.886 13.319 L 6.122 13.319 L 6.122 13.452 L 6.029 13.452 L 5.886 13.319 L 5.886 13.319 Z  M 6.153 13.319 L 6.389 13.319 L 6.389 13.452 L 6.307 13.452 L 6.153 13.319 L 6.153 13.319 Z  M 6.42 13.319 L 6.657 13.319 L 6.657 13.452 L 6.574 13.452 L 6.42 13.319 L 6.42 13.319 Z  M 6.687 13.319 L 6.924 13.319 L 6.924 13.452 L 6.842 13.452 L 6.687 13.319 L 6.687 13.319 Z  M 6.955 13.319 L 7.191 13.319 L 7.191 13.452 L 7.119 13.452 L 6.955 13.319 L 6.955 13.319 Z  M 3.439 13.555 L 3.675 13.555 L 3.675 13.637 L 3.603 13.637 L 3.439 13.555 L 3.439 13.555 Z  M 3.706 13.555 L 3.942 13.555 L 3.942 13.637 L 3.912 13.637 L 3.706 13.555 L 3.706 13.555 Z  M 3.973 13.555 L 4.21 13.555 L 4.21 13.637 L 4.138 13.637 L 3.973 13.555 L 3.973 13.555 Z  M 4.241 13.555 L 4.477 13.555 L 4.477 13.637 L 4.415 13.637 L 4.241 13.555 L 4.241 13.555 Z  M 4.508 13.555 L 4.94 13.555 L 4.94 13.637 L 4.683 13.637 L 4.508 13.555 L 4.508 13.555 Z  M 4.775 13.555 L 5.012 13.555 L 5.012 13.637 L 4.94 13.637 L 4.775 13.555 L 4.775 13.555 Z  M 5.042 13.555 L 5.454 13.555 L 5.454 13.637 L 5.228 13.637 L 5.042 13.555 L 5.042 13.555 Z  M 5.31 13.555 L 5.546 13.555 L 5.546 13.637 L 5.495 13.637 L 5.31 13.555 L 5.31 13.555 Z  M 5.577 13.555 L 5.968 13.555 L 5.968 13.637 L 5.762 13.637 L 5.577 13.555 L 5.577 13.555 Z  M 5.844 13.555 L 6.081 13.555 L 6.081 13.637 L 6.029 13.637 L 5.844 13.555 L 5.844 13.555 Z  M 6.112 13.555 L 6.348 13.555 L 6.348 13.637 L 6.307 13.637 L 6.112 13.555 L 6.112 13.555 Z  M 6.379 13.555 L 6.616 13.555 L 6.616 13.637 L 6.574 13.637 L 6.379 13.555 L 6.379 13.555 Z  M 6.646 13.555 L 6.883 13.555 L 6.883 13.637 L 6.842 13.637 L 6.646 13.555 L 6.646 13.555 Z  M 6.914 13.555 L 7.15 13.555 L 7.15 13.637 L 7.119 13.637 L 6.914 13.555 L 6.914 13.555 Z  M 3.397 13.72 L 3.634 13.72 L 3.634 13.802 L 3.603 13.802 L 3.397 13.72 L 3.397 13.72 Z  M 3.665 13.72 L 3.901 13.72 L 3.901 13.802 L 3.912 13.802 L 3.665 13.72 L 3.665 13.72 Z  M 3.932 13.72 L 4.169 13.72 L 4.169 13.802 L 4.138 13.802 L 3.932 13.72 L 3.932 13.72 Z  M 4.199 13.72 L 4.436 13.72 L 4.436 13.802 L 4.415 13.802 L 4.199 13.72 L 4.199 13.72 Z  M 4.467 13.72 L 4.94 13.72 L 4.94 13.802 L 4.683 13.802 L 4.467 13.72 L 4.467 13.72 Z  M 4.734 13.72 L 4.971 13.72 L 4.971 13.802 L 4.94 13.802 L 4.734 13.72 L 4.734 13.72 Z  M 5.001 13.72 L 5.454 13.72 L 5.454 13.802 L 5.228 13.802 L 5.001 13.72 L 5.001 13.72 Z  M 5.269 13.72 L 5.505 13.72 L 5.505 13.802 L 5.495 13.802 L 5.269 13.72 L 5.269 13.72 Z  M 5.536 13.72 L 5.968 13.72 L 5.968 13.802 L 5.762 13.802 L 5.536 13.72 L 5.536 13.72 Z  M 5.803 13.72 L 6.04 13.72 L 6.04 13.802 L 6.029 13.802 L 5.803 13.72 L 5.803 13.72 Z  M 6.071 13.72 L 6.307 13.72 L 6.307 13.802 L 6.307 13.802 L 6.071 13.72 L 6.071 13.72 Z  M 6.338 13.72 L 6.574 13.72 L 6.574 13.802 L 6.574 13.802 L 6.338 13.72 L 6.338 13.72 Z  M 6.605 13.72 L 6.842 13.72 L 6.842 13.802 L 6.842 13.802 L 6.605 13.72 L 6.605 13.72 Z  M 6.873 13.72 L 7.109 13.72 L 7.109 13.802 L 7.119 13.802 L 6.873 13.72 L 6.873 13.72 Z  M 3.356 13.884 L 3.593 13.884 L 3.593 13.966 L 3.603 13.966 L 3.356 13.884 L 3.356 13.884 Z  M 3.624 13.884 L 3.86 13.884 L 3.86 13.966 L 3.912 13.966 L 3.624 13.884 L 3.624 13.884 Z  M 3.891 13.884 L 4.127 13.884 L 4.127 13.966 L 4.138 13.966 L 3.891 13.884 L 3.891 13.884 Z  M 4.158 13.884 L 4.395 13.884 L 4.395 13.966 L 4.415 13.966 L 4.158 13.884 L 4.158 13.884 Z  M 4.426 13.884 L 4.94 13.884 L 4.94 13.966 L 4.683 13.966 L 4.426 13.884 L 4.426 13.884 Z  M 4.693 13.884 L 4.929 13.884 L 4.929 13.966 L 4.94 13.966 L 4.693 13.884 L 4.693 13.884 Z  M 4.96 13.884 L 5.454 13.884 L 5.454 13.966 L 5.228 13.966 L 4.96 13.884 L 4.96 13.884 Z  M 5.228 13.884 L 5.464 13.884 L 5.464 13.966 L 5.495 13.966 L 5.228 13.884 L 5.228 13.884 Z  M 5.495 13.884 L 5.968 13.884 L 5.968 13.966 L 5.762 13.966 L 5.495 13.884 L 5.495 13.884 Z  M 5.762 13.884 L 5.999 13.884 L 5.999 13.966 L 6.029 13.966 L 5.762 13.884 L 5.762 13.884 Z  M 6.029 13.884 L 6.266 13.884 L 6.266 13.966 L 6.307 13.966 L 6.029 13.884 L 6.029 13.884 Z  M 6.297 13.884 L 6.533 13.884 L 6.533 13.966 L 6.574 13.966 L 6.297 13.884 L 6.297 13.884 Z  M 6.564 13.884 L 6.801 13.884 L 6.801 13.966 L 6.842 13.966 L 6.564 13.884 L 6.564 13.884 Z  M 6.831 13.884 L 7.068 13.884 L 7.068 13.966 L 7.119 13.966 L 6.831 13.884 L 6.831 13.884 Z " fill-rule="evenodd" fill="rgb(38,38,38)"/><path d=" M 2.39 1.351 C 3.41 1.169 4.44 1.048 5.474 0.991 C 6.509 1.048 7.539 1.169 8.559 1.351 C 8.836 1.378 9.044 1.618 9.032 1.896 L 9.268 9.422 C 9.274 9.563 9.222 9.7 9.126 9.803 C 9.029 9.905 8.895 9.964 8.754 9.967 L 2.184 9.967 C 2.043 9.964 1.909 9.905 1.813 9.803 C 1.716 9.7 1.665 9.563 1.67 9.422 L 1.907 1.896 C 1.895 1.614 2.108 1.373 2.39 1.351 Z " fill="rgb(250,246,237)"/><path d=" M 2.123 6.091 L 8.836 6.091 C 8.978 6.096 9.112 6.158 9.208 6.262 C 9.305 6.366 9.356 6.504 9.35 6.646 L 9.35 9.474 C 9.356 9.615 9.305 9.754 9.208 9.858 C 9.112 9.962 8.978 10.023 8.836 10.029 L 2.123 10.029 C 1.981 10.023 1.847 9.962 1.75 9.858 C 1.654 9.754 1.603 9.615 1.609 9.474 L 1.609 6.646 C 1.603 6.504 1.654 6.366 1.75 6.262 C 1.847 6.158 1.981 6.096 2.123 6.091 Z " fill="rgb(169,174,178)"/><g><path d=" M 2.123 6.091 L 8.836 6.091 C 8.978 6.096 9.112 6.158 9.208 6.262 C 9.305 6.366 9.356 6.504 9.35 6.646 L 9.35 9.474 C 9.356 9.615 9.305 9.754 9.208 9.858 C 9.112 9.962 8.978 10.023 8.836 10.029 L 2.123 10.029 C 1.981 10.023 1.847 9.962 1.75 9.858 C 1.654 9.754 1.603 9.615 1.609 9.474 L 1.609 6.646 C 1.603 6.504 1.654 6.366 1.75 6.262 C 1.847 6.158 1.981 6.096 2.123 6.091 Z " fill="none" vector-effect="non-scaling-stroke" stroke-width="0.09" stroke="rgb(132,134,135)" stroke-opacity="100" stroke-linejoin="miter" stroke-linecap="square" stroke-miterlimit="3"/></g><path d=" M 3.397 2.143 L 2.452 2.143 C 1.979 2.143 1.598 2.287 1.588 2.451 L 1.352 6.06 C 1.352 6.235 2.297 6.369 2.77 6.369 L 3.397 2.143 L 3.397 2.143 Z " fill="rgb(250,246,237)"/><g><path d=" M 3.397 2.143 L 2.452 2.143 C 1.979 2.143 1.598 2.287 1.588 2.451 L 1.352 6.06 C 1.352 6.235 2.297 6.369 2.77 6.369 L 3.397 2.143 L 3.397 2.143 Z " fill="none" vector-effect="non-scaling-stroke" stroke-width="0.09" stroke="rgb(172,172,172)" stroke-opacity="100" stroke-linejoin="miter" stroke-linecap="butt" stroke-miterlimit="4"/></g><path d=" M 3.912 1.752 C 3.912 1.752 4.94 1.752 5.526 1.752 C 5.526 1.752 7.14 1.752 7.14 1.752 C 7.14 1.752 7.387 1.948 7.387 2.194 L 7.51 9.525 C 7.51 9.772 7.387 9.967 7.243 9.967 L 3.757 9.967 C 3.613 9.967 3.49 9.772 3.49 9.525 L 3.613 2.194 C 3.624 1.948 3.726 1.752 3.912 1.752 Z " fill="rgb(228,223,209)"/><path d=" M 7.561 2.143 L 8.487 2.143 C 8.949 2.143 9.33 2.287 9.34 2.451 L 9.566 6.081 C 9.566 6.255 8.631 6.389 8.168 6.389 L 7.561 2.143 L 7.561 2.143 Z " fill="rgb(250,246,237)"/><g><path d=" M 7.561 2.143 L 8.487 2.143 C 8.949 2.143 9.33 2.287 9.34 2.451 L 9.566 6.081 C 9.566 6.255 8.631 6.389 8.168 6.389 L 7.561 2.143 L 7.561 2.143 Z " fill="none" vector-effect="non-scaling-stroke" stroke-width="0.09" stroke="rgb(172,172,172)" stroke-opacity="100" stroke-linejoin="miter" stroke-linecap="butt" stroke-miterlimit="4"/></g><path d=" M 2.883 5.125 C 3.736 5.243 4.594 5.315 5.454 5.34 C 6.314 5.315 7.172 5.243 8.024 5.125 C 8.024 5.125 8.641 6.79 8.219 7.356 C 7.509 8.127 6.508 8.566 5.459 8.566 C 4.41 8.566 3.409 8.127 2.698 7.356 C 2.297 6.79 2.883 5.125 2.883 5.125 Z " fill="rgb(203,216,226)"/><g><path d=" M 2.883 5.125 C 3.736 5.243 4.594 5.315 5.454 5.34 C 6.314 5.315 7.172 5.243 8.024 5.125 C 8.024 5.125 8.641 6.79 8.219 7.356 C 7.509 8.127 6.508 8.566 5.459 8.566 C 4.41 8.566 3.409 8.127 2.698 7.356 C 2.297 6.79 2.883 5.125 2.883 5.125 Z " fill="none" vector-effect="non-scaling-stroke" stroke-width="0.09" stroke="rgb(58,58,58)" stroke-opacity="100" stroke-linejoin="miter" stroke-linecap="butt" stroke-miterlimit="4"/></g><path d=" M 3.706 1.639 L 7.243 1.639 C 7.243 1.639 7.181 1.341 7.078 1.31 C 6.036 1.075 4.954 1.075 3.912 1.31 C 3.768 1.341 3.706 1.639 3.706 1.639 Z " fill="rgb(169,174,178)"/><rect x="2.195" y="10.481" width="6.549" height="0.267" transform="matrix(1,0,0,1,0,0)" fill="rgb(58,58,58)"/><path d=" M 8.939 1.876 C 8.596 1.9 8.25 1.883 7.911 1.824 C 7.78 1.72 7.672 1.591 7.592 1.444 C 7.815 1.428 8.038 1.428 8.261 1.444 C 8.579 1.444 8.908 1.752 8.898 1.876 L 8.939 1.876 L 8.939 1.876 Z " fill="rgb(169,174,178)"/><path d=" M 8.816 1.835 C 8.546 1.867 8.273 1.867 8.003 1.835 C 7.898 1.75 7.811 1.645 7.746 1.526 C 7.928 1.513 8.11 1.513 8.291 1.526 C 8.548 1.526 8.816 1.773 8.805 1.886 L 8.816 1.835 L 8.816 1.835 Z " fill="rgb(97,97,97)"/><path d=" M 8.147 1.506 C 8.291 1.506 8.394 1.506 8.384 1.598 C 8.374 1.691 8.25 1.66 8.106 1.649 C 7.962 1.639 7.86 1.649 7.87 1.557 C 7.88 1.464 8.024 1.495 8.147 1.506 Z " fill="rgb(203,216,226)"/><path d=" M 8.507 1.68 C 8.61 1.68 8.692 1.68 8.682 1.752 C 8.672 1.824 8.579 1.752 8.476 1.752 C 8.374 1.752 8.291 1.752 8.302 1.68 C 8.312 1.608 8.404 1.67 8.507 1.68 Z " fill="rgb(223,128,44)"/><path d=" M 2.02 1.876 C 2.363 1.9 2.709 1.883 3.048 1.824 C 3.179 1.72 3.287 1.591 3.367 1.444 C 3.144 1.428 2.921 1.428 2.698 1.444 C 2.38 1.444 2.051 1.752 2.061 1.876 L 2.02 1.876 L 2.02 1.876 Z " fill="rgb(169,174,178)"/><path d=" M 2.143 1.835 C 2.413 1.867 2.686 1.867 2.955 1.835 C 3.06 1.75 3.148 1.645 3.212 1.526 C 3.031 1.513 2.849 1.513 2.668 1.526 C 2.41 1.526 2.143 1.773 2.153 1.886 L 2.143 1.835 L 2.143 1.835 Z " fill="rgb(97,97,97)"/><path d=" M 2.801 1.506 C 2.657 1.506 2.554 1.506 2.565 1.598 C 2.575 1.691 2.698 1.66 2.842 1.649 C 2.986 1.639 3.089 1.649 3.079 1.557 C 3.068 1.464 2.945 1.495 2.801 1.506 Z " fill="rgb(203,216,226)"/><path d=" M 2.441 1.68 C 2.339 1.68 2.256 1.68 2.267 1.752 C 2.277 1.824 2.369 1.752 2.472 1.752 C 2.575 1.752 2.657 1.752 2.647 1.68 C 2.637 1.608 2.554 1.67 2.441 1.68 Z " fill="rgb(223,128,44)"/><path d=" M 5.279 1.177 L 5.197 1.177 L 5.197 1.588 L 5.279 1.588 L 5.279 1.177 L 5.279 1.177 Z " fill="rgb(58,58,58)"/><path d=" M 4.837 1.197 L 4.755 1.197 L 4.755 1.588 L 4.837 1.588 L 4.837 1.197 L 4.837 1.197 Z " fill="rgb(58,58,58)"/><path d=" M 5.731 1.177 L 5.649 1.177 L 5.649 1.588 L 5.731 1.588 L 5.731 1.177 L 5.731 1.177 Z " fill="rgb(58,58,58)"/><path d=" M 5.968 1.197 L 5.865 1.197 L 5.865 1.588 L 5.968 1.588 L 5.968 1.197 L 5.968 1.197 Z " fill="rgb(58,58,58)"/><path d=" M 5.053 1.187 L 4.94 1.187 L 4.94 1.577 L 5.022 1.577 L 5.053 1.187 L 5.053 1.187 Z " fill="rgb(58,58,58)"/><path d=" M 6.626 1.228 L 6.544 1.228 L 6.544 1.598 L 6.626 1.598 L 6.626 1.228 L 6.626 1.228 Z " fill="rgb(58,58,58)"/><path d=" M 6.173 1.207 L 6.091 1.207 L 6.091 1.588 L 6.173 1.588 L 6.173 1.207 L 6.173 1.207 Z " fill="rgb(58,58,58)"/><path d=" M 6.4 1.218 L 6.317 1.218 L 6.317 1.598 L 6.4 1.598 L 6.4 1.218 L 6.4 1.218 Z " fill="rgb(58,58,58)"/><path d=" M 6.842 1.279 L 6.759 1.279 L 6.759 1.598 L 6.842 1.598 L 6.842 1.279 L 6.842 1.279 Z " fill="rgb(58,58,58)"/><path d=" M 3.912 1.341 L 3.86 1.341 L 3.86 1.598 L 3.912 1.598 L 3.912 1.341 L 3.912 1.341 Z " fill="rgb(58,58,58)"/><path d=" M 4.384 1.218 L 4.302 1.218 L 4.302 1.588 L 4.384 1.588 L 4.384 1.218 L 4.384 1.218 Z " fill="rgb(58,58,58)"/><path d=" M 4.611 1.207 L 4.528 1.207 L 4.528 1.588 L 4.611 1.588 L 4.611 1.207 L 4.611 1.207 Z " fill="rgb(58,58,58)"/><path d=" M 4.158 1.279 L 4.076 1.279 L 4.076 1.598 L 4.158 1.598 L 4.158 1.279 L 4.158 1.279 Z " fill="rgb(58,58,58)"/><path d=" M 5.505 1.588 L 5.505 1.177 L 5.413 1.177 L 5.413 1.598 L 5.505 1.588 L 5.505 1.588 Z " fill="rgb(58,58,58)"/><path d=" M 7.068 1.351 L 6.996 1.351 L 6.996 1.619 L 7.078 1.619 L 7.068 1.351 L 7.068 1.351 Z " fill="rgb(58,58,58)"/><path d=" M 3.233 6.41 L 7.726 6.41 C 7.933 6.418 8.129 6.508 8.27 6.66 C 8.41 6.813 8.485 7.015 8.476 7.222 L 8.476 9.216 C 8.485 9.424 8.41 9.626 8.27 9.778 C 8.129 9.931 7.933 10.021 7.726 10.029 L 3.233 10.029 C 3.026 10.021 2.83 9.931 2.689 9.778 C 2.549 9.626 2.474 9.424 2.482 9.216 L 2.482 7.222 C 2.474 7.015 2.549 6.813 2.689 6.66 C 2.83 6.508 3.026 6.418 3.233 6.41 Z " fill="rgb(250,246,237)"/><g><path d=" M 3.233 6.41 L 7.726 6.41 C 7.933 6.418 8.129 6.508 8.27 6.66 C 8.41 6.813 8.485 7.015 8.476 7.222 L 8.476 9.216 C 8.485 9.424 8.41 9.626 8.27 9.778 C 8.129 9.931 7.933 10.021 7.726 10.029 L 3.233 10.029 C 3.026 10.021 2.83 9.931 2.689 9.778 C 2.549 9.626 2.474 9.424 2.482 9.216 L 2.482 7.222 C 2.474 7.015 2.549 6.813 2.689 6.66 C 2.83 6.508 3.026 6.418 3.233 6.41 Z " fill="none" vector-effect="non-scaling-stroke" stroke-width="0.09" stroke="rgb(172,172,172)" stroke-opacity="100" stroke-linejoin="miter" stroke-linecap="butt" stroke-miterlimit="4"/></g><path d=" M 1.209 23.335 L 9.691 23.335 C 9.696 23.335 9.7 23.34 9.7 23.346 L 9.7 24.753 C 9.7 24.759 9.696 24.764 9.691 24.764 L 1.209 24.764 C 1.204 24.764 1.2 24.759 1.2 24.753 L 1.2 23.346 C 1.2 23.34 1.204 23.335 1.209 23.335 Z " fill="rgb(169,174,178)" vector-effect="non-scaling-stroke" stroke-width="0.1" stroke="rgb(132,134,135)" stroke-linejoin="miter" stroke-linecap="butt" stroke-miterlimit="4"/><g><path d=" M -26.326 23.335 L -16.569 23.335 C -16.564 23.335 -16.559 23.34 -16.559 23.346 L -16.559 24.753 C -16.559 24.759 -16.564 24.764 -16.569 24.764 L -26.326 24.764 C -26.331 24.764 -26.336 24.759 -26.336 24.753 L -26.336 23.346 C -26.336 23.34 -26.331 23.335 -26.326 23.335 Z " fill="none" vector-effect="non-scaling-stroke" stroke-width="0.09" stroke="rgb(132,134,135)" stroke-opacity="100" stroke-linejoin="miter" stroke-linecap="square" stroke-miterlimit="3"/></g><path d=" M 3.079 6.831 C 3.079 6.893 3.079 7.099 2.976 7.099 C 2.873 7.099 2.883 6.893 2.883 6.831 C 2.883 6.772 2.932 6.723 2.991 6.723 C 3.051 6.723 3.099 6.772 3.099 6.831 L 3.079 6.831 L 3.079 6.831 Z " fill="rgb(223,128,44)"/><path d=" M 8.024 6.831 C 8.024 6.893 8.024 7.099 7.921 7.099 C 7.818 7.099 7.818 6.893 7.818 6.831 C 7.818 6.772 7.867 6.723 7.926 6.723 C 7.986 6.723 8.034 6.772 8.034 6.831 L 8.024 6.831 L 8.024 6.831 Z " fill="rgb(223,128,44)"/><path d=" M 6.657 6.831 C 6.657 6.893 6.657 7.099 6.554 7.099 C 6.451 7.099 6.451 6.893 6.451 6.831 C 6.451 6.772 6.499 6.723 6.559 6.723 C 6.619 6.723 6.667 6.772 6.667 6.831 L 6.657 6.831 L 6.657 6.831 Z " fill="rgb(223,128,44)"/><path d=" M 5.968 6.831 C 5.968 6.893 5.968 7.099 5.865 7.099 C 5.762 7.099 5.762 6.893 5.762 6.831 C 5.762 6.772 5.811 6.723 5.87 6.723 C 5.93 6.723 5.978 6.772 5.978 6.831 L 5.968 6.831 L 5.968 6.831 Z " fill="rgb(223,128,44)"/><path d=" M 5.228 6.831 C 5.228 6.893 5.228 7.099 5.125 7.099 C 5.022 7.099 5.022 6.893 5.022 6.831 C 5.022 6.772 5.07 6.723 5.13 6.723 C 5.189 6.723 5.238 6.772 5.238 6.831 L 5.228 6.831 L 5.228 6.831 Z " fill="rgb(223,128,44)"/><path d=" M 4.518 6.831 C 4.518 6.893 4.518 7.099 4.415 7.099 C 4.313 7.099 4.313 6.893 4.313 6.831 C 4.313 6.772 4.361 6.723 4.42 6.723 C 4.48 6.723 4.528 6.772 4.528 6.831 L 4.518 6.831 L 4.518 6.831 Z " fill="rgb(223,128,44)"/><rect x="1.567" y="8.898" width="0.823" height="0.308" transform="matrix(1,0,0,1,0,0)" fill="rgb(169,174,178)"/><g><rect x="1.567" y="8.898" width="0.823" height="0.308" transform="matrix(1,0,0,1,0,0)" fill="none" vector-effect="non-scaling-stroke" stroke-width="0.09" stroke="rgb(132,134,135)" stroke-opacity="100" stroke-linejoin="miter" stroke-linecap="square" stroke-miterlimit="2"/></g><rect x="1.567" y="7.191" width="0.823" height="0.308" transform="matrix(1,0,0,1,0,0)" fill="rgb(169,174,178)"/><g><rect x="1.567" y="7.191" width="0.823" height="0.308" transform="matrix(1,0,0,1,0,0)" fill="none" vector-effect="non-scaling-stroke" stroke-width="0.09" stroke="rgb(132,134,135)" stroke-opacity="100" stroke-linejoin="miter" stroke-linecap="square" stroke-miterlimit="2"/></g><rect x="8.764" y="10.491" width="0.833" height="13.664" transform="matrix(1,0,0,1,0,0)" fill="rgb(169,174,178)"/><g><rect x="8.764" y="10.491" width="0.833" height="13.664" transform="matrix(1,0,0,1,0,0)" fill="none" vector-effect="non-scaling-stroke" stroke-width="0.09" stroke="rgb(132,134,135)" stroke-opacity="100" stroke-linejoin="miter" stroke-linecap="square" stroke-miterlimit="2"/></g><rect x="1.352" y="10.481" width="0.833" height="13.664" transform="matrix(1,0,0,1,0,0)" fill="rgb(169,174,178)"/><g><rect x="1.352" y="10.481" width="0.833" height="13.664" transform="matrix(1,0,0,1,0,0)" fill="none" vector-effect="non-scaling-stroke" stroke-width="0.09" stroke="rgb(132,134,135)" stroke-opacity="100" stroke-linejoin="miter" stroke-linecap="square" stroke-miterlimit="2"/></g><path d=" M 9.258 10.79 C 6.799 10.109 4.201 10.109 1.742 10.79 C 1.738 10.844 1.738 10.899 1.742 10.954 L 1.742 23.795 C 1.738 23.85 1.738 23.905 1.742 23.96 C 4.201 24.64 6.799 24.64 9.258 23.96 C 9.262 23.905 9.262 23.85 9.258 23.795 L 9.258 10.954 C 9.262 10.899 9.262 10.844 9.258 10.79 Z " fill="rgb(169,174,178)"/><g><path d=" M 9.258 10.79 C 6.799 10.109 4.201 10.109 1.742 10.79 C 1.738 10.844 1.738 10.899 1.742 10.954 L 1.742 23.795 C 1.738 23.85 1.738 23.905 1.742 23.96 C 4.201 24.64 6.799 24.64 9.258 23.96 C 9.262 23.905 9.262 23.85 9.258 23.795 L 9.258 10.954 C 9.262 10.899 9.262 10.844 9.258 10.79 Z " fill="none" vector-effect="non-scaling-stroke" stroke-width="0.09" stroke="rgb(132,134,135)" stroke-opacity="100" stroke-linejoin="miter" stroke-linecap="square" stroke-miterlimit="3"/></g><linearGradient id="_lgradient_0" x1="0" y1="0.5" x2="1" y2="0.5" gradientTransform="matrix(7.588,0,0,13.088,1.691,10.8)" gradientUnits="userSpaceOnUse"><stop offset="0%" stop-opacity="1" style="stop-color:rgb(119,128,133)"/><stop offset="27.20132317582666%" stop-opacity="1" style="stop-color:rgb(169,174,178)"/><stop offset="73.10527443667884%" stop-opacity="1" style="stop-color:rgb(169,174,178)"/><stop offset="100%" stop-opacity="1" style="stop-color:rgb(119,127,133)"/></linearGradient><rect x="1.691" y="10.8" width="7.588" height="13.088" transform="matrix(1,0,0,1,0,0)" fill="url(#_lgradient_0)"/><g><rect x="1.691" y="10.8" width="7.588" height="13.088" transform="matrix(1,0,0,1,0,0)" fill="none" vector-effect="non-scaling-stroke" stroke-width="0.09" stroke="rgb(132,134,135)" stroke-opacity="100" stroke-linejoin="miter" stroke-linecap="square" stroke-miterlimit="2"/></g><rect x="3.922" y="10.779" width="3.167" height="13.088" transform="matrix(1,0,0,1,0,0)" fill="rgb(169,174,178)"/><g><rect x="3.922" y="10.779" width="3.167" height="13.088" transform="matrix(1,0,0,1,0,0)" fill="none" vector-effect="non-scaling-stroke" stroke-width="0.09" stroke="rgb(132,134,135)" stroke-opacity="100" stroke-linejoin="miter" stroke-linecap="square" stroke-miterlimit="2"/></g><rect x="4.405" y="10.779" width="2.19" height="13.088" transform="matrix(1,0,0,1,0,0)" fill="rgb(169,174,178)"/><g><rect x="4.405" y="10.779" width="2.19" height="13.088" transform="matrix(1,0,0,1,0,0)" fill="none" vector-effect="non-scaling-stroke" stroke-width="0.09" stroke="rgb(132,134,135)" stroke-opacity="100" stroke-linejoin="miter" stroke-linecap="square" stroke-miterlimit="2"/></g><path d=" M 4.672 16.845 C 4.672 16.386 5.046 16.012 5.505 16.012 C 5.965 16.012 6.338 16.386 6.338 16.845 C 6.338 17.305 5.965 17.678 5.505 17.678 C 5.046 17.678 4.672 17.305 4.672 16.845 Z " fill="rgb(78,82,88)"/><g><path d=" M 4.672 16.845 C 4.672 16.386 5.046 16.012 5.505 16.012 C 5.965 16.012 6.338 16.386 6.338 16.845 C 6.338 17.305 5.965 17.678 5.505 17.678 C 5.046 17.678 4.672 17.305 4.672 16.845 Z " fill="none" vector-effect="non-scaling-stroke" stroke-width="0.09" stroke="rgb(132,134,135)" stroke-opacity="100" stroke-linejoin="miter" stroke-linecap="square" stroke-miterlimit="3"/></g><rect x="4.662" y="13.072" width="1.686" height="2.683" transform="matrix(1,0,0,1,0,0)" fill="rgb(135,139,141)"/><g><rect x="4.662" y="13.072" width="1.686" height="2.683" transform="matrix(1,0,0,1,0,0)" fill="none" vector-effect="non-scaling-stroke" stroke-width="0.09" stroke="rgb(132,134,135)" stroke-opacity="100" stroke-linejoin="miter" stroke-linecap="square" stroke-miterlimit="2"/></g><rect x="4.662" y="11.026" width="1.686" height="1.799" transform="matrix(1,0,0,1,0,0)" fill="rgb(135,139,141)"/><g><rect x="4.662" y="11.026" width="1.686" height="1.799" transform="matrix(1,0,0,1,0,0)" fill="none" vector-effect="non-scaling-stroke" stroke-width="0.09" stroke="rgb(132,134,135)" stroke-opacity="100" stroke-linejoin="miter" stroke-linecap="square" stroke-miterlimit="2"/></g><rect x="4.662" y="17.904" width="1.686" height="2.683" transform="matrix(1,0,0,1,0,0)" fill="rgb(135,139,141)"/><g><rect x="4.662" y="17.904" width="1.686" height="2.683" transform="matrix(1,0,0,1,0,0)" fill="none" vector-effect="non-scaling-stroke" stroke-width="0.09" stroke="rgb(132,134,135)" stroke-opacity="100" stroke-linejoin="miter" stroke-linecap="square" stroke-miterlimit="2"/></g><rect x="4.662" y="20.824" width="1.686" height="2.683" transform="matrix(1,0,0,1,0,0)" fill="rgb(135,139,141)"/><g><rect x="4.662" y="20.824" width="1.686" height="2.683" transform="matrix(1,0,0,1,0,0)" fill="none" vector-effect="non-scaling-stroke" stroke-width="0.09" stroke="rgb(132,134,135)" stroke-opacity="100" stroke-linejoin="miter" stroke-linecap="square" stroke-miterlimit="2"/></g><path d=" M 8.415 10.008 C 8.415 9.673 8.71 9.402 9.073 9.402 C 9.436 9.402 9.731 9.673 9.731 10.008 C 9.731 10.343 9.436 10.615 9.073 10.615 C 8.71 10.615 8.415 10.343 8.415 10.008 Z " fill="rgb(169,174,178)"/><g><path d=" M 8.415 10.008 C 8.415 9.673 8.71 9.402 9.073 9.402 C 9.436 9.402 9.731 9.673 9.731 10.008 C 9.731 10.343 9.436 10.615 9.073 10.615 C 8.71 10.615 8.415 10.343 8.415 10.008 Z " fill="none" vector-effect="non-scaling-stroke" stroke-width="0.09" stroke="rgb(132,134,135)" stroke-opacity="100" stroke-linejoin="miter" stroke-linecap="square" stroke-miterlimit="3"/></g><rect x="8.569" y="7.191" width="0.812" height="0.308" transform="matrix(1,0,0,1,0,0)" fill="rgb(169,174,178)"/><g><rect x="8.569" y="7.191" width="0.812" height="0.308" transform="matrix(1,0,0,1,0,0)" fill="none" vector-effect="non-scaling-stroke" stroke-width="0.09" stroke="rgb(132,134,135)" stroke-opacity="100" stroke-linejoin="miter" stroke-linecap="square" stroke-miterlimit="2"/></g><rect x="8.569" y="8.898" width="0.812" height="0.308" transform="matrix(1,0,0,1,0,0)" fill="rgb(169,174,178)"/><g><rect x="8.569" y="8.898" width="0.812" height="0.308" transform="matrix(1,0,0,1,0,0)" fill="none" vector-effect="non-scaling-stroke" stroke-width="0.09" stroke="rgb(132,134,135)" stroke-opacity="100" stroke-linejoin="miter" stroke-linecap="square" stroke-miterlimit="2"/></g><rect x="4.014" y="23.867" width="0.298" height="1.624" transform="matrix(1,0,0,1,0,0)" fill="rgb(169,174,178)"/><g><rect x="4.014" y="23.867" width="0.298" height="1.624" transform="matrix(1,0,0,1,0,0)" fill="none" vector-effect="non-scaling-stroke" stroke-width="0.09" stroke="rgb(132,134,135)" stroke-opacity="100" stroke-linejoin="miter" stroke-linecap="square" stroke-miterlimit="2"/></g><rect x="6.698" y="23.867" width="0.298" height="1.624" transform="matrix(1,0,0,1,0,0)" fill="rgb(169,174,178)"/><g><rect x="6.698" y="23.867" width="0.298" height="1.624" transform="matrix(1,0,0,1,0,0)" fill="none" vector-effect="non-scaling-stroke" stroke-width="0.09" stroke="rgb(132,134,135)" stroke-opacity="100" stroke-linejoin="miter" stroke-linecap="square" stroke-miterlimit="2"/></g><rect x="5.351" y="24.032" width="0.298" height="2.375" transform="matrix(0,-1,1,0,-19.719,30.719)" fill="rgb(169,174,178)"/><g><rect x="5.351" y="24.032" width="0.298" height="2.375" transform="matrix(0,-1,1,0,-19.719,30.719)" fill="none" vector-effect="non-scaling-stroke" stroke-width="0.09" stroke="rgb(132,134,135)" stroke-opacity="100" stroke-linejoin="miter" stroke-linecap="square" stroke-miterlimit="2"/></g><rect x="5.361" y="23.189" width="0.298" height="2.375" transform="matrix(0,-1,1,0,-18.866,29.887)" fill="rgb(169,174,178)"/><g><rect x="5.361" y="23.189" width="0.298" height="2.375" transform="matrix(0,-1,1,0,-18.866,29.887)" fill="none" vector-effect="non-scaling-stroke" stroke-width="0.09" stroke="rgb(132,134,135)" stroke-opacity="100" stroke-linejoin="miter" stroke-linecap="square" stroke-miterlimit="2"/></g></g></g></g></svg>