<?xml version="1.0" standalone="no"?><!-- Generator: Gravit.io --><svg xmlns="http://www.w3.org/2000/svg" xmlns:xlink="http://www.w3.org/1999/xlink" style="isolation:isolate" viewBox="0 0 13.098 33.063" width="13.098px" height="33.063px"><defs><clipPath id="_clipPath_5uG6q4avuJ89fIB8llNZcKwL6oLmrCDy"><rect width="13.098" height="33.063"/></clipPath></defs><g clip-path="url(#_clipPath_5uG6q4avuJ89fIB8llNZcKwL6oLmrCDy)"><mask id="_mask_WWLQLn0GuWmBrIY8f49sX2zktqwIb3Mu" x="-200%" y="-200%" width="400%" height="400%"><rect x="-200%" y="-200%" width="400%" height="400%" style="fill:white;"/><path d=" M 6.55 31.823 C 6.55 31.823 3.554 31.823 3.26 31.823 C 2.809 31.823 2.657 31.624 2.657 31.624 C 2.657 31.624 2.395 31.435 2.395 31.005 C 2.395 30.62 2.395 7.885 2.395 3.062 C 2.395 2.689 2.395 2.181 2.395 2.181 L 2.444 2.181 C 2.444 2.181 2.438 1.803 2.659 1.559 C 2.931 1.288 3.105 1.272 3.105 1.272 L 6.55 1.272 L 9.995 1.272 C 9.995 1.272 10.17 1.288 10.441 1.559 C 10.661 1.803 10.656 2.181 10.656 2.181 L 10.706 2.181 C 10.706 2.181 10.706 2.689 10.706 3.062 C 10.706 7.885 10.706 30.62 10.706 31.005 C 10.706 31.435 10.444 31.624 10.444 31.624 C 10.444 31.624 10.292 31.823 9.84 31.823 C 9.547 31.823 6.55 31.823 6.55 31.823 L 6.55 31.823 Z " fill="black" stroke="none"/></mask><path d=" M 6.55 31.823 C 6.55 31.823 3.554 31.823 3.26 31.823 C 2.809 31.823 2.657 31.624 2.657 31.624 C 2.657 31.624 2.395 31.435 2.395 31.005 C 2.395 30.62 2.395 7.885 2.395 3.062 C 2.395 2.689 2.395 2.181 2.395 2.181 L 2.444 2.181 C 2.444 2.181 2.438 1.803 2.659 1.559 C 2.931 1.288 3.105 1.272 3.105 1.272 L 6.55 1.272 L 9.995 1.272 C 9.995 1.272 10.17 1.288 10.441 1.559 C 10.661 1.803 10.656 2.181 10.656 2.181 L 10.706 2.181 C 10.706 2.181 10.706 2.689 10.706 3.062 C 10.706 7.885 10.706 30.62 10.706 31.005 C 10.706 31.435 10.444 31.624 10.444 31.624 C 10.444 31.624 10.292 31.823 9.84 31.823 C 9.547 31.823 6.55 31.823 6.55 31.823 L 6.55 31.823 Z " fill="rgb(125,125,125)" mask="url(#_mask_WWLQLn0GuWmBrIY8f49sX2zktqwIb3Mu)" vector-effect="non-scaling-stroke" stroke-width="0.063" stroke="rgb(0,0,0)" stroke-linejoin="miter" stroke-linecap="butt" stroke-miterlimit="10"/><path d=" M 6.55 31.823 C 6.55 31.823 3.554 31.823 3.26 31.823 C 2.809 31.823 2.657 31.624 2.657 31.624 C 2.657 31.624 2.395 31.435 2.395 31.005 C 2.395 30.62 2.395 7.885 2.395 3.062 C 2.395 2.689 2.395 2.181 2.395 2.181 L 2.444 2.181 C 2.444 2.181 2.438 1.803 2.659 1.559 C 2.931 1.288 3.105 1.272 3.105 1.272 L 6.55 1.272 L 9.995 1.272 C 9.995 1.272 10.17 1.288 10.441 1.559 C 10.661 1.803 10.656 2.181 10.656 2.181 L 10.706 2.181 C 10.706 2.181 10.706 2.689 10.706 3.062 C 10.706 7.885 10.706 30.62 10.706 31.005 C 10.706 31.435 10.444 31.624 10.444 31.624 C 10.444 31.624 10.292 31.823 9.84 31.823 C 9.547 31.823 6.55 31.823 6.55 31.823 L 6.55 31.823 Z " fill="rgb(125,125,125)"/><rect x="2.395" y="4.293" width="8.308" height="26.832" transform="matrix(1,0,0,1,0,0)" fill="rgb(255,251,138)" vector-effect="non-scaling-stroke" stroke-width="0.031" stroke="rgb(0,0,0)" stroke-linejoin="miter" stroke-linecap="butt" stroke-miterlimit="2"/><mask id="_mask_akTDzyGOT0xhINHfcoiziQy7CSrt8rR3" x="-200%" y="-200%" width="400%" height="400%"><rect x="-200%" y="-200%" width="400%" height="400%" style="fill:white;"/><path d=" M 6.549 4.301 L 10.542 4.301 L 10.542 13.009 L 6.549 13.009 L 2.555 13.009 L 2.555 4.301 L 6.549 4.301 Z " fill="black" stroke="none"/></mask><path d=" M 6.549 4.301 L 10.542 4.301 L 10.542 13.009 L 6.549 13.009 L 2.555 13.009 L 2.555 4.301 L 6.549 4.301 Z " fill="none" mask="url(#_mask_akTDzyGOT0xhINHfcoiziQy7CSrt8rR3)" vector-effect="non-scaling-stroke" stroke-width="0.063" stroke="rgb(0,0,0)" stroke-linejoin="miter" stroke-linecap="butt" stroke-miterlimit="10"/><path d=" M 6.549 4.301 L 10.542 4.301 L 10.542 13.009 L 6.549 13.009 L 2.555 13.009 L 2.555 4.301 L 6.549 4.301 Z " fill="none"/><rect x="10.702" y="30.129" width="0.121" height="0.876" transform="matrix(1,0,0,1,0,0)" fill="rgb(255,0,0)" vector-effect="non-scaling-stroke" stroke-width="0.031" stroke="rgb(0,0,0)" stroke-linejoin="miter" stroke-linecap="butt" stroke-miterlimit="2"/><rect x="8.562" y="31.135" width="0.863" height="0.152" transform="matrix(1,0,0,1,0,0)" fill="rgb(255,0,0)" vector-effect="non-scaling-stroke" stroke-width="0.031" stroke="rgb(0,0,0)" stroke-linejoin="miter" stroke-linecap="butt" stroke-miterlimit="2"/><rect x="10.542" y="2.181" width="0.173" height="0.881" transform="matrix(1,0,0,1,0,0)" fill="rgb(255,0,0)" vector-effect="non-scaling-stroke" stroke-width="0.031" stroke="rgb(0,0,0)" stroke-linejoin="miter" stroke-linecap="butt" stroke-miterlimit="2"/><rect x="8.582" y="2.315" width="0.873" height="0.157" transform="matrix(1,0,0,1,0,0)" fill="rgb(255,0,0)" vector-effect="non-scaling-stroke" stroke-width="0.031" stroke="rgb(0,0,0)" stroke-linejoin="miter" stroke-linecap="butt" stroke-miterlimit="2"/><rect x="7.675" y="1.052" width="1.161" height="0.22" transform="matrix(1,0,0,1,0,0)" fill="rgb(214,212,214)" vector-effect="non-scaling-stroke" stroke-width="0.031" stroke="rgb(0,0,0)" stroke-linejoin="miter" stroke-linecap="butt" stroke-miterlimit="2"/><mask id="_mask_lqvsYFNl3fmqfkw63DTIJEiyVMNVrlcU" x="-200%" y="-200%" width="400%" height="400%"><rect x="-200%" y="-200%" width="400%" height="400%" style="fill:white;"/><path d=" M 6.55 32.046 L 7.084 32.046 L 7.084 31.823 L 6.55 31.823 L 6.017 31.823 L 6.017 32.046 L 6.55 32.046 Z " fill="black" stroke="none"/></mask><path d=" M 6.55 32.046 L 7.084 32.046 L 7.084 31.823 L 6.55 31.823 L 6.017 31.823 L 6.017 32.046 L 6.55 32.046 Z " fill="rgb(48,48,48)" mask="url(#_mask_lqvsYFNl3fmqfkw63DTIJEiyVMNVrlcU)" vector-effect="non-scaling-stroke" stroke-width="0.063" stroke="rgb(0,0,0)" stroke-linejoin="miter" stroke-linecap="butt" stroke-miterlimit="10"/><path d=" M 6.55 32.046 L 7.084 32.046 L 7.084 31.823 L 6.55 31.823 L 6.017 31.823 L 6.017 32.046 L 6.55 32.046 Z " fill="rgb(48,48,48)"/><rect x="2.273" y="30.129" width="0.121" height="0.876" transform="matrix(1,0,0,1,0,0)" fill="rgb(255,0,0)" vector-effect="non-scaling-stroke" stroke-width="0.031" stroke="rgb(0,0,0)" stroke-linejoin="miter" stroke-linecap="butt" stroke-miterlimit="2"/><rect x="3.61" y="31.135" width="0.863" height="0.152" transform="matrix(1,0,0,1,0,0)" fill="rgb(255,0,0)" vector-effect="non-scaling-stroke" stroke-width="0.031" stroke="rgb(0,0,0)" stroke-linejoin="miter" stroke-linecap="butt" stroke-miterlimit="2"/><rect x="2.382" y="2.181" width="0.173" height="0.881" transform="matrix(1,0,0,1,0,0)" fill="rgb(255,0,0)" vector-effect="non-scaling-stroke" stroke-width="0.031" stroke="rgb(0,0,0)" stroke-linejoin="miter" stroke-linecap="butt" stroke-miterlimit="2"/><rect x="3.58" y="2.315" width="0.873" height="0.157" transform="matrix(1,0,0,1,0,0)" fill="rgb(255,0,0)" vector-effect="non-scaling-stroke" stroke-width="0.031" stroke="rgb(0,0,0)" stroke-linejoin="miter" stroke-linecap="butt" stroke-miterlimit="2"/><mask id="_mask_LHZC7tSLCvOV9vUJMiGrpNUe4oUlxalI" x="-200%" y="-200%" width="400%" height="400%"><rect x="-200%" y="-200%" width="400%" height="400%" style="fill:white;"/><path d=" M 2.555 13.009 C 2.555 13.009 2.555 6.688 2.555 4.239 L 2.395 4.239 C 2.395 3.743 2.395 3.428 2.395 3.391 C 2.395 3.181 2.415 2.94 2.662 2.693 C 2.909 2.447 3.292 2.472 3.292 2.472 L 6.55 2.472 L 9.809 2.472 C 9.809 2.472 10.192 2.447 10.439 2.693 C 10.685 2.94 10.706 3.181 10.706 3.391 C 10.706 3.428 10.706 3.742 10.706 4.236 L 10.542 4.236 C 10.542 6.682 10.542 13.009 10.542 13.009" fill="black" stroke="none"/></mask><path d=" M 2.555 13.009 C 2.555 13.009 2.555 6.688 2.555 4.239 L 2.395 4.239 C 2.395 3.743 2.395 3.428 2.395 3.391 C 2.395 3.181 2.415 2.94 2.662 2.693 C 2.909 2.447 3.292 2.472 3.292 2.472 L 6.55 2.472 L 9.809 2.472 C 9.809 2.472 10.192 2.447 10.439 2.693 C 10.685 2.94 10.706 3.181 10.706 3.391 C 10.706 3.428 10.706 3.742 10.706 4.236 L 10.542 4.236 C 10.542 6.682 10.542 13.009 10.542 13.009" fill="rgb(255,251,138)" mask="url(#_mask_LHZC7tSLCvOV9vUJMiGrpNUe4oUlxalI)" vector-effect="non-scaling-stroke" stroke-width="0.063" stroke="rgb(0,0,0)" stroke-linejoin="miter" stroke-linecap="butt" stroke-miterlimit="10"/><path d=" M 2.555 13.009 C 2.555 13.009 2.555 6.688 2.555 4.239 L 2.395 4.239 C 2.395 3.743 2.395 3.428 2.395 3.391 C 2.395 3.181 2.415 2.94 2.662 2.693 C 2.909 2.447 3.292 2.472 3.292 2.472 L 6.55 2.472 L 9.809 2.472 C 9.809 2.472 10.192 2.447 10.439 2.693 C 10.685 2.94 10.706 3.181 10.706 3.391 C 10.706 3.428 10.706 3.742 10.706 4.236 L 10.542 4.236 C 10.542 6.682 10.542 13.009 10.542 13.009" fill="rgb(255,251,138)"/><mask id="_mask_54mtF58yFyx82MW3XtsKVM49A7NB7q4x" x="-200%" y="-200%" width="400%" height="400%"><rect x="-200%" y="-200%" width="400%" height="400%" style="fill:white;"/><path d=" M 6.549 31.823 C 6.549 31.823 3.689 31.823 3.259 31.823 C 2.829 31.823 2.656 31.624 2.656 31.624 C 2.656 31.624 2.393 31.409 2.393 31.125 L 2.498 31.125 C 2.498 31.33 2.734 31.55 2.734 31.55 C 2.734 31.55 2.907 31.734 3.248 31.734 C 3.589 31.734 6.549 31.734 6.549 31.734 C 6.549 31.734 9.509 31.734 9.85 31.734 C 10.191 31.734 10.364 31.55 10.364 31.55 C 10.364 31.55 10.6 31.33 10.6 31.125 L 10.705 31.125 C 10.705 31.409 10.443 31.624 10.443 31.624 C 10.443 31.624 10.269 31.823 9.839 31.823 C 9.409 31.823 6.549 31.823 6.549 31.823" fill="black" stroke="none"/></mask><path d=" M 6.549 31.823 C 6.549 31.823 3.689 31.823 3.259 31.823 C 2.829 31.823 2.656 31.624 2.656 31.624 C 2.656 31.624 2.393 31.409 2.393 31.125 L 2.498 31.125 C 2.498 31.33 2.734 31.55 2.734 31.55 C 2.734 31.55 2.907 31.734 3.248 31.734 C 3.589 31.734 6.549 31.734 6.549 31.734 C 6.549 31.734 9.509 31.734 9.85 31.734 C 10.191 31.734 10.364 31.55 10.364 31.55 C 10.364 31.55 10.6 31.33 10.6 31.125 L 10.705 31.125 C 10.705 31.409 10.443 31.624 10.443 31.624 C 10.443 31.624 10.269 31.823 9.839 31.823 C 9.409 31.823 6.549 31.823 6.549 31.823" fill="rgb(255,251,138)" mask="url(#_mask_54mtF58yFyx82MW3XtsKVM49A7NB7q4x)" vector-effect="non-scaling-stroke" stroke-width="0.063" stroke="rgb(0,0,0)" stroke-linejoin="miter" stroke-linecap="butt" stroke-miterlimit="10"/><path d=" M 6.549 31.823 C 6.549 31.823 3.689 31.823 3.259 31.823 C 2.829 31.823 2.656 31.624 2.656 31.624 C 2.656 31.624 2.393 31.409 2.393 31.125 L 2.498 31.125 C 2.498 31.33 2.734 31.55 2.734 31.55 C 2.734 31.55 2.907 31.734 3.248 31.734 C 3.589 31.734 6.549 31.734 6.549 31.734 C 6.549 31.734 9.509 31.734 9.85 31.734 C 10.191 31.734 10.364 31.55 10.364 31.55 C 10.364 31.55 10.6 31.33 10.6 31.125 L 10.705 31.125 C 10.705 31.409 10.443 31.624 10.443 31.624 C 10.443 31.624 10.269 31.823 9.839 31.823 C 9.409 31.823 6.549 31.823 6.549 31.823" fill="rgb(255,251,138)"/><mask id="_mask_OuhC3CKQimKPhARaPG0wvWjPG6WcZU4U" x="-200%" y="-200%" width="400%" height="400%"><rect x="-200%" y="-200%" width="400%" height="400%" style="fill:white;"/><line x1="10.474" y1="30.826" x2="6.518" y2="30.826" fill="black" stroke="none"/></mask><line x1="10.474" y1="30.826" x2="6.518" y2="30.826" mask="url(#_mask_OuhC3CKQimKPhARaPG0wvWjPG6WcZU4U)" vector-effect="non-scaling-stroke" stroke-width="0.063" stroke="rgb(0,0,0)" stroke-linejoin="miter" stroke-linecap="butt" stroke-miterlimit="10"/><mask id="_mask_inrvHfGMd4Oo9W0g17T7TcRcbxwSjbGT" x="-200%" y="-200%" width="400%" height="400%"><rect x="-200%" y="-200%" width="400%" height="400%" style="fill:white;"/><path d=" M 6.547 1.272 C 6.547 1.272 3.289 1.272 3.114 1.272 C 2.939 1.272 2.625 1.614 2.625 1.614 C 2.625 1.614 2.455 1.849 2.455 2.181 L 2.51 2.181 C 2.51 1.852 2.689 1.625 2.689 1.625 C 2.689 1.625 2.899 1.361 3.127 1.361 C 3.354 1.361 6.547 1.367 6.547 1.367 C 6.547 1.367 9.74 1.361 9.968 1.361 C 10.195 1.361 10.406 1.625 10.406 1.625 C 10.406 1.625 10.585 1.852 10.585 2.181 L 10.64 2.181 C 10.64 1.849 10.469 1.614 10.469 1.614 C 10.469 1.614 10.156 1.272 9.981 1.272 C 9.806 1.272 6.547 1.272 6.547 1.272" fill="black" stroke="none"/></mask><path d=" M 6.547 1.272 C 6.547 1.272 3.289 1.272 3.114 1.272 C 2.939 1.272 2.625 1.614 2.625 1.614 C 2.625 1.614 2.455 1.849 2.455 2.181 L 2.51 2.181 C 2.51 1.852 2.689 1.625 2.689 1.625 C 2.689 1.625 2.899 1.361 3.127 1.361 C 3.354 1.361 6.547 1.367 6.547 1.367 C 6.547 1.367 9.74 1.361 9.968 1.361 C 10.195 1.361 10.406 1.625 10.406 1.625 C 10.406 1.625 10.585 1.852 10.585 2.181 L 10.64 2.181 C 10.64 1.849 10.469 1.614 10.469 1.614 C 10.469 1.614 10.156 1.272 9.981 1.272 C 9.806 1.272 6.547 1.272 6.547 1.272" fill="rgb(255,251,138)" mask="url(#_mask_inrvHfGMd4Oo9W0g17T7TcRcbxwSjbGT)" vector-effect="non-scaling-stroke" stroke-width="0.063" stroke="rgb(0,0,0)" stroke-linejoin="miter" stroke-linecap="butt" stroke-miterlimit="10"/><path d=" M 6.547 1.272 C 6.547 1.272 3.289 1.272 3.114 1.272 C 2.939 1.272 2.625 1.614 2.625 1.614 C 2.625 1.614 2.455 1.849 2.455 2.181 L 2.51 2.181 C 2.51 1.852 2.689 1.625 2.689 1.625 C 2.689 1.625 2.899 1.361 3.127 1.361 C 3.354 1.361 6.547 1.367 6.547 1.367 C 6.547 1.367 9.74 1.361 9.968 1.361 C 10.195 1.361 10.406 1.625 10.406 1.625 C 10.406 1.625 10.585 1.852 10.585 2.181 L 10.64 2.181 C 10.64 1.849 10.469 1.614 10.469 1.614 C 10.469 1.614 10.156 1.272 9.981 1.272 C 9.806 1.272 6.547 1.272 6.547 1.272" fill="rgb(255,251,138)"/><rect x="4.249" y="1.052" width="1.161" height="0.22" transform="matrix(1,0,0,1,0,0)" fill="rgb(214,212,214)" vector-effect="non-scaling-stroke" stroke-width="0.031" stroke="rgb(0,0,0)" stroke-linejoin="miter" stroke-linecap="butt" stroke-miterlimit="2"/><mask id="_mask_WDHiuvfGrmspnZiAH9LxR6gXVQcUAgvF" x="-200%" y="-200%" width="400%" height="400%"><rect x="-200%" y="-200%" width="400%" height="400%" style="fill:white;"/><path d=" M 6.55 1.052 L 7.211 1.052 L 7.211 1.272 L 6.55 1.272 L 5.889 1.272 L 5.889 1.052 L 6.55 1.052 Z " fill="black" stroke="none"/></mask><path d=" M 6.55 1.052 L 7.211 1.052 L 7.211 1.272 L 6.55 1.272 L 5.889 1.272 L 5.889 1.052 L 6.55 1.052 Z " fill="rgb(48,48,48)" mask="url(#_mask_WDHiuvfGrmspnZiAH9LxR6gXVQcUAgvF)" vector-effect="non-scaling-stroke" stroke-width="0.063" stroke="rgb(0,0,0)" stroke-linejoin="miter" stroke-linecap="butt" stroke-miterlimit="10"/><path d=" M 6.55 1.052 L 7.211 1.052 L 7.211 1.272 L 6.55 1.272 L 5.889 1.272 L 5.889 1.052 L 6.55 1.052 Z " fill="rgb(48,48,48)"/><mask id="_mask_gBLmFJ1M6U9I6ZF8n6OzVVgJr0NRb0m8" x="-200%" y="-200%" width="400%" height="400%"><rect x="-200%" y="-200%" width="400%" height="400%" style="fill:white;"/><path d=" M 6.549 4.286 L 10.542 4.286 C 10.542 4.286 10.542 3.64 10.542 3.351 C 10.542 3.063 10.388 2.875 10.284 2.768 C 10.179 2.661 10.031 2.536 9.697 2.536 C 9.364 2.536 6.549 2.536 6.549 2.536 C 6.549 2.536 3.734 2.536 3.4 2.536 C 3.066 2.536 2.918 2.661 2.814 2.768 C 2.709 2.875 2.555 3.063 2.555 3.351 C 2.555 3.64 2.555 4.286 2.555 4.286 L 6.549 4.286 L 6.549 4.286 Z " fill="black" stroke="none"/></mask><path d=" M 6.549 4.286 L 10.542 4.286 C 10.542 4.286 10.542 3.64 10.542 3.351 C 10.542 3.063 10.388 2.875 10.284 2.768 C 10.179 2.661 10.031 2.536 9.697 2.536 C 9.364 2.536 6.549 2.536 6.549 2.536 C 6.549 2.536 3.734 2.536 3.4 2.536 C 3.066 2.536 2.918 2.661 2.814 2.768 C 2.709 2.875 2.555 3.063 2.555 3.351 C 2.555 3.64 2.555 4.286 2.555 4.286 L 6.549 4.286 L 6.549 4.286 Z " fill="rgb(171,217,219)" mask="url(#_mask_gBLmFJ1M6U9I6ZF8n6OzVVgJr0NRb0m8)" vector-effect="non-scaling-stroke" stroke-width="0.063" stroke="rgb(0,0,0)" stroke-linejoin="miter" stroke-linecap="butt" stroke-miterlimit="10"/><path d=" M 6.549 4.286 L 10.542 4.286 C 10.542 4.286 10.542 3.64 10.542 3.351 C 10.542 3.063 10.388 2.875 10.284 2.768 C 10.179 2.661 10.031 2.536 9.697 2.536 C 9.364 2.536 6.549 2.536 6.549 2.536 C 6.549 2.536 3.734 2.536 3.4 2.536 C 3.066 2.536 2.918 2.661 2.814 2.768 C 2.709 2.875 2.555 3.063 2.555 3.351 C 2.555 3.64 2.555 4.286 2.555 4.286 L 6.549 4.286 L 6.549 4.286 Z " fill="rgb(171,217,219)"/><circle vector-effect="non-scaling-stroke" cx="6.6322828967935" cy="4.77159247955" r="0.41571321480000023" fill="rgb(255,0,0)" stroke-width="0.031" stroke="rgb(0,0,0)" stroke-linejoin="miter" stroke-linecap="butt" stroke-miterlimit="10"/><rect x="2.585" y="16.61" width="7.89" height="14.216" transform="matrix(1,0,0,1,0,0)" fill="rgb(204,204,204)" vector-effect="non-scaling-stroke" stroke-width="0.031" stroke="rgb(0,0,0)" stroke-linejoin="miter" stroke-linecap="butt" stroke-miterlimit="2"/><mask id="_mask_rh7wBjPv3kK4dSAuXYqlYuU8ZEHQlUeV" x="-200%" y="-200%" width="400%" height="400%"><rect x="-200%" y="-200%" width="400%" height="400%" style="fill:white;"/><path d=" M 7.629 4.293 L 8.087 4.293 C 8.087 4.175 7.985 4.078 7.858 4.078 C 7.732 4.078 7.629 4.175 7.629 4.293 Z " fill="black" stroke="none"/></mask><path d=" M 7.629 4.293 L 8.087 4.293 C 8.087 4.175 7.985 4.078 7.858 4.078 C 7.732 4.078 7.629 4.175 7.629 4.293 Z " fill="rgb(255,103,0)" mask="url(#_mask_rh7wBjPv3kK4dSAuXYqlYuU8ZEHQlUeV)" vector-effect="non-scaling-stroke" stroke-width="0.063" stroke="rgb(0,0,0)" stroke-linejoin="miter" stroke-linecap="butt" stroke-miterlimit="10"/><path d=" M 7.629 4.293 L 8.087 4.293 C 8.087 4.175 7.985 4.078 7.858 4.078 C 7.732 4.078 7.629 4.175 7.629 4.293 Z " fill="rgb(255,103,0)"/><mask id="_mask_DNJRuLUL4R7z82jH1CWsWVICf0oqFGsC" x="-200%" y="-200%" width="400%" height="400%"><rect x="-200%" y="-200%" width="400%" height="400%" style="fill:white;"/><path d=" M 9.226 4.293 L 9.684 4.293 C 9.684 4.175 9.582 4.078 9.455 4.078 C 9.329 4.078 9.226 4.175 9.226 4.293 Z " fill="black" stroke="none"/></mask><path d=" M 9.226 4.293 L 9.684 4.293 C 9.684 4.175 9.582 4.078 9.455 4.078 C 9.329 4.078 9.226 4.175 9.226 4.293 Z " fill="rgb(255,103,0)" mask="url(#_mask_DNJRuLUL4R7z82jH1CWsWVICf0oqFGsC)" vector-effect="non-scaling-stroke" stroke-width="0.063" stroke="rgb(0,0,0)" stroke-linejoin="miter" stroke-linecap="butt" stroke-miterlimit="10"/><path d=" M 9.226 4.293 L 9.684 4.293 C 9.684 4.175 9.582 4.078 9.455 4.078 C 9.329 4.078 9.226 4.175 9.226 4.293 Z " fill="rgb(255,103,0)"/><mask id="_mask_Q5CkK5TCEx60qjKa3XCXstZTVEZZwkBw" x="-200%" y="-200%" width="400%" height="400%"><rect x="-200%" y="-200%" width="400%" height="400%" style="fill:white;"/><path d=" M 5.279 4.293 L 5.737 4.293 C 5.737 4.175 5.635 4.078 5.508 4.078 C 5.382 4.078 5.279 4.175 5.279 4.293 Z " fill="black" stroke="none"/></mask><path d=" M 5.279 4.293 L 5.737 4.293 C 5.737 4.175 5.635 4.078 5.508 4.078 C 5.382 4.078 5.279 4.175 5.279 4.293 Z " fill="rgb(255,103,0)" mask="url(#_mask_Q5CkK5TCEx60qjKa3XCXstZTVEZZwkBw)" vector-effect="non-scaling-stroke" stroke-width="0.063" stroke="rgb(0,0,0)" stroke-linejoin="miter" stroke-linecap="butt" stroke-miterlimit="10"/><path d=" M 5.279 4.293 L 5.737 4.293 C 5.737 4.175 5.635 4.078 5.508 4.078 C 5.382 4.078 5.279 4.175 5.279 4.293 Z " fill="rgb(255,103,0)"/><mask id="_mask_O4iv9GBtiShavoDd0DBsE6xwmwczumgt" x="-200%" y="-200%" width="400%" height="400%"><rect x="-200%" y="-200%" width="400%" height="400%" style="fill:white;"/><path d=" M 3.669 4.293 L 4.127 4.293 C 4.127 4.175 4.024 4.078 3.898 4.078 C 3.771 4.078 3.669 4.175 3.669 4.293 Z " fill="black" stroke="none"/></mask><path d=" M 3.669 4.293 L 4.127 4.293 C 4.127 4.175 4.024 4.078 3.898 4.078 C 3.771 4.078 3.669 4.175 3.669 4.293 Z " fill="rgb(255,103,0)" mask="url(#_mask_O4iv9GBtiShavoDd0DBsE6xwmwczumgt)" vector-effect="non-scaling-stroke" stroke-width="0.063" stroke="rgb(0,0,0)" stroke-linejoin="miter" stroke-linecap="butt" stroke-miterlimit="10"/><path d=" M 3.669 4.293 L 4.127 4.293 C 4.127 4.175 4.024 4.078 3.898 4.078 C 3.771 4.078 3.669 4.175 3.669 4.293 Z " fill="rgb(255,103,0)"/><circle vector-effect="non-scaling-stroke" cx="6.5502601112065" cy="27.6789079934435" r="2.17173015" fill="rgb(226,226,226)" stroke-width="0.031" stroke="rgb(0,0,0)" stroke-linejoin="miter" stroke-linecap="butt" stroke-miterlimit="10"/><rect x="3.057" y="28.613" width="1.951" height="1.516" transform="matrix(1,0,0,1,0,0)" fill="rgb(204,204,204)" vector-effect="non-scaling-stroke" stroke-width="0.031" stroke="rgb(0,0,0)" stroke-linejoin="miter" stroke-linecap="butt" stroke-miterlimit="2"/><rect x="4.599" y="28.613" width="0.199" height="1.516" transform="matrix(1,0,0,1,0,0)" fill="rgb(204,204,204)" vector-effect="non-scaling-stroke" stroke-width="0.031" stroke="rgb(0,0,0)" stroke-linejoin="miter" stroke-linecap="butt" stroke-miterlimit="2"/><rect x="4.358" y="29.242" width="0.65" height="0.692" transform="matrix(1,0,0,1,0,0)" fill="rgb(226,226,226)" vector-effect="non-scaling-stroke" stroke-width="0.031" stroke="rgb(0,0,0)" stroke-linejoin="miter" stroke-linecap="butt" stroke-miterlimit="2"/><mask id="_mask_D5WqmwJvT9771MBcbAA6CUYu2RO2FFoH" x="-200%" y="-200%" width="400%" height="400%"><rect x="-200%" y="-200%" width="400%" height="400%" style="fill:white;"/><path d=" M 4.35 14.79 L 4.35 14.465 L 2.79 14.465 L 2.79 14.79 L 2.79 15.567 L 3.075 15.567 L 3.075 14.79 L 4.35 14.79 Z " fill="black" stroke="none"/></mask><path d=" M 4.35 14.79 L 4.35 14.465 L 2.79 14.465 L 2.79 14.79 L 2.79 15.567 L 3.075 15.567 L 3.075 14.79 L 4.35 14.79 Z " fill="rgb(255,255,255)" mask="url(#_mask_D5WqmwJvT9771MBcbAA6CUYu2RO2FFoH)" vector-effect="non-scaling-stroke" stroke-width="0.063" stroke="rgb(0,0,0)" stroke-linejoin="miter" stroke-linecap="butt" stroke-miterlimit="10"/><path d=" M 4.35 14.79 L 4.35 14.465 L 2.79 14.465 L 2.79 14.79 L 2.79 15.567 L 3.075 15.567 L 3.075 14.79 L 4.35 14.79 Z " fill="rgb(255,255,255)"/><mask id="_mask_cMUjQuXVKA1epjpChQgieX7AGTXzeY2m" x="-200%" y="-200%" width="400%" height="400%"><rect x="-200%" y="-200%" width="400%" height="400%" style="fill:white;"/><path d=" M 8.836 14.978 L 8.836 15.303 L 10.395 15.303 L 10.395 14.978 L 10.395 14.201 L 10.111 14.201 L 10.111 14.978 L 8.836 14.978 Z " fill="black" stroke="none"/></mask><path d=" M 8.836 14.978 L 8.836 15.303 L 10.395 15.303 L 10.395 14.978 L 10.395 14.201 L 10.111 14.201 L 10.111 14.978 L 8.836 14.978 Z " fill="rgb(255,255,255)" mask="url(#_mask_cMUjQuXVKA1epjpChQgieX7AGTXzeY2m)" vector-effect="non-scaling-stroke" stroke-width="0.063" stroke="rgb(0,0,0)" stroke-linejoin="miter" stroke-linecap="butt" stroke-miterlimit="10"/><path d=" M 8.836 14.978 L 8.836 15.303 L 10.395 15.303 L 10.395 14.978 L 10.395 14.201 L 10.111 14.201 L 10.111 14.978 L 8.836 14.978 Z " fill="rgb(255,255,255)"/><rect x="2.873" y="10.708" width="0.456" height="1.464" transform="matrix(1,0,0,1,0,0)" fill="rgb(255,0,0)" vector-effect="non-scaling-stroke" stroke-width="0.031" stroke="rgb(0,0,0)" stroke-linejoin="miter" stroke-linecap="butt" stroke-miterlimit="2"/><rect x="9.684" y="10.708" width="0.456" height="1.464" transform="matrix(1,0,0,1,0,0)" fill="rgb(255,0,0)" vector-effect="non-scaling-stroke" stroke-width="0.031" stroke="rgb(0,0,0)" stroke-linejoin="miter" stroke-linecap="butt" stroke-miterlimit="2"/><rect x="9.43" y="4.37" width="0.456" height="1.585" transform="matrix(-0.707,0.707,-0.707,-0.707,20.138,1.983)" fill="rgb(255,0,0)" vector-effect="non-scaling-stroke" stroke-width="0.031" stroke="rgb(0,0,0)" stroke-linejoin="miter" stroke-linecap="butt" stroke-miterlimit="2"/><rect x="3.177" y="4.37" width="0.456" height="1.585" transform="matrix(0.707,0.707,-0.707,0.707,4.648,-0.896)" fill="rgb(255,0,0)" vector-effect="non-scaling-stroke" stroke-width="0.031" stroke="rgb(0,0,0)" stroke-linejoin="miter" stroke-linecap="butt" stroke-miterlimit="2"/><mask id="_mask_NYHa2A8AKUoJwaGCKwWPCnGbNqUh2pzR" x="-200%" y="-200%" width="400%" height="400%"><rect x="-200%" y="-200%" width="400%" height="400%" style="fill:white;"/><path d=" M 10.406 9.349 C 10.406 9.488 10.294 9.601 10.155 9.601 L 8.756 9.601 C 8.617 9.601 8.504 9.488 8.504 9.349 L 8.504 6.936 C 8.504 6.797 8.617 6.685 8.756 6.685 L 10.155 6.685 C 10.294 6.685 10.406 6.797 10.406 6.936 L 10.406 9.349 L 10.406 9.349 Z " fill="black" stroke="none"/></mask><path d=" M 10.406 9.349 C 10.406 9.488 10.294 9.601 10.155 9.601 L 8.756 9.601 C 8.617 9.601 8.504 9.488 8.504 9.349 L 8.504 6.936 C 8.504 6.797 8.617 6.685 8.756 6.685 L 10.155 6.685 C 10.294 6.685 10.406 6.797 10.406 6.936 L 10.406 9.349 L 10.406 9.349 Z " fill="rgb(171,217,219)" mask="url(#_mask_NYHa2A8AKUoJwaGCKwWPCnGbNqUh2pzR)" vector-effect="non-scaling-stroke" stroke-width="0.063" stroke="rgb(0,0,0)" stroke-linejoin="miter" stroke-linecap="butt" stroke-miterlimit="10"/><path d=" M 10.406 9.349 C 10.406 9.488 10.294 9.601 10.155 9.601 L 8.756 9.601 C 8.617 9.601 8.504 9.488 8.504 9.349 L 8.504 6.936 C 8.504 6.797 8.617 6.685 8.756 6.685 L 10.155 6.685 C 10.294 6.685 10.406 6.797 10.406 6.936 L 10.406 9.349 L 10.406 9.349 Z " fill="rgb(171,217,219)"/><mask id="_mask_zkhszWIhkX87bNJPVS9XAeNVGHKx9HXq" x="-200%" y="-200%" width="400%" height="400%"><rect x="-200%" y="-200%" width="400%" height="400%" style="fill:white;"/><path d=" M 8.32 28.277 C 8.32 28.416 8.207 28.529 8.068 28.529 L 7.525 28.529 C 7.386 28.529 7.273 28.416 7.273 28.277 L 7.273 27.152 C 7.273 27.013 7.386 26.9 7.525 26.9 L 8.068 26.9 C 8.207 26.9 8.32 27.013 8.32 27.152 L 8.32 28.277 L 8.32 28.277 Z " fill="black" stroke="none"/></mask><path d=" M 8.32 28.277 C 8.32 28.416 8.207 28.529 8.068 28.529 L 7.525 28.529 C 7.386 28.529 7.273 28.416 7.273 28.277 L 7.273 27.152 C 7.273 27.013 7.386 26.9 7.525 26.9 L 8.068 26.9 C 8.207 26.9 8.32 27.013 8.32 27.152 L 8.32 28.277 L 8.32 28.277 Z " fill="rgb(226,226,226)" mask="url(#_mask_zkhszWIhkX87bNJPVS9XAeNVGHKx9HXq)" vector-effect="non-scaling-stroke" stroke-width="0.063" stroke="rgb(0,0,0)" stroke-linejoin="miter" stroke-linecap="butt" stroke-miterlimit="10"/><path d=" M 8.32 28.277 C 8.32 28.416 8.207 28.529 8.068 28.529 L 7.525 28.529 C 7.386 28.529 7.273 28.416 7.273 28.277 L 7.273 27.152 C 7.273 27.013 7.386 26.9 7.525 26.9 L 8.068 26.9 C 8.207 26.9 8.32 27.013 8.32 27.152 L 8.32 28.277 L 8.32 28.277 Z " fill="rgb(226,226,226)"/><mask id="_mask_dpXeJsW5IynEG7Ah9uGo3LOz5hPIaYsT" x="-200%" y="-200%" width="400%" height="400%"><rect x="-200%" y="-200%" width="400%" height="400%" style="fill:white;"/><path d=" M 4.62 9.349 C 4.62 9.488 4.507 9.601 4.368 9.601 L 2.969 9.601 C 2.83 9.601 2.717 9.488 2.717 9.349 L 2.717 6.936 C 2.717 6.797 2.83 6.685 2.969 6.685 L 4.368 6.685 C 4.507 6.685 4.62 6.797 4.62 6.936 L 4.62 9.349 L 4.62 9.349 Z " fill="black" stroke="none"/></mask><path d=" M 4.62 9.349 C 4.62 9.488 4.507 9.601 4.368 9.601 L 2.969 9.601 C 2.83 9.601 2.717 9.488 2.717 9.349 L 2.717 6.936 C 2.717 6.797 2.83 6.685 2.969 6.685 L 4.368 6.685 C 4.507 6.685 4.62 6.797 4.62 6.936 L 4.62 9.349 L 4.62 9.349 Z " fill="rgb(171,217,219)" mask="url(#_mask_dpXeJsW5IynEG7Ah9uGo3LOz5hPIaYsT)" vector-effect="non-scaling-stroke" stroke-width="0.063" stroke="rgb(0,0,0)" stroke-linejoin="miter" stroke-linecap="butt" stroke-miterlimit="10"/><path d=" M 4.62 9.349 C 4.62 9.488 4.507 9.601 4.368 9.601 L 2.969 9.601 C 2.83 9.601 2.717 9.488 2.717 9.349 L 2.717 6.936 C 2.717 6.797 2.83 6.685 2.969 6.685 L 4.368 6.685 C 4.507 6.685 4.62 6.797 4.62 6.936 L 4.62 9.349 L 4.62 9.349 Z " fill="rgb(171,217,219)"/><rect x="7.695" y="6.339" width="0.326" height="22.189" transform="matrix(1,0,0,1,0,0)" fill="rgb(226,226,226)" vector-effect="non-scaling-stroke" stroke-width="0.031" stroke="rgb(0,0,0)" stroke-linejoin="miter" stroke-linecap="butt" stroke-miterlimit="2"/><mask id="_mask_0RrneGSooYM7gbvIX6hPTG5vZAbnVjxW" x="-200%" y="-200%" width="400%" height="400%"><rect x="-200%" y="-200%" width="400%" height="400%" style="fill:white;"/><path d=" M 5.02 28.277 C 5.02 28.416 5.132 28.529 5.272 28.529 L 5.814 28.529 C 5.954 28.529 6.066 28.416 6.066 28.277 L 6.066 27.152 C 6.066 27.013 5.954 26.9 5.814 26.9 L 5.272 26.9 C 5.132 26.9 5.02 27.013 5.02 27.152 L 5.02 28.277 L 5.02 28.277 Z " fill="black" stroke="none"/></mask><path d=" M 5.02 28.277 C 5.02 28.416 5.132 28.529 5.272 28.529 L 5.814 28.529 C 5.954 28.529 6.066 28.416 6.066 28.277 L 6.066 27.152 C 6.066 27.013 5.954 26.9 5.814 26.9 L 5.272 26.9 C 5.132 26.9 5.02 27.013 5.02 27.152 L 5.02 28.277 L 5.02 28.277 Z " fill="rgb(226,226,226)" mask="url(#_mask_0RrneGSooYM7gbvIX6hPTG5vZAbnVjxW)" vector-effect="non-scaling-stroke" stroke-width="0.063" stroke="rgb(0,0,0)" stroke-linejoin="miter" stroke-linecap="butt" stroke-miterlimit="10"/><path d=" M 5.02 28.277 C 5.02 28.416 5.132 28.529 5.272 28.529 L 5.814 28.529 C 5.954 28.529 6.066 28.416 6.066 28.277 L 6.066 27.152 C 6.066 27.013 5.954 26.9 5.814 26.9 L 5.272 26.9 C 5.132 26.9 5.02 27.013 5.02 27.152 L 5.02 28.277 L 5.02 28.277 Z " fill="rgb(226,226,226)"/><rect x="8.021" y="27.521" width="0.511" height="0.417" transform="matrix(1,0,0,1,0,0)" fill="rgb(226,226,226)" vector-effect="non-scaling-stroke" stroke-width="0.031" stroke="rgb(0,0,0)" stroke-linejoin="miter" stroke-linecap="butt" stroke-miterlimit="2"/><rect x="8.021" y="14.822" width="0.086" height="0.315" transform="matrix(1,0,0,1,0,0)" fill="rgb(226,226,226)" vector-effect="non-scaling-stroke" stroke-width="0.031" stroke="rgb(0,0,0)" stroke-linejoin="miter" stroke-linecap="butt" stroke-miterlimit="2"/><rect x="5.318" y="6.339" width="0.326" height="22.189" transform="matrix(1,0,0,1,0,0)" fill="rgb(226,226,226)" vector-effect="non-scaling-stroke" stroke-width="0.031" stroke="rgb(0,0,0)" stroke-linejoin="miter" stroke-linecap="butt" stroke-miterlimit="2"/><rect x="4.807" y="27.521" width="0.511" height="0.417" transform="matrix(1,0,0,1,0,0)" fill="rgb(226,226,226)" vector-effect="non-scaling-stroke" stroke-width="0.031" stroke="rgb(0,0,0)" stroke-linejoin="miter" stroke-linecap="butt" stroke-miterlimit="2"/><rect x="5.232" y="14.824" width="0.086" height="0.315" transform="matrix(1,0,0,1,0,0)" fill="rgb(226,226,226)" vector-effect="non-scaling-stroke" stroke-width="0.031" stroke="rgb(0,0,0)" stroke-linejoin="miter" stroke-linecap="butt" stroke-miterlimit="2"/><rect x="6.014" y="5.407" width="1.314" height="0.33" transform="matrix(1,0,0,1,0,0)" fill="rgb(226,226,226)" vector-effect="non-scaling-stroke" stroke-width="0.031" stroke="rgb(0,0,0)" stroke-linejoin="miter" stroke-linecap="butt" stroke-miterlimit="2"/><rect x="6.014" y="6.05" width="1.314" height="0.33" transform="matrix(1,0,0,1,0,0)" fill="rgb(226,226,226)" vector-effect="non-scaling-stroke" stroke-width="0.031" stroke="rgb(0,0,0)" stroke-linejoin="miter" stroke-linecap="butt" stroke-miterlimit="2"/><rect x="6.014" y="6.901" width="1.314" height="0.33" transform="matrix(1,0,0,1,0,0)" fill="rgb(226,226,226)" vector-effect="non-scaling-stroke" stroke-width="0.031" stroke="rgb(0,0,0)" stroke-linejoin="miter" stroke-linecap="butt" stroke-miterlimit="2"/><rect x="5.809" y="8.417" width="1.723" height="0.304" transform="matrix(1,0,0,1,0,0)" fill="rgb(226,226,226)" vector-effect="non-scaling-stroke" stroke-width="0.031" stroke="rgb(0,0,0)" stroke-linejoin="miter" stroke-linecap="butt" stroke-miterlimit="2"/><rect x="5.809" y="9.854" width="1.723" height="0.304" transform="matrix(1,0,0,1,0,0)" fill="rgb(226,226,226)" vector-effect="non-scaling-stroke" stroke-width="0.031" stroke="rgb(0,0,0)" stroke-linejoin="miter" stroke-linecap="butt" stroke-miterlimit="2"/><rect x="5.809" y="18.96" width="1.723" height="0.273" transform="matrix(1,0,0,1,0,0)" fill="rgb(226,226,226)" vector-effect="non-scaling-stroke" stroke-width="0.031" stroke="rgb(0,0,0)" stroke-linejoin="miter" stroke-linecap="butt" stroke-miterlimit="2"/><rect x="5.809" y="20.671" width="1.723" height="0.273" transform="matrix(1,0,0,1,0,0)" fill="rgb(226,226,226)" vector-effect="non-scaling-stroke" stroke-width="0.031" stroke="rgb(0,0,0)" stroke-linejoin="miter" stroke-linecap="butt" stroke-miterlimit="2"/><rect x="5.809" y="20.44" width="1.723" height="0.273" transform="matrix(1,0,0,1,0,0)" fill="rgb(226,226,226)" vector-effect="non-scaling-stroke" stroke-width="0.031" stroke="rgb(0,0,0)" stroke-linejoin="miter" stroke-linecap="butt" stroke-miterlimit="2"/><rect x="5.809" y="22.066" width="1.723" height="0.273" transform="matrix(1,0,0,1,0,0)" fill="rgb(226,226,226)" vector-effect="non-scaling-stroke" stroke-width="0.031" stroke="rgb(0,0,0)" stroke-linejoin="miter" stroke-linecap="butt" stroke-miterlimit="2"/><rect x="5.809" y="21.929" width="1.723" height="0.273" transform="matrix(1,0,0,1,0,0)" fill="rgb(226,226,226)" vector-effect="non-scaling-stroke" stroke-width="0.031" stroke="rgb(0,0,0)" stroke-linejoin="miter" stroke-linecap="butt" stroke-miterlimit="2"/><rect x="5.809" y="23.446" width="1.723" height="0.273" transform="matrix(1,0,0,1,0,0)" fill="rgb(226,226,226)" vector-effect="non-scaling-stroke" stroke-width="0.031" stroke="rgb(0,0,0)" stroke-linejoin="miter" stroke-linecap="butt" stroke-miterlimit="2"/><rect x="5.809" y="23.283" width="1.723" height="0.273" transform="matrix(1,0,0,1,0,0)" fill="rgb(226,226,226)" vector-effect="non-scaling-stroke" stroke-width="0.031" stroke="rgb(0,0,0)" stroke-linejoin="miter" stroke-linecap="butt" stroke-miterlimit="2"/><rect x="5.809" y="24.813" width="1.723" height="0.273" transform="matrix(1,0,0,1,0,0)" fill="rgb(226,226,226)" vector-effect="non-scaling-stroke" stroke-width="0.031" stroke="rgb(0,0,0)" stroke-linejoin="miter" stroke-linecap="butt" stroke-miterlimit="2"/><rect x="5.809" y="24.72" width="1.723" height="0.273" transform="matrix(1,0,0,1,0,0)" fill="rgb(226,226,226)" vector-effect="non-scaling-stroke" stroke-width="0.031" stroke="rgb(0,0,0)" stroke-linejoin="miter" stroke-linecap="butt" stroke-miterlimit="2"/><rect x="5.809" y="26.252" width="1.723" height="0.273" transform="matrix(1,0,0,1,0,0)" fill="rgb(226,226,226)" vector-effect="non-scaling-stroke" stroke-width="0.031" stroke="rgb(0,0,0)" stroke-linejoin="miter" stroke-linecap="butt" stroke-miterlimit="2"/><rect x="5.809" y="26.168" width="1.723" height="0.273" transform="matrix(1,0,0,1,0,0)" fill="rgb(226,226,226)" vector-effect="non-scaling-stroke" stroke-width="0.031" stroke="rgb(0,0,0)" stroke-linejoin="miter" stroke-linecap="butt" stroke-miterlimit="2"/><mask id="_mask_pLMNiOQ5GGU02NMLl8dRJM7DCkO0didd" x="-200%" y="-200%" width="400%" height="400%"><rect x="-200%" y="-200%" width="400%" height="400%" style="fill:white;"/><path d=" M 7.328 2.067 L 7.328 7.834 L 7.533 7.834 L 7.533 1.96 L 7.328 1.831 L 6.014 1.831 L 5.809 1.96 L 5.809 7.834 L 6.014 7.834 L 6.014 2.067 L 7.328 2.067 Z " fill="black" stroke="none"/></mask><path d=" M 7.328 2.067 L 7.328 7.834 L 7.533 7.834 L 7.533 1.96 L 7.328 1.831 L 6.014 1.831 L 5.809 1.96 L 5.809 7.834 L 6.014 7.834 L 6.014 2.067 L 7.328 2.067 Z " fill="rgb(255,0,0)" mask="url(#_mask_pLMNiOQ5GGU02NMLl8dRJM7DCkO0didd)" vector-effect="non-scaling-stroke" stroke-width="0.063" stroke="rgb(0,0,0)" stroke-linejoin="miter" stroke-linecap="butt" stroke-miterlimit="10"/><path d=" M 7.328 2.067 L 7.328 7.834 L 7.533 7.834 L 7.533 1.96 L 7.328 1.831 L 6.014 1.831 L 5.809 1.96 L 5.809 7.834 L 6.014 7.834 L 6.014 2.067 L 7.328 2.067 Z " fill="rgb(255,0,0)"/><rect x="6.014" y="3.013" width="1.314" height="0.169" transform="matrix(1,0,0,1,0,0)" fill="rgb(255,0,0)" vector-effect="non-scaling-stroke" stroke-width="0.031" stroke="rgb(0,0,0)" stroke-linejoin="miter" stroke-linecap="butt" stroke-miterlimit="2"/><rect x="6.014" y="4.133" width="1.314" height="0.169" transform="matrix(1,0,0,1,0,0)" fill="rgb(255,0,0)" vector-effect="non-scaling-stroke" stroke-width="0.031" stroke="rgb(0,0,0)" stroke-linejoin="miter" stroke-linecap="butt" stroke-miterlimit="2"/><rect x="6.014" y="5.238" width="1.314" height="0.169" transform="matrix(1,0,0,1,0,0)" fill="rgb(255,0,0)" vector-effect="non-scaling-stroke" stroke-width="0.031" stroke="rgb(0,0,0)" stroke-linejoin="miter" stroke-linecap="butt" stroke-miterlimit="2"/><rect x="6.014" y="6.38" width="1.314" height="0.169" transform="matrix(1,0,0,1,0,0)" fill="rgb(255,0,0)" vector-effect="non-scaling-stroke" stroke-width="0.031" stroke="rgb(0,0,0)" stroke-linejoin="miter" stroke-linecap="butt" stroke-miterlimit="2"/><rect x="6.014" y="6.796" width="1.314" height="0.33" transform="matrix(1,0,0,1,0,0)" fill="rgb(226,226,226)" vector-effect="non-scaling-stroke" stroke-width="0.031" stroke="rgb(0,0,0)" stroke-linejoin="miter" stroke-linecap="butt" stroke-miterlimit="2"/><rect x="6.014" y="7.457" width="1.314" height="0.33" transform="matrix(1,0,0,1,0,0)" fill="rgb(226,226,226)" vector-effect="non-scaling-stroke" stroke-width="0.031" stroke="rgb(0,0,0)" stroke-linejoin="miter" stroke-linecap="butt" stroke-miterlimit="2"/><rect x="5.809" y="8.196" width="1.723" height="0.304" transform="matrix(1,0,0,1,0,0)" fill="rgb(226,226,226)" vector-effect="non-scaling-stroke" stroke-width="0.031" stroke="rgb(0,0,0)" stroke-linejoin="miter" stroke-linecap="butt" stroke-miterlimit="2"/><rect x="5.809" y="8.91" width="1.723" height="0.304" transform="matrix(1,0,0,1,0,0)" fill="rgb(226,226,226)" vector-effect="non-scaling-stroke" stroke-width="0.031" stroke="rgb(0,0,0)" stroke-linejoin="miter" stroke-linecap="butt" stroke-miterlimit="2"/><rect x="5.809" y="9.601" width="1.723" height="0.304" transform="matrix(1,0,0,1,0,0)" fill="rgb(226,226,226)" vector-effect="non-scaling-stroke" stroke-width="0.031" stroke="rgb(0,0,0)" stroke-linejoin="miter" stroke-linecap="butt" stroke-miterlimit="2"/><rect x="5.809" y="10.336" width="1.723" height="0.304" transform="matrix(1,0,0,1,0,0)" fill="rgb(226,226,226)" vector-effect="non-scaling-stroke" stroke-width="0.031" stroke="rgb(0,0,0)" stroke-linejoin="miter" stroke-linecap="butt" stroke-miterlimit="2"/><rect x="5.809" y="10.955" width="1.723" height="0.304" transform="matrix(1,0,0,1,0,0)" fill="rgb(226,226,226)" vector-effect="non-scaling-stroke" stroke-width="0.031" stroke="rgb(0,0,0)" stroke-linejoin="miter" stroke-linecap="butt" stroke-miterlimit="2"/><rect x="5.809" y="11.344" width="1.723" height="0.304" transform="matrix(1,0,0,1,0,0)" fill="rgb(226,226,226)" vector-effect="non-scaling-stroke" stroke-width="0.031" stroke="rgb(0,0,0)" stroke-linejoin="miter" stroke-linecap="butt" stroke-miterlimit="2"/><rect x="5.809" y="11.784" width="1.723" height="0.304" transform="matrix(1,0,0,1,0,0)" fill="rgb(226,226,226)" vector-effect="non-scaling-stroke" stroke-width="0.031" stroke="rgb(0,0,0)" stroke-linejoin="miter" stroke-linecap="butt" stroke-miterlimit="2"/><rect x="5.809" y="12.34" width="1.723" height="0.304" transform="matrix(1,0,0,1,0,0)" fill="rgb(226,226,226)" vector-effect="non-scaling-stroke" stroke-width="0.031" stroke="rgb(0,0,0)" stroke-linejoin="miter" stroke-linecap="butt" stroke-miterlimit="2"/><rect x="5.809" y="12.802" width="1.723" height="0.304" transform="matrix(1,0,0,1,0,0)" fill="rgb(226,226,226)" vector-effect="non-scaling-stroke" stroke-width="0.031" stroke="rgb(0,0,0)" stroke-linejoin="miter" stroke-linecap="butt" stroke-miterlimit="2"/><rect x="5.809" y="13.237" width="1.723" height="0.304" transform="matrix(1,0,0,1,0,0)" fill="rgb(226,226,226)" vector-effect="non-scaling-stroke" stroke-width="0.031" stroke="rgb(0,0,0)" stroke-linejoin="miter" stroke-linecap="butt" stroke-miterlimit="2"/><rect x="5.809" y="13.736" width="1.723" height="0.304" transform="matrix(1,0,0,1,0,0)" fill="rgb(226,226,226)" vector-effect="non-scaling-stroke" stroke-width="0.031" stroke="rgb(0,0,0)" stroke-linejoin="miter" stroke-linecap="butt" stroke-miterlimit="2"/><rect x="5.809" y="14.271" width="1.723" height="0.304" transform="matrix(1,0,0,1,0,0)" fill="rgb(226,226,226)" vector-effect="non-scaling-stroke" stroke-width="0.031" stroke="rgb(0,0,0)" stroke-linejoin="miter" stroke-linecap="butt" stroke-miterlimit="2"/><rect x="5.809" y="14.662" width="1.723" height="0.304" transform="matrix(1,0,0,1,0,0)" fill="rgb(226,226,226)" vector-effect="non-scaling-stroke" stroke-width="0.031" stroke="rgb(0,0,0)" stroke-linejoin="miter" stroke-linecap="butt" stroke-miterlimit="2"/><rect x="5.809" y="15.129" width="1.723" height="0.304" transform="matrix(1,0,0,1,0,0)" fill="rgb(226,226,226)" vector-effect="non-scaling-stroke" stroke-width="0.031" stroke="rgb(0,0,0)" stroke-linejoin="miter" stroke-linecap="butt" stroke-miterlimit="2"/><rect x="5.809" y="15.75" width="1.723" height="0.304" transform="matrix(1,0,0,1,0,0)" fill="rgb(226,226,226)" vector-effect="non-scaling-stroke" stroke-width="0.031" stroke="rgb(0,0,0)" stroke-linejoin="miter" stroke-linecap="butt" stroke-miterlimit="2"/><rect x="5.809" y="16.096" width="1.723" height="0.304" transform="matrix(1,0,0,1,0,0)" fill="rgb(226,226,226)" vector-effect="non-scaling-stroke" stroke-width="0.031" stroke="rgb(0,0,0)" stroke-linejoin="miter" stroke-linecap="butt" stroke-miterlimit="2"/><rect x="5.809" y="16.49" width="1.723" height="0.304" transform="matrix(1,0,0,1,0,0)" fill="rgb(226,226,226)" vector-effect="non-scaling-stroke" stroke-width="0.031" stroke="rgb(0,0,0)" stroke-linejoin="miter" stroke-linecap="butt" stroke-miterlimit="2"/><rect x="5.809" y="17.282" width="1.723" height="0.199" transform="matrix(1,0,0,1,0,0)" fill="rgb(226,226,226)" vector-effect="non-scaling-stroke" stroke-width="0.031" stroke="rgb(0,0,0)" stroke-linejoin="miter" stroke-linecap="butt" stroke-miterlimit="2"/><rect x="5.809" y="17.61" width="1.723" height="0.199" transform="matrix(1,0,0,1,0,0)" fill="rgb(226,226,226)" vector-effect="non-scaling-stroke" stroke-width="0.031" stroke="rgb(0,0,0)" stroke-linejoin="miter" stroke-linecap="butt" stroke-miterlimit="2"/><rect x="5.809" y="17.944" width="1.723" height="0.199" transform="matrix(1,0,0,1,0,0)" fill="rgb(226,226,226)" vector-effect="non-scaling-stroke" stroke-width="0.031" stroke="rgb(0,0,0)" stroke-linejoin="miter" stroke-linecap="butt" stroke-miterlimit="2"/><rect x="5.809" y="18.74" width="1.723" height="0.273" transform="matrix(1,0,0,1,0,0)" fill="rgb(226,226,226)" vector-effect="non-scaling-stroke" stroke-width="0.031" stroke="rgb(0,0,0)" stroke-linejoin="miter" stroke-linecap="butt" stroke-miterlimit="2"/><rect x="5.809" y="19.296" width="1.723" height="0.273" transform="matrix(1,0,0,1,0,0)" fill="rgb(226,226,226)" vector-effect="non-scaling-stroke" stroke-width="0.031" stroke="rgb(0,0,0)" stroke-linejoin="miter" stroke-linecap="butt" stroke-miterlimit="2"/><rect x="5.809" y="20.219" width="1.723" height="0.273" transform="matrix(1,0,0,1,0,0)" fill="rgb(226,226,226)" vector-effect="non-scaling-stroke" stroke-width="0.031" stroke="rgb(0,0,0)" stroke-linejoin="miter" stroke-linecap="butt" stroke-miterlimit="2"/><rect x="5.809" y="21.667" width="1.723" height="0.273" transform="matrix(1,0,0,1,0,0)" fill="rgb(226,226,226)" vector-effect="non-scaling-stroke" stroke-width="0.031" stroke="rgb(0,0,0)" stroke-linejoin="miter" stroke-linecap="butt" stroke-miterlimit="2"/><rect x="5.809" y="23.147" width="1.723" height="0.273" transform="matrix(1,0,0,1,0,0)" fill="rgb(226,226,226)" vector-effect="non-scaling-stroke" stroke-width="0.031" stroke="rgb(0,0,0)" stroke-linejoin="miter" stroke-linecap="butt" stroke-miterlimit="2"/><rect x="5.809" y="24.626" width="1.723" height="0.273" transform="matrix(1,0,0,1,0,0)" fill="rgb(226,226,226)" vector-effect="non-scaling-stroke" stroke-width="0.031" stroke="rgb(0,0,0)" stroke-linejoin="miter" stroke-linecap="butt" stroke-miterlimit="2"/><rect x="5.809" y="26.084" width="1.723" height="0.273" transform="matrix(1,0,0,1,0,0)" fill="rgb(226,226,226)" vector-effect="non-scaling-stroke" stroke-width="0.031" stroke="rgb(0,0,0)" stroke-linejoin="miter" stroke-linecap="butt" stroke-miterlimit="2"/><mask id="_mask_1DD8BCaS9oviNStgY6BMdMBc0CbUIPT0" x="-200%" y="-200%" width="400%" height="400%"><rect x="-200%" y="-200%" width="400%" height="400%" style="fill:white;"/><path d=" M 3.359 25.521 C 3.366 25.6 3.343 25.667 3.307 25.671 L 3.069 25.692 C 3.033 25.695 2.998 25.633 2.991 25.554 L 2.885 24.378 C 2.877 24.299 2.901 24.232 2.937 24.228 L 3.175 24.207 C 3.21 24.204 3.245 24.265 3.252 24.345 L 3.359 25.521 L 3.359 25.521 Z " fill="black" stroke="none"/></mask><path d=" M 3.359 25.521 C 3.366 25.6 3.343 25.667 3.307 25.671 L 3.069 25.692 C 3.033 25.695 2.998 25.633 2.991 25.554 L 2.885 24.378 C 2.877 24.299 2.901 24.232 2.937 24.228 L 3.175 24.207 C 3.21 24.204 3.245 24.265 3.252 24.345 L 3.359 25.521 L 3.359 25.521 Z " fill="rgb(226,226,226)" mask="url(#_mask_1DD8BCaS9oviNStgY6BMdMBc0CbUIPT0)" vector-effect="non-scaling-stroke" stroke-width="0.063" stroke="rgb(0,0,0)" stroke-linejoin="miter" stroke-linecap="butt" stroke-miterlimit="10"/><path d=" M 3.359 25.521 C 3.366 25.6 3.343 25.667 3.307 25.671 L 3.069 25.692 C 3.033 25.695 2.998 25.633 2.991 25.554 L 2.885 24.378 C 2.877 24.299 2.901 24.232 2.937 24.228 L 3.175 24.207 C 3.21 24.204 3.245 24.265 3.252 24.345 L 3.359 25.521 L 3.359 25.521 Z " fill="rgb(226,226,226)"/><mask id="_mask_MaxTEEjTftKoNTFsB5TeVJCR5FHxm6Px" x="-200%" y="-200%" width="400%" height="400%"><rect x="-200%" y="-200%" width="400%" height="400%" style="fill:white;"/><path d=" M 9.704 25.521 C 9.697 25.6 9.72 25.667 9.756 25.671 L 9.994 25.692 C 10.03 25.695 10.065 25.633 10.072 25.554 L 10.178 24.378 C 10.185 24.299 10.162 24.232 10.126 24.228 L 9.888 24.207 C 9.852 24.204 9.818 24.265 9.81 24.345 L 9.704 25.521 L 9.704 25.521 Z " fill="black" stroke="none"/></mask><path d=" M 9.704 25.521 C 9.697 25.6 9.72 25.667 9.756 25.671 L 9.994 25.692 C 10.03 25.695 10.065 25.633 10.072 25.554 L 10.178 24.378 C 10.185 24.299 10.162 24.232 10.126 24.228 L 9.888 24.207 C 9.852 24.204 9.818 24.265 9.81 24.345 L 9.704 25.521 L 9.704 25.521 Z " fill="rgb(226,226,226)" mask="url(#_mask_MaxTEEjTftKoNTFsB5TeVJCR5FHxm6Px)" vector-effect="non-scaling-stroke" stroke-width="0.063" stroke="rgb(0,0,0)" stroke-linejoin="miter" stroke-linecap="butt" stroke-miterlimit="10"/><path d=" M 9.704 25.521 C 9.697 25.6 9.72 25.667 9.756 25.671 L 9.994 25.692 C 10.03 25.695 10.065 25.633 10.072 25.554 L 10.178 24.378 C 10.185 24.299 10.162 24.232 10.126 24.228 L 9.888 24.207 C 9.852 24.204 9.818 24.265 9.81 24.345 L 9.704 25.521 L 9.704 25.521 Z " fill="rgb(226,226,226)"/><mask id="_mask_kLxH8GOzSSkctAXAkXFwG7jCbWHy3Bty" x="-200%" y="-200%" width="400%" height="400%"><rect x="-200%" y="-200%" width="400%" height="400%" style="fill:white;"/><path d=" M 2.885 18.714 C 2.877 18.794 2.901 18.861 2.937 18.864 L 3.175 18.886 C 3.21 18.889 3.245 18.827 3.253 18.748 L 3.359 17.572 C 3.366 17.493 3.343 17.425 3.307 17.422 L 3.069 17.401 C 3.033 17.398 2.998 17.459 2.991 17.539 L 2.885 18.714 L 2.885 18.714 Z " fill="black" stroke="none"/></mask><path d=" M 2.885 18.714 C 2.877 18.794 2.901 18.861 2.937 18.864 L 3.175 18.886 C 3.21 18.889 3.245 18.827 3.253 18.748 L 3.359 17.572 C 3.366 17.493 3.343 17.425 3.307 17.422 L 3.069 17.401 C 3.033 17.398 2.998 17.459 2.991 17.539 L 2.885 18.714 L 2.885 18.714 Z " fill="rgb(226,226,226)" mask="url(#_mask_kLxH8GOzSSkctAXAkXFwG7jCbWHy3Bty)" vector-effect="non-scaling-stroke" stroke-width="0.063" stroke="rgb(0,0,0)" stroke-linejoin="miter" stroke-linecap="butt" stroke-miterlimit="10"/><path d=" M 2.885 18.714 C 2.877 18.794 2.901 18.861 2.937 18.864 L 3.175 18.886 C 3.21 18.889 3.245 18.827 3.253 18.748 L 3.359 17.572 C 3.366 17.493 3.343 17.425 3.307 17.422 L 3.069 17.401 C 3.033 17.398 2.998 17.459 2.991 17.539 L 2.885 18.714 L 2.885 18.714 Z " fill="rgb(226,226,226)"/><mask id="_mask_RUJZPoBIhNuSJz9RAaEyG2GTzeyb8RsW" x="-200%" y="-200%" width="400%" height="400%"><rect x="-200%" y="-200%" width="400%" height="400%" style="fill:white;"/><path d=" M 10.178 18.714 C 10.185 18.794 10.162 18.861 10.126 18.864 L 9.888 18.886 C 9.852 18.889 9.818 18.827 9.81 18.748 L 9.704 17.572 C 9.697 17.493 9.72 17.425 9.756 17.422 L 9.994 17.401 C 10.03 17.398 10.065 17.459 10.072 17.539 L 10.178 18.714 L 10.178 18.714 Z " fill="black" stroke="none"/></mask><path d=" M 10.178 18.714 C 10.185 18.794 10.162 18.861 10.126 18.864 L 9.888 18.886 C 9.852 18.889 9.818 18.827 9.81 18.748 L 9.704 17.572 C 9.697 17.493 9.72 17.425 9.756 17.422 L 9.994 17.401 C 10.03 17.398 10.065 17.459 10.072 17.539 L 10.178 18.714 L 10.178 18.714 Z " fill="rgb(226,226,226)" mask="url(#_mask_RUJZPoBIhNuSJz9RAaEyG2GTzeyb8RsW)" vector-effect="non-scaling-stroke" stroke-width="0.063" stroke="rgb(0,0,0)" stroke-linejoin="miter" stroke-linecap="butt" stroke-miterlimit="10"/><path d=" M 10.178 18.714 C 10.185 18.794 10.162 18.861 10.126 18.864 L 9.888 18.886 C 9.852 18.889 9.818 18.827 9.81 18.748 L 9.704 17.572 C 9.697 17.493 9.72 17.425 9.756 17.422 L 9.994 17.401 C 10.03 17.398 10.065 17.459 10.072 17.539 L 10.178 18.714 L 10.178 18.714 Z " fill="rgb(226,226,226)"/><rect x="7.533" y="4.939" width="0.326" height="23.59" transform="matrix(1,0,0,1,0,0)" fill="rgb(226,226,226)" vector-effect="non-scaling-stroke" stroke-width="0.031" stroke="rgb(0,0,0)" stroke-linejoin="miter" stroke-linecap="butt" stroke-miterlimit="2"/><rect x="8.249" y="15.168" width="0.299" height="12.354" transform="matrix(1,0,0,1,0,0)" fill="rgb(226,226,226)" vector-effect="non-scaling-stroke" stroke-width="0.031" stroke="rgb(0,0,0)" stroke-linejoin="miter" stroke-linecap="butt" stroke-miterlimit="2"/><mask id="_mask_plJnr55iZHb2eEO9dVYuVEYBkGEkECWU" x="-200%" y="-200%" width="400%" height="400%"><rect x="-200%" y="-200%" width="400%" height="400%" style="fill:white;"/><path d=" M 8.021 26.813 L 8.815 27.521 L 8.021 27.521 L 8.021 26.813 Z " fill="black" stroke="none"/></mask><path d=" M 8.021 26.813 L 8.815 27.521 L 8.021 27.521 L 8.021 26.813 Z " fill="rgb(226,226,226)" mask="url(#_mask_plJnr55iZHb2eEO9dVYuVEYBkGEkECWU)" vector-effect="non-scaling-stroke" stroke-width="0.063" stroke="rgb(0,0,0)" stroke-linejoin="miter" stroke-linecap="butt" stroke-miterlimit="10"/><path d=" M 8.021 26.813 L 8.815 27.521 L 8.021 27.521 L 8.021 26.813 Z " fill="rgb(226,226,226)"/><rect x="8.626" y="27.521" width="0.464" height="0.393" transform="matrix(1,0,0,1,0,0)" fill="rgb(226,226,226)" vector-effect="non-scaling-stroke" stroke-width="0.031" stroke="rgb(0,0,0)" stroke-linejoin="miter" stroke-linecap="butt" stroke-miterlimit="2"/><rect x="9.091" y="27.49" width="0.094" height="0.449" transform="matrix(1,0,0,1,0,0)" fill="rgb(226,226,226)" vector-effect="non-scaling-stroke" stroke-width="0.031" stroke="rgb(0,0,0)" stroke-linejoin="miter" stroke-linecap="butt" stroke-miterlimit="2"/><rect x="8.532" y="27.49" width="0.094" height="0.449" transform="matrix(1,0,0,1,0,0)" fill="rgb(226,226,226)" vector-effect="non-scaling-stroke" stroke-width="0.031" stroke="rgb(0,0,0)" stroke-linejoin="miter" stroke-linecap="butt" stroke-miterlimit="2"/><rect x="8.202" y="14.791" width="0.346" height="0.393" transform="matrix(1,0,0,1,0,0)" fill="rgb(226,226,226)" vector-effect="non-scaling-stroke" stroke-width="0.031" stroke="rgb(0,0,0)" stroke-linejoin="miter" stroke-linecap="butt" stroke-miterlimit="2"/><rect x="8.548" y="14.764" width="0.094" height="0.449" transform="matrix(1,0,0,1,0,0)" fill="rgb(226,226,226)" vector-effect="non-scaling-stroke" stroke-width="0.031" stroke="rgb(0,0,0)" stroke-linejoin="miter" stroke-linecap="butt" stroke-miterlimit="2"/><rect x="7.629" y="5.568" width="0.321" height="22.961" transform="matrix(1,0,0,1,0,0)" fill="rgb(226,226,226)" vector-effect="non-scaling-stroke" stroke-width="0.031" stroke="rgb(0,0,0)" stroke-linejoin="miter" stroke-linecap="butt" stroke-miterlimit="2"/><rect x="5.39" y="5.568" width="0.321" height="22.961" transform="matrix(1,0,0,1,0,0)" fill="rgb(226,226,226)" vector-effect="non-scaling-stroke" stroke-width="0.031" stroke="rgb(0,0,0)" stroke-linejoin="miter" stroke-linecap="butt" stroke-miterlimit="2"/><rect x="8.107" y="14.76" width="0.094" height="0.449" transform="matrix(1,0,0,1,0,0)" fill="rgb(226,226,226)" vector-effect="non-scaling-stroke" stroke-width="0.031" stroke="rgb(0,0,0)" stroke-linejoin="miter" stroke-linecap="butt" stroke-miterlimit="2"/><rect x="5.481" y="4.939" width="0.326" height="23.59" transform="matrix(1,0,0,1,0,0)" fill="rgb(226,226,226)" vector-effect="non-scaling-stroke" stroke-width="0.031" stroke="rgb(0,0,0)" stroke-linejoin="miter" stroke-linecap="butt" stroke-miterlimit="2"/><rect x="4.792" y="15.168" width="0.299" height="12.354" transform="matrix(1,0,0,1,0,0)" fill="rgb(226,226,226)" vector-effect="non-scaling-stroke" stroke-width="0.031" stroke="rgb(0,0,0)" stroke-linejoin="miter" stroke-linecap="butt" stroke-miterlimit="2"/><mask id="_mask_Sh4rmBXKZe99TC9JDiInJ6uDyrGt5p7B" x="-200%" y="-200%" width="400%" height="400%"><rect x="-200%" y="-200%" width="400%" height="400%" style="fill:white;"/><path d=" M 5.318 26.813 L 4.524 27.521 L 5.318 27.521 L 5.318 26.813 Z " fill="black" stroke="none"/></mask><path d=" M 5.318 26.813 L 4.524 27.521 L 5.318 27.521 L 5.318 26.813 Z " fill="rgb(226,226,226)" mask="url(#_mask_Sh4rmBXKZe99TC9JDiInJ6uDyrGt5p7B)" vector-effect="non-scaling-stroke" stroke-width="0.063" stroke="rgb(0,0,0)" stroke-linejoin="miter" stroke-linecap="butt" stroke-miterlimit="10"/><path d=" M 5.318 26.813 L 4.524 27.521 L 5.318 27.521 L 5.318 26.813 Z " fill="rgb(226,226,226)"/><rect x="4.249" y="27.521" width="0.464" height="0.393" transform="matrix(1,0,0,1,0,0)" fill="rgb(226,226,226)" vector-effect="non-scaling-stroke" stroke-width="0.031" stroke="rgb(0,0,0)" stroke-linejoin="miter" stroke-linecap="butt" stroke-miterlimit="2"/><rect x="4.154" y="27.49" width="0.094" height="0.449" transform="matrix(1,0,0,1,0,0)" fill="rgb(226,226,226)" vector-effect="non-scaling-stroke" stroke-width="0.031" stroke="rgb(0,0,0)" stroke-linejoin="miter" stroke-linecap="butt" stroke-miterlimit="2"/><rect x="4.713" y="27.49" width="0.094" height="0.449" transform="matrix(1,0,0,1,0,0)" fill="rgb(226,226,226)" vector-effect="non-scaling-stroke" stroke-width="0.031" stroke="rgb(0,0,0)" stroke-linejoin="miter" stroke-linecap="butt" stroke-miterlimit="2"/><rect x="4.792" y="14.793" width="0.346" height="0.393" transform="matrix(1,0,0,1,0,0)" fill="rgb(226,226,226)" vector-effect="non-scaling-stroke" stroke-width="0.031" stroke="rgb(0,0,0)" stroke-linejoin="miter" stroke-linecap="butt" stroke-miterlimit="2"/><rect x="4.697" y="14.766" width="0.094" height="0.449" transform="matrix(1,0,0,1,0,0)" fill="rgb(226,226,226)" vector-effect="non-scaling-stroke" stroke-width="0.031" stroke="rgb(0,0,0)" stroke-linejoin="miter" stroke-linecap="butt" stroke-miterlimit="2"/><rect x="5.138" y="14.762" width="0.094" height="0.449" transform="matrix(1,0,0,1,0,0)" fill="rgb(226,226,226)" vector-effect="non-scaling-stroke" stroke-width="0.031" stroke="rgb(0,0,0)" stroke-linejoin="miter" stroke-linecap="butt" stroke-miterlimit="2"/><rect x="8.107" y="15.168" width="0.169" height="11.929" transform="matrix(1,0,0,1,0,0)" fill="rgb(226,226,226)" vector-effect="non-scaling-stroke" stroke-width="0.031" stroke="rgb(0,0,0)" stroke-linejoin="miter" stroke-linecap="butt" stroke-miterlimit="2"/><rect x="5.063" y="15.168" width="0.169" height="11.929" transform="matrix(1,0,0,1,0,0)" fill="rgb(226,226,226)" vector-effect="non-scaling-stroke" stroke-width="0.031" stroke="rgb(0,0,0)" stroke-linejoin="miter" stroke-linecap="butt" stroke-miterlimit="2"/><rect x="5.809" y="27.578" width="1.723" height="0.273" transform="matrix(1,0,0,1,0,0)" fill="rgb(226,226,226)" vector-effect="non-scaling-stroke" stroke-width="0.031" stroke="rgb(0,0,0)" stroke-linejoin="miter" stroke-linecap="butt" stroke-miterlimit="2"/><mask id="_mask_MhtWoqB4UFAOa2phJl9AK6J0TsIVLlmg" x="-200%" y="-200%" width="400%" height="400%"><rect x="-200%" y="-200%" width="400%" height="400%" style="fill:white;"/><path d=" M 8.021 28.273 L 8.021 28.422 C 8.241 28.422 8.233 28.064 8.233 28.064 L 8.233 27.215 L 8.114 27.215 C 8.114 27.215 8.114 27.832 8.114 28.053 C 8.114 28.273 8.021 28.273 8.021 28.273 L 8.021 28.273 Z " fill="black" stroke="none"/></mask><path d=" M 8.021 28.273 L 8.021 28.422 C 8.241 28.422 8.233 28.064 8.233 28.064 L 8.233 27.215 L 8.114 27.215 C 8.114 27.215 8.114 27.832 8.114 28.053 C 8.114 28.273 8.021 28.273 8.021 28.273 L 8.021 28.273 Z " fill="rgb(48,48,48)" mask="url(#_mask_MhtWoqB4UFAOa2phJl9AK6J0TsIVLlmg)" vector-effect="non-scaling-stroke" stroke-width="0.063" stroke="rgb(0,0,0)" stroke-linejoin="miter" stroke-linecap="butt" stroke-miterlimit="10"/><path d=" M 8.021 28.273 L 8.021 28.422 C 8.241 28.422 8.233 28.064 8.233 28.064 L 8.233 27.215 L 8.114 27.215 C 8.114 27.215 8.114 27.832 8.114 28.053 C 8.114 28.273 8.021 28.273 8.021 28.273 L 8.021 28.273 Z " fill="rgb(48,48,48)"/><rect x="5.02" y="27.097" width="0.263" height="0.118" transform="matrix(1,0,0,1,0,0)" fill="rgb(226,226,226)" vector-effect="non-scaling-stroke" stroke-width="0.031" stroke="rgb(0,0,0)" stroke-linejoin="miter" stroke-linecap="butt" stroke-miterlimit="2"/><rect x="8.056" y="27.097" width="0.263" height="0.118" transform="matrix(1,0,0,1,0,0)" fill="rgb(226,226,226)" vector-effect="non-scaling-stroke" stroke-width="0.031" stroke="rgb(0,0,0)" stroke-linejoin="miter" stroke-linecap="butt" stroke-miterlimit="2"/><rect x="10.542" y="4.236" width="0.488" height="0.131" transform="matrix(1,0,0,1,0,0)" fill="rgb(226,226,226)" vector-effect="non-scaling-stroke" stroke-width="0.031" stroke="rgb(0,0,0)" stroke-linejoin="miter" stroke-linecap="butt" stroke-miterlimit="2"/><mask id="_mask_YSHQ92FvAOPGXqP1yY1sELrPngVdYRao" x="-200%" y="-200%" width="400%" height="400%"><rect x="-200%" y="-200%" width="400%" height="400%" style="fill:white;"/><path d=" M 10.944 4.363 C 10.938 4.421 10.999 4.475 11.08 4.483 L 11.886 4.568 C 11.967 4.576 12.038 4.536 12.044 4.478 L 12.057 4.347 C 12.063 4.289 12.002 4.236 11.921 4.227 L 11.115 4.143 C 11.034 4.134 10.963 4.175 10.957 4.232 L 10.944 4.363 L 10.944 4.363 Z " fill="black" stroke="none"/></mask><path d=" M 10.944 4.363 C 10.938 4.421 10.999 4.475 11.08 4.483 L 11.886 4.568 C 11.967 4.576 12.038 4.536 12.044 4.478 L 12.057 4.347 C 12.063 4.289 12.002 4.236 11.921 4.227 L 11.115 4.143 C 11.034 4.134 10.963 4.175 10.957 4.232 L 10.944 4.363 L 10.944 4.363 Z " fill="rgb(226,226,226)" mask="url(#_mask_YSHQ92FvAOPGXqP1yY1sELrPngVdYRao)" vector-effect="non-scaling-stroke" stroke-width="0.063" stroke="rgb(0,0,0)" stroke-linejoin="miter" stroke-linecap="butt" stroke-miterlimit="10"/><path d=" M 10.944 4.363 C 10.938 4.421 10.999 4.475 11.08 4.483 L 11.886 4.568 C 11.967 4.576 12.038 4.536 12.044 4.478 L 12.057 4.347 C 12.063 4.289 12.002 4.236 11.921 4.227 L 11.115 4.143 C 11.034 4.134 10.963 4.175 10.957 4.232 L 10.944 4.363 L 10.944 4.363 Z " fill="rgb(226,226,226)"/><rect x="2.068" y="4.239" width="0.488" height="0.131" transform="matrix(1,0,0,1,0,0)" fill="rgb(226,226,226)" vector-effect="non-scaling-stroke" stroke-width="0.031" stroke="rgb(0,0,0)" stroke-linejoin="miter" stroke-linecap="butt" stroke-miterlimit="2"/><mask id="_mask_BR6ZbBYf7q89lmqucrYaPoCxPlZrwcFl" x="-200%" y="-200%" width="400%" height="400%"><rect x="-200%" y="-200%" width="400%" height="400%" style="fill:white;"/><path d=" M 2.153 4.343 C 2.159 4.401 2.098 4.455 2.017 4.464 L 1.211 4.548 C 1.13 4.557 1.059 4.516 1.053 4.459 L 1.04 4.328 C 1.034 4.27 1.094 4.216 1.176 4.208 L 1.981 4.123 C 2.063 4.114 2.134 4.155 2.14 4.213 L 2.153 4.343 L 2.153 4.343 Z " fill="black" stroke="none"/></mask><path d=" M 2.153 4.343 C 2.159 4.401 2.098 4.455 2.017 4.464 L 1.211 4.548 C 1.13 4.557 1.059 4.516 1.053 4.459 L 1.04 4.328 C 1.034 4.27 1.094 4.216 1.176 4.208 L 1.981 4.123 C 2.063 4.114 2.134 4.155 2.14 4.213 L 2.153 4.343 L 2.153 4.343 Z " fill="rgb(226,226,226)" mask="url(#_mask_BR6ZbBYf7q89lmqucrYaPoCxPlZrwcFl)" vector-effect="non-scaling-stroke" stroke-width="0.063" stroke="rgb(0,0,0)" stroke-linejoin="miter" stroke-linecap="butt" stroke-miterlimit="10"/><path d=" M 2.153 4.343 C 2.159 4.401 2.098 4.455 2.017 4.464 L 1.211 4.548 C 1.13 4.557 1.059 4.516 1.053 4.459 L 1.04 4.328 C 1.034 4.27 1.094 4.216 1.176 4.208 L 1.981 4.123 C 2.063 4.114 2.134 4.155 2.14 4.213 L 2.153 4.343 L 2.153 4.343 Z " fill="rgb(226,226,226)"/><rect x="7.502" y="31.823" width="1.22" height="0.184" transform="matrix(1,0,0,1,0,0)" fill="rgb(226,226,226)" vector-effect="non-scaling-stroke" stroke-width="0.031" stroke="rgb(0,0,0)" stroke-linejoin="miter" stroke-linecap="butt" stroke-miterlimit="2"/><rect x="4.379" y="31.823" width="1.22" height="0.184" transform="matrix(1,0,0,1,0,0)" fill="rgb(226,226,226)" vector-effect="non-scaling-stroke" stroke-width="0.031" stroke="rgb(0,0,0)" stroke-linejoin="miter" stroke-linecap="butt" stroke-miterlimit="2"/><rect x="4.425" y="29.339" width="0.099" height="0.099" transform="matrix(1,0,0,1,0,0)" fill="rgb(0,140,58)" vector-effect="non-scaling-stroke" stroke-width="0.031" stroke="rgb(0,0,0)" stroke-linejoin="miter" stroke-linecap="butt" stroke-miterlimit="2"/><rect x="4.425" y="29.751" width="0.099" height="0.099" transform="matrix(1,0,0,1,0,0)" fill="rgb(0,140,58)" vector-effect="non-scaling-stroke" stroke-width="0.031" stroke="rgb(0,0,0)" stroke-linejoin="miter" stroke-linecap="butt" stroke-miterlimit="2"/><rect x="4.424" y="29.539" width="0.099" height="0.099" transform="matrix(1,0,0,1,0,0)" fill="rgb(0,140,58)" vector-effect="non-scaling-stroke" stroke-width="0.031" stroke="rgb(0,0,0)" stroke-linejoin="miter" stroke-linecap="butt" stroke-miterlimit="2"/><circle vector-effect="non-scaling-stroke" cx="4.88488961875" cy="29.8009083557" r="0.07280017154999996" fill="rgb(255,0,0)" stroke-width="0.031" stroke="rgb(0,0,0)" stroke-linejoin="miter" stroke-linecap="butt" stroke-miterlimit="10"/></g></svg>