<?xml version="1.0" encoding="UTF-8" standalone="no"?>
<!-- Generator: Adobe Illustrator 15.1.0, SVG Export Plug-In . SVG Version: 6.00 Build 0)  -->

<svg
   xmlns:dc="http://purl.org/dc/elements/1.1/"
   xmlns:cc="http://creativecommons.org/ns#"
   xmlns:rdf="http://www.w3.org/1999/02/22-rdf-syntax-ns#"
   xmlns:svg="http://www.w3.org/2000/svg"
   xmlns="http://www.w3.org/2000/svg"
   xmlns:xlink="http://www.w3.org/1999/xlink"
   xmlns:sodipodi="http://sodipodi.sourceforge.net/DTD/sodipodi-0.dtd"
   xmlns:inkscape="http://www.inkscape.org/namespaces/inkscape"
   version="1.1"
   x="0px"
   y="0px"
   width="12"
   height="14"
   viewBox="0 0 12 14"
   enable-background="new 0 0 1000 1000"
   xml:space="preserve"
   id="svg2"
   inkscape:version="0.48.5 r10040"
   sodipodi:docname="Bell_212_skid_R.svg"><metadata
     id="metadata119"><rdf:RDF><cc:Work
         rdf:about=""><dc:format>image/svg+xml</dc:format><dc:type
           rdf:resource="http://purl.org/dc/dcmitype/StillImage" /><dc:title></dc:title></cc:Work></rdf:RDF></metadata><defs
     id="defs117"><linearGradient
       id="linearGradient3872"><stop
         style="stop-color:#765337;stop-opacity:1"
         offset="0"
         id="stop3874" /><stop
         id="stop3882"
         offset="0.2226247"
         style="stop-color:#c19069;stop-opacity:1;" /><stop
         id="stop3880"
         offset="0.79017818"
         style="stop-color:#c19069;stop-opacity:1;" /><stop
         style="stop-color:#765337;stop-opacity:1"
         offset="1"
         id="stop3876" /></linearGradient><linearGradient
       inkscape:collect="always"
       xlink:href="#linearGradient3872"
       id="linearGradient4010"
       gradientUnits="userSpaceOnUse"
       x1="434.08401"
       y1="598.33801"
       x2="570.896"
       y2="598.33801" /><linearGradient
       inkscape:collect="always"
       xlink:href="#linearGradient3872"
       id="linearGradient4012"
       gradientUnits="userSpaceOnUse"
       x1="452.78094"
       y1="503.25299"
       x2="552.01666"
       y2="503.25299" /><linearGradient
       inkscape:collect="always"
       xlink:href="#linearGradient3872"
       id="linearGradient4014"
       gradientUnits="userSpaceOnUse"
       x1="478.70099"
       y1="743.76703"
       x2="526.28003"
       y2="743.76703" /><linearGradient
       inkscape:collect="always"
       xlink:href="#linearGradient3872"
       id="linearGradient4129"
       gradientUnits="userSpaceOnUse"
       x1="434.08401"
       y1="598.33801"
       x2="570.896"
       y2="598.33801" /><linearGradient
       inkscape:collect="always"
       xlink:href="#linearGradient3872"
       id="linearGradient4131"
       gradientUnits="userSpaceOnUse"
       x1="452.78094"
       y1="503.25299"
       x2="552.01666"
       y2="503.25299" /><linearGradient
       inkscape:collect="always"
       xlink:href="#linearGradient3872"
       id="linearGradient4133"
       gradientUnits="userSpaceOnUse"
       x1="478.70099"
       y1="743.76703"
       x2="526.28003"
       y2="743.76703" /><linearGradient
       inkscape:collect="always"
       xlink:href="#linearGradient3872"
       id="linearGradient4226"
       gradientUnits="userSpaceOnUse"
       x1="452.78094"
       y1="503.25299"
       x2="552.01666"
       y2="503.25299"
       gradientTransform="matrix(0.07593166,0,0,0.07593166,-13.157244,-6.7949087)" /><linearGradient
       inkscape:collect="always"
       xlink:href="#linearGradient3872"
       id="linearGradient4233"
       gradientUnits="userSpaceOnUse"
       x1="434.08401"
       y1="598.33801"
       x2="570.896"
       y2="598.33801"
       gradientTransform="matrix(0.07593166,0,0,0.07593166,-13.157244,-6.7949087)" /><linearGradient
       inkscape:collect="always"
       xlink:href="#linearGradient3872"
       id="linearGradient4250"
       gradientUnits="userSpaceOnUse"
       gradientTransform="matrix(0.07593166,0,0,0.07593166,-13.157244,-6.7949087)"
       x1="434.08401"
       y1="598.33801"
       x2="570.896"
       y2="598.33801" /><linearGradient
       inkscape:collect="always"
       xlink:href="#linearGradient3872"
       id="linearGradient4253"
       gradientUnits="userSpaceOnUse"
       gradientTransform="matrix(0.07593166,0,0,0.07593166,-31.938494,-17.107409)"
       x1="434.08401"
       y1="598.33801"
       x2="570.896"
       y2="598.33801" /><linearGradient
       inkscape:collect="always"
       xlink:href="#linearGradient3872"
       id="linearGradient4265"
       gradientUnits="userSpaceOnUse"
       gradientTransform="matrix(0.07593166,0,0,0.07593166,-31.938494,-17.107409)"
       x1="434.08401"
       y1="598.33801"
       x2="570.896"
       y2="598.33801" /></defs><sodipodi:namedview
     pagecolor="#ffffff"
     bordercolor="#666666"
     borderopacity="1"
     objecttolerance="10"
     gridtolerance="10"
     guidetolerance="10"
     inkscape:pageopacity="0"
     inkscape:pageshadow="2"
     inkscape:window-width="1920"
     inkscape:window-height="1060"
     id="namedview115"
     showgrid="false"
     inkscape:zoom="15.104"
     inkscape:cx="16.044147"
     inkscape:cy="-9.1518527"
     inkscape:window-x="-2"
     inkscape:window-y="-3"
     inkscape:window-maximized="1"
     inkscape:current-layer="svg2"
     fit-margin-top="1"
     fit-margin-left="1"
     fit-margin-right="1"
     fit-margin-bottom="1"
     showborder="true"
     inkscape:showpageshadow="false" /><g
     id="g4255"
     transform="translate(-0.203125,0.2199332)"><path
       inkscape:connector-curvature="0"
       id="path28"
       d="M 6.21875,2.125 C 5.261024,2.125 4.141801,2.44428 3.125,3.46875 2.237814,4.312958 1.75,5.78125 1.75,5.78125 c 0,0 -0.685977,5.133746 -0.6875,7.21875 l 10.3125,0 c -0.0015,-2.085073 -0.6875,-7.21875 -0.6875,-7.21875 0,0 -0.487815,-1.468292 -1.375,-2.3125 C 8.295775,2.444356 7.176552,2.125 6.21875,2.125 z"
       style="fill:url(#linearGradient4265);fill-opacity:1;stroke:none" /><path
       inkscape:connector-curvature="0"
       id="path4239"
       d="m 6.21875,2.09375 c -0.968461,0 -2.098842,0.309853 -3.125,1.34375 C 2.192203,4.295374 1.6875,5.78125 1.6875,5.78125 1.6875,5.78125 1.00148,10.903117 1,13 l 0.125,0 c 0.0021,-2.064134 0.681698,-7.143523 0.6875,-7.1875 2.5e-5,-1.89e-4 0,-0.03125 0,-0.03125 C 1.8223,5.75219 2.292243,4.322152 3.15625,3.5 4.163694,2.484957 5.271759,2.1875 6.21875,2.1875 c 0.947065,0 2.055132,0.297533 3.0625,1.3125 0.864005,0.822151 1.333963,2.252191 1.34375,2.28125 0,0 -2.5e-5,0.03106 0,0.03125 0.0058,0.04397 0.685396,5.123298 0.6875,7.1875 l 0.09375,0 c -0.0015,-2.096953 -0.6875,-7.21875 -0.6875,-7.21875 0,0 -0.473453,-1.485875 -1.375,-2.34375 C 8.317668,2.403679 7.187289,2.09375 6.21875,2.09375 z"
       style="font-size:medium;font-style:normal;font-variant:normal;font-weight:normal;font-stretch:normal;text-indent:0;text-align:start;text-decoration:none;line-height:normal;letter-spacing:normal;word-spacing:normal;text-transform:none;direction:ltr;block-progression:tb;writing-mode:lr-tb;text-anchor:start;baseline-shift:baseline;color:#000000;fill:#000000;fill-opacity:1;fill-rule:nonzero;stroke:none;stroke-width:0.07593166;marker:none;visibility:visible;display:inline;overflow:visible;enable-background:accumulate;font-family:Sans;-inkscape-font-specification:Sans" /><path
       style="fill:#1f1f1f;stroke:#000000;stroke-width:0.07593166;stroke-miterlimit:10"
       inkscape:connector-curvature="0"
       stroke-miterlimit="10"
       d="M 7.67885,9.9432449 V 7.323603 l 1.670496,0.341692 c 0,0 0.873214,0.188842 0.873214,0.930163 0,0.741321 0.03797,1.3477869 0.03797,1.3477869 H 7.67885 z"
       id="path30" /><path
       style="fill:#1f1f1f;stroke:#000000;stroke-width:0.07593166;stroke-miterlimit:10"
       inkscape:connector-curvature="0"
       stroke-miterlimit="10"
       d="M 10.271536,7.418517 C 10.481335,6.83316 10.507304,5.918867 10.507304,5.918867 9.455195,4.457183 6.406994,4.684978 6.406994,4.684978 v 1.917274 c 0,0 3.628698,0.227795 3.864542,0.816265 z"
       id="path32" /><path
       style="fill:#1f1f1f;stroke:#000000;stroke-width:0.07593166;stroke-miterlimit:10"
       inkscape:connector-curvature="0"
       stroke-miterlimit="10"
       d="M 4.755481,9.9591909 V 7.339549 L 3.084984,7.681241 c 0,0 -0.873214,0.188842 -0.873214,0.930163 0,0.741321 -0.03797,1.3477869 -0.03797,1.3477869 h 2.581677 z"
       id="path34" /><path
       style="fill:#1f1f1f;stroke:#000000;stroke-width:0.07593166;stroke-miterlimit:10"
       inkscape:connector-curvature="0"
       stroke-miterlimit="10"
       d="M 2.162794,7.434463 C 1.952995,6.849106 1.927026,5.934813 1.927026,5.934813 2.979135,4.473128 6.027336,4.700923 6.027336,4.700923 v 1.917275 c 0,0 -3.628698,0.227795 -3.864542,0.816265 z"
       id="path36" /><polygon
       transform="matrix(0.07593166,0,0,0.07593166,-31.938494,-17.107409)"
       stroke-miterlimit="10"
       points="532,261.939 532,233.5 535.667,233.5 535.667,264.447 "
       id="polygon46"
       style="fill:#c19069;fill-opacity:1;stroke:#000000;stroke-miterlimit:10" /><polygon
       transform="matrix(0.07593166,0,0,0.07593166,-31.938494,-17.107409)"
       stroke-miterlimit="10"
       points="472.667,261.939 472.667,233.5 469,233.5 469,264.447 "
       id="polygon48"
       style="fill:#c19069;fill-opacity:1;stroke:#000000;stroke-miterlimit:10" /></g></svg>