<?xml version="1.0" encoding="UTF-8" standalone="no"?>
<!-- Generator: Adobe Illustrator 15.1.0, SVG Export Plug-In . SVG Version: 6.00 Build 0)  -->

<svg
   xmlns:dc="http://purl.org/dc/elements/1.1/"
   xmlns:cc="http://creativecommons.org/ns#"
   xmlns:rdf="http://www.w3.org/1999/02/22-rdf-syntax-ns#"
   xmlns:svg="http://www.w3.org/2000/svg"
   xmlns="http://www.w3.org/2000/svg"
   xmlns:xlink="http://www.w3.org/1999/xlink"
   xmlns:sodipodi="http://sodipodi.sourceforge.net/DTD/sodipodi-0.dtd"
   xmlns:inkscape="http://www.inkscape.org/namespaces/inkscape"
   version="1.1"
   x="0px"
   y="0px"
   width="12"
   height="17"
   viewBox="0 0 12 17"
   enable-background="new 0 0 1000 1000"
   xml:space="preserve"
   id="svg2"
   inkscape:version="0.48.5 r10040"
   sodipodi:docname="Bell_212_fuselage_1.svg"><metadata
     id="metadata119"><rdf:RDF><cc:Work
         rdf:about=""><dc:format>image/svg+xml</dc:format><dc:type
           rdf:resource="http://purl.org/dc/dcmitype/StillImage" /><dc:title></dc:title></cc:Work></rdf:RDF></metadata><defs
     id="defs117"><linearGradient
       id="linearGradient3872"><stop
         style="stop-color:#765337;stop-opacity:1"
         offset="0"
         id="stop3874" /><stop
         id="stop3882"
         offset="0.2226247"
         style="stop-color:#c19069;stop-opacity:1;" /><stop
         id="stop3880"
         offset="0.79017818"
         style="stop-color:#c19069;stop-opacity:1;" /><stop
         style="stop-color:#765337;stop-opacity:1"
         offset="1"
         id="stop3876" /></linearGradient><linearGradient
       inkscape:collect="always"
       xlink:href="#linearGradient3872"
       id="linearGradient4010"
       gradientUnits="userSpaceOnUse"
       x1="434.08401"
       y1="598.33801"
       x2="570.896"
       y2="598.33801" /><linearGradient
       inkscape:collect="always"
       xlink:href="#linearGradient3872"
       id="linearGradient4012"
       gradientUnits="userSpaceOnUse"
       x1="452.78094"
       y1="503.25299"
       x2="552.01666"
       y2="503.25299" /><linearGradient
       inkscape:collect="always"
       xlink:href="#linearGradient3872"
       id="linearGradient4014"
       gradientUnits="userSpaceOnUse"
       x1="478.70099"
       y1="743.76703"
       x2="526.28003"
       y2="743.76703" /><linearGradient
       inkscape:collect="always"
       xlink:href="#linearGradient3872"
       id="linearGradient4133"
       gradientUnits="userSpaceOnUse"
       x1="478.70099"
       y1="743.76703"
       x2="526.28003"
       y2="743.76703" /><linearGradient
       inkscape:collect="always"
       xlink:href="#linearGradient3872"
       id="linearGradient4226"
       gradientUnits="userSpaceOnUse"
       x1="452.78094"
       y1="503.25299"
       x2="552.01666"
       y2="503.25299"
       gradientTransform="matrix(0.07593166,0,0,0.07593166,-31.938255,-29.115565)" /><linearGradient
       inkscape:collect="always"
       xlink:href="#linearGradient3872"
       id="linearGradient4233"
       gradientUnits="userSpaceOnUse"
       x1="434.08401"
       y1="598.33801"
       x2="570.896"
       y2="598.33801"
       gradientTransform="matrix(0.07593166,0,0,0.07593166,-13.157244,-6.7949087)" /><linearGradient
       inkscape:collect="always"
       xlink:href="#linearGradient3872"
       id="linearGradient4290"
       gradientUnits="userSpaceOnUse"
       gradientTransform="matrix(0.07593166,0,0,0.07593166,-31.938255,-29.115565)"
       x1="434.08401"
       y1="598.33801"
       x2="570.896"
       y2="598.33801" /><linearGradient
       inkscape:collect="always"
       xlink:href="#linearGradient3872"
       id="linearGradient4304"
       gradientUnits="userSpaceOnUse"
       gradientTransform="matrix(0.07593166,0,0,0.07593166,-31.938255,-29.115565)"
       x1="434.08401"
       y1="598.33801"
       x2="570.896"
       y2="598.33801" /><linearGradient
       inkscape:collect="always"
       xlink:href="#linearGradient3872"
       id="linearGradient4306"
       gradientUnits="userSpaceOnUse"
       gradientTransform="matrix(0.07593166,0,0,0.07593166,-31.938255,-29.115565)"
       x1="452.78094"
       y1="503.25299"
       x2="552.01666"
       y2="503.25299" /></defs><sodipodi:namedview
     pagecolor="#ffffff"
     bordercolor="#666666"
     borderopacity="1"
     objecttolerance="10"
     gridtolerance="10"
     guidetolerance="10"
     inkscape:pageopacity="0"
     inkscape:pageshadow="2"
     inkscape:window-width="1920"
     inkscape:window-height="1060"
     id="namedview115"
     showgrid="false"
     inkscape:zoom="15.104"
     inkscape:cx="9.7101701"
     inkscape:cy="4.932044"
     inkscape:window-x="-2"
     inkscape:window-y="-3"
     inkscape:window-maximized="1"
     inkscape:current-layer="svg2"
     fit-margin-top="1"
     fit-margin-left="1"
     fit-margin-right="1"
     fit-margin-bottom="1"
     showborder="true"
     inkscape:showpageshadow="false" /><g
     id="g4292"
     transform="translate(-0.21886949,0.00407841)"><path
       inkscape:connector-curvature="0"
       id="path28"
       d="m 1.062739,0.99184418 c -3e-5,0.04144 -5.19e-4,0.11730902 0,0.15625002 0,1.271096 0,1.605101 0,3.3125 0,1.707399 2.90625,7.3437498 2.90625,7.3437498 0,0 4.555416,-0.02558 4.46875,0 0,0 2.9375,-5.6363508 2.9375,-7.3437498 0,-1.707475 0,-2.041404 0,-3.3125 5.19e-4,-0.03894 3e-5,-0.114808 0,-0.15625002 l -10.3125,0 z"
       style="fill:url(#linearGradient4304);fill-opacity:1;stroke:none" /><path
       inkscape:connector-curvature="0"
       id="path4239"
       d="m 1.000239,0.99184418 c -2.9e-5,0.04168 -5.2298e-4,0.11705502 0,0.15625002 l 0,3.3125 c 0,0.441114 0.194026,1.13512 0.46875,1.90625 0.274724,0.77113 0.634347,1.624758 1,2.4375 0.731306,1.6254828 1.46875,3.0312498 1.46875,3.0312498 l 0,0.03125 0.03125,0 c 0,0 1.153651,0.0032 2.28125,0 0.5638,-0.0016 1.116685,-0.0012 1.53125,0 0.207283,5.99e-4 0.384189,-0.0017 0.5,0 0.04343,6.53e-4 0.06693,-8.3e-4 0.09375,0 l 0.03125,0 0.0625,0 c 1.97e-4,-9.8e-5 0.03119,-0.03115 0.03125,-0.03125 0,0 0.737463,-1.405786 1.46875,-3.0312498 0.365643,-0.812732 0.725284,-1.666377 1,-2.4375 0.274716,-0.771123 0.46875,-1.465137 0.46875,-1.90625 0,-1.707573 -0.03125,-2.041535 -0.03125,-3.3125 5.23e-4,-0.0392 3e-5,-0.114571 0,-0.15625002 l -0.09375,0 c 4.2e-5,0.04169 5.22e-4,0.11711602 0,0.15625002 l 0,3.3125 c 0,0.412586 -0.164256,1.076759 -0.4375,1.84375 -0.273244,0.766991 -0.635029,1.657513 -1,2.46875 -0.720895,1.6023648 -1.419737,2.9656728 -1.4375,2.9999998 -7.3e-5,1.41e-4 -0.0312,-9.5e-5 -0.03125,0 -0.02959,-0.0013 -0.06667,8.77e-4 -0.125,0 -0.116654,-0.0018 -0.292523,-0.03065 -0.5,-0.03125 -0.414955,-0.0012 -0.967357,-0.0016 -1.53125,0 -1.096894,0.0031 -2.158922,0.03092 -2.21875,0.03125 -0.01204,-0.02326 -0.744884,-1.391053 -1.46875,-2.9999998 -0.36498,-0.811247 -0.726749,-1.701752 -1,-2.46875 -0.273251,-0.766998 -0.4375,-1.431164 -0.4375,-1.84375 l 0,-3.3125 c -5.22e-4,-0.03913 -4.2e-5,-0.114562 0,-0.15625002 l -0.125,0 z"
       style="font-size:medium;font-style:normal;font-variant:normal;font-weight:normal;font-stretch:normal;text-indent:0;text-align:start;text-decoration:none;line-height:normal;letter-spacing:normal;word-spacing:normal;text-transform:none;direction:ltr;block-progression:tb;writing-mode:lr-tb;text-anchor:start;baseline-shift:baseline;color:#000000;fill:#000000;fill-opacity:1;fill-rule:nonzero;stroke:none;stroke-width:0.07593166;marker:none;visibility:visible;display:inline;overflow:visible;enable-background:accumulate;font-family:Sans;-inkscape-font-specification:Sans" /><path
       inkscape:connector-curvature="0"
       stroke-miterlimit="10"
       d="M 6.027727,15.937043 C 5.709194,15.890953 5.229989,15.817754 4.789433,15.734761 4.043784,15.594288 3.969068,11.830583 3.969068,11.830583 c 0,0 -1.145961,-2.9803178 -1.348471,-4.1699388 C 2.418088,6.4710232 2.494095,5.8889312 2.494095,5.8889312 l 1.36677,-0.556807 0.07593,-1.214907 c 0,0 -0.160368,-1.69525 2.090702,-1.860174 h 0.364092 c 2.25145,0.164696 2.091082,1.860174 2.091082,1.860174 l 0.07593,1.214907 1.36677,0.556807 c 0,0 0.07593,0.582168 -0.126578,1.771713 -0.20251,1.189545 -1.348471,4.1699388 -1.348471,4.1699388 0,0 -0.07464,3.763705 -0.820365,3.904178 -0.441847,0.08322 -0.922722,0.156647 -1.241331,0.202738 l -0.360903,-4.56e-4 z"
       id="path38"
       style="fill:url(#linearGradient4306);fill-opacity:1;stroke:#000000;stroke-width:0.07593166;stroke-miterlimit:10" /><circle
       transform="matrix(0.07593166,0,0,0.07593166,-31.938255,-29.115565)"
       sodipodi:ry="7"
       sodipodi:rx="7"
       sodipodi:cy="412.33301"
       sodipodi:cx="548.75"
       stroke-miterlimit="10"
       cx="548.75"
       cy="412.33301"
       r="7"
       id="circle40"
       style="fill:#c19069;fill-opacity:1;stroke:#000000;stroke-miterlimit:10"
       d="m 555.75,412.33301 c 0,3.86599 -3.13401,7 -7,7 -3.86599,0 -7,-3.13401 -7,-7 0,-3.866 3.13401,-7 7,-7 3.86599,0 7,3.134 7,7 z" /><circle
       transform="matrix(0.07593166,0,0,0.07593166,-31.938255,-29.115565)"
       sodipodi:ry="7"
       sodipodi:rx="7"
       sodipodi:cy="412.33301"
       sodipodi:cx="456.25"
       stroke-miterlimit="10"
       cx="456.25"
       cy="412.33301"
       r="7"
       id="circle42"
       style="fill:#c19069;fill-opacity:1;stroke:#000000;stroke-miterlimit:10"
       d="m 463.25,412.33301 c 0,3.86599 -3.13401,7 -7,7 -3.86599,0 -7,-3.13401 -7,-7 0,-3.866 3.13401,-7 7,-7 3.86599,0 7,3.134 7,7 z" /><polygon
       transform="matrix(0.07593166,0,0,0.07593166,-31.938255,-29.115565)"
       stroke-miterlimit="10"
       points="502.277,569.667 502.399,569.667 521.167,569.667 523,492.615 502.399,492.615 502.277,492.615 481.677,492.615 483.51,569.667 "
       id="polygon50"
       style="fill:#c19069;fill-opacity:1;stroke:#000000;stroke-miterlimit:10" /><rect
       x="6.5088315"
       y="11.495193"
       stroke-miterlimit="10"
       width="0.98673189"
       height="2.4424937"
       id="rect52"
       style="fill:#c19069;fill-opacity:1;stroke:#000000;stroke-width:0.07593166;stroke-miterlimit:10" /><circle
       transform="matrix(0.07593166,0,0,0.07593166,-31.938255,-29.115565)"
       sodipodi:ry="6.0840001"
       sodipodi:rx="6.0840001"
       sodipodi:cy="514.58398"
       sodipodi:cx="512.422"
       stroke-miterlimit="10"
       cx="512.422"
       cy="514.58398"
       r="6.0840001"
       id="circle54"
       style="fill:#c19069;fill-opacity:1;stroke:#000000;stroke-miterlimit:10"
       d="m 518.506,514.58398 c 0,3.3601 -2.7239,6.084 -6.084,6.084 -3.3601,0 -6.084,-2.7239 -6.084,-6.084 0,-3.3601 2.7239,-6.084 6.084,-6.084 3.3601,0 6.084,2.7239 6.084,6.084 z" /><rect
       x="4.9147191"
       y="11.495193"
       stroke-miterlimit="10"
       width="0.98673189"
       height="2.4424937"
       id="rect56"
       style="fill:#c19069;fill-opacity:1;stroke:#000000;stroke-width:0.07593166;stroke-miterlimit:10" /><circle
       transform="matrix(0.07593166,0,0,0.07593166,-31.938255,-29.115565)"
       sodipodi:ry="6.0840001"
       sodipodi:rx="6.0840001"
       sodipodi:cy="514.58398"
       sodipodi:cx="491.978"
       stroke-miterlimit="10"
       cx="491.978"
       cy="514.58398"
       r="6.0840001"
       id="circle58"
       style="fill:#c19069;fill-opacity:1;stroke:#000000;stroke-miterlimit:10"
       d="m 498.062,514.58398 c 0,3.3601 -2.7239,6.084 -6.084,6.084 -3.3601,0 -6.084,-2.7239 -6.084,-6.084 0,-3.3601 2.7239,-6.084 6.084,-6.084 3.3601,0 6.084,2.7239 6.084,6.084 z" /></g></svg>