<?xml version="1.0" encoding="UTF-8" standalone="no"?>
<!-- Generator: Adobe Illustrator 15.1.0, SVG Export Plug-In . SVG Version: 6.00 Build 0)  -->

<svg
   xmlns:dc="http://purl.org/dc/elements/1.1/"
   xmlns:cc="http://creativecommons.org/ns#"
   xmlns:rdf="http://www.w3.org/1999/02/22-rdf-syntax-ns#"
   xmlns:svg="http://www.w3.org/2000/svg"
   xmlns="http://www.w3.org/2000/svg"
   xmlns:xlink="http://www.w3.org/1999/xlink"
   xmlns:sodipodi="http://sodipodi.sourceforge.net/DTD/sodipodi-0.dtd"
   xmlns:inkscape="http://www.inkscape.org/namespaces/inkscape"
   version="1.1"
   x="0px"
   y="0px"
   width="50"
   height="69"
   viewBox="0 0 50 69"
   enable-background="new 0 0 1000 1000"
   xml:space="preserve"
   id="svg2"
   inkscape:version="0.48.5 r10040"
   sodipodi:docname="Bell_212.svg"><metadata
     id="metadata119"><rdf:RDF><cc:Work
         rdf:about=""><dc:format>image/svg+xml</dc:format><dc:type
           rdf:resource="http://purl.org/dc/dcmitype/StillImage" /></cc:Work></rdf:RDF></metadata><defs
     id="defs117"><linearGradient
       id="linearGradient3872"><stop
         style="stop-color:#765337;stop-opacity:1"
         offset="0"
         id="stop3874" /><stop
         id="stop3882"
         offset="0.2226247"
         style="stop-color:#c19069;stop-opacity:1;" /><stop
         id="stop3880"
         offset="0.79017818"
         style="stop-color:#c19069;stop-opacity:1;" /><stop
         style="stop-color:#765337;stop-opacity:1"
         offset="1"
         id="stop3876" /></linearGradient><linearGradient
       inkscape:collect="always"
       xlink:href="#linearGradient3872"
       id="linearGradient3878"
       x1="434.08401"
       y1="598.33801"
       x2="570.896"
       y2="598.33801"
       gradientUnits="userSpaceOnUse" /><linearGradient
       inkscape:collect="always"
       xlink:href="#linearGradient3872"
       id="linearGradient3890"
       x1="452.78094"
       y1="503.25299"
       x2="552.01666"
       y2="503.25299"
       gradientUnits="userSpaceOnUse" /><linearGradient
       inkscape:collect="always"
       xlink:href="#linearGradient3872"
       id="linearGradient3892"
       x1="478.70099"
       y1="743.76703"
       x2="526.28003"
       y2="743.76703"
       gradientUnits="userSpaceOnUse" /><linearGradient
       inkscape:collect="always"
       xlink:href="#linearGradient3872"
       id="linearGradient3937"
       gradientUnits="userSpaceOnUse"
       x1="434.08401"
       y1="598.33801"
       x2="570.896"
       y2="598.33801" /><linearGradient
       inkscape:collect="always"
       xlink:href="#linearGradient3872"
       id="linearGradient3939"
       gradientUnits="userSpaceOnUse"
       x1="452.78094"
       y1="503.25299"
       x2="552.01666"
       y2="503.25299" /><linearGradient
       inkscape:collect="always"
       xlink:href="#linearGradient3872"
       id="linearGradient3941"
       gradientUnits="userSpaceOnUse"
       x1="478.70099"
       y1="743.76703"
       x2="526.28003"
       y2="743.76703" /><linearGradient
       inkscape:collect="always"
       xlink:href="#linearGradient3872"
       id="linearGradient3943"
       gradientUnits="userSpaceOnUse"
       x1="434.08401"
       y1="598.33801"
       x2="570.896"
       y2="598.33801" /><linearGradient
       inkscape:collect="always"
       xlink:href="#linearGradient3872"
       id="linearGradient3945"
       gradientUnits="userSpaceOnUse"
       x1="452.78094"
       y1="503.25299"
       x2="552.01666"
       y2="503.25299" /><linearGradient
       inkscape:collect="always"
       xlink:href="#linearGradient3872"
       id="linearGradient3947"
       gradientUnits="userSpaceOnUse"
       x1="478.70099"
       y1="743.76703"
       x2="526.28003"
       y2="743.76703" /><linearGradient
       inkscape:collect="always"
       xlink:href="#linearGradient3872"
       id="linearGradient4010"
       gradientUnits="userSpaceOnUse"
       x1="434.08401"
       y1="598.33801"
       x2="570.896"
       y2="598.33801" /><linearGradient
       inkscape:collect="always"
       xlink:href="#linearGradient3872"
       id="linearGradient4012"
       gradientUnits="userSpaceOnUse"
       x1="452.78094"
       y1="503.25299"
       x2="552.01666"
       y2="503.25299" /><linearGradient
       inkscape:collect="always"
       xlink:href="#linearGradient3872"
       id="linearGradient4014"
       gradientUnits="userSpaceOnUse"
       x1="478.70099"
       y1="743.76703"
       x2="526.28003"
       y2="743.76703" /></defs><sodipodi:namedview
     pagecolor="#ffffff"
     bordercolor="#666666"
     borderopacity="1"
     objecttolerance="10"
     gridtolerance="10"
     guidetolerance="10"
     inkscape:pageopacity="0"
     inkscape:pageshadow="2"
     inkscape:window-width="1920"
     inkscape:window-height="1060"
     id="namedview115"
     showgrid="false"
     inkscape:zoom="10.680141"
     inkscape:cx="4.2070926"
     inkscape:cy="32.454428"
     inkscape:window-x="-2"
     inkscape:window-y="-3"
     inkscape:window-maximized="1"
     inkscape:current-layer="svg2"
     fit-margin-top="1"
     fit-margin-left="1"
     fit-margin-right="1"
     fit-margin-bottom="1" /><g
     id="g3949"
     transform="translate(-0.20275762,-0.07830193)"><g
       transform="matrix(0.07593166,0,0,0.07593166,-12.954486,-6.7166068)"
       id="g3894"><g
         id="Landing_Skids"><path
           inkscape:connector-curvature="0"
           stroke-miterlimit="10"
           d="m 563.667,503.253 h 8.666 c 0,0 0,-154.253 0,-159.253 0,-5 3.334,-10.667 3.001,-14.667 -4.5,-4.5 -8.666,0 -8.666,0 0,0 -3.001,9.833 -3.001,15 0,5.167 0,158.92 0,158.92 z"
           id="path5"
           style="fill:#ab7a54;fill-opacity:1;stroke:#000000;stroke-miterlimit:10" /><path
           inkscape:connector-curvature="0"
           stroke-miterlimit="10"
           d="m 441.5,503.253 h -8.666 c 0,0 0,-154.253 0,-159.253 0,-5 -3.334,-10.667 -3.001,-14.667 4.5,-4.5 8.666,0 8.666,0 0,0 3.001,9.833 3.001,15 0,5.167 0,158.92 0,158.92 z"
           id="path7"
           style="fill:#ab7a54;fill-opacity:1;stroke:#000000;stroke-miterlimit:10" /></g><g
         id="L_Tail"><rect
           x="419.04199"
           y="724.565"
           stroke-miterlimit="10"
           width="68.333"
           height="39.102001"
           id="rect10"
           style="fill:#c19069;fill-opacity:1;stroke:#000000;stroke-miterlimit:10" /><rect
           x="419.04199"
           y="744.11603"
           stroke-miterlimit="10"
           width="68.333"
           height="19.551001"
           id="rect12"
           style="fill:#ab7a54;fill-opacity:1;stroke:#000000;stroke-miterlimit:10" /></g><g
         id="R_Tail"><rect
           x="517.66699"
           y="724.565"
           stroke-miterlimit="10"
           width="68.333"
           height="39.102001"
           id="rect15"
           style="fill:#c19069;fill-opacity:1;stroke:#000000;stroke-miterlimit:10" /><rect
           x="517.66699"
           y="744.11603"
           stroke-miterlimit="10"
           width="68.333"
           height="19.551001"
           id="rect17"
           style="fill:#ab7a54;fill-opacity:1;stroke:#000000;stroke-miterlimit:10" /></g><g
         id="Body"><path
           inkscape:connector-curvature="0"
           stroke-miterlimit="10"
           d="m 519.243,941.823 c 3.036,0 5.499,-3.816 5.499,-8.522 0,-4.707 -2.463,-8.523 -5.499,-8.523 v 17.045 z"
           id="path20"
           style="fill:#c19069;fill-opacity:1;stroke:#000000;stroke-miterlimit:10" /><path
           inkscape:connector-curvature="0"
           stroke-miterlimit="10"
           d="m 516.582,934.342 2.661,1.097 v 47.736 c 0,0 -3.793,-1.115 -3.793,-3.288 0,-2.172 1.132,-45.545 1.132,-45.545 z"
           id="path22"
           style="fill:#c19069;fill-opacity:1;stroke:#000000;stroke-miterlimit:10" /><path
           inkscape:connector-curvature="0"
           stroke-miterlimit="10"
           d="m 515.493,979.4 c 0,2.332 3.75,3.774 3.75,3.774 v -9.012 l -3.75,-0.975 c 0,10e-4 0,3.88 0,6.213 z"
           id="path24"
           style="fill:#c19069;fill-opacity:1;stroke:#000000;stroke-miterlimit:10" /><rect
           x="507.336"
           y="931.25897"
           stroke-miterlimit="10"
           width="11.903"
           height="4.0830002"
           id="rect26"
           style="fill:#c19069;fill-opacity:1;stroke:#000000;stroke-miterlimit:10" /><path
           sodipodi:nodetypes="scccsccscccs"
           inkscape:connector-curvature="0"
           stroke-miterlimit="10"
           d="m 502.49,253.435 c -12.613,0 -27.317,4.062 -40.708,17.554 -11.684,11.118 -18.117,30.48 -18.117,30.48 0,0 -9.365,70.79 -9.014,97.105 0,16.74 -0.067,21.217 -0.067,43.703 0,22.486 38.489,96.793 38.489,96.793 0,0 59.97636,-0.3369 58.835,0 0,0 38.488,-74.306 38.488,-96.792 0,-22.487 -0.066,-26.963 -0.066,-43.703 0.351,-26.316 -9.015,-97.105 -9.015,-97.105 0,0 -6.433,-19.363 -18.117,-30.481 -13.39,-13.491 -28.094,-17.554 -40.708,-17.554 z"
           id="path28"
           style="fill:url(#linearGradient4010);fill-opacity:1;stroke:#000000;stroke-miterlimit:10" /><path
           style="fill:#1f1f1f;stroke:#000000;stroke-miterlimit:10"
           inkscape:connector-curvature="0"
           stroke-miterlimit="10"
           d="m 521.75,356.25 v -34.5 l 22,4.5 c 0,0 11.5,2.487 11.5,12.25 0,9.763 0.5,17.75 0.5,17.75 h -34 z"
           id="path30" /><path
           style="fill:#1f1f1f;stroke:#000000;stroke-miterlimit:10"
           inkscape:connector-curvature="0"
           stroke-miterlimit="10"
           d="M 555.895,323 C 558.658,315.291 559,303.25 559,303.25 545.144,284 505,287 505,287 v 25.25 c 0,0 47.789,3 50.895,10.75 z"
           id="path32" /><path
           style="fill:#1f1f1f;stroke:#000000;stroke-miterlimit:10"
           inkscape:connector-curvature="0"
           stroke-miterlimit="10"
           d="m 483.25,356.46 v -34.5 l -22,4.5 c 0,0 -11.5,2.487 -11.5,12.25 0,9.763 -0.5,17.75 -0.5,17.75 h 34 z"
           id="path34" /><path
           style="fill:#1f1f1f;stroke:#000000;stroke-miterlimit:10"
           inkscape:connector-curvature="0"
           stroke-miterlimit="10"
           d="M 449.105,323.21 C 446.342,315.501 446,303.46 446,303.46 c 13.856,-19.25 54,-16.25 54,-16.25 v 25.25 c 0,0 -47.789,3 -50.895,10.75 z"
           id="path36" /><path
           inkscape:connector-curvature="0"
           stroke-miterlimit="10"
           d="m 500.002,593.331 c -4.195,-0.607 -10.506,-1.571 -16.308,-2.664 -9.82,-1.85 -10.804,-51.417 -10.804,-51.417 0,0 -15.092,-39.25 -17.759,-54.917 C 452.464,468.666 453.465,461 453.465,461 l 18,-7.333 1,-16 c 0,0 -2.112,-22.326 27.534,-24.498 h 4.795 c 29.651,2.169 27.539,24.498 27.539,24.498 l 1,16 18,7.333 c 0,0 1,7.667 -1.667,23.333 -2.667,15.666 -17.759,54.917 -17.759,54.917 0,0 -0.983,49.567 -10.804,51.417 -5.819,1.096 -12.152,2.063 -16.348,2.67 l -4.753,-0.006 z"
           id="path38"
           style="fill:url(#linearGradient4012);fill-opacity:1;stroke:#000000;stroke-miterlimit:10" /><circle
           sodipodi:ry="7"
           sodipodi:rx="7"
           sodipodi:cy="412.33301"
           sodipodi:cx="548.75"
           stroke-miterlimit="10"
           cx="548.75"
           cy="412.33301"
           r="7"
           id="circle40"
           style="fill:#c19069;fill-opacity:1;stroke:#000000;stroke-miterlimit:10"
           d="m 555.75,412.33301 c 0,3.86599 -3.13401,7 -7,7 -3.86599,0 -7,-3.13401 -7,-7 0,-3.866 3.13401,-7 7,-7 3.86599,0 7,3.134 7,7 z" /><circle
           sodipodi:ry="7"
           sodipodi:rx="7"
           sodipodi:cy="412.33301"
           sodipodi:cx="456.25"
           stroke-miterlimit="10"
           cx="456.25"
           cy="412.33301"
           r="7"
           id="circle42"
           style="fill:#c19069;fill-opacity:1;stroke:#000000;stroke-miterlimit:10"
           d="m 463.25,412.33301 c 0,3.86599 -3.13401,7 -7,7 -3.86599,0 -7,-3.13401 -7,-7 0,-3.866 3.13401,-7 7,-7 3.86599,0 7,3.134 7,7 z" /><polygon
           stroke-miterlimit="10"
           points="509.797,898.95 525.78,579.867 479.201,579.867 495.184,898.95 502.49,907.667 "
           id="polygon44"
           style="fill:url(#linearGradient4014);fill-opacity:1;stroke:#000000;stroke-miterlimit:10" /><polygon
           stroke-miterlimit="10"
           points="535.667,264.447 532,261.939 532,233.5 535.667,233.5 "
           id="polygon46"
           style="fill:#c19069;fill-opacity:1;stroke:#000000;stroke-miterlimit:10" /><polygon
           stroke-miterlimit="10"
           points="469,264.447 472.667,261.939 472.667,233.5 469,233.5 "
           id="polygon48"
           style="fill:#c19069;fill-opacity:1;stroke:#000000;stroke-miterlimit:10" /><polygon
           stroke-miterlimit="10"
           points="483.51,569.667 502.277,569.667 502.399,569.667 521.167,569.667 523,492.615 502.399,492.615 502.277,492.615 481.677,492.615 "
           id="polygon50"
           style="fill:#c19069;fill-opacity:1;stroke:#000000;stroke-miterlimit:10" /><rect
           x="506.33801"
           y="534.83301"
           stroke-miterlimit="10"
           width="12.995"
           height="32.167"
           id="rect52"
           style="fill:#c19069;fill-opacity:1;stroke:#000000;stroke-miterlimit:10" /><circle
           sodipodi:ry="6.0840001"
           sodipodi:rx="6.0840001"
           sodipodi:cy="514.58398"
           sodipodi:cx="512.422"
           stroke-miterlimit="10"
           cx="512.422"
           cy="514.58398"
           r="6.0840001"
           id="circle54"
           style="fill:#c19069;fill-opacity:1;stroke:#000000;stroke-miterlimit:10"
           d="m 518.506,514.58398 c 0,3.3601 -2.7239,6.084 -6.084,6.084 -3.3601,0 -6.084,-2.7239 -6.084,-6.084 0,-3.3601 2.7239,-6.084 6.084,-6.084 3.3601,0 6.084,2.7239 6.084,6.084 z" /><rect
           x="485.34399"
           y="534.83301"
           stroke-miterlimit="10"
           width="12.995"
           height="32.167"
           id="rect56"
           style="fill:#c19069;fill-opacity:1;stroke:#000000;stroke-miterlimit:10" /><circle
           sodipodi:ry="6.0840001"
           sodipodi:rx="6.0840001"
           sodipodi:cy="514.58398"
           sodipodi:cx="491.978"
           stroke-miterlimit="10"
           cx="491.978"
           cy="514.58398"
           r="6.0840001"
           id="circle58"
           style="fill:#c19069;fill-opacity:1;stroke:#000000;stroke-miterlimit:10"
           d="m 498.062,514.58398 c 0,3.3601 -2.7239,6.084 -6.084,6.084 -3.3601,0 -6.084,-2.7239 -6.084,-6.084 0,-3.3601 2.7239,-6.084 6.084,-6.084 3.3601,0 6.084,2.7239 6.084,6.084 z" /><path
           inkscape:connector-curvature="0"
           stroke-miterlimit="10"
           d="m 502.49,950.185 c 0,0 -2.494,-3.667 -3.36,-10.184 -1.385,-10.419 -4.98,-33.316 -4.98,-47.816 0,-14.5 8.341,-35.5 8.341,-35.5 0,0 8.341,21 8.341,35.5 0,14.5 -3.596,37.397 -4.979,47.816 -0.869,6.517 -3.363,10.184 -3.363,10.184 z"
           id="path60"
           style="fill:#c19069;fill-opacity:1;stroke:#000000;stroke-miterlimit:10" /><path
           inkscape:connector-curvature="0"
           stroke-miterlimit="10"
           d="m 502.49,950.185 c 0,0 -5.259,-8.685 -5.449,-23.935 0,-6.872 5.449,-13.167 5.449,-13.167 0,0 5.449,6.295 5.449,13.167 -0.189,15.25 -5.449,23.935 -5.449,23.935"
           id="path62"
           style="fill:#c19069;fill-opacity:1;stroke:#000000;stroke-miterlimit:10" /><line
           stroke-miterlimit="10"
           x1="502.48999"
           y1="913.08301"
           x2="502.48999"
           y2="856.685"
           id="line64"
           style="fill:#c19069;fill-opacity:1;stroke:#000000;stroke-miterlimit:10" /><path
           inkscape:connector-curvature="0"
           stroke-miterlimit="10"
           d="m 519.09,932.591 -2.661,-1.097 v -47.736 c 0,0 3.793,1.115 3.793,3.288 0,2.172 -1.132,45.545 -1.132,45.545 z"
           id="path66"
           style="fill:#c19069;fill-opacity:1;stroke:#000000;stroke-miterlimit:10" /><path
           inkscape:connector-curvature="0"
           stroke-miterlimit="10"
           d="m 520.179,887.532 c 0,-2.332 -3.75,-3.774 -3.75,-3.774 v 9.012 l 3.75,0.975 c 0,-10e-4 0,-3.88 0,-6.213 z"
           id="path68"
           style="fill:#c19069;fill-opacity:1;stroke:#000000;stroke-miterlimit:10" /></g></g><g
       transform="matrix(0.08595519,0,0,0.08595519,-17.946966,-14.648307)"
       id="Propeller"><rect
         style="fill:#c19069;fill-opacity:1;stroke:#000000;stroke-miterlimit:10"
         id="rect71"
         height="29.334"
         width="7.6680002"
         stroke-miterlimit="10"
         transform="matrix(-0.7071,0.7071,-0.7071,-0.7071,1192.8425,455.9075)"
         y="460.33301"
         x="498.16599" /><ellipse
         sodipodi:ry="3.25"
         sodipodi:rx="12.084"
         sodipodi:cy="474.88199"
         sodipodi:cx="501.52802"
         d="m 513.61201,474.88199 c 0,1.79492 -5.41019,3.25 -12.08399,3.25 -6.67381,0 -12.084,-1.45508 -12.084,-3.25 0,-1.79493 5.41019,-3.25 12.084,-3.25 6.6738,0 12.08399,1.45507 12.08399,3.25 z"
         style="fill:#c19069;fill-opacity:1;stroke:#000000;stroke-miterlimit:10"
         id="ellipse73"
         ry="3.25"
         rx="12.084"
         cy="474.88199"
         cx="501.52802"
         stroke-miterlimit="10"
         transform="matrix(-0.7071,0.7071,-0.7071,-0.7071,1191.9541,456.0411)" /><rect
         style="fill:#c19069;fill-opacity:1;stroke:#000000;stroke-miterlimit:10"
         id="rect75"
         height="3.5009999"
         width="37.917999"
         stroke-miterlimit="10"
         transform="matrix(0.7071,-0.7071,0.7071,0.7071,-204.8686,487.1817)"
         y="489.14499"
         x="466.702" /><rect
         style="fill:#c19069;fill-opacity:1;stroke:#000000;stroke-miterlimit:10"
         id="rect77"
         height="3.2090001"
         width="3.835"
         stroke-miterlimit="10"
         transform="matrix(-0.7072,0.707,-0.707,-0.7072,1164.2449,523.7949)"
         y="501.38501"
         x="471.737" /><rect
         style="fill:#c19069;fill-opacity:1;stroke:#000000;stroke-miterlimit:10"
         id="rect79"
         height="3.2920001"
         width="3.835"
         stroke-miterlimit="10"
         transform="matrix(-0.7071,0.7071,-0.7071,-0.7071,1167.0305,517.2153)"
         y="498.66101"
         x="474.479" /><rect
         style="fill:#c19069;fill-opacity:1;stroke:#000000;stroke-miterlimit:10"
         id="rect81"
         height="3.5009999"
         width="3.835"
         stroke-miterlimit="10"
         transform="matrix(-0.7071,0.7071,-0.7071,-0.7071,1169.5648,510.5953)"
         y="495.772"
         x="477.117" /><rect
         style="fill:#c19069;fill-opacity:1;stroke:#000000;stroke-miterlimit:10"
         id="rect83"
         height="3.5"
         width="3.835"
         stroke-miterlimit="10"
         transform="matrix(-0.7072,0.707,-0.707,-0.7072,1172.2749,504.1103)"
         y="493.06"
         x="479.82901" /><rect
         style="fill:#c19069;fill-opacity:1;stroke:#000000;stroke-miterlimit:10"
         id="rect85"
         height="3.5009999"
         width="3.835"
         stroke-miterlimit="10"
         transform="matrix(-0.707,0.7072,-0.7072,-0.707,1174.989,497.3775)"
         y="490.349"
         x="482.54001" /><rect
         style="fill:#c19069;fill-opacity:1;stroke:#000000;stroke-miterlimit:10"
         id="rect87"
         height="3.21"
         width="3.835"
         stroke-miterlimit="10"
         transform="matrix(-0.7072,0.707,-0.707,-0.7072,1177.8062,491.0616)"
         y="487.827"
         x="485.29599" /><rect
         style="fill:#c19069;fill-opacity:1;stroke:#000000;stroke-miterlimit:10"
         id="rect89"
         height="3.5009999"
         width="37.917999"
         stroke-miterlimit="10"
         transform="matrix(-0.7071,0.7071,-0.7071,-0.7071,1208.248,416.6962)"
         y="456.83701"
         x="498.86301" /><rect
         style="fill:#c19069;fill-opacity:1;stroke:#000000;stroke-miterlimit:10"
         id="rect91"
         height="3.2079999"
         width="3.835"
         stroke-miterlimit="10"
         transform="matrix(0.7071,-0.7071,0.7071,0.7071,-160.572,505.5079)"
         y="444.97699"
         x="527.99799" /><rect
         style="fill:#c19069;fill-opacity:1;stroke:#000000;stroke-miterlimit:10"
         id="rect93"
         height="3.2920001"
         width="3.835"
         stroke-miterlimit="10"
         transform="matrix(0.7072,-0.707,0.707,0.7072,-163.3011,504.3521)"
         y="447.677"
         x="525.31598" /><rect
         style="fill:#c19069;fill-opacity:1;stroke:#000000;stroke-miterlimit:10"
         id="rect95"
         height="3.5"
         width="3.8340001"
         stroke-miterlimit="10"
         transform="matrix(0.707,-0.7072,0.7072,0.707,-165.9727,503.2794)"
         y="450.211"
         x="522.53101" /><rect
         style="fill:#c19069;fill-opacity:1;stroke:#000000;stroke-miterlimit:10"
         id="rect97"
         height="3.5"
         width="3.835"
         stroke-miterlimit="10"
         transform="matrix(0.7071,-0.7071,0.7071,0.7071,-168.6887,502.0941)"
         y="452.923"
         x="519.81897" /><rect
         style="fill:#c19069;fill-opacity:1;stroke:#000000;stroke-miterlimit:10"
         id="rect99"
         height="3.5009999"
         width="3.835"
         stroke-miterlimit="10"
         transform="matrix(0.7072,-0.707,0.707,0.7072,-171.4046,500.9091)"
         y="455.634"
         x="517.10797" /><rect
         style="fill:#c19069;fill-opacity:1;stroke:#000000;stroke-miterlimit:10"
         id="rect101"
         height="3.2090001"
         width="3.835"
         stroke-miterlimit="10"
         transform="matrix(0.7072,-0.707,0.707,0.7072,-174.1342,499.8296)"
         y="458.53601"
         x="514.44" /><rect
         style="fill:#c19069;fill-opacity:1;stroke:#000000;stroke-miterlimit:10"
         id="rect103"
         height="378.66699"
         width="21.166"
         stroke-miterlimit="10"
         transform="matrix(0.7071,-0.7071,0.7071,0.7071,-124.3215,351.8025)"
         y="136.644"
         x="351.939" /><rect
         style="fill:#c19069;fill-opacity:1;stroke:#000000;stroke-miterlimit:10"
         id="rect105"
         height="11.12"
         width="21.166"
         stroke-miterlimit="10"
         transform="matrix(0.7071,-0.7071,0.7071,0.7071,-70.4942,221.8754)"
         y="190.47"
         x="221.991" /><rect
         style="fill:#ab7a54;fill-opacity:1;stroke:#000000;stroke-miterlimit:10"
         id="rect107"
         height="367.54901"
         width="12.498"
         stroke-miterlimit="10"
         transform="matrix(0.7071,-0.7071,0.7071,0.7071,-122.8863,356.9921)"
         y="143.07001"
         x="363.26901" /><rect
         style="fill:#c19069;fill-opacity:1;stroke:#000000;stroke-miterlimit:10"
         id="rect109"
         height="378.668"
         width="21.166"
         stroke-miterlimit="10"
         transform="matrix(-0.7071,0.7071,-0.7071,-0.7071,1536.3203,611.6792)"
         y="434.68799"
         x="630.89502" /><rect
         style="fill:#c19069;fill-opacity:1;stroke:#000000;stroke-miterlimit:10"
         id="rect111"
         height="11.12"
         width="21.166"
         stroke-miterlimit="10"
         transform="matrix(-0.7071,0.7071,-0.7071,-0.7071,1850.0416,741.6271)"
         y="748.40997"
         x="760.84198" /><rect
         style="fill:#ab7a54;fill-opacity:1;stroke:#000000;stroke-miterlimit:10"
         id="rect113"
         height="367.548"
         width="12.498"
         stroke-miterlimit="10"
         transform="matrix(-0.7071,0.7071,-0.7071,-0.7071,1523.7644,615.1956)"
         y="439.38101"
         x="628.23199" /></g></g></svg>