<?xml version="1.0" encoding="UTF-8" standalone="no"?>
<!-- Generator: Adobe Illustrator 15.1.0, SVG Export Plug-In . SVG Version: 6.00 Build 0)  -->

<svg
   xmlns:dc="http://purl.org/dc/elements/1.1/"
   xmlns:cc="http://creativecommons.org/ns#"
   xmlns:rdf="http://www.w3.org/1999/02/22-rdf-syntax-ns#"
   xmlns:svg="http://www.w3.org/2000/svg"
   xmlns="http://www.w3.org/2000/svg"
   xmlns:xlink="http://www.w3.org/1999/xlink"
   xmlns:sodipodi="http://sodipodi.sourceforge.net/DTD/sodipodi-0.dtd"
   xmlns:inkscape="http://www.inkscape.org/namespaces/inkscape"
   version="1.1"
   x="0px"
   y="0px"
   width="15"
   height="33"
   viewBox="0 0 15 33"
   enable-background="new 0 0 1000 1000"
   xml:space="preserve"
   id="svg2"
   inkscape:version="0.48.5 r10040"
   sodipodi:docname="Bell_212_fuselage_2.svg"><metadata
     id="metadata119"><rdf:RDF><cc:Work
         rdf:about=""><dc:format>image/svg+xml</dc:format><dc:type
           rdf:resource="http://purl.org/dc/dcmitype/StillImage" /><dc:title></dc:title></cc:Work></rdf:RDF></metadata><defs
     id="defs117"><linearGradient
       id="linearGradient3872"><stop
         style="stop-color:#765337;stop-opacity:1"
         offset="0"
         id="stop3874" /><stop
         id="stop3882"
         offset="0.2226247"
         style="stop-color:#c19069;stop-opacity:1;" /><stop
         id="stop3880"
         offset="0.79017818"
         style="stop-color:#c19069;stop-opacity:1;" /><stop
         style="stop-color:#765337;stop-opacity:1"
         offset="1"
         id="stop3876" /></linearGradient><linearGradient
       inkscape:collect="always"
       xlink:href="#linearGradient3872"
       id="linearGradient4010"
       gradientUnits="userSpaceOnUse"
       x1="434.08401"
       y1="598.33801"
       x2="570.896"
       y2="598.33801" /><linearGradient
       inkscape:collect="always"
       xlink:href="#linearGradient3872"
       id="linearGradient4012"
       gradientUnits="userSpaceOnUse"
       x1="452.78094"
       y1="503.25299"
       x2="552.01666"
       y2="503.25299" /><linearGradient
       inkscape:collect="always"
       xlink:href="#linearGradient3872"
       id="linearGradient4014"
       gradientUnits="userSpaceOnUse"
       x1="478.70099"
       y1="743.76703"
       x2="526.28003"
       y2="743.76703" /><linearGradient
       inkscape:collect="always"
       xlink:href="#linearGradient3872"
       id="linearGradient4129"
       gradientUnits="userSpaceOnUse"
       x1="434.08401"
       y1="598.33801"
       x2="570.896"
       y2="598.33801" /><linearGradient
       inkscape:collect="always"
       xlink:href="#linearGradient3872"
       id="linearGradient4131"
       gradientUnits="userSpaceOnUse"
       x1="452.78094"
       y1="503.25299"
       x2="552.01666"
       y2="503.25299" /><linearGradient
       inkscape:collect="always"
       xlink:href="#linearGradient3872"
       id="linearGradient4133"
       gradientUnits="userSpaceOnUse"
       x1="478.70099"
       y1="743.76703"
       x2="526.28003"
       y2="743.76703" /><linearGradient
       inkscape:collect="always"
       xlink:href="#linearGradient3872"
       id="linearGradient4226"
       gradientUnits="userSpaceOnUse"
       x1="452.78094"
       y1="503.25299"
       x2="552.01666"
       y2="503.25299"
       gradientTransform="matrix(0.07593166,0,0,0.07593166,-13.157244,-6.7949087)" /><linearGradient
       inkscape:collect="always"
       xlink:href="#linearGradient3872"
       id="linearGradient4233"
       gradientUnits="userSpaceOnUse"
       x1="434.08401"
       y1="598.33801"
       x2="570.896"
       y2="598.33801"
       gradientTransform="matrix(0.07593166,0,0,0.07593166,-13.157244,-6.7949087)" /><linearGradient
       inkscape:collect="always"
       xlink:href="#linearGradient3872"
       id="linearGradient4345"
       gradientUnits="userSpaceOnUse"
       x1="478.70099"
       y1="743.76703"
       x2="526.28003"
       y2="743.76703" /></defs><sodipodi:namedview
     pagecolor="#ffffff"
     bordercolor="#666666"
     borderopacity="1"
     objecttolerance="10"
     gridtolerance="10"
     guidetolerance="10"
     inkscape:pageopacity="0"
     inkscape:pageshadow="2"
     inkscape:window-width="1920"
     inkscape:window-height="1060"
     id="namedview115"
     showgrid="false"
     inkscape:zoom="15.104"
     inkscape:cx="13.827462"
     inkscape:cy="22.994638"
     inkscape:window-x="-2"
     inkscape:window-y="-3"
     inkscape:window-maximized="1"
     inkscape:current-layer="svg2"
     fit-margin-top="1"
     fit-margin-left="1"
     fit-margin-right="1"
     fit-margin-bottom="1"
     showborder="true"
     inkscape:showpageshadow="false" /><g
     id="g4327"
     transform="translate(0.09880087,-0.12557644)"><g
       transform="matrix(0.07593166,0,0,0.07593166,-30.756054,-42.716612)"
       id="L_Tail"><rect
         style="fill:#c19069;fill-opacity:1;stroke:#000000;stroke-miterlimit:10"
         id="rect10"
         height="39.102001"
         width="68.333"
         stroke-miterlimit="10"
         y="724.565"
         x="419.04199" /><rect
         style="fill:#ab7a54;fill-opacity:1;stroke:#000000;stroke-miterlimit:10"
         id="rect12"
         height="19.551001"
         width="68.333"
         stroke-miterlimit="10"
         y="744.11603"
         x="419.04199" /></g><g
       transform="matrix(0.07593166,0,0,0.07593166,-30.756054,-42.716612)"
       id="R_Tail"><rect
         style="fill:#c19069;fill-opacity:1;stroke:#000000;stroke-miterlimit:10"
         id="rect15"
         height="39.102001"
         width="68.333"
         stroke-miterlimit="10"
         y="724.565"
         x="517.66699" /><rect
         style="fill:#ab7a54;fill-opacity:1;stroke:#000000;stroke-miterlimit:10"
         id="rect17"
         height="19.551001"
         width="68.333"
         stroke-miterlimit="10"
         y="744.11603"
         x="517.66699" /></g><path
       inkscape:connector-curvature="0"
       stroke-miterlimit="10"
       d="m 8.6709289,28.797572 c 0.230528,0 0.417548,-0.289755 0.417548,-0.647089 0,-0.357411 -0.18702,-0.647166 -0.417548,-0.647166 v 1.294255 z"
       id="path20"
       style="fill:#c19069;fill-opacity:1;stroke:#000000;stroke-width:0.07593166;stroke-miterlimit:10" /><path
       inkscape:connector-curvature="0"
       stroke-miterlimit="10"
       d="m 8.4688749,28.229527 0.202054,0.0833 v 3.624674 c 0,0 -0.288009,-0.08466 -0.288009,-0.249663 0,-0.164924 0.08596,-3.458308 0.08596,-3.458308 z"
       id="path22"
       style="fill:#c19069;fill-opacity:1;stroke:#000000;stroke-width:0.07593166;stroke-miterlimit:10" /><path
       inkscape:connector-curvature="0"
       stroke-miterlimit="10"
       d="m 8.3861849,31.650856 c 0,0.177073 0.284744,0.286566 0.284744,0.286566 v -0.684296 l -0.284744,-0.07403 c 0,7.6e-5 0,0.294615 0,0.471763 z"
       id="path24"
       style="fill:#c19069;fill-opacity:1;stroke:#000000;stroke-width:0.07593166;stroke-miterlimit:10" /><rect
       x="7.7668095"
       y="27.995426"
       stroke-miterlimit="10"
       width="0.90381455"
       height="0.31002897"
       id="rect26"
       style="fill:#c19069;fill-opacity:1;stroke:#000000;stroke-width:0.07593166;stroke-miterlimit:10" /><polygon
       transform="matrix(0.07593166,0,0,0.07593166,-30.756054,-42.716612)"
       stroke-miterlimit="10"
       points="479.201,579.867 495.184,898.95 502.49,907.667 509.797,898.95 525.78,579.867 "
       id="polygon44"
       style="fill:url(#linearGradient4345);fill-opacity:1;stroke:#000000;stroke-miterlimit:10" /><path
       inkscape:connector-curvature="0"
       stroke-miterlimit="10"
       d="m 7.3988459,29.432513 c 0,0 -0.189374,-0.278442 -0.255131,-0.773288 -0.105165,-0.791132 -0.378139,-2.52974 -0.378139,-3.630749 0,-1.101009 0.633346,-2.695574 0.633346,-2.695574 0,0 0.633346,1.594565 0.633346,2.695574 0,1.101009 -0.273051,2.839617 -0.378064,3.630749 -0.06599,0.494846 -0.255358,0.773288 -0.255358,0.773288 z"
       id="path60"
       style="fill:#c19069;fill-opacity:1;stroke:#000000;stroke-width:0.07593166;stroke-miterlimit:10" /><path
       inkscape:connector-curvature="0"
       stroke-miterlimit="10"
       d="m 7.3988459,29.432513 c 0,0 -0.399325,-0.659467 -0.413752,-1.817425 0,-0.521802 0.413752,-0.999792 0.413752,-0.999792 0,0 0.413751,0.47799 0.413751,0.999792 -0.01435,1.157958 -0.413751,1.817425 -0.413751,1.817425"
       id="path62"
       style="fill:#c19069;fill-opacity:1;stroke:#000000;stroke-width:0.07593166;stroke-miterlimit:10" /><line
       stroke-miterlimit="10"
       x1="7.3988457"
       y1="26.615295"
       x2="7.3988457"
       y2="22.332901"
       id="line64"
       style="fill:#c19069;fill-opacity:1;stroke:#000000;stroke-width:0.07593166;stroke-miterlimit:10" /><path
       inkscape:connector-curvature="0"
       stroke-miterlimit="10"
       d="m 8.6593109,28.096571 -0.202054,-0.0833 v -3.624674 c 0,0 0.288009,0.08466 0.288009,0.249664 0,0.164923 -0.08596,3.458307 -0.08596,3.458307 z"
       id="path66"
       style="fill:#c19069;fill-opacity:1;stroke:#000000;stroke-width:0.07593166;stroke-miterlimit:10" /><path
       inkscape:connector-curvature="0"
       stroke-miterlimit="10"
       d="m 8.7420009,24.675166 c 0,-0.177072 -0.284744,-0.286566 -0.284744,-0.286566 v 0.684296 l 0.284744,0.07403 c 0,-7.6e-5 0,-0.294615 0,-0.471764 z"
       id="path68"
       style="fill:#c19069;fill-opacity:1;stroke:#000000;stroke-width:0.07593166;stroke-miterlimit:10" /></g></svg>