<?xml version="1.0" encoding="UTF-8" standalone="no"?>
<!-- Generator: Adobe Illustrator 15.1.0, SVG Export Plug-In . SVG Version: 6.00 Build 0)  -->

<svg
   xmlns:dc="http://purl.org/dc/elements/1.1/"
   xmlns:cc="http://creativecommons.org/ns#"
   xmlns:rdf="http://www.w3.org/1999/02/22-rdf-syntax-ns#"
   xmlns:svg="http://www.w3.org/2000/svg"
   xmlns="http://www.w3.org/2000/svg"
   xmlns:xlink="http://www.w3.org/1999/xlink"
   xmlns:sodipodi="http://sodipodi.sourceforge.net/DTD/sodipodi-0.dtd"
   xmlns:inkscape="http://www.inkscape.org/namespaces/inkscape"
   version="1.1"
   x="0px"
   y="0px"
   width="20"
   height="9"
   viewBox="0 0 20 9"
   enable-background="new 0 0 1000 1000"
   xml:space="preserve"
   id="svg2"
   inkscape:version="0.48.5 r10040"
   sodipodi:docname="Dornier_328_wing_L_2.svg"><metadata
     id="metadata102"><rdf:RDF><cc:Work
         rdf:about=""><dc:format>image/svg+xml</dc:format><dc:type
           rdf:resource="http://purl.org/dc/dcmitype/StillImage" /><dc:title></dc:title></cc:Work></rdf:RDF></metadata><defs
     id="defs100"><linearGradient
       id="linearGradient3859"><stop
         style="stop-color:#765337;stop-opacity:1"
         offset="0"
         id="stop3861" /><stop
         id="stop3869"
         offset="0.38146022"
         style="stop-color:#c19069;stop-opacity:1;" /><stop
         id="stop3867"
         offset="0.59859514"
         style="stop-color:#c19069;stop-opacity:1;" /><stop
         style="stop-color:#765337;stop-opacity:1"
         offset="1"
         id="stop3863" /></linearGradient><linearGradient
       inkscape:collect="always"
       xlink:href="#linearGradient3859"
       id="linearGradient3865"
       x1="450.38901"
       y1="483.33249"
       x2="564.34802"
       y2="483.33249"
       gradientUnits="userSpaceOnUse" /></defs><sodipodi:namedview
     pagecolor="#ffffff"
     bordercolor="#666666"
     borderopacity="1"
     objecttolerance="10"
     gridtolerance="10"
     guidetolerance="10"
     inkscape:pageopacity="0"
     inkscape:pageshadow="2"
     inkscape:window-width="1920"
     inkscape:window-height="1060"
     id="namedview98"
     showgrid="false"
     inkscape:zoom="15.104"
     inkscape:cx="24.056211"
     inkscape:cy="3.3937454"
     inkscape:window-x="-2"
     inkscape:window-y="-3"
     inkscape:window-maximized="1"
     inkscape:current-layer="Layer_9"
     fit-margin-top="1"
     fit-margin-left="1"
     fit-margin-right="1"
     fit-margin-bottom="1" /><g
     id="Layer_9"
     transform="matrix(0.06994868,0,0,0.06994868,-1.8022567,-20.090437)"><path
       style="fill:#c19069;fill-opacity:1;stroke:none"
       d="m 43.635654,304.86368 c 34.01198,2.89412 201.933766,19.21051 201.933766,19.21051 l 53.16398,54.951 0,12.50917 -165.74653,5.36108 -95.159046,1.78702 5.80783,-93.81878 z"
       id="path79"
       inkscape:connector-curvature="0" /><path
       style="font-size:medium;font-style:normal;font-variant:normal;font-weight:normal;font-stretch:normal;text-indent:0;text-align:start;text-decoration:none;line-height:normal;letter-spacing:normal;word-spacing:normal;text-transform:none;direction:ltr;block-progression:tb;writing-mode:lr-tb;text-anchor:start;baseline-shift:baseline;color:#000000;fill:#000000;fill-opacity:1;fill-rule:nonzero;stroke:none;stroke-width:1;marker:none;visibility:visible;display:inline;overflow:visible;enable-background:accumulate;font-family:Sans;-inkscape-font-specification:Sans"
       d="m 133.88038,365.62251 0,0.44675 0,9.38188 134.92036,-2.23378 0.44675,0 0,0.44676 0,18.76376 0,0.44675 -0.44675,0 -135.81387,4.46756 -95.159046,1.78703 0,-0.89351 95.159046,-1.78703 135.36711,-4.46756 0,-17.87024 -134.4736,2.23378 -94.712286,1.78702 0,-1.34027 93.818776,-1.34027 0,-8.93512 -92.925266,0 0,-0.89351 93.372026,0 0.44675,0 z"
       id="polygon83"
       inkscape:connector-curvature="0" /><path
       style="font-size:medium;font-style:normal;font-variant:normal;font-weight:normal;font-stretch:normal;text-indent:0;text-align:start;text-decoration:none;line-height:normal;letter-spacing:normal;word-spacing:normal;text-transform:none;direction:ltr;block-progression:tb;writing-mode:lr-tb;text-anchor:start;baseline-shift:baseline;color:#000000;fill:#000000;fill-opacity:1;fill-rule:nonzero;stroke:none;stroke-width:1;marker:none;visibility:visible;display:inline;overflow:visible;enable-background:accumulate;font-family:Sans;-inkscape-font-specification:Sans"
       d="m 43.635654,303.97016 c 5.57639,0.50866 11.19312,1.07365 18.76375,1.78703 20.89324,1.96883 48.371636,4.52307 75.501786,7.1481 54.2603,5.25003 107.66823,10.72214 107.66823,10.72214 l 0.44676,0 53.16397,54.95101 0.44676,0.44675 0,12.50917 0,0.44676 -0.44676,0 -166.19328,5.36107 -95.159046,1.78703 0,-0.89351 95.159046,-1.78703 165.29977,-5.36107 0,-12.06242 -53.16398,-54.50424 c -0.18695,-0.0186 -53.50377,-5.03462 -107.66823,-10.2754 -27.12972,-2.62498 -54.163406,-5.62618 -75.055026,-7.59485 -7.57005,-0.71338 -13.19649,-1.27837 -18.76375,-1.78702 l 0,-0.89352 z"
       id="path3941"
       inkscape:connector-curvature="0" /></g></svg>