<?xml version="1.0" encoding="UTF-8" standalone="no"?>
<!-- Generator: Adobe Illustrator 15.1.0, SVG Export Plug-In . SVG Version: 6.00 Build 0)  -->

<svg
   xmlns:dc="http://purl.org/dc/elements/1.1/"
   xmlns:cc="http://creativecommons.org/ns#"
   xmlns:rdf="http://www.w3.org/1999/02/22-rdf-syntax-ns#"
   xmlns:svg="http://www.w3.org/2000/svg"
   xmlns="http://www.w3.org/2000/svg"
   xmlns:xlink="http://www.w3.org/1999/xlink"
   xmlns:sodipodi="http://sodipodi.sourceforge.net/DTD/sodipodi-0.dtd"
   xmlns:inkscape="http://www.inkscape.org/namespaces/inkscape"
   version="1.1"
   x="0px"
   y="0px"
   width="67"
   height="71.004372"
   viewBox="0 0 67 71.004372"
   enable-background="new 0 0 1000 1000"
   xml:space="preserve"
   id="svg2"
   inkscape:version="0.48.5 r10040"
   sodipodi:docname="Dornier_328.svg"><metadata
     id="metadata102"><rdf:RDF><cc:Work
         rdf:about=""><dc:format>image/svg+xml</dc:format><dc:type
           rdf:resource="http://purl.org/dc/dcmitype/StillImage" /></cc:Work></rdf:RDF></metadata><defs
     id="defs100"><linearGradient
       id="linearGradient3859"><stop
         style="stop-color:#765337;stop-opacity:1"
         offset="0"
         id="stop3861" /><stop
         id="stop3869"
         offset="0.38146022"
         style="stop-color:#c19069;stop-opacity:1;" /><stop
         id="stop3867"
         offset="0.59859514"
         style="stop-color:#c19069;stop-opacity:1;" /><stop
         style="stop-color:#765337;stop-opacity:1"
         offset="1"
         id="stop3863" /></linearGradient><linearGradient
       inkscape:collect="always"
       xlink:href="#linearGradient3859"
       id="linearGradient3865"
       x1="450.38901"
       y1="483.33249"
       x2="564.34802"
       y2="483.33249"
       gradientUnits="userSpaceOnUse" /><linearGradient
       inkscape:collect="always"
       xlink:href="#linearGradient3859"
       id="linearGradient3875"
       gradientUnits="userSpaceOnUse"
       x1="450.38901"
       y1="483.33249"
       x2="564.34802"
       y2="483.33249" /></defs><sodipodi:namedview
     pagecolor="#ffffff"
     bordercolor="#666666"
     borderopacity="1"
     objecttolerance="10"
     gridtolerance="10"
     guidetolerance="10"
     inkscape:pageopacity="0"
     inkscape:pageshadow="2"
     inkscape:window-width="1920"
     inkscape:window-height="1060"
     id="namedview98"
     showgrid="false"
     inkscape:zoom="10.680141"
     inkscape:cx="21.822532"
     inkscape:cy="40.48511"
     inkscape:window-x="-2"
     inkscape:window-y="-3"
     inkscape:window-maximized="1"
     inkscape:current-layer="L_tail-1"
     fit-margin-top="1"
     fit-margin-left="1"
     fit-margin-right="1"
     fit-margin-bottom="1" /><g
     id="L_tail"
     transform="matrix(0.06994868,0,0,0.06994868,-1.9897568,0.28456406)" /><g
     id="Body"
     transform="matrix(0.06994868,0,0,0.06994868,-1.9897568,0.28456406)"><path
       stroke-miterlimit="10"
       d="m 507.369,11.05 c -10.704,0 -50.632,36.95 -54.299,105.284 0,76 -1.681,437.667 -1.681,462.667 0,25 46.015,275 46.015,305 0,30 1.666,71.614 9.965,71.614 8.298,0 9.964,-41.614 9.964,-71.614 0,-30 46.015,-280 46.015,-305 0,-25 -1.681,-386.666 -1.681,-462.667 C 558,48 518.072,11.05 507.369,11.05 z"
       id="path15"
       style="fill:url(#linearGradient3875);fill-opacity:1;stroke:none"
       inkscape:connector-curvature="0" /><path
       style="font-size:medium;font-style:normal;font-variant:normal;font-weight:normal;font-stretch:normal;text-indent:0;text-align:start;text-decoration:none;line-height:normal;letter-spacing:normal;word-spacing:normal;text-transform:none;direction:ltr;block-progression:tb;writing-mode:lr-tb;text-anchor:start;baseline-shift:baseline;color:#000000;fill:#000000;fill-opacity:1;fill-rule:nonzero;stroke:none;stroke-width:2;marker:none;visibility:visible;display:inline;overflow:visible;enable-background:accumulate;font-family:Sans;-inkscape-font-specification:Sans"
       d="m 507.375,10.0625 c -3.25133,0 -7.73433,2.458231 -13.125,7.0625 -5.39067,4.604269 -11.56376,11.414352 -17.5,20.375 -11.87248,17.921296 -22.84411,44.42995 -24.6875,78.78125 l 0,0.0312 0,0.0312 c 0,75.98525 -1.6875,437.61142 -1.6875,462.65625 0,3.27838 0.74007,9.88777 2,19.1875 1.25993,9.29973 3.06121,21.25407 5.21875,34.96875 4.31508,27.42936 10.0607,61.93798 15.8125,96.625 5.7518,34.68702 11.49998,69.52463 15.8125,97.5625 4.31252,28.03787 7.1875,49.41189 7.1875,56.65625 0,15.01851 0.41435,32.93679 1.875,47.15625 0.73033,7.10973 1.70393,13.29447 3.0625,17.78125 0.67929,2.24339 1.46408,4.06392 2.40625,5.40625 0.94217,1.34233 2.16976,2.28125 3.625,2.28125 1.45516,0 2.68294,-0.93892 3.625,-2.28125 0.94206,-1.34233 1.69579,-3.16287 2.375,-5.40625 1.35843,-4.48676 2.36349,-10.67152 3.09375,-17.78125 1.46052,-14.21945 1.875,-32.13774 1.875,-47.15625 0,-7.24436 2.84373,-28.61838 7.15625,-56.65625 4.31252,-28.03787 10.0607,-62.87548 15.8125,-97.5625 5.7518,-34.68702 11.52867,-69.19564 15.84375,-96.625 2.15754,-13.71468 3.95882,-25.66902 5.21875,-34.96875 1.25993,-9.29973 1.96875,-15.90912 1.96875,-19.1875 0,-25.04483 -1.6875,-386.67 -1.6875,-462.65625 l 0,-0.0312 0,-0.0312 C 560.81286,81.92995 549.87235,55.421293 538,37.5 532.06383,28.539354 525.89052,21.729267 520.5,17.125 c -5.39052,-4.604267 -9.87387,-7.0625 -13.125,-7.0625 z m 0,2 c 2.10037,0 6.62296,2.134455 11.84375,6.59375 5.22079,4.459295 11.25167,11.150146 17.09375,19.96875 11.68049,17.631683 22.51507,43.751599 24.34375,77.71875 0,0.005 0,0.0261 0,0.0312 2.3e-4,76.0492 1.6875,437.67151 1.6875,462.625 0,2.97162 -0.71224,9.63176 -1.96875,18.90625 -1.25651,9.27449 -3.06239,21.23031 -5.21875,34.9375 -4.31273,27.41439 -10.06055,61.93702 -15.8125,96.625 -5.75195,34.68798 -11.49721,69.53787 -15.8125,97.59375 -4.31529,28.05588 -7.1875,49.18186 -7.1875,56.9375 0,14.98149 -0.42802,32.8812 -1.875,46.96875 -0.72349,7.04377 -1.71224,13.12164 -3,17.375 -0.64388,2.12668 -1.35641,3.79312 -2.09375,4.84375 -0.73734,1.05063 -1.38066,1.4375 -2,1.4375 -0.61951,0 -1.26258,-0.38687 -2,-1.4375 -0.73742,-1.05063 -1.4498,-2.71708 -2.09375,-4.84375 -1.28789,-4.25335 -2.27645,-10.33123 -3,-17.375 -1.4471,-14.08754 -1.875,-31.98726 -1.875,-46.96875 0,-7.75564 -2.90346,-28.88162 -7.21875,-56.9375 -4.31529,-28.05588 -10.06055,-62.90577 -15.8125,-97.59375 -5.75195,-34.68798 -11.49977,-69.21061 -15.8125,-96.625 -2.15636,-13.70719 -3.96224,-25.66301 -5.21875,-34.9375 C 453.08724,588.63176 452.375,581.97162 452.375,579 c 0,-24.95349 1.68727,-386.5768 1.6875,-462.625 0,-0.005 0,-0.0261 0,-0.0312 1.82868,-33.967151 12.66314,-60.08707 24.34375,-77.71875 5.84214,-8.818602 11.90407,-15.509456 17.125,-19.96875 5.22093,-4.459294 9.74308,-6.59375 11.84375,-6.59375 z"
       id="path3871"
       inkscape:connector-curvature="0" /><path
       style="font-size:medium;font-style:normal;font-variant:normal;font-weight:normal;font-stretch:normal;text-indent:0;text-align:start;text-decoration:none;line-height:normal;letter-spacing:normal;word-spacing:normal;text-transform:none;direction:ltr;block-progression:tb;writing-mode:lr-tb;text-anchor:start;baseline-shift:baseline;color:#000000;fill:#000000;fill-opacity:1;fill-rule:nonzero;stroke:none;stroke-width:1;marker:none;visibility:visible;display:inline;overflow:visible;enable-background:accumulate;font-family:Sans;-inkscape-font-specification:Sans"
       d="m 557.75,566 c -0.82296,-0.0616 -1.91408,-0.0717 -3.03125,0.21875 -1.11717,0.29045 -2.29495,0.88352 -3.15625,1.96875 -0.8613,1.08523 -1.40625,2.64592 -1.40625,4.8125 l 0,20 c 0,3.64286 1.68197,5.33732 3.34375,5.9375 1.56252,0.56433 2.97995,0.25622 3.15625,0.21875 l 0.125,0 4.5,0 0.40625,0 0.0937,-0.375 c 0.87648,-4.09332 1.38603,-12.08562 1.6875,-19.09375 0.30147,-7.00813 0.375,-13 0.375,-13 l 0,-0.53125 -0.5,0 -4.34375,0 c -0.0891,-0.0209 -0.50299,-0.1003 -1.25,-0.15625 z m -0.0937,1 c 0.73948,0.053 1.21875,0.15625 1.21875,0.15625 l 0.0625,0 0.0625,0 3.84375,0 c -0.007,0.43589 -0.0858,5.77682 -0.375,12.5 -0.2934,6.8204 -0.7926,14.49542 -1.59375,18.5 l -4.21875,0 -0.0312,0 -0.0625,0.0312 c 0,0 -1.38053,0.29582 -2.71875,-0.1875 -1.33822,-0.48332 -2.6875,-1.64286 -2.6875,-5 l 0,-20 c 0,-1.99992 0.51761,-3.30408 1.21875,-4.1875 0.70114,-0.88342 1.62767,-1.37383 2.59375,-1.625 0.96608,-0.25117 1.94802,-0.24046 2.6875,-0.1875 z"
       id="path17"
       inkscape:connector-curvature="0" /><path
       style="font-size:medium;font-style:normal;font-variant:normal;font-weight:normal;font-stretch:normal;text-indent:0;text-align:start;text-decoration:none;line-height:normal;letter-spacing:normal;word-spacing:normal;text-transform:none;direction:ltr;block-progression:tb;writing-mode:lr-tb;text-anchor:start;baseline-shift:baseline;color:#000000;fill:#000000;fill-opacity:1;fill-rule:nonzero;stroke:none;stroke-width:1;marker:none;visibility:visible;display:inline;overflow:visible;enable-background:accumulate;font-family:Sans;-inkscape-font-specification:Sans"
       d="m 457,564.125 c -0.74709,0.056 -1.16104,0.16662 -1.25,0.1875 l -4.375,0 -0.46875,0 -0.0312,0.46875 c 0,0 -0.46389,8.24172 0.1875,17.875 0.74117,10.95005 2.6691,23.65171 3.59375,27.96875 l 0.0625,0.375 0.40625,0 2.9375,0 0.0625,0 0.0625,0 c 0,0 1.59956,-0.42407 3.1875,-1.75 1.58794,-1.32593 3.1875,-3.60714 3.1875,-7.25 l 0,-30.84375 c 0,-2.16658 -0.54495,-3.72727 -1.40625,-4.8125 -0.8613,-1.08523 -2.00783,-1.6783 -3.125,-1.96875 -1.11717,-0.29045 -2.20829,-0.31164 -3.03125,-0.25 z m 0.0937,1 c 0.73948,-0.053 1.72142,-0.0324 2.6875,0.21875 0.96608,0.25117 1.89261,0.74158 2.59375,1.625 0.70114,0.88342 1.1875,2.18758 1.1875,4.1875 l 0,30.84375 c 0,3.35714 -1.40044,5.32093 -2.8125,6.5 -1.3161,1.09895 -2.51737,1.45362 -2.6875,1.5 -0.003,7.7e-4 -0.029,-5.9e-4 -0.0312,0 l -2.46875,0 c -0.91843,-4.41951 -2.77627,-16.71392 -3.5,-27.40625 -0.61793,-9.13857 -0.22411,-16.6018 -0.1875,-17.28125 l 3.875,0 0.0937,0 0.40625,0 0,-0.0625 c 0.20024,-0.0381 0.34474,-0.0893 0.84375,-0.125 z"
       id="path19"
       inkscape:connector-curvature="0" /><path
       style="font-size:medium;font-style:normal;font-variant:normal;font-weight:normal;font-stretch:normal;text-indent:0;text-align:start;text-decoration:none;line-height:normal;letter-spacing:normal;word-spacing:normal;text-transform:none;direction:ltr;block-progression:tb;writing-mode:lr-tb;text-anchor:start;baseline-shift:baseline;color:#000000;fill:#000000;fill-opacity:1;fill-rule:nonzero;stroke:none;stroke-width:1;marker:none;visibility:visible;display:inline;overflow:visible;enable-background:accumulate;font-family:Sans;-inkscape-font-specification:Sans"
       d="m 456.71875,407.75 c 0,0 -1.23422,0.1597 -2.46875,0.5625 -0.61726,0.2014 -1.23874,0.48762 -1.75,0.84375 -0.51126,0.35613 -0.9375,0.83745 -0.9375,1.5 0,1.7321 -0.0937,21.65625 -0.0937,21.65625 l -0.0312,1.78125 0.9375,-1.53125 c 0,0 0.21445,-0.34831 0.875,-0.75 0.66055,-0.40169 1.7519,-0.8125 3.53125,-0.8125 2.02801,0 3.37786,-1.04188 4.15625,-2.0625 0.77839,-1.02062 1.03125,-2.0625 1.03125,-2.0625 L 462,426.8125 462,426.75 462,411 c 0,-0.93353 -0.37321,-1.66217 -0.90625,-2.15625 -0.53304,-0.49408 -1.20093,-0.78429 -1.84375,-0.9375 -1.28563,-0.30643 -2.53125,-0.15625 -2.53125,-0.15625 z m 0.125,1 c 0,0 1.11313,-0.0998 2.1875,0.15625 0.53718,0.12804 1.05429,0.33002 1.40625,0.65625 C 460.78946,409.88873 461,410.30853 461,411 l 0,15.6875 c -0.0163,0.0584 -0.24715,0.80177 -0.875,1.625 -0.65161,0.85438 -1.65176,1.6875 -3.34375,1.6875 -1.94065,0 -3.24305,0.47044 -4.0625,0.96875 -0.17082,0.10388 -0.11804,0.11458 -0.25,0.21875 0.009,-1.85976 0.0937,-18.85518 0.0937,-20.53125 0,-0.21245 0.15638,-0.42638 0.53125,-0.6875 0.37487,-0.26112 0.90451,-0.5034 1.46875,-0.6875 1.12847,-0.3682 2.28125,-0.53125 2.28125,-0.53125 z"
       id="path21"
       inkscape:connector-curvature="0" /><path
       style="font-size:medium;font-style:normal;font-variant:normal;font-weight:normal;font-stretch:normal;text-indent:0;text-align:start;text-decoration:none;line-height:normal;letter-spacing:normal;word-spacing:normal;text-transform:none;direction:ltr;block-progression:tb;writing-mode:lr-tb;text-anchor:start;baseline-shift:baseline;color:#000000;fill:#000000;fill-opacity:1;fill-rule:nonzero;stroke:none;stroke-width:1;marker:none;visibility:visible;display:inline;overflow:visible;enable-background:accumulate;font-family:Sans;-inkscape-font-specification:Sans"
       d="m 466.40625,118.71875 c -1.10536,0.0236 -2.38251,0.125 -3.90625,0.125 -6.50931,0 -9.9375,6.59375 -9.9375,6.59375 l -0.0625,0.0937 0,0.125 0,29.84375 0,1.21875 0.84375,-0.875 c 0,0 6.25455,-6.34375 14.15625,-6.34375 l 0.0312,0 0.0312,0 c 1.78213,-0.20882 2.79003,-1.5981 3.3125,-2.84375 0.52247,-1.24565 0.625,-2.4375 0.625,-2.4375 l 0,-0.0312 0,-0.0312 0,-19.5 c 0,-1.69567 -0.14538,-2.89811 -0.5,-3.8125 -0.35462,-0.91439 -0.95935,-1.52056 -1.75,-1.8125 -0.79065,-0.29194 -1.73839,-0.33606 -2.84375,-0.3125 z m 0.0312,1.03125 c 1.06655,-0.0181 1.87402,0.0107 2.4375,0.21875 0.56348,0.20806 0.91196,0.50826 1.1875,1.21875 0.27554,0.71049 0.4375,1.83142 0.4375,3.46875 l 0,19.46875 0,0.0312 c -0.003,0.0283 -0.11569,1.02849 -0.5625,2.09375 -0.45303,1.0801 -1.18413,2.09582 -2.5,2.25 -7.56844,0.0302 -12.83489,4.93535 -13.9375,6 l 0,-28.6875 c 0.0933,-0.17275 3.26074,-5.96875 9,-5.96875 1.55976,0 2.87095,-0.0757 3.9375,-0.0937 z"
       id="path23"
       inkscape:connector-curvature="0" /><path
       style="font-size:medium;font-style:normal;font-variant:normal;font-weight:normal;font-stretch:normal;text-indent:0;text-align:start;text-decoration:none;line-height:normal;letter-spacing:normal;word-spacing:normal;text-transform:none;direction:ltr;block-progression:tb;writing-mode:lr-tb;text-anchor:start;baseline-shift:baseline;color:#000000;fill:#000000;fill-opacity:1;fill-rule:nonzero;stroke:none;stroke-width:1;marker:none;visibility:visible;display:inline;overflow:visible;enable-background:accumulate;font-family:Sans;-inkscape-font-specification:Sans"
       d="m 554.09375,123.65625 c 0,0 -1.0702,0.0113 -2.1875,0.375 -0.55865,0.18188 -1.16153,0.45359 -1.625,0.90625 -0.46347,0.45266 -0.78125,1.11152 -0.78125,1.90625 l 0,17.5 0,0.0312 0,0.0312 c 0,0 0.59758,4.33043 4.25,7.625 1.78528,1.61128 3.13367,2.43259 4.28125,3.25 1.14758,0.81741 2.1116,1.64174 3.25,3.34375 l 0.90625,1.34375 0,-1.625 0,-28.84375 0,-0.125 -0.0312,-0.0937 c -0.95681,-2.04712 -2.95595,-3.4233 -4.6875,-4.3125 -1.73155,-0.8892 -3.25,-1.28125 -3.25,-1.28125 l -0.0625,-0.0312 -0.0625,0 z m -0.0937,1 c 0.0248,0.007 1.38253,0.38813 3,1.21875 1.60713,0.82531 3.3706,2.10983 4.1875,3.78125 l 0,27.25 c -0.84885,-1.0199 -1.68967,-1.81579 -2.5625,-2.4375 -1.19242,-0.84934 -2.46378,-1.63178 -4.1875,-3.1875 C 551.06792,148.24182 550.5,144.25 550.5,144.25 l 0,-17.40625 c 0,-0.53877 0.19547,-0.89007 0.5,-1.1875 0.30453,-0.29743 0.72215,-0.536 1.1875,-0.6875 0.88613,-0.28849 1.72689,-0.31133 1.8125,-0.3125 z"
       id="path25"
       inkscape:connector-curvature="0" /><path
       stroke-miterlimit="10"
       d="m 508.202,38.333 v 10.833 c 4.818,0 22.289,4.833 27.465,12.333 0,0 0,-3.5 0,-8.667 0,-5.167 -20.798,-14.499 -27.465,-14.499 z"
       id="path27"
       style="fill:#2b2929;fill-opacity:1;stroke:#000000;stroke-miterlimit:10"
       inkscape:connector-curvature="0" /><path
       stroke-miterlimit="10"
       d="m 538.834,54.333 c 0,0 -0.803,8.339 0.863,11.53 3.032,6.525 4.512,11.355 4.97,17.081 -0.333,3.5 10.167,10.39 10.167,10.39 0,-13.667 -16,-39.001 -16,-39.001 z"
       id="path29"
       style="fill:#2b2929;fill-opacity:1;stroke:#000000;stroke-miterlimit:10"
       inkscape:connector-curvature="0" /><path
       stroke-miterlimit="10"
       d="m 506.368,38.333 v 10.833 c -4.818,0 -22.289,4.833 -27.465,12.333 0,0 0,-3.5 0,-8.667 0,-5.167 20.798,-14.499 27.465,-14.499 z"
       id="path31"
       style="fill:#2b2929;fill-opacity:1;stroke:#000000;stroke-miterlimit:10"
       inkscape:connector-curvature="0" /><path
       stroke-miterlimit="10"
       d="m 475.736,54.333 c 0,0 0.803,8.339 -0.863,11.53 -3.032,6.525 -4.512,11.355 -4.97,17.081 0.333,3.5 -10.167,10.39 -10.167,10.39 0,-13.667 16,-39.001 16,-39.001 z"
       id="path33"
       style="fill:#2b2929;fill-opacity:1;stroke:#000000;stroke-miterlimit:10"
       inkscape:connector-curvature="0" /><path
       style="font-size:medium;font-style:normal;font-variant:normal;font-weight:normal;font-stretch:normal;text-indent:0;text-align:start;text-decoration:none;line-height:normal;letter-spacing:normal;word-spacing:normal;text-transform:none;direction:ltr;block-progression:tb;writing-mode:lr-tb;text-anchor:start;baseline-shift:baseline;color:#000000;fill:#000000;fill-opacity:1;fill-rule:nonzero;stroke:none;stroke-width:1;marker:none;visibility:visible;display:inline;overflow:visible;enable-background:accumulate;font-family:Sans;-inkscape-font-specification:Sans"
       d="m 507.375,65.5 c -4.8149,0 -8.29433,1.383788 -10.875,3.46875 -2.58067,2.084962 -4.25796,4.843383 -5.5625,7.5625 -1.30454,2.719117 -2.27253,5.418512 -3.34375,7.375 -0.53561,0.978244 -1.09481,1.754634 -1.71875,2.28125 C 485.25106,86.714116 484.60316,87 483.75,87 l -0.28125,0 -0.125,0.21875 c -0.23147,0.324065 -0.32028,0.68521 -0.4375,1.25 -0.11722,0.56479 -0.23277,1.304971 -0.34375,2.1875 -0.22195,1.765058 -0.43394,4.129349 -0.65625,6.9375 -0.44463,5.6163 -0.91914,12.9716 -1.46875,20.59375 -0.54961,7.62215 -1.18446,15.49854 -1.96875,22.1875 -0.78429,6.68896 -1.74024,12.21464 -2.84375,14.9375 l 0,0.0312 c -1.19875,2.97248 -2.29424,8.91231 -3.3125,16.4375 -1.02055,7.54213 -1.93618,16.62785 -2.71875,25.71875 -1.56515,18.18181 -2.5625,36.31546 -2.5625,42 0,11.17838 -2.46875,56.21875 -2.46875,56.21875 l 0,0.0312 -0.3125,37.21875 0,0.0312 -2.5,75.21875 c 0,0 0.2025,13.26278 1,27.875 0.39875,7.30611 0.95326,14.96953 1.6875,21.46875 0.73424,6.49922 1.63078,11.80567 2.84375,14.625 2.24853,5.22632 4.76599,18.28318 7,30.25 1.11701,5.98341 2.19485,11.69562 3.125,16.09375 0.46507,2.19906 0.88014,4.0913 1.28125,5.5 0.20055,0.70435 0.40533,1.28159 0.59375,1.75 0.18842,0.46841 0.3318,0.80055 0.59375,1.0625 0.46058,0.46058 1.17787,0.70341 2.125,0.9375 0.94713,0.23409 2.12569,0.43995 3.46875,0.59375 2.68612,0.30761 6.00719,0.46852 9.25,0.5625 6.4696,0.18749 12.59466,0.0631 12.625,0.0625 0,0 0.0312,0 0.0312,0 0.0303,6.1e-4 6.15515,0.12499 12.625,-0.0625 3.24293,-0.094 6.56378,-0.25489 9.25,-0.5625 1.34311,-0.1538 2.55285,-0.35966 3.5,-0.59375 0.94715,-0.23409 1.63316,-0.47691 2.09375,-0.9375 0.26195,-0.26195 0.43658,-0.59409 0.625,-1.0625 0.18842,-0.46841 0.36195,-1.04565 0.5625,-1.75 0.40111,-1.4087 0.84743,-3.30094 1.3125,-5.5 0.93015,-4.39813 1.97674,-10.11034 3.09375,-16.09375 2.23401,-11.96682 4.78272,-25.02368 7.03125,-30.25 1.21297,-2.81933 2.10951,-8.12578 2.84375,-14.625 0.73424,-6.49922 1.2575,-14.16264 1.65625,-21.46875 0.7975,-14.61222 1.03125,-27.875 1.03125,-27.875 L 550.5,333 l 0,-0.0312 -0.3125,-37.21875 0,-0.0312 c 0,0 -2.5,-45.04037 -2.5,-56.21875 0,-5.68454 -0.9661,-23.81819 -2.53125,-42 -0.78257,-9.0909 -1.72945,-18.17662 -2.75,-25.71875 -1.02055,-7.54213 -2.11056,-13.503 -3.3125,-16.46875 -1.10351,-2.72286 -2.05946,-8.24854 -2.84375,-14.9375 -0.78429,-6.68896 -1.41914,-14.56535 -1.96875,-22.1875 -0.54961,-7.62215 -0.99287,-14.97745 -1.4375,-20.59375 -0.22231,-2.808151 -0.4343,-5.172442 -0.65625,-6.9375 -0.11098,-0.882529 -0.22653,-1.62271 -0.34375,-2.1875 -0.11722,-0.56479 -0.20603,-0.925935 -0.4375,-1.25 L 531.25,87 531,87 c -0.85316,0 -1.53231,-0.285882 -2.15625,-0.8125 -0.62394,-0.526618 -1.18314,-1.302998 -1.71875,-2.28125 -1.07122,-1.956504 -2.00796,-4.655822 -3.3125,-7.375 -1.30454,-2.719178 -2.98184,-5.477398 -5.5625,-7.5625 -2.58066,-2.085102 -6.0601,-3.468495 -10.875,-3.46875 z m 0,1 c 4.6251,2.45e-4 7.84097,1.303571 10.25,3.25 2.40903,1.946429 4.00704,4.562803 5.28125,7.21875 1.27421,2.655947 2.20778,5.331472 3.34375,7.40625 0.56799,1.037389 1.19961,1.944583 1.96875,2.59375 0.67336,0.568328 1.48971,0.885 2.40625,0.96875 0.0394,0.09827 0.12904,0.317769 0.21875,0.75 0.10796,0.520171 0.23467,1.226279 0.34375,2.09375 0.21816,1.734942 0.43449,4.105026 0.65625,6.90625 0.44353,5.60245 0.88748,12.93465 1.4375,20.5625 0.55002,7.62785 1.21239,15.53271 2,22.25 0.78761,6.71729 1.70476,12.22286 2.90625,15.1875 1.10306,2.72175 2.23299,8.70279 3.25,16.21875 1.01701,7.51596 1.93707,16.60703 2.71875,25.6875 1.56335,18.16094 2.53125,36.33879 2.53125,41.90625 0,11.31823 2.49676,56.19147 2.5,56.25 l 0,0.0312 L 549.5,333 l 0,0.0312 2.5,75.1875 c 0,0 0,0.0312 0,0.0312 -4.9e-4,0.0297 -0.20464,13.23958 -1,27.8125 -0.39812,7.29464 -0.9569,14.90804 -1.6875,21.375 -0.7306,6.46696 -1.68172,11.81933 -2.78125,14.375 -2.37647,5.52368 -4.82776,18.46682 -7.0625,30.4375 -1.11737,5.98534 -2.16843,11.71844 -3.09375,16.09375 -0.46266,2.18766 -0.89183,4.03858 -1.28125,5.40625 -0.19471,0.68383 -0.39527,1.24051 -0.5625,1.65625 -0.16723,0.41574 -0.32445,0.69945 -0.375,0.75 -0.16441,0.16441 -0.77788,0.43916 -1.65625,0.65625 -0.87837,0.21709 -2.02614,0.41162 -3.34375,0.5625 -2.63522,0.30177 -5.96018,0.46898 -9.1875,0.5625 C 513.51411,528.12455 507.375,528 507.375,528 l -0.0312,0 c 0,0 -6.13936,0.12455 -12.59375,-0.0625 -3.22719,-0.0935 -6.52112,-0.26073 -9.15625,-0.5625 -1.31756,-0.15088 -2.46541,-0.34541 -3.34375,-0.5625 -0.87834,-0.21709 -1.49183,-0.49183 -1.65625,-0.65625 l -0.0312,-0.0312 c -0.0593,-0.0688 -0.21607,-0.32366 -0.375,-0.71875 -0.16723,-0.41574 -0.33654,-0.97242 -0.53125,-1.65625 -0.38942,-1.36767 -0.81859,-3.21859 -1.28125,-5.40625 -0.92532,-4.37531 -1.97638,-10.10841 -3.09375,-16.09375 -2.23474,-11.97068 -4.71728,-24.91382 -7.09375,-30.4375 -1.09953,-2.55567 -2.0194,-7.90804 -2.75,-14.375 -0.7306,-6.46696 -1.28938,-14.08036 -1.6875,-21.375 -0.79536,-14.57292 -0.99951,-27.78285 -1,-27.8125 l 0,-0.0312 2.5,-75.1875 0,-0.0312 0.3125,-37.21875 0,-0.0312 c 0.003,-0.0585 2.46875,-44.93177 2.46875,-56.25 0,-5.56746 0.99915,-23.74531 2.5625,-41.90625 0.78168,-9.08047 1.70174,-18.17154 2.71875,-25.6875 1.01701,-7.51596 2.14694,-13.497 3.25,-16.21875 1.20149,-2.96464 2.11864,-8.47021 2.90625,-15.1875 0.78761,-6.71729 1.41873,-14.62215 1.96875,-22.25 0.55002,-7.62785 1.02522,-14.9913 1.46875,-20.59375 0.22176,-2.801224 0.43809,-5.140058 0.65625,-6.875 0.10908,-0.867471 0.20454,-1.573579 0.3125,-2.09375 0.0889,-0.42821 0.17827,-0.648559 0.21875,-0.75 0.92977,-0.07801 1.7564,-0.393892 2.4375,-0.96875 0.76914,-0.649165 1.40076,-1.556369 1.96875,-2.59375 1.13597,-2.074762 2.06954,-4.750367 3.34375,-7.40625 1.27421,-2.655883 2.87223,-5.272462 5.28125,-7.21875 2.40902,-1.946288 5.6249,-3.25 10.25,-3.25 z"
       id="path35"
       inkscape:connector-curvature="0" /><circle
       stroke-miterlimit="10"
       cx="544.41699"
       cy="358.08301"
       r="5.0830002"
       id="circle37"
       style="fill:#c19069;fill-opacity:1;stroke:#000000;stroke-miterlimit:10"
       sodipodi:cx="544.41699"
       sodipodi:cy="358.08301"
       sodipodi:rx="5.0830002"
       sodipodi:ry="5.0830002"
       d="m 549.49999,358.08301 c 0,2.80726 -2.27573,5.083 -5.083,5.083 -2.80726,0 -5.083,-2.27574 -5.083,-5.083 0,-2.80727 2.27574,-5.083 5.083,-5.083 2.80727,0 5.083,2.27573 5.083,5.083 z" /><circle
       stroke-miterlimit="10"
       cx="470.42801"
       cy="358.08301"
       r="5.0830002"
       id="circle39"
       style="fill:#c19069;fill-opacity:1;stroke:#000000;stroke-miterlimit:10"
       sodipodi:cx="470.42801"
       sodipodi:cy="358.08301"
       sodipodi:rx="5.0830002"
       sodipodi:ry="5.0830002"
       d="m 475.51101,358.08301 c 0,2.80726 -2.27574,5.083 -5.083,5.083 -2.80726,0 -5.083,-2.27574 -5.083,-5.083 0,-2.80727 2.27574,-5.083 5.083,-5.083 2.80726,0 5.083,2.27573 5.083,5.083 z" /></g><g
     id="Layer_8"
     transform="matrix(0.06994868,0,0,0.06994868,-1.9897568,0.28456406)" /><path
     inkscape:connector-curvature="0"
     style="fill:#c19069;fill-opacity:1;stroke:none;stroke-width:0.06994868000000000;stroke-miterlimit:10"
     id="path90"
     d="m 33.499965,69.953449 c 0,0 -0.36856,-0.202361 -0.36856,-0.641149 0,-0.438928 -0.249297,-30.215522 -0.249297,-31.370864 0,-1.155272 0.617857,-4.571076 0.617857,-4.571076 0,0 0.617857,3.415804 0.617857,4.571076 0,1.155272 -0.249297,30.931936 -0.249297,31.370794 0,0.438858 -0.36856,0.641219 -0.36856,0.641219 z"
     stroke-miterlimit="10" /><path
     style="font-size:medium;font-style:normal;font-variant:normal;font-weight:normal;font-stretch:normal;text-indent:0;text-align:start;text-decoration:none;line-height:normal;letter-spacing:normal;word-spacing:normal;text-transform:none;direction:ltr;block-progression:tb;writing-mode:lr-tb;text-anchor:start;baseline-shift:baseline;color:#000000;fill:#000000;fill-opacity:1;fill-rule:nonzero;stroke:none;stroke-width:0.06994868;marker:none;visibility:visible;display:inline;overflow:visible;enable-background:accumulate;font-family:Sans;-inkscape-font-specification:Sans"
     d="m 33.4375,33.5 0,29.9375 0.125,0 0,-29.9375 -0.125,0 z"
     id="line92"
     inkscape:connector-curvature="0" /><path
     inkscape:connector-curvature="0"
     style="fill:#c19069;fill-opacity:1;stroke:#000000;stroke-width:0.06994868;stroke-miterlimit:10"
     id="path94"
     d="m 33.504931,49.578588 -0.520348,0.369539 0.156755,19.364103 0.01483,0.148291 0.05379,0.160322 0.118563,0.179838 c 0,0 0.158923,0.148501 0.17634,0.148501 0.01742,0 0.176411,-0.148501 0.176411,-0.148501 l 0.118563,-0.179838 0.05379,-0.160322 0.01483,-0.148291 0.156825,-19.364103 -0.520349,-0.369539 z"
     stroke-miterlimit="10" /><path
     inkscape:connector-curvature="0"
     style="fill:#c19069;fill-opacity:1;stroke:#000000;stroke-width:0.06994868;stroke-miterlimit:10"
     id="path96"
     d="m 33.492061,69.949182 -0.176411,-0.148501 -0.118563,-0.179838 -0.05379,-0.160322 -0.01483,-0.148291 c 0,0 -0.03106,-4.867099 -0.03106,-5.199495 0,-0.332397 0.394651,-0.699487 0.394651,-0.699487 h 0.01301 c 0,0 0.394651,0.36709 0.394651,0.699487 0,0.332396 -0.03106,5.199495 -0.03106,5.199495 l -0.01483,0.148291 -0.05379,0.160322 -0.118563,0.179838 -0.176411,0.148501 h -0.01301 z"
     stroke-miterlimit="10" /><path
     style="font-size:medium;font-style:normal;font-variant:normal;font-weight:normal;font-stretch:normal;text-indent:0;text-align:start;text-decoration:none;line-height:normal;letter-spacing:normal;word-spacing:normal;text-transform:none;direction:ltr;block-progression:tb;writing-mode:lr-tb;text-anchor:start;baseline-shift:baseline;color:#000000;fill:#000000;fill-opacity:1;fill-rule:nonzero;stroke:none;stroke-width:0.035;marker:none;visibility:visible;display:inline;overflow:visible;enable-background:accumulate;font-family:Sans;-inkscape-font-specification:Sans;stroke-miterlimit:10;stroke-dasharray:none"
     d="M 33.5,33.09375 33.4375,33.375 c 0,0 -0.126674,0.84467 -0.28125,1.84375 -0.154576,0.99908 -0.3125,2.1322 -0.3125,2.71875 0,0.581267 0.06268,8.325315 0.125,15.96875 0.03116,3.821718 0.03913,7.597421 0.0625,10.46875 0.02337,2.871329 0.0625,4.832501 0.0625,4.9375 0,0.466786 0.375,0.6875 0.375,0.6875 l 0.03125,0 0.03125,0 c 0,0 0.375,-0.220648 0.375,-0.6875 0,-0.104981 0.03913,-2.066175 0.0625,-4.9375 0.02337,-2.871325 0.03134,-6.647032 0.0625,-10.46875 0.06232,-7.643435 0.125,-15.387517 0.125,-15.96875 0,-0.58655 -0.157924,-1.71967 -0.3125,-2.71875 C 33.689174,34.21967 33.5625,33.375 33.5625,33.375 L 33.5,33.09375 z m 0,0.65625 c 0.04492,0.253098 0.127026,0.673925 0.25,1.46875 0.154353,0.99764 0.3125,2.150028 0.3125,2.71875 0,0.574039 -0.06268,8.325321 -0.125,15.96875 -0.03116,3.821715 -0.07038,7.597419 -0.09375,10.46875 -0.02337,2.871331 -0.03125,4.823052 -0.03125,4.9375 0,0.369096 -0.256282,0.49683 -0.3125,0.53125 -0.05622,-0.03442 -0.3125,-0.162221 -0.3125,-0.53125 0,-0.114465 -0.0079,-2.066165 -0.03125,-4.9375 -0.02337,-2.871335 -0.06259,-6.647035 -0.09375,-10.46875 -0.06232,-7.643429 -0.125,-15.394675 -0.125,-15.96875 0,-0.568722 0.158147,-1.72111 0.3125,-2.71875 0.122974,-0.794825 0.205079,-1.215652 0.25,-1.46875 z"
     id="path3051"
     inkscape:connector-curvature="0" /><g
     id="g3065"
     transform="translate(4.1585002e-8,0.002186)"><g
       transform="matrix(0.07000659,0,0,0.07000659,-2.0191386,0.24993177)"
       id="L_tail-1"><path
         style="fill:#c19069;stroke:#000000;stroke-miterlimit:10;fill-opacity:1"
         inkscape:connector-curvature="0"
         id="path5"
         d="m 496.033,958.5 5.668,-26.506 -0.553,-68.495 -147.365,25.751 c 0,0 -18.627,5.857 -20.25,13 -1.623,7.143 -2.5,11 -2.5,11 l -2.25,0.083 v 31.917 l 167.25,13.25 z"
         stroke-miterlimit="10" /><rect
         style="fill:#c19069;stroke:#000000;stroke-miterlimit:10;fill-opacity:1"
         id="rect7"
         height="10.666"
         width="172.83099"
         stroke-miterlimit="10"
         y="913.16699"
         x="328.78299" /></g><g
       transform="matrix(0.07000659,0,0,0.07000659,-2.0191386,0.24993177)"
       id="R_Tail"><path
         style="fill:#c19069;stroke:#000000;stroke-miterlimit:10;fill-opacity:1"
         inkscape:connector-curvature="0"
         id="path10"
         d="m 518.75,958.5 -5.669,-26.506 0.554,-68.495 L 661,889.25 c 0,0 18.627,5.857 20.25,13 1.623,7.143 2.5,11 2.5,11 l 2.25,0.083 V 945.25 L 518.75,958.5 z"
         stroke-miterlimit="10" /><rect
         style="fill:#c19069;stroke:#000000;stroke-miterlimit:10;fill-opacity:1"
         id="rect12"
         height="10.666"
         width="172.83"
         stroke-miterlimit="10"
         y="913.16699"
         x="513.16998" /></g><g
       transform="matrix(0.07000659,0,0,0.07000659,-2.0191386,0.24993177)"
       id="R_propeller"><path
         style="fill:#2b2929;stroke:#000000;stroke-miterlimit:10"
         inkscape:connector-curvature="0"
         id="path42"
         d="m 656.397,215.688 c 0,2.863 -23.197,6.3 -23.197,6.3 0,0 -41.524,4.296 -38.661,1.432 2.863,-2.864 41.525,-9.165 41.525,-9.165 0,0 20.333,-1.431 20.333,1.433 z"
         stroke-miterlimit="10" /><path
         style="fill:#2b2929;stroke:#000000;stroke-miterlimit:10"
         inkscape:connector-curvature="0"
         id="path44"
         d="m 676.667,207 c 0,-3.333 27,-7.333 27,-7.333 0,0 48.333,-5 45,-1.667 -3.333,3.333 -48.333,10.667 -48.333,10.667 0,0 -23.667,1.666 -23.667,-1.667 z"
         stroke-miterlimit="10" /><path
         style="fill:#2b2929;stroke:#000000;stroke-miterlimit:10"
         inkscape:connector-curvature="0"
         id="path46"
         d="m 656.359,210.023 c -1.003,2.607 -23.333,-2.396 -23.333,-2.396 0,0 -39.321,-10.645 -35.71,-12.25 3.611,-1.603 41.027,6.212 41.027,6.212 0,0 19.02,5.826 18.016,8.434 z"
         stroke-miterlimit="10" /><path
         style="fill:#2b2929;stroke:#000000;stroke-miterlimit:10"
         inkscape:connector-curvature="0"
         id="path48"
         d="m 673.709,212.096 c 1.003,-2.607 23.333,2.396 23.333,2.396 0,0 39.321,10.645 35.71,12.25 -3.611,1.603 -41.027,-6.212 -41.027,-6.212 0,0 -19.02,-5.825 -18.016,-8.434 z"
         stroke-miterlimit="10" /><path
         style="fill:#2b2929;stroke:#000000;stroke-miterlimit:10"
         inkscape:connector-curvature="0"
         id="path50"
         d="m 666.664,186.333 c 0,0 -15.997,7.333 -15.997,36.667 15,-13 30,0 30,0 0,-29.667 -14.003,-36.667 -14.003,-36.667 z"
         stroke-miterlimit="10" /><path
         style="fill:#2b2929;stroke:#000000;stroke-miterlimit:10"
         inkscape:connector-curvature="0"
         id="path52"
         d="m 666.233,207.187 c -1.416,-1.083 5.666,-13.86 5.666,-13.86 0,0 13.596,-22.169 13.929,-19.667 0.332,2.5 -11.188,24.011 -11.188,24.011 0,0 -6.99,10.6 -8.407,9.516 z"
         stroke-miterlimit="10" /></g><g
       transform="matrix(0.07000659,0,0,0.07000659,-2.0191386,0.24993177)"
       id="Layer_8-0" /><g
       transform="matrix(0.07000659,0,0,0.07000659,-2.0191386,0.24993177)"
       id="R_Wing"><path
         style="fill:#c19069;stroke:#000000;stroke-miterlimit:10;fill-opacity:1"
         inkscape:connector-curvature="0"
         id="path56"
         d="m 507.368,294.333 h 37.049 L 580.5,305.5 H 642 c 0,0 0,-15.833 0,-41 0,-25.167 4.333,-34.833 5,-41 1.667,-9.5 34.667,-17.833 38,0 3.491,22.02 6.5,22.833 6.5,41 0,18.167 0,30 0,30 0,0 3.241,11 9.054,11 5.813,0 219.946,21 219.946,21 l 53.5,55 V 394 l -166,5.5 -300.631,5.5 -0.001,-110.667 z"
         stroke-miterlimit="10" /><path
         style="fill:#c19069;stroke:#000000;stroke-miterlimit:10;fill-opacity:1"
         inkscape:connector-curvature="0"
         id="path58"
         d="m 670.168,408.222 c -3,0 -3.504,-6.128 -3.504,-6.128 l 7.007,-0.137 c 0,0.001 -0.503,6.265 -3.503,6.265 z"
         stroke-miterlimit="10" /><polygon
         style="fill:#c19069;stroke:#000000;stroke-miterlimit:10;fill-opacity:1"
         id="polygon60"
         points="551.662,383.011 552.5,404.174 808,399.5 944,394.994 944,376 "
         stroke-miterlimit="10" /><polygon
         style="fill:#c19069;stroke:#000000;stroke-miterlimit:10;fill-opacity:1"
         id="polygon62"
         points="808.5,368.5 808.5,378.421 551.662,383.011 551.18,368.5 "
         stroke-miterlimit="10" /><polygon
         style="fill:#c19069;stroke:#000000;stroke-miterlimit:10;fill-opacity:1"
         id="polygon64"
         points="693,368.5 693,380.485 808.5,378.421 808.5,368.5 "
         stroke-miterlimit="10" /></g><g
       transform="matrix(0.07000659,0,0,0.07000659,-2.0191386,0.24993177)"
       id="Layer_9"><path
         style="fill:#2b2929;stroke:#000000;stroke-miterlimit:10"
         inkscape:connector-curvature="0"
         id="path67"
         d="m 358.34,215.688 c 0,2.863 23.197,6.3 23.197,6.3 0,0 41.524,4.296 38.661,1.432 -2.863,-2.864 -41.525,-9.165 -41.525,-9.165 0,0 -20.333,-1.431 -20.333,1.433 z"
         stroke-miterlimit="10" /><path
         style="fill:#2b2929;stroke:#000000;stroke-miterlimit:10"
         inkscape:connector-curvature="0"
         id="path69"
         d="m 338.07,207 c 0,-3.333 -27,-7.333 -27,-7.333 0,0 -48.333,-5 -45,-1.667 3.333,3.333 48.333,10.667 48.333,10.667 0,0 23.667,1.666 23.667,-1.667 z"
         stroke-miterlimit="10" /><path
         style="fill:#2b2929;stroke:#000000;stroke-miterlimit:10"
         inkscape:connector-curvature="0"
         id="path71"
         d="m 358.378,210.023 c 1.003,2.607 23.333,-2.396 23.333,-2.396 0,0 39.321,-10.645 35.71,-12.25 -3.611,-1.603 -41.027,6.212 -41.027,6.212 0,0 -19.02,5.826 -18.016,8.434 z"
         stroke-miterlimit="10" /><path
         style="fill:#2b2929;stroke:#000000;stroke-miterlimit:10"
         inkscape:connector-curvature="0"
         id="path73"
         d="m 341.028,212.096 c -1.003,-2.607 -23.333,2.396 -23.333,2.396 0,0 -39.321,10.645 -35.71,12.25 3.611,1.603 41.027,-6.212 41.027,-6.212 0,0 19.02,-5.825 18.016,-8.434 z"
         stroke-miterlimit="10" /><path
         style="fill:#2b2929;stroke:#000000;stroke-miterlimit:10"
         inkscape:connector-curvature="0"
         id="path75"
         d="m 348.073,186.333 c 0,0 15.997,7.333 15.997,36.667 -15,-13 -30,0 -30,0 0,-29.667 14.003,-36.667 14.003,-36.667 z"
         stroke-miterlimit="10" /><path
         style="fill:#2b2929;stroke:#000000;stroke-miterlimit:10"
         inkscape:connector-curvature="0"
         id="path77"
         d="m 348.504,207.187 c 1.416,-1.083 -5.666,-13.86 -5.666,-13.86 0,0 -13.596,-22.169 -13.929,-19.667 -0.332,2.5 11.188,24.011 11.188,24.011 0,0 6.99,10.6 8.407,9.516 z"
         stroke-miterlimit="10" /><path
         style="fill:#c19069;stroke:#000000;stroke-miterlimit:10;fill-opacity:1"
         inkscape:connector-curvature="0"
         id="path79"
         d="M 507.369,294.333 H 470.32 L 434.237,305.5 h -61.5 c 0,0 0,-15.833 0,-41 0,-25.167 -4.333,-34.833 -5,-41 -1.667,-9.5 -34.667,-17.833 -38,0 -3.491,22.02 -6.5,22.833 -6.5,41 0,18.167 0,30 0,30 0,0 -3.241,11 -9.054,11 -5.813,0 -219.946,21 -219.946,21 l -53.5,55 V 394 l 166,5.5 300.631,5.5 0.001,-110.667 z"
         stroke-miterlimit="10" /><path
         style="fill:#c19069;stroke:#000000;stroke-miterlimit:10;fill-opacity:1"
         inkscape:connector-curvature="0"
         id="path81"
         d="m 344.569,408.222 c 3,0 3.504,-6.128 3.504,-6.128 l -7.007,-0.137 c 0,0.001 0.503,6.265 3.503,6.265 z"
         stroke-miterlimit="10" /><polygon
         style="fill:#c19069;stroke:#000000;stroke-miterlimit:10;fill-opacity:1"
         id="polygon83"
         points="463.075,383.011 462.237,404.174 206.737,399.5 70.737,394.994 70.737,376 "
         stroke-miterlimit="10" /><polygon
         style="fill:#c19069;stroke:#000000;stroke-miterlimit:10;fill-opacity:1"
         id="polygon85"
         points="206.237,368.5 206.237,378.421 463.075,383.011 463.558,368.5 "
         stroke-miterlimit="10" /><polygon
         style="fill:#c19069;stroke:#000000;stroke-miterlimit:10;fill-opacity:1"
         id="polygon87"
         points="321.737,368.5 321.737,380.485 206.237,378.421 206.237,368.5 "
         stroke-miterlimit="10" /></g></g></svg>