<?xml version="1.0" encoding="UTF-8" standalone="no"?>
<!-- Generator: Adobe Illustrator 15.1.0, SVG Export Plug-In . SVG Version: 6.00 Build 0)  -->

<svg
   xmlns:dc="http://purl.org/dc/elements/1.1/"
   xmlns:cc="http://creativecommons.org/ns#"
   xmlns:rdf="http://www.w3.org/1999/02/22-rdf-syntax-ns#"
   xmlns:svg="http://www.w3.org/2000/svg"
   xmlns="http://www.w3.org/2000/svg"
   xmlns:xlink="http://www.w3.org/1999/xlink"
   xmlns:sodipodi="http://sodipodi.sourceforge.net/DTD/sodipodi-0.dtd"
   xmlns:inkscape="http://www.inkscape.org/namespaces/inkscape"
   version="1.1"
   x="0px"
   y="0px"
   width="9"
   height="29"
   viewBox="0 0 9 29"
   enable-background="new 0 0 1000 1000"
   xml:space="preserve"
   id="svg2"
   inkscape:version="0.48.5 r10040"
   sodipodi:docname="Dornier_328_fuselage_2.svg"><metadata
     id="metadata102"><rdf:RDF><cc:Work
         rdf:about=""><dc:format>image/svg+xml</dc:format><dc:type
           rdf:resource="http://purl.org/dc/dcmitype/StillImage" /><dc:title></dc:title></cc:Work></rdf:RDF></metadata><defs
     id="defs100"><linearGradient
       id="linearGradient3859"><stop
         style="stop-color:#765337;stop-opacity:1"
         offset="0"
         id="stop3861" /><stop
         id="stop3869"
         offset="0.38146022"
         style="stop-color:#c19069;stop-opacity:1;" /><stop
         id="stop3867"
         offset="0.59859514"
         style="stop-color:#c19069;stop-opacity:1;" /><stop
         style="stop-color:#765337;stop-opacity:1"
         offset="1"
         id="stop3863" /></linearGradient><linearGradient
       inkscape:collect="always"
       xlink:href="#linearGradient3859"
       id="linearGradient3865"
       x1="450.38901"
       y1="483.33249"
       x2="564.34802"
       y2="483.33249"
       gradientUnits="userSpaceOnUse" /><linearGradient
       inkscape:collect="always"
       xlink:href="#linearGradient3859"
       id="linearGradient3875"
       gradientUnits="userSpaceOnUse"
       x1="450.38901"
       y1="483.33249"
       x2="564.34802"
       y2="483.33249" /><linearGradient
       inkscape:collect="always"
       xlink:href="#linearGradient3859"
       id="linearGradient3863"
       gradientUnits="userSpaceOnUse"
       x1="450.38901"
       y1="483.33249"
       x2="564.34802"
       y2="483.33249" /><linearGradient
       inkscape:collect="always"
       xlink:href="#linearGradient3859"
       id="linearGradient3880"
       gradientUnits="userSpaceOnUse"
       x1="450.38901"
       y1="483.33249"
       x2="564.34802"
       y2="483.33249"
       gradientTransform="matrix(0.06994868,0,0,0.06994868,-1.9897568,0.28456406)" /><linearGradient
       inkscape:collect="always"
       xlink:href="#linearGradient3859"
       id="linearGradient3953"
       gradientUnits="userSpaceOnUse"
       gradientTransform="matrix(0.06994868,0,0,0.06994868,-1.9897566,0.28456406)"
       x1="450.38901"
       y1="483.33249"
       x2="564.34802"
       y2="483.33249" /><linearGradient
       inkscape:collect="always"
       xlink:href="#linearGradient3859"
       id="linearGradient3959"
       gradientUnits="userSpaceOnUse"
       gradientTransform="matrix(0.06994868,0,0,0.06994868,-30.989757,-41.690027)"
       x1="450.38901"
       y1="483.33249"
       x2="564.34802"
       y2="483.33249" /></defs><sodipodi:namedview
     pagecolor="#ffffff"
     bordercolor="#666666"
     borderopacity="1"
     objecttolerance="10"
     gridtolerance="10"
     guidetolerance="10"
     inkscape:pageopacity="0"
     inkscape:pageshadow="2"
     inkscape:window-width="1920"
     inkscape:window-height="1060"
     id="namedview98"
     showgrid="false"
     inkscape:zoom="7.5520001"
     inkscape:cx="-3.0069819"
     inkscape:cy="27.810212"
     inkscape:window-x="-2"
     inkscape:window-y="-3"
     inkscape:window-maximized="1"
     inkscape:current-layer="svg2"
     fit-margin-top="1"
     fit-margin-left="1"
     fit-margin-right="1"
     fit-margin-bottom="1" /><path
     style="fill:url(#linearGradient3959);fill-opacity:1;stroke:none"
     d="M 0.84375,0.96290924 C 1.588817,6.0714293 3.8125,18.401692 3.8125,20.150409 c 0,2.098461 0.106996,5 0.6875,5 0.580434,0 0.6875,-2.901539 0.6875,-5 0,-1.748717 2.223683,-14.0789797 2.96875,-19.18749976 l -7.3125,0 z"
     id="path15"
     inkscape:connector-curvature="0" /><path
     style="font-size:medium;font-style:normal;font-variant:normal;font-weight:normal;font-stretch:normal;text-indent:0;text-align:start;text-decoration:none;line-height:normal;letter-spacing:normal;word-spacing:normal;text-transform:none;direction:ltr;block-progression:tb;writing-mode:lr-tb;text-anchor:start;baseline-shift:baseline;color:#000000;fill:#000000;fill-opacity:1;fill-rule:nonzero;stroke:none;stroke-width:2;marker:none;visibility:visible;display:inline;overflow:visible;enable-background:accumulate;font-family:Sans;-inkscape-font-specification:Sans"
     d="m 0.78125,0.96290924 c 0.07462,0.51156306 0.149389,0.98545106 0.25,1.62500006 0.301834,1.918648 0.69142,4.354939 1.09375,6.78125 0.402331,2.4263107 0.792095,4.8512877 1.09375,6.8124997 0.301655,1.961212 0.5,3.462017 0.5,3.96875 0,1.050525 0.05408,2.286617 0.15625,3.28125 0.05109,0.497316 0.12372,0.936155 0.21875,1.25 0.04751,0.156922 0.09035,0.281105 0.15625,0.375 0.0659,0.09389 0.148208,0.15625 0.25,0.15625 0.101786,0 0.184104,-0.06236 0.25,-0.15625 0.0659,-0.0939 0.10874,-0.218079 0.15625,-0.375 0.09502,-0.313843 0.167669,-0.752684 0.21875,-1.25 0.102161,-0.994632 0.15625,-2.230725 0.15625,-3.28125 0,-0.506733 0.198344,-2.007538 0.5,-3.96875 0.301655,-1.961212 0.691419,-4.386189 1.09375,-6.8124997 0.402331,-2.426311 0.791916,-4.862602 1.09375,-6.78125 0.100612,-0.639549 0.175376,-1.113437 0.25,-1.62500006 l -0.125,0 C 8.01967,1.4694173 7.943063,1.9566183 7.84375,2.5879093 c -0.30167,1.9176 -0.691409,4.323621 -1.09375,6.75 -0.402342,2.4263777 -0.823151,4.8500277 -1.125,6.8124997 -0.301849,1.962471 -0.5,3.457503 -0.5,4 0,1.047935 -0.02379,2.295844 -0.125,3.28125 -0.05061,0.492702 -0.128673,0.921233 -0.21875,1.21875 -0.04504,0.148759 -0.104675,0.27026 -0.15625,0.34375 -0.05158,0.07349 -0.08168,0.09375 -0.125,0.09375 -0.04333,0 -0.07342,-0.02026 -0.125,-0.09375 C 4.32342,24.920669 4.263794,24.799167 4.21875,24.650409 4.12866,24.352893 4.050612,23.924361 4,23.431659 3.898778,22.446254 3.875,21.198344 3.875,20.150409 c 0,-0.542497 -0.198151,-2.037529 -0.5,-4 C 3.073152,14.187937 2.652341,11.764287 2.25,9.3379093 c -0.402341,-2.426379 -0.79208,-4.8324 -1.09375,-6.75 -0.09931,-0.631291 -0.175915,-1.118492 -0.25,-1.62500006 l -0.125,0 z"
     id="path3871"
     inkscape:connector-curvature="0" /><path
     style="fill:#c19069;fill-opacity:1;stroke:none"
     d="M 3.90625,0.96290924 C 3.9624,8.3652623 4.125,26.968929 4.125,27.337909 c 0,0.438788 0.375,0.65625 0.375,0.65625 0,0 0.375,-0.217392 0.375,-0.65625 0,-0.368921 0.1626,-18.9726737 0.21875,-26.37499976 l -1.1875,0 z"
     id="path90"
     inkscape:connector-curvature="0" /><path
     style="font-size:medium;font-style:normal;font-variant:normal;font-weight:normal;font-stretch:normal;text-indent:0;text-align:start;text-decoration:none;line-height:normal;letter-spacing:normal;word-spacing:normal;text-transform:none;direction:ltr;block-progression:tb;writing-mode:lr-tb;text-anchor:start;baseline-shift:baseline;color:#000000;fill:#000000;fill-opacity:1;fill-rule:nonzero;stroke:none;stroke-width:0.06994868;marker:none;visibility:visible;display:inline;overflow:visible;enable-background:accumulate;font-family:Sans;-inkscape-font-specification:Sans"
     d="m 4.4375,0.96290924 0,20.49999976 0.125,0 0,-20.49999976 -0.125,0 z"
     id="line92"
     inkscape:connector-curvature="0" /><path
     inkscape:connector-curvature="0"
     style="fill:#c19069;fill-opacity:1;stroke:#000000;stroke-width:0.06994868;stroke-miterlimit:10"
     id="path94"
     d="m 4.504931,7.6039973 -0.520348,0.369539 0.156755,19.3641027 0.01483,0.148291 0.05379,0.160322 0.118563,0.179838 c 0,0 0.158923,0.148501 0.17634,0.148501 0.01742,0 0.176411,-0.148501 0.176411,-0.148501 L 4.799835,27.646252 4.853625,27.48593 4.868455,27.337639 5.02528,7.9735363 4.504931,7.6039973 z"
     stroke-miterlimit="10" /><path
     inkscape:connector-curvature="0"
     style="fill:#c19069;fill-opacity:1;stroke:#000000;stroke-width:0.06994868;stroke-miterlimit:10"
     id="path96"
     d="M 4.492061,27.974591 4.31565,27.82609 4.197087,27.646252 4.143297,27.48593 4.128467,27.337639 c 0,0 -0.03106,-4.867099 -0.03106,-5.199495 0,-0.332397 0.394651,-0.699487 0.394651,-0.699487 h 0.01301 c 0,0 0.394651,0.36709 0.394651,0.699487 0,0.332396 -0.03106,5.199495 -0.03106,5.199495 l -0.01483,0.148291 -0.05379,0.160322 -0.118563,0.179838 -0.176411,0.148501 h -0.01301 z"
     stroke-miterlimit="10" /><path
     style="font-size:medium;font-style:normal;font-variant:normal;font-weight:normal;font-stretch:normal;text-indent:0;text-align:start;text-decoration:none;line-height:normal;letter-spacing:normal;word-spacing:normal;text-transform:none;direction:ltr;block-progression:tb;writing-mode:lr-tb;text-anchor:start;baseline-shift:baseline;color:#000000;fill:#000000;fill-opacity:1;fill-rule:nonzero;stroke:none;stroke-width:0.035;marker:none;visibility:visible;display:inline;overflow:visible;enable-background:accumulate;font-family:Sans;-inkscape-font-specification:Sans"
     d="M 3.875,0.96290924 C 3.89772,3.9540733 3.92594,6.6814423 3.96875,11.931659 c 0.03116,3.821718 0.03913,7.597421 0.0625,10.46875 0.02337,2.871329 0.0625,4.832501 0.0625,4.9375 0,0.466786 0.375,0.6875 0.375,0.6875 l 0.03125,0 0.03125,0 c 0,0 0.375,-0.220648 0.375,-0.6875 0,-0.104981 0.03913,-2.066175 0.0625,-4.9375 0.02337,-2.871325 0.03134,-6.647032 0.0625,-10.46875 C 5.07406,6.6814423 5.10228,3.9540723 5.125,0.96290924 l -0.09375,0 C 5.00853,3.9538683 4.98031,6.6814463 4.9375,11.931659 4.90634,15.753374 4.86712,19.529078 4.84375,22.400409 4.82038,25.27174 4.8125,27.223461 4.8125,27.337909 c 0,0.369096 -0.256282,0.49683 -0.3125,0.53125 -0.05622,-0.03442 -0.3125,-0.162221 -0.3125,-0.53125 0,-0.114465 -0.0079,-2.066165 -0.03125,-4.9375 C 4.13288,19.529074 4.09366,15.753374 4.0625,11.931659 4.01969,6.6814463 3.99147,3.9538693 3.96875,0.96290924 l -0.09375,0 z"
     id="path3051"
     inkscape:connector-curvature="0" /></svg>