<?xml version="1.0" encoding="UTF-8" standalone="no"?>
<!-- Generator: Adobe Illustrator 15.1.0, SVG Export Plug-In . SVG Version: 6.00 Build 0)  -->

<svg
   xmlns:dc="http://purl.org/dc/elements/1.1/"
   xmlns:cc="http://creativecommons.org/ns#"
   xmlns:rdf="http://www.w3.org/1999/02/22-rdf-syntax-ns#"
   xmlns:svg="http://www.w3.org/2000/svg"
   xmlns="http://www.w3.org/2000/svg"
   xmlns:xlink="http://www.w3.org/1999/xlink"
   xmlns:sodipodi="http://sodipodi.sourceforge.net/DTD/sodipodi-0.dtd"
   xmlns:inkscape="http://www.inkscape.org/namespaces/inkscape"
   version="1.1"
   x="0px"
   y="0px"
   width="10"
   height="23"
   viewBox="0 0 10 23"
   enable-background="new 0 0 1000 1000"
   xml:space="preserve"
   id="svg2"
   inkscape:version="0.48.5 r10040"
   sodipodi:docname="Dornier_328.svg"><metadata
     id="metadata102"><rdf:RDF><cc:Work
         rdf:about=""><dc:format>image/svg+xml</dc:format><dc:type
           rdf:resource="http://purl.org/dc/dcmitype/StillImage" /><dc:title></dc:title></cc:Work></rdf:RDF></metadata><defs
     id="defs100"><linearGradient
       id="linearGradient3859"><stop
         style="stop-color:#765337;stop-opacity:1"
         offset="0"
         id="stop3861" /><stop
         id="stop3869"
         offset="0.38146022"
         style="stop-color:#c19069;stop-opacity:1;" /><stop
         id="stop3867"
         offset="0.59859514"
         style="stop-color:#c19069;stop-opacity:1;" /><stop
         style="stop-color:#765337;stop-opacity:1"
         offset="1"
         id="stop3863" /></linearGradient><linearGradient
       inkscape:collect="always"
       xlink:href="#linearGradient3859"
       id="linearGradient3865"
       x1="450.38901"
       y1="483.33249"
       x2="564.34802"
       y2="483.33249"
       gradientUnits="userSpaceOnUse" /><linearGradient
       inkscape:collect="always"
       xlink:href="#linearGradient3859"
       id="linearGradient3875"
       gradientUnits="userSpaceOnUse"
       x1="450.38901"
       y1="483.33249"
       x2="564.34802"
       y2="483.33249"
       gradientTransform="matrix(0.06994868,0,0,0.06994868,-1.9897566,0.28456406)" /><linearGradient
       inkscape:collect="always"
       xlink:href="#linearGradient3859"
       id="linearGradient3820"
       gradientUnits="userSpaceOnUse"
       gradientTransform="matrix(0.06994868,0,0,0.06994868,-1.9897566,0.28456406)"
       x1="450.38901"
       y1="483.33249"
       x2="564.34802"
       y2="483.33249" /></defs><sodipodi:namedview
     pagecolor="#ffffff"
     bordercolor="#666666"
     borderopacity="1"
     objecttolerance="10"
     gridtolerance="10"
     guidetolerance="10"
     inkscape:pageopacity="0"
     inkscape:pageshadow="2"
     inkscape:window-width="1920"
     inkscape:window-height="1060"
     id="namedview98"
     showgrid="false"
     inkscape:zoom="15.104"
     inkscape:cx="7.1627805"
     inkscape:cy="9.0236085"
     inkscape:window-x="-2"
     inkscape:window-y="-3"
     inkscape:window-maximized="1"
     inkscape:current-layer="svg2"
     fit-margin-top="1"
     fit-margin-left="1"
     fit-margin-right="1"
     fit-margin-bottom="1" /><g
     id="L_tail"
     transform="matrix(0.06994868,0,0,0.06994868,-30.489758,0.2064386)" /><g
     id="Body"
     transform="matrix(0.06994868,0,0,0.06994868,-30.489758,0.2064386)"><path
       style="fill:url(#linearGradient3820);fill-opacity:1;stroke:none"
       d="m 33.5,1.0625 c -0.748731,0 -3.555998,2.5951269 -3.8125,7.375 0,2.254844 -0.0069,7.595911 -0.03125,13.71875 l 7.6875,0 C 37.319387,16.033416 37.3125,10.692374 37.3125,8.4375 37.055998,3.6576269 34.248661,1.0625 33.5,1.0625 z"
       transform="matrix(14.296196,0,0,14.296196,28.44595,-4.0681834)"
       id="path15"
       inkscape:connector-curvature="0" /><path
       style="font-size:medium;font-style:normal;font-variant:normal;font-weight:normal;font-stretch:normal;text-indent:0;text-align:start;text-decoration:none;line-height:normal;letter-spacing:normal;word-spacing:normal;text-transform:none;direction:ltr;block-progression:tb;writing-mode:lr-tb;text-anchor:start;baseline-shift:baseline;color:#000000;fill:#000000;fill-opacity:1;fill-rule:nonzero;stroke:none;stroke-width:2;marker:none;visibility:visible;display:inline;overflow:visible;enable-background:accumulate;font-family:Sans;-inkscape-font-specification:Sans"
       d="m 33.5,1 c -0.227426,0 -0.52918,0.1466875 -0.90625,0.46875 -0.37707,0.3220625 -0.834768,0.8107145 -1.25,1.4375 -0.830464,1.253571 -1.589807,3.0971719 -1.71875,5.5 l 0,0.03125 c 0,2.254416 -0.03804,7.596379 -0.0625,13.71875 l 0.15625,0 C 29.743206,16.033789 29.781243,10.693784 29.78125,8.4375 29.909164,6.0615426 30.651707,4.2333127 31.46875,3 31.8774,2.3831504 32.322303,1.9056717 32.6875,1.59375 33.052697,1.2818283 33.353061,1.125 33.5,1.125 c 0.146918,0 0.478563,0.1568282 0.84375,0.46875 0.365187,0.3119218 0.778854,0.7894003 1.1875,1.40625 0.817035,1.2333129 1.559586,3.0615426 1.6875,5.4375 7e-6,2.256314 0.03804,7.596293 0.0625,13.71875 l 0.15625,0 C 37.413043,16.033884 37.375,10.691946 37.375,8.4375 l 0,-0.03125 C 37.246057,6.0034219 36.486705,4.1598208 35.65625,2.90625 35.241023,2.2794646 34.78331,1.7908124 34.40625,1.46875 34.02919,1.1466876 33.727412,1 33.5,1 z"
       transform="matrix(14.296196,0,0,14.296196,28.44595,-4.0681834)"
       id="path3871"
       inkscape:connector-curvature="0" /><path
       style="font-size:medium;font-style:normal;font-variant:normal;font-weight:normal;font-stretch:normal;text-indent:0;text-align:start;text-decoration:none;line-height:normal;letter-spacing:normal;word-spacing:normal;text-transform:none;direction:ltr;block-progression:tb;writing-mode:lr-tb;text-anchor:start;baseline-shift:baseline;color:#000000;fill:#000000;fill-opacity:1;fill-rule:nonzero;stroke:none;stroke-width:1;marker:none;visibility:visible;display:inline;overflow:visible;enable-background:accumulate;font-family:Sans;-inkscape-font-specification:Sans"
       d="m 466.40625,118.71875 c -1.10536,0.0236 -2.38251,0.125 -3.90625,0.125 -6.50931,0 -9.9375,6.59375 -9.9375,6.59375 l -0.0625,0.0937 0,0.125 0,29.84375 0,1.21875 0.84375,-0.875 c 0,0 6.25455,-6.34375 14.15625,-6.34375 l 0.0312,0 0.0312,0 c 1.78213,-0.20882 2.79003,-1.5981 3.3125,-2.84375 0.52247,-1.24565 0.625,-2.4375 0.625,-2.4375 l 0,-0.0312 0,-0.0312 0,-19.5 c 0,-1.69567 -0.14538,-2.89811 -0.5,-3.8125 -0.35462,-0.91439 -0.95935,-1.52056 -1.75,-1.8125 -0.79065,-0.29194 -1.73839,-0.33606 -2.84375,-0.3125 z m 0.0312,1.03125 c 1.06655,-0.0181 1.87402,0.0107 2.4375,0.21875 0.56348,0.20806 0.91196,0.50826 1.1875,1.21875 0.27554,0.71049 0.4375,1.83142 0.4375,3.46875 l 0,19.46875 0,0.0312 c -0.003,0.0283 -0.11569,1.02849 -0.5625,2.09375 -0.45303,1.0801 -1.18413,2.09582 -2.5,2.25 -7.56844,0.0302 -12.83489,4.93535 -13.9375,6 l 0,-28.6875 c 0.0933,-0.17275 3.26074,-5.96875 9,-5.96875 1.55976,0 2.87095,-0.0757 3.9375,-0.0937 z"
       id="path23"
       inkscape:connector-curvature="0" /><path
       style="font-size:medium;font-style:normal;font-variant:normal;font-weight:normal;font-stretch:normal;text-indent:0;text-align:start;text-decoration:none;line-height:normal;letter-spacing:normal;word-spacing:normal;text-transform:none;direction:ltr;block-progression:tb;writing-mode:lr-tb;text-anchor:start;baseline-shift:baseline;color:#000000;fill:#000000;fill-opacity:1;fill-rule:nonzero;stroke:none;stroke-width:1;marker:none;visibility:visible;display:inline;overflow:visible;enable-background:accumulate;font-family:Sans;-inkscape-font-specification:Sans"
       d="m 554.09375,123.65625 c 0,0 -1.0702,0.0113 -2.1875,0.375 -0.55865,0.18188 -1.16153,0.45359 -1.625,0.90625 -0.46347,0.45266 -0.78125,1.11152 -0.78125,1.90625 l 0,17.5 0,0.0312 0,0.0312 c 0,0 0.59758,4.33043 4.25,7.625 1.78528,1.61128 3.13367,2.43259 4.28125,3.25 1.14758,0.81741 2.1116,1.64174 3.25,3.34375 l 0.90625,1.34375 0,-1.625 0,-28.84375 0,-0.125 -0.0312,-0.0937 c -0.95681,-2.04712 -2.95595,-3.4233 -4.6875,-4.3125 -1.73155,-0.8892 -3.25,-1.28125 -3.25,-1.28125 l -0.0625,-0.0312 -0.0625,0 z m -0.0937,1 c 0.0248,0.007 1.38253,0.38813 3,1.21875 1.60713,0.82531 3.3706,2.10983 4.1875,3.78125 l 0,27.25 c -0.84885,-1.0199 -1.68967,-1.81579 -2.5625,-2.4375 -1.19242,-0.84934 -2.46378,-1.63178 -4.1875,-3.1875 C 551.06792,148.24182 550.5,144.25 550.5,144.25 l 0,-17.40625 c 0,-0.53877 0.19547,-0.89007 0.5,-1.1875 0.30453,-0.29743 0.72215,-0.536 1.1875,-0.6875 0.88613,-0.28849 1.72689,-0.31133 1.8125,-0.3125 z"
       id="path25"
       inkscape:connector-curvature="0" /><path
       stroke-miterlimit="10"
       d="m 508.202,38.333 v 10.833 c 4.818,0 22.289,4.833 27.465,12.333 0,0 0,-3.5 0,-8.667 0,-5.167 -20.798,-14.499 -27.465,-14.499 z"
       id="path27"
       style="fill:#2b2929;fill-opacity:1;stroke:#000000;stroke-miterlimit:10"
       inkscape:connector-curvature="0" /><path
       stroke-miterlimit="10"
       d="m 538.834,54.333 c 0,0 -0.803,8.339 0.863,11.53 3.032,6.525 4.512,11.355 4.97,17.081 -0.333,3.5 10.167,10.39 10.167,10.39 0,-13.667 -16,-39.001 -16,-39.001 z"
       id="path29"
       style="fill:#2b2929;fill-opacity:1;stroke:#000000;stroke-miterlimit:10"
       inkscape:connector-curvature="0" /><path
       stroke-miterlimit="10"
       d="m 506.368,38.333 v 10.833 c -4.818,0 -22.289,4.833 -27.465,12.333 0,0 0,-3.5 0,-8.667 0,-5.167 20.798,-14.499 27.465,-14.499 z"
       id="path31"
       style="fill:#2b2929;fill-opacity:1;stroke:#000000;stroke-miterlimit:10"
       inkscape:connector-curvature="0" /><path
       stroke-miterlimit="10"
       d="m 475.736,54.333 c 0,0 0.803,8.339 -0.863,11.53 -3.032,6.525 -4.512,11.355 -4.97,17.081 0.333,3.5 -10.167,10.39 -10.167,10.39 0,-13.667 16,-39.001 16,-39.001 z"
       id="path33"
       style="fill:#2b2929;fill-opacity:1;stroke:#000000;stroke-miterlimit:10"
       inkscape:connector-curvature="0" /><path
       style="font-size:medium;font-style:normal;font-variant:normal;font-weight:normal;font-stretch:normal;text-indent:0;text-align:start;text-decoration:none;line-height:normal;letter-spacing:normal;word-spacing:normal;text-transform:none;direction:ltr;block-progression:tb;writing-mode:lr-tb;text-anchor:start;baseline-shift:baseline;color:#000000;fill:#000000;fill-opacity:1;fill-rule:nonzero;stroke:none;stroke-width:1;marker:none;visibility:visible;display:inline;overflow:visible;enable-background:accumulate;font-family:Sans;-inkscape-font-specification:Sans"
       d="m 33.5,4.875 c -0.336796,0 -0.569486,0.07291 -0.75,0.21875 C 32.569486,5.2395903 32.435001,5.4348014 32.34375,5.625 32.252499,5.8151986 32.19993,6.0193962 32.125,6.15625 32.087535,6.2246769 32.043644,6.2756639 32,6.3125 31.956356,6.3493361 31.903427,6.375 31.84375,6.375 l -0.03125,0 C 31.79631,6.397668 31.78945,6.429244 31.78125,6.46875 31.77305,6.508256 31.75776,6.563268 31.75,6.625 c -0.01553,0.1234635 -0.0157,0.3035735 -0.03125,0.5 -0.0311,0.3928528 -0.05531,0.9043407 -0.09375,1.4375 -0.03844,0.5331593 -0.10139,1.0633661 -0.15625,1.53125 -0.05486,0.467884 -0.110311,0.87204 -0.1875,1.0625 -0.08385,0.207921 -0.147524,0.629873 -0.21875,1.15625 -0.07139,0.527562 -0.16401,1.145354 -0.21875,1.78125 -0.10948,1.271794 -0.15625,2.539874 -0.15625,2.9375 0,0.781913 -0.1875,3.9375 -0.1875,3.9375 l 0,1.1875 0.0625,0 0,-1.1875 c 2.1e-4,-0.0041 0.1875,-3.145805 0.1875,-3.9375 0,-0.389436 0.07815,-1.667166 0.1875,-2.9375 0.05468,-0.635167 0.116361,-1.255519 0.1875,-1.78125 0.07114,-0.525731 0.141592,-0.934617 0.21875,-1.125 0.08404,-0.207373 0.163658,-0.592634 0.21875,-1.0625 0.05509,-0.4698656 0.08653,-1.028942 0.125,-1.5625 0.03847,-0.533558 0.06273,-1.045616 0.09375,-1.4375 0.01551,-0.1959419 0.04724,-0.3786431 0.0625,-0.5 0.0076,-0.060678 -0.0076,-0.088615 0,-0.125 0.0062,-0.029953 0.02842,-0.055404 0.03125,-0.0625 0.06504,-0.00546 0.108608,-0.022289 0.15625,-0.0625 0.0538,-0.045408 0.11652,-0.1149366 0.15625,-0.1875 0.07946,-0.1451269 0.129621,-0.3454745 0.21875,-0.53125 0.08913,-0.1857755 0.206492,-0.3638597 0.375,-0.5 C 32.949758,5.0201097 33.17648,4.9375 33.5,4.9375 c 0.32352,1.71e-5 0.550242,0.0826 0.71875,0.21875 0.168508,0.1361501 0.285871,0.31422 0.375,0.5 0.08913,0.18578 0.13929,0.386122 0.21875,0.53125 0.03973,0.072564 0.10245,0.1420916 0.15625,0.1875 0.0471,0.039754 0.09214,0.056642 0.15625,0.0625 0.0028,0.00687 0.02497,0.032266 0.03125,0.0625 0.0076,0.036385 -0.0076,0.064322 0,0.125 0.01526,0.1213569 0.04699,0.3040581 0.0625,0.5 0.03102,0.391884 0.05528,0.903942 0.09375,1.4375 0.03847,0.533558 0.06991,1.0926344 0.125,1.5625 0.05509,0.469866 0.134707,0.855127 0.21875,1.0625 0.07716,0.190383 0.147611,0.599269 0.21875,1.125 0.07114,0.525731 0.132823,1.146083 0.1875,1.78125 0.109354,1.270334 0.1875,2.548064 0.1875,2.9375 0,0.791695 0.187273,3.933406 0.1875,3.9375 l 0,1.1875 0.0625,0 0,-1.1875 c 0,0 -0.1875,-3.155587 -0.1875,-3.9375 0,-0.397626 -0.04677,-1.665706 -0.15625,-2.9375 C 36.10151,13.457854 36.008886,12.840062 35.9375,12.3125 35.86611,11.784938 35.802824,11.3637 35.71875,11.15625 35.64156,10.96579 35.58611,10.561634 35.53125,10.09375 35.47639,9.6258661 35.413444,9.0956593 35.375,8.5625 35.336556,8.0293407 35.312351,7.5178528 35.28125,7.125 35.2657,6.9285735 35.265525,6.7484635 35.25,6.625 35.242237,6.5632683 35.226949,6.5082563 35.21875,6.46875 35.210551,6.4292437 35.203691,6.3976679 35.1875,6.375 l -0.03125,0 C 35.096573,6.375 35.043644,6.3493362 35,6.3125 34.956356,6.2756638 34.912465,6.2246774 34.875,6.15625 34.80007,6.0193951 34.747501,5.8152029 34.65625,5.625 34.564999,5.4347971 34.430514,5.2396001 34.25,5.09375 34.069486,4.9478999 33.836796,4.8750178 33.5,4.875 z"
       transform="matrix(14.296196,0,0,14.296196,28.44595,-4.0681834)"
       id="path35"
       inkscape:connector-curvature="0" /></g><g
     id="Layer_8"
     transform="matrix(0.06994868,0,0,0.06994868,-30.489758,0.2064386)" /></svg>