<?xml version="1.0" encoding="UTF-8" standalone="no"?>
<!-- Generator: Adobe Illustrator 15.1.0, SVG Export Plug-In . SVG Version: 6.00 Build 0)  -->

<svg
   xmlns:dc="http://purl.org/dc/elements/1.1/"
   xmlns:cc="http://creativecommons.org/ns#"
   xmlns:rdf="http://www.w3.org/1999/02/22-rdf-syntax-ns#"
   xmlns:svg="http://www.w3.org/2000/svg"
   xmlns="http://www.w3.org/2000/svg"
   xmlns:xlink="http://www.w3.org/1999/xlink"
   xmlns:sodipodi="http://sodipodi.sourceforge.net/DTD/sodipodi-0.dtd"
   xmlns:inkscape="http://www.inkscape.org/namespaces/inkscape"
   version="1.1"
   x="0px"
   y="0px"
   width="19"
   height="18"
   viewBox="0 0 19 18"
   enable-background="new 0 0 1000 1000"
   xml:space="preserve"
   id="svg2"
   inkscape:version="0.48.5 r10040"
   sodipodi:docname="Dornier_328_wing_L_1.svg"><metadata
     id="metadata102"><rdf:RDF><cc:Work
         rdf:about=""><dc:format>image/svg+xml</dc:format><dc:type
           rdf:resource="http://purl.org/dc/dcmitype/StillImage" /><dc:title></dc:title></cc:Work></rdf:RDF></metadata><defs
     id="defs100"><linearGradient
       id="linearGradient3859"><stop
         style="stop-color:#765337;stop-opacity:1"
         offset="0"
         id="stop3861" /><stop
         id="stop3869"
         offset="0.38146022"
         style="stop-color:#c19069;stop-opacity:1;" /><stop
         id="stop3867"
         offset="0.59859514"
         style="stop-color:#c19069;stop-opacity:1;" /><stop
         style="stop-color:#765337;stop-opacity:1"
         offset="1"
         id="stop3863" /></linearGradient><linearGradient
       inkscape:collect="always"
       xlink:href="#linearGradient3859"
       id="linearGradient3865"
       x1="450.38901"
       y1="483.33249"
       x2="564.34802"
       y2="483.33249"
       gradientUnits="userSpaceOnUse" /></defs><sodipodi:namedview
     pagecolor="#ffffff"
     bordercolor="#666666"
     borderopacity="1"
     objecttolerance="10"
     gridtolerance="10"
     guidetolerance="10"
     inkscape:pageopacity="0"
     inkscape:pageshadow="2"
     inkscape:window-width="1920"
     inkscape:window-height="1060"
     id="namedview98"
     showgrid="false"
     inkscape:zoom="21.360282"
     inkscape:cx="11.149062"
     inkscape:cy="5.3815576"
     inkscape:window-x="-2"
     inkscape:window-y="-3"
     inkscape:window-maximized="1"
     inkscape:current-layer="Layer_9"
     fit-margin-top="1"
     fit-margin-left="1"
     fit-margin-right="1"
     fit-margin-bottom="1" /><g
     id="Layer_9"
     transform="matrix(0.06994868,0,0,0.06994868,-17.564696,-11.589337)"><path
       stroke-miterlimit="10"
       d="m 358.8487,219.19464 c 0,2.863 23.197,6.3 23.197,6.3 0,0 41.524,4.296 38.661,1.432 -2.863,-2.864 -41.525,-9.165 -41.525,-9.165 0,0 -20.333,-1.431 -20.333,1.433 z"
       id="path67"
       style="fill:#2b2929;fill-opacity:1;stroke:#000000;stroke-miterlimit:10"
       inkscape:connector-curvature="0" /><path
       stroke-miterlimit="10"
       d="m 338.5787,210.50664 c 0,-3.333 -27,-7.333 -27,-7.333 0,0 -48.333,-5 -45,-1.667 3.333,3.333 48.333,10.667 48.333,10.667 0,0 23.667,1.666 23.667,-1.667 z"
       id="path69"
       style="fill:#2b2929;fill-opacity:1;stroke:#000000;stroke-miterlimit:10"
       inkscape:connector-curvature="0" /><path
       stroke-miterlimit="10"
       d="m 358.8867,213.52964 c 1.003,2.607 23.333,-2.396 23.333,-2.396 0,0 39.321,-10.645 35.71,-12.25 -3.611,-1.603 -41.027,6.212 -41.027,6.212 0,0 -19.02,5.826 -18.016,8.434 z"
       id="path71"
       style="fill:#2b2929;fill-opacity:1;stroke:#000000;stroke-miterlimit:10"
       inkscape:connector-curvature="0" /><path
       stroke-miterlimit="10"
       d="m 341.5367,215.60264 c -1.003,-2.607 -23.333,2.396 -23.333,2.396 0,0 -39.321,10.645 -35.71,12.25 3.611,1.603 41.027,-6.212 41.027,-6.212 0,0 19.02,-5.825 18.016,-8.434 z"
       id="path73"
       style="fill:#2b2929;fill-opacity:1;stroke:#000000;stroke-miterlimit:10"
       inkscape:connector-curvature="0" /><path
       stroke-miterlimit="10"
       d="m 348.5817,189.83964 c 0,0 15.997,7.333 15.997,36.667 -15,-13 -30,0 -30,0 0,-29.667 14.003,-36.667 14.003,-36.667 z"
       id="path75"
       style="fill:#2b2929;fill-opacity:1;stroke:#000000;stroke-miterlimit:10"
       inkscape:connector-curvature="0" /><path
       stroke-miterlimit="10"
       d="m 349.0127,210.69364 c 1.416,-1.083 -5.666,-13.86 -5.666,-13.86 0,0 -13.596,-22.169 -13.929,-19.667 -0.332,2.5 11.188,24.011 11.188,24.011 0,0 6.99,10.6 8.407,9.516 z"
       id="path77"
       style="fill:#2b2929;fill-opacity:1;stroke:#000000;stroke-miterlimit:10"
       inkscape:connector-curvature="0" /><path
       style="fill:#c19069;fill-opacity:1;stroke:none"
       d="m 343.47096,216.56193 c -6.37692,0.64648 -12.15281,3.58802 -13.40269,10.27539 -3.491,22.02001 -6.25458,22.93456 -6.25458,41.10157 l 0,29.93266 c 0,0 -3.12212,11.1689 -8.93512,11.1689 -0.47507,0 -15.2903,1.52948 -18.31701,1.78703 l 5.80783,93.81878 205.50782,4.02081 0,-110.79552 -37.08076,0 -36.18724,11.1689 -61.20559,0 0,-41.10156 c 0,-25.167 -4.69407,-34.93456 -5.36108,-41.10157 -1.04187,-5.93749 -13.94338,-11.35288 -24.57158,-10.27539 z"
       id="path79"
       inkscape:connector-curvature="0" /><path
       stroke-miterlimit="10"
       d="m 345.0777,411.72864 c 3,0 3.504,-6.128 3.504,-6.128 l -7.007,-0.137 c 0,10e-4 0.503,6.265 3.503,6.265 z"
       id="path81"
       style="fill:#c19069;fill-opacity:1;stroke:#000000;stroke-miterlimit:10"
       inkscape:connector-curvature="0" /><path
       style="font-size:medium;font-style:normal;font-variant:normal;font-weight:normal;font-stretch:normal;text-indent:0;text-align:start;text-decoration:none;line-height:normal;letter-spacing:normal;word-spacing:normal;text-transform:none;direction:ltr;block-progression:tb;writing-mode:lr-tb;text-anchor:start;baseline-shift:baseline;color:#000000;fill:#000000;fill-opacity:1;fill-rule:nonzero;stroke:none;stroke-width:1;marker:none;visibility:visible;display:inline;overflow:visible;enable-background:accumulate;font-family:Sans;-inkscape-font-specification:Sans"
       d="m 300.13561,371.58631 0,0.89351 21.4443,0 0,10.72215 -20.55078,-0.44676 0,1.34027 20.99753,0.44676 141.17494,2.68053 -0.89351,20.10403 -159.9387,-3.12729 0,0.89351 160.38545,3.12729 0.44676,0 0,-0.44676 0.89351,-20.55078 0,-0.89351 0,-0.44676 0.44676,-13.84944 0,-0.44675 -0.44676,0 -163.9595,0 z m 22.78457,0.89351 140.72818,0 -0.44676,13.40268 -140.28142,-2.23378 0,-11.1689 z"
       id="polygon83"
       inkscape:connector-curvature="0" /><path
       style="font-size:medium;font-style:normal;font-variant:normal;font-weight:normal;font-stretch:normal;text-indent:0;text-align:start;text-decoration:none;line-height:normal;letter-spacing:normal;word-spacing:normal;text-transform:none;direction:ltr;block-progression:tb;writing-mode:lr-tb;text-anchor:start;baseline-shift:baseline;color:#000000;fill:#000000;fill-opacity:1;fill-rule:nonzero;stroke:none;stroke-width:1;marker:none;visibility:visible;display:inline;overflow:visible;enable-background:accumulate;font-family:Sans;-inkscape-font-specification:Sans"
       d="m 343.0242,216.11518 c -2.168,0.21973 -3.95511,0.97228 -5.80783,1.78702 -3.70542,1.62953 -6.73293,4.3235 -7.59485,8.93512 -1.74217,10.989 -3.27455,16.64511 -4.46756,21.89105 -1.19302,5.24595 -1.78703,10.09942 -1.78703,19.21052 l 0,29.93266 c 0,0 -0.72968,2.66966 -2.23378,5.36107 -0.75212,1.3457 -2.06541,2.59743 -3.12729,3.57405 -1.06192,0.97657 -1.83173,1.78703 -3.12729,1.78703 -0.43861,0 -1.68395,-0.15397 -3.57405,0 -1.8901,0.15397 -4.38836,0.6063 -7.59486,0.89351 -1.76551,0.15811 -5.0297,0.25347 -7.1481,0.44675 l 0,0.89352 c 2.11493,-0.19329 5.38339,-0.28879 7.1481,-0.44676 3.20504,-0.28707 5.7096,-0.29307 7.59486,-0.44676 1.88525,-0.15368 3.28599,-0.44675 3.57405,-0.44675 1.61093,0 2.84009,-0.70109 4.0208,-1.78703 1.18072,-1.08594 2.34249,-2.61652 3.12729,-4.0208 1.56963,-2.80859 2.23378,-5.36108 2.23378,-5.36108 l 0,-0.44675 0,-29.93266 c 0,-9.0559 0.60287,-13.55646 1.78703,-18.76376 1.18415,-5.2073 2.71873,-10.86005 4.46756,-21.89105 0.80459,-4.30487 3.67652,-6.96168 7.1481,-8.48837 1.73578,-0.76341 3.72454,-1.57575 5.80783,-1.78702 2.08328,-0.2113 4.06748,0.19014 6.25458,0.44676 4.3742,0.51337 8.7497,1.77227 12.06242,3.57404 3.29865,1.79413 5.42327,4.15173 5.80783,6.25459 0.69322,6.34159 5.36107,15.57322 5.36107,40.65481 l 0,41.10156 0,0.44676 0.44676,0 61.20559,0 0.44675,0 35.74049,-11.16891 36.63401,0 0,109.90201 -205.06107,-4.0208 0,0.89351 205.50782,4.0208 0.44676,0 0,-0.44675 0,-110.79552 0,-0.44676 -0.44676,0 -37.08076,0 -36.18724,11.16891 -60.75884,0 0,-40.65481 c 0,-25.2244 -4.26621,-35.10919 -4.91431,-41.10157 -0.4632,-2.63933 -3.25356,-4.82609 -6.70135,-6.70134 -3.44778,-1.87524 -8.00835,-3.49256 -12.50917,-4.0208 -2.2504,-0.2642 -4.53333,-0.21974 -6.70134,0 z"
       id="path3941"
       inkscape:connector-curvature="0" /></g></svg>