<?xml version="1.0" encoding="UTF-8" standalone="no"?>
<!-- Generator: Adobe Illustrator 15.1.0, SVG Export Plug-In . SVG Version: 6.00 Build 0)  -->

<svg
   xmlns:dc="http://purl.org/dc/elements/1.1/"
   xmlns:cc="http://creativecommons.org/ns#"
   xmlns:rdf="http://www.w3.org/1999/02/22-rdf-syntax-ns#"
   xmlns:svg="http://www.w3.org/2000/svg"
   xmlns="http://www.w3.org/2000/svg"
   xmlns:xlink="http://www.w3.org/1999/xlink"
   xmlns:sodipodi="http://sodipodi.sourceforge.net/DTD/sodipodi-0.dtd"
   xmlns:inkscape="http://www.inkscape.org/namespaces/inkscape"
   version="1.1"
   x="0px"
   y="0px"
   width="10"
   height="23"
   viewBox="0 0 10 23"
   enable-background="new 0 0 1000 1000"
   xml:space="preserve"
   id="svg2"
   inkscape:version="0.48.5 r10040"
   sodipodi:docname="Dornier_328_fuselage_3.svg"><metadata
     id="metadata102"><rdf:RDF><cc:Work
         rdf:about=""><dc:format>image/svg+xml</dc:format><dc:type
           rdf:resource="http://purl.org/dc/dcmitype/StillImage" /><dc:title></dc:title></cc:Work></rdf:RDF></metadata><defs
     id="defs100"><linearGradient
       id="linearGradient3859"><stop
         style="stop-color:#765337;stop-opacity:1"
         offset="0"
         id="stop3861" /><stop
         id="stop3869"
         offset="0.38146022"
         style="stop-color:#c19069;stop-opacity:1;" /><stop
         id="stop3867"
         offset="0.59859514"
         style="stop-color:#c19069;stop-opacity:1;" /><stop
         style="stop-color:#765337;stop-opacity:1"
         offset="1"
         id="stop3863" /></linearGradient><linearGradient
       inkscape:collect="always"
       xlink:href="#linearGradient3859"
       id="linearGradient3865"
       x1="450.38901"
       y1="483.33249"
       x2="564.34802"
       y2="483.33249"
       gradientUnits="userSpaceOnUse" /><linearGradient
       inkscape:collect="always"
       xlink:href="#linearGradient3859"
       id="linearGradient3875"
       gradientUnits="userSpaceOnUse"
       x1="450.38901"
       y1="483.33249"
       x2="564.34802"
       y2="483.33249" /><linearGradient
       inkscape:collect="always"
       xlink:href="#linearGradient3859"
       id="linearGradient3863"
       gradientUnits="userSpaceOnUse"
       x1="450.38901"
       y1="483.33249"
       x2="564.34802"
       y2="483.33249" /><linearGradient
       inkscape:collect="always"
       xlink:href="#linearGradient3859"
       id="linearGradient3880"
       gradientUnits="userSpaceOnUse"
       x1="450.38901"
       y1="483.33249"
       x2="564.34802"
       y2="483.33249"
       gradientTransform="matrix(0.06994868,0,0,0.06994868,-1.9897566,0.28456406)" /><linearGradient
       inkscape:collect="always"
       xlink:href="#linearGradient3859"
       id="linearGradient4019"
       gradientUnits="userSpaceOnUse"
       gradientTransform="matrix(0.06994868,0,0,0.06994868,-30.489757,-20.805167)"
       x1="450.38901"
       y1="483.33249"
       x2="564.34802"
       y2="483.33249" /></defs><sodipodi:namedview
     pagecolor="#ffffff"
     bordercolor="#666666"
     borderopacity="1"
     objecttolerance="10"
     gridtolerance="10"
     guidetolerance="10"
     inkscape:pageopacity="0"
     inkscape:pageshadow="2"
     inkscape:window-width="1920"
     inkscape:window-height="1060"
     id="namedview98"
     showgrid="false"
     inkscape:zoom="10.680141"
     inkscape:cx="8.0371719"
     inkscape:cy="14.87551"
     inkscape:window-x="-2"
     inkscape:window-y="-3"
     inkscape:window-maximized="1"
     inkscape:current-layer="svg2"
     fit-margin-top="1"
     fit-margin-left="1"
     fit-margin-right="1"
     fit-margin-bottom="1" /><path
     style="fill:url(#linearGradient4019);fill-opacity:1;stroke:none"
     d="m 1.15625,1.0665183 c -0.03308,8.312582 -0.0625,17.6180087 -0.0625,18.6250007 0,0.291453 0.100987,1.134546 0.25,2.15625 l 7.3125,0 c 0.149013,-1.021704 0.25,-1.864797 0.25,-2.15625 0,-1.006992 -0.02942,-10.3124257 -0.0625,-18.6250007 l -7.6875,0 z"
     id="path15"
     inkscape:connector-curvature="0" /><path
     style="font-size:medium;font-style:normal;font-variant:normal;font-weight:normal;font-stretch:normal;text-indent:0;text-align:start;text-decoration:none;line-height:normal;letter-spacing:normal;word-spacing:normal;text-transform:none;direction:ltr;block-progression:tb;writing-mode:lr-tb;text-anchor:start;baseline-shift:baseline;color:#000000;fill:#000000;fill-opacity:1;fill-rule:nonzero;stroke:none;stroke-width:2;marker:none;visibility:visible;display:inline;overflow:visible;enable-background:accumulate;font-family:Sans;-inkscape-font-specification:Sans"
     d="M 1.0625,1.0665183 C 1.0293,9.3784003 1,18.682724 1,19.691519 c 0,0.229318 0.06812,0.693246 0.15625,1.34375 0.02938,0.216835 0.08769,0.556719 0.125,0.8125 l 0.125,0 c -0.03843,-0.262772 -0.09498,-0.622153 -0.125,-0.84375 -0.08789,-0.648735 -0.125,-1.104639 -0.125,-1.3125 0,-1.005115 0.0293,-10.3129957 0.0625,-18.6250007 l -0.15625,0 z m 7.71875,0 c 0.0332,8.311998 0.0625,17.6198857 0.0625,18.6250007 0,0.207861 -0.03711,0.663761 -0.125,1.3125 -0.03002,0.221597 -0.08657,0.580978 -0.125,0.84375 l 0.125,0 c 0.03731,-0.255781 0.09562,-0.595665 0.125,-0.8125 C 8.93188,20.384765 9,19.920837 9,19.691519 9,18.682724 8.9707,9.3783943 8.9375,1.0665183 l -0.15625,0 z"
     id="path3871"
     inkscape:connector-curvature="0" /><path
     inkscape:connector-curvature="0"
     id="path17"
     d="m 8.524119,18.785786 c -0.05756,-0.0043 -0.133887,-0.005 -0.212031,0.0153 -0.07815,0.02032 -0.160529,0.0618 -0.220776,0.137712 -0.06025,0.07591 -0.09837,0.185078 -0.09837,0.336628 l 0,1.398973 c 0,0.254814 0.117651,0.373339 0.233891,0.415321 0.109296,0.03947 0.208443,0.01792 0.220775,0.0153 l 0.0087,0 0.314769,0 0.02842,0 0.0066,-0.02623 c 0.06131,-0.286322 0.09695,-0.845373 0.118038,-1.335583 0.02109,-0.490209 0.02623,-0.909332 0.02623,-0.909332 l 0,-0.03716 -0.03498,0 -0.303839,0 c -0.0062,-0.0015 -0.03518,-0.007 -0.08744,-0.01093 z m -0.0066,0.06995 c 0.05173,0.0037 0.08525,0.01093 0.08525,0.01093 l 0.0044,0 0.0044,0 0.268865,0 c -4.9e-4,0.03049 -0.006,0.404081 -0.02623,0.874359 -0.02052,0.477078 -0.05544,1.013935 -0.11148,1.29405 l -0.295096,0 -0.0022,0 -0.0044,0.0022 c 0,0 -0.09657,0.02069 -0.190173,-0.01312 -0.09361,-0.03381 -0.187987,-0.114916 -0.187987,-0.349743 l 0,-1.398974 c 0,-0.139892 0.03621,-0.231116 0.08525,-0.29291 0.04904,-0.06179 0.113854,-0.0961 0.18143,-0.113666 0.06758,-0.01757 0.136261,-0.01682 0.187987,-0.01312 z"
     style="font-size:medium;font-style:normal;font-variant:normal;font-weight:normal;font-stretch:normal;text-indent:0;text-align:start;text-decoration:none;line-height:normal;letter-spacing:normal;word-spacing:normal;text-transform:none;direction:ltr;block-progression:tb;writing-mode:lr-tb;text-anchor:start;baseline-shift:baseline;color:#000000;fill:#000000;fill-opacity:1;fill-rule:nonzero;stroke:none;stroke-width:1;marker:none;visibility:visible;display:inline;overflow:visible;enable-background:accumulate;font-family:Sans;-inkscape-font-specification:Sans" /><path
     inkscape:connector-curvature="0"
     id="path19"
     d="m 1.47679,18.654632 c -0.05226,0.0039 -0.08121,0.01165 -0.08744,0.01312 l -0.306025,0 -0.03279,0 -0.0022,0.03279 c 0,0 -0.03245,0.576497 0.01311,1.250333 0.05184,0.765941 0.1867,1.654406 0.251378,1.956377 l 0.0044,0.02623 0.02842,0 0.205474,0 0.0044,0 0.0044,0 c 0,0 0.111887,-0.02966 0.222961,-0.122411 0.111074,-0.09275 0.222961,-0.252314 0.222961,-0.507128 l 0,-2.157479 c 0,-0.15155 -0.03812,-0.260718 -0.09837,-0.336628 -0.06025,-0.07591 -0.140445,-0.117395 -0.21859,-0.137712 -0.07814,-0.02032 -0.154467,-0.0218 -0.212032,-0.01749 z m 0.0066,0.06995 c 0.05173,-0.0037 0.120411,-0.0023 0.187987,0.0153 0.06758,0.01757 0.132386,0.05187 0.18143,0.113667 0.04904,0.06179 0.08306,0.153018 0.08306,0.29291 l 0,2.157479 c 0,0.234828 -0.09796,0.372192 -0.196731,0.454667 -0.09206,0.07687 -0.176087,0.101679 -0.187987,0.104923 -2.1e-4,5.4e-5 -0.002,-4.1e-5 -0.0022,0 l -0.172686,0 C 1.312023,21.554389 1.182066,20.694411 1.131442,19.946497 1.088222,19.307266 1.115762,18.785223 1.118332,18.737696 l 0.271051,0 0.0066,0 0.02842,0 0,-0.0044 c 0.01401,-0.0027 0.02411,-0.0062 0.05902,-0.0087 z"
     style="font-size:medium;font-style:normal;font-variant:normal;font-weight:normal;font-stretch:normal;text-indent:0;text-align:start;text-decoration:none;line-height:normal;letter-spacing:normal;word-spacing:normal;text-transform:none;direction:ltr;block-progression:tb;writing-mode:lr-tb;text-anchor:start;baseline-shift:baseline;color:#000000;fill:#000000;fill-opacity:1;fill-rule:nonzero;stroke:none;stroke-width:1;marker:none;visibility:visible;display:inline;overflow:visible;enable-background:accumulate;font-family:Sans;-inkscape-font-specification:Sans" /><path
     inkscape:connector-curvature="0"
     id="path21"
     d="m 1.457117,7.7164063 c 0,0 -0.08633,0.01117 -0.172686,0.03935 -0.04318,0.01409 -0.08665,0.03411 -0.12241,0.05902 -0.03576,0.02491 -0.06558,0.05858 -0.06558,0.104923 0,0.121158 -0.0066,1.514826 -0.0066,1.514826 l -0.0022,0.124596 0.06558,-0.107109 c 0,0 0.015,-0.02436 0.06121,-0.05246 0.04621,-0.0281 0.122543,-0.05683 0.247007,-0.05683 0.141856,0 0.236277,-0.07288 0.290724,-0.144269 0.05445,-0.07139 0.07213,-0.144269 0.07213,-0.144269 l 0.0022,-0.0044 0,-0.0044 0,-1.101691 c 0,-0.0653 -0.02611,-0.116267 -0.06339,-0.150827 -0.03728,-0.03456 -0.084,-0.05486 -0.128968,-0.06558 -0.08993,-0.02144 -0.177057,-0.01093 -0.177057,-0.01093 z m 0.0087,0.06995 c 0,0 0.07786,-0.007 0.153013,0.01093 0.03758,0.009 0.07375,0.02309 0.09837,0.0459 0.02462,0.02282 0.03935,0.05218 0.03935,0.100552 l 0,1.097319 c -0.0011,0.0041 -0.01729,0.05608 -0.06121,0.113667 -0.04558,0.05976 -0.115539,0.118038 -0.233891,0.118038 -0.135746,0 -0.226847,0.03291 -0.284167,0.06776 -0.01195,0.0073 -0.0083,0.008 -0.01749,0.0153 6.3e-4,-0.130088 0.0066,-1.318895 0.0066,-1.436134 0,-0.01486 0.01094,-0.02982 0.03716,-0.04809 0.02622,-0.01826 0.06327,-0.03521 0.102738,-0.04809 0.07893,-0.02575 0.15957,-0.03716 0.15957,-0.03716 z"
     style="font-size:medium;font-style:normal;font-variant:normal;font-weight:normal;font-stretch:normal;text-indent:0;text-align:start;text-decoration:none;line-height:normal;letter-spacing:normal;word-spacing:normal;text-transform:none;direction:ltr;block-progression:tb;writing-mode:lr-tb;text-anchor:start;baseline-shift:baseline;color:#000000;fill:#000000;fill-opacity:1;fill-rule:nonzero;stroke:none;stroke-width:1;marker:none;visibility:visible;display:inline;overflow:visible;enable-background:accumulate;font-family:Sans;-inkscape-font-specification:Sans" /><path
     style="font-size:medium;font-style:normal;font-variant:normal;font-weight:normal;font-stretch:normal;text-indent:0;text-align:start;text-decoration:none;line-height:normal;letter-spacing:normal;word-spacing:normal;text-transform:none;direction:ltr;block-progression:tb;writing-mode:lr-tb;text-anchor:start;baseline-shift:baseline;color:#000000;fill:#000000;fill-opacity:1;fill-rule:nonzero;stroke:none;stroke-width:1;marker:none;visibility:visible;display:inline;overflow:visible;enable-background:accumulate;font-family:Sans;-inkscape-font-specification:Sans"
     d="m 2,1.0665183 -0.03125,1.40625 -0.15625,5.28125 c 0,0 0.0067,0.915394 0.0625,1.9375 0.02789,0.5110527 0.07364,1.0453897 0.125,1.5000007 0.05136,0.454612 0.102654,0.834041 0.1875,1.03125 0.157282,0.365574 0.343734,1.287937 0.5,2.125 0.07813,0.418532 0.153687,0.817357 0.21875,1.125 0.03253,0.153821 0.06569,0.276463 0.09375,0.375 0.01403,0.04927 0.01807,0.09224 0.03125,0.125 0.01318,0.03276 0.01293,0.04418 0.03125,0.0625 0.03222,0.03222 0.09,0.04612 0.15625,0.0625 0.06625,0.01638 0.156055,0.05174 0.25,0.0625 0.187891,0.02152 0.429419,0.02467 0.65625,0.03125 0.45254,0.01311 0.872878,0 0.875,0 0.0021,4.3e-5 0.422443,0.0131 0.875,0 0.226839,-0.0066 0.468352,-0.0097 0.65625,-0.03125 0.09395,-0.01076 0.183748,-0.04613 0.25,-0.0625 0.06625,-0.01637 0.124032,-0.03028 0.15625,-0.0625 0.01832,-0.01832 0.01807,-0.02974 0.03125,-0.0625 0.01318,-0.03276 0.01722,-0.07573 0.03125,-0.125 0.02806,-0.09854 0.06122,-0.221179 0.09375,-0.375 0.06506,-0.307643 0.140617,-0.706468 0.21875,-1.125 0.156267,-0.837063 0.342718,-1.759426 0.5,-2.125 C 7.89735,12.02556 7.948641,11.646131 8,11.191519 8.05136,10.736908 8.09711,10.202571 8.125,9.6915183 c 0.05578,-1.022106 0.0625,-1.9375 0.0625,-1.9375 L 8.03125,2.4727683 8,1.0665183 l -0.0625,0 0,1.40625 0,0.03125 0.1875,5.25 c -3.5e-5,0.0021 -0.0069,0.918144 -0.0625,1.9375 -0.02785,0.5102517 -0.07389,1.0476457 -0.125,1.5000007 -0.0511,0.452356 -0.11059,0.821234 -0.1875,1 -0.166231,0.386374 -0.343683,1.287666 -0.5,2.125 -0.07816,0.418666 -0.154025,0.818953 -0.21875,1.125 -0.03236,0.153024 -0.06651,0.279334 -0.09375,0.375 -0.01362,0.04783 -0.01955,0.09592 -0.03125,0.125 -0.0117,0.02908 -0.02771,0.05896 -0.03125,0.0625 -0.0115,0.0115 -0.06356,0.01607 -0.125,0.03125 -0.06144,0.01518 -0.126585,0.05194 -0.21875,0.0625 -0.18433,0.02111 -0.430503,0.02471 -0.65625,0.03125 -0.451494,0.01309 -0.875,0 -0.875,0 0,0 -0.423524,0.0131 -0.875,0 -0.225738,-0.0065 -0.471927,-0.01014 -0.65625,-0.03125 -0.09216,-0.01055 -0.157312,-0.04731 -0.21875,-0.0625 -0.06144,-0.01519 -0.113499,-0.01975 -0.125,-0.03125 -0.0041,-0.0048 -0.02013,-0.03486 -0.03125,-0.0625 -0.0117,-0.02908 -0.01763,-0.07717 -0.03125,-0.125 -0.02724,-0.09567 -0.06139,-0.221976 -0.09375,-0.375 -0.06472,-0.306048 -0.140591,-0.706333 -0.21875,-1.125 -0.156317,-0.837333 -0.333769,-1.738626 -0.5,-2.125 -0.07691,-0.178766 -0.136396,-0.547645 -0.1875,-1 C 2.0114,10.739164 1.96535,10.201769 1.9375,9.6915183 1.88186,8.6721613 1.87503,7.7560923 1.875,7.7540183 l 0.1875,-5.25 0,-0.03125 0,-1.40625 -0.0625,0 z"
     id="path35"
     inkscape:connector-curvature="0" /><circle
     d="m 549.49999,358.08301 c 0,2.80726 -2.27573,5.083 -5.083,5.083 -2.80726,0 -5.083,-2.27574 -5.083,-5.083 0,-2.80727 2.27574,-5.083 5.083,-5.083 2.80727,0 5.083,2.27573 5.083,5.083 z"
     sodipodi:ry="5.0830002"
     sodipodi:rx="5.0830002"
     sodipodi:cy="358.08301"
     sodipodi:cx="544.41699"
     style="fill:none;stroke:#000000;stroke-miterlimit:10"
     id="circle37"
     r="5.0830002"
     cy="358.08301"
     cx="544.41699"
     stroke-miterlimit="10"
     transform="matrix(0.06994868,0,0,0.06994868,-30.489757,-20.805167)" /><circle
     d="m 475.51101,358.08301 c 0,2.80726 -2.27574,5.083 -5.083,5.083 -2.80726,0 -5.083,-2.27574 -5.083,-5.083 0,-2.80727 2.27574,-5.083 5.083,-5.083 2.80726,0 5.083,2.27573 5.083,5.083 z"
     sodipodi:ry="5.0830002"
     sodipodi:rx="5.0830002"
     sodipodi:cy="358.08301"
     sodipodi:cx="470.42801"
     style="fill:none;stroke:#000000;stroke-miterlimit:10"
     id="circle39"
     r="5.0830002"
     cy="358.08301"
     cx="470.42801"
     stroke-miterlimit="10"
     transform="matrix(0.06994868,0,0,0.06994868,-30.489757,-20.805167)" /><path
     style="fill:#c19069;fill-opacity:1;stroke:none"
     d="m 5,12.285269 c 0,0 -0.625,3.407228 -0.625,4.5625 0,0.184116 0.02061,3.596733 0.03125,5 l 1.1875,0 c 0.01064,-1.403262 0.03125,-4.815895 0.03125,-5 0,-1.155272 -0.625,-4.5625 -0.625,-4.5625 z"
     id="path90"
     inkscape:connector-curvature="0" /><path
     style="font-size:medium;font-style:normal;font-variant:normal;font-weight:normal;font-stretch:normal;text-indent:0;text-align:start;text-decoration:none;line-height:normal;letter-spacing:normal;word-spacing:normal;text-transform:none;direction:ltr;block-progression:tb;writing-mode:lr-tb;text-anchor:start;baseline-shift:baseline;color:#000000;fill:#000000;fill-opacity:1;fill-rule:nonzero;stroke:none;stroke-width:0.06994868;marker:none;visibility:visible;display:inline;overflow:visible;enable-background:accumulate;font-family:Sans;-inkscape-font-specification:Sans"
     d="m 4.9375,12.410269 0,9.4375 0.125,0 0,-9.4375 -0.125,0 z"
     id="line92"
     inkscape:connector-curvature="0" /><path
     style="font-size:medium;font-style:normal;font-variant:normal;font-weight:normal;font-stretch:normal;text-indent:0;text-align:start;text-decoration:none;line-height:normal;letter-spacing:normal;word-spacing:normal;text-transform:none;direction:ltr;block-progression:tb;writing-mode:lr-tb;text-anchor:start;baseline-shift:baseline;color:#000000;fill:#000000;fill-opacity:1;fill-rule:nonzero;stroke:none;stroke-width:0.035;marker:none;visibility:visible;display:inline;overflow:visible;enable-background:accumulate;font-family:Sans;-inkscape-font-specification:Sans"
     d="m 5,12.004019 -0.0625,0.28125 c 0,0 -0.126674,0.84467 -0.28125,1.84375 -0.154576,0.99908 -0.3125,2.1322 -0.3125,2.71875 0,0.181999 0.0209,3.636531 0.03125,5 l 0.09375,0 c -0.01035,-1.363376 -0.03125,-4.820253 -0.03125,-5 0,-0.568722 0.158147,-1.72111 0.3125,-2.71875 0.122974,-0.794825 0.205079,-1.215652 0.25,-1.46875 0.04492,0.253098 0.127026,0.673925 0.25,1.46875 0.154353,0.99764 0.3125,2.150028 0.3125,2.71875 0,0.179736 -0.0209,3.636625 -0.03125,5 l 0.09375,0 c 0.01035,-1.363469 0.03125,-4.818011 0.03125,-5 0,-0.58655 -0.157924,-1.71967 -0.3125,-2.71875 C 5.189174,13.129939 5.0625,12.285269 5.0625,12.285269 L 5,12.004019 z"
     id="path3051"
     inkscape:connector-curvature="0" /></svg>