<?xml version="1.0" encoding="UTF-8" standalone="no"?>
<!-- Generator: Adobe Illustrator 15.1.0, SVG Export Plug-In . SVG Version: 6.00 Build 0)  -->

<svg
   xmlns:dc="http://purl.org/dc/elements/1.1/"
   xmlns:cc="http://creativecommons.org/ns#"
   xmlns:rdf="http://www.w3.org/1999/02/22-rdf-syntax-ns#"
   xmlns:svg="http://www.w3.org/2000/svg"
   xmlns="http://www.w3.org/2000/svg"
   xmlns:xlink="http://www.w3.org/1999/xlink"
   xmlns:sodipodi="http://sodipodi.sourceforge.net/DTD/sodipodi-0.dtd"
   xmlns:inkscape="http://www.inkscape.org/namespaces/inkscape"
   version="1.1"
   x="0px"
   y="0px"
   width="47"
   height="64.002266"
   viewBox="0 0 47 64.002266"
   enable-background="new 0 0 1000 1000"
   xml:space="preserve"
   id="svg2"
   inkscape:version="0.48.5 r10040"
   sodipodi:docname="F_22.svg"><metadata
     id="metadata97"><rdf:RDF><cc:Work
         rdf:about=""><dc:format>image/svg+xml</dc:format><dc:type
           rdf:resource="http://purl.org/dc/dcmitype/StillImage" /></cc:Work></rdf:RDF></metadata><defs
     id="defs95"><linearGradient
       id="linearGradient3796"><stop
         style="stop-color:#765337;stop-opacity:1"
         offset="0"
         id="stop3798" /><stop
         id="stop3808"
         offset="0.33791596"
         style="stop-color:#c19069;stop-opacity:1" /><stop
         id="stop3806"
         offset="0.67583191"
         style="stop-color:#c19069;stop-opacity:1" /><stop
         style="stop-color:#765337;stop-opacity:1"
         offset="1"
         id="stop3800" /></linearGradient><linearGradient
       inkscape:collect="always"
       id="linearGradient3866"><stop
         style="stop-color:#7d593d;stop-opacity:1"
         offset="0"
         id="stop3868" /><stop
         style="stop-color:#c19069;stop-opacity:1"
         offset="1"
         id="stop3870" /></linearGradient><linearGradient
       inkscape:collect="always"
       xlink:href="#linearGradient3866"
       id="linearGradient3872"
       x1="513.38513"
       y1="237.96144"
       x2="513.38513"
       y2="418.9259"
       gradientUnits="userSpaceOnUse" /><linearGradient
       inkscape:collect="always"
       xlink:href="#linearGradient3796"
       id="linearGradient3804"
       x1="466.064"
       y1="272.39749"
       x2="559.74902"
       y2="272.39749"
       gradientUnits="userSpaceOnUse" /></defs><sodipodi:namedview
     pagecolor="#ffffff"
     bordercolor="#666666"
     borderopacity="1"
     objecttolerance="10"
     gridtolerance="10"
     guidetolerance="10"
     inkscape:pageopacity="0"
     inkscape:pageshadow="2"
     inkscape:window-width="1920"
     inkscape:window-height="1060"
     id="namedview93"
     showgrid="false"
     fit-margin-top="1"
     fit-margin-left="1"
     fit-margin-right="1"
     fit-margin-bottom="1"
     inkscape:zoom="7.552"
     inkscape:cx="29.506759"
     inkscape:cy="16.234839"
     inkscape:window-x="-2"
     inkscape:window-y="-3"
     inkscape:window-maximized="1"
     inkscape:current-layer="svg2" /><g
     id="L_Tail"
     transform="matrix(0.06430728,0,0,0.06430728,-9.4817248,-0.10771698)"><polygon
       stroke-miterlimit="10"
       points="345.413,837.864 401.58,806.864 415.913,937.364 366.413,980.864 283.329,961.864 283.329,893.864 "
       id="polygon5"
       style="fill:#c19069;fill-opacity:1;stroke:#000000;stroke-miterlimit:10" /></g><g
     id="R_Tail"
     transform="matrix(0.06430728,0,0,0.06430728,-9.4817248,-0.10771698)"><polygon
       stroke-miterlimit="10"
       points="680.5,837.633 624.333,806.633 610,937.133 659.5,980.633 742.584,961.633 742.584,893.633 "
       id="polygon8"
       style="fill:#c19069;fill-opacity:1;stroke:#000000;stroke-miterlimit:10" /></g><g
     id="R_Wing"
     style="fill:#7d593d;fill-opacity:1"
     transform="matrix(0.06430728,0,0,0.06430728,-9.4817248,-0.10771698)"><polygon
       stroke-miterlimit="10"
       points="865.5,645.5 865.5,711 820.5,755 624.333,808.5 619.667,438.667 "
       id="polygon11"
       style="fill:#c19069;fill-opacity:1;stroke:#000000;stroke-miterlimit:10" /><path
       style="font-size:medium;font-style:normal;font-variant:normal;font-weight:normal;font-stretch:normal;text-indent:0;text-align:start;text-decoration:none;line-height:normal;letter-spacing:normal;word-spacing:normal;text-transform:none;direction:ltr;block-progression:tb;writing-mode:lr-tb;text-anchor:start;baseline-shift:baseline;color:#000000;fill:#000000;fill-opacity:1;fill-rule:nonzero;stroke:none;stroke-width:1;marker:none;visibility:visible;display:inline;overflow:visible;enable-background:accumulate;font-family:Sans;-inkscape-font-specification:Sans"
       d="m 619.15625,437.59375 0,1.0625 0,22.15625 0,0.21875 0.1875,0.15625 245.84375,207.4375 0.8125,0.6875 0,-1.0625 0,-22.75 0,-0.21875 L 865.8125,645.125 620,438.28125 l -0.84375,-0.6875 z m 1,2.15625 L 865,645.71875 l 0,21.46875 -244.84375,-206.65625 0,-20.78125 z m 197.5,273.78125 -0.625,0.15625 -68.53125,19.15625 0,-15.34375 0,-0.65625 -0.65625,0.1875 -124.34375,36.5 -0.34375,0.0937 0,0.375 0.6875,54.5 0,0.65625 0.625,-0.1875 123.03125,-33.5312 0.625,-0.1875 0.375,-0.0937 68.8125,-18.75 0.34375,-0.125 0,-0.375 0,-41.71875 0,-0.65625 z m -1,1.3125 0,40.6875 L 748.5,774.125 l 0,-40.25 68.15625,-19.03125 z m -69.15625,3.3125 0,14.96875 0,0.375 0,40.875 -122.65625,33.46875 -0.6875,-53.5 L 747.5,718.15625 z"
       id="polygon13"
       inkscape:connector-curvature="0" /><polygon
       stroke-miterlimit="10"
       points="637.077,525.667 657.996,504.747 637.077,483.829 620.446,500.459 620.557,509.145 "
       id="polygon19"
       style="fill:#333333;fill-opacity:1;stroke:#000000;stroke-miterlimit:10" /></g><g
     id="L_Wing"
     transform="matrix(0.06430728,0,0,0.06430728,-9.4817248,-0.10771698)"><polygon
       stroke-miterlimit="10"
       points="406.087,438.667 160.254,645.5 160.254,711 205.254,755 401.421,808.5 "
       id="polygon22"
       style="fill:#c19069;fill-opacity:1;stroke:#000000;stroke-miterlimit:10" /><path
       style="font-size:medium;font-style:normal;font-variant:normal;font-weight:normal;font-stretch:normal;text-indent:0;text-align:start;text-decoration:none;line-height:normal;letter-spacing:normal;word-spacing:normal;text-transform:none;direction:ltr;block-progression:tb;writing-mode:lr-tb;text-anchor:start;baseline-shift:baseline;color:#000000;fill:#000000;fill-opacity:1;fill-rule:nonzero;stroke:none;stroke-width:1;marker:none;visibility:visible;display:inline;overflow:visible;enable-background:accumulate;font-family:Sans;-inkscape-font-specification:Sans"
       d="m 406.59375,437.59375 -0.84375,0.6875 -245.8125,206.84375 -0.1875,0.15625 0,0.21875 0,22.75 0,1.0625 0.8125,-0.6875 245.84375,-207.4375 0.1875,-0.15625 0,-0.21875 0,-22.15625 0,-1.0625 z m -1,2.15625 0,20.78125 L 160.75,667.1875 l 0,-21.46875 L 405.59375,439.75 z m -197.5,273.78125 0,0.65625 0,41.71875 0,0.375 0.375,0.125 68.78125,18.75 0.375,0.0937 0.625,0.1875 123.03125,33.53125 0.625,0.1875 0,-0.65625 0.6875,-54.5 0.0312,-0.375 -0.375,-0.0937 -124.34375,-36.5 -0.65625,-0.1875 0,0.65625 0,15.34375 -68.53125,-19.15625 -0.625,-0.15625 z m 1,1.3125 68.15625,19.03125 0,40.25 -68.15625,-18.59375 0,-40.6875 z m 69.15625,3.3125 123.34375,36.1875 -0.6875,53.5 L 278.25,774.375 l 0,-40.875 0,-0.375 0,-14.96875 z"
       id="polygon24"
       inkscape:connector-curvature="0" /><polygon
       stroke-miterlimit="10"
       points="405.291,509.145 388.77,525.667 367.851,504.747 388.77,483.829 405.401,500.459 "
       id="polygon30"
       style="fill:#333333;stroke:#000000;stroke-miterlimit:10" /></g><g
     id="L_Jet"
     transform="matrix(0.06430728,0,0,0.06430728,-9.4817248,-0.10771698)"><polygon
       stroke-miterlimit="10"
       points="501.58,866.146 480.127,883.834 457.016,862.332 456.187,839.412 463.627,843.834 469.961,839.412 475.794,844.167 483.127,839.412 488.794,843.501 495.961,839.412 500.595,839.412 "
       id="polygon33"
       style="fill:#808080;stroke:#000000;stroke-miterlimit:10" /><polygon
       stroke-miterlimit="10"
       points="500.543,839.412 498.345,778.334 453.633,777.249 456.187,839.412 463.627,843.834 469.961,839.412 475.794,844.167 483.127,839.412 488.794,843.501 495.961,839.412 "
       id="polygon35"
       style="fill:#808080;stroke:#000000;stroke-miterlimit:10" /></g><g
     id="R_Jet"
     transform="matrix(0.06430728,0,0,0.06430728,-9.4817248,-0.10771698)"><polygon
       stroke-miterlimit="10"
       points="524.215,866.146 545.667,883.834 568.778,862.332 569.607,839.412 562.167,843.834 555.833,839.412 550,844.167 542.667,839.412 537,843.501 529.833,839.412 525.199,839.412 "
       id="polygon38"
       style="fill:#808080;stroke:#000000;stroke-miterlimit:10" /><polygon
       stroke-miterlimit="10"
       points="525.251,839.412 527.449,778.334 572.161,777.249 569.607,839.412 562.167,843.834 555.833,839.412 550,844.167 542.667,839.412 537,843.501 529.833,839.412 "
       id="polygon40"
       style="fill:#808080;stroke:#000000;stroke-miterlimit:10" /></g><g
     id="Body"
     transform="matrix(0.06430728,0,0,0.06430728,-9.4817248,-0.10771698)"><path
       stroke-miterlimit="10"
       d="m 512.965,17.743 c -6.896,0 -45.888,36.534 -45.888,239.159 L 411.518,309 c 0,0 -5.245,81.667 -5.245,129.667 0,48 -4.676,337.315 -4.676,337.315 l 96.883,2.352 4.677,127 9.808,8.975 9.807,-8.975 4.678,-127 96.884,-2.352 c 0,0 -4.677,-289.315 -4.677,-337.315 0,-48 -5.245,-129.667 -5.245,-129.667 l -55.56,-52.097 C 558.853,54.277 519.861,17.743 512.965,17.743 z"
       id="path43"
       style="fill:url(#linearGradient3872);fill-opacity:1;stroke:#000000;stroke-miterlimit:10"
       inkscape:connector-curvature="0" /><polygon
       stroke-miterlimit="10"
       points="466.047,607.313 474.688,610.757 482.768,607.313 491.197,610.757 497.991,607.313 505.479,610.266 513.25,607.313 521.021,610.266 528.51,607.313 535.302,610.757 543.731,607.313 551.812,610.757 560.453,607.313 568.688,611.003 576.176,607.313 582.679,611.003 590.375,607.313 590.375,778.784 586.407,778.784 571.435,800.188 555.462,782.72 537.243,800.188 513.25,776.324 489.256,800.188 471.039,782.72 455.065,800.188 440.092,778.784 436.125,778.784 436.125,607.313 443.822,611.003 450.324,607.313 457.811,611.003 "
       id="polygon45"
       style="fill:#c19069;fill-opacity:1;stroke:#000000;stroke-miterlimit:10" /><polygon
       stroke-miterlimit="10"
       points="528.566,607.313 524.259,787.211 537.286,800.188 535.348,610.757 "
       id="polygon47"
       style="fill:#c19069;fill-opacity:1;stroke:#000000;stroke-miterlimit:10" /><polygon
       stroke-miterlimit="10"
       points="498.207,607.313 502.515,787.211 489.487,800.188 491.425,610.757 "
       id="polygon49"
       style="fill:#c19069;fill-opacity:1;stroke:#000000;stroke-miterlimit:10" /><path
       stroke-miterlimit="10"
       d="M 513.215,288"
       id="path51"
       inkscape:connector-curvature="0"
       style="fill:#8fa8ba;stroke:#000000;stroke-miterlimit:10" /><path
       stroke-miterlimit="10"
       d="m 511.355,527.051 c -6.343,0 -14.946,-8.135 -16.629,-23.236 -17.791,-159.647 -28.162,-246.911 -28.162,-246.911 0,-202.626 39.049,-239.16 45.955,-239.16 l 0.775,0 c 6.906,0 45.955,36.534 45.955,239.16 0,0 -10.372,87.263 -28.162,246.911 -1.683,15.102 -10.286,23.236 -16.629,23.236 h -3.103 z"
       id="path53"
       style="fill:url(#linearGradient3804);fill-opacity:1;stroke:#000000;stroke-miterlimit:10"
       inkscape:connector-curvature="0" /><polygon
       stroke-miterlimit="10"
       points="624.333,806.749 610,937.249 567.334,902.25 571.033,799.999 586.225,778.249 624.333,774.231 "
       id="polygon55"
       style="fill:#c19069;fill-opacity:1;stroke:#000000;stroke-miterlimit:10" /><polygon
       stroke-miterlimit="10"
       points="401.597,806.749 415.93,937.249 458.596,902.25 454.897,799.999 439.706,778.249 401.597,774.231 "
       id="polygon57"
       style="fill:#c19069;fill-opacity:1;stroke:#000000;stroke-miterlimit:10" /><polygon
       stroke-miterlimit="10"
       points="566.834,482.5 559.25,489.5 552,482.5 544.667,489.667 537,482.5 537,494 544.5,501.833 552,494.167 559.25,501.833 566.667,494.833 574.334,501.833 581.5,495.5 581.5,484.333 574.5,490.167 "
       id="polygon59"
       style="fill:#333333;stroke:#000000;stroke-miterlimit:10" /><polygon
       stroke-miterlimit="10"
       points="566.834,494.334 559.25,501.334 552,494.334 544.667,501.5 537,494.334 537,505.834 544.5,513.667 552,506 559.25,513.667 566.667,506.668 574.334,513.667 581.5,507.334 581.5,496.167 574.5,502 "
       id="polygon61"
       style="fill:#333333;stroke:#000000;stroke-miterlimit:10" /><polygon
       stroke-miterlimit="10"
       points="566.834,506.334 559.25,513.334 552,506.334 544.667,513.5 537,506.334 537,517.834 544.5,525.667 552,518 559.25,525.667 566.667,518.668 574.334,525.667 581.5,519.334 581.5,508.167 574.5,514 "
       id="polygon63"
       style="fill:#333333;stroke:#000000;stroke-miterlimit:10" /><polygon
       stroke-miterlimit="10"
       points="474.148,482.417 466.564,489.417 459.314,482.417 451.981,489.583 444.314,482.417 444.314,493.917 451.814,501.75 459.314,494.083 466.564,501.75 473.981,494.75 481.648,501.75 488.814,495.417 488.814,484.25 481.814,490.083 "
       id="polygon65"
       style="fill:#333333;stroke:#000000;stroke-miterlimit:10" /><polygon
       stroke-miterlimit="10"
       points="474.148,494.251 466.564,501.251 459.314,494.251 451.981,501.417 444.314,494.251 444.314,505.751 451.814,513.584 459.314,505.917 466.564,513.584 473.981,506.585 481.648,513.584 488.814,507.251 488.814,496.084 481.814,501.917 "
       id="polygon67"
       style="fill:#333333;stroke:#000000;stroke-miterlimit:10" /><polygon
       stroke-miterlimit="10"
       points="474.148,506.251 466.564,513.251 459.314,506.251 451.981,513.417 444.314,506.251 444.314,517.751 451.814,525.584 459.314,517.917 466.564,525.584 473.981,518.585 481.648,525.584 488.814,519.251 488.814,508.084 481.814,513.917 "
       id="polygon69"
       style="fill:#333333;stroke:#000000;stroke-miterlimit:10" /><polygon
       stroke-miterlimit="10"
       points="505.479,610.266 513.25,607.313 521.021,610.266 521.062,639.25 512.965,648.25 505.479,639.375 "
       id="polygon71"
       style="fill:#333333;stroke:#000000;stroke-miterlimit:10" /><rect
       x="507.90701"
       y="398.03601"
       transform="matrix(0.7071,0.7071,-0.7071,0.7071,435.2168,-244.6335)"
       stroke-miterlimit="10"
       width="10"
       height="10"
       id="rect73"
       style="fill:#333333;stroke:#000000;stroke-miterlimit:10" /><path
       stroke-miterlimit="10"
       d="m 515.082,895.313 c 0,0 -0.52,7.188 -2.082,7.188 -1.562,0 -1.668,-7.188 -1.668,-7.188 V 778.231 l 1.918,-1.907 1.832,1.821 v 117.168 z"
       id="path75"
       style="fill:#c19069;fill-opacity:1;stroke:#000000;stroke-miterlimit:10"
       inkscape:connector-curvature="0" /><path
       stroke-miterlimit="10"
       d="m 506.68,288 c -6.25,-0.5 -17.25,-6 -21.75,-10.5 -3,-17 -2.75,-131.297 0,-137.773 2.75,-6.476 14.142,-17.727 14.142,-17.727 0,0 8.178,-6.75 14.143,-6.75 5.965,0 14.143,6.75 14.143,6.75 0,0 11.393,11.25 14.143,17.727 2.75,6.477 3,120.773 0,137.773 -4.5,4.5 -15.5,10 -21.75,10.5 H 506.68 z"
       id="path77"
       inkscape:connector-curvature="0"
       style="fill:#333333;stroke:#000000;stroke-miterlimit:10" /></g><g
     id="L_Fin"
     transform="matrix(0.06430728,0,0,0.06430728,-9.4817248,-0.10771698)"><polygon
       stroke-miterlimit="10"
       points="431.99,684.667 438.323,856.334 443.323,904.001 333.323,857.667 333.323,777.001 "
       id="polygon80"
       style="fill:#c19069;fill-opacity:1;stroke:#000000;stroke-miterlimit:10" /><path
       style="font-size:medium;font-style:normal;font-variant:normal;font-weight:normal;font-stretch:normal;text-indent:0;text-align:start;text-decoration:none;line-height:normal;letter-spacing:normal;word-spacing:normal;text-transform:none;direction:ltr;block-progression:tb;writing-mode:lr-tb;text-anchor:start;baseline-shift:baseline;color:#000000;fill:#000000;fill-opacity:1;fill-rule:nonzero;stroke:none;stroke-width:1;marker:none;visibility:visible;display:inline;overflow:visible;enable-background:accumulate;font-family:Sans;-inkscape-font-specification:Sans"
       d="m 432.4375,683.5625 -0.78125,0.75 -98.6875,92.3125 -0.15625,0.15625 0,0.21875 0,80.65625 0,0.34375 0.3125,0.125 19.84375,8.34375 0.28125,0.125 0.71875,0.3125 74.71875,31.46875 0.65625,0.28125 0.0312,-0.71875 1.4375,-33.59375 0.0312,-0.3125 -0.3125,-0.15625 -76.5625,-35.1875 0,-39.5 79.21875,-81.5 0.15625,-0.15625 -0.0312,-0.21875 -0.8125,-22.65625 -0.0625,-1.09375 z m -0.90625,2.21875 0.78125,21.34375 -79.21875,81.53125 -0.125,0.15625 0,0.1875 0,39.21875 0,0.78125 0,36.40625 -19.15625,-8.0625 0,-80.125 97.71875,-91.4375 z m -77.5625,144.03125 75.84375,34.8125 -1.40625,32.5625 -74.4375,-31.375 0,-36 z"
       id="polygon82"
       inkscape:connector-curvature="0" /></g><g
     id="R_Fin"
     transform="matrix(0.06430728,0,0,0.06430728,-9.4817248,-0.10771698)"><polygon
       stroke-miterlimit="10"
       points="594.556,684.252 588.223,855.919 583.223,903.586 693.223,857.252 693.223,776.586 "
       id="polygon87"
       style="fill:#c19069;fill-opacity:1;stroke:#000000;stroke-miterlimit:10" /><path
       style="font-size:medium;font-style:normal;font-variant:normal;font-weight:normal;font-stretch:normal;text-indent:0;text-align:start;text-decoration:none;line-height:normal;letter-spacing:normal;word-spacing:normal;text-transform:none;direction:ltr;block-progression:tb;writing-mode:lr-tb;text-anchor:start;baseline-shift:baseline;color:#000000;fill:#000000;fill-opacity:1;fill-rule:nonzero;stroke:none;stroke-width:1;marker:none;visibility:visible;display:inline;overflow:visible;enable-background:accumulate;font-family:Sans;-inkscape-font-specification:Sans"
       d="m 594.09375,683.125 -0.0312,1.09375 -0.84375,22.6875 0,0.1875 0.15625,0.15625 79.21875,81.5625 0,39.4375 -76.5938,35.21875 -0.28125,0.125 0,0.34375 1.4375,33.59375 0.0312,0.71875 0.65625,-0.28125 74.75,-31.5 0.6875,-0.28125 0.3125,-0.125 19.8125,-8.34375 0.3125,-0.125 0,-0.34375 0,-80.65625 0,-0.21875 -0.15625,-0.15625 -98.65625,-92.34375 -0.8125,-0.75 z m 0.9375,2.25 97.6875,91.40625 0,80.125 -19.125,8.09375 0,-36.40625 0,-0.78125 0,-39.21875 0,-0.21875 -0.15625,-0.125 -79.21875,-81.5625 0.8125,-21.3125 z m 77.5625,144 0,36.03125 -74.46875,31.34375 -1.40625,-32.5 75.875,-34.875 z"
       id="polygon89"
       inkscape:connector-curvature="0" /></g></svg>