<?xml version="1.0" encoding="UTF-8" standalone="no"?>
<!-- Generator: Adobe Illustrator 15.1.0, SVG Export Plug-In . SVG Version: 6.00 Build 0)  -->

<svg
   xmlns:dc="http://purl.org/dc/elements/1.1/"
   xmlns:cc="http://creativecommons.org/ns#"
   xmlns:rdf="http://www.w3.org/1999/02/22-rdf-syntax-ns#"
   xmlns:svg="http://www.w3.org/2000/svg"
   xmlns="http://www.w3.org/2000/svg"
   xmlns:xlink="http://www.w3.org/1999/xlink"
   xmlns:sodipodi="http://sodipodi.sourceforge.net/DTD/sodipodi-0.dtd"
   xmlns:inkscape="http://www.inkscape.org/namespaces/inkscape"
   version="1.1"
   x="0px"
   y="0px"
   width="16"
   height="38"
   viewBox="0 0 16 38"
   enable-background="new 0 0 1000 1000"
   xml:space="preserve"
   id="svg2"
   inkscape:version="0.48.5 r10040"
   sodipodi:docname="F_22_fuselage_!.svg"><metadata
     id="metadata97"><rdf:RDF><cc:Work
         rdf:about=""><dc:format>image/svg+xml</dc:format><dc:type
           rdf:resource="http://purl.org/dc/dcmitype/StillImage" /><dc:title></dc:title></cc:Work></rdf:RDF></metadata><defs
     id="defs95"><linearGradient
       id="linearGradient3796"><stop
         style="stop-color:#765337;stop-opacity:1"
         offset="0"
         id="stop3798" /><stop
         id="stop3808"
         offset="0.33791596"
         style="stop-color:#c19069;stop-opacity:1" /><stop
         id="stop3806"
         offset="0.67583191"
         style="stop-color:#c19069;stop-opacity:1" /><stop
         style="stop-color:#765337;stop-opacity:1"
         offset="1"
         id="stop3800" /></linearGradient><linearGradient
       inkscape:collect="always"
       id="linearGradient3866"><stop
         style="stop-color:#7d593d;stop-opacity:1"
         offset="0"
         id="stop3868" /><stop
         style="stop-color:#c19069;stop-opacity:1"
         offset="1"
         id="stop3870" /></linearGradient><linearGradient
       inkscape:collect="always"
       xlink:href="#linearGradient3866"
       id="linearGradient3872"
       x1="513.38513"
       y1="237.96144"
       x2="513.38513"
       y2="418.9259"
       gradientUnits="userSpaceOnUse" /><linearGradient
       inkscape:collect="always"
       xlink:href="#linearGradient3796"
       id="linearGradient3804"
       x1="466.064"
       y1="272.39749"
       x2="559.74902"
       y2="272.39749"
       gradientUnits="userSpaceOnUse" /><linearGradient
       inkscape:collect="always"
       xlink:href="#linearGradient3796"
       id="linearGradient3047"
       gradientUnits="userSpaceOnUse"
       x1="466.064"
       y1="272.39749"
       x2="559.74902"
       y2="272.39749"
       gradientTransform="matrix(0.06430728,0,0,0.06430728,-24.981725,0.11103302)" /><linearGradient
       inkscape:collect="always"
       xlink:href="#linearGradient3866"
       id="linearGradient3054"
       gradientUnits="userSpaceOnUse"
       x1="513.38513"
       y1="237.96144"
       x2="513.38513"
       y2="418.9259"
       gradientTransform="matrix(0.06430728,0,0,0.06430728,-9.4817248,-0.10771698)" /><linearGradient
       inkscape:collect="always"
       xlink:href="#linearGradient3866"
       id="linearGradient3851"
       gradientUnits="userSpaceOnUse"
       gradientTransform="matrix(0.06430728,0,0,0.06430728,-9.4817248,-0.10771698)"
       x1="513.38513"
       y1="237.96144"
       x2="513.38513"
       y2="418.9259" /><linearGradient
       inkscape:collect="always"
       xlink:href="#linearGradient3866"
       id="linearGradient3855"
       gradientUnits="userSpaceOnUse"
       gradientTransform="matrix(0.06430728,0,0,0.06430728,-24.981725,0.11103302)"
       x1="513.38513"
       y1="237.96144"
       x2="513.38513"
       y2="418.9259" /></defs><sodipodi:namedview
     pagecolor="#ffffff"
     bordercolor="#666666"
     borderopacity="1"
     objecttolerance="10"
     gridtolerance="10"
     guidetolerance="10"
     inkscape:pageopacity="0"
     inkscape:pageshadow="2"
     inkscape:window-width="1920"
     inkscape:window-height="1060"
     id="namedview93"
     showgrid="false"
     fit-margin-top="1"
     fit-margin-left="1"
     fit-margin-right="1"
     fit-margin-bottom="1"
     inkscape:zoom="15.104"
     inkscape:cx="17.31775"
     inkscape:cy="13.341729"
     inkscape:window-x="-2"
     inkscape:window-y="-3"
     inkscape:window-maximized="1"
     inkscape:current-layer="svg2" /><path
     style="font-size:medium;font-style:normal;font-variant:normal;font-weight:normal;font-stretch:normal;text-indent:0;text-align:start;text-decoration:none;line-height:normal;letter-spacing:normal;word-spacing:normal;text-transform:none;direction:ltr;block-progression:tb;writing-mode:lr-tb;text-anchor:start;baseline-shift:baseline;color:#000000;fill:#000000;fill-opacity:1;fill-rule:nonzero;stroke:none;stroke-width:0.06430728;marker:none;visibility:visible;display:inline;overflow:visible;enable-background:accumulate;font-family:Sans;-inkscape-font-specification:Sans"
     d="m 8,1.1875 c -0.07751,0 -0.165421,0.062661 -0.28125,0.15625 -0.115829,0.093589 -0.255461,0.222622 -0.40625,0.4375 -0.301579,0.429756 -0.657724,1.1382771 -1,2.25 C 5.627949,6.2546959 5,10.106661 5,16.625 l -3.5625,3.3125 0,0.03125 c 0,0 -0.34375,5.253358 -0.34375,8.34375 0,1.092098 -0.07437,5.0302 -0.12500001,8.5 l 0.12500001,0 c 0.04564,-3.469624 0.09375,-7.404343 0.09375,-8.5 0,-3.071537 0.341238,-8.242079 0.34375,-8.28125 l 3.5625,-3.375 0,-0.03125 c 0,-6.511924 0.632451,-10.3536791 1.3125,-12.5625 0.340024,-1.1044105 0.706704,-1.8007974 1,-2.21875 C 7.552898,1.6347737 7.67507,1.4920433 7.78125,1.40625 7.88743,1.320457 7.966642,1.3125 8,1.3125 c 0.03336,0 0.11257,0.00796 0.21875,0.09375 0.10618,0.085793 0.259603,0.2285232 0.40625,0.4375 0.293295,0.4179536 0.62873,1.1143356 0.96875,2.21875 0.680041,2.2088289 1.312532,6.050544 1.3125,12.5625 l 0,0.03125 0.03125,0 L 14.46875,20 c 0,0 0.34375,5.229392 0.34375,8.3125 0,1.095674 0.07428,5.03031 0.125,8.5 l 0.09375,0 c -0.05063,-3.4698 -0.125,-7.407903 -0.125,-8.5 0,-3.090392 -0.3125,-8.34375 -0.3125,-8.34375 l -0.03125,0 0,-0.03125 L 11,16.59375 C 10.997568,10.098726 10.370694,6.2503213 9.6875,4.03125 9.345228,2.919523 8.989078,2.211007 8.6875,1.78125 8.536711,1.5663715 8.397079,1.4373393 8.28125,1.34375 8.165421,1.2501607 8.077507,1.1875 8,1.1875 z"
     id="path3075"
     inkscape:connector-curvature="0" /><path
     style="fill:url(#linearGradient3855);fill-opacity:1;stroke:none"
     d="m 8,1.25 c -0.443463,0 -2.9375,2.3447373 -2.9375,15.375 l -3.59375,3.34375 c 0,0 -0.3125,5.257 -0.3125,8.34375 0,1.093248 -0.07628,5.029548 -0.125,8.5 l 13.96875,0 c -0.04873,-3.470452 -0.125,-7.406752 -0.125,-8.5 0,-3.08675 -0.34375,-8.34375 -0.34375,-8.34375 L 10.96875,16.625 C 10.968815,3.5946733 8.443463,1.25 8,1.25 z"
     id="path43"
     inkscape:connector-curvature="0" /><path
     style="fill:#8fa8ba;stroke:#000000;stroke-width:0.06430728;stroke-miterlimit:10"
     inkscape:connector-curvature="0"
     id="path51"
     d="M 8.021736,18.63153"
     stroke-miterlimit="10" /><path
     inkscape:connector-curvature="0"
     style="fill:url(#linearGradient3047);fill-opacity:1;stroke:#000000;stroke-width:0.06430728;stroke-miterlimit:10"
     id="path53"
     d="m 7.902124,34.004249 c -0.407901,0 -0.961136,-0.523139 -1.069365,-1.494244 C 5.688668,22.243541 5.021737,16.63183 5.021737,16.63183 5.021737,3.6015036 7.532872,1.2521014 7.976978,1.2521014 l 0.04984,0 c 0.444106,0 2.955241,2.3494022 2.955241,15.3797286 0,0 -0.666995,5.611647 -1.811021,15.878175 -0.10823,0.971169 -0.661465,1.494244 -1.069366,1.494244 H 7.902126 z"
     stroke-miterlimit="10" /><polygon
     style="fill:#333333;stroke:#000000;stroke-miterlimit:10"
     id="polygon59"
     points="574.5,490.167 566.834,482.5 559.25,489.5 552,482.5 544.667,489.667 537,482.5 537,494 544.5,501.833 552,494.167 559.25,501.833 566.667,494.833 574.334,501.833 581.5,495.5 581.5,484.333 "
     stroke-miterlimit="10"
     transform="matrix(0.06430728,0,0,0.06430728,-24.981725,0.11103302)" /><polygon
     style="fill:#333333;stroke:#000000;stroke-miterlimit:10"
     id="polygon61"
     points="574.5,502 566.834,494.334 559.25,501.334 552,494.334 544.667,501.5 537,494.334 537,505.834 544.5,513.667 552,506 559.25,513.667 566.667,506.668 574.334,513.667 581.5,507.334 581.5,496.167 "
     stroke-miterlimit="10"
     transform="matrix(0.06430728,0,0,0.06430728,-24.981725,0.11103302)" /><polygon
     style="fill:#333333;stroke:#000000;stroke-miterlimit:10"
     id="polygon63"
     points="574.5,514 566.834,506.334 559.25,513.334 552,506.334 544.667,513.5 537,506.334 537,517.834 544.5,525.667 552,518 559.25,525.667 566.667,518.668 574.334,525.667 581.5,519.334 581.5,508.167 "
     stroke-miterlimit="10"
     transform="matrix(0.06430728,0,0,0.06430728,-24.981725,0.11103302)" /><polygon
     style="fill:#333333;stroke:#000000;stroke-miterlimit:10"
     id="polygon65"
     points="481.814,490.083 474.148,482.417 466.564,489.417 459.314,482.417 451.981,489.583 444.314,482.417 444.314,493.917 451.814,501.75 459.314,494.083 466.564,501.75 473.981,494.75 481.648,501.75 488.814,495.417 488.814,484.25 "
     stroke-miterlimit="10"
     transform="matrix(0.06430728,0,0,0.06430728,-24.981725,0.11103302)" /><polygon
     style="fill:#333333;stroke:#000000;stroke-miterlimit:10"
     id="polygon67"
     points="481.814,501.917 474.148,494.251 466.564,501.251 459.314,494.251 451.981,501.417 444.314,494.251 444.314,505.751 451.814,513.584 459.314,505.917 466.564,513.584 473.981,506.585 481.648,513.584 488.814,507.251 488.814,496.084 "
     stroke-miterlimit="10"
     transform="matrix(0.06430728,0,0,0.06430728,-24.981725,0.11103302)" /><polygon
     style="fill:#333333;stroke:#000000;stroke-miterlimit:10"
     id="polygon69"
     points="481.814,513.917 474.148,506.251 466.564,513.251 459.314,506.251 451.981,513.417 444.314,506.251 444.314,517.751 451.814,525.584 459.314,517.917 466.564,525.584 473.981,518.585 481.648,525.584 488.814,519.251 488.814,508.084 "
     stroke-miterlimit="10"
     transform="matrix(0.06430728,0,0,0.06430728,-24.981725,0.11103302)" /><rect
     style="fill:#333333;stroke:#000000;stroke-width:0.06430667;stroke-miterlimit:10"
     id="rect73"
     height="0.64306664"
     width="0.64306664"
     stroke-miterlimit="10"
     transform="matrix(0.70710678,0.70710678,-0.70710678,0.70710678,0,0)"
     y="12.425398"
     x="23.741798" /><path
     style="fill:#333333;stroke:#000000;stroke-width:0.06430728;stroke-miterlimit:10"
     inkscape:connector-curvature="0"
     id="path77"
     d="M 7.601488,18.63153 C 7.199567,18.59938 6.492187,18.245686 6.202804,17.956303 6.009883,16.863079 6.025959,9.5129503 6.202804,9.0964963 6.37965,8.6800424 7.112238,7.9565212 7.112238,7.9565212 c 0,0 0.525905,-0.4340742 0.909498,-0.4340742 0.383593,0 0.909498,0.4340742 0.909498,0.4340742 0,0 0.732653,0.7234569 0.909498,1.1399751 0.176845,0.4165183 0.192921,7.7665827 0,8.8598067 -0.289383,0.289383 -0.996763,0.643073 -1.398684,0.675227 h -0.84056 z"
     stroke-miterlimit="10" /></svg>