<?xml version="1.0" encoding="UTF-8" standalone="no"?>
<!-- Generator: Adobe Illustrator 15.1.0, SVG Export Plug-In . SVG Version: 6.00 Build 0)  -->

<svg
   xmlns:dc="http://purl.org/dc/elements/1.1/"
   xmlns:cc="http://creativecommons.org/ns#"
   xmlns:rdf="http://www.w3.org/1999/02/22-rdf-syntax-ns#"
   xmlns:svg="http://www.w3.org/2000/svg"
   xmlns="http://www.w3.org/2000/svg"
   xmlns:xlink="http://www.w3.org/1999/xlink"
   xmlns:sodipodi="http://sodipodi.sourceforge.net/DTD/sodipodi-0.dtd"
   xmlns:inkscape="http://www.inkscape.org/namespaces/inkscape"
   version="1.1"
   x="0px"
   y="0px"
   width="18"
   height="26"
   viewBox="0 0 18 26"
   enable-background="new 0 0 1000 1000"
   xml:space="preserve"
   id="svg2"
   inkscape:version="0.48.5 r10040"
   sodipodi:docname="F_22.svg"><metadata
     id="metadata97"><rdf:RDF><cc:Work
         rdf:about=""><dc:format>image/svg+xml</dc:format><dc:type
           rdf:resource="http://purl.org/dc/dcmitype/StillImage" /><dc:title></dc:title></cc:Work></rdf:RDF></metadata><defs
     id="defs95"><linearGradient
       id="linearGradient3796"><stop
         style="stop-color:#765337;stop-opacity:1"
         offset="0"
         id="stop3798" /><stop
         id="stop3808"
         offset="0.33791596"
         style="stop-color:#c19069;stop-opacity:1" /><stop
         id="stop3806"
         offset="0.67583191"
         style="stop-color:#c19069;stop-opacity:1" /><stop
         style="stop-color:#765337;stop-opacity:1"
         offset="1"
         id="stop3800" /></linearGradient><linearGradient
       inkscape:collect="always"
       id="linearGradient3866"><stop
         style="stop-color:#7d593d;stop-opacity:1"
         offset="0"
         id="stop3868" /><stop
         style="stop-color:#c19069;stop-opacity:1"
         offset="1"
         id="stop3870" /></linearGradient><linearGradient
       inkscape:collect="always"
       xlink:href="#linearGradient3866"
       id="linearGradient3872"
       x1="513.38513"
       y1="237.96144"
       x2="513.38513"
       y2="418.9259"
       gradientUnits="userSpaceOnUse" /><linearGradient
       inkscape:collect="always"
       xlink:href="#linearGradient3796"
       id="linearGradient3804"
       x1="466.064"
       y1="272.39749"
       x2="559.74902"
       y2="272.39749"
       gradientUnits="userSpaceOnUse" /></defs><sodipodi:namedview
     pagecolor="#ffffff"
     bordercolor="#666666"
     borderopacity="1"
     objecttolerance="10"
     gridtolerance="10"
     guidetolerance="10"
     inkscape:pageopacity="0"
     inkscape:pageshadow="2"
     inkscape:window-width="1920"
     inkscape:window-height="1060"
     id="namedview93"
     showgrid="false"
     fit-margin-top="1"
     fit-margin-left="1"
     fit-margin-right="1"
     fit-margin-bottom="1"
     inkscape:zoom="15.104"
     inkscape:cx="10.209708"
     inkscape:cy="14.354199"
     inkscape:window-x="-2"
     inkscape:window-y="-3"
     inkscape:window-maximized="1"
     inkscape:current-layer="svg2" /><g
     id="R_Wing"
     style="fill:#7d593d;fill-opacity:1"
     transform="matrix(0.06430728,0,0,0.06430728,-38.753525,-27.0977)"><polygon
       stroke-miterlimit="10"
       points="865.5,711 820.5,755 624.333,808.5 619.667,438.667 865.5,645.5 "
       id="polygon11"
       style="fill:#c19069;fill-opacity:1;stroke:#000000;stroke-miterlimit:10" /><path
       style="font-size:medium;font-style:normal;font-variant:normal;font-weight:normal;font-stretch:normal;text-indent:0;text-align:start;text-decoration:none;line-height:normal;letter-spacing:normal;word-spacing:normal;text-transform:none;direction:ltr;block-progression:tb;writing-mode:lr-tb;text-anchor:start;baseline-shift:baseline;color:#000000;fill:#000000;fill-opacity:1;fill-rule:nonzero;stroke:none;stroke-width:1;marker:none;visibility:visible;display:inline;overflow:visible;enable-background:accumulate;font-family:Sans;-inkscape-font-specification:Sans"
       d="m 619.15625,437.59375 0,1.0625 0,22.15625 0,0.21875 0.1875,0.15625 245.84375,207.4375 0.8125,0.6875 0,-1.0625 0,-22.75 0,-0.21875 L 865.8125,645.125 620,438.28125 l -0.84375,-0.6875 z m 1,2.15625 L 865,645.71875 l 0,21.46875 -244.84375,-206.65625 0,-20.78125 z m 197.5,273.78125 -0.625,0.15625 -68.53125,19.15625 0,-15.34375 0,-0.65625 -0.65625,0.1875 -124.34375,36.5 -0.34375,0.0937 0,0.375 0.6875,54.5 0,0.65625 0.625,-0.1875 123.03125,-33.5312 0.625,-0.1875 0.375,-0.0937 68.8125,-18.75 0.34375,-0.125 0,-0.375 0,-41.71875 0,-0.65625 z m -1,1.3125 0,40.6875 L 748.5,774.125 l 0,-40.25 68.15625,-19.03125 z m -69.15625,3.3125 0,14.96875 0,0.375 0,40.875 -122.65625,33.46875 -0.6875,-53.5 L 747.5,718.15625 z"
       id="polygon13"
       inkscape:connector-curvature="0" /><polygon
       stroke-miterlimit="10"
       points="657.996,504.747 637.077,483.829 620.446,500.459 620.557,509.145 637.077,525.667 "
       id="polygon19"
       style="fill:#333333;fill-opacity:1;stroke:#000000;stroke-miterlimit:10" /></g></svg>