<?xml version="1.0" encoding="UTF-8" standalone="no"?>
<!-- Generator: Adobe Illustrator 15.1.0, SVG Export Plug-In . SVG Version: 6.00 Build 0)  -->

<svg
   xmlns:dc="http://purl.org/dc/elements/1.1/"
   xmlns:cc="http://creativecommons.org/ns#"
   xmlns:rdf="http://www.w3.org/1999/02/22-rdf-syntax-ns#"
   xmlns:svg="http://www.w3.org/2000/svg"
   xmlns="http://www.w3.org/2000/svg"
   xmlns:xlink="http://www.w3.org/1999/xlink"
   xmlns:sodipodi="http://sodipodi.sourceforge.net/DTD/sodipodi-0.dtd"
   xmlns:inkscape="http://www.inkscape.org/namespaces/inkscape"
   version="1.1"
   x="0px"
   y="0px"
   width="16"
   height="26"
   viewBox="0 0 16 26"
   enable-background="new 0 0 1000 1000"
   xml:space="preserve"
   id="svg2"
   inkscape:version="0.48.5 r10040"
   sodipodi:docname="F_22_fuselage_!.svg"><metadata
     id="metadata97"><rdf:RDF><cc:Work
         rdf:about=""><dc:format>image/svg+xml</dc:format><dc:type
           rdf:resource="http://purl.org/dc/dcmitype/StillImage" /><dc:title></dc:title></cc:Work></rdf:RDF></metadata><defs
     id="defs95"><linearGradient
       id="linearGradient3796"><stop
         style="stop-color:#765337;stop-opacity:1"
         offset="0"
         id="stop3798" /><stop
         id="stop3808"
         offset="0.33791596"
         style="stop-color:#c19069;stop-opacity:1" /><stop
         id="stop3806"
         offset="0.67583191"
         style="stop-color:#c19069;stop-opacity:1" /><stop
         style="stop-color:#765337;stop-opacity:1"
         offset="1"
         id="stop3800" /></linearGradient><linearGradient
       inkscape:collect="always"
       id="linearGradient3866"><stop
         style="stop-color:#7d593d;stop-opacity:1"
         offset="0"
         id="stop3868" /><stop
         style="stop-color:#c19069;stop-opacity:1"
         offset="1"
         id="stop3870" /></linearGradient><linearGradient
       inkscape:collect="always"
       xlink:href="#linearGradient3866"
       id="linearGradient3872"
       x1="513.38513"
       y1="237.96144"
       x2="513.38513"
       y2="418.9259"
       gradientUnits="userSpaceOnUse" /><linearGradient
       inkscape:collect="always"
       xlink:href="#linearGradient3796"
       id="linearGradient3804"
       x1="466.064"
       y1="272.39749"
       x2="559.74902"
       y2="272.39749"
       gradientUnits="userSpaceOnUse" /><linearGradient
       inkscape:collect="always"
       xlink:href="#linearGradient3796"
       id="linearGradient3047"
       gradientUnits="userSpaceOnUse"
       x1="466.064"
       y1="272.39749"
       x2="559.74902"
       y2="272.39749"
       gradientTransform="matrix(0.06430728,0,0,0.06430728,-9.4817248,-0.10771698)" /><linearGradient
       inkscape:collect="always"
       xlink:href="#linearGradient3866"
       id="linearGradient3054"
       gradientUnits="userSpaceOnUse"
       x1="513.38513"
       y1="237.96144"
       x2="513.38513"
       y2="418.9259"
       gradientTransform="matrix(0.06430728,0,0,0.06430728,-9.4817248,-0.10771698)" /><linearGradient
       inkscape:collect="always"
       xlink:href="#linearGradient3866"
       id="linearGradient3922"
       gradientUnits="userSpaceOnUse"
       gradientTransform="matrix(0.06430728,0,0,0.06430728,-24.987316,-35.51795)"
       x1="513.38513"
       y1="237.96144"
       x2="513.38513"
       y2="418.9259" /></defs><sodipodi:namedview
     pagecolor="#ffffff"
     bordercolor="#666666"
     borderopacity="1"
     objecttolerance="10"
     gridtolerance="10"
     guidetolerance="10"
     inkscape:pageopacity="0"
     inkscape:pageshadow="2"
     inkscape:window-width="1920"
     inkscape:window-height="1060"
     id="namedview93"
     showgrid="false"
     fit-margin-top="1"
     fit-margin-left="1"
     fit-margin-right="1"
     fit-margin-bottom="1"
     inkscape:zoom="15.104"
     inkscape:cx="8.1938095"
     inkscape:cy="37.669054"
     inkscape:window-x="-2"
     inkscape:window-y="-3"
     inkscape:window-maximized="1"
     inkscape:current-layer="svg2" /><g
     id="L_Jet"
     transform="matrix(0.06430728,0,0,0.06430728,-24.987316,-35.51795)"><polygon
       stroke-miterlimit="10"
       points="456.187,839.412 463.627,843.834 469.961,839.412 475.794,844.167 483.127,839.412 488.794,843.501 495.961,839.412 500.595,839.412 501.58,866.146 480.127,883.834 457.016,862.332 "
       id="polygon33"
       style="fill:#808080;stroke:#000000;stroke-miterlimit:10" /><polygon
       stroke-miterlimit="10"
       points="463.627,843.834 469.961,839.412 475.794,844.167 483.127,839.412 488.794,843.501 495.961,839.412 500.543,839.412 498.345,778.334 453.633,777.249 456.187,839.412 "
       id="polygon35"
       style="fill:#808080;stroke:#000000;stroke-miterlimit:10" /></g><path
     style="font-size:medium;font-style:normal;font-variant:normal;font-weight:normal;font-stretch:normal;text-indent:0;text-align:start;text-decoration:none;line-height:normal;letter-spacing:normal;word-spacing:normal;text-transform:none;direction:ltr;block-progression:tb;writing-mode:lr-tb;text-anchor:start;baseline-shift:baseline;color:#000000;fill:#000000;fill-opacity:1;fill-rule:nonzero;stroke:none;stroke-width:0.06430728;marker:none;visibility:visible;display:inline;overflow:visible;enable-background:accumulate;font-family:Sans;-inkscape-font-specification:Sans"
     d="m 0.96315898,1.1835166 c -0.09233,6.327067 -0.1875,13.1875004 -0.1875,13.1875004 l 0,0.0625 0.0625,0 6.18750002,0.15625 0.28125,8.125 0.03125,0.03125 0.625,0.5625 0.03125,0.03125 0.03125,-0.03125 0.625,-0.5625 0.03125,-0.03125 0.3125,-8.125 6.15625,-0.15625 0.0625,0 0,-0.0625 c 0,0 -0.09517,-6.8604334 -0.1875,-13.1875004 l -0.09375,0 c 0.09212,6.301359 0.186943,13.1217794 0.1875,13.1562504 l -6.1875,0.15625 -0.0625,0 0,0.03125 -0.28125,8.125 -0.59375,0.5625 -0.5625,-0.53125 -0.3125,-8.15625 0,-0.03125 -0.0625,0 -6.15625002,-0.15625 C 0.90121598,14.305297 1.005271,7.4849056 1.088159,1.1835166 l -0.12500002,0 z"
     id="path3075"
     inkscape:connector-curvature="0" /><g
     id="R_Jet"
     transform="matrix(0.06430728,0,0,0.06430728,-24.987316,-35.51795)"><polygon
       stroke-miterlimit="10"
       points="569.607,839.412 562.167,843.834 555.833,839.412 550,844.167 542.667,839.412 537,843.501 529.833,839.412 525.199,839.412 524.215,866.146 545.667,883.834 568.778,862.332 "
       id="polygon38"
       style="fill:#808080;stroke:#000000;stroke-miterlimit:10" /><polygon
       stroke-miterlimit="10"
       points="562.167,843.834 555.833,839.412 550,844.167 542.667,839.412 537,843.501 529.833,839.412 525.251,839.412 527.449,778.334 572.161,777.249 569.607,839.412 "
       id="polygon40"
       style="fill:#808080;stroke:#000000;stroke-miterlimit:10" /></g><path
     style="fill:url(#linearGradient3922);fill-opacity:1;stroke:none"
     d="M 1.025659,1.1835166 C 0.936819,7.5117726 0.83815898,14.371017 0.83815898,14.371017 l 6.21875002,0.15625 0.3125,8.1875 0.625,0.5625 0.625,-0.5625 0.3125,-8.1875 6.21875,-0.15625 c 0,0 -0.06739,-6.8592444 -0.15625,-13.1875004 l -13.96875,0 z"
     id="path43"
     inkscape:connector-curvature="0" /><polygon
     style="fill:#c19069;fill-opacity:1;stroke:#000000;stroke-miterlimit:10"
     id="polygon45"
     points="590.375,607.313 590.375,778.784 586.407,778.784 571.435,800.188 555.462,782.72 537.243,800.188 513.25,776.324 489.256,800.188 471.039,782.72 455.065,800.188 440.092,778.784 436.125,778.784 436.125,607.313 443.822,611.003 450.324,607.313 457.811,611.003 466.047,607.313 474.688,610.757 482.768,607.313 491.197,610.757 497.991,607.313 505.479,610.266 513.25,607.313 521.021,610.266 528.51,607.313 535.302,610.757 543.731,607.313 551.812,610.757 560.453,607.313 568.688,611.003 576.176,607.313 582.679,611.003 "
     stroke-miterlimit="10"
     transform="matrix(0.06430728,0,0,0.06430728,-24.987316,-35.51795)" /><polygon
     style="fill:#c19069;fill-opacity:1;stroke:#000000;stroke-miterlimit:10"
     id="polygon47"
     points="528.566,607.313 524.259,787.211 537.286,800.188 535.348,610.757 "
     stroke-miterlimit="10"
     transform="matrix(0.06430728,0,0,0.06430728,-24.987316,-35.51795)" /><polygon
     style="fill:#c19069;fill-opacity:1;stroke:#000000;stroke-miterlimit:10"
     id="polygon49"
     points="498.207,607.313 502.515,787.211 489.487,800.188 491.425,610.757 "
     stroke-miterlimit="10"
     transform="matrix(0.06430728,0,0,0.06430728,-24.987316,-35.51795)" /><polygon
     style="fill:#c19069;fill-opacity:1;stroke:#000000;stroke-miterlimit:10"
     id="polygon55"
     points="586.225,778.249 624.333,774.231 624.333,806.749 610,937.249 567.334,902.25 571.033,799.999 "
     stroke-miterlimit="10"
     transform="matrix(0.06430728,0,0,0.06430728,-24.987316,-35.51795)" /><polygon
     style="fill:#c19069;fill-opacity:1;stroke:#000000;stroke-miterlimit:10"
     id="polygon57"
     points="439.706,778.249 401.597,774.231 401.597,806.749 415.93,937.249 458.596,902.25 454.897,799.999 "
     stroke-miterlimit="10"
     transform="matrix(0.06430728,0,0,0.06430728,-24.987316,-35.51795)" /><polygon
     style="fill:#333333;stroke:#000000;stroke-miterlimit:10"
     id="polygon71"
     points="512.965,648.25 505.479,639.375 505.479,610.266 513.25,607.313 521.021,610.266 521.062,639.25 "
     stroke-miterlimit="10"
     transform="matrix(0.06430728,0,0,0.06430728,-24.987316,-35.51795)" /><path
     inkscape:connector-curvature="0"
     style="fill:#c19069;fill-opacity:1;stroke:#000000;stroke-width:0.06430728;stroke-miterlimit:10"
     id="path75"
     d="m 8.136207,22.057194 c 0,0 -0.03344,0.462241 -0.133888,0.462241 -0.100448,0 -0.107265,-0.462241 -0.107265,-0.462241 v -7.529225 l 0.123342,-0.122634 0.117811,0.117103 v 7.534756 z"
     stroke-miterlimit="10" /></svg>