<?xml version="1.0" encoding="UTF-8" standalone="no"?>
<!-- Generator: Adobe Illustrator 15.1.0, SVG Export Plug-In . SVG Version: 6.00 Build 0)  -->

<svg
   xmlns:dc="http://purl.org/dc/elements/1.1/"
   xmlns:cc="http://creativecommons.org/ns#"
   xmlns:rdf="http://www.w3.org/1999/02/22-rdf-syntax-ns#"
   xmlns:svg="http://www.w3.org/2000/svg"
   xmlns="http://www.w3.org/2000/svg"
   xmlns:sodipodi="http://sodipodi.sourceforge.net/DTD/sodipodi-0.dtd"
   xmlns:inkscape="http://www.inkscape.org/namespaces/inkscape"
   version="1.1"
   x="0px"
   y="0px"
   width="24"
   height="24"
   viewBox="0 0 24 24"
   enable-background="new 0 0 128 128"
   xml:space="preserve"
   id="svg2"
   inkscape:version="0.48.4 r9939"
   sodipodi:docname="fire_wind_speed.svg"><metadata
     id="metadata32"><rdf:RDF><cc:Work
         rdf:about=""><dc:format>image/svg+xml</dc:format><dc:type
           rdf:resource="http://purl.org/dc/dcmitype/StillImage" /><dc:title /></cc:Work></rdf:RDF></metadata><defs
     id="defs30" /><sodipodi:namedview
     pagecolor="#ff1414"
     bordercolor="#666666"
     borderopacity="1"
     objecttolerance="10"
     gridtolerance="10"
     guidetolerance="10"
     inkscape:pageopacity="1"
     inkscape:pageshadow="2"
     inkscape:window-width="1920"
     inkscape:window-height="1128"
     id="namedview28"
     showgrid="true"
     fit-margin-top="1"
     fit-margin-left="1"
     fit-margin-right="1"
     fit-margin-bottom="1"
     inkscape:zoom="29.5"
     inkscape:cx="18.279791"
     inkscape:cy="15.00674"
     inkscape:window-x="0"
     inkscape:window-y="0"
     inkscape:window-maximized="1"
     inkscape:current-layer="svg2"
     inkscape:snap-grids="true"
     inkscape:snap-bbox="true"><inkscape:grid
       type="xygrid"
       id="grid3016"
       empspacing="5"
       visible="true"
       enabled="true"
       snapvisiblegridlinesonly="true" /></sodipodi:namedview><g
     id="Smoke_v4"
     display="none"
     style="display:none"
     transform="translate(-7.0476075,-83.086709)"><g
       display="inline"
       id="g6"
       style="display:inline"><path
         stroke-miterlimit="10"
         d="m 36.921,47.837 c 3.306,-2.959 3.588,-8.038 0.629,-11.344 -2.081,-2.326 -5.209,-3.147 -8.034,-2.405 0.212,-2.443 -0.539,-4.965 -2.304,-6.937 -3.393,-3.792 -9.216,-4.115 -13.008,-0.722 -3.548,3.175 -4.058,8.476 -1.331,12.25 -2.723,3.396 -2.683,8.354 0.315,11.704 3.339,3.731 9.069,4.049 12.801,0.71 0.721,-0.646 1.311,-1.382 1.775,-2.174 2.894,1.555 6.568,1.235 9.157,-1.082 z"
         id="path8"
         inkscape:connector-curvature="0"
         style="fill:#58595b;stroke:#58595b;stroke-miterlimit:10" /><path
         stroke-miterlimit="10"
         d="m 126.929,21.742 c -0.289,-3.366 -2.533,-6.088 -5.518,-7.163 -0.002,-0.222 -0.003,-0.445 -0.022,-0.671 -0.437,-5.058 -4.89,-8.803 -9.946,-8.368 -3.673,0.315 -6.646,2.756 -7.835,6.004 -0.932,-0.219 -1.913,-0.301 -2.917,-0.214 -5.113,0.44 -8.899,4.942 -8.459,10.055 0.439,5.111 4.94,8.899 10.053,8.46 0.021,-0.002 0.041,-0.006 0.061,-0.009 -0.009,0.335 -0.003,0.673 0.025,1.014 0.421,4.892 4.727,8.514 9.618,8.094 4.422,-0.382 7.8,-3.943 8.092,-8.239 4.208,-0.763 7.223,-4.616 6.848,-8.963 z"
         id="path10"
         inkscape:connector-curvature="0"
         style="fill:#58595b;stroke:#58595b;stroke-miterlimit:10" /><path
         stroke-miterlimit="10"
         d="m 109.569,79.052 c 0,-4.341 -3.992,-7.944 -9.256,-8.697 -2.182,-3.997 -6.055,-7.288 -10.917,-9.327 4.131,-2.771 6.757,-6.879 6.757,-11.473 0,-6.032 -4.524,-11.225 -11.049,-13.649 0.143,-0.472 0.224,-0.96 0.224,-1.466 0,-3.186 -2.951,-5.825 -6.825,-6.35 0,-0.003 0,-0.006 0,-0.009 0,-5.581 -4.625,-10.306 -11.035,-11.976 1.591,-1.4 2.563,-3.239 2.563,-5.26 0,-4.378 -4.53,-7.927 -10.119,-7.927 -5.59,0 -10.121,3.549 -10.121,7.927 0,2.661 1.68,5.009 4.247,6.447 -4.656,2.214 -7.777,6.211 -7.777,10.789 0,6.68 6.628,12.134 15.011,12.583 -2.326,2.497 -3.716,5.563 -3.716,8.891 0,2.334 0.695,4.535 1.901,6.508 -3.052,-1.203 -6.487,-1.896 -10.137,-1.896 -12.477,0 -22.593,7.922 -22.593,17.697 0,4.618 2.276,8.808 5.974,11.959 -2.001,2.82 -3.149,6.062 -3.149,9.517 0,10.253 10.038,18.659 22.835,19.544 0.067,6.473 6.778,11.702 15.056,11.702 8.317,0 15.063,-5.281 15.063,-11.798 0,-3.938 -2.475,-7.416 -6.26,-9.559 1.277,-1.71 2.21,-3.587 2.781,-5.573 2.025,1.358 4.461,2.151 7.082,2.151 6.762,0 12.275,-5.273 12.69,-11.932 5.993,-0.218 10.77,-4.077 10.77,-8.823 z"
         id="path12"
         inkscape:connector-curvature="0"
         style="fill:#58595b;stroke:#58595b;stroke-miterlimit:10" /></g></g><g
     id="Fire_and_Smoke"
     display="none"
     style="display:none"
     transform="translate(-7.0476075,-83.086709)"><g
       display="inline"
       id="g18"
       style="display:inline"><path
         stroke-miterlimit="10"
         d="m 36.921,48.253 c 3.306,-2.959 3.588,-8.038 0.629,-11.344 -2.081,-2.326 -5.209,-3.147 -8.034,-2.405 0.212,-2.443 -0.539,-4.965 -2.304,-6.937 -3.393,-3.792 -9.216,-4.115 -13.008,-0.722 -3.548,3.175 -4.058,8.476 -1.331,12.25 -2.723,3.396 -2.683,8.354 0.315,11.704 3.339,3.731 9.069,4.049 12.801,0.71 0.721,-0.646 1.311,-1.382 1.775,-2.174 2.894,1.555 6.568,1.235 9.157,-1.082 z"
         id="path20"
         inkscape:connector-curvature="0"
         style="fill:#58595b;stroke:#58595b;stroke-miterlimit:10" /><path
         stroke-miterlimit="10"
         d="m 126.929,22.158 c -0.289,-3.366 -2.533,-6.088 -5.518,-7.163 -0.002,-0.222 -0.003,-0.445 -0.022,-0.671 -0.437,-5.058 -4.89,-8.803 -9.946,-8.368 -3.673,0.315 -6.646,2.756 -7.835,6.004 -0.932,-0.219 -1.913,-0.301 -2.917,-0.214 -5.113,0.44 -8.899,4.942 -8.459,10.055 0.439,5.111 4.94,8.899 10.053,8.46 0.021,-0.002 0.041,-0.006 0.061,-0.009 -0.009,0.335 -0.003,0.673 0.025,1.014 0.421,4.892 4.727,8.514 9.618,8.094 4.422,-0.382 7.8,-3.943 8.092,-8.239 4.208,-0.763 7.223,-4.616 6.848,-8.963 z"
         id="path22"
         inkscape:connector-curvature="0"
         style="fill:#58595b;stroke:#58595b;stroke-miterlimit:10" /><path
         stroke-miterlimit="10"
         d="m 109.569,79.468 c 0,-4.341 -3.992,-7.944 -9.256,-8.697 -2.182,-3.997 -6.055,-7.288 -10.917,-9.327 4.131,-2.771 6.757,-6.879 6.757,-11.473 0,-6.032 -4.524,-11.225 -11.049,-13.649 0.143,-0.472 0.224,-0.96 0.224,-1.466 0,-3.186 -2.951,-5.825 -6.825,-6.35 0,-0.003 0,-0.006 0,-0.009 0,-5.581 -4.625,-10.306 -11.035,-11.976 1.591,-1.4 2.563,-3.239 2.563,-5.26 0,-4.378 -4.53,-7.927 -10.119,-7.927 -5.59,0 -10.121,3.549 -10.121,7.927 0,2.661 1.68,5.009 4.247,6.447 -4.656,2.214 -7.777,6.211 -7.777,10.789 0,6.68 6.628,12.134 15.011,12.583 -2.326,2.497 -3.716,5.563 -3.716,8.891 0,2.334 0.695,4.535 1.901,6.508 -3.052,-1.203 -6.487,-1.896 -10.137,-1.896 -12.477,0 -22.593,7.922 -22.593,17.697 0,4.618 2.276,8.808 5.974,11.959 -2.001,2.82 -3.149,6.062 -3.149,9.517 0,10.253 10.038,18.659 22.835,19.544 0.067,6.473 -16.665,-30.673 -8.387,-30.673 8.317,0 25.25,-21.483 25.25,-28 0,-3.938 24.785,24.768 21,22.625 0.198,-0.266 4.355,12.134 4.75,11.875 2.145,-1.41 -1.339,5.125 0.875,5.125 6.762,0 2.509,0.698 2.924,-5.96 5.993,-0.219 10.77,-4.078 10.77,-8.824 z"
         id="path24"
         inkscape:connector-curvature="0"
         style="fill:#58595b;stroke:#58595b;stroke-miterlimit:10" /></g><path
       display="inline"
       stroke-miterlimit="10"
       d="M 63.551,124.125 C 56.896,120.833 46.604,110.4 46.604,98.017 c 0,-16.31 15.08,-11.915 22.262,-41.348 19.175,16.408 26.31,26.011 26.31,40.145 0,14.136 -6.922,18.504 -16.845,26.701 22.104,-1.721 38.413,-9.814 38.413,-29.998 0,-50.111 -41.776,-38.305 -40.995,-62.466 0,-8.786 2.435,-17.468 2.932,-18.478 -33.763,18.72 -22.145,39.192 -34.263,51.136 -6.25,5.625 -12.235,-0.583 -8.868,-10.693 -35.061,49.971 10.174,71.109 28.001,71.109 z"
       id="path26"
       inkscape:connector-curvature="0"
       style="fill:#f26522;stroke:#f26522;stroke-miterlimit:10;display:inline" /></g><path
     style="fill:#ffffff;fill-opacity:1;stroke:none"
     d="m 18.769016,13.904683 c -1.408854,-0.04524 -2.796764,1.078654 -2.848026,2.52665 -0.124641,1.225338 1.097914,2.649293 2.376805,2.614301 0.769265,0.0065 1.5692,-0.497874 1.727959,-1.282145 -0.347204,-0.07757 -0.694409,-0.155134 -1.041613,-0.232701 -0.313367,0.929288 -1.818111,0.250001 -1.930155,-0.511093 -0.342355,-1.034742 0.620476,-2.065101 1.645808,-2.056386 1.317254,-0.09477 2.362347,1.230906 2.226673,2.49004 -0.07435,1.204121 -1.334482,2.527267 -3.024538,2.537551 C 12.500742,20.00837 7.3677167,19.9945 1.9661017,20 c 0,0.333333 0,0.666667 0,1 5.428744,-9e-4 10.5882053,-0.0018 16.0169493,-0.0027 1.949461,0.02723 3.10543,-1.08228 3.658225,-2.163233 0.805337,-1.598141 0.189011,-3.798441 -1.453896,-4.596971 -0.436509,-0.224354 -0.928461,-0.333936 -1.418364,-0.332415 z"
     id="path3866"
     inkscape:connector-curvature="0"
     sodipodi:nodetypes="ccccccccccccccc" /><path
     style="fill:#ffffff;fill-opacity:1;stroke:none"
     d="m 13.752067,7.904683 c -1.408854,-0.04524 -2.796764,1.078654 -2.848026,2.52665 -0.124641,1.225338 1.097914,2.649293 2.376805,2.614301 0.769265,0.0065 1.5692,-0.497874 1.727959,-1.282145 -0.347204,-0.07757 -0.694409,-0.155134 -1.041613,-0.232701 -0.313367,0.929288 -1.818111,0.250001 -1.930155,-0.511093 -0.342355,-1.034742 0.620476,-2.065101 1.645808,-2.056386 1.317254,-0.09477 2.362347,1.230906 2.226673,2.49004 C 15.835168,12.65747 14.575036,13.980616 12.88498,13.9909 7.4837927,14.00837 7.3677167,13.9945 1.9661017,14 c 0,0.333333 0,0.666667 0,1 5.428744,-9e-4 5.571256,-0.0018 11.0000003,-0.0027 1.949461,0.02723 3.10543,-1.08228 3.658225,-2.163233 C 17.429664,11.235926 16.813338,9.035626 15.170431,8.237096 14.733922,8.012742 14.24197,7.90316 13.752067,7.904683 z"
     id="path3866-8"
     inkscape:connector-curvature="0"
     sodipodi:nodetypes="ccccccccccccccc" /><path
     style="fill:#ffffff;fill-opacity:1;stroke:none"
     d="m 8.7690157,1.904683 c -1.408854,-0.04524 -2.796764,1.078654 -2.848026,2.52665 -0.124641,1.225338 1.097914,2.649293 2.376805,2.614301 0.769265,0.0065 1.5692,-0.497874 1.7279593,-1.282145 C 9.6785497,5.685919 9.3313447,5.608355 8.9841407,5.530788 8.6707737,6.460076 7.1660297,5.780789 7.0539857,5.019695 6.7116307,3.984953 7.6744617,2.954594 8.6997937,2.963309 10.017048,2.868539 11.06214,4.194215 10.926466,5.453349 10.852116,6.65747 9.5919847,7.980616 7.9019287,7.9909 2.5007417,8.00837 7.4355133,7.9945 2.0338983,8 c 0,0.333333 0,0.666667 0,1 C 7.4626423,8.9991 2.5543067,8.9982 7.9830507,8.9973 9.9325117,9.02453 11.08848,7.91502 11.641275,6.834067 12.446612,5.235926 11.830286,3.035626 10.187379,2.237096 9.7508707,2.012742 9.2589187,1.90316 8.7690157,1.904683 z"
     id="path3866-2"
     inkscape:connector-curvature="0"
     sodipodi:nodetypes="ccccccccccccccc" /></svg>