<?xml version="1.0" encoding="UTF-8" standalone="no"?>
<!-- Created with Inkscape (http://www.inkscape.org/) -->

<svg
   xmlns:dc="http://purl.org/dc/elements/1.1/"
   xmlns:cc="http://creativecommons.org/ns#"
   xmlns:rdf="http://www.w3.org/1999/02/22-rdf-syntax-ns#"
   xmlns:svg="http://www.w3.org/2000/svg"
   xmlns="http://www.w3.org/2000/svg"
   xmlns:sodipodi="http://sodipodi.sourceforge.net/DTD/sodipodi-0.dtd"
   xmlns:inkscape="http://www.inkscape.org/namespaces/inkscape"
   width="200"
   height="100"
   id="svg2"
   version="1.1"
   inkscape:version="0.48.4 r9939"
   sodipodi:docname="alert_3_logo.svg">
  <defs
     id="defs4" />
  <sodipodi:namedview
     id="base"
     pagecolor="#ffffff"
     bordercolor="#666666"
     borderopacity="1.0"
     inkscape:pageopacity="0.0"
     inkscape:pageshadow="2"
     inkscape:zoom="2.246054"
     inkscape:cx="56.536203"
     inkscape:cy="20.433436"
     inkscape:document-units="px"
     inkscape:current-layer="layer1"
     showgrid="true"
     inkscape:window-width="1440"
     inkscape:window-height="828"
     inkscape:window-x="0"
     inkscape:window-y="0"
     inkscape:window-maximized="1"
     inkscape:snap-bbox="true"
     inkscape:snap-bbox-edge-midpoints="false"
     inkscape:snap-nodes="false"
     inkscape:snap-page="false"
     inkscape:bbox-nodes="true">
    <inkscape:grid
       type="xygrid"
       id="grid3130"
       empspacing="5"
       visible="true"
       enabled="true"
       snapvisiblegridlinesonly="true" />
  </sodipodi:namedview>
  <metadata
     id="metadata7">
    <rdf:RDF>
      <cc:Work
         rdf:about="">
        <dc:format>image/svg+xml</dc:format>
        <dc:type
           rdf:resource="http://purl.org/dc/dcmitype/StillImage" />
        <dc:title></dc:title>
      </cc:Work>
    </rdf:RDF>
  </metadata>
  <g
     inkscape:label="Layer 1"
     inkscape:groupmode="layer"
     id="layer1"
     transform="translate(0,-952.36218)">
    <g
       id="g3149"
       transform="translate(-4.9999999,-16.144512)">
      <g
         id="text3126"
         style="font-size:60.1074791px;font-style:normal;font-weight:bold;line-height:125%;letter-spacing:0px;word-spacing:0px;fill:#d40000;fill-opacity:1;stroke:none;font-family:Sans;-inkscape-font-specification:Sans Bold"
         transform="matrix(1.0603991,0,0,1.012248,-0.5555549,-20.78827)">
        <path
           id="path3133"
           style="font-variant:normal;font-stretch:normal;font-family:Impact;-inkscape-font-specification:Impact Bold"
           d="m 34.108842,983.20336 7.073194,47.51664 -12.649572,0 -0.616336,-8.5407 -4.431753,0 -0.733734,8.5407 -12.7963185,0 6.2807615,-47.51664 17.873758,0 m -6.544907,30.55264 c -0.626136,-5.3806 -1.252255,-12.0234 -1.878358,-19.92817 -1.252254,9.07877 -2.034902,15.72147 -2.347949,19.92817 l 4.226307,0"
           inkscape:connector-curvature="0" />
        <path
           id="path3135"
           style="font-variant:normal;font-stretch:normal;font-family:Impact;-inkscape-font-specification:Impact Bold"
           d="m 55.651268,983.20336 0,38.00744 7.513435,0 0,9.5092 -19.869514,0 0,-47.51664 12.356079,0"
           inkscape:connector-curvature="0" />
        <path
           id="path3137"
           style="font-variant:normal;font-stretch:normal;font-family:Impact;-inkscape-font-specification:Impact Bold"
           d="m 66.187685,983.20336 20.603248,0 0,9.5092 -8.247169,0 0,9.01024 7.71888,0 0,9.0396 -7.71888,0 0,10.4484 9.068951,0 0,9.5092 -21.42503,0 0,-47.51664"
           inkscape:connector-curvature="0" />
        <path
           id="path3139"
           style="font-variant:normal;font-stretch:normal;font-family:Impact;-inkscape-font-specification:Impact Bold"
           d="m 91.193339,983.20336 8.746108,0 c 5.830723,5e-5 9.773313,0.22506 11.827793,0.67504 2.07399,0.45007 3.75669,1.60448 5.04809,3.46322 1.3109,1.83927 1.96637,4.78399 1.9664,8.83416 -3e-5,3.69805 -0.45983,6.18292 -1.37942,7.45472 -0.91964,1.2718 -2.72951,2.0349 -5.42963,2.2893 2.44576,0.6065 4.08932,1.4185 4.93069,2.436 0.84132,1.0174 1.35983,1.9566 1.55552,2.8175 0.2152,0.8414 0.32281,3.1795 0.32284,7.0145 l 0,12.5322 -11.4756,0 0,-15.79 c -10e-6,-2.5436 -0.20546,-4.1187 -0.61633,-4.7252 -0.39134,-0.6066 -1.43814,-0.9098 -3.14038,-0.9099 l 0,21.4251 -12.356081,0 0,-47.51664 m 12.356081,8.12978 0,10.56576 c 1.38918,0 2.35771,-0.1858 2.90558,-0.5576 0.56741,-0.3913 0.85112,-1.63378 0.85113,-3.7274 l 0,-2.61209 c -10e-6,-1.50657 -0.27394,-2.49466 -0.82178,-2.96429 -0.5283,-0.46955 -1.50661,-0.70434 -2.93493,-0.70438"
           inkscape:connector-curvature="0" />
        <path
           id="path3141"
           style="font-variant:normal;font-stretch:normal;font-family:Impact;-inkscape-font-specification:Impact Bold"
           d="m 148.48328,983.20336 0,9.5092 -7.33734,0 0,38.00744 -12.35608,0 0,-38.00744 -7.30799,0 0,-9.5092 27.00141,0"
           inkscape:connector-curvature="0" />
        <path
           id="path3143"
           style="font-variant:normal;font-stretch:normal;font-family:Impact;-inkscape-font-specification:Impact Bold"
           d="m 183.79056,1003.8066 c 1.80006,0.6066 3.14035,1.6045 4.02086,2.9936 0.88045,1.3697 1.32069,4.5981 1.32072,9.6853 -3e-5,3.7763 -0.43049,6.7113 -1.29137,8.8048 -0.86095,2.0741 -2.34798,3.6589 -4.46111,4.7546 -2.11317,1.0762 -4.82309,1.6142 -8.12977,1.6143 -3.75673,-10e-5 -6.71123,-0.6262 -8.8635,-1.8784 -2.13273,-1.2718 -3.54149,-2.8175 -4.22631,-4.6372 -0.66525,-1.8392 -0.99788,-5.0187 -0.99788,-9.5385 l 0,-3.7568 11.85714,0 0,7.7189 c -1e-5,2.0545 0.11739,3.3654 0.35219,3.9328 0.25435,0.5479 0.80221,0.8218 1.64357,0.8218 0.91959,0 1.52615,-0.3522 1.81966,-1.0566 0.29347,-0.7043 0.44022,-2.5436 0.44024,-5.5176 l 0,-3.2872 c -2e-5,-1.8196 -0.20546,-3.1501 -0.61634,-3.9915 -0.41091,-0.8413 -1.01746,-1.3892 -1.81966,-1.6435 -0.80223,-0.274 -2.35774,-0.4305 -4.66655,-0.4696 l 0,-6.8971 c 2.81753,0 4.55892,-0.1076 5.22419,-0.3229 0.66524,-0.2152 1.14461,-0.6848 1.43812,-1.40875 0.29347,-0.72392 0.44022,-1.85876 0.44024,-3.40452 l 0,-2.64145 c -2e-5,-1.66309 -0.17612,-2.75879 -0.52829,-3.28712 -0.33264,-0.52825 -0.86093,-0.79239 -1.58487,-0.79244 -0.82179,5e-5 -1.38921,0.28376 -1.70226,0.85114 -0.2935,0.54789 -0.44025,1.73165 -0.44024,3.55127 l 0,3.90346 -11.85714,0 0,-4.05021 c 0,-4.53932 1.03701,-7.60144 3.11103,-9.18635 2.07402,-1.60438 5.37093,-2.4066 9.89074,-2.40664 5.65462,4e-5 9.4896,1.10554 11.50494,3.31647 2.0153,2.21103 3.02296,5.28293 3.02299,9.2157 -3e-5,2.66104 -0.36201,4.58831 -1.08593,5.78184 -0.72398,1.174 -1.99578,2.2501 -3.81541,3.2284"
           inkscape:connector-curvature="0" />
      </g>
      <g
         transform="scale(1.0367995,0.96450663)"
         style="font-size:31.46650696px;font-style:normal;font-weight:normal;line-height:125%;letter-spacing:0px;word-spacing:0px;fill:#000000;fill-opacity:1;stroke:none;font-family:Sans"
         id="text3145">
        <path
           d="m 160.78952,1077.2457 0,19.897 3.93331,0 0,4.9781 -10.40177,0 0,-24.8751 6.46846,0"
           style="font-variant:normal;font-weight:bold;font-stretch:normal;font-family:Impact;-inkscape-font-specification:Impact Bold"
           id="path3974" />
        <path
           d="m 172.77383,1077.2457 0,19.897 3.93331,0 0,4.9781 -10.40177,0 0,-24.8751 6.46846,0"
           style="font-variant:normal;font-weight:bold;font-stretch:normal;font-family:Impact;-inkscape-font-specification:Impact Bold"
           id="path3976" />
        <path
           d="m 192.90133,1088.0931 -6.46845,0 0,-4.3328 c -1e-5,-1.2599 -0.0717,-2.0435 -0.21511,-2.3508 -0.13317,-0.3175 -0.43533,-0.4763 -0.9065,-0.4763 -0.53265,0 -0.87067,0.1895 -1.01406,0.5685 -0.14341,0.379 -0.21511,1.1984 -0.2151,2.4583 l 0,11.5541 c -1e-5,1.2087 0.0717,1.9974 0.2151,2.3661 0.14339,0.3688 0.46605,0.5532 0.96796,0.5532 0.48142,0 0.79383,-0.1844 0.93724,-0.5532 0.15363,-0.3687 0.23046,-1.2342 0.23047,-2.5966 l 0,-3.1189 6.46845,0 0,0.9679 c -1e-5,2.571 -0.18439,4.3943 -0.55312,5.4698 -0.35852,1.0755 -1.16259,2.0179 -2.41223,2.827 -1.23941,0.8092 -2.77074,1.2138 -4.59398,1.2138 -1.89497,0 -3.45702,-0.3431 -4.68618,-1.0294 -1.22916,-0.6863 -2.04348,-1.6337 -2.44295,-2.8424 -0.39948,-1.2189 -0.59922,-3.0473 -0.59922,-5.4851 l 0,-7.2675 c 0,-1.7925 0.0615,-3.1343 0.18437,-4.0255 0.12292,-0.9013 0.48655,-1.7668 1.09088,-2.5966 0.61458,-0.8296 1.45963,-1.48 2.53515,-1.9512 1.08575,-0.4814 2.33027,-0.7222 3.73357,-0.7222 1.90519,0 3.47749,0.3688 4.71691,1.1063 1.23938,0.7375 2.0537,1.6594 2.44295,2.7656 0.38922,1.096 0.58384,2.8066 0.58385,5.1317 l 0,2.3662"
           style="font-variant:normal;font-weight:bold;font-stretch:normal;font-family:Impact;-inkscape-font-specification:Impact Bold"
           id="path3978" />
      </g>
      <rect
         style="fill:#d40000;fill-opacity:1;stroke:none"
         id="rect3160"
         width="190"
         height="5"
         x="10"
         y="1028.5067"
         ry="0" />
      <rect
         style="fill:#d40000;fill-opacity:1;stroke:none"
         id="rect3160-9"
         width="130"
         height="5"
         x="25"
         y="1038.5067"
         ry="0" />
      <rect
         style="fill:#d40000;fill-opacity:1;stroke:none"
         id="rect3160-6"
         width="115"
         height="5"
         x="40"
         y="1048.5067"
         ry="0" />
      <rect
         style="fill:#d40000;fill-opacity:1;stroke:none"
         id="rect3160-6-2"
         width="100"
         height="5"
         x="55"
         y="1058.5067"
         ry="0" />
    </g>
  </g>
</svg>
