<?xml version="1.0" encoding="UTF-8" standalone="no"?>
<!-- Created with Inkscape (http://www.inkscape.org/) -->

<svg
   xmlns:dc="http://purl.org/dc/elements/1.1/"
   xmlns:cc="http://creativecommons.org/ns#"
   xmlns:rdf="http://www.w3.org/1999/02/22-rdf-syntax-ns#"
   xmlns:svg="http://www.w3.org/2000/svg"
   xmlns="http://www.w3.org/2000/svg"
   xmlns:xlink="http://www.w3.org/1999/xlink"
   xmlns:sodipodi="http://sodipodi.sourceforge.net/DTD/sodipodi-0.dtd"
   xmlns:inkscape="http://www.inkscape.org/namespaces/inkscape"
   width="640"
   height="360"
   id="svg2"
   version="1.1"
   inkscape:version="0.91 r13725"
   sodipodi:docname="ARFF_Splash_traced.svg">
  <defs
     id="defs4">
    <linearGradient
       id="linearGradient4070">
      <stop
         style="stop-color:#ffffff;stop-opacity:0"
         offset="0"
         id="stop4072" />
      <stop
         id="stop4078"
         offset="0.5"
         style="stop-color:#ffffff;stop-opacity:1" />
      <stop
         style="stop-color:#ffffff;stop-opacity:0"
         offset="1"
         id="stop4074" />
    </linearGradient>
    <linearGradient
       id="linearGradient3986">
      <stop
         style="stop-color:#ff2828;stop-opacity:1"
         offset="0"
         id="stop3988" />
      <stop
         id="stop4080"
         offset="0.5"
         style="stop-color:#7f1414;stop-opacity:0.49803922;" />
      <stop
         style="stop-color:#000000;stop-opacity:0;"
         offset="1"
         id="stop3990" />
    </linearGradient>
    <linearGradient
       id="linearGradient3873">
      <stop
         id="stop3875"
         offset="0"
         style="stop-color:#da0000;stop-opacity:1" />
      <stop
         id="stop3877"
         offset="1"
         style="stop-color:#e70000;stop-opacity:0" />
    </linearGradient>
    <linearGradient
       id="linearGradient3861">
      <stop
         style="stop-color:#100a2b;stop-opacity:0.83854169"
         offset="0"
         id="stop3863" />
      <stop
         style="stop-color:#000000;stop-opacity:0;"
         offset="1"
         id="stop3865" />
    </linearGradient>
    <linearGradient
       gradientUnits="userSpaceOnUse"
       y2="13.92532"
       x2="810.14233"
       y1="234.13858"
       x1="763.67535"
       id="linearGradient4955"
       xlink:href="#linearGradient4949"
       inkscape:collect="always" />
    <linearGradient
       gradientUnits="userSpaceOnUse"
       y2="-200.22702"
       x2="763.67535"
       y1="472.83786"
       x1="763.67535"
       id="linearGradient4942"
       xlink:href="#linearGradient4936"
       inkscape:collect="always" />
    <radialGradient
       gradientTransform="matrix(1.2785385,-0.00279569,0.00375783,0.63726426,-543.26833,50.901896)"
       gradientUnits="userSpaceOnUse"
       r="430.32501"
       fy="345.25534"
       fx="765.69562"
       cy="345.25534"
       cx="765.69562"
       id="radialGradient4931"
       xlink:href="#linearGradient4925"
       inkscape:collect="always" />
    <linearGradient
       id="linearGradient4925"
       inkscape:collect="always">
      <stop
         id="stop4927"
         offset="0"
         style="stop-color:#ff0000;stop-opacity:1;" />
      <stop
         id="stop4929"
         offset="1"
         style="stop-color:#000000;stop-opacity:1" />
    </linearGradient>
    <linearGradient
       id="linearGradient4936"
       inkscape:collect="always">
      <stop
         id="stop4938"
         offset="0"
         style="stop-color:#ffffff;stop-opacity:1;" />
      <stop
         id="stop4940"
         offset="1"
         style="stop-color:#ffffff;stop-opacity:0;" />
    </linearGradient>
    <linearGradient
       id="linearGradient4949"
       inkscape:collect="always">
      <stop
         id="stop4951"
         offset="0"
         style="stop-color:#ffffff;stop-opacity:1;" />
      <stop
         id="stop4953"
         offset="1"
         style="stop-color:#ffffff;stop-opacity:0;" />
    </linearGradient>
    <linearGradient
       inkscape:collect="always"
       xlink:href="#linearGradient3861"
       id="linearGradient3867"
       x1="444.91782"
       y1="180.04761"
       x2="444.91782"
       y2="211.87177"
       gradientUnits="userSpaceOnUse"
       gradientTransform="matrix(1,0,0,2.372066,0,-247.2518)" />
    <linearGradient
       inkscape:collect="always"
       xlink:href="#linearGradient3873"
       id="linearGradient3871"
       gradientUnits="userSpaceOnUse"
       x1="444.91782"
       y1="185.87364"
       x2="444.91782"
       y2="213.60646"
       gradientTransform="matrix(1,0,0,-0.05891001,0,197.90689)" />
    <linearGradient
       gradientUnits="userSpaceOnUse"
       y2="13.92532"
       x2="810.14233"
       y1="234.13858"
       x1="763.67535"
       id="linearGradient4955-9"
       xlink:href="#linearGradient4949-6"
       inkscape:collect="always" />
    <linearGradient
       gradientUnits="userSpaceOnUse"
       y2="-200.22702"
       x2="763.67535"
       y1="472.83786"
       x1="763.67535"
       id="linearGradient4942-2"
       xlink:href="#linearGradient4936-2"
       inkscape:collect="always" />
    <linearGradient
       id="linearGradient4936-2"
       inkscape:collect="always">
      <stop
         id="stop4938-6"
         offset="0"
         style="stop-color:#ffffff;stop-opacity:1;" />
      <stop
         id="stop4940-3"
         offset="1"
         style="stop-color:#ffffff;stop-opacity:0;" />
    </linearGradient>
    <linearGradient
       id="linearGradient4949-6"
       inkscape:collect="always">
      <stop
         id="stop4951-6"
         offset="0"
         style="stop-color:#ffffff;stop-opacity:1;" />
      <stop
         id="stop4953-1"
         offset="1"
         style="stop-color:#ffffff;stop-opacity:0;" />
    </linearGradient>
    <filter
       inkscape:collect="always"
       id="filter3980">
      <feGaussianBlur
         inkscape:collect="always"
         stdDeviation="0.21806157"
         id="feGaussianBlur3982" />
    </filter>
    <radialGradient
       inkscape:collect="always"
       xlink:href="#linearGradient3986"
       id="radialGradient3992"
       cx="443.06265"
       cy="307.42184"
       fx="443.06265"
       fy="307.42184"
       r="110.17913"
       gradientUnits="userSpaceOnUse"
       gradientTransform="matrix(1.2797058,1.0277534e-8,-1.0535236e-8,1.3117935,-123.92719,-95.852139)" />
    <filter
       inkscape:collect="always"
       id="filter3998">
      <feGaussianBlur
         inkscape:collect="always"
         stdDeviation="0.76397332"
         id="feGaussianBlur4000" />
    </filter>
    <linearGradient
       inkscape:collect="always"
       xlink:href="#linearGradient4070"
       id="linearGradient4076"
       x1="199.27292"
       y1="139.76663"
       x2="688.638"
       y2="139.76663"
       gradientUnits="userSpaceOnUse" />
  </defs>
  <sodipodi:namedview
     id="base"
     pagecolor="#ffffff"
     bordercolor="#666666"
     borderopacity="1.0"
     inkscape:pageopacity="0.0"
     inkscape:pageshadow="2"
     inkscape:zoom="2.8"
     inkscape:cx="283.72299"
     inkscape:cy="143.95606"
     inkscape:document-units="px"
     inkscape:current-layer="layer1-4"
     showgrid="false"
     borderlayer="true"
     inkscape:window-width="3840"
     inkscape:window-height="2107"
     inkscape:window-x="-8"
     inkscape:window-y="0"
     inkscape:window-maximized="1"
     showguides="true"
     inkscape:guide-bbox="true">
    <sodipodi:guide
       orientation="1,0"
       position="-235.71429,287.14286"
       id="guide4062" />
  </sodipodi:namedview>
  <metadata
     id="metadata7">
    <rdf:RDF>
      <cc:Work
         rdf:about="">
        <dc:format>image/svg+xml</dc:format>
        <dc:type
           rdf:resource="http://purl.org/dc/dcmitype/StillImage" />
        <dc:title></dc:title>
      </cc:Work>
    </rdf:RDF>
  </metadata>
  <g
     inkscape:label="Layer 1"
     inkscape:groupmode="layer"
     id="layer1"
     transform="translate(0,-692.36218)">
    <g
       transform="translate(-123.06261,623.02411)"
       id="layer1-4"
       inkscape:label="Layer 1">
      <rect
         ry="0"
         y="62.86224"
         x="120.25409"
         height="393.36783"
         width="645.617"
         id="rect4923"
         style="fill:url(#radialGradient4931);fill-opacity:1;stroke:none"
         rx="0" />
      <path
         style="opacity:0.20000000000000001;fill:#1c396e;fill-opacity:1;stroke:none;filter:url(#filter3998)"
         mask="none"
         d="M 301.15625 117.09375 C 288.8869 129.1866 269.49804 147.86414 260.84375 156.78125 C 248.41462 169.53432 226.85904 193.07382 218.8125 197.875 C 211.51105 198.98732 215.07214 198.14096 208.8125 198.28125 C 203.42627 197.85644 172.125 188.25 172.125 188.25 C 172.125 188.25 176.73609 184.31814 178.9375 182.25 C 180.03605 181.21795 181.12746 180.19249 182.125 179.0625 C 184.1356 176.78491 186.00155 174.34991 187.71875 171.84375 C 189.03605 169.92126 190.86802 168.13146 191.3125 165.84375 C 191.80131 163.3281 191.32659 160.60905 190.125 158.25 C 188.92366 155.89093 186.24432 153.58807 184.3125 151.65625 C 182.38068 149.72445 181.0553 147.73299 178.53125 146.6875 C 175.82332 145.56586 173.22524 145.40307 169.71875 146.6875 C 166.21228 147.97193 162.40144 152.51791 159.34375 155.46875 C 156.28606 158.4196 154.4557 160.41512 151.34375 164.25 C 148.232 168.08507 140.9375 178.65625 140.9375 178.65625 L -14.65625 133.875 L -14.65625 162.09375 L 70.125 205.875 L 124.46875 234.65625 L 152.0625 263.84375 C 152.0625 263.84375 103.48745 311.28756 80.90625 336.59375 C 73.742261 344.62222 66.207684 354.18446 60.0625 362.03125 L 139.0625 362.03125 C 161.3666 340.2868 196.03125 306.1875 196.03125 306.1875 L 225.1875 336.1875 L 238.65625 362.03125 L 295.0625 362.03125 L 281.84375 316.8125 C 281.84375 316.8125 285.80911 315.1555 288.25 313.59375 C 290.69089 312.03199 293.34505 309.67562 296.21875 307.21875 C 299.09248 304.76184 302.88895 301.6508 305.40625 298.8125 C 307.92353 295.97421 310.71875 291.875 310.71875 291.875 C 310.71875 291.875 313.02461 288.70564 313.40625 287.625 C 314.1618 285.48571 314.60311 283.58553 313.8125 280.84375 C 313.02188 278.10198 310.18925 274.79169 307.8125 272.4375 C 305.43561 270.08344 302.41989 267.75068 299.8125 266.84375 C 297.2051 265.93683 295.20722 265.79528 293.03125 266.4375 C 288.27767 267.84049 284.65559 271.86923 281.03125 275.25 C 277.71312 278.3451 272.25 285.625 272.25 285.625 C 272.25 285.625 264.57009 262.19728 261.5625 250.25 C 261.16469 248.66962 260.54429 247.17925 260.59375 245.46875 C 260.64311 243.75827 259.69304 242.34182 261.96875 240.25 C 266.69365 235.907 283.95006 219.2688 298.4375 204.84375 C 312.92505 190.41881 334.75678 168.49247 348.6875 153.53125 C 355.89592 145.78966 365.04074 134.94828 369.46875 129.53125 C 373.89675 124.11422 372.51067 125.92261 374.6875 122.75 C 375.83384 121.07927 377.08781 119.24761 378.4375 117.09375 L 301.15625 117.09375 z "
         transform="translate(123.06261,69.33807)"
         id="path4147" />
      <g
         style="font-size:55.84177017px;font-style:normal;font-variant:normal;font-weight:normal;font-stretch:normal;line-height:100%;letter-spacing:0px;word-spacing:0px;fill:#ffffff;fill-opacity:1;stroke:none;font-family:Sawasdee;-inkscape-font-specification:Sawasdee"
         id="text3825">
        <path
           d="m 404.03633,131.48503 -8.77981,0 -3.49011,-9.07974 -15.97816,0 -3.29925,9.07974 -8.56168,0 15.56917,-39.972672 8.53441,0 16.00543,39.972672 m -14.86024,-15.81456 -5.50783,-14.83297 -5.39876,14.83297 10.90659,0"
           style="letter-spacing:3px"
           id="path3206" />
        <path
           d="m 411.3717,131.48503 0,-39.972672 16.98702,0 c 4.27173,4e-5 7.37102,0.363593 9.29788,1.090659 1.94497,0.708967 3.49916,1.981402 4.66257,3.817309 1.16333,1.835977 1.74502,3.935494 1.74505,6.298554 -3e-5,2.99934 -0.88165,5.48059 -2.64485,7.44376 -1.76326,1.94503 -4.39902,3.17202 -7.90728,3.68097 1.74503,1.01797 3.18106,2.13589 4.30811,3.35378 1.14516,1.21792 2.68117,3.38106 4.60803,6.48943 l 4.8807,7.79821 -9.65233,0 -5.83503,-8.69801 c -2.07228,-3.10837 -3.49013,-5.06246 -4.25357,-5.86229 -0.76349,-0.81798 -1.57239,-1.3724 -2.42672,-1.66326 -0.85437,-0.309 -2.2086,-0.46351 -4.06271,-0.46353 l -1.63599,0 0,16.68709 -8.07088,0 m 8.07088,-23.06745 5.97136,0 c 3.87182,2e-5 6.28945,-0.16357 7.25289,-0.4908 0.96339,-0.32717 1.71776,-0.89068 2.26312,-1.69052 0.5453,-0.79979 0.81796,-1.79956 0.81799,-2.99931 -3e-5,-1.34512 -0.36358,-2.42669 -1.09066,-3.244714 -0.70895,-0.83614 -1.71781,-1.363292 -3.02658,-1.581456 -0.65442,-0.09086 -2.6176,-0.1363 -5.88956,-0.136333 l -6.29856,0 0,10.143133"
           style="letter-spacing:3px"
           id="path3208" />
        <path
           d="m 454.75337,131.48503 0,-39.972672 27.40282,0 0,6.762089 -19.33194,0 0,9.461473 16.68709,0 0,6.76209 -16.68709,0 0,16.98702 -8.07088,0"
           style="letter-spacing:3px"
           id="path3210" />
        <path
           d="m 491.89101,131.48503 0,-39.972672 27.40283,0 0,6.762089 -19.33194,0 0,9.461473 16.68709,0 0,6.76209 -16.68709,0 0,16.98702 -8.07089,0"
           style="letter-spacing:3px"
           id="path3212" />
        <path
           d="m 270.27062,167.58833 c -1e-5,0.40533 -0.10668,0.77866 -0.32,1.12 -0.19201,0.32 -0.46935,0.48 -0.832,0.48 l -11.808,0 c -0.34133,0 -0.59733,-0.16 -0.768,-0.48 -0.14933,-0.32 -0.224,-0.69334 -0.224,-1.12 0,-0.34134 0.0853,-0.62934 0.256,-0.864 0.192,-0.256 0.43733,-0.384 0.736,-0.384 l 4.512,0 0,-16.704 -4.448,0 c -0.29867,2e-5 -0.53333,-0.13865 -0.704,-0.416 -0.14933,-0.29865 -0.224,-0.63998 -0.224,-1.024 0,-0.34132 0.0853,-0.62932 0.256,-0.864 0.17067,-0.23465 0.39467,-0.35198 0.672,-0.352 l 11.744,0 c 0.29865,2e-5 0.55465,0.12802 0.768,0.384 0.21332,0.25602 0.31999,0.53335 0.32,0.832 -10e-6,0.40535 -0.096,0.74668 -0.288,1.024 -0.17068,0.27735 -0.43735,0.41602 -0.8,0.416 l -4.256,0 0,16.704 4.256,0 c 0.76799,0 1.15199,0.416 1.152,1.248"
           style="font-size:32px;font-weight:bold;text-align:center;line-height:100%;letter-spacing:5px;text-anchor:middle;fill:#ffffff;font-family:OCR-A;-inkscape-font-specification:OCR-A Bold"
           id="path3214" />
        <path
           d="m 293.60612,168.13233 c -10e-6,0.256 -0.096,0.50133 -0.288,0.736 -0.25601,0.32 -0.57601,0.48 -0.96,0.48 -0.53334,0 -0.93868,-0.0853 -1.216,-0.256 -0.25601,-0.17067 -0.38401,-0.49067 -0.384,-0.96 l 0,-10.176 c -1e-5,-0.42666 -0.29868,-0.78933 -0.896,-1.088 -0.57601,-0.31999 -1.05601,-0.47999 -1.44,-0.48 -0.36267,1e-5 -0.66134,0.0427 -0.896,0.128 -0.23467,0.0853 -0.51201,0.22401 -0.832,0.416 l -3.968,2.56 0,8.64 c 0,0.32 -0.14934,0.608 -0.448,0.864 -0.27734,0.23466 -0.576,0.352 -0.896,0.352 -0.42667,0 -0.768,-0.0853 -1.024,-0.256 -0.23467,-0.17067 -0.352,-0.49067 -0.352,-0.96 l 0,-13.024 c 0,-0.23466 0.11733,-0.53332 0.352,-0.896 0.256,-0.38399 0.59733,-0.57599 1.024,-0.576 0.40533,1e-5 0.72533,0.14934 0.96,0.448 0.256,0.27734 0.384,0.61868 0.384,1.024 l 0,1.12 3.584,-2.112 c 0.29866,-0.19199 0.58666,-0.31999 0.864,-0.384 0.27733,-0.064 0.59733,-0.096 0.96,-0.096 1.45066,1e-5 2.68799,0.32001 3.712,0.96 1.17332,0.72534 1.75999,1.69601 1.76,2.912 l 0,10.624"
           style="font-size:32px;font-weight:bold;text-align:center;line-height:100%;letter-spacing:5px;text-anchor:middle;fill:#ffffff;font-family:OCR-A;-inkscape-font-specification:OCR-A Bold"
           id="path3216" />
        <path
           d="m 315.90512,166.56433 c -1e-5,0.74666 -0.43735,1.38666 -1.312,1.92 -0.76801,0.46933 -1.47201,0.704 -2.112,0.704 l -3.488,0 c -1.04534,0 -1.99467,-0.34134 -2.848,-1.024 -0.832,-0.704 -1.248,-1.51467 -1.248,-2.432 l 0,-9.824 -2.112,0 c -0.27733,1e-5 -0.49067,-0.12799 -0.64,-0.384 -0.128,-0.25599 -0.192,-0.55466 -0.192,-0.896 0,-0.42666 0.064,-0.76799 0.192,-1.024 0.14933,-0.27732 0.39467,-0.41599 0.736,-0.416 l 2.08,0 0,-3.744 c 0,-0.29865 0.13866,-0.52265 0.416,-0.672 0.27733,-0.14932 0.61866,-0.22398 1.024,-0.224 0.27733,2e-5 0.53333,0.0854 0.768,0.256 0.23466,0.17068 0.352,0.38402 0.352,0.64 l 0,3.744 6.016,0 c 0.19199,1e-5 0.40532,0.16001 0.64,0.48 0.25599,0.29868 0.38399,0.61868 0.384,0.96 -1e-5,0.34134 -0.096,0.64001 -0.288,0.896 -0.19201,0.25601 -0.43734,0.38401 -0.736,0.384 l -6.016,0 0,9.152 c 0,0.32 0.14933,0.61867 0.448,0.896 0.31999,0.256 0.66133,0.384 1.024,0.384 l 3.04,0 c 0.42666,0 0.79999,-0.23467 1.12,-0.704 0.74666,-1.06667 1.24799,-1.6 1.504,-1.6 0.51199,0 0.85332,0.10667 1.024,0.32 0.19199,0.192 0.28799,0.49067 0.288,0.896 -10e-6,0.0853 -0.0107,0.27733 -0.032,0.576 -0.0213,0.29867 -0.032,0.544 -0.032,0.736"
           style="font-size:32px;font-weight:bold;text-align:center;line-height:100%;letter-spacing:5px;text-anchor:middle;fill:#ffffff;font-family:OCR-A;-inkscape-font-specification:OCR-A Bold"
           id="path3218" />
        <path
           d="m 338.50112,167.71633 c -1e-5,0.29866 -0.11735,0.61866 -0.352,0.96 -0.21335,0.34133 -0.46935,0.512 -0.768,0.512 l -8.928,0 c -0.74667,0 -1.55733,-0.512 -2.432,-1.536 -0.85333,-1.04533 -1.28,-2.00533 -1.28,-2.88 l 0,-7.072 c 0,-0.72533 0.48,-1.55732 1.44,-2.496 0.96,-0.93866 1.81333,-1.40799 2.56,-1.408 l 5.472,0 c 0.91732,10e-6 1.85599,0.48001 2.816,1.44 0.98132,0.93868 1.47199,1.93067 1.472,2.976 l 0,4.352 c -1e-5,0.17067 -0.17068,0.352 -0.512,0.544 -0.32001,0.192 -0.61868,0.288 -0.896,0.288 l -9.536,0 0,1.28 c 0,0.34133 0.256,0.736 0.768,1.184 0.512,0.448 0.94933,0.672 1.312,0.672 l 7.68,0 c 0.27732,0 0.54399,0.13867 0.8,0.416 0.25599,0.27733 0.38399,0.53333 0.384,0.768 m -2.912,-6.88 0,-2.624 c -10e-6,-0.38399 -0.19201,-0.75733 -0.576,-1.12 -0.38401,-0.36266 -0.76801,-0.54399 -1.152,-0.544 l -4.448,0 c -0.448,1e-5 -0.87467,0.16001 -1.28,0.48 -0.384,0.29867 -0.576,0.59734 -0.576,0.896 l 0,2.912 8.032,0"
           style="font-size:32px;font-weight:bold;text-align:center;line-height:100%;letter-spacing:5px;text-anchor:middle;fill:#ffffff;font-family:OCR-A;-inkscape-font-specification:OCR-A Bold"
           id="path3220" />
        <path
           d="m 361.48712,158.56433 c -1e-5,0.29867 -0.13868,0.53334 -0.416,0.704 -0.25601,0.14934 -0.55468,0.22401 -0.896,0.224 -0.34135,1e-5 -0.66135,-0.0853 -0.96,-0.256 -0.29868,-0.19199 -0.44801,-0.40533 -0.448,-0.64 -10e-6,-1.83466 -0.73601,-2.81599 -2.208,-2.944 -0.42667,1e-5 -0.77867,0.0427 -1.056,0.128 -0.25601,0.0853 -0.55467,0.26668 -0.896,0.544 l -4.352,3.456 0,8.672 c 0,0.27733 -0.13867,0.49066 -0.416,0.64 -0.27734,0.14933 -0.58667,0.224 -0.928,0.224 -0.36267,0 -0.69333,-0.064 -0.992,-0.192 -0.29867,-0.14934 -0.448,-0.37334 -0.448,-0.672 l 0,-13.44 c 0,-0.51199 0.128,-0.88532 0.384,-1.12 0.256,-0.23466 0.608,-0.35199 1.056,-0.352 0.42667,10e-6 0.75733,0.14934 0.992,0.448 0.23466,0.29868 0.352,0.62934 0.352,0.992 l 0,1.344 4.288,-3.008 c 0.17066,-0.12799 0.35199,-0.21332 0.544,-0.256 0.19199,-0.0426 0.40533,-0.064 0.64,-0.064 0.36266,0.0214 0.63999,0.032 0.832,0.032 1.38666,10e-6 2.46399,0.29868 3.232,0.896 1.13065,0.89601 1.69599,2.44268 1.696,4.64"
           style="font-size:32px;font-weight:bold;text-align:center;line-height:100%;letter-spacing:5px;text-anchor:middle;fill:#ffffff;font-family:OCR-A;-inkscape-font-specification:OCR-A Bold"
           id="path3222" />
        <path
           d="m 383.84562,168.13233 c -10e-6,0.384 -0.096,0.672 -0.288,0.864 -0.19201,0.192 -0.46935,0.288 -0.832,0.288 -0.34134,0 -0.67201,-0.192 -0.992,-0.576 -0.19201,-0.256 -0.36268,-0.46934 -0.512,-0.64 -0.27734,0.34133 -0.56534,0.61866 -0.864,0.832 -0.29868,0.192 -0.64001,0.288 -1.024,0.288 l -5.6,0 c -0.896,0 -1.70667,-0.33067 -2.432,-0.992 -0.704,-0.68267 -1.056,-1.472 -1.056,-2.368 l 0,-2.752 c 0,-0.768 0.224,-1.49333 0.672,-2.176 0.46933,-0.68266 1.07733,-1.02399 1.824,-1.024 l 8.32,0 0,-2.016 c -1e-5,-0.31999 -0.16001,-0.62933 -0.48,-0.928 -0.32001,-0.29866 -0.64001,-0.44799 -0.96,-0.448 l -5.632,0 c -0.29867,1e-5 -0.544,-0.14932 -0.736,-0.448 -0.17067,-0.31999 -0.256,-0.66132 -0.256,-1.024 0,-0.87466 0.384,-1.31199 1.152,-1.312 l 6.272,0 c 0.91732,1e-5 1.71732,0.40534 2.4,1.216 0.68265,0.81068 1.02399,1.70668 1.024,2.688 l 0,10.528 m -2.624,-3.008 0,-1.632 c -10e-6,-0.32 -0.11734,-0.59733 -0.352,-0.832 -0.21334,-0.256 -0.46934,-0.384 -0.768,-0.384 l -5.952,0 c -0.256,0 -0.53334,0.128 -0.832,0.384 -0.29867,0.256 -0.448,0.53334 -0.448,0.832 l 0,1.632 c 0,0.32 0.10666,0.608 0.32,0.864 0.21333,0.256 0.48,0.384 0.8,0.384 l 6.112,0 c 0.25599,0 0.50132,-0.128 0.736,-0.384 0.25599,-0.27733 0.38399,-0.56533 0.384,-0.864"
           style="font-size:32px;font-weight:bold;text-align:center;line-height:100%;letter-spacing:5px;text-anchor:middle;fill:#ffffff;font-family:OCR-A;-inkscape-font-specification:OCR-A Bold"
           id="path3224" />
        <path
           d="m 406.44462,167.65233 c -10e-6,0.40533 -0.10668,0.768 -0.32,1.088 -0.19201,0.29866 -0.45868,0.448 -0.8,0.448 l -6.592,0 c -0.38401,0 -0.68267,-0.0213 -0.896,-0.064 -0.21334,-0.064 -0.42667,-0.20267 -0.64,-0.416 l -3.968,-3.968 c -0.21333,-0.21333 -0.416,-0.68267 -0.608,-1.408 -0.17067,-0.72533 -0.256,-1.35466 -0.256,-1.888 0,-0.66133 0.0747,-1.34399 0.224,-2.048 0.17067,-0.72533 0.45867,-1.30133 0.864,-1.728 l 3.488,-3.616 c 0.192,-0.19199 0.42666,-0.33066 0.704,-0.416 0.29866,-0.10665 0.55466,-0.15999 0.768,-0.16 l 6.272,0 c 0.42665,1e-5 0.79999,0.14934 1.12,0.448 0.34132,0.27734 0.51199,0.60801 0.512,0.992 -10e-6,0.51201 -0.11735,0.90668 -0.352,1.184 -0.23468,0.25601 -0.66135,0.38401 -1.28,0.384 l -6.272,0 -2.752,2.656 c -0.17067,0.14934 -0.30934,0.35201 -0.416,0.608 -0.0853,0.25601 -0.128,0.64 -0.128,1.152 0,0.256 0,0.43734 0,0.544 0,0.27734 0.0533,0.608 0.16,0.992 0.128,0.36267 0.32,0.68267 0.576,0.96 l 2.624,2.944 7.008,0 c 0.27732,0 0.50132,0.13867 0.672,0.416 0.19199,0.256 0.28799,0.55466 0.288,0.896"
           style="font-size:32px;font-weight:bold;text-align:center;line-height:100%;letter-spacing:5px;text-anchor:middle;fill:#ffffff;font-family:OCR-A;-inkscape-font-specification:OCR-A Bold"
           id="path3226" />
        <path
           d="m 428.34262,166.56433 c -1e-5,0.74666 -0.43735,1.38666 -1.312,1.92 -0.76801,0.46933 -1.47201,0.704 -2.112,0.704 l -3.488,0 c -1.04534,0 -1.99467,-0.34134 -2.848,-1.024 -0.832,-0.704 -1.248,-1.51467 -1.248,-2.432 l 0,-9.824 -2.112,0 c -0.27733,1e-5 -0.49067,-0.12799 -0.64,-0.384 -0.128,-0.25599 -0.192,-0.55466 -0.192,-0.896 0,-0.42666 0.064,-0.76799 0.192,-1.024 0.14933,-0.27732 0.39467,-0.41599 0.736,-0.416 l 2.08,0 0,-3.744 c 0,-0.29865 0.13866,-0.52265 0.416,-0.672 0.27733,-0.14932 0.61866,-0.22398 1.024,-0.224 0.27733,2e-5 0.53333,0.0854 0.768,0.256 0.23466,0.17068 0.352,0.38402 0.352,0.64 l 0,3.744 6.016,0 c 0.19199,1e-5 0.40532,0.16001 0.64,0.48 0.25599,0.29868 0.38399,0.61868 0.384,0.96 -1e-5,0.34134 -0.096,0.64001 -0.288,0.896 -0.19201,0.25601 -0.43734,0.38401 -0.736,0.384 l -6.016,0 0,9.152 c 0,0.32 0.14933,0.61867 0.448,0.896 0.31999,0.256 0.66133,0.384 1.024,0.384 l 3.04,0 c 0.42666,0 0.79999,-0.23467 1.12,-0.704 0.74666,-1.06667 1.24799,-1.6 1.504,-1.6 0.51199,0 0.85332,0.10667 1.024,0.32 0.19199,0.192 0.28799,0.49067 0.288,0.896 -10e-6,0.0853 -0.0107,0.27733 -0.032,0.576 -0.0213,0.29867 -0.032,0.544 -0.032,0.736"
           style="font-size:32px;font-weight:bold;text-align:center;line-height:100%;letter-spacing:5px;text-anchor:middle;fill:#ffffff;font-family:OCR-A;-inkscape-font-specification:OCR-A Bold"
           id="path3228" />
        <path
           d="m 444.89062,150.18033 c -1e-5,0.29868 -0.22401,0.44801 -0.672,0.448 l -2.368,0 c -0.21334,1e-5 -0.40534,-0.0427 -0.576,-0.128 -0.14934,-0.0853 -0.224,-0.21332 -0.224,-0.384 l 0,-2.912 c 0,-0.21332 0.0853,-0.38398 0.256,-0.512 0.17066,-0.12798 0.36266,-0.19198 0.576,-0.192 l 2.272,0 c 0.14933,2e-5 0.30933,0.0534 0.48,0.16 0.17066,0.0854 0.25599,0.24535 0.256,0.48 l 0,3.04 m 5.024,17.664 c -1e-5,0.29866 -0.096,0.59733 -0.288,0.896 -0.17068,0.29866 -0.39468,0.448 -0.672,0.448 l -9.248,0 c -0.29867,0 -0.56533,-0.11734 -0.8,-0.352 -0.21333,-0.256 -0.32,-0.544 -0.32,-0.864 0,-0.32 0.096,-0.64 0.288,-0.96 0.21333,-0.32 0.49067,-0.48 0.832,-0.48 l 2.816,0 0,-10.048 -3.392,0 c -0.29867,1e-5 -0.53333,-0.11732 -0.704,-0.352 -0.14933,-0.23466 -0.224,-0.53332 -0.224,-0.896 0,-0.34132 0.0853,-0.63999 0.256,-0.896 0.17067,-0.27732 0.40533,-0.41599 0.704,-0.416 l 5.6,0 c 0.17066,1e-5 0.35199,0.0427 0.544,0.128 0.21333,0.064 0.31999,0.22401 0.32,0.48 l 0,12 3.264,0 c 0.23466,0 0.45866,0.13867 0.672,0.416 0.23465,0.256 0.35199,0.55466 0.352,0.896"
           style="font-size:32px;font-weight:bold;text-align:center;line-height:100%;letter-spacing:5px;text-anchor:middle;fill:#ffffff;font-family:OCR-A;-inkscape-font-specification:OCR-A Bold"
           id="path3230" />
        <path
           d="m 471.93712,157.54033 -5.216,10.848 c -0.27734,0.576 -0.76801,0.864 -1.472,0.864 -0.49067,0 -0.87467,-0.0747 -1.152,-0.224 -0.27734,-0.17067 -0.48,-0.384 -0.608,-0.64 l -5.312,-11.008 0,-3.52 c 0,-0.29865 0.128,-0.52265 0.384,-0.672 0.27733,-0.17065 0.59733,-0.25599 0.96,-0.256 0.34133,1e-5 0.64,0.0854 0.896,0.256 0.256,0.14935 0.384,0.37335 0.384,0.672 l 0,3.232 4.448,8.736 4.096,-8.864 0,-3.104 c -1e-5,-0.29865 0.13866,-0.52265 0.416,-0.672 0.27732,-0.17065 0.59732,-0.25599 0.96,-0.256 0.81065,1e-5 1.21599,0.30935 1.216,0.928 l 0,3.68"
           style="font-size:32px;font-weight:bold;text-align:center;line-height:100%;letter-spacing:5px;text-anchor:middle;fill:#ffffff;font-family:OCR-A;-inkscape-font-specification:OCR-A Bold"
           id="path3232" />
        <path
           d="m 493.87612,167.71633 c -1e-5,0.29866 -0.11735,0.61866 -0.352,0.96 -0.21335,0.34133 -0.46935,0.512 -0.768,0.512 l -8.928,0 c -0.74667,0 -1.55733,-0.512 -2.432,-1.536 -0.85333,-1.04533 -1.28,-2.00533 -1.28,-2.88 l 0,-7.072 c 0,-0.72533 0.48,-1.55732 1.44,-2.496 0.96,-0.93866 1.81333,-1.40799 2.56,-1.408 l 5.472,0 c 0.91732,10e-6 1.85599,0.48001 2.816,1.44 0.98132,0.93868 1.47199,1.93067 1.472,2.976 l 0,4.352 c -1e-5,0.17067 -0.17068,0.352 -0.512,0.544 -0.32001,0.192 -0.61868,0.288 -0.896,0.288 l -9.536,0 0,1.28 c 0,0.34133 0.256,0.736 0.768,1.184 0.512,0.448 0.94933,0.672 1.312,0.672 l 7.68,0 c 0.27732,0 0.54399,0.13867 0.8,0.416 0.25599,0.27733 0.38399,0.53333 0.384,0.768 m -2.912,-6.88 0,-2.624 c -10e-6,-0.38399 -0.19201,-0.75733 -0.576,-1.12 -0.38401,-0.36266 -0.76801,-0.54399 -1.152,-0.544 l -4.448,0 c -0.448,1e-5 -0.87467,0.16001 -1.28,0.48 -0.384,0.29867 -0.576,0.59734 -0.576,0.896 l 0,2.912 8.032,0"
           style="font-size:32px;font-weight:bold;text-align:center;line-height:100%;letter-spacing:5px;text-anchor:middle;fill:#ffffff;font-family:OCR-A;-inkscape-font-specification:OCR-A Bold"
           id="path3234" />
        <path
           d="m 538.47012,163.07633 c -10e-6,2.26133 -0.42668,3.88266 -1.28,4.864 -0.72535,0.832 -1.74934,1.248 -3.072,1.248 l -9.632,0 0,-21.888 8.704,0 c 1.27999,2e-5 2.47466,0.62935 3.584,1.888 1.13065,1.23735 1.69599,2.56001 1.696,3.968 -10e-6,1.28001 -0.19201,2.34668 -0.576,3.2 -0.38401,0.85334 -1.03468,1.47201 -1.952,1.856 0.85332,0.42667 1.48265,1.07734 1.888,1.952 0.42665,0.87467 0.63999,1.84534 0.64,2.912 m -2.72,-9.792 c -1e-5,-0.81065 -0.29868,-1.52532 -0.896,-2.144 -0.59734,-0.61865 -1.31201,-0.92798 -2.144,-0.928 l -5.504,0 0,6.912 5.408,0 c 1.00266,1e-5 1.79199,-0.40532 2.368,-1.216 0.51199,-0.70399 0.76799,-1.57866 0.768,-2.624 m -0.16,9.792 c -10e-6,-0.96 -0.19201,-1.728 -0.576,-2.304 -0.44801,-0.66133 -1.08801,-0.99199 -1.92,-0.992 l -5.952,0 0,6.976 6.048,0 c 0.83199,0 1.43999,-0.352 1.824,-1.056 0.38399,-0.704 0.57599,-1.57867 0.576,-2.624"
           style="font-size:32px;font-weight:bold;text-align:center;line-height:100%;letter-spacing:5px;text-anchor:middle;fill:#ffffff;font-family:OCR-A;-inkscape-font-specification:OCR-A Bold"
           id="path3236" />
        <path
           d="m 561.89112,164.45233 c -10e-6,1.30133 -0.44801,2.42133 -1.344,3.36 -0.87468,0.91733 -1.95201,1.376 -3.232,1.376 l -5.28,0 c -1.152,0 -2.12267,-0.416 -2.912,-1.248 -0.768,-0.85334 -1.152,-1.888 -1.152,-3.104 l 0,-6.912 c 0,-1.19466 0.43733,-2.20799 1.312,-3.04 0.87466,-0.83199 1.92,-1.24799 3.136,-1.248 l 4.896,0 c 1.23732,1e-5 2.30399,0.41601 3.2,1.248 0.91732,0.81068 1.37599,1.82401 1.376,3.04 l 0,6.528 m -2.784,-0.256 0,-5.888 c -10e-6,-0.51199 -0.21334,-0.92799 -0.64,-1.248 -0.40534,-0.34132 -0.89601,-0.51199 -1.472,-0.512 l -3.968,0 c -0.61867,1e-5 -1.17334,0.16001 -1.664,0.48 -0.49067,0.29867 -0.736,0.72534 -0.736,1.28 l 0,6.144 c 0,0.576 0.17066,1.03467 0.512,1.376 0.34133,0.34133 0.768,0.512 1.28,0.512 l 4.576,0 c 0.59732,0 1.09866,-0.20267 1.504,-0.608 0.40532,-0.40533 0.60799,-0.91733 0.608,-1.536"
           style="font-size:32px;font-weight:bold;text-align:center;line-height:100%;letter-spacing:5px;text-anchor:middle;fill:#ffffff;font-family:OCR-A;-inkscape-font-specification:OCR-A Bold"
           id="path3238" />
        <path
           d="m 584.28312,168.13233 c -1e-5,0.384 -0.096,0.672 -0.288,0.864 -0.19201,0.192 -0.46935,0.288 -0.832,0.288 -0.34134,0 -0.67201,-0.192 -0.992,-0.576 -0.19201,-0.256 -0.36268,-0.46934 -0.512,-0.64 -0.27734,0.34133 -0.56534,0.61866 -0.864,0.832 -0.29868,0.192 -0.64001,0.288 -1.024,0.288 l -5.6,0 c -0.896,0 -1.70667,-0.33067 -2.432,-0.992 -0.704,-0.68267 -1.056,-1.472 -1.056,-2.368 l 0,-2.752 c 0,-0.768 0.224,-1.49333 0.672,-2.176 0.46933,-0.68266 1.07733,-1.02399 1.824,-1.024 l 8.32,0 0,-2.016 c -10e-6,-0.31999 -0.16001,-0.62933 -0.48,-0.928 -0.32001,-0.29866 -0.64001,-0.44799 -0.96,-0.448 l -5.632,0 c -0.29867,1e-5 -0.544,-0.14932 -0.736,-0.448 -0.17067,-0.31999 -0.256,-0.66132 -0.256,-1.024 0,-0.87466 0.384,-1.31199 1.152,-1.312 l 6.272,0 c 0.91732,1e-5 1.71732,0.40534 2.4,1.216 0.68265,0.81068 1.02399,1.70668 1.024,2.688 l 0,10.528 m -2.624,-3.008 0,-1.632 c -10e-6,-0.32 -0.11734,-0.59733 -0.352,-0.832 -0.21334,-0.256 -0.46934,-0.384 -0.768,-0.384 l -5.952,0 c -0.256,0 -0.53334,0.128 -0.832,0.384 -0.29867,0.256 -0.448,0.53334 -0.448,0.832 l 0,1.632 c 0,0.32 0.10666,0.608 0.32,0.864 0.21333,0.256 0.48,0.384 0.8,0.384 l 6.112,0 c 0.25599,0 0.50132,-0.128 0.736,-0.384 0.25599,-0.27733 0.38399,-0.56533 0.384,-0.864"
           style="font-size:32px;font-weight:bold;text-align:center;line-height:100%;letter-spacing:5px;text-anchor:middle;fill:#ffffff;font-family:OCR-A;-inkscape-font-specification:OCR-A Bold"
           id="path3240" />
        <path
           d="m 607.36212,158.56433 c -10e-6,0.29867 -0.13868,0.53334 -0.416,0.704 -0.25601,0.14934 -0.55468,0.22401 -0.896,0.224 -0.34135,1e-5 -0.66135,-0.0853 -0.96,-0.256 -0.29868,-0.19199 -0.44801,-0.40533 -0.448,-0.64 -10e-6,-1.83466 -0.73601,-2.81599 -2.208,-2.944 -0.42667,1e-5 -0.77867,0.0427 -1.056,0.128 -0.25601,0.0853 -0.55467,0.26668 -0.896,0.544 l -4.352,3.456 0,8.672 c 0,0.27733 -0.13867,0.49066 -0.416,0.64 -0.27734,0.14933 -0.58667,0.224 -0.928,0.224 -0.36267,0 -0.69333,-0.064 -0.992,-0.192 -0.29867,-0.14934 -0.448,-0.37334 -0.448,-0.672 l 0,-13.44 c 0,-0.51199 0.128,-0.88532 0.384,-1.12 0.256,-0.23466 0.608,-0.35199 1.056,-0.352 0.42667,10e-6 0.75733,0.14934 0.992,0.448 0.23466,0.29868 0.352,0.62934 0.352,0.992 l 0,1.344 4.288,-3.008 c 0.17066,-0.12799 0.35199,-0.21332 0.544,-0.256 0.19199,-0.0426 0.40533,-0.064 0.64,-0.064 0.36266,0.0214 0.63999,0.032 0.832,0.032 1.38666,10e-6 2.46399,0.29868 3.232,0.896 1.13065,0.89601 1.69599,2.44268 1.696,4.64"
           style="font-size:32px;font-weight:bold;text-align:center;line-height:100%;letter-spacing:5px;text-anchor:middle;fill:#ffffff;font-family:OCR-A;-inkscape-font-specification:OCR-A Bold"
           id="path3242" />
        <path
           d="m 629.75262,168.29233 c -10e-6,0.59733 -0.48001,0.896 -1.44,0.896 -0.32001,0 -0.58668,-0.0747 -0.8,-0.224 -0.21334,-0.17067 -0.32001,-0.39467 -0.32,-0.672 l 0,-1.056 c -0.87468,0.768 -1.40801,1.216 -1.6,1.344 -0.61867,0.40533 -1.29067,0.608 -2.016,0.608 l -3.264,0 c -0.64,0 -1.52534,-0.48 -2.656,-1.44 -1.10933,-0.98133 -1.664,-1.80267 -1.664,-2.464 l 0,-7.968 c 0,-0.59732 0.49067,-1.33332 1.472,-2.208 0.98133,-0.87466 1.792,-1.31199 2.432,-1.312 l 4.512,0 c 0.51199,10e-6 0.99199,0.14934 1.44,0.448 0.46932,0.29868 0.91732,0.58668 1.344,0.864 l 0,-6.304 c -1e-5,-0.25598 0.12799,-0.47998 0.384,-0.672 0.27732,-0.19198 0.58666,-0.28798 0.928,-0.288 0.34132,2e-5 0.62932,0.0533 0.864,0.16 0.25599,0.10668 0.38399,0.29868 0.384,0.576 l 0,19.712 m -2.688,-4.576 0,-4.416 c -0.29868,-0.81066 -0.69334,-1.45066 -1.184,-1.92 -0.49068,-0.49066 -0.98134,-0.73599 -1.472,-0.736 l -4.448,0 c -0.384,1e-5 -0.704,0.21334 -0.96,0.64 -0.256,0.40534 -0.384,0.78934 -0.384,1.152 l 0,6.176 c 0,0.512 0.52266,0.992 1.568,1.44 0.896,0.384 1.62133,0.576 2.176,0.576 0.89599,0 1.85599,-0.37333 2.88,-1.12 0.74666,-0.55467 1.35466,-1.152 1.824,-1.792"
           style="font-size:32px;font-weight:bold;text-align:center;line-height:100%;letter-spacing:5px;text-anchor:middle;fill:#ffffff;font-family:OCR-A;-inkscape-font-specification:OCR-A Bold"
           id="path3244" />
      </g>
      <rect
         ry="47.789204"
         y="198.39105"
         x="334.03186"
         height="218.06157"
         width="218.06157"
         id="rect3974"
         style="fill:url(#radialGradient3992);fill-opacity:1;stroke:#ca0000;stroke-width:2.20168018;stroke-miterlimit:4;stroke-opacity:1;stroke-dasharray:none;filter:url(#filter3980)"
         transform="matrix(0.90839724,0,0,0.90839724,40.585756,28.160685)" />
      <g
         id="g3879"
         transform="matrix(0.80416047,0,0,0.80416047,86.492217,63.52933)">
        <g
           id="layer1-8"
           inkscape:label="Layer 1"
           transform="matrix(0.12989879,-0.03223646,0.03223646,0.12989879,394.70987,154.32457)"
           style="fill:#ff0000;stroke:none">
          <path
             sodipodi:nodetypes="aaacasaaacszaacccccccccccccccccccccccccccaczzcczszcaazza"
             inkscape:connector-curvature="0"
             id="path3363"
             d="m 253.88621,981.44847 c -12.52413,-7.7207 -23.87945,-17.49392 -33.89704,-28.2694 -11.36442,-12.22421 -20.96207,-26.16273 -29.18545,-40.6871 -9.90067,-17.48685 -19.71429,-35.24765 -23.9255,-55.33433 -3.02325,-14.93429 -6.67374,-34.54937 -5.22408,-51.8644 2.04336,-24.40629 9.76822,-52.83215 19.41698,-70.86297 9.64877,-18.03082 20.6489,-29.5573 30.33612,-44.75489 9.26337,-14.53263 20.98248,-28.05436 26.54931,-44.36441 4.63517,-13.58042 7.0317,-28.52882 5.09192,-42.74676 -1.11813,-8.19554 -9.42839,-22.95341 -9.42839,-22.95341 0,0 12.17851,4.35844 17.98841,7.33539 5.8099,2.97695 9.71176,3.99578 16.7288,10.48405 7.01704,6.48827 17.06898,18.8568 22.39664,30.20125 9.81997,20.91015 14.89639,44.26971 16.475,67.31692 0.73517,10.73326 -1.94741,23.66875 -3.32633,32.10335 -1.4169,8.70621 -3.6045,19.27027 -6.10302,35.42278 12.83522,-18.30871 28.18435,-36.26377 35.46919,-54.77051 3.28207,-8.45133 5.50043,-20.03781 6.5301,-27.85534 2.29626,-15.63579 -0.6024,-29.76805 -4.39776,-44.92896 -5.81532,-17.63587 -10.41956,-33.86065 -13.76398,-52.09899 -2.67976,-19.07469 -5.75465,-36.66134 -5.1733,-56.54317 0.33786,-8.95211 3.3394,-23.77114 6.08194,-32.2995 6.71867,-21.91615 16.07543,-40.34603 31.00399,-58.11967 l 21.51523,-25.3974 c 0,0 -6.6159,24.23232 -7.31181,29.28754 -4.97345,21.95909 -3.74473,40.54517 0.0263,61.58955 4.72,22.96875 11.38506,49.12957 20.69235,68.31221 11.41309,21.69716 24.54372,39.06331 36.25166,58.38221 10.86543,18.64117 19.58535,37.67804 26.09064,56.79695 3.08142,9.166 5.35965,21.8678 7.34095,26.65352 3.50822,-3.07876 7.22201,-16.61162 9.67321,-25.01392 5.01355,-16.976 6.47527,-34.26 5.25992,-50.64505 -1.21474,-16.49017 -5.96669,-31.99432 -10.7589,-46.4933 -5.73202,-15.16199 -10.57799,-30.18703 -14.54568,-44.78809 -4.18956,-13.86165 -6.15231,-27.46695 -9.02577,-40.68711 -1.83933,-8.39283 -6.04603,-25.05692 -6.04603,-25.05692 10.00814,4.46585 18.70494,10.80971 27.28029,17.33104 13.94734,12.90427 25.62327,21.35941 39.04931,36.56239 9.70292,11.31296 19.94062,21.15257 29.05024,33.10969 12.33699,15.49294 23.66711,32.74739 33.17374,47.38509 11.9238,16.72681 21.75736,36.74004 28.9136,51.97802 5.49221,11.64907 9.44148,22.38739 12.88456,34.01164 3.77618,12.7488 6.11367,28.7978 8.46375,38.98061 2.19151,9.86486 2.54253,18.85879 2.99456,30.60354 0.45203,11.74475 -0.22721,28.2002 -2.26542,40.463 -2.03821,12.2628 -5.74761,23.20971 -9.19904,32.79406 -4.0761,11.13866 -6.58462,20.45377 -13.26507,31.88109 -6.68045,11.42733 -15.49907,29.09458 -24.81617,40.25816 -9.3171,11.16358 -15.62896,21.02625 -25.63197,31.03989 -10.00301,10.01364 -23.7175,20.77214 -34.41262,28.47862 -10.69512,7.70648 -18.31435,13.07982 -29.21393,18.21249 -10.89958,5.13267 -23.74507,8.63188 -35.90501,12.00798 -10.4275,2.8951 -20.95936,5.6558 -31.6911,7.0501 -14.68064,1.9073 -26.98288,2.7684 -44.37744,1.7537 -17.39455,-1.0147 -40.97805,-3.989 -59.40214,-9.3447 -18.4241,-5.3558 -34.83302,-12.28797 -50.43576,-21.90653 z"
             style="fill:#ff0000;stroke:none" />
        </g>
        <path
           sodipodi:nodetypes="csccccssccssssscccscccccssscccczacccccsssccccaccscsccscssscasscsssscscczzzsc"
           inkscape:connector-curvature="0"
           id="path4147-3"
           d="m 515.46561,219.35235 c -3.61264,3.06424 -5.90844,5.00301 -9.90893,8.88462 -4.5759,4.4398 -15.42054,14.45542 -19.80385,18.80561 -5.3221,5.25984 -14.56963,14.98183 -17.98791,16.93549 -3.07621,0.40979 -1.57008,0.0796 -4.20093,0.0892 -2.25947,-0.22089 -15.33008,-4.5106 -15.33008,-4.5106 0,0 1.96064,-1.61365 2.90177,-2.46517 0.46965,-0.42491 0.9405,-0.85123 1.36847,-1.31809 0.86263,-0.94102 1.66628,-1.939 2.40743,-2.97835 0.56856,-0.79728 1.35367,-1.53272 1.55842,-2.49033 0.22518,-1.053 0.0422,-2.19923 -0.44389,-3.19977 -0.4861,-1.00054 -1.5864,-1.98942 -2.38277,-2.81622 -0.79636,-0.8268 -1.34321,-1.68543 -2.39536,-2.14454 -1.1288,-0.49255 -2.21085,-0.58125 -3.69408,-0.0693 -1.48325,0.51198 -3.12714,2.39658 -4.43496,3.61218 -1.30782,1.21561 -2.08993,2.04454 -3.42754,3.63113 -1.3375,1.58666 -4.47906,5.96296 -4.47906,5.96296 l -67.84303,-20.90091 c 0,0 -3.06056,2.01228 -4.4648,3.15515 -1.40427,1.1429 -3.88386,3.62431 -3.88386,3.62431 l 0.822,0.47013 45.39601,24.53517 22.60932,12.51787 11.3561,12.47483 c 0,0 -20.77538,19.54595 -30.46139,29.99955 -3.67827,3.96975 -7.65434,8.94474 -10.47878,12.40131 -2.82443,3.45655 -4.12253,5.13306 -6.53808,8.27594 -2.41554,3.14288 -7.92545,10.60155 -7.92545,10.60155 l -47.70695,-8.78922 -2.43264,4.32163 38.04569,22.38169 c 0,0 -1.62474,1.54609 -1.39368,2.66137 0.23107,1.11529 1.23295,2.12004 2.3067,2.39486 0.51448,0.13169 1.52065,-0.47539 1.52065,-0.47539 l 1.19113,-0.81752 20.23648,40.52456 4.44126,-3.94804 -6.33545,-47.31865 c 0,0 5.18994,-3.01232 7.64736,-4.72776 7.04724,-4.91945 13.69911,-10.39329 20.28693,-15.91278 1.6396,-1.37371 -1.22512,1.23695 4.78339,-4.27754 6.00854,-5.5145 30.94938,-29.15053 30.94938,-29.15053 l 12.02146,12.82324 34.47745,69.34668 0.85509,1.8139 c 0,0 2.83793,-2.06629 4.10465,-3.274 1.4199,-1.35371 3.88508,-4.42103 3.88508,-4.42103 L 493.31252,314.433 c 0,0 1.67403,-0.65601 2.71179,-1.2929 1.03774,-0.63689 2.18199,-1.61408 3.40863,-2.6236 1.22665,-1.00955 2.84817,-2.28117 3.92807,-3.45375 1.07991,-1.17257 2.58481,-3.47892 2.58481,-3.47892 0,0 0.69277,-0.70864 0.86161,-1.15963 0.33427,-0.89279 0.53197,-1.69327 0.22142,-2.85136 -0.31054,-1.15808 -1.4726,-2.56561 -2.45255,-3.57337 -0.98002,-1.0077 -2.22591,-2.0122 -3.31416,-2.41375 -1.08826,-0.40155 -1.93215,-0.47409 -2.85137,-0.22143 -2.00809,0.55197 -3.55734,2.20782 -5.1066,3.59958 -1.41838,1.27416 -3.77593,4.29646 -3.77593,4.29646 0,0 -3.03979,-9.906 -4.2092,-14.94892 -0.15467,-0.66706 -0.40458,-1.30246 -0.37034,-2.02067 0.0343,-0.7182 -0.35555,-1.31307 0.61699,-2.17394 2.01919,-1.78734 9.3967,-8.63955 15.5967,-14.58559 6.20005,-5.94599 15.55308,-14.99239 21.5234,-21.16807 3.08935,-3.19557 7.01743,-7.6701 8.92037,-9.91099 1.90295,-2.24089 1.29686,-1.49787 2.23635,-2.81358 0.93954,-1.3157 2.05653,-2.85772 3.28794,-5.14544 1.23144,-2.28772 2.99066,-6.26638 3.85782,-8.66216 0.86716,-2.39579 1.33068,-3.91284 1.57955,-5.58602 0.2489,-1.67319 0.9377,-3.28657 0.0858,-4.34368 -0.30709,-0.36361 -0.70094,-0.65724 -1.128,-0.81037 -1.96743,-0.70547 -3.90381,-0.085 -5.71528,0.22878 -1.81145,0.31375 -3.07967,0.80406 -5.06885,1.58466 -1.98919,0.7806 -3.58382,1.41195 -5.58832,2.41477 -2.00449,1.00283 -5.04292,2.68011 -6.44992,3.57442 -1.407,0.89429 -2.26598,1.62436 -3.2376,2.45881 z"
           style="fill:#000000;fill-opacity:1;stroke:#000000;stroke-width:0.69258618;stroke-linecap:butt;stroke-linejoin:miter;stroke-opacity:1" />
      </g>
      <path
         inkscape:connector-curvature="0"
         id="path3869"
         d="m 114.50011,187.11932 0,-1.69998 676.40625,0 0,1.69998 -676.40625,0 z"
         style="font-size:medium;font-style:normal;font-variant:normal;font-weight:normal;font-stretch:normal;text-indent:0;text-align:start;text-decoration:none;line-height:normal;letter-spacing:normal;word-spacing:normal;text-transform:none;direction:ltr;block-progression:tb;writing-mode:lr-tb;text-anchor:start;baseline-shift:baseline;color:#000000;fill:url(#linearGradient3871);fill-opacity:1;stroke:none;stroke-width:1px;marker:none;visibility:visible;display:inline;overflow:visible;enable-background:accumulate;font-family:Sans;-inkscape-font-specification:Sans" />
      <rect
         style="fill:none;stroke:#3e0000;stroke-width:2;stroke-miterlimit:4;stroke-opacity:1;stroke-dasharray:none"
         id="rect4379"
         width="201.32822"
         height="201.32822"
         x="342.39853"
         y="206.75772"
         ry="44.122013" />
      <rect
         style="fill:none;stroke:#750000;stroke-width:2.13852453;stroke-miterlimit:4;stroke-opacity:1;stroke-dasharray:none;filter:url(#filter3980)"
         id="rect3984"
         width="218.06157"
         height="218.06157"
         x="334.03186"
         y="198.39105"
         ry="47.789204"
         transform="matrix(0.9352242,0,0,0.9352242,28.699708,19.913475)" />
      <path
         style="font-size:medium;font-style:normal;font-variant:normal;font-weight:normal;font-stretch:normal;text-indent:0;text-align:start;text-decoration:none;line-height:normal;letter-spacing:normal;word-spacing:normal;text-transform:none;direction:ltr;block-progression:tb;writing-mode:lr-tb;text-anchor:start;baseline-shift:baseline;color:#000000;fill:url(#linearGradient3867);fill-opacity:1;stroke:none;stroke-width:1px;marker:none;visibility:visible;display:inline;overflow:visible;enable-background:accumulate;font-family:Sans;-inkscape-font-specification:Sans"
         d="m 114.50011,187.11932 0,68.45103 676.40625,0 0,-68.45103 -676.40625,0 z"
         id="path3857"
         inkscape:connector-curvature="0" />
      <rect
         style="fill:url(#linearGradient4076);fill-opacity:1;stroke:none"
         id="rect4055"
         width="489.36508"
         height="1.3419138"
         x="199.27292"
         y="139.09567" />
      <g
         style="font-size:14.15367889px;font-style:normal;font-variant:normal;font-weight:normal;font-stretch:normal;line-height:100%;letter-spacing:0px;word-spacing:0px;fill:#ffffff;fill-opacity:1;stroke:none;font-family:Sawasdee;-inkscape-font-specification:Sawasdee"
         id="text3064">
        <path
           d="m 687.72967,418.42249 -2.22534,0 -0.8846,-2.30136 -4.04983,0 -0.83623,2.30136 -2.17005,0 3.94617,-10.1315 2.16314,0 4.05674,10.1315 m -3.76648,-4.00837 -1.39602,-3.75957 -1.36837,3.75957 2.76439,0"
           style="font-weight:bold;text-align:center;text-anchor:middle;fill:#ffffff;font-family:Arial;-inkscape-font-specification:Arial Bold"
           id="path3247" />
        <path
           d="m 688.80778,418.42249 0,-10.1315 1.94198,0 0,10.1315 -1.94198,0"
           style="font-weight:bold;text-align:center;text-anchor:middle;fill:#ffffff;font-family:Arial;-inkscape-font-specification:Arial Bold"
           id="path3249" />
        <path
           d="m 696.98346,416.08658 1.93508,0.32481 c -0.2488,0.70953 -0.64273,1.25089 -1.18178,1.62408 -0.53445,0.36859 -1.20482,0.55288 -2.01109,0.55288 -1.27623,0 -2.22073,-0.41696 -2.8335,-1.25089 -0.48377,-0.66806 -0.72566,-1.5112 -0.72566,-2.52942 0,-1.21632 0.31791,-2.16773 0.95372,-2.85423 0.63581,-0.69109 1.43978,-1.03664 2.41193,-1.03664 1.09193,0 1.9535,0.36168 2.58471,1.08502 0.63119,0.71875 0.93297,1.8222 0.90533,3.31036 l -4.86532,0 c 0.0138,0.57591 0.17046,1.02513 0.46994,1.34764 0.29947,0.3179 0.67267,0.47686 1.11958,0.47685 0.30408,10e-6 0.55978,-0.0829 0.76712,-0.24879 0.20732,-0.16586 0.36397,-0.43309 0.46994,-0.80167 m 0.11058,-1.96272 c -0.0138,-0.56209 -0.15896,-0.98827 -0.43539,-1.27853 -0.27644,-0.29486 -0.61278,-0.4423 -1.009,-0.4423 -0.42388,0 -0.77404,0.15435 -1.05047,0.46303 -0.27644,0.3087 -0.41236,0.72796 -0.40775,1.2578 l 2.90261,0"
           style="font-weight:bold;text-align:center;text-anchor:middle;fill:#ffffff;font-family:Arial;-inkscape-font-specification:Arial Bold"
           id="path3251" />
        <path
           d="m 702.47078,418.42249 -1.94198,0 0,-7.33946 1.80376,0 0,1.04356 c 0.30869,-0.49298 0.58513,-0.8178 0.82932,-0.97445 0.24879,-0.15664 0.52984,-0.23497 0.84314,-0.23497 0.44229,0 0.86847,0.1221 1.27853,0.36628 l -0.60126,1.69319 c -0.32712,-0.21193 -0.6312,-0.3179 -0.91225,-0.31791 -0.27183,1e-5 -0.5022,0.076 -0.69109,0.22806 -0.18891,0.14744 -0.33864,0.41697 -0.44922,0.80859 -0.10597,0.39162 -0.15895,1.21173 -0.15895,2.46031 l 0,2.2668"
           style="font-weight:bold;text-align:center;text-anchor:middle;fill:#ffffff;font-family:Arial;-inkscape-font-specification:Arial Bold"
           id="path3253" />
        <path
           d="m 709.47851,411.08303 0,1.54806 -1.32691,0 0,2.9579 c 0,0.59895 0.0115,0.9491 0.0346,1.05046 0.0276,0.0968 0.0852,0.17739 0.17277,0.24189 0.0922,0.0645 0.20272,0.0967 0.33173,0.0967 0.17968,0 0.43999,-0.0622 0.78094,-0.18659 l 0.16586,1.50659 c -0.45152,0.19351 -0.96293,0.29026 -1.53423,0.29026 -0.35016,0 -0.66576,-0.0576 -0.94681,-0.17278 -0.28105,-0.11979 -0.48838,-0.27183 -0.62199,-0.45612 -0.129,-0.1889 -0.21884,-0.4423 -0.26952,-0.76021 -0.0415,-0.22575 -0.0622,-0.68188 -0.0622,-1.36837 l 0,-3.19978 -0.89152,0 0,-1.54806 0.89152,0 0,-1.45822 1.94889,-1.1334 0,2.59162 1.32691,0"
           style="font-weight:bold;text-align:center;text-anchor:middle;fill:#ffffff;font-family:Arial;-inkscape-font-specification:Arial Bold"
           id="path3255" />
        <path
           d="m 714.28164,415.73412 1.87978,-0.22807 c 0.0599,0.47917 0.22115,0.84545 0.48377,1.09885 0.26262,0.2534 0.58052,0.3801 0.95372,0.3801 0.40083,0 0.73716,-0.15204 1.009,-0.45612 0.27643,-0.30408 0.41465,-0.71413 0.41466,-1.23016 -10e-6,-0.48837 -0.13132,-0.87538 -0.39393,-1.16104 -0.26262,-0.28565 -0.58283,-0.42848 -0.96062,-0.42848 -0.2488,0 -0.54597,0.0484 -0.89152,0.14513 l 0.21424,-1.58261 c 0.52523,0.0138 0.92607,-0.0991 1.20251,-0.33864 0.27644,-0.24418 0.41465,-0.56669 0.41466,-0.96754 -10e-6,-0.34093 -0.10137,-0.61276 -0.30408,-0.81549 -0.20273,-0.20272 -0.47226,-0.30408 -0.80859,-0.30409 -0.33173,1e-5 -0.61508,0.1152 -0.85005,0.34555 -0.23497,0.23038 -0.3778,0.56671 -0.42848,1.00901 l -1.78994,-0.30409 c 0.1244,-0.61276 0.31099,-1.10114 0.55979,-1.46512 0.2534,-0.36858 0.60355,-0.65654 1.05047,-0.86388 0.45151,-0.21192 0.95601,-0.31789 1.5135,-0.3179 0.95371,1e-5 1.71852,0.30409 2.29444,0.91225 0.47455,0.4976 0.71183,1.05969 0.71183,1.68628 0,0.88921 -0.48607,1.59874 -1.45821,2.12858 0.58051,0.1244 1.04355,0.40314 1.38911,0.83622 0.35014,0.4331 0.52522,0.95603 0.52523,1.5688 -10e-6,0.88921 -0.32482,1.64711 -0.97445,2.27371 -0.64964,0.62659 -1.45822,0.93989 -2.42575,0.93989 -0.91686,0 -1.67707,-0.26262 -2.28062,-0.78785 -0.60356,-0.52984 -0.95372,-1.22094 -1.05047,-2.07329"
           style="font-weight:bold;text-align:center;text-anchor:middle;fill:#ffffff;font-family:Arial;-inkscape-font-specification:Arial Bold"
           id="path3257" />
        <path
           d="m 726.63846,418.42249 0,-10.04856 2.04565,0 0,8.34154 5.08648,0 0,1.70702 -7.13213,0"
           style="font-weight:bold;text-align:center;text-anchor:middle;fill:#ffffff;font-family:Arial;-inkscape-font-specification:Arial Bold"
           id="path3259" />
        <path
           d="m 735.29101,418.42249 0,-10.04856 2.04565,0 0,8.34154 5.08647,0 0,1.70702 -7.13212,0"
           style="font-weight:bold;text-align:center;text-anchor:middle;fill:#ffffff;font-family:Arial;-inkscape-font-specification:Arial Bold"
           id="path3261" />
        <path
           d="m 750.37075,414.69747 1.98345,0.6289 c -0.30409,1.10576 -0.81089,1.92816 -1.52041,2.46722 -0.70493,0.53445 -1.60105,0.80167 -2.68837,0.80167 -1.34534,0 -2.4511,-0.45843 -3.31727,-1.37528 -0.86618,-0.92147 -1.29926,-2.17926 -1.29926,-3.7734 0,-1.68627 0.43539,-2.99475 1.30617,-3.92543 0.87078,-0.93528 2.0157,-1.40292 3.43476,-1.40293 1.23936,10e-6 2.24606,0.36629 3.02009,1.09885 0.46072,0.43309 0.80627,1.05508 1.03665,1.86596 l -2.02492,0.48377 c -0.1198,-0.52523 -0.37089,-0.93989 -0.75329,-1.24398 -0.37781,-0.30407 -0.83854,-0.45611 -1.3822,-0.45612 -0.751,1e-5 -1.36147,0.26953 -1.83141,0.80858 -0.46534,0.53906 -0.69801,1.41215 -0.69801,2.61926 0,1.28084 0.23037,2.19309 0.6911,2.73675 0.46073,0.54366 1.05968,0.81549 1.79686,0.81549 0.54365,0 1.01129,-0.17277 1.40292,-0.51832 0.39162,-0.34555 0.67266,-0.88921 0.84314,-1.63099"
           style="font-weight:bold;text-align:center;text-anchor:middle;fill:#ffffff;font-family:Arial;-inkscape-font-specification:Arial Bold"
           id="path3263" />
      </g>
      <g
         style="font-style:normal;font-weight:normal;font-size:6.6864419px;line-height:125%;font-family:sans-serif;letter-spacing:0px;word-spacing:0px;fill:#c40000;fill-opacity:1;stroke:none;stroke-width:1px;stroke-linecap:butt;stroke-linejoin:miter;stroke-opacity:1"
         id="text4220">
        <path
           d="m 534.85022,401.78507 4.12353,0 0,0.55503 -1.73038,0 0,4.31942 -0.66277,0 0,-4.31942 -1.73038,0 0,-0.55503 z"
           style=""
           id="path4225" />
        <path
           d="m 539.61366,401.78507 0.98272,0 1.24392,3.31711 1.25044,-3.31711 0.98272,0 0,4.87445 -0.64317,0 0,-4.28024 -1.25698,3.34322 -0.66276,0 -1.25698,-3.34322 0,4.28024 -0.63991,0 0,-4.87445 z"
           style=""
           id="path4227" />
      </g>
    </g>
  </g>
</svg>
