<?xml version="1.0" encoding="UTF-8" standalone="no"?>
<!-- Created with Inkscape (http://www.inkscape.org/) -->

<svg
   xmlns:dc="http://purl.org/dc/elements/1.1/"
   xmlns:cc="http://creativecommons.org/ns#"
   xmlns:rdf="http://www.w3.org/1999/02/22-rdf-syntax-ns#"
   xmlns:svg="http://www.w3.org/2000/svg"
   xmlns="http://www.w3.org/2000/svg"
   xmlns:sodipodi="http://sodipodi.sourceforge.net/DTD/sodipodi-0.dtd"
   xmlns:inkscape="http://www.inkscape.org/namespaces/inkscape"
   width="803.37018"
   height="666.13"
   viewBox="0 0 803.37018 666.13001"
   id="svg2"
   version="1.1"
   inkscape:version="0.91 r13725"
   sodipodi:docname="logo_with_text_blue.svg"
   inkscape:export-filename="C:\Share\Work\2015\Company\Website graphics\youtube_title_graphics.png"
   inkscape:export-xdpi="90"
   inkscape:export-ydpi="90">
  <defs
     id="defs4" />
  <sodipodi:namedview
     id="base"
     pagecolor="#ffffff"
     bordercolor="#666666"
     borderopacity="1.0"
     inkscape:pageopacity="0"
     inkscape:pageshadow="2"
     inkscape:zoom="0.7"
     inkscape:cx="222.00335"
     inkscape:cy="454.00059"
     inkscape:document-units="px"
     inkscape:current-layer="layer1"
     showgrid="false"
     units="px"
     inkscape:window-width="1920"
     inkscape:window-height="1027"
     inkscape:window-x="-8"
     inkscape:window-y="-8"
     inkscape:window-maximized="1"
     inkscape:showpageshadow="true"
     borderlayer="false"
     fit-margin-top="30"
     fit-margin-left="30"
     fit-margin-right="30"
     fit-margin-bottom="30" />
  <metadata
     id="metadata7">
    <rdf:RDF>
      <cc:Work
         rdf:about="">
        <dc:format>image/svg+xml</dc:format>
        <dc:type
           rdf:resource="http://purl.org/dc/dcmitype/StillImage" />
        <dc:title></dc:title>
      </cc:Work>
    </rdf:RDF>
  </metadata>
  <g
     inkscape:label="Layer 1"
     inkscape:groupmode="layer"
     id="layer1"
     transform="translate(-964.23982,43.080286)">
    <path
       style="display:inline;fill:#418eab;fill-opacity:1;stroke:none;enable-background:new"
       d="m 1612.5548,-13.080286 -511.7746,0 c -0.3988,0.7372 40.2238,204.110236 40.2238,204.110236 l 16.1751,-151.411697 393.2083,0 0,366.500617 62.1674,69.99591 z"
       id="path4298-2"
       inkscape:connector-curvature="0"
       sodipodi:nodetypes="cccccccc" />
    <path
       style="display:inline;fill:#418eab;fill-opacity:1;stroke:none;enable-background:new"
       d="m 1237.3399,119.5898 0,67.24817 95.2713,0 0,168.59625 67.9604,0 0,-168.59625 93.9383,0 0,-67.24817 z"
       id="path4300-6"
       inkscape:connector-curvature="0"
       sodipodi:nodetypes="ccccccccc" />
    <g
       style="font-style:normal;font-weight:normal;font-size:142.09603882px;line-height:125%;font-family:sans-serif;letter-spacing:0px;word-spacing:0px;fill:#418eab;fill-opacity:1;stroke:none;stroke-width:1px;stroke-linecap:butt;stroke-linejoin:miter;stroke-opacity:1"
       id="text4302"
       transform="matrix(0.63371786,0,0,0.63371786,522.19504,-1.5080159)">
      <path
         d="m 894.24304,847.46417 -31.11903,0 0,82.5578 -13.92542,0 0,-82.5578 -31.26112,0 0,-9.66253 76.30557,0 0,9.66253 z"
         style="font-style:normal;font-variant:normal;font-weight:normal;font-stretch:normal;font-family:Play;-inkscape-font-specification:Play;letter-spacing:22.30528831;fill:#418eab;fill-opacity:1"
         id="path4155"
         inkscape:connector-curvature="0" />
      <path
         d="m 1008.6177,930.02197 -13.78333,0 0,-42.77091 -49.02314,0 0,42.77091 -13.78331,0 0,-92.22033 13.78331,0 0,39.78689 49.02314,0 0,-39.78689 13.78333,0 0,92.22033 z"
         style="font-style:normal;font-variant:normal;font-weight:normal;font-stretch:normal;font-family:Play;-inkscape-font-specification:Play;letter-spacing:22.30528831;fill:#418eab;fill-opacity:1"
         id="path4157"
         inkscape:connector-curvature="0" />
      <path
         d="m 1129.9684,862.66845 0,43.76558 q 0,7.53109 -3.6945,12.78864 -3.5524,5.25756 -9.8047,7.81529 -6.2522,2.41563 -12.3623,3.4103 -6.1102,0.99467 -13.215,0.99467 -38.6501,0 -38.6501,-25.0089 l 0,-43.62348 q 0,-26.42987 38.6501,-26.42987 39.0765,0 39.0765,26.28777 z m -13.3571,43.62348 0,-43.90767 q 0,-17.05153 -25.5773,-17.05153 -5.3996,0 -9.5204,0.71048 -4.1208,0.56839 -7.9574,2.41564 -3.8366,1.70515 -5.968,5.25755 -2.1315,3.4103 -2.1315,8.66786 l 0,43.90767 q 0,15.91476 25.7194,15.91476 25.4352,0 25.4352,-15.91476 z"
         style="font-style:normal;font-variant:normal;font-weight:normal;font-stretch:normal;font-family:Play;-inkscape-font-specification:Play;letter-spacing:22.30528831;fill:#418eab;fill-opacity:1"
         id="path4159"
         inkscape:connector-curvature="0" />
      <path
         d="m 1244.1654,930.02197 -16.9095,0 -26.4298,-39.3606 -13.3571,0 0,39.3606 -13.7833,0 0,-92.22033 32.3979,0 q 17.3357,0 24.8668,3.5524 7.5311,3.41031 7.5311,14.4938 l 0,15.91476 q 0,8.52576 -6.9627,12.93074 -6.9627,4.26288 -16.9094,4.26288 l 29.556,41.06575 z m -19.4672,-59.96453 0,-12.78864 q 0,-10.37301 -17.9041,-10.37301 l -19.3251,0 0,34.67143 18.0462,0 q 9.8047,0 14.4938,-2.41563 4.6892,-2.41563 4.6892,-9.09415 z"
         style="font-style:normal;font-variant:normal;font-weight:normal;font-stretch:normal;font-family:Play;-inkscape-font-specification:Play;letter-spacing:22.30528831;fill:#418eab;fill-opacity:1"
         id="path4161"
         inkscape:connector-curvature="0" />
      <path
         d="m 1436.3848,930.02197 -12.0781,0 0,-78.01072 -0.7105,0 -29.6981,78.01072 -12.3623,0 -30.5507,-78.01072 -0.7105,0 0,78.01072 -12.3623,0 0,-92.22033 20.6039,0 29.556,76.73186 0.4263,0.1421 27.9929,-76.87396 19.8934,0 0,92.22033 z"
         style="font-style:normal;font-variant:normal;font-weight:normal;font-stretch:normal;font-family:Play;-inkscape-font-specification:Play;letter-spacing:22.30528831;fill:#418eab;fill-opacity:1"
         id="path4163"
         inkscape:connector-curvature="0" />
      <path
         d="m 1545.9838,930.02197 -63.3749,0 0,-92.22033 61.9539,0 0,9.66253 -48.1706,0 0,30.12436 43.4814,0 0,9.66253 -43.4814,0 0,33.10838 49.5916,0 0,9.66253 z"
         style="font-style:normal;font-variant:normal;font-weight:normal;font-stretch:normal;font-family:Play;-inkscape-font-specification:Play;letter-spacing:22.30528831;fill:#418eab;fill-opacity:1"
         id="path4165"
         inkscape:connector-curvature="0" />
      <path
         d="m 1662.794,864.23151 0,40.78156 q 0,25.0089 -38.6502,25.0089 l -36.8028,0 0,-92.22033 36.6608,0 q 38.7922,0 38.7922,26.42987 z m -13.215,40.49737 0,-40.63947 q 0,-5.25755 -2.1314,-8.66786 -2.1314,-3.5524 -6.1101,-5.11546 -3.8366,-1.70515 -7.9574,-2.27353 -4.1208,-0.71048 -9.5204,-0.71048 l -22.7354,0 0,73.32155 22.0249,0 q 26.4298,0 26.4298,-15.91475 z"
         style="font-style:normal;font-variant:normal;font-weight:normal;font-stretch:normal;font-family:Play;-inkscape-font-specification:Play;letter-spacing:22.30528831;fill:#418eab;fill-opacity:1"
         id="path4167"
         inkscape:connector-curvature="0" />
      <path
         d="m 1720.0105,930.02197 -13.7833,0 0,-92.22033 13.7833,0 0,92.22033 z"
         style="font-style:normal;font-variant:normal;font-weight:normal;font-stretch:normal;font-family:Play;-inkscape-font-specification:Play;letter-spacing:22.30528831;fill:#418eab;fill-opacity:1"
         id="path4169"
         inkscape:connector-curvature="0" />
      <path
         d="m 1844.8559,930.02197 -14.3517,0 -10.5151,-27.99292 -39.5027,0 -10.373,27.99292 -13.6413,0 36.6608,-92.22033 15.9148,0 35.8082,92.22033 z m -28.2771,-37.51335 -15.6306,-41.63414 -1.2789,0 -15.6305,41.63414 32.54,0 z"
         style="font-style:normal;font-variant:normal;font-weight:normal;font-stretch:normal;font-family:Play;-inkscape-font-specification:Play;letter-spacing:22.30528831;fill:#418eab;fill-opacity:1"
         id="path4171"
         inkscape:connector-curvature="0" />
    </g>
  </g>
</svg>
