<?xml version="1.0" encoding="UTF-8" standalone="no"?>
<!-- Generator: Adobe Illustrator 15.1.0, SVG Export Plug-In . SVG Version: 6.00 Build 0)  -->

<svg
   xmlns:dc="http://purl.org/dc/elements/1.1/"
   xmlns:cc="http://creativecommons.org/ns#"
   xmlns:rdf="http://www.w3.org/1999/02/22-rdf-syntax-ns#"
   xmlns:svg="http://www.w3.org/2000/svg"
   xmlns="http://www.w3.org/2000/svg"
   xmlns:xlink="http://www.w3.org/1999/xlink"
   xmlns:sodipodi="http://sodipodi.sourceforge.net/DTD/sodipodi-0.dtd"
   xmlns:inkscape="http://www.inkscape.org/namespaces/inkscape"
   version="1.1"
   x="0px"
   y="0px"
   width="18"
   height="82"
   viewBox="0 0 18 82"
   enable-background="new 0 0 1000 1000"
   xml:space="preserve"
   id="svg2"
   inkscape:version="0.48.5 r10040"
   sodipodi:docname="IL_96_fuselage_2.svg"><metadata
     id="metadata144"><rdf:RDF><cc:Work
         rdf:about=""><dc:format>image/svg+xml</dc:format><dc:type
           rdf:resource="http://purl.org/dc/dcmitype/StillImage" /><dc:title></dc:title></cc:Work></rdf:RDF></metadata><defs
     id="defs142"><linearGradient
       id="linearGradient3889"><stop
         style="stop-color:#765337;stop-opacity:1"
         offset="0"
         id="stop3891" /><stop
         id="stop3899"
         offset="0.36922726"
         style="stop-color:#c19069;stop-opacity:1;" /><stop
         id="stop3897"
         offset="0.64477599"
         style="stop-color:#c19069;stop-opacity:1;" /><stop
         style="stop-color:#765337;stop-opacity:1"
         offset="1"
         id="stop3893" /></linearGradient><linearGradient
       inkscape:collect="always"
       xlink:href="#linearGradient3889"
       id="linearGradient4225"
       gradientUnits="userSpaceOnUse"
       x1="455.32599"
       y1="439.8335"
       x2="543.28198"
       y2="439.8335"
       gradientTransform="matrix(0.18637916,0,0,0.18637916,-6.0599533,-0.58422049)" /><linearGradient
       inkscape:collect="always"
       xlink:href="#linearGradient3889"
       id="linearGradient4287"
       gradientUnits="userSpaceOnUse"
       gradientTransform="matrix(0.18637916,0,0,0.18637916,-6.0599533,-0.58422049)"
       x1="455.32599"
       y1="439.8335"
       x2="543.28198"
       y2="439.8335" /><linearGradient
       inkscape:collect="always"
       xlink:href="#linearGradient3889"
       id="linearGradient4291"
       gradientUnits="userSpaceOnUse"
       gradientTransform="matrix(0.18637916,0,0,0.18637916,-84.059953,-102.59984)"
       x1="455.32599"
       y1="439.8335"
       x2="543.28198"
       y2="439.8335" /></defs><sodipodi:namedview
     pagecolor="#ffffff"
     bordercolor="#666666"
     borderopacity="1"
     objecttolerance="10"
     gridtolerance="10"
     guidetolerance="10"
     inkscape:pageopacity="0"
     inkscape:pageshadow="2"
     inkscape:window-width="1920"
     inkscape:window-height="1060"
     id="namedview140"
     showgrid="false"
     inkscape:zoom="5.4963219"
     inkscape:cx="27.268619"
     inkscape:cy="56.901352"
     inkscape:window-x="-2"
     inkscape:window-y="-3"
     inkscape:window-maximized="1"
     inkscape:current-layer="svg2"
     fit-margin-top="1"
     fit-margin-left="1"
     fit-margin-right="1"
     fit-margin-bottom="1" /><path
     style="fill:url(#linearGradient4291);fill-opacity:1;stroke:none"
     d="m 0.90625,1.0156259 0,10.2500001 c 0,8.97732 3.3125,25.40625 3.3125,25.40625 0,0 2.40625,1.86918 2.40625,16.53125 0,1.80154 0.9375,6.0625 0.9375,6.0625 0,0 0.686578,0.40625 1.4375,0.40625 0.751108,0 1.4375,-0.40625 1.4375,-0.40625 0,0 0.9375,-4.26096 0.9375,-6.0625 0,-14.66207 2.40625,-16.53125 2.40625,-16.53125 0,0 3.3125,-16.42893 3.3125,-25.40625 l 0,-10.2500001 -16.1875,0 z"
     id="path113"
     inkscape:connector-curvature="0" /><path
     style="font-size:medium;font-style:normal;font-variant:normal;font-weight:normal;font-stretch:normal;text-indent:0;text-align:start;text-decoration:none;line-height:normal;letter-spacing:normal;word-spacing:normal;text-transform:none;direction:ltr;block-progression:tb;writing-mode:lr-tb;text-anchor:start;baseline-shift:baseline;color:#000000;fill:#000000;fill-opacity:1;fill-rule:nonzero;stroke:none;stroke-width:0.18637916;marker:none;visibility:visible;display:inline;overflow:visible;enable-background:accumulate;font-family:Sans;-inkscape-font-specification:Sans"
     d="m 0.8125,1.0156259 0,10.2500001 c 0,9.00026 3.3125,25.40625 3.3125,25.40625 l 0,0.0312 0.03125,0.0312 c 0,0 0.03144,0.0181 0.09375,0.0937 0.06231,0.0757 0.138846,0.20722 0.25,0.40625 0.222307,0.39806 0.542424,1.07139 0.84375,2.21875 0.602651,2.29471 1.1875,6.4241 1.1875,13.75 0,0.91684 0.235438,2.42774 0.46875,3.71875 0.233312,1.29101 0.46875,2.375 0.46875,2.375 l 0,0.0312 0.0625,0.0312 c 0,0 0.684429,0.40625 1.46875,0.40625 0.784498,0 1.46875,-0.40625 1.46875,-0.40625 l 0.0625,-0.0312 0,-0.0312 c 0,0 0.235438,-1.08399 0.46875,-2.375 0.233312,-1.29101 0.46875,-2.80191 0.46875,-3.71875 0,-7.3259 0.584849,-11.45529 1.1875,-13.75 0.301326,-1.14736 0.621443,-1.82069 0.84375,-2.21875 0.111154,-0.19903 0.18769,-0.33059 0.25,-0.40625 0.06231,-0.0757 0.09375,-0.0937 0.09375,-0.0937 l 0.03125,-0.0312 0,-0.0312 c 0,0 3.3125,-16.40599 3.3125,-25.40625 l 0,-10.2500001 -0.1875,0 0,10.2500001 c 0,8.93982 -3.301761,25.29053 -3.3125,25.34375 -0.004,0.004 0.006,0.0256 0,0.0312 -0.02098,0.02 -0.02319,0.0148 -0.0625,0.0625 -0.07019,0.0852 -0.165254,0.2298 -0.28125,0.4375 -0.231992,0.4154 -0.539343,1.12216 -0.84375,2.28125 -0.608813,2.31817 -1.21875,6.44508 -1.21875,13.78125 0,0.8847 -0.236114,2.40023 -0.46875,3.6875 -0.226744,1.25467 -0.457409,2.26056 -0.46875,2.3125 -0.02744,0.0158 -0.641215,0.375 -1.34375,0.375 -0.702345,0 -1.316298,-0.35916 -1.34375,-0.375 -0.01134,-0.0519 -0.242006,-1.05783 -0.46875,-2.3125 -0.232636,-1.28727 -0.46875,-2.8028 -0.46875,-3.6875 0,-7.33617 -0.609937,-11.46308 -1.21875,-13.78125 -0.304407,-1.15909 -0.611758,-1.86585 -0.84375,-2.28125 -0.115996,-0.2077 -0.211056,-0.35227 -0.28125,-0.4375 -0.03931,-0.0477 -0.04152,-0.0425 -0.0625,-0.0625 0,0 1.7e-5,-0.0312 0,-0.0312 C 4.301761,36.556156 1,20.205446 1,11.265626 l 0,-10.2500001 -0.1875,0 z"
     id="path4227"
     inkscape:connector-curvature="0" /><path
     inkscape:connector-curvature="0"
     style="fill:#c19069;fill-opacity:1;stroke:#000000;stroke-width:0.18637916;stroke-miterlimit:10"
     id="path115"
     d="m 10.434281,59.270646 c -1.434188,0.85417 -2.868748,0 -2.868748,0 l -0.371081,-1.83994 h 3.597118 l -0.357289,1.83994 z"
     stroke-miterlimit="10" /><path
     inkscape:connector-curvature="0"
     style="fill:none;stroke:#000000;stroke-width:0.18637916;stroke-miterlimit:10"
     id="path131"
     d="m 13.214499,32.933776 0.322063,-2.4835 c 0.921831,0.1163 1.50408,-0.64189 1.50408,-0.64189 l -0.42774,2.46281 c -0.175383,0.41861 -1.398403,0.66258 -1.398403,0.66258 z"
     stroke-miterlimit="10" /><path
     inkscape:connector-curvature="0"
     style="fill:none;stroke:#000000;stroke-width:0.18637916;stroke-miterlimit:10"
     id="path133"
     d="m 4.829114,33.005536 -0.322063,-2.48351 c -0.921832,0.1163 -1.50408,-0.64189 -1.50408,-0.64189 l 0.42774,2.46282 c 0.175383,0.41861 1.398403,0.66258 1.398403,0.66258 z"
     stroke-miterlimit="10" /><g
     id="Fin"
     transform="matrix(0.18637916,0,0,0.18637916,-84.059953,-102.59984)"><path
       stroke-miterlimit="10"
       d="m 499.305,699.837 c 0,0 5.029,43.98 5.029,110 0,66.02 -2.515,167.667 -2.515,167.667 0,0 -1.51,7 -2.515,7 -1.004,0 -2.514,-7 -2.514,-7 0,0 -2.516,-101.647 -2.516,-167.667 0,-66.02 5.031,-110 5.031,-110"
       id="path136"
       style="fill:#c19069;fill-opacity:1;stroke:#000000;stroke-miterlimit:10"
       inkscape:connector-curvature="0" /><line
       stroke-miterlimit="10"
       x1="499.30499"
       y1="983.66699"
       x2="499.30499"
       y2="701.73602"
       id="line138"
       style="fill:#c19069;fill-opacity:1;stroke:#000000;stroke-miterlimit:10" /></g></svg>