<?xml version="1.0" encoding="UTF-8" standalone="no"?>
<!-- Generator: Adobe Illustrator 15.1.0, SVG Export Plug-In . SVG Version: 6.00 Build 0)  -->

<svg
   xmlns:dc="http://purl.org/dc/elements/1.1/"
   xmlns:cc="http://creativecommons.org/ns#"
   xmlns:rdf="http://www.w3.org/1999/02/22-rdf-syntax-ns#"
   xmlns:svg="http://www.w3.org/2000/svg"
   xmlns="http://www.w3.org/2000/svg"
   xmlns:xlink="http://www.w3.org/1999/xlink"
   xmlns:sodipodi="http://sodipodi.sourceforge.net/DTD/sodipodi-0.dtd"
   xmlns:inkscape="http://www.inkscape.org/namespaces/inkscape"
   version="1.1"
   x="0px"
   y="0px"
   width="34"
   height="37"
   viewBox="0 0 34 37"
   enable-background="new 0 0 1000 1000"
   xml:space="preserve"
   id="svg2"
   inkscape:version="0.48.5 r10040"
   sodipodi:docname="IL-96xxA3_wing_L_1.svg"><metadata
     id="metadata144"><rdf:RDF><cc:Work
         rdf:about=""><dc:format>image/svg+xml</dc:format><dc:type
           rdf:resource="http://purl.org/dc/dcmitype/StillImage" /><dc:title /></cc:Work></rdf:RDF></metadata><defs
     id="defs142"><linearGradient
       id="linearGradient3762"><stop
         style="stop-color:#c19069;stop-opacity:1;"
         offset="0"
         id="stop3764" /><stop
         id="stop3770"
         offset="0.75"
         style="stop-color:#c19069;stop-opacity:1;" /><stop
         style="stop-color:#765337;stop-opacity:1;"
         offset="1"
         id="stop3766" /></linearGradient><linearGradient
       id="linearGradient3889"><stop
         style="stop-color:#765337;stop-opacity:1"
         offset="0"
         id="stop3891" /><stop
         id="stop3899"
         offset="0.36922726"
         style="stop-color:#c19069;stop-opacity:1;" /><stop
         id="stop3897"
         offset="0.64477599"
         style="stop-color:#c19069;stop-opacity:1;" /><stop
         style="stop-color:#765337;stop-opacity:1"
         offset="1"
         id="stop3893" /></linearGradient><linearGradient
       inkscape:collect="always"
       xlink:href="#linearGradient3889"
       id="linearGradient3895"
       x1="455.32599"
       y1="439.8335"
       x2="543.28198"
       y2="439.8335"
       gradientUnits="userSpaceOnUse" /><linearGradient
       inkscape:collect="always"
       xlink:href="#linearGradient3762"
       id="linearGradient3768"
       x1="0.90625"
       y1="18.014349"
       x2="33.03125"
       y2="18.014349"
       gradientUnits="userSpaceOnUse" /></defs><sodipodi:namedview
     pagecolor="#ffffff"
     bordercolor="#666666"
     borderopacity="1"
     objecttolerance="10"
     gridtolerance="10"
     guidetolerance="10"
     inkscape:pageopacity="0"
     inkscape:pageshadow="2"
     inkscape:window-width="1920"
     inkscape:window-height="1060"
     id="namedview140"
     showgrid="false"
     inkscape:zoom="7.772973"
     inkscape:cx="-0.88969335"
     inkscape:cy="3.8090006"
     inkscape:window-x="-2"
     inkscape:window-y="-3"
     inkscape:window-maximized="1"
     inkscape:current-layer="svg2"
     fit-margin-top="1"
     fit-margin-left="1"
     fit-margin-right="1"
     fit-margin-bottom="1" /><path
     style="fill:url(#linearGradient3768);fill-opacity:1;stroke:none"
     d="m 33.03125,1.1237238 c 0,0 -16.083181,9.2737082 -32.125,18.5000002 l 1.4375,15.28125 7.4375,-2.8125 21.53125,-3.5 c 0,0 1.013864,5.46875 1.71875,5.46875 l 0,-32.9375002 z"
     id="path60"
     inkscape:connector-curvature="0" /><path
     style="font-size:medium;font-style:normal;font-variant:normal;font-weight:normal;font-stretch:normal;text-indent:0;text-align:start;text-decoration:none;line-height:normal;letter-spacing:normal;word-spacing:normal;text-transform:none;direction:ltr;block-progression:tb;writing-mode:lr-tb;text-anchor:start;baseline-shift:baseline;color:#000000;fill:#000000;fill-opacity:1;fill-rule:nonzero;stroke:none;stroke-width:0.18637916;marker:none;visibility:visible;display:inline;overflow:visible;enable-background:accumulate;font-family:Sans;-inkscape-font-specification:Sans"
     d="m 33.125,0.96747372 -0.15625,0.09375 c 0,0 -16.054115,9.2437903 -32.09375,18.4687503 l 0.03125,0.1875 C 16.907639,10.513678 32.82345,1.3456038 32.9375,1.2799738 l 0,32.6562502 c -0.03575,-0.03102 -0.08048,-0.08631 -0.125,-0.15625 -0.08904,-0.139878 -0.185436,-0.340748 -0.28125,-0.59375 -0.191627,-0.506003 -0.361007,-1.193423 -0.53125,-1.875 -0.340486,-1.363154 -0.59375,-2.71875 -0.59375,-2.71875 l -0.03125,-0.09375 -0.09375,0 -21.53125,3.53125 -7.40625,2.78125 0.03125,0.1875 7.40625,-2.8125 0.03125,0 21.4375,-3.5 c 0.01195,0.06421 0.228518,1.319136 0.5625,2.65625 0.171157,0.685234 0.365911,1.387145 0.5625,1.90625 0.09829,0.259553 0.179965,0.465888 0.28125,0.625 0.05064,0.07956 0.09971,0.138435 0.15625,0.1875 0.05654,0.04906 0.144578,0.09375 0.21875,0.09375 l 0.09375,0 0,-0.09375 0,-32.9375002 0,-0.15625008 z"
     id="path4101"
     inkscape:connector-curvature="0" /><path
     style="font-size:medium;font-style:normal;font-variant:normal;font-weight:normal;font-stretch:normal;text-indent:0;text-align:start;text-decoration:none;line-height:normal;letter-spacing:normal;word-spacing:normal;text-transform:none;direction:ltr;block-progression:tb;writing-mode:lr-tb;text-anchor:start;baseline-shift:baseline;color:#000000;fill:#000000;fill-opacity:1;fill-rule:nonzero;stroke:none;stroke-width:1;marker:none;visibility:visible;display:inline;overflow:visible;enable-background:accumulate;font-family:Sans;-inkscape-font-specification:Sans"
     d="m 33.125,0.96747372 -0.15625,0.09375 -17.6875,10.1562503 -0.03125,0.03125 0,0.0625 0,2.5625 0,0.15625 0.125,-0.0625 17.53125,-10.3437503 0.0625,0 0,-0.0625 0.15625,-2.40625 0,-0.18750004 z m -0.21875,0.34375008 -0.125,2.1875 -17.34375,10.2187502 0,-2.34375 17.46875,-10.0625002 z m -19.625,11.0625002 -0.0625,0.0625 -12.34375,7.09375 0.03125,0.15625 12.3125,-7.0625 1.0625,1.84375 -13.1875,7.375 0.03125,0.1875 13.3125,-7.4375 0.09375,-0.0625 -0.03125,-0.09375 -1.15625,-1.96875 -0.0625,-0.09375 z m 18.28125,11.53125 -15.875,2.5 -0.0625,0 0,0.0625 0,2.5 0,0.125 0.09375,-0.03125 0.15625,-0.03125 0,2.0625 0,0.125 0.125,-0.03125 13.25,-2.15625 0.0625,0 0,-0.09375 0,-2.03125 2.125,-0.3125 0.09375,-0.03125 0,-0.0625 0.15625,-2.5 0,-0.09375 -0.125,0 z m -0.0625,0.21875 -0.15625,2.28125 -2.03125,0.3125 -0.09375,0.03125 -13.40625,2.125 0,-2.3125 15.6875,-2.4375 z m -2.375,2.8125 0,1.90625 -13.0625,2.15625 0,-1.9375 13.0625,-2.125 z m -19.71875,0.40625 -0.125,0.0625 -7.34375,3 0,0.1875 7.28125,-2.96875 0,2.40625 -7.0625,2.75 0,0.21875 2.25,-0.875 4.8125,-1.90625 0,2 -6.875,2.59375 0.03125,0.1875 6.96875,-2.625 0.0625,-0.03125 0,-0.0625 0,-2.125 0,-0.0625 0,-0.125 0,-2.5 0,-0.125 z"
     id="path62"
     inkscape:connector-curvature="0" /><path
     inkscape:connector-curvature="0"
     style="fill:#765337;fill-opacity:1;stroke:#000000;stroke-width:0.18637915999999999;stroke-miterlimit:10"
     id="path64"
     d="M 33.0217,1.1365698 31.303657,28.596371 c 0,0 1.013157,5.467246 1.718043,5.467246 V 1.1365698 z"
     stroke-miterlimit="10" /><path
     inkscape:connector-curvature="0"
     style="fill:#c19069;fill-opacity:1;stroke:#000000;stroke-width:0.18637916;stroke-miterlimit:10"
     id="path76"
     d="m 26.644178,29.356053 c 0,0 -0.326164,2.471015 -0.559138,2.471015 -0.232973,0 -0.837215,-2.24326 -0.837215,-2.24326 l 1.396353,-0.227755 z"
     stroke-miterlimit="10" /><path
     inkscape:connector-curvature="0"
     style="fill:#c19069;fill-opacity:1;stroke:#000000;stroke-width:0.18637916;stroke-miterlimit:10"
     id="path78"
     d="m 19.231133,30.59156 c 0,0 -0.326163,2.876762 -0.559137,2.876762 -0.232974,0 -0.837215,-2.675659 -0.837215,-2.675659 l 1.396352,-0.201103 z"
     stroke-miterlimit="10" /><path
     inkscape:connector-curvature="0"
     style="fill:#c19069;fill-opacity:1;stroke:#000000;stroke-width:0.18637916;stroke-miterlimit:10"
     id="path80"
     d="m 7.570135,32.939192 c 0,0 -0.326164,3.000145 -0.559138,3.000145 -0.232974,0 -0.843179,-2.471015 -0.843179,-2.471015 l 1.402317,-0.52913 z"
     stroke-miterlimit="10" /></svg>