<?xml version="1.0" encoding="UTF-8" standalone="no"?>
<!-- Generator: Adobe Illustrator 15.1.0, SVG Export Plug-In . SVG Version: 6.00 Build 0)  -->

<svg
   xmlns:dc="http://purl.org/dc/elements/1.1/"
   xmlns:cc="http://creativecommons.org/ns#"
   xmlns:rdf="http://www.w3.org/1999/02/22-rdf-syntax-ns#"
   xmlns:svg="http://www.w3.org/2000/svg"
   xmlns="http://www.w3.org/2000/svg"
   xmlns:xlink="http://www.w3.org/1999/xlink"
   xmlns:sodipodi="http://sodipodi.sourceforge.net/DTD/sodipodi-0.dtd"
   xmlns:inkscape="http://www.inkscape.org/namespaces/inkscape"
   version="1.1"
   x="0px"
   y="0px"
   width="49"
   height="35"
   viewBox="0 0 49 35"
   enable-background="new 0 0 1000 1000"
   xml:space="preserve"
   id="svg2"
   inkscape:version="0.48.5 r10040"
   sodipodi:docname="IL_96_wing_L_2.svg"><metadata
     id="metadata144"><rdf:RDF><cc:Work
         rdf:about=""><dc:format>image/svg+xml</dc:format><dc:type
           rdf:resource="http://purl.org/dc/dcmitype/StillImage" /><dc:title></dc:title></cc:Work></rdf:RDF></metadata><defs
     id="defs142"><linearGradient
       id="linearGradient3889"><stop
         style="stop-color:#765337;stop-opacity:1"
         offset="0"
         id="stop3891" /><stop
         id="stop3899"
         offset="0.36922726"
         style="stop-color:#c19069;stop-opacity:1;" /><stop
         id="stop3897"
         offset="0.64477599"
         style="stop-color:#c19069;stop-opacity:1;" /><stop
         style="stop-color:#765337;stop-opacity:1"
         offset="1"
         id="stop3893" /></linearGradient><linearGradient
       inkscape:collect="always"
       xlink:href="#linearGradient3889"
       id="linearGradient3895"
       x1="455.32599"
       y1="439.8335"
       x2="543.28198"
       y2="439.8335"
       gradientUnits="userSpaceOnUse" /></defs><sodipodi:namedview
     pagecolor="#ffffff"
     bordercolor="#666666"
     borderopacity="1"
     objecttolerance="10"
     gridtolerance="10"
     guidetolerance="10"
     inkscape:pageopacity="0"
     inkscape:pageshadow="2"
     inkscape:window-width="1920"
     inkscape:window-height="1060"
     id="namedview140"
     showgrid="false"
     inkscape:zoom="7.772973"
     inkscape:cx="51.3793"
     inkscape:cy="22.525358"
     inkscape:window-x="-2"
     inkscape:window-y="-3"
     inkscape:window-maximized="1"
     inkscape:current-layer="svg2"
     fit-margin-top="1"
     fit-margin-left="1"
     fit-margin-right="1"
     fit-margin-bottom="1" /><path
     style="fill:#c19069;fill-opacity:1;stroke:none"
     d="M 2.421875,0.93263328 C 20.208081,11.162192 38.157757,21.456773 38.484375,21.620133 c 0.621201,0.31069 1.926389,2.9047 2.65625,3.59375 0.729861,0.68904 5.9375,5.5625 5.9375,5.5625 0,0 0.875,1.19379 0.875,2.25 0,1.05621 -0.4375,1.03125 -0.4375,1.03125 l -8.78125,-3.59375 -37.75,-14.25 1.4375,-15.28124972 z"
     id="path60"
     inkscape:connector-curvature="0" /><path
     style="font-size:medium;font-style:normal;font-variant:normal;font-weight:normal;font-stretch:normal;text-indent:0;text-align:start;text-decoration:none;line-height:normal;letter-spacing:normal;word-spacing:normal;text-transform:none;direction:ltr;block-progression:tb;writing-mode:lr-tb;text-anchor:start;baseline-shift:baseline;color:#000000;fill:#000000;fill-opacity:1;fill-rule:nonzero;stroke:none;stroke-width:0.18637916;marker:none;visibility:visible;display:inline;overflow:visible;enable-background:accumulate;font-family:Sans;-inkscape-font-specification:Sans"
     d="m 2.453125,0.83888328 c 0.87308,0.50213902 0.874132,0.49628302 1.75,1.00000002 8.483355,4.878832 16.985518,9.7805107 23.40625,13.4687497 3.210366,1.84412 5.905859,3.376048 7.8125,4.46875 0.95332,0.546351 1.721178,0.979508 2.25,1.28125 0.264411,0.150871 0.447883,0.26118 0.59375,0.34375 0.145867,0.0826 0.24196,0.15223 0.25,0.15625 0.189879,0.095 0.401587,0.32464 0.625,0.625 0.223413,0.30036 0.471528,0.67669 0.71875,1.0625 0.494444,0.77162 1.001007,1.58267 1.34375,1.90625 0.728524,0.68778 5.9375,5.5625 5.9375,5.5625 0,0 0.216519,0.31597 0.4375,0.75 0.220981,0.43403 0.46875,1.00881 0.46875,1.5625 0,0.5409 -0.121864,0.81319 -0.25,0.96875 -0.06407,0.0778 -0.133368,0.13434 -0.1875,0.15625 -0.05413,0.0219 -0.09375,0 -0.09375,0 l -0.03125,0 -8.78125,-3.59375 -37.75,-14.25 0.03125,-0.1875 37.78125,14.25 0.03125,0 8.71875,3.59375 c 0,0 0.0038,0.0111 0.03125,0 0.02743,-0.0111 0.04907,-0.0396 0.09375,-0.0937 0.08937,-0.10849 0.21875,-0.32844 0.21875,-0.84375 0,-0.50252 -0.223565,-1.04856 -0.4375,-1.46875 -0.213935,-0.42019 -0.4375,-0.71875 -0.4375,-0.71875 -0.02903,-0.0272 -5.177102,-4.87413 -5.90625,-5.5625 -0.387117,-0.36547 -0.881587,-1.16749 -1.375,-1.9375 -0.246706,-0.38501 -0.500858,-0.76956 -0.71875,-1.0625 -0.217892,-0.29294 -0.410528,-0.50212 -0.53125,-0.5625 -0.03078,-0.0154 -0.103785,-0.0735 -0.25,-0.15625 -0.146215,-0.0828 -0.36049,-0.19282 -0.625,-0.34375 -0.529019,-0.301855 -1.296627,-0.734869 -2.25,-1.28125 -1.906746,-1.092813 -4.602107,-2.624615 -7.8125,-4.46875 C 21.094839,11.775663 12.592744,6.8740223 4.109375,1.9951833 3.26382,1.5088993 3.264315,1.5109943 2.421875,1.0264333 l 0.03125,-0.18755002 z"
     id="path4101"
     inkscape:connector-curvature="0" /><path
     style="font-size:medium;font-style:normal;font-variant:normal;font-weight:normal;font-stretch:normal;text-indent:0;text-align:start;text-decoration:none;line-height:normal;letter-spacing:normal;word-spacing:normal;text-transform:none;direction:ltr;block-progression:tb;writing-mode:lr-tb;text-anchor:start;baseline-shift:baseline;color:#000000;fill:#000000;fill-opacity:1;fill-rule:nonzero;stroke:none;stroke-width:1;marker:none;visibility:visible;display:inline;overflow:visible;enable-background:accumulate;font-family:Sans;-inkscape-font-specification:Sans"
     d="m 2.453125,0.83888328 36.0625,20.71874972 0.09375,0.0312 -0.03125,0.0937 -0.84375,1.40625 -0.03125,0.0937 -0.09375,-0.0625 -35.40625,-19.7810997 0.03125,-0.1875 35.40625,19.7812497 0.71875,-1.28125 -35.9375,-20.65624972 0.03125,-0.15625 z m -1.0625,10.87499972 21.4375,8.71875 0.03125,0.03125 0,0.0625 0,2.125 0,0.125 -0.125,-0.0312 -0.28125,-0.125 0,1.65625 0,0.15625 -0.125,-0.0625 -21.375,-8.0625 0.03125,-0.1875 21.28125,8.03125 0,-1.59375 -17.875,-7 -0.34375,-0.15625 -0.90625,-0.34375 -1.96875,-0.75 0,-0.21875 3.1875,1.25 0.125,0.03125 17.90625,7.03125 0.0625,0 0.25,0.0937 0,-1.90625 -21.3125,-8.6875 0,-0.1875 z m 37.4375,10.125 c 0,0 0.239042,1.21635 0.4375,2.625 0.09923,0.70433 0.207516,1.463 0.25,2.125 0.03961,0.61727 0.04198,1.15981 -0.03125,1.53125 l -0.03125,0.0625 c -0.342226,1.40027 -0.625,2.3125 -0.625,2.3125 l -0.03125,0.0937 -0.09375,-0.0312 -14.8125,-5.59375 -0.0625,-0.0312 0.03125,-0.0625 0.6875,-2.5 0.03125,-0.0937 0.09375,0.0312 14.625,5.75 c 0.05881,-0.33647 0.06914,-0.87847 0.03125,-1.4688 -0.042,-0.65442 -0.119928,-1.39232 -0.21875,-2.09375 -0.197644,-1.40288 -0.4375,-2.625 -0.4375,-2.625 l 0.15625,-0.03125 z m -14.125,0.6875 -0.65625,2.28125 14.625,5.53125 c 0.0013,-0.004 0.0294,-0.025 0.03125,-0.0312 l 0.5625,-2.0938 -14.5625,-5.6875 z"
     id="path62"
     inkscape:connector-curvature="0" /><path
     inkscape:connector-curvature="0"
     style="fill:#c19069;fill-opacity:1;stroke:#000000;stroke-width:0.18637916;stroke-miterlimit:10"
     id="path82"
     d="m 3.083996,17.01229 c 0,0 0.280687,2.942927 0.513661,2.942927 0.232974,0 0.837215,-2.433366 0.837215,-2.433366 L 3.083996,17.01229 z"
     stroke-miterlimit="10" /><path
     inkscape:connector-curvature="0"
     style="fill:#c19069;fill-opacity:1;stroke:#000000;stroke-width:0.18637916;stroke-miterlimit:10"
     id="path84"
     d="m 9.880685,19.576868 c 0,0 0.326163,3.064445 0.559137,3.064445 0.232974,0 0.737503,-2.5752 0.737503,-2.5752 l -1.29664,-0.489245 z"
     stroke-miterlimit="10" /><path
     inkscape:connector-curvature="0"
     style="fill:#c19069;fill-opacity:1;stroke:#000000;stroke-width:0.18637916;stroke-miterlimit:10"
     id="path86"
     d="m 18.811974,22.946793 c 0,0 0.407611,3.17291 0.640585,3.17291 0.232974,0 0.837215,-2.61527 0.837215,-2.61527 l -1.4778,-0.55764 z"
     stroke-miterlimit="10" /></svg>