<?xml version="1.0" encoding="UTF-8" standalone="no"?>
<!-- Generator: Adobe Illustrator 15.1.0, SVG Export Plug-In . SVG Version: 6.00 Build 0)  -->

<svg
   xmlns:dc="http://purl.org/dc/elements/1.1/"
   xmlns:cc="http://creativecommons.org/ns#"
   xmlns:rdf="http://www.w3.org/1999/02/22-rdf-syntax-ns#"
   xmlns:svg="http://www.w3.org/2000/svg"
   xmlns="http://www.w3.org/2000/svg"
   xmlns:xlink="http://www.w3.org/1999/xlink"
   xmlns:sodipodi="http://sodipodi.sourceforge.net/DTD/sodipodi-0.dtd"
   xmlns:inkscape="http://www.inkscape.org/namespaces/inkscape"
   version="1.1"
   x="0px"
   y="0px"
   width="174"
   height="184"
   viewBox="0 0 174 184"
   enable-background="new 0 0 1000 1000"
   xml:space="preserve"
   id="svg2"
   inkscape:version="0.48.5 r10040"
   sodipodi:docname="IL-96xxA3.svg"><metadata
     id="metadata144"><rdf:RDF><cc:Work
         rdf:about=""><dc:format>image/svg+xml</dc:format><dc:type
           rdf:resource="http://purl.org/dc/dcmitype/StillImage" /></cc:Work></rdf:RDF></metadata><defs
     id="defs142"><linearGradient
       id="linearGradient3871"><stop
         style="stop-color:#c19069;stop-opacity:1;"
         offset="0"
         id="stop3873" /><stop
         id="stop3879"
         offset="0.85000002"
         style="stop-color:#c19069;stop-opacity:1;" /><stop
         style="stop-color:#765337;stop-opacity:1;"
         offset="1"
         id="stop3875" /></linearGradient><linearGradient
       id="linearGradient3861"><stop
         style="stop-color:#765337;stop-opacity:1;"
         offset="0"
         id="stop3863" /><stop
         id="stop3869"
         offset="0.15000001"
         style="stop-color:#c19069;stop-opacity:1;" /><stop
         style="stop-color:#c19069;stop-opacity:1;"
         offset="1"
         id="stop3865" /></linearGradient><linearGradient
       id="linearGradient3889"><stop
         style="stop-color:#765337;stop-opacity:1"
         offset="0"
         id="stop3891" /><stop
         id="stop3899"
         offset="0.36922726"
         style="stop-color:#c19069;stop-opacity:1;" /><stop
         id="stop3897"
         offset="0.64477599"
         style="stop-color:#c19069;stop-opacity:1;" /><stop
         style="stop-color:#765337;stop-opacity:1"
         offset="1"
         id="stop3893" /></linearGradient><linearGradient
       inkscape:collect="always"
       xlink:href="#linearGradient3889"
       id="linearGradient3895"
       x1="455.32599"
       y1="439.8335"
       x2="543.28198"
       y2="439.8335"
       gradientUnits="userSpaceOnUse" /><linearGradient
       inkscape:collect="always"
       xlink:href="#linearGradient3889"
       id="linearGradient3089"
       gradientUnits="userSpaceOnUse"
       x1="455.32599"
       y1="439.8335"
       x2="543.28198"
       y2="439.8335"
       gradientTransform="matrix(0.18637916,0,0,0.18637916,-6.0599533,-0.58422049)" /><linearGradient
       inkscape:collect="always"
       xlink:href="#linearGradient3861"
       id="linearGradient3867"
       x1="95.01011"
       y1="87.045108"
       x2="172.8331"
       y2="87.045108"
       gradientUnits="userSpaceOnUse" /><linearGradient
       inkscape:collect="always"
       xlink:href="#linearGradient3871"
       id="linearGradient3877"
       x1="1.1668986"
       y1="87.045108"
       x2="78.98989"
       y2="87.045108"
       gradientUnits="userSpaceOnUse" /><linearGradient
       inkscape:collect="always"
       xlink:href="#linearGradient3861"
       id="linearGradient3887"
       x1="89.273087"
       y1="152.21565"
       x2="116.53971"
       y2="152.21565"
       gradientUnits="userSpaceOnUse" /><linearGradient
       inkscape:collect="always"
       xlink:href="#linearGradient3871"
       id="linearGradient3896"
       x1="57.491043"
       y1="152.21565"
       x2="84.757668"
       y2="152.21565"
       gradientUnits="userSpaceOnUse" /></defs><sodipodi:namedview
     pagecolor="#ffffff"
     bordercolor="#666666"
     borderopacity="1"
     objecttolerance="10"
     gridtolerance="10"
     guidetolerance="10"
     inkscape:pageopacity="0"
     inkscape:pageshadow="2"
     inkscape:window-width="1920"
     inkscape:window-height="1060"
     id="namedview140"
     showgrid="false"
     inkscape:zoom="5.6568542"
     inkscape:cx="58.229254"
     inkscape:cy="61.643459"
     inkscape:window-x="-2"
     inkscape:window-y="-3"
     inkscape:window-maximized="1"
     inkscape:current-layer="svg2"
     fit-margin-top="1"
     fit-margin-left="1"
     fit-margin-right="1"
     fit-margin-bottom="1" /><path
     inkscape:connector-curvature="0"
     style="fill:#c19069;fill-opacity:1;stroke:#000000;stroke-width:0.18637916;stroke-miterlimit:10"
     id="path5"
     d="m 115.03991,76.006991 h -3.77418 c 0,0 -1.2521,-3.1034 -1.35125,-5.111076 -0.0991,-2.007676 -0.32244,-5.688106 -0.32244,-7.412299 0,-1.724194 2.60558,-2.003576 2.60558,-2.003576 h 1.8172 c 0,0 2.24233,0.559324 2.24233,2.096765 0,1.537442 0,5.964133 0,7.175598 0,1.211465 -1.21724,5.254588 -1.21724,5.254588 z"
     stroke-miterlimit="10" /><path
     inkscape:connector-curvature="0"
     style="fill:#c19069;fill-opacity:1;stroke:#000000;stroke-width:0.18637916;stroke-miterlimit:10"
     id="path7"
     d="m 113.22271,73.967444 h 0.51254 0.51254 v -8.060899 c 0,0 -0.17072,-1.677413 -0.52801,-1.677413 -0.35729,0 -0.49707,1.910387 -0.49707,1.910387 v 7.827925 z"
     stroke-miterlimit="10" /><path
     inkscape:connector-curvature="0"
     style="fill:#c19069;fill-opacity:1;stroke:#000000;stroke-width:0.18637916;stroke-miterlimit:10"
     id="path10"
     d="m 131.34696,84.958595 h -3.77417 c 0,0 -1.2521,-3.103399 -1.35125,-5.111075 -0.0992,-2.007677 -0.32244,-5.688106 -0.32244,-7.4123 0,-1.724193 2.60558,-2.003576 2.60558,-2.003576 h 1.8172 c 0,0 2.24233,0.559324 2.24233,2.096766 0,1.537442 0,5.964133 0,7.175598 0,1.211464 -1.21725,5.254587 -1.21725,5.254587 z"
     stroke-miterlimit="10" /><path
     inkscape:connector-curvature="0"
     style="fill:#c19069;fill-opacity:1;stroke:#000000;stroke-width:0.18637916;stroke-miterlimit:10"
     id="path12"
     d="m 129.71726,83.198617 h 0.51255 0.51254 v -8.060899 c 0,0 -0.17072,-1.677412 -0.52801,-1.677412 -0.35729,0 -0.49708,1.910386 -0.49708,1.910386 v 7.827925 z"
     stroke-miterlimit="10" /><path
     inkscape:connector-curvature="0"
     style="fill:url(#linearGradient3867);fill-opacity:1;stroke:#000000;stroke-width:0.18637915999999999;stroke-miterlimit:10"
     id="path15"
     d="m 95.1033,61.231596 c 0,0 67.55629,38.875334 68.1775,39.186034 0.6212,0.31069 1.92138,2.89409 2.65124,3.58314 0.72986,0.68904 5.93804,5.56509 5.93804,5.56509 0,0 0.86983,1.18034 0.86983,2.23655 0,1.05621 -0.43501,1.05621 -0.43501,1.05621 l -8.75982,-3.60326 -45.19694,-17.053884 -21.526797,-3.510079 c 0,0 -1.013157,5.467246 -1.718043,5.467246 V 61.231596 z"
     stroke-miterlimit="10" /><path
     inkscape:connector-curvature="0"
     id="path17"
     d="m 94.998322,61.066511 0.01165,0.168906 0.151433,2.422929 0.0058,0.04659 0.04077,0.02912 17.531291,10.314921 0.13978,0.08154 0,-0.163081 0,-2.562714 0,-0.05242 -0.0466,-0.02912 -17.682724,-10.175137 -0.151433,-0.08154 z m 0.209676,0.331988 17.484692,10.05865 0,2.347213 -17.350732,-10.210084 -0.13396,-2.195779 z m 19.628052,11.077911 -0.0466,0.08154 -1.1474,1.986103 -0.0524,0.08154 0.0874,0.04659 48.73232,27.24048 0.0815,0.0408 0.0466,-0.0757 0.82123,-1.41531 0.0524,-0.0815 -0.0815,-0.0466 -48.41199,-27.811265 -0.0815,-0.04659 z m 0.0699,0.256272 48.2489,27.718078 -0.73387,1.25223 -48.57507,-27.147287 1.06004,-1.823021 z m -18.474838,11.258466 0.01165,0.116487 0.151433,2.481172 0.0058,0.07572 0.07572,0.01165 2.131712,0.337813 0,2.015224 0,0.08154 0.07572,0.01165 13.250397,2.160833 0.11066,0.01746 0,-0.110663 0,-2.055995 0.15726,0.0233 0.10483,0.01746 0,-0.110662 0,-2.486997 0,-0.07572 -0.0757,-0.01165 -15.883001,-2.481173 -0.116487,-0.01746 z m 0.203852,0.221325 15.684976,2.446226 0,2.294794 -13.401831,-2.114239 -0.110663,-0.01747 -2.032698,-0.320339 -0.139784,-2.288969 z m 2.358861,2.830633 13.064015,2.10259 0,1.933684 -13.064015,-2.131712 0,-1.904562 z m 19.727065,0.390232 0,0.139784 0,2.609308 0,0.06407 0,2.131712 0,0.06407 0.0583,0.0233 28.3471,10.693505 0.12814,0.0466 0,-0.13396 0,-1.67158 0.29122,0.11648 0.12813,0.0466 0,-0.13396 0,-2.114241 0,-0.06407 -0.0582,-0.0233 -28.76646,-11.741887 -0.12814,-0.05242 z m 0.18638,0.279569 28.58008,11.66617 0,1.910383 -0.23297,-0.0874 -0.0582,-0.0233 -17.93317,-7.012515 -10.3557,-4.047922 0,-2.405456 z m 0,2.609308 4.81674,1.881264 -0.006,0.0058 2.55107,0.99014 20.79875,8.130786 0,1.60752 -28.16073,-10.623607 0,-1.991928 z m 44.731,10.291625 -0.18638,0.0408 c 0,0 0.23918,1.22973 0.43683,2.63261 0.0988,0.70143 0.19098,1.44234 0.23297,2.09676 0.0379,0.59033 0.0365,1.10802 -0.0233,1.44444 l -14.61912,-5.73698 -0.099,-0.035 -0.0291,0.099 -0.70474,2.487 -0.0233,0.0815 0.0757,0.0291 14.81132,5.59138 0.099,0.0349 0.0233,-0.099 c 0,0 0.28098,-0.90035 0.6232,-2.30062 l 0,-0.006 0.0233,-0.0757 -0.006,0 c 0.0736,-0.37124 0.0745,-0.90983 0.0349,-1.52598 -0.0425,-0.662 -0.13374,-1.40991 -0.23297,-2.11424 -0.19846,-1.40865 -0.43683,-2.64425 -0.43683,-2.64425 z m -14.13569,0.68727 14.54922,5.71369 -0.54166,2.02687 c -0.006,0.0192 -0.0203,0.0834 -0.0233,0.0932 l -14.63659,-5.52731 0.65233,-2.30644 z"
     style="font-size:medium;font-style:normal;font-variant:normal;font-weight:normal;font-stretch:normal;text-indent:0;text-align:start;text-decoration:none;line-height:normal;letter-spacing:normal;word-spacing:normal;text-transform:none;direction:ltr;block-progression:tb;writing-mode:lr-tb;text-anchor:start;baseline-shift:baseline;color:#000000;fill:#000000;fill-opacity:1;fill-rule:nonzero;stroke:none;stroke-width:1;marker:none;visibility:visible;display:inline;overflow:visible;enable-background:accumulate;font-family:Sans;-inkscape-font-specification:Sans" /><path
     inkscape:connector-curvature="0"
     style="fill:#765337;fill-opacity:1;stroke:#000000;stroke-width:0.18637915999999999;stroke-miterlimit:10"
     id="path19"
     d="m 95.1033,61.231596 1.718043,27.459801 c 0,0 -1.013157,5.467246 -1.718043,5.467246 V 61.231596 z"
     stroke-miterlimit="10" /><path
     inkscape:connector-curvature="0"
     style="fill:#c19069;fill-opacity:1;stroke:#000000;stroke-width:0.18637916;stroke-miterlimit:10"
     id="path31"
     d="m 101.48082,89.451079 c 0,0 0.32617,2.470828 0.55914,2.470828 0.23297,0 0.83721,-2.243259 0.83721,-2.243259 l -1.39635,-0.227569 z"
     stroke-miterlimit="10" /><path
     inkscape:connector-curvature="0"
     style="fill:#c19069;fill-opacity:1;stroke:#000000;stroke-width:0.18637916;stroke-miterlimit:10"
     id="path33"
     d="m 108.89368,90.686586 c 0,0 0.32616,2.876762 0.55914,2.876762 0.23297,0 0.83721,-2.675659 0.83721,-2.675659 l -1.39635,-0.201103 z"
     stroke-miterlimit="10" /><path
     inkscape:connector-curvature="0"
     style="fill:#c19069;fill-opacity:1;stroke:#000000;stroke-width:0.18637916;stroke-miterlimit:10"
     id="path35"
     d="m 120.55487,93.034218 c 0,0 0.32616,3.000145 0.55913,3.000145 0.23298,0 0.84318,-2.471015 0.84318,-2.471015 l -1.40231,-0.52913 z"
     stroke-miterlimit="10" /><path
     inkscape:connector-curvature="0"
     style="fill:#c19069;fill-opacity:1;stroke:#000000;stroke-width:0.18637916;stroke-miterlimit:10"
     id="path37"
     d="m 127.88068,95.798407 c 0,0 0.28069,2.942927 0.51367,2.942927 0.23297,0 0.83721,-2.433366 0.83721,-2.433366 l -1.35088,-0.509561 z"
     stroke-miterlimit="10" /><path
     inkscape:connector-curvature="0"
     style="fill:#c19069;fill-opacity:1;stroke:#000000;stroke-width:0.18637916;stroke-miterlimit:10"
     id="path39"
     d="m 134.67756,98.362985 c 0,0 0.32616,3.064445 0.55914,3.064445 0.23297,0 0.7375,-2.5752 0.7375,-2.5752 l -1.29664,-0.489245 z"
     stroke-miterlimit="10" /><path
     inkscape:connector-curvature="0"
     style="fill:#c19069;fill-opacity:1;stroke:#000000;stroke-width:0.18637916;stroke-miterlimit:10"
     id="path41"
     d="m 143.60885,101.73291 c 0,0 0.40761,3.17291 0.64058,3.17291 0.23298,0 0.83722,-2.61527 0.83722,-2.61527 l -1.4778,-0.55764 z"
     stroke-miterlimit="10" /><path
     inkscape:connector-curvature="0"
     style="fill:#c19069;fill-opacity:1;stroke:#000000;stroke-width:0.18637916;stroke-miterlimit:10"
     id="path50"
     d="m 42.653036,84.958782 h 3.774178 c 0,0 1.252095,-3.1034 1.351249,-5.111076 0.09915,-2.007676 0.322436,-5.688106 0.322436,-7.412299 0,-1.724194 -2.605581,-2.003576 -2.605581,-2.003576 h -1.817197 c 0,0 -2.242327,0.559324 -2.242327,2.096765 0,1.537442 0,5.964134 0,7.175598 0,1.211465 1.217242,5.254588 1.217242,5.254588 z"
     stroke-miterlimit="10" /><path
     inkscape:connector-curvature="0"
     style="fill:#c19069;fill-opacity:1;stroke:#000000;stroke-width:0.18637916;stroke-miterlimit:10"
     id="path52"
     d="M 44.282735,83.198617 H 43.770193 43.25765 v -8.060899 c 0,0 0.170723,-1.677412 0.528012,-1.677412 0.357289,0 0.497073,1.910386 0.497073,1.910386 v 7.827925 z"
     stroke-miterlimit="10" /><path
     inkscape:connector-curvature="0"
     style="fill:#c19069;fill-opacity:1;stroke:#000000;stroke-width:0.18637916;stroke-miterlimit:10"
     id="path55"
     d="m 58.960094,76.007177 h 3.774178 c 0,0 1.252095,-3.103399 1.351249,-5.111076 0.09915,-2.007676 0.322436,-5.688105 0.322436,-7.412299 0,-1.724193 -2.605581,-2.003762 -2.605581,-2.003762 h -1.817197 c 0,0 -2.242327,0.559324 -2.242327,2.096765 0,1.537442 0,5.964133 0,7.175598 0,1.211465 1.217242,5.254774 1.217242,5.254774 z"
     stroke-miterlimit="10" /><path
     inkscape:connector-curvature="0"
     style="fill:#c19069;fill-opacity:1;stroke:#000000;stroke-width:0.18637916;stroke-miterlimit:10"
     id="path57"
     d="m 60.777291,73.967444 h -0.512543 -0.512542 v -8.060899 c 0,0 0.170723,-1.677413 0.528012,-1.677413 0.357289,0 0.497073,1.910387 0.497073,1.910387 v 7.827925 z"
     stroke-miterlimit="10" /><path
     inkscape:connector-curvature="0"
     style="fill:url(#linearGradient3877);fill-opacity:1;stroke:#000000;stroke-width:0.18637915999999999;stroke-miterlimit:10"
     id="path60"
     d="m 78.8967,61.231596 c 0,0 -67.556295,38.875334 -68.177497,39.186034 -0.621201,0.31069 -1.9213824,2.89409 -2.6512432,3.58314 -0.7298608,0.68904 -5.9380401,5.56509 -5.9380401,5.56509 0,0 -0.8698315,1.18034 -0.8698315,2.23655 0,1.05621 0.435009,1.05621 0.435009,1.05621 l 8.7598208,-3.60326 45.196946,-17.053884 21.526793,-3.510079 c 0,0 1.013157,5.467246 1.718043,5.467246 V 61.231596 z"
     stroke-miterlimit="10" /><path
     inkscape:connector-curvature="0"
     id="path62"
     d="m 78.998836,61.066511 -0.151433,0.08154 -17.682723,10.175137 -0.04659,0.02912 0,0.05242 0,2.562714 0,0.163081 0.139785,-0.08154 17.537114,-10.314921 0.04077,-0.02912 0,-0.04659 0.151433,-2.422929 0.01165,-0.168906 z m -0.209677,0.331988 -0.13396,2.195779 -17.350735,10.210084 0,-2.347213 17.484695,-10.05865 z m -19.628055,11.077911 -0.08154,0.04659 -48.406162,27.811265 -0.08154,0.0466 0.04659,0.0815 0.827057,1.41531 0.04659,0.0757 0.07572,-0.0408 48.738151,-27.24048 0.08154,-0.04659 -0.04659,-0.08154 -1.153221,-1.986103 -0.04659,-0.08154 z m -0.06407,0.256272 1.054207,1.823021 -48.575068,27.153117 -0.728044,-1.25806 48.248905,-27.718078 z m 18.46901,11.258466 -0.116487,0.01746 -15.877175,2.481173 -0.08154,0.01165 0,0.07572 0,2.486997 0,0.110663 0.110662,-0.01746 0.151433,-0.0233 0,2.055995 0,0.110662 0.110663,-0.01746 13.250393,-2.160834 0.07572,-0.01165 0,-0.08154 0,-2.015225 2.137536,-0.337812 0.06989,-0.01165 0.0058,-0.07572 0.157257,-2.481173 0.0058,-0.116487 z m -0.198028,0.221325 -0.145609,2.288969 -2.032697,0.320339 -0.104839,0.01746 -13.40765,2.114239 0,-2.294794 15.690795,-2.446226 z m -2.364685,2.830633 0,1.904562 -13.064015,2.131712 0,-1.933684 13.064015,-2.10259 z m -19.72707,0.390232 -0.128135,0.05242 -28.760634,11.741887 -0.05824,0.0233 0,0.06407 0,2.114241 0,0.13396 0.128136,-0.0466 0.285393,-0.11066 0,1.66576 0,0.13396 0.128136,-0.0466 28.347105,-10.693505 0.05824,-0.0233 0,-0.06407 0,-2.131712 0,-0.06407 0,-0.13396 0,-2.475348 0,-0.139784 z m -0.186379,0.279569 0,2.405456 -10.245029,4.007152 -0.110663,0.04077 -17.927345,7.012515 -0.06407,0.0233 -0.22715,0.0874 0,-1.910383 28.574255,-11.66617 z m 0,2.609308 0,1.991927 -28.160726,10.623608 0,-1.60752 17.874926,-6.989215 0.355286,-0.139784 0.891125,-0.343637 4.228477,-1.64829 0,-0.0058 4.810912,-1.881265 z M 10.36471,100.61384 c 0,0 -0.244192,1.2356 -0.4426503,2.64425 -0.099229,0.70433 -0.1846651,1.45224 -0.2271496,2.11424 -0.039613,0.61727 -0.044103,1.15454 0.029122,1.52598 l 0.017473,0.0815 c 0.3422261,1.40027 0.6232051,2.30062 0.6232051,2.30062 l 0.02912,0.099 0.09319,-0.0349 14.811319,-5.59138 0.08154,-0.0291 -0.0233,-0.0815 -0.710571,-2.487 -0.02912,-0.099 -0.09319,0.035 -14.6249397,5.73698 c -0.058811,-0.33642 -0.055358,-0.85411 -0.017473,-1.44444 0.041998,-0.65442 0.1283278,-1.39533 0.2271498,-2.09676 0.197644,-1.40288 0.436826,-2.63261 0.436826,-2.63261 l -0.180555,-0.0408 z m 14.12987,0.6931 0.658152,2.30061 -14.636589,5.52731 c -0.0013,-0.004 -0.0098,-0.0346 -0.01165,-0.0408 L 9.9453571,107.0148 24.49458,101.30694 z"
     style="font-size:medium;font-style:normal;font-variant:normal;font-weight:normal;font-stretch:normal;text-indent:0;text-align:start;text-decoration:none;line-height:normal;letter-spacing:normal;word-spacing:normal;text-transform:none;direction:ltr;block-progression:tb;writing-mode:lr-tb;text-anchor:start;baseline-shift:baseline;color:#000000;fill:#000000;fill-opacity:1;fill-rule:nonzero;stroke:none;stroke-width:1;marker:none;visibility:visible;display:inline;overflow:visible;enable-background:accumulate;font-family:Sans;-inkscape-font-specification:Sans" /><path
     inkscape:connector-curvature="0"
     style="fill:#765337;fill-opacity:1;stroke:#000000;stroke-width:0.18637915999999999;stroke-miterlimit:10"
     id="path64"
     d="m 78.8967,61.231596 -1.718043,27.459801 c 0,0 1.013157,5.467246 1.718043,5.467246 V 61.231596 z"
     stroke-miterlimit="10" /><path
     inkscape:connector-curvature="0"
     style="fill:#c19069;fill-opacity:1;stroke:#000000;stroke-width:0.18637916;stroke-miterlimit:10"
     id="path76"
     d="m 72.519178,89.451079 c 0,0 -0.326164,2.471015 -0.559138,2.471015 -0.232973,0 -0.837215,-2.24326 -0.837215,-2.24326 l 1.396353,-0.227755 z"
     stroke-miterlimit="10" /><path
     inkscape:connector-curvature="0"
     style="fill:#c19069;fill-opacity:1;stroke:#000000;stroke-width:0.18637916;stroke-miterlimit:10"
     id="path78"
     d="m 65.106133,90.686586 c 0,0 -0.326163,2.876762 -0.559137,2.876762 -0.232974,0 -0.837215,-2.675659 -0.837215,-2.675659 l 1.396352,-0.201103 z"
     stroke-miterlimit="10" /><path
     inkscape:connector-curvature="0"
     style="fill:#c19069;fill-opacity:1;stroke:#000000;stroke-width:0.18637916;stroke-miterlimit:10"
     id="path80"
     d="m 53.445135,93.034218 c 0,0 -0.326164,3.000145 -0.559138,3.000145 -0.232974,0 -0.843179,-2.471015 -0.843179,-2.471015 l 1.402317,-0.52913 z"
     stroke-miterlimit="10" /><path
     inkscape:connector-curvature="0"
     style="fill:#c19069;fill-opacity:1;stroke:#000000;stroke-width:0.18637916;stroke-miterlimit:10"
     id="path82"
     d="m 46.119129,95.798407 c 0,0 -0.280687,2.942927 -0.513661,2.942927 -0.232974,0 -0.837215,-2.433366 -0.837215,-2.433366 l 1.350876,-0.509561 z"
     stroke-miterlimit="10" /><path
     inkscape:connector-curvature="0"
     style="fill:#c19069;fill-opacity:1;stroke:#000000;stroke-width:0.18637916;stroke-miterlimit:10"
     id="path84"
     d="m 39.32244,98.362985 c 0,0 -0.326163,3.064445 -0.559137,3.064445 -0.232974,0 -0.737503,-2.5752 -0.737503,-2.5752 l 1.29664,-0.489245 z"
     stroke-miterlimit="10" /><path
     inkscape:connector-curvature="0"
     style="fill:#c19069;fill-opacity:1;stroke:#000000;stroke-width:0.18637916;stroke-miterlimit:10"
     id="path86"
     d="m 30.391151,101.73291 c 0,0 -0.407611,3.17291 -0.640585,3.17291 -0.232974,0 -0.837215,-2.61527 -0.837215,-2.61527 l 1.4778,-0.55764 z"
     stroke-miterlimit="10" /><path
     inkscape:connector-curvature="0"
     style="fill:url(#linearGradient3896);fill-opacity:1.0;stroke:#000000;stroke-width:0.18637915999999999;stroke-miterlimit:10"
     id="path95"
     d="m 57.779382,165.75918 -0.139784,-1.39784 c -0.139785,-2.46953 -0.04697,-3.52518 0.653445,-4.22578 0.700413,-0.7006 23.948604,-21.46342 23.948604,-21.46342 2.562713,2.99753 2.421438,16.55214 2.421438,16.55214 l -26.883703,10.5349 z"
     stroke-miterlimit="10" /><polygon
     style="fill:none;fill-opacity:1;stroke:#000000;stroke-miterlimit:10"
     id="polygon97"
     points="476.024,824.5 483.344,837.316 375.802,879.459 375.802,869.5 "
     stroke-miterlimit="10"
     transform="matrix(0.18637916,0,0,0.18637916,-6.0599533,-0.58422049)" /><polygon
     style="fill:none;fill-opacity:1;stroke:#000000;stroke-miterlimit:10"
     id="polygon99"
     points="428.667,845.764 433.809,856.728 375.802,879.459 375.802,869.5 "
     stroke-miterlimit="10"
     transform="matrix(0.18637916,0,0,0.18637916,-6.0599533,-0.58422049)" /><polygon
     style="fill:none;fill-opacity:1;stroke:#000000;stroke-miterlimit:10"
     id="polygon101"
     points="480.08,761.335 353.274,860.5 353.274,855.041 473.774,747.167 475.095,748.956 476.923,752.317 478.711,756.825 "
     stroke-miterlimit="10"
     transform="matrix(0.18637916,0,0,0.18637916,-6.0599533,-0.58422049)" /><path
     inkscape:connector-curvature="0"
     style="fill:url(#linearGradient3887);fill-opacity:1.0;stroke:#000000;stroke-width:0.18637915999999999;stroke-miterlimit:10"
     id="path104"
     d="m 116.25137,165.75918 0.13978,-1.39784 c 0.13979,-2.46953 0.047,-3.52518 -0.65344,-4.22578 -0.70041,-0.7006 -23.948604,-21.46342 -23.948604,-21.46342 -2.562714,2.99753 -2.421438,16.55214 -2.421438,16.55214 l 26.883702,10.5349 z"
     stroke-miterlimit="10" /><polygon
     style="fill:none;fill-opacity:1;stroke:#000000;stroke-miterlimit:10"
     id="polygon106"
     points="522.75,824.5 515.43,837.316 622.972,879.459 622.972,869.5 "
     stroke-miterlimit="10"
     transform="matrix(0.18637916,0,0,0.18637916,-6.0599533,-0.58422049)" /><polygon
     style="fill:none;fill-opacity:1;stroke:#000000;stroke-miterlimit:10"
     id="polygon108"
     points="570.106,845.764 564.965,856.728 622.972,879.459 622.972,869.5 "
     stroke-miterlimit="10"
     transform="matrix(0.18637916,0,0,0.18637916,-6.0599533,-0.58422049)" /><polygon
     style="fill:none;fill-opacity:1;stroke:#000000;stroke-miterlimit:10"
     id="polygon110"
     points="518.694,761.335 645.5,860.5 645.5,855.041 525,747.167 523.679,748.956 521.851,752.317 520.063,756.825 "
     stroke-miterlimit="10"
     transform="matrix(0.18637916,0,0,0.18637916,-6.0599533,-0.58422049)" /><path
     inkscape:connector-curvature="0"
     style="fill:url(#linearGradient3089);fill-opacity:1;stroke:#000000;stroke-width:0.18637916;stroke-miterlimit:10"
     id="path113"
     d="m 86.999907,161.68996 c -0.750922,0 -1.434374,-0.40369 -1.434374,-0.40369 0,0 -0.931896,-4.25579 -0.931896,-6.05733 0,-14.66207 -2.422929,-16.5568 -2.422929,-16.5568 0,0 -3.314194,-16.40137 -3.314194,-25.37869 0,-8.97733 0,-78.496569 0,-86.759503 0,-5.560063 1.650946,-14.171153 2.164794,-15.531534 0.513847,-1.3603817 3.521075,-9.9092211 5.938599,-9.9092211 2.417524,0 5.424752,8.5490257 5.938599,9.9092211 0.513847,1.360195 2.164794,9.971285 2.164794,15.531534 0,8.262748 0,77.782173 0,86.759503 0,8.97732 -3.314194,25.37869 -3.314194,25.37869 0,0 -2.422929,1.89473 -2.422929,16.5568 0,1.80154 -0.931896,6.05733 -0.931896,6.05733 0,0 -0.683266,0.40369 -1.434374,0.40369 z"
     stroke-miterlimit="10" /><path
     inkscape:connector-curvature="0"
     style="fill:#c19069;fill-opacity:1;stroke:#000000;stroke-width:0.18637916;stroke-miterlimit:10"
     id="path115"
     d="m 88.434281,161.28627 c -1.434188,0.85417 -2.868748,0 -2.868748,0 l -0.371081,-1.83994 h 3.597118 l -0.357289,1.83994 z"
     stroke-miterlimit="10" /><path
     style="fill:#383838;stroke:#000000;stroke-width:0.18637916;stroke-miterlimit:10"
     inkscape:connector-curvature="0"
     id="path117"
     d="M 85.216817,4.090728 V 3.7025002 c 0.512543,-0.9473653 1.783276,-0.9630211 1.783276,-0.9630211 0,0 1.294403,0.015656 1.806946,0.9630211 V 4.090728 C 88.263371,3.5004652 87.000093,3.5860132 87.000093,3.5860132 c 0,0 -1.239608,-0.085362 -1.783276,0.5047148 z"
     stroke-miterlimit="10" /><path
     style="fill:#383838;stroke:#000000;stroke-width:0.18637916;stroke-miterlimit:10"
     inkscape:connector-curvature="0"
     id="path119"
     d="m 84.859715,3.9665995 -0.01566,0.5125426 c 0,0 -0.960598,0.8774731 -1.597269,2.9121744 l 0.03112,-0.9085984 c 0.419167,-1.2737152 1.5818,-2.5161186 1.5818,-2.5161186 z"
     stroke-miterlimit="10" /><path
     style="fill:#383838;stroke:#000000;stroke-width:0.18637916;stroke-miterlimit:10"
     inkscape:connector-curvature="0"
     id="path121"
     d="m 89.179797,3.9665995 0.01566,0.5125426 c 0,0 0.960412,0.8774731 1.596897,2.9121744 L 90.761411,6.4827181 C 90.342058,5.2090029 89.179797,3.9665995 89.179797,3.9665995 z"
     stroke-miterlimit="10" /><path
     inkscape:connector-curvature="0"
     style="fill:none;stroke:#000000;stroke-width:0.18637916;stroke-miterlimit:10"
     id="path123"
     d="m 92.255054,12.252644 0.254966,2.184737 c 0.9291,0 1.27912,0.362321 1.27912,0.362321 0,0 -0.249188,-1.546015 -0.363998,-2.065454 -0.121519,-0.381145 -1.170088,-0.481604 -1.170088,-0.481604 z"
     stroke-miterlimit="10" /><path
     inkscape:connector-curvature="0"
     style="fill:none;stroke:#000000;stroke-width:0.18637916;stroke-miterlimit:10"
     id="path125"
     d="m 81.763771,12.252644 -0.254967,2.184737 c -0.9291,0 -1.27912,0.362321 -1.27912,0.362321 0,0 0.249189,-1.546015 0.363998,-2.065454 0.12152,-0.381145 1.170089,-0.481604 1.170089,-0.481604 z"
     stroke-miterlimit="10" /><path
     inkscape:connector-curvature="0"
     style="fill:none;stroke:#000000;stroke-width:0.18637916;stroke-miterlimit:10"
     id="path127"
     d="m 93.815979,50.074753 0.0082,2.504564 c 0.9291,0 1.27912,0.415439 1.27912,0.415439 v -2.451073 c -0.121519,-0.437245 -1.287321,-0.46893 -1.287321,-0.46893 z"
     stroke-miterlimit="10" /><path
     inkscape:connector-curvature="0"
     style="fill:none;stroke:#000000;stroke-width:0.18637916;stroke-miterlimit:10"
     id="path129"
     d="m 80.184021,50.074753 -0.0082,2.504564 c -0.9291,0 -1.27912,0.415439 -1.27912,0.415439 v -2.451073 c 0.121519,-0.437245 1.287321,-0.46893 1.287321,-0.46893 z"
     stroke-miterlimit="10" /><path
     inkscape:connector-curvature="0"
     style="fill:none;stroke:#000000;stroke-width:0.18637916;stroke-miterlimit:10"
     id="path131"
     d="m 91.214499,134.9494 0.322063,-2.4835 c 0.921831,0.1163 1.50408,-0.64189 1.50408,-0.64189 l -0.42774,2.46281 c -0.175383,0.41861 -1.398403,0.66258 -1.398403,0.66258 z"
     stroke-miterlimit="10" /><path
     inkscape:connector-curvature="0"
     style="fill:none;stroke:#000000;stroke-width:0.18637916;stroke-miterlimit:10"
     id="path133"
     d="m 82.829114,135.02116 -0.322063,-2.48351 c -0.921832,0.1163 -1.50408,-0.64189 -1.50408,-0.64189 l 0.42774,2.46282 c 0.175383,0.41861 1.398403,0.66258 1.398403,0.66258 z"
     stroke-miterlimit="10" /><path
     inkscape:connector-curvature="0"
     style="fill:#c19069;fill-opacity:1;stroke:#000000;stroke-width:0.18637916;stroke-miterlimit:10"
     id="path136"
     d="m 87.000093,129.85081 c 0,0 0.937301,8.19696 0.937301,20.50171 0,12.30475 -0.468744,31.24963 -0.468744,31.24963 0,0 -0.281432,1.30466 -0.468743,1.30466 -0.187125,0 -0.468557,-1.30466 -0.468557,-1.30466 0,0 -0.46893,-18.94488 -0.46893,-31.24963 0,-12.30475 0.937673,-20.50171 0.937673,-20.50171"
     stroke-miterlimit="10" /><line
     style="fill:#c19069;fill-opacity:1;stroke:#000000;stroke-width:0.18637916;stroke-miterlimit:10"
     id="line138"
     y2="130.20474"
     x2="87.000092"
     y1="182.75081"
     x1="87.000092"
     stroke-miterlimit="10" /></svg>