<?xml version="1.0" encoding="UTF-8" standalone="no"?>
<!-- Generator: Adobe Illustrator 15.1.0, SVG Export Plug-In . SVG Version: 6.00 Build 0)  -->

<svg
   xmlns:dc="http://purl.org/dc/elements/1.1/"
   xmlns:cc="http://creativecommons.org/ns#"
   xmlns:rdf="http://www.w3.org/1999/02/22-rdf-syntax-ns#"
   xmlns:svg="http://www.w3.org/2000/svg"
   xmlns="http://www.w3.org/2000/svg"
   xmlns:xlink="http://www.w3.org/1999/xlink"
   xmlns:sodipodi="http://sodipodi.sourceforge.net/DTD/sodipodi-0.dtd"
   xmlns:inkscape="http://www.inkscape.org/namespaces/inkscape"
   version="1.1"
   x="0px"
   y="0px"
   width="18"
   height="50"
   viewBox="0 0 18 50"
   enable-background="new 0 0 1000 1000"
   xml:space="preserve"
   id="svg2"
   inkscape:version="0.48.5 r10040"
   sodipodi:docname="IL_96_wing_R_2.svg"><metadata
     id="metadata144"><rdf:RDF><cc:Work
         rdf:about=""><dc:format>image/svg+xml</dc:format><dc:type
           rdf:resource="http://purl.org/dc/dcmitype/StillImage" /><dc:title></dc:title></cc:Work></rdf:RDF></metadata><defs
     id="defs142"><linearGradient
       id="linearGradient3889"><stop
         style="stop-color:#765337;stop-opacity:1"
         offset="0"
         id="stop3891" /><stop
         id="stop3899"
         offset="0.36922726"
         style="stop-color:#c19069;stop-opacity:1;" /><stop
         id="stop3897"
         offset="0.64477599"
         style="stop-color:#c19069;stop-opacity:1;" /><stop
         style="stop-color:#765337;stop-opacity:1"
         offset="1"
         id="stop3893" /></linearGradient><linearGradient
       inkscape:collect="always"
       xlink:href="#linearGradient3889"
       id="linearGradient3895"
       x1="455.32599"
       y1="439.8335"
       x2="543.28198"
       y2="439.8335"
       gradientUnits="userSpaceOnUse" /><linearGradient
       inkscape:collect="always"
       xlink:href="#linearGradient3889"
       id="linearGradient4225"
       gradientUnits="userSpaceOnUse"
       x1="455.32599"
       y1="439.8335"
       x2="543.28198"
       y2="439.8335"
       gradientTransform="matrix(0.18637916,0,0,0.18637916,-6.0599533,-0.58422049)" /><linearGradient
       inkscape:collect="always"
       xlink:href="#linearGradient3889"
       id="linearGradient4235"
       gradientUnits="userSpaceOnUse"
       gradientTransform="matrix(0.18637916,0,0,0.18637916,-6.0599533,-0.58422049)"
       x1="455.32599"
       y1="439.8335"
       x2="543.28198"
       y2="439.8335" /><linearGradient
       inkscape:collect="always"
       xlink:href="#linearGradient3889"
       id="linearGradient4239"
       gradientUnits="userSpaceOnUse"
       gradientTransform="matrix(0.18637916,0,0,0.18637916,-84.059953,-0.8029705)"
       x1="455.32599"
       y1="439.8335"
       x2="543.28198"
       y2="439.8335" /></defs><sodipodi:namedview
     pagecolor="#ffffff"
     bordercolor="#666666"
     borderopacity="1"
     objecttolerance="10"
     gridtolerance="10"
     guidetolerance="10"
     inkscape:pageopacity="0"
     inkscape:pageshadow="2"
     inkscape:window-width="1920"
     inkscape:window-height="1060"
     id="namedview140"
     showgrid="false"
     inkscape:zoom="5.4963219"
     inkscape:cx="16.591605"
     inkscape:cy="-28.149343"
     inkscape:window-x="-2"
     inkscape:window-y="-3"
     inkscape:window-maximized="1"
     inkscape:current-layer="svg2"
     fit-margin-top="1"
     fit-margin-left="1"
     fit-margin-right="1"
     fit-margin-bottom="1" /><path
     style="fill:url(#linearGradient4239);fill-opacity:1;stroke:none"
     d="m 9,0.875 c -2.417524,0 -5.423653,8.5458683 -5.9375,9.90625 -0.513848,1.360381 -2.15625,9.971187 -2.15625,15.53125 l 0,22.90625 16.1875,0 0,-22.90625 c 0,-5.560249 -1.642403,-14.171055 -2.15625,-15.53125 C 14.423653,9.4210546 11.417524,0.875 9,0.875 z"
     id="path113"
     inkscape:connector-curvature="0" /><path
     style="font-size:medium;font-style:normal;font-variant:normal;font-weight:normal;font-stretch:normal;text-indent:0;text-align:start;text-decoration:none;line-height:normal;letter-spacing:normal;word-spacing:normal;text-transform:none;direction:ltr;block-progression:tb;writing-mode:lr-tb;text-anchor:start;baseline-shift:baseline;color:#000000;fill:#000000;fill-opacity:1;fill-rule:nonzero;stroke:none;stroke-width:0.18637916;marker:none;visibility:visible;display:inline;overflow:visible;enable-background:accumulate;font-family:Sans;-inkscape-font-specification:Sans"
     d="m 9,0.78125 c -0.659304,0 -1.300861,0.5747658 -1.9375,1.40625 -0.636639,0.8314842 -1.283112,1.9369781 -1.84375,3.09375 -1.121275,2.3135438 -1.994643,4.792707 -2.25,5.46875 -0.134117,0.355066 -0.335087,1.131477 -0.5625,2.21875 -0.227413,1.087273 -0.480035,2.489626 -0.71875,4 -0.477429,3.020748 -0.875,6.554495 -0.875,9.34375 l 0,22.90625 0.1875,0 L 1,26.3125 C 1,23.541692 1.398494,20.014908 1.875,17 2.113253,15.492546 2.367091,14.114915 2.59375,13.03125 2.820409,11.947585 3.033443,11.137625 3.15625,10.8125 3.41474,10.128162 4.291068,7.6759713 5.40625,5.375 5.963841,4.2245144 6.564298,3.0951851 7.1875,2.28125 7.810702,1.4673149 8.450542,0.96875 9,0.96875 c 0.549457,0 1.189297,0.4985503 1.8125,1.3125 0.623203,0.8139497 1.223659,1.9432526 1.78125,3.09375 1.115182,2.3009948 1.991506,4.753245 2.25,5.4375 0.122804,0.325073 0.335841,1.135108 0.5625,2.21875 C 15.632909,14.114892 15.886747,15.492546 16.125,17 16.601506,20.014908 17,23.541599 17,26.3125 l 0,22.90625 0.1875,0 0,-22.90625 c 0,-2.789348 -0.397571,-6.323002 -0.875,-9.34375 -0.238715,-1.510374 -0.491337,-2.91275 -0.71875,-4 C 15.366337,11.8815 15.165369,11.105025 15.03125,10.75 14.775897,10.07406 13.902525,7.5948169 12.78125,5.28125 12.220613,4.1244666 11.574139,3.0189987 10.9375,2.1875 10.300861,1.3560013 9.659305,0.78125 9,0.78125 z"
     id="path4227"
     inkscape:connector-curvature="0" /><path
     style="fill:#383838;stroke:#000000;stroke-width:0.18637916;stroke-miterlimit:10"
     inkscape:connector-curvature="0"
     id="path117"
     d="M 7.216817,3.871978 V 3.4837502 C 7.72936,2.5363849 9.000093,2.5207291 9.000093,2.5207291 c 0,0 1.294403,0.015656 1.806946,0.9630211 V 3.871978 C 10.263371,3.2817152 9.000093,3.3672632 9.000093,3.3672632 c 0,0 -1.239608,-0.085362 -1.783276,0.5047148 z"
     stroke-miterlimit="10" /><path
     style="fill:#383838;stroke:#000000;stroke-width:0.18637916;stroke-miterlimit:10"
     inkscape:connector-curvature="0"
     id="path119"
     d="m 6.859715,3.7478495 -0.01566,0.5125426 c 0,0 -0.960598,0.8774731 -1.597269,2.9121744 l 0.03112,-0.9085984 c 0.419167,-1.2737152 1.5818,-2.5161186 1.5818,-2.5161186 z"
     stroke-miterlimit="10" /><path
     style="fill:#383838;stroke:#000000;stroke-width:0.18637916;stroke-miterlimit:10"
     inkscape:connector-curvature="0"
     id="path121"
     d="m 11.179797,3.7478495 0.01566,0.5125426 c 0,0 0.960412,0.8774731 1.596897,2.9121744 L 12.761411,6.2639681 C 12.342058,4.9902529 11.179797,3.7478495 11.179797,3.7478495 z"
     stroke-miterlimit="10" /><path
     inkscape:connector-curvature="0"
     style="fill:none;stroke:#000000;stroke-width:0.18637916;stroke-miterlimit:10"
     id="path123"
     d="m 14.255054,12.033894 0.254966,2.184737 c 0.9291,0 1.27912,0.362321 1.27912,0.362321 0,0 -0.249188,-1.546015 -0.363998,-2.065454 -0.121519,-0.381145 -1.170088,-0.481604 -1.170088,-0.481604 z"
     stroke-miterlimit="10" /><path
     inkscape:connector-curvature="0"
     style="fill:none;stroke:#000000;stroke-width:0.18637916;stroke-miterlimit:10"
     id="path125"
     d="m 3.763771,12.033894 -0.254967,2.184737 c -0.9291,0 -1.27912,0.362321 -1.27912,0.362321 0,0 0.249189,-1.546015 0.363998,-2.065454 0.12152,-0.381145 1.170089,-0.481604 1.170089,-0.481604 z"
     stroke-miterlimit="10" /></svg>