<?xml version="1.0" encoding="UTF-8" standalone="no"?>
<!-- Generator: Adobe Illustrator 15.1.0, SVG Export Plug-In . SVG Version: 6.00 Build 0)  -->

<svg
   xmlns:dc="http://purl.org/dc/elements/1.1/"
   xmlns:cc="http://creativecommons.org/ns#"
   xmlns:rdf="http://www.w3.org/1999/02/22-rdf-syntax-ns#"
   xmlns:svg="http://www.w3.org/2000/svg"
   xmlns="http://www.w3.org/2000/svg"
   xmlns:sodipodi="http://sodipodi.sourceforge.net/DTD/sodipodi-0.dtd"
   xmlns:inkscape="http://www.inkscape.org/namespaces/inkscape"
   version="1.1"
   x="0px"
   y="0px"
   width="27"
   height="11"
   viewBox="0 0 27 11"
   enable-background="new 0 0 1000 1000"
   xml:space="preserve"
   id="svg2"
   inkscape:version="0.48.5 r10040"
   sodipodi:docname="Dash8_Q400_wing_L_2.svg"><metadata
     id="metadata124"><rdf:RDF><cc:Work
         rdf:about=""><dc:format>image/svg+xml</dc:format><dc:type
           rdf:resource="http://purl.org/dc/dcmitype/StillImage" /><dc:title /></cc:Work></rdf:RDF></metadata><defs
     id="defs122" /><sodipodi:namedview
     pagecolor="#ffffff"
     bordercolor="#666666"
     borderopacity="1"
     objecttolerance="10"
     gridtolerance="10"
     guidetolerance="10"
     inkscape:pageopacity="0"
     inkscape:pageshadow="2"
     inkscape:window-width="1920"
     inkscape:window-height="1060"
     id="namedview120"
     showgrid="false"
     inkscape:zoom="15.104"
     inkscape:cx="39.989159"
     inkscape:cy="9.4336418"
     inkscape:window-x="-2"
     inkscape:window-y="-3"
     inkscape:window-maximized="1"
     inkscape:current-layer="L_Wing"
     fit-margin-top="1"
     fit-margin-left="1"
     fit-margin-right="1"
     fit-margin-bottom="1" /><g
     id="L_Wing"
     transform="matrix(0.10891917,0,0,0.10891917,-10.514799,-39.213256)"><path
       style="fill:#c19069;fill-opacity:1;stroke:none"
       d="m 24.9375,40.46875 -23.59375,2.1875 c 0,0 -0.28125,0.279768 -0.28125,1.1875 l 0,3.21875 24.8125,1.625 c -0.479598,-4.114474 -0.713055,-6.20171 -0.9375,-8.21875 z"
       transform="matrix(9.1811205,0,0,9.1811205,96.537622,-4.4936203)"
       id="path47"
       inkscape:connector-curvature="0" /><path
       style="font-size:medium;font-style:normal;font-variant:normal;font-weight:normal;font-stretch:normal;text-indent:0;text-align:start;text-decoration:none;line-height:normal;letter-spacing:normal;word-spacing:normal;text-transform:none;direction:ltr;block-progression:tb;writing-mode:lr-tb;text-anchor:start;baseline-shift:baseline;color:#000000;fill:#000000;fill-opacity:1;fill-rule:nonzero;stroke:none;stroke-width:1;marker:none;visibility:visible;display:inline;overflow:visible;enable-background:accumulate;font-family:Sans;-inkscape-font-specification:Sans"
       d="m 9.34375,45.3125 0,0.03125 0,0.65625 -8.28125,0 0,0.125 8.28125,0 0,1.46875 0,0.0625 0.0625,0 16.5,1.09375 C 25.89885,48.68645 25.8824,48.68852 25.875,48.625 l -16.40625,-1.0625 0,-2.15625 16.09375,0.3125 c -0.0067,-0.05896 -0.02458,-0.06641 -0.03125,-0.125 l -16.125,-0.28125 -0.0625,0 z"
       transform="matrix(9.1811205,0,0,9.1811205,96.537622,-4.4936203)"
       id="path49"
       inkscape:connector-curvature="0" /><path
       stroke-miterlimit="10"
       d="m 310.236,440.881 c 0,0 -1.681,10.378 -3.014,10.378 -1.333,0 -1.88,-10.697 -1.88,-10.697 l 4.894,0.319 z"
       id="path59"
       style="fill:#c19069;fill-opacity:1;stroke:#000000;stroke-miterlimit:10"
       inkscape:connector-curvature="0" /><path
       stroke-miterlimit="10"
       d="m 248.306,436.766 c 0,0 -1.681,10.378 -3.014,10.378 -1.333,0 -1.88,-10.697 -1.88,-10.697 l 4.894,0.319 z"
       id="path61"
       style="fill:#c19069;fill-opacity:1;stroke:#000000;stroke-miterlimit:10"
       inkscape:connector-curvature="0" /><path
       style="font-size:medium;font-style:normal;font-variant:normal;font-weight:normal;font-stretch:normal;text-indent:0;text-align:start;text-decoration:none;line-height:normal;letter-spacing:normal;word-spacing:normal;text-transform:none;direction:ltr;block-progression:tb;writing-mode:lr-tb;text-anchor:start;baseline-shift:baseline;color:#000000;fill:#000000;fill-opacity:1;fill-rule:nonzero;stroke:none;stroke-width:1;marker:none;visibility:visible;display:inline;overflow:visible;enable-background:accumulate;font-family:Sans;-inkscape-font-specification:Sans"
       d="M 24.9375,40.40625 1.34375,42.625 l -0.03125,0 c 0,0 -0.032776,0.02102 -0.0625,0.0625 C 1.220276,42.72898 1.194112,42.78272 1.15625,42.875 1.080525,43.059556 1,43.384074 1,43.84375 l 0,3.21875 0,0.0625 0.0625,0 24.84375,1.625 C 25.89885,48.68645 25.8824,48.68852 25.875,48.625 L 1.09375,47 l 0,-3.15625 C 1.09375,43.395694 1.180481,43.106931 1.25,42.9375 1.284759,42.85278 1.319008,42.78453 1.34375,42.75 1.362349,42.72404 1.370421,42.72318 1.375,42.71875 l 23.59375,-2.1875 c -0.0035,-0.03165 -0.02784,-0.09433 -0.03125,-0.125 z"
       transform="matrix(9.1811205,0,0,9.1811205,96.537622,-4.4936203)"
       id="path3922"
       inkscape:connector-curvature="0" /></g></svg>