<?xml version="1.0" encoding="UTF-8" standalone="no"?>
<!-- Generator: Adobe Illustrator 15.1.0, SVG Export Plug-In . SVG Version: 6.00 Build 0)  -->

<svg
   xmlns:dc="http://purl.org/dc/elements/1.1/"
   xmlns:cc="http://creativecommons.org/ns#"
   xmlns:rdf="http://www.w3.org/1999/02/22-rdf-syntax-ns#"
   xmlns:svg="http://www.w3.org/2000/svg"
   xmlns="http://www.w3.org/2000/svg"
   xmlns:sodipodi="http://sodipodi.sourceforge.net/DTD/sodipodi-0.dtd"
   xmlns:inkscape="http://www.inkscape.org/namespaces/inkscape"
   version="1.1"
   x="0px"
   y="0px"
   width="23"
   height="31"
   viewBox="0 0 23 31.000001"
   enable-background="new 0 0 1000 1000"
   xml:space="preserve"
   id="svg2"
   inkscape:version="0.48.5 r10040"
   sodipodi:docname="Dash8_Q400_wing_R_1.svg"><metadata
     id="metadata124"><rdf:RDF><cc:Work
         rdf:about=""><dc:format>image/svg+xml</dc:format><dc:type
           rdf:resource="http://purl.org/dc/dcmitype/StillImage" /><dc:title /></cc:Work></rdf:RDF></metadata><defs
     id="defs122" /><sodipodi:namedview
     pagecolor="#ffffff"
     bordercolor="#666666"
     borderopacity="1"
     objecttolerance="10"
     gridtolerance="10"
     guidetolerance="10"
     inkscape:pageopacity="0"
     inkscape:pageshadow="2"
     inkscape:window-width="1920"
     inkscape:window-height="1060"
     id="namedview120"
     showgrid="false"
     inkscape:zoom="15.104"
     inkscape:cx="13.979911"
     inkscape:cy="15.121337"
     inkscape:window-x="-2"
     inkscape:window-y="-3"
     inkscape:window-maximized="1"
     inkscape:current-layer="svg2"
     fit-margin-top="1"
     fit-margin-left="1"
     fit-margin-right="1"
     fit-margin-bottom="1" /><g
     id="L_Wing"
     transform="matrix(-0.10891917,0,0,0.10891917,57.8936,-28.298857)"><path
       stroke-miterlimit="10"
       d="m 519.406,472.039 c -15.652,0 -16.185,6.221 -21.518,6.221 -5.333,0 -11.666,-14.993 -11.666,-14.993 V 448.26 c 0,0 -69.667,-2.333 -85.667,-2.333 0,-24.667 -5,-69.055 -5,-69.055 0,0 1.333,-14.278 7,-14.278 5.667,0 87,-10.333 87,-10.333 0,0 1.999,-19.667 16.333,-19.667 14.334,0 6.361,14.241 16.459,14.241"
       id="path45"
       style="fill:#c19069;fill-opacity:1;stroke:none"
       inkscape:connector-curvature="0" /><path
       style="fill:#c19069;fill-opacity:1;stroke:none"
       d="m 29.59375,40.03125 -4.65625,0.4375 c 0.224445,2.01704 0.457902,4.104276 0.9375,8.21875 l 3.59375,0.21875 c 0,-4.574605 0.65625,-6.586445 0.65625,-7.3125 0,-0.726055 -0.53125,-1.5625 -0.53125,-1.5625 z"
       id="path47"
       inkscape:connector-curvature="0"
       transform="matrix(9.1811205,0,0,9.1811205,96.537622,-4.4936203)" /><path
       style="font-size:medium;font-style:normal;font-variant:normal;font-weight:normal;font-stretch:normal;text-indent:0;text-align:start;text-decoration:none;line-height:normal;letter-spacing:normal;word-spacing:normal;text-transform:none;direction:ltr;block-progression:tb;writing-mode:lr-tb;text-anchor:start;baseline-shift:baseline;color:#000000;fill:#000000;fill-opacity:1;fill-rule:nonzero;stroke:none;stroke-width:1;marker:none;visibility:visible;display:inline;overflow:visible;enable-background:accumulate;font-family:Sans;-inkscape-font-specification:Sans"
       d="m 25.53125,45.59375 c 0.0067,0.05859 0.02453,0.06604 0.03125,0.125 l 3.96875,0.0625 c -0.0041,0.07771 -0.08967,2.112069 -0.09375,3.0625 L 25.875,48.625 c 0.0074,0.06352 0.02384,0.06145 0.03125,0.125 l 3.5625,0.21875 0.0625,0 0,-0.0625 c 0,-0.93034 0.125,-3.1875 0.125,-3.1875 l 0,-0.0625 -0.0625,0 -4.0625,-0.0625 z m 7.375,0.1875 0,0.0625 c 0,0 0.15625,2.207443 0.15625,3.21875 l 0,0.0625 0.0625,0 9.65625,0.21875 0.03125,0 0,-0.0625 0,-3.28125 0,-0.03125 -0.03125,0 -9.8125,-0.1875 -0.0625,0 z m 0.125,0.125 9.6875,0.15625 0,3.1875 -9.5625,-0.25 c -0.0038,-1.014122 -0.118504,-2.995853 -0.125,-3.09375 z"
       id="path49"
       inkscape:connector-curvature="0"
       transform="matrix(9.1811205,0,0,9.1811205,96.537622,-4.4936203)" /><polygon
       stroke-miterlimit="10"
       points="353.056,364.349 344.39,365.162 344.39,370.759 353.056,369.926 "
       id="polygon55"
       style="fill:#303030;stroke:#000000;stroke-miterlimit:10" /><polygon
       stroke-miterlimit="10"
       points="362.229,368.509 362.229,363.488 355.306,364.182 355.306,369.259 "
       id="polygon57"
       style="fill:#303030;stroke:#000000;stroke-miterlimit:10" /><path
       style="font-size:medium;font-style:normal;font-variant:normal;font-weight:normal;font-stretch:normal;text-indent:0;text-align:start;text-decoration:none;line-height:normal;letter-spacing:normal;word-spacing:normal;text-transform:none;direction:ltr;block-progression:tb;writing-mode:lr-tb;text-anchor:start;baseline-shift:baseline;color:#000000;fill:#000000;fill-opacity:1;fill-rule:nonzero;stroke:none;stroke-width:1;marker:none;visibility:visible;display:inline;overflow:visible;enable-background:accumulate;font-family:Sans;-inkscape-font-specification:Sans"
       d="m 505.875,332.09375 c -3.69784,0 -6.62638,1.2795 -8.90625,3.1875 -2.27987,1.908 -3.89567,4.4339 -5.0625,6.9375 -2.17103,4.65827 -2.71017,8.93833 -2.78125,9.5625 -0.36177,0.046 -20.14943,2.59646 -41,5.15625 -10.52014,1.29154 -21.23673,2.5628 -29.65625,3.53125 -4.20976,0.48422 -7.83121,0.90534 -10.59375,1.1875 -2.76254,0.28216 -4.6801,0.4375 -5.3125,0.4375 -1.62671,0 -2.93346,1.02503 -3.90625,2.4375 -0.97279,1.41247 -1.6894,3.24849 -2.21875,5.0625 -1.0587,3.62802 -1.375,7.21875 -1.375,7.21875 l 0,0.0625 0,0.0625 c 0,0 5,44.40057 5,69 l 0,0.5 0.5,0 c 15.84305,0 84.22154,2.24999 85.15625,2.28125 l 0,14.5625 0,0.0937 0.0312,0.0937 c 0,0 1.6027,3.77688 3.875,7.5625 1.13615,1.89281 2.45727,3.76837 3.84375,5.21875 1.38648,1.45038 2.83872,2.5 4.40625,2.5 1.43046,0 2.5718,-0.42572 3.65625,-1.03125 1.08445,-0.60553 2.15088,-1.36378 3.5,-2.125 2.69823,-1.52244 6.61524,-3.0625 14.375,-3.0625 l 0,-1 c -7.89224,0 -12.06048,1.59944 -14.875,3.1875 -1.40726,0.79403 -2.46423,1.5641 -3.46875,2.125 -1.00452,0.5609 -1.95146,0.90625 -3.1875,0.90625 -1.09897,0 -2.38664,-0.82669 -3.6875,-2.1875 -1.30086,-1.36081 -2.60503,-3.20706 -3.71875,-5.0625 -2.20879,-3.67981 -3.72392,-7.31343 -3.75,-7.375 l 0,-14.875 0,-0.46875 -0.4687,-0.0312 c 0,0 -68.73842,-2.29033 -85.21875,-2.3125 -0.0581,-24.77082 -4.95055,-68.36976 -4.96875,-68.53125 0,0 -3e-5,-0.0309 0,-0.0312 -10e-6,-1.3e-4 0,-0.0625 0,-0.0625 0.0139,-0.14432 0.3408,-3.50053 1.34375,-6.9375 0.51227,-1.75549 1.19151,-3.51659 2.0625,-4.78125 0.87099,-1.26466 1.88696,-2 3.09375,-2 0.78435,0 2.6362,-0.15457 5.40625,-0.4375 2.77005,-0.28293 6.41287,-0.703 10.625,-1.1875 8.42426,-0.96899 19.13476,-2.23954 29.65625,-3.53125 21.04297,-2.58342 41.375,-5.1875 41.375,-5.1875 l 0.375,-0.0312 0.0625,-0.40625 c 0,0 0.50066,-4.8612 2.75,-9.6875 1.12467,-2.41315 2.68612,-4.78294 4.8125,-6.5625 2.12638,-1.77956 4.78084,-2.96875 8.25,-2.96875 3.50071,0 5.55442,0.85738 6.875,2.09375 1.32058,1.23637 1.94488,2.89794 2.46875,4.65625 0.52387,1.75831 0.93323,3.58225 1.90625,5.03125 0.97302,1.449 2.57673,2.46875 5.21875,2.46875 l 0,-1 c -2.40698,0 -3.58621,-0.77882 -4.40625,-2 -0.82004,-1.22118 -1.21312,-2.97931 -1.75,-4.78125 -0.53688,-1.80194 -1.21852,-3.65993 -2.75,-5.09375 -1.53148,-1.43382 -3.89621,-2.375 -7.5625,-2.375 z"
       id="path3920"
       inkscape:connector-curvature="0" /><path
       style="font-size:medium;font-style:normal;font-variant:normal;font-weight:normal;font-stretch:normal;text-indent:0;text-align:start;text-decoration:none;line-height:normal;letter-spacing:normal;word-spacing:normal;text-transform:none;direction:ltr;block-progression:tb;writing-mode:lr-tb;text-anchor:start;baseline-shift:baseline;color:#000000;fill:#000000;fill-opacity:1;fill-rule:nonzero;stroke:none;stroke-width:1;marker:none;visibility:visible;display:inline;overflow:visible;enable-background:accumulate;font-family:Sans;-inkscape-font-specification:Sans"
       d="m 29.59375,39.96875 -4.65625,0.4375 c 0.0034,0.03067 0.02773,0.09335 0.03125,0.125 l 4.59375,-0.4375 c 0.03097,0.04876 0.53125,0.822675 0.53125,1.5 0,0.346688 -0.180089,1.014597 -0.34375,2.1875 -0.162182,1.1623 -0.309582,2.80467 -0.3125,5.0625 L 25.875,48.625 c 0.0074,0.06352 0.02384,0.06145 0.03125,0.125 l 3.5625,0.21875 0.0625,0 0,-0.0625 c 0,-2.284709 0.180653,-3.92489 0.34375,-5.09375 0.163097,-1.16886 0.3125,-1.839382 0.3125,-2.21875 C 30.1875,40.840462 29.625,40 29.625,40 l 0,-0.03125 -0.03125,0 z"
       id="path3922"
       inkscape:connector-curvature="0"
       transform="matrix(9.1811205,0,0,9.1811205,96.537622,-4.4936203)" /></g><g
     id="Layer_7"
     transform="matrix(-0.10891917,0,0,0.10891917,57.8936,-28.298857)"><path
       stroke-miterlimit="10"
       d="m 382.71,283.249 c -10e-4,0.839 -9.291,1.961 -17.059,2.798 -7.768,0.836 -23.135,0.105 -23.664,-1.626 -0.527,-1.729 16.829,-5.029 22.887,-4.382 6.06,0.648 17.835,2.372 17.836,3.21 z"
       id="path66"
       style="fill:#c19069;fill-opacity:1;stroke:#000000;stroke-miterlimit:10"
       inkscape:connector-curvature="0" /><path
       stroke-miterlimit="10"
       d="m 390.842,283.762 c 0.001,0.839 9.291,1.961 17.059,2.798 7.768,0.836 23.135,0.105 23.664,-1.626 0.527,-1.729 -16.829,-5.029 -22.887,-4.382 -6.06,0.648 -17.835,2.371 -17.836,3.21 z"
       id="path70"
       style="fill:#c19069;fill-opacity:1;stroke:#000000;stroke-miterlimit:10"
       inkscape:connector-curvature="0" /><path
       stroke-miterlimit="10"
       d="m 384.704,534.675 c -22.25,-46.25 -16.986,-64.115 -17.376,-90.083 0.003,-38.167 5.747,-61.75 6,-67.333 0.253,-5.583 -5,-14.333 -5,-14.333 0,0 3.003,-48.75 3.753,-62.75 0.75,-14 9,-17 9,-17 h 12.5 c 0,0 8.5,3.5 8.5,17.75 0,14.25 0,61.723 0,61.723 0,0 -5.084,0.417 -6.417,14.222 0.394,13.533 5.333,37.825 5,69.055 0.588,24.243 -1.96,37.999 -15.96,88.749 z"
       id="path72"
       style="fill:#c19069;fill-opacity:1;stroke:#000000;stroke-miterlimit:10"
       inkscape:connector-curvature="0" /><path
       stroke-miterlimit="10"
       d="m 388.162,283.175 c 0,0 3.625,0 5.375,0 0,-5.875 -5.873,-9.125 -5.873,-9.125 0,0 -5.958,3.25 -5.958,9.125 1.75,0 5.375,0 5.375,0 h 1.081 z"
       id="path74"
       style="fill:#000000;fill-opacity:1;stroke:#000000;stroke-miterlimit:10"
       inkscape:connector-curvature="0" /><line
       stroke-miterlimit="10"
       x1="392.01501"
       y1="507.43701"
       x2="373.51501"
       y2="507.43701"
       id="line80"
       style="fill:#c19069;fill-opacity:1;stroke:#000000;stroke-miterlimit:10" /></g></svg>