<?xml version="1.0" encoding="UTF-8" standalone="no"?>
<!-- Generator: Adobe Illustrator 15.1.0, SVG Export Plug-In . SVG Version: 6.00 Build 0)  -->

<svg
   xmlns:dc="http://purl.org/dc/elements/1.1/"
   xmlns:cc="http://creativecommons.org/ns#"
   xmlns:rdf="http://www.w3.org/1999/02/22-rdf-syntax-ns#"
   xmlns:svg="http://www.w3.org/2000/svg"
   xmlns="http://www.w3.org/2000/svg"
   xmlns:sodipodi="http://sodipodi.sourceforge.net/DTD/sodipodi-0.dtd"
   xmlns:inkscape="http://www.inkscape.org/namespaces/inkscape"
   version="1.1"
   x="0px"
   y="0px"
   width="10"
   height="32"
   viewBox="0 0 10 32.000001"
   enable-background="new 0 0 1000 1000"
   xml:space="preserve"
   id="svg2"
   inkscape:version="0.48.5 r10040"
   sodipodi:docname="Dash8_Q400_fuselage_1.svg"><metadata
     id="metadata124"><rdf:RDF><cc:Work
         rdf:about=""><dc:format>image/svg+xml</dc:format><dc:type
           rdf:resource="http://purl.org/dc/dcmitype/StillImage" /><dc:title /></cc:Work></rdf:RDF></metadata><defs
     id="defs122" /><sodipodi:namedview
     pagecolor="#ffffff"
     bordercolor="#666666"
     borderopacity="1"
     objecttolerance="10"
     gridtolerance="10"
     guidetolerance="10"
     inkscape:pageopacity="0"
     inkscape:pageshadow="2"
     inkscape:window-width="1920"
     inkscape:window-height="1060"
     id="namedview120"
     showgrid="false"
     inkscape:zoom="7.552"
     inkscape:cx="16.430717"
     inkscape:cy="2.430569"
     inkscape:window-x="-2"
     inkscape:window-y="-3"
     inkscape:window-maximized="1"
     inkscape:current-layer="svg2"
     fit-margin-top="1"
     fit-margin-left="1"
     fit-margin-right="1"
     fit-margin-bottom="1" /><path
     style="fill:#c19069;fill-opacity:1;stroke:none"
     d="m 5.1713933,1.5 c -1.394492,0 -4.09375,6.204239 -4.09375,13.9375 l 0,15.5625 8.34375,0 0,-15.5625 c 0,-7.733261 -2.730616,-13.9375 -4.125,-13.9375 l -0.125,0 z"
     id="path7"
     inkscape:connector-curvature="0" /><path
     style="fill:#303030;stroke:#000000;stroke-width:0.10891917;stroke-miterlimit:10"
     inkscape:connector-curvature="0"
     id="path9"
     d="m 5.4094627,4.4507075 v 1.2934152 c 0,0 0.844124,-0.040845 1.715477,0.9666576 L 7.7239957,6.5201717 C 7.0024057,4.7502352 5.4094627,4.4507075 5.4094627,4.4507075 z"
     stroke-miterlimit="10" /><path
     style="fill:#303030;stroke:#000000;stroke-width:0.10891917;stroke-miterlimit:10"
     inkscape:connector-curvature="0"
     id="path11"
     d="m 7.8613427,6.766438 -0.55429,0.2201256 c 0,0 0.648396,1.9026001 1.35637,2.6922641 C 8.2277467,7.5685188 7.8613427,6.766438 7.8613427,6.766438 z"
     stroke-miterlimit="10" /><path
     style="fill:#303030;stroke:#000000;stroke-width:0.10891917;stroke-miterlimit:10"
     inkscape:connector-curvature="0"
     id="path13"
     d="m 5.0660407,4.4507075 v 1.2934152 c 0,0 -0.844123,-0.040845 -1.715477,0.9666576 L 2.7515087,6.5201717 c 0.721589,-1.7699365 2.314532,-2.0694642 2.314532,-2.0694642 z"
     stroke-miterlimit="10" /><path
     style="fill:#303030;stroke:#000000;stroke-width:0.10891917;stroke-miterlimit:10"
     inkscape:connector-curvature="0"
     id="path15"
     d="m 2.6142707,6.766438 0.554289,0.2201256 c 0,0 -0.648396,1.9026001 -1.35637,2.6922641 0.435568,-2.1103089 0.802081,-2.9123897 0.802081,-2.9123897 z"
     stroke-miterlimit="10" /><path
     inkscape:connector-curvature="0"
     style="fill:#c19069;fill-opacity:1;stroke:#000000;stroke-width:0.10891917;stroke-miterlimit:10"
     id="path17"
     d="m 8.8668837,13.30039 c 0,0 0,1.071002 0,1.706437 0.533922,0.09008 0.54623,0.544596 0.54623,0.544596 0,0 -0.03529,-1.236669 -0.03529,-1.653829 0,-0.417161 -0.51094,-0.597204 -0.51094,-0.597204 z"
     stroke-miterlimit="10" /><path
     inkscape:connector-curvature="0"
     style="fill:#c19069;fill-opacity:1;stroke:#000000;stroke-width:0.10891917;stroke-miterlimit:10"
     id="path19"
     d="m 1.6087287,13.30039 c 0,0 0,1.071002 0,1.706437 -0.533922,0.09008 -0.54623,0.544596 -0.54623,0.544596 0,0 0.03529,-1.236669 0.03529,-1.653829 0,-0.417161 0.51094,-0.597204 0.51094,-0.597204 z"
     stroke-miterlimit="10" /><path
     style="font-size:medium;font-style:normal;font-variant:normal;font-weight:normal;font-stretch:normal;text-indent:0;text-align:start;text-decoration:none;line-height:normal;letter-spacing:normal;word-spacing:normal;text-transform:none;direction:ltr;block-progression:tb;writing-mode:lr-tb;text-anchor:start;baseline-shift:baseline;color:#000000;fill:#000000;fill-opacity:1;fill-rule:nonzero;stroke:none;stroke-width:0.10891917;marker:none;visibility:visible;display:inline;overflow:visible;enable-background:accumulate;font-family:Sans;-inkscape-font-specification:Sans"
     d="m 5.1713933,1.4375 c -0.194449,0 -0.380305,0.1232516 -0.59375,0.3125 -0.213445,0.1892484 -0.460082,0.4592192 -0.6875,0.8125 -0.454836,0.7065615 -0.915391,1.7088626 -1.34375,2.96875 -0.856717,2.5197748 -1.53125,6.033232 -1.53125,9.90625 l 0,15.5625 0.09375,0 0,-15.5625 c 0,-3.860243 0.678726,-7.3363062 1.53125,-9.84375 0.426262,-1.2537219 0.896153,-2.2734333 1.34375,-2.96875 0.223799,-0.3476583 0.453963,-0.6331447 0.65625,-0.8125 0.202287,-0.1793553 0.377076,-0.25 0.53125,-0.25 l 0.125,0 c 0.154159,0 0.32897,0.070645 0.53125,0.25 0.20228,0.1793554 0.432454,0.4648415 0.65625,0.8125 0.447592,0.6953169 0.917481,1.715028 1.34375,2.96875 0.852538,2.5074439 1.53125,5.983508 1.53125,9.84375 l 0,15.5625 0.09375,0 0,-15.5625 c 0,-3.873019 -0.67452,-7.3864754 -1.53125,-9.90625 C 7.4930283,4.2713626 7.0324733,3.2690613 6.5776433,2.5625 6.3502283,2.2092194 6.1348303,1.9392483 5.9213933,1.75 5.7079563,1.5607517 5.4908303,1.4375 5.2963933,1.4375 l -0.125,0 z"
     id="path4017"
     inkscape:connector-curvature="0" /></svg>