<?xml version="1.0" encoding="UTF-8" standalone="no"?>
<!-- Generator: Adobe Illustrator 15.1.0, SVG Export Plug-In . SVG Version: 6.00 Build 0)  -->

<svg
   xmlns:dc="http://purl.org/dc/elements/1.1/"
   xmlns:cc="http://creativecommons.org/ns#"
   xmlns:rdf="http://www.w3.org/1999/02/22-rdf-syntax-ns#"
   xmlns:svg="http://www.w3.org/2000/svg"
   xmlns="http://www.w3.org/2000/svg"
   xmlns:sodipodi="http://sodipodi.sourceforge.net/DTD/sodipodi-0.dtd"
   xmlns:inkscape="http://www.inkscape.org/namespaces/inkscape"
   version="1.1"
   x="0px"
   y="0px"
   width="27"
   height="11"
   viewBox="0 0 27 11"
   enable-background="new 0 0 1000 1000"
   xml:space="preserve"
   id="svg2"
   inkscape:version="0.48.5 r10040"
   sodipodi:docname="Dash8_Q400_wing_R_2.svg"><metadata
     id="metadata124"><rdf:RDF><cc:Work
         rdf:about=""><dc:format>image/svg+xml</dc:format><dc:type
           rdf:resource="http://purl.org/dc/dcmitype/StillImage" /><dc:title /></cc:Work></rdf:RDF></metadata><defs
     id="defs122" /><sodipodi:namedview
     pagecolor="#ffffff"
     bordercolor="#666666"
     borderopacity="1"
     objecttolerance="10"
     gridtolerance="10"
     guidetolerance="10"
     inkscape:pageopacity="0"
     inkscape:pageshadow="2"
     inkscape:window-width="1920"
     inkscape:window-height="1060"
     id="namedview120"
     showgrid="false"
     inkscape:zoom="15.104"
     inkscape:cx="39.989159"
     inkscape:cy="9.4336418"
     inkscape:window-x="-2"
     inkscape:window-y="-3"
     inkscape:window-maximized="1"
     inkscape:current-layer="L_Wing"
     fit-margin-top="1"
     fit-margin-left="1"
     fit-margin-right="1"
     fit-margin-bottom="1" /><g
     id="L_Wing"
     transform="matrix(0.10891917,0,0,0.10891917,-10.514799,-39.213256)"><path
       style="fill:#c19069;fill-opacity:1;stroke:none"
       d="m 114.61295,367.05485 216.61706,20.0837 c 0,0 2.58219,2.56858 2.58219,10.90258 l 0,29.55173 -227.80655,14.91932 c 4.40325,-37.77548 6.54665,-56.93864 8.6073,-75.45733 z"
       id="path47"
       inkscape:connector-curvature="0" /><path
       style="font-size:medium;font-style:normal;font-variant:normal;font-weight:normal;font-stretch:normal;text-indent:0;text-align:start;text-decoration:none;line-height:normal;letter-spacing:normal;word-spacing:normal;text-transform:none;direction:ltr;block-progression:tb;writing-mode:lr-tb;text-anchor:start;baseline-shift:baseline;color:#000000;fill:#000000;fill-opacity:1;fill-rule:nonzero;stroke:none;stroke-width:1;marker:none;visibility:visible;display:inline;overflow:visible;enable-background:accumulate;font-family:Sans;-inkscape-font-specification:Sans"
       d="m 257.78105,411.5259 0,0.28691 0,6.02511 76.03115,0 0,1.14764 -76.03115,0 0,13.48477 0,0.57382 -0.57382,0 -151.48849,10.04185 c 0.0679,-0.58346 0.21897,-0.56445 0.28691,-1.14764 l 150.62776,-9.75494 0,-19.79679 -147.75866,2.8691 c 0.0615,-0.54132 0.22567,-0.60972 0.28691,-1.14764 l 148.04557,-2.58219 0.57382,0 z"
       id="path49"
       inkscape:connector-curvature="0" /><path
       stroke-miterlimit="10"
       d="m 129.86877,440.881 c 0,0 1.681,10.378 3.014,10.378 1.333,0 1.88,-10.697 1.88,-10.697 l -4.894,0.319 z"
       id="path59"
       style="fill:#c19069;fill-opacity:1;stroke:#000000;stroke-miterlimit:10"
       inkscape:connector-curvature="0" /><path
       stroke-miterlimit="10"
       d="m 191.79877,436.766 c 0,0 1.681,10.378 3.014,10.378 1.333,0 1.88,-10.697 1.88,-10.697 l -4.894,0.319 z"
       id="path61"
       style="fill:#c19069;fill-opacity:1;stroke:#000000;stroke-miterlimit:10"
       inkscape:connector-curvature="0" /><path
       style="font-size:medium;font-style:normal;font-variant:normal;font-weight:normal;font-stretch:normal;text-indent:0;text-align:start;text-decoration:none;line-height:normal;letter-spacing:normal;word-spacing:normal;text-transform:none;direction:ltr;block-progression:tb;writing-mode:lr-tb;text-anchor:start;baseline-shift:baseline;color:#000000;fill:#000000;fill-opacity:1;fill-rule:nonzero;stroke:none;stroke-width:1;marker:none;visibility:visible;display:inline;overflow:visible;enable-background:accumulate;font-family:Sans;-inkscape-font-specification:Sans"
       d="m 114.61295,366.48103 216.61706,20.37061 0.28691,0 c 0,0 0.30093,0.19299 0.57382,0.57382 0.2729,0.38083 0.51312,0.87423 0.86073,1.72146 0.69525,1.69443 1.43455,4.67387 1.43455,8.89421 l 0,29.55173 0,0.57382 -0.57382,0 -228.09346,14.91932 c 0.0679,-0.58346 0.21897,-0.56445 0.28691,-1.14764 l 227.51964,-14.91932 0,-28.97791 c 0,-4.11365 -0.79628,-6.76482 -1.43455,-8.32039 -0.31912,-0.77782 -0.63357,-1.40443 -0.86073,-1.72146 -0.17075,-0.23834 -0.24486,-0.24624 -0.28691,-0.28691 l -216.61706,-20.0837 c 0.0321,-0.29058 0.25561,-0.86606 0.28691,-1.14764 z"
       id="path3922"
       inkscape:connector-curvature="0" /></g></svg>