<?xml version="1.0" encoding="UTF-8" standalone="no"?>
<!-- Generator: Adobe Illustrator 15.1.0, SVG Export Plug-In . SVG Version: 6.00 Build 0)  -->

<svg
   xmlns:dc="http://purl.org/dc/elements/1.1/"
   xmlns:cc="http://creativecommons.org/ns#"
   xmlns:rdf="http://www.w3.org/1999/02/22-rdf-syntax-ns#"
   xmlns:svg="http://www.w3.org/2000/svg"
   xmlns="http://www.w3.org/2000/svg"
   xmlns:sodipodi="http://sodipodi.sourceforge.net/DTD/sodipodi-0.dtd"
   xmlns:inkscape="http://www.inkscape.org/namespaces/inkscape"
   version="1.1"
   x="0px"
   y="0px"
   width="93"
   height="110"
   viewBox="0 0 93 110"
   enable-background="new 0 0 1000 1000"
   xml:space="preserve"
   id="svg2"
   inkscape:version="0.48.5 r10040"
   sodipodi:docname="Dash8 Q400.svg"><metadata
     id="metadata124"><rdf:RDF><cc:Work
         rdf:about=""><dc:format>image/svg+xml</dc:format><dc:type
           rdf:resource="http://purl.org/dc/dcmitype/StillImage" /></cc:Work></rdf:RDF></metadata><defs
     id="defs122" /><sodipodi:namedview
     pagecolor="#ffffff"
     bordercolor="#666666"
     borderopacity="1"
     objecttolerance="10"
     gridtolerance="10"
     guidetolerance="10"
     inkscape:pageopacity="0"
     inkscape:pageshadow="2"
     inkscape:window-width="1920"
     inkscape:window-height="1060"
     id="namedview120"
     showgrid="false"
     inkscape:zoom="5.3400704"
     inkscape:cx="46.473798"
     inkscape:cy="52.027944"
     inkscape:window-x="-2"
     inkscape:window-y="-3"
     inkscape:window-maximized="1"
     inkscape:current-layer="svg2"
     fit-margin-top="1"
     fit-margin-left="1"
     fit-margin-right="1"
     fit-margin-bottom="1" /><g
     id="Body"
     transform="matrix(0.10891917,0,0,0.10891917,-10.514799,0.16592454)"><path
       stroke-miterlimit="10"
       d="M 483.406,921.493"
       id="path5"
       inkscape:connector-curvature="0"
       style="fill:#96ade0;stroke:#000000;stroke-miterlimit:10" /><path
       stroke-miterlimit="10"
       d="m 520.24,921.493 c 0,0 -36.226,-280.159 -36.226,-340.159 0,-60 0,-373 0,-448.334 0,-71 24.984,-127.811 37.787,-127.811 h 1.094 c 12.802,0 37.787,56.811 37.787,127.811 0,75.333 0,388.333 0,448.333 0,60 -36.227,340.159 -36.227,340.159 h -4.215 z"
       id="path7"
       style="fill:#c19069;fill-opacity:1;stroke:#000000;stroke-miterlimit:10"
       inkscape:connector-curvature="0" /><path
       stroke-miterlimit="10"
       d="m 523.924,32.25 v 11.875 c 0,0 7.75,-0.375 15.75,8.875 l 5.5,-1.75 c -6.625,-16.25 -21.25,-19 -21.25,-19 z"
       id="path9"
       inkscape:connector-curvature="0"
       style="fill:#303030;stroke:#000000;stroke-miterlimit:10" /><path
       stroke-miterlimit="10"
       d="m 546.435,53.511 -5.089,2.021 c 0,0 5.953,17.468 12.453,24.718 -4,-19.375 -7.364,-26.739 -7.364,-26.739 z"
       id="path11"
       inkscape:connector-curvature="0"
       style="fill:#303030;stroke:#000000;stroke-miterlimit:10" /><path
       stroke-miterlimit="10"
       d="m 520.771,32.25 v 11.875 c 0,0 -7.75,-0.375 -15.75,8.875 l -5.5,-1.75 c 6.625,-16.25 21.25,-19 21.25,-19 z"
       id="path13"
       inkscape:connector-curvature="0"
       style="fill:#303030;stroke:#000000;stroke-miterlimit:10" /><path
       stroke-miterlimit="10"
       d="m 498.261,53.511 5.089,2.021 c 0,0 -5.953,17.468 -12.453,24.718 3.999,-19.375 7.364,-26.739 7.364,-26.739 z"
       id="path15"
       inkscape:connector-curvature="0"
       style="fill:#303030;stroke:#000000;stroke-miterlimit:10" /><path
       stroke-miterlimit="10"
       d="m 555.667,113.5 c 0,0 0,9.833 0,15.667 4.902,0.827 5.015,5 5.015,5 0,0 -0.324,-11.354 -0.324,-15.184 0,-3.83 -4.691,-5.483 -4.691,-5.483 z"
       id="path17"
       style="fill:#c19069;fill-opacity:1;stroke:#000000;stroke-miterlimit:10"
       inkscape:connector-curvature="0" /><path
       stroke-miterlimit="10"
       d="m 489.029,113.5 c 0,0 0,9.833 0,15.667 -4.902,0.827 -5.015,5 -5.015,5 0,0 0.324,-11.354 0.324,-15.184 0,-3.83 4.691,-5.483 4.691,-5.483 z"
       id="path19"
       style="fill:#c19069;fill-opacity:1;stroke:#000000;stroke-miterlimit:10"
       inkscape:connector-curvature="0" /><path
       stroke-miterlimit="10"
       d="m 560.378,592.851 c 0,0 -2.009,-1.46 -5.211,-1.517 0,3.5 0,9.167 0,14 2.5,0 4.418,1.333 4.418,1.333 l 0.793,-13.816 z"
       id="path21"
       style="fill:#c19069;fill-opacity:1;stroke:#000000;stroke-miterlimit:10"
       inkscape:connector-curvature="0" /><path
       stroke-miterlimit="10"
       d="m 484.456,593.185 c 0,0 2.009,-1.46 5.211,-1.517 0,3.5 0,9.167 0,14 -2.5,0 -4.418,1.333 -4.418,1.333 l -0.793,-13.816 z"
       id="path23"
       style="fill:#c19069;fill-opacity:1;stroke:#000000;stroke-miterlimit:10"
       inkscape:connector-curvature="0" /></g><g
     id="R_Wing"
     transform="matrix(0.10891917,0,0,0.10891917,-10.514799,0.16592454)"><path
       stroke-miterlimit="10"
       d="m 524.816,472.113 c 15.652,0 16.185,6.221 21.518,6.221 5.333,0 11.666,-14.993 11.666,-14.993 v -15.007 c 0,0 69.667,-2.333 85.667,-2.333 0,-24.667 5,-69.055 5,-69.055 0,0 -1.333,-14.278 -7,-14.278 -5.667,0 -87,-10.333 -87,-10.333 0,0 -1.999,-19.667 -16.333,-19.667 -14.334,0 -5.889,14.167 -15.986,14.167"
       id="path26"
       style="fill:#c19069;fill-opacity:1;stroke:#000000;stroke-miterlimit:10"
       inkscape:connector-curvature="0" /><path
       stroke-miterlimit="10"
       d="m 938.003,427.667 -261,17 c 0,-42 -6,-60.667 -6,-67.333 0,-6.666 5,-14.333 5,-14.333 l 259.333,24.333 c 0,0 2.667,2.333 2.667,10.667 0,8.334 0,29.666 0,29.666 z"
       id="path28"
       style="fill:#c19069;fill-opacity:1;stroke:#000000;stroke-miterlimit:10"
       inkscape:connector-curvature="0" /><path
       stroke-miterlimit="10"
       d="m 861.336,412 -185.426,3.341 c 0,0 1.093,20.742 1.093,29.326 L 861.336,432.661 V 412 z"
       id="path30"
       style="fill:#c19069;fill-opacity:1;stroke:#000000;stroke-miterlimit:10"
       inkscape:connector-curvature="0" /><path
       stroke-miterlimit="10"
       d="m 555,418 v 30.167 L 643.667,446 c 0,-9.333 1.346,-29.536 1.346,-29.536 L 555,418 z"
       id="path32"
       style="fill:#c19069;fill-opacity:1;stroke:#000000;stroke-miterlimit:10"
       inkscape:connector-curvature="0" /><line
       stroke-miterlimit="10"
       x1="861.336"
       y1="418.5"
       x2="938.00299"
       y2="418.5"
       id="line34"
       style="fill:#c19069;fill-opacity:1;stroke:#000000;stroke-miterlimit:10" /><polygon
       stroke-miterlimit="10"
       points="691.167,364.423 699.833,365.236 699.833,370.833 691.167,370 "
       id="polygon36"
       style="fill:#303030;stroke:#000000;stroke-miterlimit:10" /><polygon
       stroke-miterlimit="10"
       points="681.994,368.583 681.994,363.562 688.917,364.256 688.917,369.333 "
       id="polygon38"
       style="fill:#303030;stroke:#000000;stroke-miterlimit:10" /><path
       stroke-miterlimit="10"
       d="m 733.986,440.955 c 0,0 1.681,10.378 3.014,10.378 1.333,0 1.88,-10.697 1.88,-10.697 l -4.894,0.319 z"
       id="path40"
       style="fill:#c19069;fill-opacity:1;stroke:#000000;stroke-miterlimit:10"
       inkscape:connector-curvature="0" /><path
       stroke-miterlimit="10"
       d="m 795.917,436.84 c 0,0 1.681,10.378 3.014,10.378 1.333,0 1.88,-10.697 1.88,-10.697 l -4.894,0.319 z"
       id="path42"
       style="fill:#c19069;fill-opacity:1;stroke:#000000;stroke-miterlimit:10"
       inkscape:connector-curvature="0" /></g><g
     id="L_Wing"
     transform="matrix(0.10891917,0,0,0.10891917,-10.514799,0.16592454)"><path
       stroke-miterlimit="10"
       d="m 519.406,472.039 c -15.652,0 -16.185,6.221 -21.518,6.221 -5.333,0 -11.666,-14.993 -11.666,-14.993 V 448.26 c 0,0 -69.667,-2.333 -85.667,-2.333 0,-24.667 -5,-69.055 -5,-69.055 0,0 1.333,-14.278 7,-14.278 5.667,0 87,-10.333 87,-10.333 0,0 1.999,-19.667 16.333,-19.667 14.334,0 6.361,14.241 16.459,14.241"
       id="path45"
       style="fill:#c19069;fill-opacity:1;stroke:#000000;stroke-miterlimit:10"
       inkscape:connector-curvature="0" /><path
       stroke-miterlimit="10"
       d="m 106.22,427.592 261,17 c 0,-42 6,-60.667 6,-67.333 0,-6.666 -5,-14.333 -5,-14.333 l -259.333,24.333 c 0,0 -2.667,2.333 -2.667,10.667 0,8.334 0,29.666 0,29.666 z"
       id="path47"
       style="fill:#c19069;fill-opacity:1;stroke:#000000;stroke-miterlimit:10"
       inkscape:connector-curvature="0" /><path
       stroke-miterlimit="10"
       d="m 182.887,411.926 185.426,3.341 c 0,0 -1.093,20.742 -1.093,29.326 L 182.887,432.587 v -20.661 z"
       id="path49"
       style="fill:#c19069;fill-opacity:1;stroke:#000000;stroke-miterlimit:10"
       inkscape:connector-curvature="0" /><path
       stroke-miterlimit="10"
       d="m 489.223,417.926 v 30.167 l -88.667,-2.167 c 0,-9.333 -1.346,-29.536 -1.346,-29.536 l 90.013,1.536 z"
       id="path51"
       style="fill:#c19069;fill-opacity:1;stroke:#000000;stroke-miterlimit:10"
       inkscape:connector-curvature="0" /><line
       stroke-miterlimit="10"
       x1="182.88699"
       y1="418.42599"
       x2="106.22"
       y2="418.42599"
       id="line53"
       style="fill:#96ade0;stroke:#000000;stroke-miterlimit:10" /><polygon
       stroke-miterlimit="10"
       points="353.056,364.349 344.39,365.162 344.39,370.759 353.056,369.926 "
       id="polygon55"
       style="fill:#303030;stroke:#000000;stroke-miterlimit:10" /><polygon
       stroke-miterlimit="10"
       points="362.229,368.509 362.229,363.488 355.306,364.182 355.306,369.259 "
       id="polygon57"
       style="fill:#303030;stroke:#000000;stroke-miterlimit:10" /><path
       stroke-miterlimit="10"
       d="m 310.236,440.881 c 0,0 -1.681,10.378 -3.014,10.378 -1.333,0 -1.88,-10.697 -1.88,-10.697 l 4.894,0.319 z"
       id="path59"
       style="fill:#c19069;fill-opacity:1;stroke:#000000;stroke-miterlimit:10"
       inkscape:connector-curvature="0" /><path
       stroke-miterlimit="10"
       d="m 248.306,436.766 c 0,0 -1.681,10.378 -3.014,10.378 -1.333,0 -1.88,-10.697 -1.88,-10.697 l 4.894,0.319 z"
       id="path61"
       style="fill:#c19069;fill-opacity:1;stroke:#000000;stroke-miterlimit:10"
       inkscape:connector-curvature="0" /></g><g
     id="Layer_7"
     transform="matrix(0.10891917,0,0,0.10891917,-10.514799,0.16592454)"><path
       stroke-miterlimit="10"
       d="m 382.71,283.249 c -10e-4,0.839 -9.291,1.961 -17.059,2.798 -7.768,0.836 -23.135,0.105 -23.664,-1.626 -0.527,-1.729 16.829,-5.029 22.887,-4.382 6.06,0.648 17.835,2.372 17.836,3.21 z"
       id="path66"
       style="fill:#c19069;fill-opacity:1;stroke:#000000;stroke-miterlimit:10"
       inkscape:connector-curvature="0" /><path
       stroke-miterlimit="10"
       d="m 390.842,283.762 c 0.001,0.839 9.291,1.961 17.059,2.798 7.768,0.836 23.135,0.105 23.664,-1.626 0.527,-1.729 -16.829,-5.029 -22.887,-4.382 -6.06,0.648 -17.835,2.371 -17.836,3.21 z"
       id="path70"
       style="fill:#c19069;fill-opacity:1;stroke:#000000;stroke-miterlimit:10"
       inkscape:connector-curvature="0" /><path
       stroke-miterlimit="10"
       d="m 384.704,534.675 c -22.25,-46.25 -16.986,-64.115 -17.376,-90.083 0.003,-38.167 5.747,-61.75 6,-67.333 0.253,-5.583 -5,-14.333 -5,-14.333 0,0 3.003,-48.75 3.753,-62.75 0.75,-14 9,-17 9,-17 h 12.5 c 0,0 8.5,3.5 8.5,17.75 0,14.25 0,61.723 0,61.723 0,0 -5.084,0.417 -6.417,14.222 0.394,13.533 5.333,37.825 5,69.055 0.588,24.243 -1.96,37.999 -15.96,88.749 z"
       id="path72"
       style="fill:#c19069;fill-opacity:1;stroke:#000000;stroke-miterlimit:10"
       inkscape:connector-curvature="0" /><path
       stroke-miterlimit="10"
       d="m 388.162,283.175 c 0,0 3.625,0 5.375,0 0,-5.875 -5.873,-9.125 -5.873,-9.125 0,0 -5.958,3.25 -5.958,9.125 1.75,0 5.375,0 5.375,0 h 1.081 z"
       id="path74"
       style="fill:#000000;fill-opacity:1;stroke:#000000;stroke-miterlimit:10"
       inkscape:connector-curvature="0" /><line
       stroke-miterlimit="10"
       x1="392.01501"
       y1="507.43701"
       x2="373.51501"
       y2="507.43701"
       id="line80"
       style="fill:#c19069;fill-opacity:1;stroke:#000000;stroke-miterlimit:10" /></g><g
     id="R_Propeller"
     transform="matrix(0.10891917,0,0,0.10891917,-10.514799,0.16592454)"><path
       stroke-miterlimit="10"
       d="m 661.621,283.324 c 10e-4,0.839 9.291,1.961 17.059,2.798 7.768,0.836 23.135,0.105 23.664,-1.626 0.527,-1.729 -16.829,-5.029 -22.887,-4.382 -6.06,0.648 -17.835,2.372 -17.836,3.21 z"
       id="path85"
       style="fill:#c19069;fill-opacity:1;stroke:#000000;stroke-miterlimit:10"
       inkscape:connector-curvature="0" /><path
       stroke-miterlimit="10"
       d="m 653.489,283.837 c -10e-4,0.839 -9.291,1.961 -17.059,2.798 -7.768,0.836 -23.135,0.105 -23.664,-1.626 -0.527,-1.729 16.829,-5.029 22.887,-4.382 6.06,0.648 17.835,2.372 17.836,3.21 z"
       id="path89"
       style="fill:#c19069;fill-opacity:1;stroke:#000000;stroke-miterlimit:10"
       inkscape:connector-curvature="0" /><path
       stroke-miterlimit="10"
       d="m 659.627,534.75 c 22.25,-46.25 16.986,-64.115 17.376,-90.083 -0.003,-38.167 -5.747,-61.75 -6,-67.333 -0.253,-5.583 5,-14.333 5,-14.333 0,0 -3.003,-48.75 -3.753,-62.75 -0.75,-14 -9,-17 -9,-17 h -12.5 c 0,0 -8.5,3.5 -8.5,17.75 0,14.25 0,61.723 0,61.723 0,0 5.084,0.417 6.417,14.222 -0.394,13.533 -5.333,37.825 -5,69.055 -0.588,24.243 1.96,37.999 15.96,88.749 z"
       id="path91"
       style="fill:#c19069;fill-opacity:1;stroke:#000000;stroke-miterlimit:10"
       inkscape:connector-curvature="0" /><path
       stroke-miterlimit="10"
       d="m 656.169,283.25 c 0,0 -3.625,0 -5.375,0 0,-5.875 5.873,-9.125 5.873,-9.125 0,0 5.958,3.25 5.958,9.125 -1.75,0 -5.375,0 -5.375,0 h -1.081 z"
       id="path93"
       style="fill:#000000;fill-opacity:1;stroke:#000000;stroke-miterlimit:10"
       inkscape:connector-curvature="0" /><line
       stroke-miterlimit="10"
       x1="652.31598"
       y1="507.51199"
       x2="670.81598"
       y2="507.51199"
       id="line99"
       style="fill:#c19069;fill-opacity:1;stroke:#000000;stroke-miterlimit:10" /></g><g
     id="R_Fin"
     transform="matrix(0.10891917,0,0,0.10891917,-10.514799,0.16592454)"><path
       stroke-miterlimit="10"
       d="M 530.564,904 660,918 c 0,0 3.75,2 3.75,5.5 0,3.5 0,49.75 0,49.75 H 525.121 l 1.104,-9.559 1.265,-11.992 1.202,-13.074 0.996,-11.625 0.459,-10.005 0.417,-12.995 z"
       id="path102"
       style="fill:#c19069;fill-opacity:1;stroke:#000000;stroke-miterlimit:10"
       inkscape:connector-curvature="0" /><polygon
       stroke-miterlimit="10"
       points="663.75,973.25 525.121,973.25 526.87,957.75 663.75,957.75 "
       id="polygon104"
       style="fill:#c19069;fill-opacity:1;stroke:#000000;stroke-miterlimit:10" /></g><g
     id="L_Fin"
     transform="matrix(0.10891917,0,0,0.10891917,-10.514799,0.16592454)"><path
       stroke-miterlimit="10"
       d="m 513.781,904 -129.436,14 c 0,0 -3.75,2 -3.75,5.5 0,3.5 0,49.75 0,49.75 h 138.629 l -1.104,-9.559 -1.265,-11.992 -1.202,-13.074 L 514.658,927 514.199,916.995 513.781,904 z"
       id="path107"
       style="fill:#c19069;fill-opacity:1;stroke:#000000;stroke-miterlimit:10"
       inkscape:connector-curvature="0" /><polygon
       stroke-miterlimit="10"
       points="380.596,973.25 519.225,973.25 517.476,957.75 380.596,957.75 "
       id="polygon109"
       style="fill:#c19069;fill-opacity:1;stroke:#000000;stroke-miterlimit:10" /></g><g
     id="Tail_Fin"
     transform="matrix(0.10891917,0,0,0.10891917,-10.514799,0.16592454)"><polygon
       stroke-miterlimit="10"
       points="521.896,440 524.436,440 529.688,883.026 515.008,883.026 519.532,440 "
       id="polygon112"
       style="fill:#c19069;fill-opacity:1;stroke:#000000;stroke-miterlimit:10" /><line
       stroke-miterlimit="10"
       x1="522.01501"
       y1="440"
       x2="522.01501"
       y2="786.66699"
       id="line114"
       style="fill:#96ade0;stroke:#000000;stroke-miterlimit:10" /><rect
       x="520.42401"
       y="786.66699"
       stroke-miterlimit="10"
       width="3.53"
       height="96.359001"
       id="rect116"
       style="fill:#c19069;fill-opacity:1;stroke:#000000;stroke-miterlimit:10" /><path
       stroke-miterlimit="10"
       d="m 513.814,900.75 c 0,37.21 8.375,95 8.375,95 0,0 8.375,-57.54 8.375,-94.75 0,-37.21 -3.75,-40 -8.375,-40 -4.625,0 -8.375,2.54 -8.375,39.75 z"
       id="path118"
       style="fill:#c19069;fill-opacity:1;stroke:#000000;stroke-miterlimit:10"
       inkscape:connector-curvature="0" /></g></svg>