<?xml version="1.0" encoding="UTF-8" standalone="no"?>
<!-- Generator: Adobe Illustrator 15.1.0, SVG Export Plug-In . SVG Version: 6.00 Build 0)  -->

<svg
   xmlns:dc="http://purl.org/dc/elements/1.1/"
   xmlns:cc="http://creativecommons.org/ns#"
   xmlns:rdf="http://www.w3.org/1999/02/22-rdf-syntax-ns#"
   xmlns:svg="http://www.w3.org/2000/svg"
   xmlns="http://www.w3.org/2000/svg"
   xmlns:sodipodi="http://sodipodi.sourceforge.net/DTD/sodipodi-0.dtd"
   xmlns:inkscape="http://www.inkscape.org/namespaces/inkscape"
   version="1.1"
   x="0px"
   y="0px"
   width="11"
   height="48"
   viewBox="0 0 11 48.000001"
   enable-background="new 0 0 1000 1000"
   xml:space="preserve"
   id="svg2"
   inkscape:version="0.48.5 r10040"
   sodipodi:docname="Dash8_Q400_fuselage_3.svg"><metadata
     id="metadata124"><rdf:RDF><cc:Work
         rdf:about=""><dc:format>image/svg+xml</dc:format><dc:type
           rdf:resource="http://purl.org/dc/dcmitype/StillImage" /><dc:title /></cc:Work></rdf:RDF></metadata><defs
     id="defs122" /><sodipodi:namedview
     pagecolor="#ffffff"
     bordercolor="#666666"
     borderopacity="1"
     objecttolerance="10"
     gridtolerance="10"
     guidetolerance="10"
     inkscape:pageopacity="0"
     inkscape:pageshadow="2"
     inkscape:window-width="1920"
     inkscape:window-height="1060"
     id="namedview120"
     showgrid="false"
     inkscape:zoom="10.680141"
     inkscape:cx="9.669367"
     inkscape:cy="28.449747"
     inkscape:window-x="-2"
     inkscape:window-y="-3"
     inkscape:window-maximized="1"
     inkscape:current-layer="svg2"
     fit-margin-top="1"
     fit-margin-left="1"
     fit-margin-right="1"
     fit-margin-bottom="1" /><path
     style="fill:#96ade0;stroke:#000000;stroke-width:0.10891917;stroke-miterlimit:10"
     inkscape:connector-curvature="0"
     id="path5"
     d="M 1.0624987,39.048122"
     stroke-miterlimit="10" /><path
     style="fill:#c19069;fill-opacity:1;stroke:none"
     d="m 1.1438663,0.64805221 0,1.34374999 c 0,6.53515 3.9375,37.0624998 3.9375,37.0624998 l 0.4375,0 c 0,0 3.96875,-30.5273498 3.96875,-37.0624998 l 0,-1.34374999 -8.34375,0 z"
     id="path7"
     inkscape:connector-curvature="0" /><path
     inkscape:connector-curvature="0"
     style="fill:#c19069;fill-opacity:1;stroke:#000000;stroke-width:0.10891917;stroke-miterlimit:10"
     id="path21"
     d="m 9.4462257,3.2527052 c 0,0 -0.218819,-0.159022 -0.567578,-0.16523 0,0.381217 0,0.998462 0,1.524868 0.272298,0 0.481205,0.145189 0.481205,0.145189 l 0.08637,-1.504827 z"
     stroke-miterlimit="10" /><path
     inkscape:connector-curvature="0"
     style="fill:#c19069;fill-opacity:1;stroke:#000000;stroke-width:0.10891917;stroke-miterlimit:10"
     id="path23"
     d="m 1.1768637,3.2890842 c 0,0 0.218819,-0.159022 0.567578,-0.16523 0,0.381217 0,0.998462 0,1.524868 -0.272298,0 -0.481205,0.145189 -0.481205,0.145189 l -0.08637,-1.504827 z"
     stroke-miterlimit="10" /><path
     style="fill:#c19069;fill-opacity:1;stroke:#000000;stroke-width:0.10891917;stroke-miterlimit:10"
     d="m 4.8626163,0.64805221 -0.34375,33.99999979 1.59375,0 -0.40625,-33.99999979 -0.84375,0 z"
     id="polygon112"
     inkscape:connector-curvature="0" /><path
     style="font-size:medium;font-style:normal;font-variant:normal;font-weight:normal;font-stretch:normal;text-indent:0;text-align:start;text-decoration:none;line-height:normal;letter-spacing:normal;word-spacing:normal;text-transform:none;direction:ltr;block-progression:tb;writing-mode:lr-tb;text-anchor:start;baseline-shift:baseline;color:#000000;fill:#000000;fill-opacity:1;fill-rule:nonzero;stroke:none;stroke-width:0.10891917;marker:none;visibility:visible;display:inline;overflow:visible;enable-background:accumulate;font-family:Sans;-inkscape-font-specification:Sans"
     d="m 5.2063663,0.64805221 0,23.53124979 0.125,0 0,-23.53124979 -0.125,0 z"
     id="line114"
     inkscape:connector-curvature="0" /><path
     style="font-size:medium;font-style:normal;font-variant:normal;font-weight:normal;font-stretch:normal;text-indent:0;text-align:start;text-decoration:none;line-height:normal;letter-spacing:normal;word-spacing:normal;text-transform:none;direction:ltr;block-progression:tb;writing-mode:lr-tb;text-anchor:start;baseline-shift:baseline;color:#000000;fill:#000000;fill-opacity:1;fill-rule:nonzero;stroke:none;stroke-width:0.10891917;marker:none;visibility:visible;display:inline;overflow:visible;enable-background:accumulate;font-family:Sans;-inkscape-font-specification:Sans"
     d="m 1.0813663,0.64805221 0,1.34374999 c 0,3.278535 0.982277,12.5540318 1.96875,20.9999998 0.982692,8.413591 1.96123,15.94183 1.96875,16 l 0,0.0625 0.0625,0 0,0.0625 0.4375,0 0.0625,0 0,-0.0625 c 0,0 0.982249,-7.616532 1.96875,-16.0625 0.986501,-8.445968 1.96875,-17.7214638 1.96875,-20.9999998 l 0,-1.34374999 -0.09375,0 0,1.34374999 c 0,3.256614 -0.982343,12.5235858 -1.96875,20.9687498 -0.982633,8.412851 -1.961245,15.9732 -1.96875,16.03125 l -0.34375,0 c -0.0075,-0.058 -1.017393,-7.618384 -2,-16.03125 -0.98638,-8.445164 -1.96875,-17.7121348 -1.96875,-20.9687498 l 0,-1.34374999 -0.09375,0 z"
     id="path4017"
     inkscape:connector-curvature="0" /><rect
     style="fill:#c19069;fill-opacity:1;stroke:#000000;stroke-width:0.10891917;stroke-miterlimit:10"
     id="rect116"
     height="10.495342"
     width="0.38448468"
     stroke-miterlimit="10"
     y="24.164356"
     x="5.094471" /><path
     inkscape:connector-curvature="0"
     style="fill:#c19069;fill-opacity:1;stroke:#000000;stroke-width:0.10891917;stroke-miterlimit:10"
     id="path118"
     d="m 4.3745127,36.590186 c 0,4.052886 0.912198,10.347316 0.912198,10.347316 0,0 0.912199,-6.2672 0.912199,-10.320086 0,-4.052883 -0.408447,-4.356767 -0.912199,-4.356767 -0.503751,0 -0.912198,0.276654 -0.912198,4.329537 z"
     stroke-miterlimit="10" /></svg>