<?xml version="1.0" encoding="UTF-8" standalone="no"?>
<!-- Generator: Adobe Illustrator 15.1.0, SVG Export Plug-In . SVG Version: 6.00 Build 0)  -->

<svg
   xmlns:dc="http://purl.org/dc/elements/1.1/"
   xmlns:cc="http://creativecommons.org/ns#"
   xmlns:rdf="http://www.w3.org/1999/02/22-rdf-syntax-ns#"
   xmlns:svg="http://www.w3.org/2000/svg"
   xmlns="http://www.w3.org/2000/svg"
   xmlns:sodipodi="http://sodipodi.sourceforge.net/DTD/sodipodi-0.dtd"
   xmlns:inkscape="http://www.inkscape.org/namespaces/inkscape"
   version="1.1"
   x="0px"
   y="0px"
   width="7"
   height="22"
   viewBox="0 0 7 22"
   enable-background="new 0 0 1000 1000"
   xml:space="preserve"
   id="svg2"
   inkscape:version="0.91 r13725"
   sodipodi:docname="DHC-6xxA3_fuselage_1.svg"><metadata
     id="metadata80"><rdf:RDF><cc:Work
         rdf:about=""><dc:format>image/svg+xml</dc:format><dc:type
           rdf:resource="http://purl.org/dc/dcmitype/StillImage" /><dc:title /></cc:Work></rdf:RDF></metadata><defs
     id="defs78" /><sodipodi:namedview
     pagecolor="#ffffff"
     bordercolor="#666666"
     borderopacity="1"
     objecttolerance="10"
     gridtolerance="10"
     guidetolerance="10"
     inkscape:pageopacity="0"
     inkscape:pageshadow="2"
     inkscape:window-width="3840"
     inkscape:window-height="2107"
     id="namedview76"
     showgrid="false"
     fit-margin-top="1"
     fit-margin-left="1"
     fit-margin-right="1"
     fit-margin-bottom="1"
     inkscape:zoom="85.441126"
     inkscape:cx="7.6998499"
     inkscape:cy="10.904787"
     inkscape:window-x="-8"
     inkscape:window-y="0"
     inkscape:window-maximized="1"
     inkscape:current-layer="svg2" /><path
     style="fill:#c19069;fill-opacity:1;stroke:none"
     d="m 3.46875,1.4062499 c -0.949099,0 -1.528985,2.2826051 -1.78125,3.125 -0.252266,0.842395 -0.625,3.4904272 -0.625,5.125 L 1.0625,21 l 4.84375,0 0,-11.3437501 c 0,-1.6346349 -0.372673,-4.282667 -0.625,-5.125 -0.252327,-0.8423329 -0.863588,-3.125 -1.8125,-3.125 z"
     id="path5"
     inkscape:connector-curvature="0" /><path
     style="fill:#363636;stroke:#000000;stroke-width:0.06207317;stroke-miterlimit:10"
     inkscape:connector-curvature="0"
     id="path7"
     d="m 5.639305,8.1057174 c 0.06685,0.5014891 0.06716,0.7128483 0.06716,0.7128483 0,0 -0.656859,-0.8017371 -2.156981,-0.8017371 v -0.796585 c 0,0 2.022965,0.3839847 2.089818,0.8854738 z"
     stroke-miterlimit="10" /><path
     style="fill:#363636;stroke:#000000;stroke-width:0.06207317;stroke-miterlimit:10"
     inkscape:connector-curvature="0"
     id="path9"
     d="m 1.314853,8.1057174 c -0.06685,0.5014891 -0.06716,0.7128483 -0.06716,0.7128483 0,0 0.656858,-0.8017371 2.15698,-0.8017371 v -0.796585 c 0,0 -2.022964,0.3839847 -2.089817,0.8854738 z"
     stroke-miterlimit="10" /><path
     style="font-size:medium;font-style:normal;font-variant:normal;font-weight:normal;font-stretch:normal;text-indent:0;text-align:start;text-decoration:none;line-height:normal;letter-spacing:normal;word-spacing:normal;text-transform:none;direction:ltr;block-progression:tb;writing-mode:lr-tb;text-anchor:start;baseline-shift:baseline;color:#000000;fill:#000000;fill-opacity:1;fill-rule:nonzero;stroke:none;stroke-width:0.06207317;marker:none;visibility:visible;display:inline;overflow:visible;enable-background:accumulate;font-family:Sans;-inkscape-font-specification:Sans"
     d="m 3.46875,1.3437499 c -0.257311,0 -0.48869,0.1730821 -0.6875,0.40625 -0.19881,0.2331679 -0.348827,0.5345806 -0.5,0.875 C 1.978903,3.3058388 1.750697,4.1115069 1.625,4.5312499 1.368281,5.3885139 1,8.0141833 1,9.6562499 L 1,21 l 0.09375,0 0,-11.3437501 c 0,-1.627079 0.377187,-4.297474 0.625,-5.125 0.126568,-0.4226519 0.35838,-1.1729922 0.65625,-1.84375 0.148935,-0.3353789 0.311539,-0.6539689 0.5,-0.875 0.188461,-0.2210311 0.376512,-0.34375 0.59375,-0.34375 0.217187,0 0.436551,0.1227133 0.625,0.34375 0.188449,0.2210367 0.351057,0.5396165 0.5,0.875 0.297886,0.670767 0.4984,1.4211272 0.625,1.84375 0.24787,0.8274532 0.625,3.4978573 0.625,5.125 l 0,11.3437501 0.09375,0 0,-11.3437501 c 0,-1.6421271 -0.368216,-4.2677872 -0.625,-5.125 C 5.186773,4.1115398 4.989862,3.3058452 4.6875,2.6249999 4.536319,2.2845773 4.355045,1.983172 4.15625,1.7499999 3.957455,1.5168278 3.726019,1.3437499 3.46875,1.3437499 z"
     id="path3938"
     inkscape:connector-curvature="0" /><path
     sodipodi:nodetypes="csc"
     inkscape:connector-curvature="0"
     id="path4172"
     d="m 1.0519815,12.430211 c 0.501063,0 0.787431,0.20114 0.787431,0.753382 0,0.477646 -0.240038,0.678358 -0.779131,0.678358"
     style="fill:none;fill-rule:evenodd;stroke:#000000;stroke-width:0.055;stroke-linecap:butt;stroke-linejoin:miter;stroke-miterlimit:4;stroke-dasharray:none;stroke-opacity:1" /><path
     style="fill:none;fill-rule:evenodd;stroke:#000000;stroke-width:0.055;stroke-linecap:butt;stroke-linejoin:miter;stroke-miterlimit:4;stroke-dasharray:none;stroke-opacity:1"
     d="m 5.8724735,12.430211 c -0.501063,0 -0.787431,0.20114 -0.787431,0.753382 0,0.477646 0.240038,0.678358 0.779131,0.678358"
     id="path4174"
     inkscape:connector-curvature="0"
     sodipodi:nodetypes="csc" /></svg>