<?xml version="1.0" encoding="UTF-8" standalone="no"?>
<!-- Generator: Adobe Illustrator 15.1.0, SVG Export Plug-In . SVG Version: 6.00 Build 0)  -->

<svg
   xmlns:dc="http://purl.org/dc/elements/1.1/"
   xmlns:cc="http://creativecommons.org/ns#"
   xmlns:rdf="http://www.w3.org/1999/02/22-rdf-syntax-ns#"
   xmlns:svg="http://www.w3.org/2000/svg"
   xmlns="http://www.w3.org/2000/svg"
   xmlns:sodipodi="http://sodipodi.sourceforge.net/DTD/sodipodi-0.dtd"
   xmlns:inkscape="http://www.inkscape.org/namespaces/inkscape"
   version="1.1"
   x="0px"
   y="0px"
   width="7"
   height="32"
   viewBox="0 0 7 32"
   enable-background="new 0 0 1000 1000"
   xml:space="preserve"
   id="svg2"
   inkscape:version="0.91 r13725"
   sodipodi:docname="DHC-6xxA3_fuselage_2.svg"><metadata
     id="metadata80"><rdf:RDF><cc:Work
         rdf:about=""><dc:format>image/svg+xml</dc:format><dc:type
           rdf:resource="http://purl.org/dc/dcmitype/StillImage" /><dc:title /></cc:Work></rdf:RDF></metadata><defs
     id="defs78" /><sodipodi:namedview
     pagecolor="#ffffff"
     bordercolor="#666666"
     borderopacity="1"
     objecttolerance="10"
     gridtolerance="10"
     guidetolerance="10"
     inkscape:pageopacity="0"
     inkscape:pageshadow="2"
     inkscape:window-width="3840"
     inkscape:window-height="2107"
     id="namedview76"
     showgrid="false"
     fit-margin-top="1"
     fit-margin-left="1"
     fit-margin-right="1"
     fit-margin-bottom="1"
     inkscape:zoom="42.720563"
     inkscape:cx="-7.9525463"
     inkscape:cy="30.095738"
     inkscape:window-x="-8"
     inkscape:window-y="0"
     inkscape:window-maximized="1"
     inkscape:current-layer="svg2" /><path
     style="fill:#c19069;fill-opacity:1;stroke:none"
     d="m 1.0625,0.59353629 0,4.68750001 c 0,1.675975 1.59375,12.5624997 1.59375,12.5624997 0,0 0.425163,5.375 0.8125,5.375 0.387212,0 0.8125,-5.375 0.8125,-5.375 0,0 1.625,-10.8865247 1.625,-12.5624997 l 0,-4.68750001 -4.84375,0 z"
     id="path5"
     inkscape:connector-curvature="0" /><path
     style="font-size:medium;font-style:normal;font-variant:normal;font-weight:normal;font-stretch:normal;text-indent:0;text-align:start;text-decoration:none;line-height:normal;letter-spacing:normal;word-spacing:normal;text-transform:none;direction:ltr;block-progression:tb;writing-mode:lr-tb;text-anchor:start;baseline-shift:baseline;color:#000000;fill:#000000;fill-opacity:1;fill-rule:nonzero;stroke:none;stroke-width:0.06207317;marker:none;visibility:visible;display:inline;overflow:visible;enable-background:accumulate;font-family:Sans;-inkscape-font-specification:Sans"
     d="M 1,0.59353629 1,5.2810363 c 0,0.426986 0.09924,1.397169 0.25,2.65625 0.150757,1.259081 0.361547,2.7812137 0.5625,4.2499997 0.401905,2.937572 0.8125,5.6875 0.8125,5.6875 0,0 0.09493,1.317034 0.25,2.65625 0.07754,0.669608 0.155156,1.339698 0.25,1.84375 0.04742,0.252026 0.106158,0.474532 0.15625,0.625 0.02505,0.07523 0.06568,0.142395 0.09375,0.1875 0.02807,0.0451 0.04075,0.0625 0.09375,0.0625 0.053,0 0.09693,-0.0174 0.125,-0.0625 0.02807,-0.0451 0.03746,-0.112266 0.0625,-0.1875 0.05008,-0.150467 0.108831,-0.372974 0.15625,-0.625 0.09484,-0.504052 0.203706,-1.174142 0.28125,-1.84375 0.155087,-1.339216 0.25,-2.65625 0.25,-2.65625 0,0 0.410595,-2.749928 0.8125,-5.6875 C 5.357203,10.7185 5.536743,9.1963673 5.6875,7.9372863 c 0.150757,-1.259081 0.25,-2.229264 0.25,-2.65625 l 0,-4.68750001 -0.09375,0 0,4.68750001 c 0,0.411001 -0.09936,1.398144 -0.25,2.65625 -0.15064,1.258106 -0.361591,2.7815297 -0.5625,4.2499997 -0.401818,2.93694 -0.78125,5.65625 -0.78125,5.65625 0,0 -0.126437,1.350648 -0.28125,2.6875 -0.07741,0.668426 -0.156023,1.344276 -0.25,1.84375 -0.04699,0.249737 -0.10891,0.451522 -0.15625,0.59375 -0.02367,0.07111 -0.04178,0.122954 -0.0625,0.15625 -0.02072,0.0333 -0.03585,0.03125 -0.03125,0.03125 0.0046,0 -0.01053,0.002 -0.03125,-0.03125 C 3.41678,23.091486 3.39867,23.039646 3.375,22.968536 3.32765,22.82631 3.29699,22.624522 3.25,22.374786 3.15602,21.875313 3.046149,21.199462 2.96875,20.531036 c -0.154798,-1.336851 -0.25,-2.6875 -0.25,-2.6875 0,0 -0.410682,-2.71931 -0.8125,-5.65625 -0.200909,-1.46847 -0.41186,-2.9918937 -0.5625,-4.2499997 -0.15064,-1.258106 -0.25,-2.245249 -0.25,-2.65625 l 0,-4.68750001 -0.09375,0 z"
     id="path3938"
     inkscape:connector-curvature="0" /><g
     id="Fin"
     transform="matrix(0.06207317,0,0,0.06207317,-27.693988,-30.359818)"><path
       stroke-miterlimit="10"
       d="m 501.584,987.501 -6.833,-63.167 c 0,0 -2,-157.166 -2,-166.333 0,-11 6.666,-15.334 10,-15.334 h -1.168 c 3.334,0 10,4.334 10,15.334 0,9.167 -2,166.333 -2,166.333 l -6.833,63.167 h -1.166 z"
       id="path22"
       inkscape:connector-curvature="0"
       style="fill:#c19069;fill-opacity:1;stroke:#000000;stroke-miterlimit:10" /><path
       stroke-miterlimit="10"
       d="m 501.584,987.501 c 0,0 -6.875,-57.751 -6.875,-66.503 0,-8.752 7.458,-12.998 7.458,-12.998 0,0 7.458,4.246 7.458,12.998 0,8.752 -6.875,66.503 -6.875,66.503 h -1.166 z"
       id="path24"
       inkscape:connector-curvature="0"
       style="fill:#c19069;fill-opacity:1;stroke:#000000;stroke-miterlimit:10" /><line
       stroke-miterlimit="10"
       x1="502.16699"
       y1="908"
       x2="502.16699"
       y2="742.66699"
       id="line26"
       style="fill:#c19069;fill-opacity:1;stroke:#000000;stroke-miterlimit:10" /></g><path
     style="fill:none;fill-rule:evenodd;stroke:#000000;stroke-width:0.055;stroke-linecap:butt;stroke-linejoin:miter;stroke-miterlimit:4;stroke-dasharray:none;stroke-opacity:1"
     d="m 1.0427053,1.9725308 c 0.62031,0 0.840781,-0.02659 0.930465,0.128744 0.08968,0.155336 0.134595,1.316695 0,1.451291 -0.134596,0.134595 -0.924613,0.09363 -0.924613,0.09363"
     id="path4181"
     inkscape:connector-curvature="0"
     sodipodi:nodetypes="ccsc" /><path
     sodipodi:nodetypes="ccsc"
     inkscape:connector-curvature="0"
     id="path4183"
     d="m 5.8925433,1.9725308 c -0.62031,0 -0.840781,-0.02659 -0.930465,0.128744 -0.08968,0.155336 -0.134595,1.316695 0,1.451291 0.134596,0.134595 0.924613,0.09363 0.924613,0.09363"
     style="fill:none;fill-rule:evenodd;stroke:#000000;stroke-width:0.055;stroke-linecap:butt;stroke-linejoin:miter;stroke-miterlimit:4;stroke-dasharray:none;stroke-opacity:1" /></svg>