<?xml version="1.0" encoding="UTF-8" standalone="no"?>
<!-- Generator: Adobe Illustrator 15.1.0, SVG Export Plug-In . SVG Version: 6.00 Build 0)  -->

<svg
   xmlns:dc="http://purl.org/dc/elements/1.1/"
   xmlns:cc="http://creativecommons.org/ns#"
   xmlns:rdf="http://www.w3.org/1999/02/22-rdf-syntax-ns#"
   xmlns:svg="http://www.w3.org/2000/svg"
   xmlns="http://www.w3.org/2000/svg"
   xmlns:sodipodi="http://sodipodi.sourceforge.net/DTD/sodipodi-0.dtd"
   xmlns:inkscape="http://www.inkscape.org/namespaces/inkscape"
   version="1.1"
   x="0px"
   y="0px"
   width="16.125"
   height="14.035211"
   viewBox="0 0 16.125 14.035211"
   enable-background="new 0 0 1000 1000"
   xml:space="preserve"
   id="svg2"
   inkscape:version="0.48.5 r10040"
   sodipodi:docname="DHC_6_wing_L_1.svg"><metadata
     id="metadata80"><rdf:RDF><cc:Work
         rdf:about=""><dc:format>image/svg+xml</dc:format><dc:type
           rdf:resource="http://purl.org/dc/dcmitype/StillImage" /><dc:title></dc:title></cc:Work></rdf:RDF></metadata><defs
     id="defs78" /><sodipodi:namedview
     pagecolor="#ffffff"
     bordercolor="#666666"
     borderopacity="1"
     objecttolerance="10"
     gridtolerance="10"
     guidetolerance="10"
     inkscape:pageopacity="0"
     inkscape:pageshadow="2"
     inkscape:window-width="1920"
     inkscape:window-height="1060"
     id="namedview76"
     showgrid="false"
     fit-margin-top="1"
     fit-margin-left="1"
     fit-margin-right="1"
     fit-margin-bottom="1"
     inkscape:zoom="30.208"
     inkscape:cx="1.996995"
     inkscape:cy="5.5326389"
     inkscape:window-x="-2"
     inkscape:window-y="-3"
     inkscape:window-maximized="1"
     inkscape:current-layer="svg2" /><path
     style="fill:#c19069;fill-opacity:1;stroke:none"
     d="m 1.375,6.0664606 c 0,0 0.303414,0.208597 0.5,0.25 0.196586,0.0414 4.15625,0 4.15625,0 0,0 0.21875,3.266497 0.21875,4.3750004 0,0.756672 1.625,0.704011 1.625,-0.03125 0,-0.7352574 0.15625,-4.3437504 0.15625,-4.3437504 l 7.09375,0 -0.9375,6.6562504 -12.8125,0 c 0,0 -0.34375,-5.1083844 -0.34375,-5.7187504 0,-0.610365 0.34375,-1.1875 0.34375,-1.1875 z"
     id="path53"
     inkscape:connector-curvature="0" /><path
     style="font-size:medium;font-style:normal;font-variant:normal;font-weight:normal;font-stretch:normal;text-indent:0;text-align:start;text-decoration:none;line-height:normal;letter-spacing:normal;word-spacing:normal;text-transform:none;direction:ltr;block-progression:tb;writing-mode:lr-tb;text-anchor:start;baseline-shift:baseline;color:#000000;fill:#000000;fill-opacity:1;fill-rule:nonzero;stroke:none;stroke-width:1;marker:none;visibility:visible;display:inline;overflow:visible;enable-background:accumulate;font-family:Sans;-inkscape-font-specification:Sans"
     d="m 14.375,11.597711 0,0.0625 -2.625,0 -0.125,1.28125 2.5625,0 0,0.0625 -2.5625,0 -9.875,0 -0.03125,0 0,-0.03125 0,-1.34375 0,-0.03125 0.03125,0 10,0 2.625,0 z m -2.6875,0.0625 -9.90625,0 0,1.28125 9.8125,0 0.09375,-1.28125 z"
     id="polygon55"
     inkscape:connector-curvature="0" /><g
     id="L_Propeller"
     transform="matrix(-0.06207317,0,0,0.06207317,30.131488,-18.949393)"><path
       stroke-miterlimit="10"
       d="m 356.042,407 c 0,0 0,-45.5 0,-53.333 0,-7.833 8.335,-14.167 8.335,-14.167 h 17.167 c 0,0 7.833,1.332 7.833,14.167 0,12.835 -1.002,53.333 -1.002,53.333 0,0 -3.924,49.119 -3.924,70.31 0,13.524 -26.076,10.19 -26.076,-0.297 C 358.375,468 356.042,407 356.042,407 z"
       id="path62"
       inkscape:connector-curvature="0"
       style="fill:#c19069;fill-opacity:1;stroke:#000000;stroke-miterlimit:10" /><path
       stroke-miterlimit="10"
       d="m 373.148,322.75 c 4.917,0 8.604,16.75 8.604,16.75 h -17.125 c -0.001,0 3.604,-16.75 8.521,-16.75 z"
       id="path64"
       inkscape:connector-curvature="0"
       style="fill:#363636;stroke:#000000;stroke-miterlimit:10" /><polygon
       stroke-miterlimit="10"
       points="350.501,358 357.876,353.625 357.876,371.625 353.876,372.5 "
       id="polygon66"
       style="fill:#363636;stroke:#000000;stroke-miterlimit:10" /><polygon
       stroke-miterlimit="10"
       points="394.856,358 387.481,353.625 387.481,371.625 391.481,372.5 "
       id="polygon68"
       style="fill:#363636;stroke:#000000;stroke-miterlimit:10" /><path
       stroke-miterlimit="10"
       d="m 364.822,338.654 c 0,0 -21.446,6.597 -33.779,3.18 5.083,-3.25 7.501,-4.25 13.917,-5.167 6.416,-0.917 20.744,-1.37 20.744,-1.37 l -0.882,3.357 z"
       id="path70"
       inkscape:connector-curvature="0"
       style="fill:#c19069;fill-opacity:1;stroke:#000000;stroke-miterlimit:10" /><path
       stroke-miterlimit="10"
       d="m 381.781,338.56 c 0,0 26.438,8.133 41.642,3.92 -6.267,-4.006 -9.247,-5.24 -17.156,-6.37 -7.909,-1.13 -25.572,-1.689 -25.572,-1.689 l 1.086,4.139 z"
       id="path72"
       inkscape:connector-curvature="0"
       style="fill:#c19069;fill-opacity:1;stroke:#000000;stroke-miterlimit:10" /><path
       stroke-miterlimit="10"
       d="m 371.606,336.372 c 0,0 -11.388,-6.605 -12.049,-13.98 4.076,0.729 5.569,1.347 8.111,3.847 2.545,2.5 6.924,8.875 6.924,8.875 l -2.986,1.258 z"
       id="path74"
       inkscape:connector-curvature="0"
       style="fill:#c19069;fill-opacity:1;stroke:#000000;stroke-miterlimit:10" /></g><path
     style="font-size:medium;font-style:normal;font-variant:normal;font-weight:normal;font-stretch:normal;text-indent:0;text-align:start;text-decoration:none;line-height:normal;letter-spacing:normal;word-spacing:normal;text-transform:none;direction:ltr;block-progression:tb;writing-mode:lr-tb;text-anchor:start;baseline-shift:baseline;color:#000000;fill:#000000;fill-opacity:1;fill-rule:nonzero;stroke:none;stroke-width:0.06207317;marker:none;visibility:visible;display:inline;overflow:visible;enable-background:accumulate;font-family:Sans;-inkscape-font-specification:Sans"
     d="m 1.375,6.0039606 0.03125,0.03125 c 0,0 0.08722,0.03788 0.1875,0.09375 0.100281,0.05587 0.225451,0.106667 0.3125,0.125 0.0036,7.65e-4 0.02361,0.02932 0.0625,0.03125 0.03889,0.0019 0.09322,-0.0014 0.15625,0 0.126064,0.0028 0.301566,-9.7e-4 0.5,0 0.396868,0.0019 0.90133,0.0026 1.40625,0 1.009841,-0.0052 2,-0.03125 2,-0.03125 l 0.03125,0 0,0.0625 c 0,0 0.25,3.259173 0.25,4.3750004 0,0.171342 0.07788,0.290351 0.21875,0.375 0.140873,0.08465 0.3366,0.128505 0.53125,0.125 0.19465,-0.0035 0.389751,-0.06738 0.53125,-0.15625 0.141499,-0.08887 0.25,-0.20953 0.25,-0.375 0,-0.7418224 0.125,-4.3437504 0.125,-4.3437504 l 0,-0.0625 0.0625,0 7.09375,0 0,0.125 -7.0625,0 c -0.004,0.10113 -0.125,3.563034 -0.125,4.2812504 0,0.20216 -0.119258,0.367005 -0.28125,0.46875 -0.161992,0.101745 -0.383745,0.152469 -0.59375,0.15625 -0.210005,0.0038 -0.399881,-0.05853 -0.5625,-0.15625 -0.162619,-0.09772 -0.28125,-0.230506 -0.28125,-0.4375 0,-1.0854994 -0.243263,-4.2220804 -0.25,-4.3125004 -0.05876,6.12e-4 -0.958878,-0.005 -1.9375,0 -0.505095,0.0026 -1.008746,0.0019 -1.40625,0 -0.198752,-9.71e-4 -0.372871,0.0028 -0.5,0 -0.06357,-0.0014 -0.115805,0.002 -0.15625,0 -0.04044,-0.002 -0.07281,-0.02684 -0.09375,-0.03125 -0.109537,-0.02307 -0.239764,-0.06707 -0.34375,-0.125 -0.07199,-0.04011 -0.09485,-0.07439 -0.125,-0.09375 -0.01601,0.02779 -0.3125,0.548184 -0.3125,1.125 0,0.295861 0.07091,1.741752 0.15625,3.0937504 0.08332,1.319971 0.183599,2.504147 0.1875,2.5625 l 12.78125,0 -0.03125,0.125 -12.8125,0 -0.03125,0 -0.03125,-0.0625 c 0,0 -0.07089,-1.272765 -0.15625,-2.625 C 1.07089,8.9954756 0.99999998,7.5684656 0.99999998,7.2539606 c 0,-0.59913 0.31372702,-1.104356 0.34375002,-1.15625 0.0015,-0.0026 0,-0.0625 0,-0.0625 L 1.375,6.0039606 z"
     id="path3030"
     inkscape:connector-curvature="0" /></svg>