<?xml version="1.0" encoding="UTF-8" standalone="no"?>
<!-- Generator: Adobe Illustrator 15.1.0, SVG Export Plug-In . SVG Version: 6.00 Build 0)  -->

<svg
   xmlns:dc="http://purl.org/dc/elements/1.1/"
   xmlns:cc="http://creativecommons.org/ns#"
   xmlns:rdf="http://www.w3.org/1999/02/22-rdf-syntax-ns#"
   xmlns:svg="http://www.w3.org/2000/svg"
   xmlns="http://www.w3.org/2000/svg"
   xmlns:sodipodi="http://sodipodi.sourceforge.net/DTD/sodipodi-0.dtd"
   xmlns:inkscape="http://www.inkscape.org/namespaces/inkscape"
   version="1.1"
   x="0px"
   y="0px"
   width="61"
   height="51.999939"
   viewBox="0 0 61 51.999939"
   enable-background="new 0 0 1000 1000"
   xml:space="preserve"
   id="svg2"
   inkscape:version="0.91 r13725"
   sodipodi:docname="DHC-6xxA3.svg"><metadata
     id="metadata80"><rdf:RDF><cc:Work
         rdf:about=""><dc:format>image/svg+xml</dc:format><dc:type
           rdf:resource="http://purl.org/dc/dcmitype/StillImage" /></cc:Work></rdf:RDF></metadata><defs
     id="defs78" /><sodipodi:namedview
     pagecolor="#ffffff"
     bordercolor="#666666"
     borderopacity="1"
     objecttolerance="10"
     gridtolerance="10"
     guidetolerance="10"
     inkscape:pageopacity="0"
     inkscape:pageshadow="2"
     inkscape:window-width="3840"
     inkscape:window-height="2107"
     id="namedview76"
     showgrid="false"
     fit-margin-top="1"
     fit-margin-left="1"
     fit-margin-right="1"
     fit-margin-bottom="1"
     inkscape:zoom="42.720564"
     inkscape:cx="23.483583"
     inkscape:cy="34.490098"
     inkscape:window-x="-8"
     inkscape:window-y="0"
     inkscape:window-maximized="1"
     inkscape:current-layer="svg2" /><g
     id="Body"
     transform="matrix(0.06207317,0,0,0.06207317,-0.5689877,-10.328354)"><path
       stroke-miterlimit="10"
       d="m 502.168,863.001 c -6.24,0 -13.104,-86.223 -13.104,-86.223 0,0 -25.896,-175.777 -25.896,-202.777 0,-27 0,-231.667 0,-258 0,-26.333 5.92,-69.096 9.984,-82.667 4.064,-13.571 13.726,-50.334 29.016,-50.334 15.287,0 24.951,36.764 29.016,50.334 4.065,13.57 9.984,56.333 9.984,82.667 0,26.334 0,231 0,258 0,27 -25.896,202.777 -25.896,202.777 0,0 -6.866,86.223 -13.104,86.223 z"
       id="path5"
       inkscape:connector-curvature="0"
       style="fill:#c19069;fill-opacity:1;stroke:#000000;stroke-miterlimit:10" /><path
       stroke-miterlimit="10"
       d="m 537,290.932 c 1.077,8.079 1.082,11.484 1.082,11.484 0,0 -10.582,-12.916 -34.749,-12.916 v -12.833 c 0,0 32.59,6.186 33.667,14.265 z"
       id="path7"
       inkscape:connector-curvature="0"
       style="fill:#363636;stroke:#000000;stroke-miterlimit:10" /><path
       stroke-miterlimit="10"
       d="m 467.333,290.932 c -1.077,8.079 -1.082,11.484 -1.082,11.484 0,0 10.582,-12.916 34.749,-12.916 v -12.833 c 0,0 -32.59,6.186 -33.667,14.265 z"
       id="path9"
       inkscape:connector-curvature="0"
       style="fill:#363636;stroke:#000000;stroke-miterlimit:10" /></g><g
     id="R_Tail"
     transform="matrix(0.06207317,0,0,0.06207317,-0.5689877,-10.328354)"><path
       stroke-miterlimit="10"
       d="m 510.584,863 h 149.667 c 0,0 0,-60.25 0,-66.25 0,-6 -7.403,-7.5 -7.403,-7.5 H 510.584 V 863 z"
       id="path12"
       inkscape:connector-curvature="0"
       style="fill:#c19069;fill-opacity:1;stroke:#000000;stroke-miterlimit:10" /><polygon
       stroke-miterlimit="10"
       points="660.251,805.75 660.251,863 510.584,863 510.584,830.5 571.167,830.5 571.167,838.75 626.937,838.75 626.937,830.5 646.926,830.5 646.926,805.75 "
       id="polygon14"
       style="fill:#c19069;fill-opacity:1;stroke:#000000;stroke-miterlimit:10" /></g><g
     id="L_Tail"
     transform="matrix(0.06207317,0,0,0.06207317,-0.5689877,-10.328354)"><path
       stroke-miterlimit="10"
       d="M 493.585,863 H 343.918 c 0,0 0,-60.25 0,-66.25 0,-6 7.403,-7.5 7.403,-7.5 H 493.585 V 863 z"
       id="path17"
       inkscape:connector-curvature="0"
       style="fill:#c19069;fill-opacity:1;stroke:#000000;stroke-miterlimit:10" /><polygon
       stroke-miterlimit="10"
       points="343.918,805.75 343.918,863 493.585,863 493.585,830.5 433.002,830.5 433.002,838.75 377.232,838.75 377.232,830.5 357.243,830.5 357.243,805.75 "
       id="polygon19"
       style="fill:#c19069;fill-opacity:1;stroke:#000000;stroke-miterlimit:10" /></g><path
     style="fill:#c19069;fill-opacity:1;stroke:#000000;stroke-width:0.06207317;stroke-miterlimit:10"
     inkscape:connector-curvature="0"
     id="path22"
     d="m 30.565921,50.968963 -0.424146,-3.920975 c 0,0 -0.124146,-9.755792 -0.124146,-10.324817 0,-0.682805 0.41378,-0.95183 0.620732,-0.95183 l -0.0725,0 c 0.206952,0 0.620732,0.269025 0.620732,0.95183 0,0.569025 -0.124147,10.324817 -0.124147,10.324817 l -0.424145,3.920975 -0.07238,0 z"
     stroke-miterlimit="10" /><path
     style="fill:#c19069;fill-opacity:1;stroke:#000000;stroke-width:0.06207317;stroke-miterlimit:10"
     inkscape:connector-curvature="0"
     id="path24"
     d="m 30.565921,50.968963 c 0,0 -0.426753,-3.584787 -0.426753,-4.128052 0,-0.543264 0.462942,-0.806827 0.462942,-0.806827 0,0 0.462942,0.263563 0.462942,0.806827 0,0.543265 -0.426753,4.128052 -0.426753,4.128052 l -0.07238,0 z"
     stroke-miterlimit="10" /><line
     style="fill:#c19069;fill-opacity:1;stroke:#000000;stroke-width:0.06207317;stroke-miterlimit:10"
     id="line26"
     y2="35.771339"
     x2="30.60211"
     y1="46.034084"
     x1="30.60211"
     stroke-miterlimit="10" /><path
     sodipodi:nodetypes="csc"
     inkscape:connector-curvature="0"
     id="path4172"
     d="m 28.179621,11.447768 c 0.501063,0 0.787431,0.20114 0.787431,0.753382 0,0.477646 -0.240038,0.678358 -0.779131,0.678358"
     style="fill:none;fill-rule:evenodd;stroke:#000000;stroke-width:0.055;stroke-linecap:butt;stroke-linejoin:miter;stroke-miterlimit:4;stroke-dasharray:none;stroke-opacity:1" /><path
     style="fill:none;fill-rule:evenodd;stroke:#000000;stroke-width:0.055;stroke-linecap:butt;stroke-linejoin:miter;stroke-miterlimit:4;stroke-dasharray:none;stroke-opacity:1"
     d="m 33.000113,11.447768 c -0.501063,0 -0.787431,0.20114 -0.787431,0.753382 0,0.477646 0.240038,0.678358 0.779131,0.678358"
     id="path4174"
     inkscape:connector-curvature="0"
     sodipodi:nodetypes="csc" /><g
     id="R_Wing"
     transform="matrix(0.06207317,0,0,0.06207317,-0.5689877,-10.328354)"><path
       stroke-miterlimit="10"
       d="m 541.168,403 c 0,0 4.998,3.333 8.165,4 3.167,0.667 66.669,0 66.669,0 0,0 3.924,52.452 3.924,70.31 0,12.19 26.076,11.548 26.076,-0.297 0,-11.845 2.333,-70.013 2.333,-70.013 h 318.667 c 0,0 11.262,10.997 11.333,15.333 0.071,4.336 0.668,36.667 0,45.667 -0.668,9 -16.667,46.218 -16.667,46.218 h -420.5 c 0,0 -5.5,-82.214 -5.5,-92.047 0,-9.833 5.5,-19.171 5.5,-19.171 z"
       id="path29"
       inkscape:connector-curvature="0"
       style="fill:#c19069;fill-opacity:1;stroke:#000000;stroke-miterlimit:10" /><polygon
       stroke-miterlimit="10"
       points="959.333,514.218 963.333,492.667 547,492.667 547,514.218 "
       id="polygon31"
       style="fill:#c19069;fill-opacity:1;stroke:#000000;stroke-miterlimit:10" /><polygon
       stroke-miterlimit="10"
       points="547,492.667 708,492.667 706,514.218 547,514.218 "
       id="polygon33"
       style="fill:#c19069;fill-opacity:1;stroke:#000000;stroke-miterlimit:10" /><path
       stroke-miterlimit="10"
       d="m 870.667,407 c 0,0 5.333,-11.333 12.333,0 7,11.333 -4,79.667 -4,79.667 h -2.166 C 885.667,392 870.667,407 870.667,407 z"
       id="path35"
       inkscape:connector-curvature="0"
       style="fill:#c19069;fill-opacity:1;stroke:#000000;stroke-miterlimit:10" /></g><g
     id="R_Propeller"
     transform="matrix(0.06207317,0,0,0.06207317,-0.5689877,-10.328354)"><path
       stroke-miterlimit="10"
       d="m 648.335,407 c 0,0 0,-45.5 0,-53.333 C 648.335,345.834 640,339.5 640,339.5 h -17.167 c 0,0 -7.833,1.332 -7.833,14.167 0,12.835 1.002,53.333 1.002,53.333 0,0 3.924,49.119 3.924,70.31 0,13.524 26.076,10.19 26.076,-0.297 0,-9.013 2.333,-70.013 2.333,-70.013 z"
       id="path38"
       inkscape:connector-curvature="0"
       style="fill:#c19069;fill-opacity:1;stroke:#000000;stroke-miterlimit:10" /><path
       stroke-miterlimit="10"
       d="m 631.229,322.75 c -4.917,0 -8.604,16.75 -8.604,16.75 h 17.125 c 0,0 -3.604,-16.75 -8.521,-16.75 z"
       id="path40"
       inkscape:connector-curvature="0"
       style="fill:#363636;stroke:#000000;stroke-miterlimit:10" /><polygon
       stroke-miterlimit="10"
       points="653.875,358 646.5,353.625 646.5,371.625 650.5,372.5 "
       id="polygon42"
       style="fill:#363636;stroke:#000000;stroke-miterlimit:10" /><polygon
       stroke-miterlimit="10"
       points="609.521,358 616.896,353.625 616.896,371.625 612.896,372.5 "
       id="polygon44"
       style="fill:#363636;stroke:#000000;stroke-miterlimit:10" /><path
       stroke-miterlimit="10"
       d="m 639.555,338.653 c 0,0 21.446,6.597 33.779,3.18 -5.083,-3.25 -7.501,-4.25 -13.917,-5.167 -6.416,-0.917 -20.744,-1.37 -20.744,-1.37 l 0.882,3.357 z"
       id="path46"
       inkscape:connector-curvature="0"
       style="fill:#c19069;fill-opacity:1;stroke:#000000;stroke-miterlimit:10" /><path
       stroke-miterlimit="10"
       d="m 622.596,338.56 c 0,0 -26.438,8.133 -41.642,3.92 6.267,-4.006 9.247,-5.24 17.156,-6.37 7.909,-1.13 25.572,-1.689 25.572,-1.689 l -1.086,4.139 z"
       id="path48"
       inkscape:connector-curvature="0"
       style="fill:#c19069;fill-opacity:1;stroke:#000000;stroke-miterlimit:10" /><path
       stroke-miterlimit="10"
       d="m 632.771,336.372 c 0,0 11.388,-6.605 12.049,-13.98 -4.076,0.729 -5.569,1.347 -8.111,3.847 -2.545,2.5 -6.924,8.875 -6.924,8.875 l 2.986,1.258 z"
       id="path50"
       inkscape:connector-curvature="0"
       style="fill:#c19069;fill-opacity:1;stroke:#000000;stroke-miterlimit:10" /></g><g
     id="L_Wing"
     transform="matrix(0.06207317,0,0,0.06207317,-0.5689877,-10.328354)"><path
       stroke-miterlimit="10"
       d="m 463.252,403 c 0,0 -4.998,3.333 -8.165,4 -3.167,0.667 -66.669,0 -66.669,0 0,0 -3.924,52.452 -3.924,70.31 0,12.19 -26.076,11.548 -26.076,-0.297 0,-11.845 -2.333,-70.013 -2.333,-70.013 H 37.418 c 0,0 -11.262,10.997 -11.333,15.333 -0.071,4.336 -0.668,36.667 0,45.667 0.668,9 16.667,46.218 16.667,46.218 h 420.5 c 0,0 5.5,-82.214 5.5,-92.047 0,-9.833 -5.5,-19.171 -5.5,-19.171 z"
       id="path53"
       inkscape:connector-curvature="0"
       style="fill:#c19069;fill-opacity:1;stroke:#000000;stroke-miterlimit:10" /><polygon
       stroke-miterlimit="10"
       points="45.087,514.219 41.087,492.667 457.42,492.667 457.42,514.219 "
       id="polygon55"
       style="fill:#c19069;fill-opacity:1;stroke:#000000;stroke-miterlimit:10" /><polygon
       stroke-miterlimit="10"
       points="457.42,492.667 296.42,492.667 298.42,514.219 457.42,514.219 "
       id="polygon57"
       style="fill:#c19069;fill-opacity:1;stroke:#000000;stroke-miterlimit:10" /><path
       stroke-miterlimit="10"
       d="m 133.753,407 c 0,0 -5.333,-11.333 -12.333,0 -7,11.333 4,79.667 4,79.667 h 2.166 C 118.753,392 133.753,407 133.753,407 z"
       id="path59"
       inkscape:connector-curvature="0"
       style="fill:#c19069;fill-opacity:1;stroke:#000000;stroke-miterlimit:10" /></g><g
     id="L_Propeller"
     transform="matrix(0.06207317,0,0,0.06207317,-0.5689877,-10.328354)"><path
       stroke-miterlimit="10"
       d="m 356.042,407 c 0,0 0,-45.5 0,-53.333 0,-7.833 8.335,-14.167 8.335,-14.167 h 17.167 c 0,0 7.833,1.332 7.833,14.167 0,12.835 -1.002,53.333 -1.002,53.333 0,0 -3.924,49.119 -3.924,70.31 0,13.524 -26.076,10.19 -26.076,-0.297 C 358.375,468 356.042,407 356.042,407 z"
       id="path62"
       inkscape:connector-curvature="0"
       style="fill:#c19069;fill-opacity:1;stroke:#000000;stroke-miterlimit:10" /><path
       stroke-miterlimit="10"
       d="m 373.148,322.75 c 4.917,0 8.604,16.75 8.604,16.75 h -17.125 c -0.001,0 3.604,-16.75 8.521,-16.75 z"
       id="path64"
       inkscape:connector-curvature="0"
       style="fill:#363636;stroke:#000000;stroke-miterlimit:10" /><polygon
       stroke-miterlimit="10"
       points="350.501,358 357.876,353.625 357.876,371.625 353.876,372.5 "
       id="polygon66"
       style="fill:#363636;stroke:#000000;stroke-miterlimit:10" /><polygon
       stroke-miterlimit="10"
       points="394.856,358 387.481,353.625 387.481,371.625 391.481,372.5 "
       id="polygon68"
       style="fill:#363636;stroke:#000000;stroke-miterlimit:10" /><path
       stroke-miterlimit="10"
       d="m 364.822,338.654 c 0,0 -21.446,6.597 -33.779,3.18 5.083,-3.25 7.501,-4.25 13.917,-5.167 6.416,-0.917 20.744,-1.37 20.744,-1.37 l -0.882,3.357 z"
       id="path70"
       inkscape:connector-curvature="0"
       style="fill:#c19069;fill-opacity:1;stroke:#000000;stroke-miterlimit:10" /><path
       stroke-miterlimit="10"
       d="m 381.781,338.56 c 0,0 26.438,8.133 41.642,3.92 -6.267,-4.006 -9.247,-5.24 -17.156,-6.37 -7.909,-1.13 -25.572,-1.689 -25.572,-1.689 l 1.086,4.139 z"
       id="path72"
       inkscape:connector-curvature="0"
       style="fill:#c19069;fill-opacity:1;stroke:#000000;stroke-miterlimit:10" /><path
       stroke-miterlimit="10"
       d="m 371.606,336.372 c 0,0 -11.388,-6.605 -12.049,-13.98 4.076,0.729 5.569,1.347 8.111,3.847 2.545,2.5 6.924,8.875 6.924,8.875 l -2.986,1.258 z"
       id="path74"
       inkscape:connector-curvature="0"
       style="fill:#c19069;fill-opacity:1;stroke:#000000;stroke-miterlimit:10" /></g><path
     style="fill:none;fill-rule:evenodd;stroke:#000000;stroke-width:0.055;stroke-linecap:butt;stroke-linejoin:miter;stroke-miterlimit:4;stroke-dasharray:none;stroke-opacity:1"
     d="m 28.171445,22.342091 c 0.62031,0 0.840781,-0.02659 0.930465,0.128744 0.08968,0.155336 0.134595,1.316695 0,1.451291 -0.134596,0.134595 -0.924613,0.09363 -0.924613,0.09363"
     id="path4181"
     inkscape:connector-curvature="0"
     sodipodi:nodetypes="ccsc" /><path
     sodipodi:nodetypes="ccsc"
     inkscape:connector-curvature="0"
     id="path4183"
     d="m 33.021283,22.342091 c -0.62031,0 -0.840781,-0.02659 -0.930465,0.128744 -0.08968,0.155336 -0.134595,1.316695 0,1.451291 0.134596,0.134595 0.924613,0.09363 0.924613,0.09363"
     style="fill:none;fill-rule:evenodd;stroke:#000000;stroke-width:0.055;stroke-linecap:butt;stroke-linejoin:miter;stroke-miterlimit:4;stroke-dasharray:none;stroke-opacity:1" /></svg>