<?xml version="1.0" encoding="UTF-8" standalone="no"?>
<!-- Generator: Adobe Illustrator 15.1.0, SVG Export Plug-In . SVG Version: 6.00 Build 0)  -->

<svg
   xmlns:dc="http://purl.org/dc/elements/1.1/"
   xmlns:cc="http://creativecommons.org/ns#"
   xmlns:rdf="http://www.w3.org/1999/02/22-rdf-syntax-ns#"
   xmlns:svg="http://www.w3.org/2000/svg"
   xmlns="http://www.w3.org/2000/svg"
   xmlns:sodipodi="http://sodipodi.sourceforge.net/DTD/sodipodi-0.dtd"
   xmlns:inkscape="http://www.inkscape.org/namespaces/inkscape"
   version="1.1"
   x="0px"
   y="0px"
   width="16"
   height="9"
   viewBox="0 0 16 9"
   enable-background="new 0 0 1000 1000"
   xml:space="preserve"
   id="svg2"
   inkscape:version="0.48.5 r10040"
   sodipodi:docname="DHC_6_wing_R_2.svg"><metadata
     id="metadata80"><rdf:RDF><cc:Work
         rdf:about=""><dc:format>image/svg+xml</dc:format><dc:type
           rdf:resource="http://purl.org/dc/dcmitype/StillImage" /><dc:title></dc:title></cc:Work></rdf:RDF></metadata><defs
     id="defs78" /><sodipodi:namedview
     pagecolor="#ffffff"
     bordercolor="#666666"
     borderopacity="1"
     objecttolerance="10"
     gridtolerance="10"
     guidetolerance="10"
     inkscape:pageopacity="0"
     inkscape:pageshadow="2"
     inkscape:window-width="1920"
     inkscape:window-height="1060"
     id="namedview76"
     showgrid="false"
     fit-margin-top="1"
     fit-margin-left="1"
     fit-margin-right="1"
     fit-margin-bottom="1"
     inkscape:zoom="30.208"
     inkscape:cx="12.501455"
     inkscape:cy="3.9248112"
     inkscape:window-x="-2"
     inkscape:window-y="-3"
     inkscape:window-maximized="1"
     inkscape:current-layer="svg2" /><path
     style="fill:#c19069;fill-opacity:1;stroke:none"
     d="m 1.782095,1.2812499 c 0,0 -0.683093,0.668351 -0.6875,0.9375 -0.0044,0.269149 -0.04147,2.285091 0,2.84375 0.04147,0.558658 1.03125,2.875 1.03125,2.875 l 13.28125,0 -0.9375,-6.65625 -12.6875,0 z"
     id="path53"
     inkscape:connector-curvature="0" /><path
     style="font-size:medium;font-style:normal;font-variant:normal;font-weight:normal;font-stretch:normal;text-indent:0;text-align:start;text-decoration:none;line-height:normal;letter-spacing:normal;word-spacing:normal;text-transform:none;direction:ltr;block-progression:tb;writing-mode:lr-tb;text-anchor:start;baseline-shift:baseline;color:#000000;fill:#000000;fill-opacity:1;fill-rule:nonzero;stroke:none;stroke-width:1;marker:none;visibility:visible;display:inline;overflow:visible;enable-background:accumulate;font-family:Sans;-inkscape-font-specification:Sans"
     d="m 1.969595,6.5624999 0,0.03125 0.25,1.34375 0,0.03125 0.03125,0 13.15625,0 -0.03125,-0.0625 -13.09375,0 -0.21875,-1.28125 13.15625,0 -0.03125,-0.0625 -13.1875,0 -0.03125,0 z"
     id="polygon55"
     inkscape:connector-curvature="0" /><path
     style="font-size:medium;font-style:normal;font-variant:normal;font-weight:normal;font-stretch:normal;text-indent:0;text-align:start;text-decoration:none;line-height:normal;letter-spacing:normal;word-spacing:normal;text-transform:none;direction:ltr;block-progression:tb;writing-mode:lr-tb;text-anchor:start;baseline-shift:baseline;color:#000000;fill:#000000;fill-opacity:1;fill-rule:nonzero;stroke:none;stroke-width:0.06207317;marker:none;visibility:visible;display:inline;overflow:visible;enable-background:accumulate;font-family:Sans;-inkscape-font-specification:Sans"
     d="m 1.750845,1.2187499 0,0.03125 c 0,0 -0.166699,0.168682 -0.34375,0.375 -0.08853,0.103159 -0.181839,0.207571 -0.25,0.3125 -0.06816,0.104929 -0.12355,0.192673 -0.125,0.28125 -0.0022,0.134316 -0.02662,0.706971 -0.03125,1.3125 -0.0046,0.605529 0.01011,1.246417 0.03125,1.53125 0.01127,0.15182 0.08812,0.391038 0.1875,0.6875 0.09938,0.296462 0.216839,0.644593 0.34375,0.96875 0.253821,0.648313 0.5,1.25 0.5,1.25 l 0.03125,0.03125 0.03125,0 13.28125,0 -0.03125,-0.125 -13.21875,0 c -9.7e-5,-2.26e-4 -0.03111,3.17e-4 -0.03125,0 -0.01465,-0.034139 -0.223484,-0.561038 -0.46875,-1.1875 -0.12655,-0.323235 -0.245256,-0.67492 -0.34375,-0.96875 -0.09849,-0.29383 -0.178036,-0.528741 -0.1875,-0.65625 -0.02032,-0.273826 -0.0046,-0.926383 0,-1.53125 0.0046,-0.604867 -0.0022,-1.177667 0,-1.3125 7.53e-4,-0.046 0.06085,-0.119989 0.125,-0.21875 0.06415,-0.09876 0.131957,-0.211361 0.21875,-0.3125 0.158519,-0.184723 0.286191,-0.317827 0.3125,-0.34375 l 12.6875,0 0,-0.125 -12.6875,0 -0.03125,0 z"
     id="path3030"
     inkscape:connector-curvature="0" /><path
     style="fill:#c19069;fill-opacity:1;stroke:#000000;stroke-width:0.06207317;stroke-miterlimit:10"
     inkscape:connector-curvature="0"
     id="path59"
     d="m 7.7655798,1.2791759 c 0,0 -0.3310362,-0.70347503 -0.7655484,0 -0.4345122,0.703475 0.2482927,4.945183 0.2482927,4.945183 H 7.3827746 C 6.8344823,0.34807887 7.7655798,1.2791759 7.7655798,1.2791759 z"
     stroke-miterlimit="10" /></svg>