<?xml version="1.0" encoding="UTF-8" standalone="no"?>
<!-- Created with Inkscape (http://www.inkscape.org/) -->

<svg
   xmlns:dc="http://purl.org/dc/elements/1.1/"
   xmlns:cc="http://creativecommons.org/ns#"
   xmlns:rdf="http://www.w3.org/1999/02/22-rdf-syntax-ns#"
   xmlns:svg="http://www.w3.org/2000/svg"
   xmlns="http://www.w3.org/2000/svg"
   xmlns:sodipodi="http://sodipodi.sourceforge.net/DTD/sodipodi-0.dtd"
   xmlns:inkscape="http://www.inkscape.org/namespaces/inkscape"
   width="5.6155176"
   height="4.6504998"
   id="svg2"
   version="1.1"
   inkscape:version="0.48.5 r10040"
   sodipodi:docname="New document 1">
  <defs
     id="defs4" />
  <sodipodi:namedview
     id="base"
     pagecolor="#ffffff"
     bordercolor="#666666"
     borderopacity="1.0"
     inkscape:pageopacity="0.0"
     inkscape:pageshadow="2"
     inkscape:zoom="31.678384"
     inkscape:cx="8.4467238"
     inkscape:cy="4.884142"
     inkscape:document-units="px"
     inkscape:current-layer="layer1"
     showgrid="false"
     fit-margin-top="1"
     fit-margin-left="1"
     fit-margin-bottom="1"
     fit-margin-right="1"
     inkscape:window-width="1920"
     inkscape:window-height="1060"
     inkscape:window-x="-2"
     inkscape:window-y="-3"
     inkscape:window-maximized="1" />
  <metadata
     id="metadata7">
    <rdf:RDF>
      <cc:Work
         rdf:about="">
        <dc:format>image/svg+xml</dc:format>
        <dc:type
           rdf:resource="http://purl.org/dc/dcmitype/StillImage" />
        <dc:title></dc:title>
      </cc:Work>
    </rdf:RDF>
  </metadata>
  <g
     inkscape:label="Layer 1"
     inkscape:groupmode="layer"
     id="layer1"
     transform="translate(-162.28908,-599.81243)">
    <g
       id="g3862"
       transform="matrix(0.00948286,0,0,0.00948286,164.43411,597.12774)">
      <path
         id="path3841"
         d="m 213.03125,395.15625 c -10.23355,-0.21814 -21.23334,15.42813 -32.21875,31.90625 0,0 -4.03125,8.09613 -4.03125,17.1875 0,9.09137 37.37738,29.30234 46.46875,30.3125 9.09138,1.01015 26.27189,-30.30552 30.3125,-43.4375 4.04061,-13.13199 -26.26332,-31.33439 -37.375,-35.375 -1.04172,-0.37881 -2.09761,-0.57118 -3.15625,-0.59375 z m -43.625,55.6875 c -1.43153,-0.0571 -2.70828,0.0899 -3.75,0.46875 -11.11168,4.04061 -32.3125,37.375 -32.3125,37.375 -20.84997,26.8071 -54.381566,69.21108 -64.15625,95.59375 3.282996,-9.47018 4.561707,-20.34026 1.53125,-26.90625 C 64.657835,544.24301 -34.357864,472.5203 -48.5,470.5 c -14.142135,-2.02031 -24.243017,23.23287 -37.375,37.375 0,0 12.313087,9.05455 29,21.125 l -9.28125,-5.96875 c -8.586296,8.08122 -11.130869,20.21447 -13.65625,23.75 -2.525381,3.53554 -18.157047,15.66212 -21.1875,18.1875 -3.03046,2.52538 -13.15625,13.625 -13.15625,13.625 l 5.0625,8.59375 c 0,0 9.07932,6.57615 13.625,-1 4.545687,-7.57614 27.287118,-23.74571 29.8125,-27.28125 2.525381,-3.53553 6.068369,-16.68321 8.59375,-20.21875 2.368448,-3.31582 4.558534,-5.96841 4.84375,-6.3125 39.617014,28.57742 100.970189,71.83097 107.78125,70.46875 4.73509,-0.94702 9.69376,-8.11778 13,-16.8125 -8.712064,26.0992 17.373026,48.09973 35.46875,41.0625 18.18275,-7.07107 101.02189,-123.23366 105.0625,-140.40625 3.6618,-15.56267 -25.84935,-35.29216 -39.6875,-35.84375 z m -146.1875,134.3125 c -2.020306,18.18275 -1.505076,23.25587 -1,25.78125 0.505076,2.52538 12.625,18.17894 12.625,25.25 0,7.07107 -1.005077,20.69337 -0.5,23.21875 0.505076,2.52538 12.125,2.03125 12.125,2.03125 L 61.125,656.375 c 0,0 1.489055,-19.69416 -0.53125,-25.25 C 58.573445,625.56916 54.550762,623.04569 49.5,618.5 44.449237,613.95432 36.875,605.375 36.875,605.375 l 5.5625,-7.0625 -19.21875,-13.15625 z"
         style="fill:#c19069;fill-opacity:1;stroke:#000000;stroke-width:2.63633537;stroke-linecap:butt;stroke-linejoin:miter;stroke-miterlimit:4;stroke-opacity:1;stroke-dasharray:none"
         inkscape:connector-curvature="0" />
      <path
         id="path3852"
         d="m 196.5625,423.0625 -14.375,6.4375 c -0.66395,-0.35056 -1.33374,-0.6897 -2,-1.03125 -1.13379,2.70319 -3.40625,8.96272 -3.40625,15.78125 0,1.57923 1.15101,3.50239 3.0625,5.59375 11.92692,-0.20884 17.67402,0.22518 19.8125,-1 0.96084,-0.55143 1.16474,-1.53833 0.9375,-2.9375 17.23788,1.98902 35.02518,3.71865 44.21875,4.59375 0.28774,-0.52237 0.56391,-1.0405 0.84375,-1.5625 -11.34147,-3.58505 -33.30614,-10.45261 -47.65625,-14.375 -0.54943,-3.48452 -1.15635,-7.37978 -1.4375,-11.5 z M 167.75,450.875 c -0.57985,0.0508 -1.12781,0.14127 -1.625,0.28125 l 1.625,-0.28125 z m -7.03125,3.5 c -4.1416,3.36009 -8.81545,8.74392 -13.15625,14.28125 l 11.96875,27.53125 c -10.08546,0.98457 -21,3.40625 -21,3.40625 0,0 12.06992,8.69128 23.625,17.125 l -43.125,24.59375 -11.59375,-18.84375 c -1.54172,2.07291 -3.09543,4.1534 -4.625,6.25 l 29.25,37.4375 c -0.26713,1.28349 -0.61064,2.43899 -1.1875,2.96875 -0.30305,0.27833 1.59927,0.58706 4.28125,0.96875 l 7.40625,9.53125 -5.71875,-9.28125 c 4.12479,0.52129 10.14404,1.0973 16.59375,1.65625 1.48661,-1.97364 2.98373,-3.96718 4.46875,-5.96875 -11.61982,-3.09681 -22.63285,-5.88216 -25.25,-5.90625 0,0 -0.0138,1.43371 -0.15625,3.09375 l -7.40625,-12.03125 42.1875,-30.75 c 1.33817,0.98473 2.76842,2.02275 4,2.9375 l 6.5,14.96875 c 0.70218,-1.01171 1.40467,-2.03052 2.09375,-3.03125 l -1.59375,-6.75 c 1.61539,1.25076 2.87644,2.29294 3.46875,2.84375 0.15035,0.13982 0.32347,0.30393 0.46875,0.46875 3.88997,-5.70294 7.54605,-11.15168 10.8125,-16.21875 C 190.93445,512.97098 187.93537,510.17888 185,507.5 l 22.375,-16.34375 c 0.0715,-0.15319 0.11993,-0.28914 0.1875,-0.4375 l -25.1875,14.4375 c -2.83795,-2.60703 -5.37613,-5.12331 -6.53125,-7.09375 -0.71229,-1.21514 -2.63813,-1.86043 -5.25,-2.15625 l -9.875,-41.53125 z m -193.9375,23.5625 c -13.379781,0.93601 -29.929596,2.35991 -34.34375,5.1875 -5.934485,7.82852 -11.746509,17.67893 -18.3125,24.75 0,0 8.642787,6.32691 19.84375,14.46875 25.623048,-5.71299 54.8125,-13.71875 54.8125,-13.71875 0,0 -1.157633,2.72065 -2.1875,5.0625 l -5.21875,-1.71875 c 0,0 4.554926,1.90045 5.03125,2.09375 -3.553575,8.11966 -10.760393,25.38317 -12.78125,36.78125 4.048537,2.86921 8.058629,5.69066 12.15625,8.5625 4.6041031,-4.43628 11.7561997,-12.50362 24.625,-25.59375 l 7.9375,-6.71875 c 14.416735,5.91021 24.763509,10.19718 38.53125,16 -3.711316,-3.21559 -7.995026,-6.75093 -12.6875,-10.5 L 20.84375,524.9375 27.25,519.5 c -2.326922,-1.7524 -4.678673,-3.48955 -7.0625,-5.25 l -17.875,-3.5 7.375,-4.15625 c -15.7736766,-11.33038 -31.47751,-21.91713 -42.84375,-28.65625 -0.02214,0.002 -0.04034,-0.002 -0.0625,0 z m 133.0625,54.9375 c -1.087786,1.51336 -2.181501,3.01692 -3.25,4.53125 l 4.8125,-0.4375 c 0,0 -0.99729,-2.62885 -1.5625,-4.09375 z m -3.625,5.0625 c -11.836663,16.8149 -22.265695,33.48113 -27.03125,46.34375 3.282996,-9.47018 4.561707,-20.34026 1.53125,-26.90625 -0.81736,-1.77095 -3.362729,-4.63133 -7.125,-8.21875 -2.774039,3.37348 -4.315847,6.08673 -3.65625,7.46875 2.050846,4.29726 0.202775,15.73406 1.25,23.6875 l -23,14.15625 c 2.204509,1.33788 4.327512,2.63895 6.1875,3.6875 l 20.84375,-10.0625 c 0.09031,0.0434 0.187194,0.0868 0.28125,0.125 0.586401,0.23807 1.20154,0.51828 1.84375,0.8125 0.430742,-0.97129 0.830536,-1.97908 1.21875,-3 -0.353516,1.05905 -0.633216,2.11237 -0.875,3.15625 7.974576,3.71277 19.34375,11.03125 19.34375,11.03125 l 12.4375,19.34375 c 2.90624,-2.70893 5.85775,-5.20827 8.71875,-7.625 l -0.46875,12.9375 c 0.13152,-0.0984 0.24037,-0.20872 0.375,-0.3125 0.37188,-2.11404 1.32385,-7.49013 2.65625,-14.875 13.1749,-10.97311 22.83066,-18.08548 10.46875,-17.90625 -2.41169,0.035 -4.83886,-0.18149 -7.15625,-0.53125 0.50085,-3.10083 0.80018,-5.51001 0.78125,-6.0625 l -5.78125,0.4375 -0.125,4.53125 c -10.411036,-2.81234 -18.353916,-8.78386 -18.34375,-13.625 2.6e-4,-0.13374 0.08606,-0.54736 0.09375,-0.71875 l 7.65625,-3.6875 -6.1875,-8.34375 c 1.252192,-8.51298 2.521396,-16.58109 4.0625,-25.84375 z m -38.53125,5.84375 c -0.415431,9.92787 -0.8125,18.5625 -0.8125,18.5625 0,0 1.841974,-7.19633 3.9375,-15.78125 -0.986099,-0.89477 -2.023567,-1.81936 -3.125,-2.78125 z m 48,8.46875 c -4.22453,0.13164 -8.65625,2.5 -8.65625,2.5 0,0 0.127231,6.57142 4.15625,9.0625 4.02902,2.49109 5.69903,4.33917 9.3125,2.375 3.61348,-1.96417 3.9375,-8.8125 3.9375,-8.8125 L 108.5,552.5625 c -0.89641,-0.26506 -1.83761,-0.34288 -2.8125,-0.3125 z m -68.21875,42.65625 -10.1875,6.25 -5.4375,0.3125 c -0.223871,5.48885 0.07557,7.97158 0.375,9.46875 0.101665,0.50833 0.744469,1.66742 1.59375,3.0625 8.65374,-7.2198 16.78125,-13.59375 16.78125,-13.59375 l -1.03125,0.0625 1.90625,-0.90625 0.96875,-1.25 -4.96875,-3.40625 z"
         style="fill:#7d634e;fill-opacity:0.65104167;stroke:none"
         inkscape:connector-curvature="0" />
    </g>
  </g>
</svg>
