<?xml version="1.0" encoding="UTF-8" standalone="no"?>
<!-- Created with Inkscape (http://www.inkscape.org/) -->

<svg
   xmlns:dc="http://purl.org/dc/elements/1.1/"
   xmlns:cc="http://creativecommons.org/ns#"
   xmlns:rdf="http://www.w3.org/1999/02/22-rdf-syntax-ns#"
   xmlns:svg="http://www.w3.org/2000/svg"
   xmlns="http://www.w3.org/2000/svg"
   xmlns:sodipodi="http://sodipodi.sourceforge.net/DTD/sodipodi-0.dtd"
   xmlns:inkscape="http://www.inkscape.org/namespaces/inkscape"
   id="svg4536"
   version="1.1"
   inkscape:version="0.48.4 r9939"
   width="7"
   height="7"
   sodipodi:docname="dead_red.svg">
  <metadata
     id="metadata4542">
    <rdf:RDF>
      <cc:Work
         rdf:about="">
        <dc:format>image/svg+xml</dc:format>
        <dc:type
           rdf:resource="http://purl.org/dc/dcmitype/StillImage" />
        <dc:title></dc:title>
      </cc:Work>
    </rdf:RDF>
  </metadata>
  <defs
     id="defs4540" />
  <sodipodi:namedview
     pagecolor="#ffffff"
     bordercolor="#666666"
     borderopacity="1"
     objecttolerance="10"
     gridtolerance="10"
     guidetolerance="10"
     inkscape:pageopacity="0"
     inkscape:pageshadow="2"
     inkscape:window-width="1138"
     inkscape:window-height="800"
     id="namedview4538"
     showgrid="false"
     inkscape:zoom="22.627417"
     inkscape:cx="11.085847"
     inkscape:cy="3.900049"
     inkscape:window-x="0"
     inkscape:window-y="18"
     inkscape:window-maximized="0"
     inkscape:current-layer="svg4536" />
  <g
     id="g4775"
     transform="matrix(0.02883326,0,0,0.02883326,3.4555146,3.319637)">
    <path
       style="fill:#e6af83"
       d="M 60.79158,8.74582 C 58.74138,7.91572 56.3527,2.06673 56.3527,-2.12335 c 0,-1.15413 -2.25,-6.54403 -5,-11.97755 -2.75,-5.43353 -5,-11.140362 -5,-12.681859 0,-1.942356 -1.38139,-4.279535 -4.5,-7.613585 -2.475,-2.645975 -4.5,-5.258524 -4.5,-5.805664 0,-0.547141 1.97493,-2.353589 4.38874,-4.014331 l 4.38873,-3.01953 2.27648,6.221489 c 1.25206,3.42182 3.53477,7.974036 5.07268,10.116036 1.85356,2.581625 3.53092,7.13272 4.97558,13.500004 2.11881,9.33858 3.95771,13.10545 6.39779,13.10545 1.64257,0 4.98519,3.84815 4.10616,4.72717 -0.3932,0.3932 -1.13355,0.0529 -1.64522,-0.75613 -0.80521,-1.27322 -0.93237,-1.26141 -0.94563,0.0878 -0.008,0.85738 0.64538,2.43238 1.45289,3.5 2.0613,2.72528 2.06756,5.13066 0.009,3.42213 -1.27335,-1.05678 -1.41968,-0.99492 -0.89301,0.37756 0.74573,1.94335 -0.62951,2.15603 -2.53128,0.39144 -1.09973,-1.0204 -1.23407,-0.92856 -0.73138,0.5 0.67445,1.91671 0.21435,2.0426 -2.88265,0.78874 z M -45.6473,-37.150208 c -4.125,-1.55994 -9.84754,-4.030201 -12.716756,-5.489468 -2.869216,-1.459268 -6.439694,-2.653214 -7.934396,-2.653214 -1.494702,0 -5.372367,-0.744879 -8.617034,-1.655286 -4.565616,-1.281046 -6.112864,-2.216752 -6.843583,-4.138688 -1.196278,-3.146451 -0.656965,-3.667305 2.276123,-2.198218 1.780516,0.891802 1.622615,0.575847 -0.664354,-1.329344 -3.617833,-3.013886 -2.806726,-4.512815 1.163236,-2.149664 l 2.836764,1.688606 -2.391663,-2.133707 c -3.653524,-3.25947 -1.811616,-3.580156 3.313157,-0.576838 4.307371,2.524287 6.051261,2.365894 3.378506,-0.306861 -0.933333,-0.933333 -0.877778,-1.201808 0.25,-1.208136 0.7975,-0.0045 3.25,2.014223 5.45,4.485996 3.835774,4.309619 4.410564,4.579426 14,6.571618 5.5,1.142618 11.210244,2.94224 12.689431,3.999161 l 2.689431,1.921675 2.810569,-3.387148 2.810569,-3.387147 4.256464,3.793597 4.256465,3.793597 -4.827054,3.097511 c -6.835596,4.38639 -9.445019,4.567464 -18.185875,1.261958 z m 62,-41.024741 c 0,-0.950631 -1.912877,0.83594 -7.0109672,1.082158 -4.82323,0.232943 -7.0159545,-1.089617 -6.7092745,-1.883683 0.24044,-0.622559 -0.2811683,-3.293915 -1.6558983,-4.777264 -2.24143,-2.418549 -2.45144,-3.330776 -2.03415,-8.835611 0.73746,-9.728381 4.97133,-13.849551 12.37666,-12.047201 6.48224,1.57768 10.05352,10.62147 8.16661,20.680842 -0.85835,4.575968 -3.13298,8.772963 -3.13298,5.780759 z"
       id="path4783"
       inkscape:connector-curvature="0"
       sodipodi:nodetypes="csssssscsssssccscssscsssssssscssscssscccccssssssssss" />
    <path
       style="fill:#e6c027"
       d="m 1.16836,-18.08708 -6.68434,-0.2942 0.15114,-7.705803 c 0.13148,-6.702929 -0.27498,-8.6819 -3.12309,-15.205807 -1.80083,-4.125 -3.70026,-7.929364 -4.22095,-8.454142 -0.59881,-0.603514 -6.485759,4.961438 -9.257319,7.681511 -4.807157,4.717872 -2.572623,2.566791 -6.254573,-3.060261 l -3.699198,-3.455126 5.045634,-6.376945 c 2.406956,-3.042041 4.712717,-7.081468 5.630484,-8.604885 2.540842,-4.217582 9.363612,-8.730152 13.199542,-8.730152 4.30548,0 8.39757167,-3.492828 10.3124717,-6.41533 1.34409,-2.05134 1.7882211,0.499148 7.3116011,0.499148 5.7477102,0 6.2823432,-2.351534 7.3070632,-0.102527 0.72588,1.593126 4.163734,5.357312 9.181464,7.888283 4.28143,2.159571 8.74128,4.984878 9.91078,6.278459 2.84204,3.143559 11.746226,17.085143 10.794576,17.853831 -0.41432,0.334662 -3.033745,1.715981 -5.128964,2.940453 l -4.104699,4.093178 -3.475453,-5.627395 c -3.245696,-5.255376 -5.95362,-5.774991 -8.19136,-1.447682 -1.87569,3.62719 -4.67913,15.369468 -4.1072,17.203126 0.22926,0.735051 0.66682,3.440106 0.97235,6.011233 l 0.5555,4.674773 -7.72056,0.32523 c -4.24631,0.17887 -10.72851,0.19283 -14.4049,0.03103 z"
       id="path4781"
       inkscape:connector-curvature="0"
       sodipodi:nodetypes="scssssscsssssssssscsssscss" />
    <path
       style="fill:#616e9a"
       d="m -22.046862,88.204085 c -1.573156,0.502686 -2.479416,1.112057 -4.102311,0.805913 0.519762,-1.36708 1.818114,-10.709018 2.416886,-17.715658 0.598772,-7.00664 2.170507,-17.09262 3.492743,-22.41329 1.322234,-5.32067 2.939324,-15.06517 3.593534,-21.65444 1.13994,-11.48169 2.89334,-19.53695 8.06206,-37.03774 l 2.36813,-10.317355 14.5551963,1.078863 15.1299777,-0.262294 0.812216,6.430126 c 0.357516,2.830372 1.76402,8.91397 2.69316,13.58897 1.13592,5.71537 1.76911,14.56066 1.9328,27 0.13389,10.175 0.73646,22.29429 1.33904,26.93176 0.64652,4.97563 0.83128,13.65416 0.45076,21.17262 -0.56922,11.24689 -0.86175,15.479902 -2.49473,15.906932 -4.68986,1.22643 -6.288959,6.445203 -7.24964,-12.48135 C 20.613628,72.551904 19.17012,59.92699 19.2297,54.30987 19.3173,46.04947 18.75407,41.71769 16.28359,31.65206 14.60365,24.80737 12.85151,15.89924 12.38995,11.8562 11.46349,3.7409 10.57768,2.18361 7.4523,3.17557 4.79675,4.01841 3.47005,6.51029 1.32231,14.68934 0.38097,18.27415 -2.21616,25.96707 -4.4491,31.78472 c -3.02367,7.87783 -4.34404,13.16002 -5.17325,20.69576 -0.61236,5.56501 -2.29735,14.08012 -3.74441,18.92246 -1.44707,4.84233 -4.078942,13.429021 -4.443592,18.379021 0,0 -1.281298,-0.343568 -4.23651,-1.577876 z"
       id="path4779"
       inkscape:connector-curvature="0"
       sodipodi:nodetypes="ccsssscccssssssssssssssscc" />
    <path
       style="fill:#3b3b3c"
       d="m 20.24207,118.59648 c -1.96161,-1.96161 -2.06311,-2.79117 -1.43769,-11.75 0.3701,-5.30165 1.41248,-11.49051 2.31638,-13.75301 1.51607,-3.79476 1.93417,-4.11363 5.39372,-4.11363 l 3.75026,0 -0.50884,11.61363 c -0.67075,15.30913 -1.12862,17.89632 -3.38049,19.10149 -2.7252,1.45848 -3.76209,1.27277 -6.13334,-1.09848 z m -42.8288,-5.32688 c -3.029524,-3.12567 -3.425298,-4.25245 -4.362852,-12.42113 -0.900725,-7.84779 -0.819618,-9.30637 0.641496,-11.53631 1.409807,-2.15164 2.182261,-2.45568 4.916685,-1.93523 1.784251,0.3396 3.361841,0.70806 3.505741,0.8188 0.14391,0.11073 0.55141,6.5711 0.90556,14.35636 0.72895,16.02462 0.31121,16.82317 -5.60663,10.71751 z"
       id="path4777"
       inkscape:connector-curvature="0" />
  </g>
</svg>
