<?xml version="1.0" encoding="UTF-8" standalone="no"?>
<!-- Created with Inkscape (http://www.inkscape.org/) -->

<svg
   xmlns:dc="http://purl.org/dc/elements/1.1/"
   xmlns:cc="http://creativecommons.org/ns#"
   xmlns:rdf="http://www.w3.org/1999/02/22-rdf-syntax-ns#"
   xmlns:svg="http://www.w3.org/2000/svg"
   xmlns="http://www.w3.org/2000/svg"
   xmlns:sodipodi="http://sodipodi.sourceforge.net/DTD/sodipodi-0.dtd"
   xmlns:inkscape="http://www.inkscape.org/namespaces/inkscape"
   id="svg4536"
   version="1.1"
   inkscape:version="0.48.4 r9939"
   width="7"
   height="7"
   sodipodi:docname="dead_green.png">
  <metadata
     id="metadata4542">
    <rdf:RDF>
      <cc:Work
         rdf:about="">
        <dc:format>image/svg+xml</dc:format>
        <dc:type
           rdf:resource="http://purl.org/dc/dcmitype/StillImage" />
        <dc:title></dc:title>
      </cc:Work>
    </rdf:RDF>
  </metadata>
  <defs
     id="defs4540" />
  <sodipodi:namedview
     pagecolor="#ffffff"
     bordercolor="#666666"
     borderopacity="1"
     objecttolerance="10"
     gridtolerance="10"
     guidetolerance="10"
     inkscape:pageopacity="0"
     inkscape:pageshadow="2"
     inkscape:window-width="1138"
     inkscape:window-height="800"
     id="namedview4538"
     showgrid="false"
     inkscape:zoom="41.7193"
     inkscape:cx="9.6477861"
     inkscape:cy="4.1260555"
     inkscape:window-x="0"
     inkscape:window-y="18"
     inkscape:window-maximized="0"
     inkscape:current-layer="svg4536" />
  <g
     id="g4546"
     transform="matrix(0.02913201,0,0,0.02913201,-0.05929556,-0.10729904)">
    <path
       style="fill:#e6af83"
       d="m 76.035184,129.06574 c -1.537886,-2.87356 -1.292832,-5.798 1.463255,-17.46224 3.139123,-13.285316 5.068015,-18.350936 10.266755,-26.962359 2.277391,-3.772372 4.311382,-7.37087 4.519979,-7.996661 C 92.765774,75.202679 100,80.595813 100,82.395904 100,83.10767 99.051361,84.547269 97.891914,85.595012 96.732467,86.642756 94.65544,89.75 93.276297,92.5 c -1.379142,2.75 -4.593003,8.36835 -7.141914,12.48521 -3.782981,6.11007 -4.658416,8.4065 -4.765199,12.5 -0.175556,6.72989 -0.353454,7.35864 -1.418867,5.01479 -0.719335,-1.5825 -0.893187,-1.165 -0.832822,2 0.110307,5.78358 -0.009,6.5 -1.082311,6.5 -0.530649,0 -1.430649,-0.87042 -2,-1.93426 z M 198,116.5 c 0,-0.88992 -0.45,-1.33992 -1,-1 -0.56592,0.34976 -1,-0.47915 -1,-1.9096 0,-1.76394 -0.42591,-2.36419 -1.40966,-1.98669 -1.38297,0.53069 -1.76414,-0.19472 -2.96209,-5.63712 C 191.09682,103.55222 170.99915,83.742174 166.5,81.197952 161.42113,78.325909 161.44492,78.408485 164.44812,74.074865 166.00125,71.833689 167.3908,70 167.536,70 c 0.1452,0 1.81176,1.4625 3.70346,3.25 1.8917,1.7875 5.52791,5.137957 8.08046,7.445459 4.13839,3.741093 14.92865,19.083172 19.1148,27.178301 1.76503,3.41319 2.07508,8.69313 0.56528,9.62624 -0.55,0.33992 -1,-0.11008 -1,-1 z M 121.97495,46.219833 c 0.36754,-0.594694 0.12435,-4.583287 -1.24352,-6.051093 C 117.14074,36.315742 116,33.657325 116,29.142467 c 0,-5.050564 3.668,-9.663108 8.94053,-11.242796 5.19845,-1.557493 8.90788,0.309265 11.73139,5.903789 1.19456,2.366903 2.71216,4.954403 3.37245,5.75 0.80314,0.967728 0.87492,1.860296 0.21684,2.69654 -0.54103,0.6875 -1.25291,2.99958 -1.58197,5.137956 -0.89589,5.822024 -2.54831,5.982103 -6.95716,8.762591 -3.48338,2.196828 -10.19822,0.799169 -9.74713,0.06929 z"
       id="path4554"
       inkscape:connector-curvature="0"
       sodipodi:nodetypes="ssssssssssssssssssssssssssssssssssss" />
    <path
       style="fill:#88e685"
       d="m 113.94077,104.15055 c -0.69188,-0.83276 0.54081,-6.160104 0.51395,-11.554674 C 114.41846,85.310486 113.94609,82.455015 112.08158,78.25 110.80125,75.3625 109.15575,73 108.4249,73 c -0.73085,0 -2.72375,2.027468 -4.42867,4.505484 l -4.346286,6.518942 -3.37291,-4.227517 c -1.737415,-2.17763 -4.285824,-3.322737 -4.427581,-2.862101 -0.14292,0.464419 2.950967,-5.406656 5.151481,-9.816519 4.334376,-8.686156 7.294076,-11.539997 15.650676,-15.090895 2.83339,-1.203967 6.17433,-3.277662 7.42431,-4.608212 C 122.00326,45.367627 123.28551,45 128.5138,45 c 5.57351,0 6.27238,0.235305 7.28233,2.4519 1.31252,2.880676 4.53336,4.673655 12.52166,6.970568 4.89608,1.407791 6.88676,2.758881 12.56498,8.527948 l 7.70599,7.334526 -3.18265,3.847226 c -3.41071,4.122915 -1.01294,7.093897 -5.60914,3.588209 C 158.02274,76.367105 152.64464,72 151.82992,72 c -2.33405,0 -5.48875,4.016649 -7.85404,10 -1.76636,4.468259 -2.91975,6.670075 -2.4114,11.737432 0.34415,3.430588 0.48071,9.831198 0.77221,10.590828 0.78788,2.05319 -1.5318,1.08553 -14.26598,1.31225 -8.70028,0.15491 -13.23438,-0.41206 -14.12994,-1.48996 z"
       id="path4552"
       inkscape:connector-curvature="0"
       sodipodi:nodetypes="ssssscssssssssscssssssss" />
    <path
       style="fill:#616e9a"
       d="m 143.15067,212.76182 c -0.10433,-1.20355 -1.47001,-0.51174 -4.11736,-1.11072 l -3.58318,-0.81073 -0.90319,-15.4179 c -0.46255,-7.89593 -0.42174,-18.76406 -0.0677,-24.14285 0.50906,-7.73356 0.21245,-12.06906 -1.41776,-20.72251 C 131.92768,144.53852 131,136.58783 131,132.8889 131,124.98275 130.40812,123 128.048,123 c -2.7844,0 -4.76206,3.03509 -6.516,10 -0.90028,3.575 -3.68346,11.9 -6.18485,18.5 -3.55672,9.38449 -4.74388,14.08139 -5.44673,21.54946 -0.96644,10.26879 -7.95428,34.47381 -8.38114,37.06766 -0.1337,0.81244 -2.6222,-0.10636 -3.945029,-0.41873 -1.4269,-0.33694 -3.074775,0.44349 -3.631968,1.21944 -0.678681,0.94519 -0.776702,0.80606 -0.353385,-0.50158 0.322193,-0.99526 0.861841,-8.79608 1.433589,-15.22582 1.099667,-12.36657 2.268803,-19.51511 4.528745,-27.69043 0.760198,-2.75 1.850818,-9.725 2.423598,-15.5 1.48556,-14.97787 2.67819,-20.81048 7.1073,-34.75863 C 111.23696,110.45538 113,104.24998 113,103.4516 c 0,-1.70669 0.59439,-2.16958 2.0787,-0.68527 1.12571,1.12571 24.55482,1.93348 25.63044,0.85786 2.28183,-2.28183 3.12107,0.28156 4.78838,14.62581 1.37922,11.86573 1.59718,18.13495 0.98216,28.25 -0.43473,7.15 -0.9066,21.1 -1.04859,31 -0.22197,15.47575 -1.83435,40.40781 -2.28042,35.26182 z"
       id="path4550"
       inkscape:connector-curvature="0"
       sodipodi:nodetypes="sscsssssssssscssssssssssss" />
    <path
       style="fill:#3a3b3b"
       d="m 137.66217,234.75 c -3.65564,-3.35811 -4.97689,-10.31136 -3.49134,-18.37371 l 1.21165,-6.57591 3.43267,0.55705 c 1.88796,0.30637 3.65806,0.78244 3.93355,1.05793 0.27549,0.27549 0.8291,3.33224 1.23024,6.79277 0.40115,3.46053 1.31976,8.35998 2.04137,10.88767 0.72161,2.52769 1.02636,5.34019 0.67724,6.25 -0.9317,2.42795 -6.11585,2.0861 -9.03538,-0.5958 z m -50.995503,-1.41667 c -1.302546,-1.30254 -0.627629,-4.37744 2.31881,-10.5644 1.642013,-3.44791 3.443813,-8.1237 4.004,-10.39064 0.988091,-3.99857 1.137911,-4.11858 5.014522,-4.01693 L 102,208.46614 l 0,7.64448 c 0,5.57515 -0.40605,7.98148 -1.5,8.88938 -0.825,0.68469 -1.5,2.01135 -1.5,2.94813 C 99,230.81881 94.717084,234 90.852215,234 c -1.935385,0 -3.818882,-0.3 -4.185548,-0.66667 z"
       id="path4548"
       inkscape:connector-curvature="0" />
  </g>
</svg>
