<?xml version="1.0" encoding="UTF-8" standalone="no"?>
<!-- Created with Inkscape (http://www.inkscape.org/) -->

<svg
   xmlns:dc="http://purl.org/dc/elements/1.1/"
   xmlns:cc="http://creativecommons.org/ns#"
   xmlns:rdf="http://www.w3.org/1999/02/22-rdf-syntax-ns#"
   xmlns:svg="http://www.w3.org/2000/svg"
   xmlns="http://www.w3.org/2000/svg"
   xmlns:sodipodi="http://sodipodi.sourceforge.net/DTD/sodipodi-0.dtd"
   xmlns:inkscape="http://www.inkscape.org/namespaces/inkscape"
   id="svg4332"
   version="1.1"
   inkscape:version="0.48.4 r9939"
   width="6"
   height="6"
   sodipodi:docname="dead_blue.png">
  <metadata
     id="metadata4338">
    <rdf:RDF>
      <cc:Work
         rdf:about="">
        <dc:format>image/svg+xml</dc:format>
        <dc:type
           rdf:resource="http://purl.org/dc/dcmitype/StillImage" />
        <dc:title></dc:title>
      </cc:Work>
    </rdf:RDF>
  </metadata>
  <defs
     id="defs4336" />
  <sodipodi:namedview
     pagecolor="#ffffff"
     bordercolor="#666666"
     borderopacity="1"
     objecttolerance="10"
     gridtolerance="10"
     guidetolerance="10"
     inkscape:pageopacity="0"
     inkscape:pageshadow="2"
     inkscape:window-width="1138"
     inkscape:window-height="800"
     id="namedview4334"
     showgrid="false"
     inkscape:zoom="29.5"
     inkscape:cx="9.3278449"
     inkscape:cy="7.8822925"
     inkscape:window-x="0"
     inkscape:window-y="18"
     inkscape:window-maximized="0"
     inkscape:current-layer="svg4332" />
  <g
     id="g4456"
     transform="matrix(0.02618602,0,0,0.02618602,-0.41735579,-0.29397771)">
    <path
       style="fill:#e6af83"
       d="m 182,229.84211 c -1.375,0 -1.9375,-0.22698 -1.25,-0.50439 0.6875,-0.27741 1.8125,-0.27741 2.5,0 0.6875,0.27741 0.125,0.50439 -1.25,0.50439 z M 123.66228,200.25 c -0.27741,0.6875 -0.50439,0.125 -0.50439,-1.25 0,-1.375 0.22698,-1.9375 0.50439,-1.25 0.27741,0.6875 0.27741,1.8125 0,2.5 z m -1,-35 c -0.27741,0.6875 -0.50439,0.125 -0.50439,-1.25 0,-1.375 0.22698,-1.9375 0.50439,-1.25 0.27741,0.6875 0.27741,1.8125 0,2.5 z M 50.331219,105.89559 c -0.64283,1.43242 -1.20533,2.01535 -1.25,1.29539 -0.04467,-0.71996 -0.465416,-1.07157 -0.934991,-0.78135 -0.469575,0.29021 -1.36811,-0.60119 -1.996745,-1.9809 -0.891638,-1.95693 -0.829661,-3.25841 0.281851,-5.918632 0.802763,-1.921282 3.530017,-4.950324 6.246745,-6.937985 C 55.330136,89.631767 60.2,85.286445 63.5,81.915842 c 3.3,-3.370603 7.8,-7.034413 10,-8.141799 2.2,-1.107386 6.089751,-3.499514 8.64389,-5.315841 l 4.643891,-3.302412 1.688817,4.422105 c 0.92885,2.432158 2.214099,4.445552 2.85611,4.474209 0.64201,0.02866 -1.691419,1.113739 -5.185399,2.411293 -3.49398,1.297554 -7.54398,3.476975 -9,4.843157 C 75.691289,82.672736 71.35,85.678259 67.5,87.985495 c -3.85,2.307236 -7.5625,4.915377 -8.25,5.795869 -0.6875,0.880493 -1.25,3.259787 -1.25,5.287321 0,2.200605 -0.662716,4.236435 -1.644246,5.051025 -1.457233,1.2094 -1.566344,1.11916 -0.959322,-0.7934 0.376707,-1.1869 0.267606,-2.41591 -0.242448,-2.73114 -0.510054,-0.31523 -1.540858,0.16241 -2.290677,1.06143 -0.749819,0.89902 -1.889259,2.80656 -2.532088,4.23899 z M 172.66613,71.777781 c -3.11637,0.258433 -5.65144,0.301656 -5.63348,0.09605 0.018,-0.205606 0.82159,-2.65595 1.78586,-5.445209 1.17301,-3.393054 2.20776,-4.919864 3.1267,-4.61355 0.92859,0.309528 1.17191,-0.06748 0.75118,-1.163874 -0.34226,-0.891937 -0.93432,-5.754907 -1.31567,-10.806601 -0.64655,-8.564759 -0.91912,-9.434784 -4.03704,-12.885948 -1.83903,-2.035577 -3.32937,-4.546509 -3.31188,-5.579849 0.0307,-1.811184 0.0846,-1.808941 1.5,0.06233 0.80751,1.067621 1.4682,1.460077 1.4682,0.872124 0,-0.587954 -0.68104,-2.698962 -1.51342,-4.69113 C 164.6542,25.629956 164.40684,24 164.93689,24 c 0.53005,0 1.44227,0.7875 2.02716,1.75 0.86127,1.417322 0.94516,1.227221 0.44128,-1 -0.34218,-1.5125 -0.21023,-2.75 0.29322,-2.75 0.50345,0 1.43445,1.2375 2.06889,2.75 l 1.15352,2.75 -0.52607,-3.186868 c -0.50994,-3.089166 -0.45028,-3.151103 1.94596,-2.020257 1.70577,0.804992 2.65261,2.257796 3.05458,4.686868 0.32041,1.936141 0.58751,6.028938 0.59356,9.095105 0.007,3.303563 1.03693,8.591172 2.52912,12.978389 1.38496,4.071948 2.78394,9.665417 3.10886,12.429932 0.47853,4.071531 0.22169,5.482157 -1.35198,7.425561 -1.52018,1.877339 -3.17514,2.501372 -7.60886,2.869051 z M 128.58975,46.150547 c -3.97557,0 -5.63769,2.352417 -5.63769,1.387536 0,-0.739757 -0.89813,-6.08429 -2.05444,-7.130735 -1.15631,-1.046445 -2.73131,-3.118842 -3.5,-4.605328 C 116.62893,34.315535 116,31.311499 116,29.126385 c 0,-2.809178 0.75389,-4.868881 2.5737,-7.031598 1.41553,-1.682265 4.2806,-3.570067 6.36683,-4.195116 2.99432,-0.897119 4.40032,-0.848273 6.6763,0.231939 1.65905,0.787404 3.80532,3.195537 5.05509,5.67185 1.19456,2.366903 2.71216,4.954403 3.37245,5.75 0.80314,0.967728 0.87492,1.860296 0.21684,2.69654 -0.54103,0.6875 -0.67764,4.054248 -1.0067,6.192624 -0.32905,2.138375 -4.66167,2.376842 -4.61039,7.667577 0.0192,1.982761 -2.03166,0.04035 -6.05437,0.04035 z"
       id="path4464"
       inkscape:connector-curvature="0"
       sodipodi:nodetypes="sssssssssssssscsssssscssssssssssssscsscssccssssssscssscssssssssssssssssss" />
    <path
       style="fill:#485ae6"
       d="m 126.36166,105.90209 c -7.37625,0.12067 -11.05064,-0.52364 -12.30704,-1.35817 -1.69922,-1.12866 -1.58086,-3.18949 -0.71207,-9.607559 0.95383,-7.046378 0.94184,-7.106415 -2.94241,-14.737332 -2.92973,-5.755688 -4.59332,-7.904507 -6.68607,-8.636257 -1.97086,-0.689131 -3.726246,-0.59629 -5.999997,0.317338 -1.76774,0.710305 -4.986829,2.335615 -5.910593,2.617449 -1.202347,0.366829 -2.132259,-0.844088 -3.614407,-3.749338 -1.138736,-2.232107 -2.070429,-5.322337 -2.070429,-5.541379 0,-0.219042 3.243856,-1.556149 6.131356,-3.551387 2.8875,-1.995238 6.257486,-4.360507 7.488858,-5.256154 1.231372,-0.895647 5.493852,-1.985757 9.472182,-2.422467 6.63887,-0.728764 9.09804,-2.444827 12.25557,-5.890289 3.12815,-3.4134 2.36517,-2.427611 7.44582,-2.587435 4.41485,-0.138881 5.86182,0.210059 6.89427,1.662559 0.869,1.222538 2.55663,1.838331 5.03811,1.838331 2.05228,0 5.73926,1.080047 8.1933,2.400105 2.45404,1.320058 7.25562,3.795058 10.67019,5.5 C 163.12286,58.605047 166.58381,60 167.39928,60 c 0.81548,0 4.06016,1.389897 4.39309,1.928583 0.33292,0.538687 -1.71351,2.428749 -2.39317,4.697313 -0.67968,2.268565 -1.22673,5.372283 -1.96143,5.654215 -0.7347,0.281931 -5.27436,-1.748514 -8.67947,-2.606263 -4.07921,-1.027556 -6.59134,-1.227378 -7.36441,-0.585788 -0.64531,0.535565 -3.03228,4.672346 -5.30437,9.192847 -3.38373,6.732199 -4.2443,9.620996 -4.75697,15.968378 -0.35429,4.386398 0.78029,8.281775 0.05,8.887885 -0.71155,0.59054 -5.18599,2.26696 -11.23364,2.57316 z"
       id="path4462"
       inkscape:connector-curvature="0"
       sodipodi:nodetypes="csssssssssssssssssscsssssscsc" />
    <path
       style="fill:#616e9a"
       d="m 173.65499,223 c -0.18976,0 -1.20226,-1.0125 -2.25,-2.25 L 169.5,218.5 l 2.25,1.90499 c 1.2375,1.04774 2.25,2.06024 2.25,2.25 C 174,222.84474 173.84474,223 173.65499,223 z M 123.25,211.99644 c -0.1375,0.002 -0.25,-0.48599 -0.25,-1.08434 0,-0.70853 -1.34551,-0.86057 -3.85844,-0.43602 l -3.85844,0.65188 -1.25008,-8.81398 C 113.3455,197.46629 112.38488,184.725 111.89833,174 c -0.48655,-10.725 -1.16664,-25.48538 -1.51131,-32.80085 -0.38003,-8.06602 -0.13799,-18.38545 0.61498,-26.21998 1.18488,-12.32831 1.33088,-12.87139 3.1925,-11.87508 1.07296,0.57423 6.90837,1.04406 12.96758,1.04406 9.03798,0 11.3599,-0.31056 12.92733,-1.72906 1.76548,-1.59774 1.91059,-1.60185 1.91059,-0.0541 0,0.92124 1.96061,5.60348 4.3569,10.40499 2.3963,4.80151 5.61167,11.88002 7.14527,15.73002 1.5336,3.85 4.22411,12.4 5.97892,19 1.75482,6.6 4.82975,16.08155 6.83318,21.07011 2.00344,4.98855 4.76134,13.80474 6.12867,19.59152 1.36733,5.78678 2.9409,11.71774 3.49681,13.1799 0.78489,2.06442 0.70903,2.65847 -0.3395,2.65847 -0.74264,0 -2.7112,0.27219 -4.37458,0.60487 -2.56574,0.51314 -3.1344,0.24779 -3.75021,-1.75 -0.39923,-1.29518 -2.93095,-7.20491 -5.62604,-13.13273 -2.69508,-5.92782 -5.82434,-14.70282 -6.95389,-19.5 -1.37561,-5.84217 -3.55034,-11.32965 -6.5863,-16.61914 -2.49291,-4.34335 -6.71955,-12.2964 -9.39254,-17.67344 -2.67299,-5.37703 -5.87286,-10.48588 -7.11084,-11.35299 C 130.56788,123.70945 128.75512,123 127.77749,123 c -1.54982,0 -1.77839,0.99268 -1.7845,7.75 -0.004,4.2625 -0.8668,13.50956 -1.91764,20.54902 -1.50904,10.10885 -1.70894,14.20747 -0.95105,19.5 0.52777,3.68554 0.82821,14.46188 0.66764,23.94742 -0.16057,9.48553 -0.40444,17.24803 -0.54194,17.25 z"
       id="path4460"
       inkscape:connector-curvature="0"
       sodipodi:nodetypes="sscssscsscssssssssssssssssssssssscsssc" />
    <path
       style="fill:#3a3b3b"
       d="m 116.88916,237 c -1.79734,0 -3.20749,-0.72629 -3.89145,-2.00427 -0.79697,-1.48916 -0.67751,-3.33487 0.46482,-7.18151 C 114.30814,224.96675 115,220.06875 115,216.92979 l 0,-5.70721 3.60218,-0.67577 c 1.9812,-0.37168 3.80966,-0.46831 4.06323,-0.21473 0.25357,0.25357 1.09744,2.87009 1.87526,5.81448 0.90412,3.42249 1.18401,7.31806 0.77597,10.80022 -0.46757,3.99018 -1.30287,6.06272 -3.12347,7.75 C 120.82088,235.96857 118.44564,237 116.88916,237 z m 65.62325,-8 c -1.78348,0 -4.42838,-0.93266 -5.87755,-2.07258 C 175.18569,225.7875 174,224.354 174,223.74187 c 0,-0.61213 -0.84775,-2.04197 -1.88389,-3.17742 -1.15139,-1.26175 -2.24637,-4.66688 -2.81617,-8.75761 l -0.93228,-6.69316 3.88355,-0.65612 c 2.13596,-0.36087 3.98351,-0.49895 4.10567,-0.30684 0.12217,0.1921 1.32935,2.79028 2.68262,5.77373 1.35328,2.98345 3.68021,6.96044 5.17097,8.83776 1.49075,1.87732 2.99043,4.29541 3.33261,5.37353 0.34219,1.07813 0.0799,2.61364 -0.58291,3.41225 C 186.29739,228.34659 184.2959,229 182.51241,229 z"
       id="path4458"
       inkscape:connector-curvature="0" />
  </g>
</svg>
