<?xml version="1.0" encoding="UTF-8" standalone="no"?>
<!-- Created with Inkscape (http://www.inkscape.org/) -->

<svg
   xmlns:dc="http://purl.org/dc/elements/1.1/"
   xmlns:cc="http://creativecommons.org/ns#"
   xmlns:rdf="http://www.w3.org/1999/02/22-rdf-syntax-ns#"
   xmlns:svg="http://www.w3.org/2000/svg"
   xmlns="http://www.w3.org/2000/svg"
   xmlns:sodipodi="http://sodipodi.sourceforge.net/DTD/sodipodi-0.dtd"
   xmlns:inkscape="http://www.inkscape.org/namespaces/inkscape"
   id="svg4536"
   version="1.1"
   inkscape:version="0.48.4 r9939"
   width="7"
   height="7"
   sodipodi:docname="dead_green.svg">
  <metadata
     id="metadata4542">
    <rdf:RDF>
      <cc:Work
         rdf:about="">
        <dc:format>image/svg+xml</dc:format>
        <dc:type
           rdf:resource="http://purl.org/dc/dcmitype/StillImage" />
        <dc:title></dc:title>
      </cc:Work>
    </rdf:RDF>
  </metadata>
  <defs
     id="defs4540" />
  <sodipodi:namedview
     pagecolor="#ffffff"
     bordercolor="#666666"
     borderopacity="1"
     objecttolerance="10"
     gridtolerance="10"
     guidetolerance="10"
     inkscape:pageopacity="0"
     inkscape:pageshadow="2"
     inkscape:window-width="1138"
     inkscape:window-height="800"
     id="namedview4538"
     showgrid="false"
     inkscape:zoom="45.254834"
     inkscape:cx="5.0243087"
     inkscape:cy="0.63832582"
     inkscape:window-x="0"
     inkscape:window-y="18"
     inkscape:window-maximized="0"
     inkscape:current-layer="svg4536" />
  <g
     id="g4684"
     transform="matrix(0.02969112,0,0,0.02969112,2.9871411,3.5026937)">
    <path
       style="fill:#e6ae83"
       d="m 17.57533,51.21951 c 0,-3.575 0.1815,-5.0375 0.40333,-3.25 0.22182,1.7875 0.22182,4.7125 0,6.5 -0.22183,1.7875 -0.40333,0.325 -0.40333,-3.25 z M -2.16944,-46.270652 c -2.10986,-2.76617 -2.26485,-3.492579 -1.19364,-5.59439 0.92557,-1.816043 1.98743,-2.38279 4.27903,-2.283843 2.30863,0.09968 3.42593,-0.506736 4.60614,-2.5 0.85699,-1.447383 4.74754,-6.127939 8.64567,-10.401236 3.89812,-4.273298 7.0875,-8.120798 7.0875,-8.55 2.761316,-3.432473 2.321476,-2.602184 4.648,-5.210026 4.25517,-3.922281 7.41907,-4.846002 10.31812,-3.012446 1.1768,0.744289 0.93013,1.13105 -1.25,1.959936 -3.29181,1.251542 -3.56725,2.080859 -0.46612,1.403411 2.19945,-0.480474 2.19383,-0.445168 -0.25,1.571384 -2.793468,0.640145 -2.730652,2.72508 -4.11577,4.107372 -2.93796,0 -8.50159,7.46089 -14.39085,19.298309 -4.54436,9.134151 -6.8809416,12.605195 -9.1324416,13.537796 -6.28302199,2.046272 -5.1107936,-2.930469 -8.7856384,-4.326267 z m 55.9504,7.949505 c -6.39558,-3.383407 -9.5257,-5.680305 -9.5257,-6.990011 0,-0.752152 1.59513,-2.584215 3.54473,-4.07125 l 3.54474,-2.7037 3.26919,3.168625 3.26919,3.168626 7.43608,-0.99163 c 4.08984,-0.545397 10.22454,-0.890014 13.63267,-0.765817 5.93721,0.216362 6.35756,0.06884 10.04216,-3.524186 4.07424,-3.972994 8.11814,-5.459334 4.76124,-1.75 -1.65414,1.827807 -1.66472,2 -0.12287,2 0.92791,0 3.24765,-0.652038 5.15499,-1.448973 3.56355,-1.488948 4.42065,-0.958982 2.21788,1.37138 -1.03158,1.091337 -0.85685,1.120136 1,0.164816 1.34498,-0.69197 2.25,-0.764014 2.25,-0.179111 0,0.538164 -1.0125,1.72066 -2.25,2.627769 l -2.25,1.64929 2.5,-0.725486 2.5,-0.725486 -2,2.3829 c -3.12234,3.720117 -3.52385,3.851345 -11.83339,3.867588 -4.30836,0.0084 -11.28336,0.872231 -15.5,1.919576 -11.88197,2.951288 -18.15025,3.401717 -21.64091,1.55508 z M 3.22613,-82.850817 c -2.00014,-4.828774 -1.6611,-14.061328 0.66292,-18.051913 2.64777,-4.54652 6.00981,-6.09107 10.53736,-4.84095 4.86546,1.34342 6.66045,3.6849 7.87928,10.278188 0.97826,5.29185 0.8827,5.889515 -1.50288,9.40021 -1.40115,2.061984 -2.54755,4.267116 -2.54755,4.900295 0,1.485373 -3.32391,2.353678 -9.07569,2.370842 -2.8408156,1.077433 -2.5681903,-1.749964 -5.95344,-4.056672 z"
       id="path4692"
       inkscape:connector-curvature="0"
       sodipodi:nodetypes="sssscssssccsssccsccssscccsssssssssscccsssscssssscc" />
    <path
       style="fill:#616e9a"
       d="m -21.655323,83.67391 c -0.04918,-0.57509 -1.759947,-1.15812 -3.801706,-1.29563 -2.041759,-0.1375 -3.796351,-0.34197 -3.899092,-0.45438 -0.650813,-0.71204 5.879948,-30.5452 8.031002,-36.68641 1.441383,-4.11511 3.519888,-11.99011 4.6189,-17.5 2.992029,-15.00048 5.407939,-23.12696 10.293039,-34.62293 2.4295,-5.71727 4.72911,-11.40754 5.11024,-12.64504 0.79579,-2.58382 2.08573,-2.92362 2.91315,-0.76739 0.62011,1.61597 2.51463,1.44831 13.03643,-1.15371 3.40217,-0.84135 7.48417,-1.18782 9.66115,-0.82002 3.60908,0.60975 3.88502,0.94284 6.47312,7.81401 5.02779,13.34836 4.30215,42.56707 -1.65783,66.75368 -2.83307,11.49709 -3.41843,12.92342 -5.30368,12.92342 -1.16552,0 -3.043,-0.6471 -4.17218,-1.43801 -1.93258,-1.35363 -2.03305,-2.24845 -1.71228,-15.25 0.20119,-8.15461 1.02987,-16.79856 2.02316,-21.10345 L 21.64049,20.1366 18.94788,11.86851 C 17.46694,7.32106 16.25526,2.43786 16.25526,1.01695 c 0,-6.83948 -7.46402,-1.53431 -10.92798,7.76723 -1.2157,3.26443 -4.84887,11.56033 -8.07372,18.43533 -4.22451,9.00616 -6.30878,14.93653 -7.45693,21.21724 -0.87647,4.79448 -3.21997,12.89448 -5.207791,18 -1.987816,5.10552 -4.185831,11.30776 -4.884477,13.78276 -0.698647,2.475 -1.310505,4.02947 -1.359685,3.4544 z"
       id="path4690"
       inkscape:connector-curvature="0"
       sodipodi:nodetypes="sscssssssssssssscssssssss" />
    <path
       style="fill:#e63829"
       d="m -0.40139777,-20.285541 c -0.58371,-1.09067 0.97409777,-6.332072 1.33635777,-12.278436 0.48313,-7.930085 -1.20464647,-12.036159 -0.12100647,-11.620327 0.75471997,0.289613 4.76029647,2.100106 6.32849647,1.450542 2.2515,-0.932601 4.06183,-3.614268 8.60619,-12.748419 5.79171,-11.641345 11.44763,-19.298309 14.25495,-19.298309 3.22486,0 8.30678,4.352876 11.40596,9.769674 1.78034,3.111715 4.6846,7.259993 6.4539,9.218395 l 4.664092,4.350109 -4.0178,3.649169 -4.01781,3.649169 -5.845432,-4.843536 -4.39825,-4.054158 -3.24649,6.880589 c -2.93028,6.210402 -3.23831,7.738691 -3.16247,15.690447 l 0.215563,10.651743 -4.218912,-1.281685 C 21.806313,-21.717165 17.98357,-22.27664 14.6466,-21.45159 3.69265,-18.7427 0.67593223,-18.272461 -0.40139777,-20.285541 z M -4.817628,-49.459689 c -5.08674,-6.544466 -7.339132,-15.492652 -3.938072,-21.070801 1.59901,-2.622563 2.62645,-3.25 5.32195,-3.25 2.22098,0 4.0863,-0.79399 5.56624,-2.369321 2.95846,-3.149136 13.568402,-6.005978 15.579981,-3.342055 1.472817,1.950445 4.677555,2.09285 4.695055,2.494553 0.0175,0.401702 -4.341646,5.673894 -8.239766,9.947192 -3.89813,4.273297 -7.78868,8.953853 -8.64567,10.401236 -1.18021,1.993264 -2.29751,2.599682 -4.60614,2.5 -2.17464,-0.0939 -2.8301484,0.07693 -3.5981584,1.579011 -1.07195,2.096532 -0.1637396,5.64689 -2.1354196,3.110185 z"
       id="path4688"
       inkscape:connector-curvature="0"
       sodipodi:nodetypes="cssssssscccccsscsccsssssssssss" />
    <path
       style="fill:#3c3c3c"
       d="m -38.54474,106.01951 c -1.799038,-1.79904 -1.52035,-2.87021 2.282391,-8.77267 1.915315,-2.97287 4.206724,-7.58598 5.092019,-10.25136 1.594561,-4.80077 0.883392,-6.627217 2.079364,-6.320448 l 7.605353,1.950788 -0.610707,7.22465 c -0.576899,6.8247 -2.253655,10.87455 -6.673762,16.11904 -1.343225,1.59375 -8.195857,1.6288 -9.774658,0.05 z M 17.70981,94.76496 c -2.08675,-2.08675 -2.45455,-3.39886 -2.45455,-8.7566 0,-3.46613 -0.42948,-7.79955 -0.95439,-9.62983 -0.74836,-2.60936 -0.51656,-4.49802 1.07374,-8.74845 1.95984,-5.23817 1.968917,-7.211891 4.045337,-5.757501 1.18182,0.82778 3.803155,1.50505 5.021205,1.50505 1.96131,0 1.625078,2.231861 1.135088,5.251311 -0.130586,0.804709 -0.144545,2.279261 -0.06209,4.084819 0.10968,2.401859 0.389963,5.389462 0.793255,8.165181 1.458752,10.040084 1.42328,13.0628 -0.17571,14.98946 -1.7526,2.11175 -5.72748,1.59097 -8.421885,-1.10344 z"
       id="path4686"
       inkscape:connector-curvature="0"
       sodipodi:nodetypes="sssscssssssssssssss" />
  </g>
</svg>
