<?xml version="1.0" encoding="UTF-8" standalone="no"?>
<!-- Created with Inkscape (http://www.inkscape.org/) -->

<svg
   xmlns:dc="http://purl.org/dc/elements/1.1/"
   xmlns:cc="http://creativecommons.org/ns#"
   xmlns:rdf="http://www.w3.org/1999/02/22-rdf-syntax-ns#"
   xmlns:svg="http://www.w3.org/2000/svg"
   xmlns="http://www.w3.org/2000/svg"
   xmlns:sodipodi="http://sodipodi.sourceforge.net/DTD/sodipodi-0.dtd"
   xmlns:inkscape="http://www.inkscape.org/namespaces/inkscape"
   width="2"
   height="4"
   id="svg2989"
   version="1.1"
   inkscape:version="0.48.4 r9939"
   inkscape:export-filename="/media/lachoneus/Wills External Hardrive/Thor_Media/2014/Clients/Kieth Blackburn - Airport Crisis App/asset creation/people/still_run_1_/final/still_run_1.png"
   inkscape:export-xdpi="90"
   inkscape:export-ydpi="90"
   sodipodi:docname="evacuee_run.svg">
  <defs
     id="defs2991" />
  <sodipodi:namedview
     id="base"
     pagecolor="#ffffff"
     bordercolor="#666666"
     borderopacity="1.0"
     inkscape:pageopacity="0.0"
     inkscape:pageshadow="2"
     inkscape:zoom="32"
     inkscape:cx="17.189584"
     inkscape:cy="0.1892376"
     inkscape:document-units="px"
     inkscape:current-layer="g3390"
     showgrid="false"
     inkscape:window-width="1920"
     inkscape:window-height="1127"
     inkscape:window-x="0"
     inkscape:window-y="0"
     inkscape:window-maximized="1"
     inkscape:snap-page="true"
     inkscape:snap-bbox="true" />
  <metadata
     id="metadata2994">
    <rdf:RDF>
      <cc:Work
         rdf:about="">
        <dc:format>image/svg+xml</dc:format>
        <dc:type
           rdf:resource="http://purl.org/dc/dcmitype/StillImage" />
        <dc:title></dc:title>
      </cc:Work>
    </rdf:RDF>
  </metadata>
  <g
     inkscape:label="Layer 1"
     inkscape:groupmode="layer"
     id="layer1"
     transform="translate(0,-1048.3622)">
    <g
       id="g3047"
       transform="matrix(0.01,0,0,0.01,0,1041.8386)">
      <g
         id="g3390">
        <path
           style="fill:#e6ae82"
           d="M 1.25 0.53125 L 1.25 0.5625 C 1.25825 0.5679157 1.27575 0.562293 1.28125 0.5625 C 1.284 0.56260325 1.2749063 0.59018539 1.28125 0.59375 L 1.28125 0.625 C 1.3049065 0.6362008 1.3014496 0.67961986 1.3125 0.6875 C 1.3019728 0.6828398 1.2775 0.6585927 1.25 0.65625 C 1.2615784 0.66383759 1.2577896 0.70628958 1.28125 0.71875 L 1.34375 0.75 L 1.34375 0.78125 L 1.3125 0.8125 L 1.28125 0.78125 C 1.2630215 0.7721565 1.2207611 0.779239 1.21875 0.78125 C 1.211759 0.7882411 1.2374288 0.8389593 1.25 0.84375 C 1.2569576 0.8464014 1.31075 0.8396429 1.34375 0.84375 L 1.40625 0.875 L 1.40625 1.09375 L 1.40625 1.28125 L 1.375 1.34375 C 1.3653476 1.3719648 1.3475064 1.4227148 1.34375 1.46875 C 1.3399936 1.5147852 1.349755 1.5586049 1.34375 1.5625 C 1.337745 1.5663951 1.3098432 1.5901775 1.28125 1.59375 L 1.21875 1.59375 L 1.15625 1.59375 L 1.125 1.5625 L 1.0625 1.59375 C 1.0393094 1.600704 1.0206929 1.5874627 1 1.59375 L 0.96875 1.625 L 0.9375 1.59375 C 0.92704873 1.5829707 0.90233562 1.5217195 0.875 1.46875 L 0.8125 1.375 L 0.84375 1.375 C 0.86134774 1.3465263 0.85771424 1.2418457 0.84375 1.09375 L 0.8125 0.9375 L 0.84375 0.875 C 0.85569753 0.7912691 0.84432179 0.756568 0.8125 0.71875 L 0.78125 0.6875 L 0.75 0.6875 L 0.6875 0.6875 L 0.65625 0.71875 C 0.60957205 0.7609208 0.5939682 0.8271629 0.59375 0.875 C 0.59366383 0.8938886 0.57341383 0.9482901 0.5625 1 C 0.53832081 1.1145613 0.54060319 1.233439 0.5625 1.34375 L 0.5625 1.40625 L 0.5625 1.53125 L 0.53125 1.625 L 0.53125 1.6875 C 0.53483721 1.7219309 0.554826 1.7836486 0.5625 1.8125 L 0.59375 1.875 L 0.5 1.9375 C 0.45787905 1.9671885 0.41566524 1.9895886 0.40625 2 C 0.38025308 2.0287473 0.3751325 2.0827752 0.375 2.125 C 0.37493472 2.1458017 0.35186944 2.1885 0.34375 2.21875 C 0.33563056 2.249 0.343815 2.3115965 0.34375 2.34375 C 0.34368472 2.3759035 0.32148694 2.406586 0.3125 2.4375 L 0.3125 2.5 L 0.3125 2.59375 L 0.3125 2.6875 L 0.34375 2.8125 C 0.36626192 2.8793635 0.375 2.9300056 0.375 2.9375 C 0.375 2.9449944 0.4163227 2.9874584 0.4375 3.03125 L 0.46875 3.125 L 0.5 3.15625 L 0.53125 3.1875 L 0.5625 3.1875 L 0.625 3.1875 L 0.59375 3.15625 C 0.58958732 3.1495147 0.5946557 3.1487994 0.59375 3.125 L 0.59375 3.0625 L 0.5625 3.03125 L 0.53125 3 L 0.53125 2.96875 L 0.5 2.9375 L 0.46875 2.875 L 0.46875 2.8125 L 0.5 2.71875 C 0.50981591 2.6696878 0.49580722 2.5837157 0.5 2.53125 L 0.53125 2.4375 L 0.53125 2.40625 C 0.54506066 2.3789657 0.58675998 2.335875 0.59375 2.3125 C 0.60074003 2.289125 0.59002195 2.25 0.59375 2.25 C 0.59747805 2.25 0.62273503 2.2856025 0.65625 2.3125 C 0.68976497 2.3393976 0.75670099 2.3656247 0.78125 2.375 C 0.83013679 2.3936701 0.88084177 2.3865232 0.9375 2.375 L 1 2.375 L 1 2.40625 C 1.0035431 2.4203667 0.9918439 2.4343701 1 2.4375 C 1.0188264 2.4447243 1.0625 2.4287727 1.0625 2.40625 C 1.0625 2.3967759 1.0828642 2.3848511 1.09375 2.375 C 1.0974038 2.3853737 1.1409202 2.4275 1.15625 2.46875 L 1.15625 2.53125 L 1.15625 2.59375 L 1.15625 2.65625 L 1.1875 2.71875 L 1.21875 2.75 L 1.1875 2.8125 L 1.15625 2.84375 L 1.15625 2.90625 C 1.1562558 2.92825 1.1788729 2.9725 1.1875 3 L 1.1875 3.03125 L 1.1875 3.1875 C 1.1925198 3.2725675 1.210658 3.3784148 1.21875 3.40625 L 1.25 3.4375 L 1.28125 3.46875 C 1.2965767 3.4829859 1.3015 3.493931 1.3125 3.5 C 1.3403929 3.515389 1.4052985 3.516652 1.4375 3.5 C 1.452411 3.492289 1.4564342 3.4594131 1.46875 3.4375 L 1.5 3.40625 L 1.5 3.375 C 1.4999777 3.3509988 1.4848969 3.27 1.46875 3.1875 C 1.4526031 3.105 1.442951 2.9661351 1.4375 2.90625 L 1.40625 2.8125 L 1.4375 2.75 L 1.46875 2.71875 L 1.46875 2.625 C 1.4585033 2.5225321 1.4553473 2.5310289 1.46875 2.40625 L 1.46875 2.28125 L 1.46875 2.21875 C 1.4652522 2.1872636 1.4456148 2.1394283 1.4375 2.09375 L 1.4375 2 L 1.5 1.9375 C 1.5356352 1.8990107 1.5818788 1.8370227 1.59375 1.8125 L 1.59375 1.78125 L 1.59375 1.46875 L 1.59375 1.15625 L 1.59375 1.09375 C 1.5859023 1.0525 1.5507289 0.9815 1.53125 0.9375 C 1.5117712 0.8935 1.4818145 0.8156378 1.46875 0.78125 C 1.4313132 0.6827101 1.4189169 0.6101442 1.375 0.5625 L 1.3125 0.53125 L 1.28125 0.53125 C 1.2640755 0.5313342 1.25825 0.5258342 1.25 0.53125 z M 44.59375 3.15625 C 44.59375 3.1476926 44.614341 3.1746571 44.625 3.1875 C 44.61736 3.1866786 44.59375 3.1598502 44.59375 3.15625 z "
           transform="matrix(100,0,0,100,0,652.36)"
           id="path3398" />
        <path
           style="fill:#88e584"
           d="M 0.6875 0.6875 C 0.64709235 0.7121367 0.60045659 0.7959405 0.59375 0.84375 C 0.590993 0.8634039 0.57356646 0.94225 0.5625 1 C 0.53796577 1.1280311 0.54034334 1.1969187 0.5625 1.3125 L 0.5625 1.40625 L 0.5625 1.5 C 0.55462279 1.545588 0.5307018 1.6095 0.53125 1.65625 L 0.5625 1.75 L 0.5625 1.8125 L 0.59375 1.875 L 0.5625 1.875 C 0.55008255 1.8844378 0.5045 1.9111878 0.46875 1.9375 L 0.40625 2 L 0.375 2.03125 L 0.375 2.09375 L 0.375 2.125 C 0.37493472 2.1472096 0.35185257 2.1885 0.34375 2.21875 L 0.34375 2.28125 L 0.34375 2.3125 C 0.34929498 2.3294678 0.35826599 2.3589678 0.375 2.375 L 0.40625 2.40625 L 0.46875 2.40625 L 0.53125 2.40625 L 0.53125 2.375 C 0.54483743 2.3622353 0.58692954 2.3368603 0.59375 2.3125 C 0.60057045 2.2881397 0.58986616 2.25 0.59375 2.25 C 0.59763385 2.25 0.62310611 2.2859003 0.65625 2.3125 C 0.68939389 2.3390998 0.75711752 2.3652385 0.78125 2.375 L 0.8125 2.40625 L 0.875 2.40625 C 0.94067971 2.4068542 0.97727479 2.3887934 0.96875 2.375 C 0.9657507 2.370147 0.93399231 2.3588493 0.90625 2.34375 L 0.875 2.3125 L 0.84375 2.25 L 0.8125 2.21875 L 0.8125 2.15625 C 0.80700972 2.11775 0.79247469 2.0526884 0.78125 2.03125 L 0.8125 2.03125 L 0.8125 1.96875 L 0.84375 1.90625 L 0.875 1.875 C 0.91803071 1.8306927 0.94952464 1.8125 1 1.8125 C 1.074963 1.8125 1.1850714 1.8805639 1.21875 1.96875 L 1.21875 2 C 1.2470005 1.9717495 1.2740746 1.9846948 1.25 2.03125 C 1.2416876 2.0473243 1.2234993 2.1093941 1.21875 2.15625 L 1.21875 2.25 L 1.1875 2.28125 C 1.1726955 2.3006597 1.1383837 2.3037307 1.125 2.3125 C 1.1116162 2.3212694 1.12498 2.3347576 1.125 2.34375 C 1.1250199 2.3527424 1.1087376 2.4252191 1.125 2.46875 L 1.15625 2.53125 L 1.15625 2.59375 L 1.15625 2.65625 L 1.1875 2.71875 L 1.21875 2.75 L 1.1875 2.8125 C 1.1735744 2.8424162 1.1563 2.8920048 1.15625 2.90625 C 1.1561963 2.9204952 1.1771995 2.9592452 1.1875 3 L 1.1875 3.0625 L 1.21875 3.21875 C 1.2289388 3.4166752 1.2386533 3.4636045 1.3125 3.5 C 1.3306031 3.508922 1.3564779 3.53113 1.375 3.53125 L 1.40625 3.53125 L 1.4375 3.46875 L 1.5 3.4375 L 1.5 3.40625 L 1.5 3.34375 L 1.46875 3.1875 C 1.4515353 3.0981756 1.4432264 2.9643876 1.4375 2.90625 L 1.40625 2.8125 L 1.4375 2.75 L 1.46875 2.71875 L 1.46875 2.65625 C 1.46875 2.628592 1.4435866 2.605123 1.4375 2.59375 L 1.4375 2.5625 L 1.4375 2.46875 C 1.4538211 2.3433272 1.456977 2.2039079 1.4375 2.09375 L 1.4375 2 L 1.5 1.9375 C 1.5355063 1.8991499 1.5820539 1.836661 1.59375 1.8125 L 1.59375 1.78125 L 1.59375 1.59375 L 1.59375 1.40625 L 1.59375 1.375 C 1.5775149 1.3419395 1.5229247 1.313319 1.46875 1.3125 C 1.4176266 1.3117272 1.3873164 1.3426055 1.375 1.375 C 1.3698899 1.3884406 1.3474492 1.4234 1.34375 1.46875 C 1.3400507 1.5140999 1.349755 1.5586049 1.34375 1.5625 C 1.337745 1.5663951 1.3108431 1.5900526 1.28125 1.59375 L 1.21875 1.59375 L 1.15625 1.59375 L 1.09375 1.5625 L 1.03125 1.59375 C 0.9976224 1.6058089 0.97752256 1.6250011 0.96875 1.625 C 0.94476482 1.6249969 0.92846666 1.5728165 0.875 1.46875 L 0.8125 1.375 L 0.84375 1.375 L 0.84375 1.34375 L 0.84375 1.1875 C 0.83527927 1.018482 0.83923745 0.9448847 0.84375 0.84375 L 0.84375 0.75 L 0.8125 0.71875 C 0.78408956 0.6638103 0.7443044 0.6528663 0.6875 0.6875 z "
           transform="matrix(100,0,0,100,0,652.36)"
           id="path3396" />
        <path
           style="fill:#616e99"
           d="M 0.6875 0.6875 C 0.64719291 0.7120753 0.60067507 0.7958093 0.59375 0.84375 C 0.59091097 0.8634039 0.57353861 0.9395 0.5625 1 C 0.53836586 1.1322735 0.54136923 1.2103225 0.5625 1.3125 L 0.5625 1.375 L 0.5625 1.4375 C 0.56004583 1.4659721 0.56914745 1.5147994 0.5625 1.5625 L 0.53125 1.65625 L 0.5625 1.75 C 0.57124112 1.8006521 0.55955056 1.8389777 0.5625 1.84375 C 0.56544943 1.8485223 0.5915156 1.875 0.59375 1.875 C 0.60612029 1.875 0.67509458 1.7989612 0.6875 1.78125 C 0.71151446 1.7469646 0.77497963 1.7195394 0.875 1.6875 C 0.92693007 1.6708653 1.0037527 1.6357409 1.03125 1.625 C 1.0587473 1.6142592 1.0933008 1.5976248 1.125 1.59375 C 1.1566993 1.5898751 1.1904525 1.5985272 1.1875 1.59375 C 1.1845476 1.5889729 1.1483266 1.565998 1.125 1.5625 L 1.09375 1.5625 L 1.03125 1.59375 C 1.0022512 1.6051803 0.97869396 1.625 0.96875 1.625 C 0.95880605 1.625 0.94656189 1.6037633 0.9375 1.59375 C 0.9284381 1.5837367 0.90173263 1.5207819 0.875 1.46875 L 0.8125 1.375 L 0.84375 1.375 L 0.84375 1.34375 L 0.84375 1.1875 C 0.83527927 1.018482 0.83923745 0.9448847 0.84375 0.84375 L 0.84375 0.75 L 0.8125 0.71875 C 0.78408956 0.6638103 0.7443044 0.6528663 0.6875 0.6875 z M 1.4375 2 C 1.4271278 1.9896279 1.387357 2.0452646 1.3125 2.15625 L 1.25 2.25 L 1.1875 2.3125 C 1.1519389 2.3366149 1.125 2.3365701 1.125 2.34375 C 1.125 2.3509298 1.1085 2.3922889 1.125 2.4375 L 1.15625 2.53125 L 1.15625 2.59375 L 1.15625 2.65625 L 1.1875 2.71875 L 1.21875 2.75 L 1.1875 2.8125 C 1.1735744 2.8424162 1.1563 2.8920048 1.15625 2.90625 C 1.1561963 2.9204952 1.1771995 2.9592452 1.1875 3 L 1.1875 3.0625 L 1.21875 3.21875 C 1.2289388 3.4166752 1.2386533 3.4636045 1.3125 3.5 C 1.3306031 3.508922 1.3564779 3.53113 1.375 3.53125 L 1.40625 3.53125 L 1.4375 3.46875 L 1.5 3.4375 L 1.5 3.40625 L 1.5 3.34375 L 1.46875 3.1875 C 1.4515353 3.0981756 1.4433768 2.9658817 1.4375 2.90625 L 1.40625 2.8125 L 1.4375 2.75 L 1.46875 2.71875 L 1.46875 2.65625 C 1.4598491 2.578011 1.4600032 2.5305682 1.46875 2.34375 L 1.46875 2.1875 L 1.4375 2.09375 C 1.4289948 2.0450913 1.4405 2.0030001 1.4375 2 z "
           transform="matrix(100,0,0,100,0,652.36)"
           id="path3394" />
        <path
           inkscape:connector-curvature="0"
           id="path3392"
           d="m 133.47495,1003.3016 c -3.83174,-1.1148 -8.85174,-6.39636 -10.3978,-10.93953 -0.65509,-1.925 -1.64444,-10.7 -2.19856,-19.5 l -1.00749,-16 -2.00705,-7.31859 -2.00705,-7.31859 1.70463,-5.41945 c 0.93755,-2.9807 2.31972,-5.92994 3.0715,-6.55386 l 1.36687,-1.1344 0,2.72245 0,2.72244 3.4,3.4 3.4,3.4 4.6,0 4.6,0 2,-2 2,-2 0.008,1.25 c 0.0301,4.58078 2.42986,21.28242 4.63387,32.25 1.43684,7.15 2.61946,15.31787 2.62804,18.15082 l 0.0156,5.15082 -2.29532,3.71391 -2.29533,3.71388 -3.31541,1.3853 c -3.70584,1.5484 -3.69982,1.5481 -7.9045,0.3248 z M 82.169182,784.36218 c 0.01574,-3.025 0.370749,-7.975 0.788917,-11 l 0.760305,-5.5 0.07051,9 c 0.03878,4.95 -0.316231,9.9 -0.788917,11 l -0.859429,2 z M 79.812457,749.1933 c -0.928149,-3.48212 -1.925457,-8.13112 -2.21624,-10.33112 l -0.528696,-4 -2.708644,-2.35246 -2.708644,-2.35247 -3.481215,0.56493 -3.481215,0.56492 -2.843902,2.72463 C 60.279756,735.51028 59,736.40482 59,735.99961 c 0,-0.40521 0.724583,-2.1769 1.610185,-3.93709 2.406915,-4.78389 8.327335,-10.52771 11.590044,-11.24432 l 2.881052,-0.63278 2.498879,1.63733 c 1.374384,0.90053 3.182224,3.0778 4.017422,4.83838 l 1.518542,3.20105 L 82.308062,742.6933 81.5,755.52442 z"
           style="fill:#39393a"
           sodipodi:nodetypes="ssscccssccccccccccsscccsssscsscssscccccsssscsscccs" />
        <rect
           style="fill:#ffffff;fill-opacity:0;stroke:none"
           id="rect3080"
           width="49.294643"
           height="4.3303571"
           x="2"
           y="-0.33035722"
           transform="matrix(100,0,0,100,0,652.36)" />
        <rect
           style="fill:#ffffff;fill-opacity:0;stroke:none"
           id="rect3088"
           width="50.232143"
           height="4.7142859"
           x="2"
           y="0"
           transform="matrix(100,0,0,100,0,652.36)" />
        <rect
           style="fill:#ffffff;fill-opacity:0;stroke:none"
           id="rect3091"
           width="50.767857"
           height="4.7142859"
           x="2"
           y="0"
           transform="matrix(100,0,0,100,0,652.36)" />
      </g>
      <rect
         transform="translate(0,652.36218)"
         y="0"
         x="0"
         height="400"
         width="5000"
         id="rect3045"
         style="fill:#ffffff;fill-opacity:0;stroke:none" />
    </g>
  </g>
</svg>
