<?xml version="1.0" encoding="UTF-8" standalone="no"?>
<!-- Created with Inkscape (http://www.inkscape.org/) -->

<svg
   xmlns:dc="http://purl.org/dc/elements/1.1/"
   xmlns:cc="http://creativecommons.org/ns#"
   xmlns:rdf="http://www.w3.org/1999/02/22-rdf-syntax-ns#"
   xmlns:svg="http://www.w3.org/2000/svg"
   xmlns="http://www.w3.org/2000/svg"
   xmlns:sodipodi="http://sodipodi.sourceforge.net/DTD/sodipodi-0.dtd"
   xmlns:inkscape="http://www.inkscape.org/namespaces/inkscape"
   width="6.099597"
   height="7.8240256"
   id="svg2"
   version="1.1"
   inkscape:version="0.48.5 r10040"
   sodipodi:docname="hull_1.svg">
  <defs
     id="defs4" />
  <sodipodi:namedview
     id="base"
     pagecolor="#ffffff"
     bordercolor="#666666"
     borderopacity="1.0"
     inkscape:pageopacity="0.0"
     inkscape:pageshadow="2"
     inkscape:zoom="15.839192"
     inkscape:cx="-9.5119017"
     inkscape:cy="7.8146146"
     inkscape:document-units="px"
     inkscape:current-layer="layer1"
     showgrid="false"
     fit-margin-top="1"
     fit-margin-left="1"
     fit-margin-bottom="1"
     fit-margin-right="1"
     inkscape:window-width="1920"
     inkscape:window-height="1060"
     inkscape:window-x="-2"
     inkscape:window-y="-3"
     inkscape:window-maximized="1" />
  <metadata
     id="metadata7">
    <rdf:RDF>
      <cc:Work
         rdf:about="">
        <dc:format>image/svg+xml</dc:format>
        <dc:type
           rdf:resource="http://purl.org/dc/dcmitype/StillImage" />
        <dc:title></dc:title>
      </cc:Work>
    </rdf:RDF>
  </metadata>
  <g
     inkscape:label="Layer 1"
     inkscape:groupmode="layer"
     id="layer1"
     transform="translate(-178.04753,-598.55996)">
    <g
       id="g3875"
       transform="matrix(0.02944146,0,0,0.02944146,163.37988,586.45146)">
      <path
         inkscape:connector-curvature="0"
         id="path3783"
         d="m 537.14286,450.21932 -2.85715,190.71429 135,-0.71428 -8.57142,-192.85715 z"
         style="fill:#c19069;fill-opacity:1;stroke:#000000;stroke-width:0.84914267;stroke-linecap:butt;stroke-linejoin:miter;stroke-miterlimit:4;stroke-opacity:1;stroke-dasharray:none" />
      <path
         id="path3780"
         d="m 640.4375,447.84375 -2.375,0.0625 c -0.44453,7.14819 0.39913,13.21666 0.75,23.71875 0.23383,6.99912 0.1699,19.91681 -0.59375,29.46875 -1.87595,5.68872 -3.70152,11.25907 -5.46875,16.5625 -2.16761,2.96644 -4.21875,5.375 -4.21875,5.375 l 1.28125,3.4375 c -2.97468,8.83119 -5.2595,15.3949 -5.75,16.3125 l 2.34375,6.09375 5.09375,-17.90625 5.34375,14.375 c 0,0 10.99789,-27.72186 10.09375,-31.78125 -0.90414,-4.05939 -2.14045,-15.59687 -3.40625,-19.65625 -0.2667,-0.8553 -0.52768,-1.77092 -0.75,-2.71875 l 8.40625,-29.59375 c 0,0 -4.14247,12.63839 -8.90625,27.15625 -0.48413,-2.86723 -0.66126,-5.86024 -0.21875,-8.34375 0.72385,-4.05939 0.75,-16.90625 0.75,-16.90625 -0.84205,-7.35127 -1.66005,-12.47164 -2.375,-15.65625 z M 620.15625,448.3125 619,448.34375 618.65625,474.5 c -3.8051,5.61483 -7.04751,7.46769 -4.625,14.71875 2.29577,6.87169 3.93938,19.98299 4.0625,27.96875 l -0.0312,3.28125 c -0.0104,0.17505 -0.0181,0.36778 -0.0312,0.53125 -0.54247,6.76567 -6.53125,56.8125 -6.53125,56.8125 0,0 3.8024,-4.56647 6.75,-9.96875 0.50684,2.02263 1.09375,3.375 1.09375,3.375 l 2.1875,-3.34375 c 1.08497,-4.05941 1.0625,-12.875 1.0625,-12.875 0,0 -0.3414,-0.64884 -0.84375,-1.15625 0.51843,-9.32295 2.47477,-25.02802 1.53125,-31.5 -0.87742,-6.01856 -1.9365,-15.93451 -2.375,-20.21875 l -0.75,-53.8125 z m -34.1875,0.78125 L 585,449.125 c -3.42828,18.58408 -8.79079,48.01731 -9.40625,53.84375 0,0 1.97543,5.72711 2.15625,9.53125 0.13561,2.85279 5.44308,-40.53395 8.21875,-63.40625 z m -15.34375,0.34375 -2.34375,0.0625 0.25,64.875 3.625,-3.84375 -1.53125,-61.09375 z m -4.96875,0.125 -7.5,0.1875 c -1.80469,14.57893 -3.56457,31.34081 -3.25,38.875 0.22995,5.50768 0.42842,8.0907 0.96875,8.0625 0.90057,-0.0471 2.74722,-7.35686 7.375,-20.4375 l 4.9375,-9.75 -2.53125,-16.9375 z m -9.625,0.21875 -2.09375,0.0625 c 1.41029,2.74027 2.5,4.59375 2.5,4.59375 0,0 -0.31927,-3.63103 -0.40625,-4.65625 z m 36.0625,7.75 -0.625,150.5625 C 588.6094,595.48717 580.0625,562.9375 580.0625,562.9375 c 0,0 9.94417,58.89373 10.125,56.1875 0.097,-1.45224 0.69903,-3.25887 1.25,-4.65625 l -0.0625,18.09375 0.5,-19.125 c 0.26843,-0.61905 0.46875,-1.09375 0.46875,-1.09375 -0.0703,-0.47326 -0.21961,-1.23991 -0.40625,-2.125 l 3.78125,-148.84375 -3.625,-3.84375 z m 9.25,1.78125 c -0.008,0.0178 -0.0284,0.0343 -0.0312,0.0937 -0.18082,3.80414 -2.15625,9.53125 -2.15625,9.53125 0.90413,8.55927 12.28125,69.4375 12.28125,69.4375 0,0 -9.62021,-80.18496 -10.09375,-79.0625 z m -64.75,27.28125 -0.6875,45.71875 c 1.18938,8.97844 2.15625,15.5625 2.15625,15.5625 0,0 -1.00362,1.84847 -2.4375,4.59375 l -0.96875,63.46875 c 2.22821,-7.63645 4.56777,-16.85122 5.21875,-18.59375 1.17323,-3.14051 10.6875,-26.28125 10.6875,-26.28125 l -3.84375,-34.3125 -6.53125,-1.96875 4.4375,-29.375 -4.9375,-9.75 c -1.2199,-3.4481 -2.22355,-6.44373 -3.09375,-9.0625 z m 63.53125,9.34375 -4.34375,121.78125 3.625,2.71875 0.71875,-124.5 z m 60.75,4.28125 c -1.7812,0.0958 -8.11343,18.61693 -9.25,20.78125 -1.17323,2.23418 -10.6875,18.6875 -10.6875,18.6875 l 3.84375,24.40625 6.53125,1.40625 -4.4375,20.90625 4.9375,6.9375 c 4.62778,9.30563 6.50568,14.49771 7.40625,14.53125 0.54033,0.0201 0.70755,-1.83181 0.9375,-5.75 0.61322,-10.44849 -6.71875,-45.9375 -6.71875,-45.9375 0,0 6.35998,-8.23561 11.375,-16.5 l -1.59375,-35.84375 c -0.99314,-1.92119 -1.79347,-3.26142 -2.1875,-3.5625 -0.0476,-0.0364 -0.0988,-0.0656 -0.15625,-0.0625 z m -80.875,17.25 c 0,0 -3.80216,6.40423 -6.75,14 -0.50662,-2.8399 -1.09375,-4.75 -1.09375,-4.75 l -2.1875,4.75 c -1.08497,5.70618 -1.0625,18.0625 -1.0625,18.0625 0,0 0.35397,0.88514 0.84375,1.59375 -0.51435,13.09636 -2.47644,35.19901 -1.53125,44.3125 0.87709,8.45688 1.93606,22.37832 2.375,28.40625 L 570.75,640.75 l 6.4375,-0.0312 c -2.14791,-9.94282 -3.66631,-27.31117 -3.78125,-38.0625 l 0.0312,-4.59375 c 0.0104,-0.24648 0.0181,-0.51984 0.0312,-0.75 C 574.01122,587.80221 580,517.46875 580,517.46875 z m -23.9375,6.40625 c -0.90414,0 7.05794,13.36569 7.78125,16.21875 l 0.90625,-10.5 c 0,0 -7.78336,-5.71875 -8.6875,-5.71875 z m 45.375,2 c 0,0 9.5892,29.11561 10.3125,30.46875 L 612.46875,550.25 601.4375,525.875 z m -21.6875,21.78125 -0.71875,8.5625 11.03125,34.25 c 0,0 -9.5892,-40.91044 -10.3125,-42.8125 z m -14.65625,10.5 -5.0625,25.09375 -5.34375,-20.125 c 0,0 -11.02914,38.98134 -10.125,44.6875 0.90414,5.70615 2.1717,21.8876 3.4375,27.59375 0.26587,1.19855 0.49695,2.48458 0.71875,3.8125 l -0.34375,1.65625 4.375,-0.0312 c 0.11759,-5.44069 0.28587,-10.8771 0.5625,-15.6875 1.87071,-7.97369 3.6763,-15.75847 5.4375,-23.1875 0.003,-0.013 0.0282,-0.0183 0.0312,-0.0312 2.153,-4.13441 4.2188,-7.46885 4.2188,-7.46885 l -1.28125,-4.875 c 2.9675,-12.38287 5.22904,-21.61847 5.71875,-22.90625 l -2.34375,-8.53125 z m 62.5625,3.5625 -0.875,7.46875 c 0,0 7.75211,4.0625 8.65625,4.0625 0.90414,0 -7.05794,-9.50157 -7.78125,-11.53125 z m -4.6875,18.3125 -3.625,2.71875 1.90625,53.625 -0.0312,0 -0.65625,4.09375 10.0625,-0.0312 c 1.69082,-8.49907 6.47896,-33.40042 5.96875,-42.09375 -0.22995,-3.91819 -0.39717,-5.73885 -0.9375,-5.71875 -0.90057,0.0335 -2.77847,5.22562 -7.40625,14.53125 l -4.9375,6.90625 4.4375,20.9375 -4.46875,0.9375 -0.3125,-55.90625 z m -9.25,1.25 c -0.59807,0.79442 -6.46264,34.98049 -8.875,49.15625 -0.53739,0.27592 -1.65625,0.84375 -1.65625,0.84375 l 0.625,5.15625 c -0.0172,0.10183 -0.1875,1.09375 -0.1875,1.09375 0,0 0.19794,-0.76453 0.21875,-0.84375 l 0.25,2.0625 c 0.72331,-2.02968 8.68539,-11.53125 7.78125,-11.53125 -0.63657,0 -3.97461,1.68543 -6.3125,2.875 3.28383,-12.62167 9.67388,-37.45729 10.34375,-41.96875 0,0 -1.97543,-4.04371 -2.15625,-6.75 -0.006,-0.0846 -0.007,-0.12578 -0.0312,-0.0937 z m 21.375,41.375 c 0,0 1.25675,10.84214 2.0625,17.71875 l 7.75,-0.0312 c -1.66672,-7.87964 -9.8125,-17.6875 -9.8125,-17.6875 z m -39.3125,6.59375 c 0,0 -1.8125,4.07654 -1.8125,8.8125 0,1.03932 0.0252,1.85171 0.0937,2.5625 l 4.84375,-0.0312 c -0.13721,-2.71106 -0.42382,-5.92991 -0.96875,-7.96875 l -2.15625,-3.375 z"
         style="fill:#927865;fill-opacity:1;stroke:none"
         inkscape:connector-curvature="0" />
    </g>
  </g>
</svg>
