<?xml version="1.0" encoding="UTF-8" standalone="no"?>
<!-- Created with Inkscape (http://www.inkscape.org/) -->

<svg
   xmlns:dc="http://purl.org/dc/elements/1.1/"
   xmlns:cc="http://creativecommons.org/ns#"
   xmlns:rdf="http://www.w3.org/1999/02/22-rdf-syntax-ns#"
   xmlns:svg="http://www.w3.org/2000/svg"
   xmlns="http://www.w3.org/2000/svg"
   xmlns:sodipodi="http://sodipodi.sourceforge.net/DTD/sodipodi-0.dtd"
   xmlns:inkscape="http://www.inkscape.org/namespaces/inkscape"
   width="3"
   height="9"
   viewBox="0 0 3 9.0000003"
   id="svg2"
   version="1.1"
   inkscape:version="0.91 r13725"
   sodipodi:docname="ladder.svg">
  <defs
     id="defs4" />
  <sodipodi:namedview
     id="base"
     pagecolor="#ffffff"
     bordercolor="#666666"
     borderopacity="1.0"
     inkscape:pageopacity="0.0"
     inkscape:pageshadow="2"
     inkscape:zoom="63.356767"
     inkscape:cx="0.09165142"
     inkscape:cy="7.7740624"
     inkscape:document-units="px"
     inkscape:current-layer="layer1"
     showgrid="true"
     units="px"
     inkscape:snap-page="true"
     inkscape:snap-global="false"
     inkscape:window-width="3840"
     inkscape:window-height="2107"
     inkscape:window-x="-8"
     inkscape:window-y="0"
     inkscape:window-maximized="1">
    <inkscape:grid
       type="xygrid"
       id="grid4136" />
  </sodipodi:namedview>
  <metadata
     id="metadata7">
    <rdf:RDF>
      <cc:Work
         rdf:about="">
        <dc:format>image/svg+xml</dc:format>
        <dc:type
           rdf:resource="http://purl.org/dc/dcmitype/StillImage" />
        <dc:title></dc:title>
      </cc:Work>
    </rdf:RDF>
  </metadata>
  <g
     inkscape:label="Layer 1"
     inkscape:groupmode="layer"
     id="layer1"
     transform="translate(0,-1043.3622)">
    <path
       style="fill:#c1c7cf;fill-opacity:1;fill-rule:evenodd;stroke:#000000;stroke-width:0.055;stroke-linecap:butt;stroke-linejoin:miter;stroke-miterlimit:4;stroke-dasharray:none;stroke-opacity:1"
       d="M 0 0.015625 L 1 9.015625 L 1.1210938 9.015625 L 1.1210938 8.8046875 L 1.8789062 8.8046875 L 1.8789062 9.015625 L 2 9.015625 L 3 0.015625 L 2.5 0.015625 L 2.5 0.74609375 L 0.5 0.74609375 L 0.5 0.015625 L 0 0.015625 z M 0.53515625 1.4121094 L 2.4648438 1.4121094 L 2.4648438 2.2382812 L 0.53515625 2.2382812 L 0.53515625 1.4121094 z M 0.5703125 2.6699219 L 2.4296875 2.6699219 L 2.4296875 3.4648438 L 0.5703125 3.4648438 L 0.5703125 2.6699219 z M 0.6953125 3.9121094 L 2.3046875 3.9121094 L 2.3046875 4.5957031 L 0.6953125 4.5957031 L 0.6953125 3.9121094 z M 0.80273438 5.0117188 L 2.1972656 5.0117188 L 2.1972656 5.6015625 L 0.80273438 5.6015625 L 0.80273438 5.0117188 z M 0.87109375 6.015625 L 2.1289062 6.015625 L 2.1289062 6.5429688 L 0.87109375 6.5429688 L 0.87109375 6.015625 z M 0.96679688 6.8808594 L 2.0332031 6.8808594 L 2.0332031 7.3261719 L 0.96679688 7.3261719 L 0.96679688 6.8808594 z M 1.0683594 7.625 L 1.9316406 7.625 L 1.9316406 7.9765625 L 1.0683594 7.9765625 L 1.0683594 7.625 z M 1.1035156 8.2519531 L 1.8964844 8.2519531 L 1.8964844 8.5722656 L 1.1035156 8.5722656 L 1.1035156 8.2519531 z "
       transform="translate(0,1043.3622)"
       id="path4138" />
  </g>
</svg>
