<?xml version="1.0" encoding="UTF-8" standalone="no"?>
<!-- Created with Inkscape (http://www.inkscape.org/) -->

<svg
   xmlns:dc="http://purl.org/dc/elements/1.1/"
   xmlns:cc="http://creativecommons.org/ns#"
   xmlns:rdf="http://www.w3.org/1999/02/22-rdf-syntax-ns#"
   xmlns:svg="http://www.w3.org/2000/svg"
   xmlns="http://www.w3.org/2000/svg"
   xmlns:sodipodi="http://sodipodi.sourceforge.net/DTD/sodipodi-0.dtd"
   xmlns:inkscape="http://www.inkscape.org/namespaces/inkscape"
   width="18.036085mm"
   height="8.4666595mm"
   viewBox="0 0 63.907388 29.999975"
   id="svg2"
   version="1.1"
   inkscape:version="0.48.5 r10040"
   sodipodi:docname="triage_sector.svg">
  <defs
     id="defs4" />
  <sodipodi:namedview
     id="base"
     pagecolor="#ffffff"
     bordercolor="#666666"
     borderopacity="1.0"
     inkscape:pageopacity="0.0"
     inkscape:pageshadow="2"
     inkscape:zoom="11.2"
     inkscape:cx="49.201568"
     inkscape:cy="14.697697"
     inkscape:document-units="px"
     inkscape:current-layer="g4201"
     showgrid="false"
     inkscape:window-width="1142"
     inkscape:window-height="802"
     inkscape:window-x="0"
     inkscape:window-y="18"
     inkscape:window-maximized="0"
     fit-margin-top="0"
     fit-margin-left="0"
     fit-margin-right="0"
     fit-margin-bottom="0" />
  <metadata
     id="metadata7">
    <rdf:RDF>
      <cc:Work
         rdf:about="">
        <dc:format>image/svg+xml</dc:format>
        <dc:type
           rdf:resource="http://purl.org/dc/dcmitype/StillImage" />
        <dc:title />
      </cc:Work>
    </rdf:RDF>
  </metadata>
  <g
     inkscape:label="Layer 1"
     inkscape:groupmode="layer"
     id="layer1"
     transform="translate(-9.9724878,-699.53258)">
    <g
       id="g4201"
       transform="matrix(0.09121766,0,0,0.09113695,9.0878234,663.0202)">
      <path
         id="rect4136"
         d="m 10,400.93362 700,0 0,328.57145 -700,0 z"
         style="color:#000000;clip-rule:nonzero;display:inline;overflow:visible;visibility:visible;opacity:1;isolation:auto;mix-blend-mode:normal;color-interpolation:sRGB;color-interpolation-filters:linearRGB;solid-color:#000000;solid-opacity:1;fill:#000000;fill-opacity:1;fill-rule:nonzero;stroke:#000000;stroke-width:0.60322034;stroke-linecap:butt;stroke-linejoin:round;stroke-miterlimit:4;stroke-dasharray:none;stroke-dashoffset:0;stroke-opacity:1;color-rendering:auto;image-rendering:auto;shape-rendering:auto;text-rendering:auto;enable-background:accumulate"
         inkscape:connector-curvature="0" />
      <g
         transform="translate(-8.5203345,33.571194)"
         id="g4147">
        <path
           style="color:#000000;clip-rule:nonzero;display:inline;overflow:visible;visibility:visible;opacity:1;isolation:auto;mix-blend-mode:normal;color-interpolation:sRGB;color-interpolation-filters:linearRGB;solid-color:#000000;solid-opacity:1;fill:#00ff00;fill-opacity:1;fill-rule:nonzero;stroke:#000000;stroke-width:0.60322034;stroke-linecap:butt;stroke-linejoin:round;stroke-miterlimit:4;stroke-dasharray:none;stroke-dashoffset:0;stroke-opacity:1;color-rendering:auto;image-rendering:auto;shape-rendering:auto;text-rendering:auto;enable-background:accumulate"
           d="m 70.608829,465.93408 198.571011,0 0,198.571 -198.571011,0 z"
           id="rect4138"
           inkscape:connector-curvature="0" />
        <path
           style="color:#000000;clip-rule:nonzero;display:inline;overflow:visible;visibility:visible;opacity:1;isolation:auto;mix-blend-mode:normal;color-interpolation:sRGB;color-interpolation-filters:linearRGB;solid-color:#000000;solid-opacity:1;fill:#ffff00;fill-opacity:1;fill-rule:nonzero;stroke:#000000;stroke-width:0.60322034;stroke-linecap:butt;stroke-linejoin:round;stroke-miterlimit:4;stroke-dasharray:none;stroke-dashoffset:0;stroke-opacity:1;color-rendering:auto;image-rendering:auto;shape-rendering:auto;text-rendering:auto;enable-background:accumulate"
           d="m 269.23484,465.93408 198.571,0 0,198.571 -198.571,0 z"
           id="rect4140"
           inkscape:connector-curvature="0" />
        <path
           style="color:#000000;clip-rule:nonzero;display:inline;overflow:visible;visibility:visible;opacity:1;isolation:auto;mix-blend-mode:normal;color-interpolation:sRGB;color-interpolation-filters:linearRGB;solid-color:#000000;solid-opacity:1;fill:#ff0000;fill-opacity:1;fill-rule:nonzero;stroke:#000000;stroke-width:0.60322034;stroke-linecap:butt;stroke-linejoin:round;stroke-miterlimit:4;stroke-dasharray:none;stroke-dashoffset:0;stroke-opacity:1;color-rendering:auto;image-rendering:auto;shape-rendering:auto;text-rendering:auto;enable-background:accumulate"
           d="m 467.86084,465.93408 198.571,0 0,198.571 -198.571,0 z"
           id="rect4142"
           inkscape:connector-curvature="0" />
      </g>
      <g
         id="text4152"
         style="font-size:65.53460693px;font-style:normal;font-weight:normal;line-height:125%;letter-spacing:0px;word-spacing:0px;fill:#000000;fill-opacity:1;stroke:none;font-family:sans-serif"
         transform="translate(142.71204,3.838702e-7)">
        <path
           id="path4176"
           style="fill:#ffffff;fill-opacity:1"
           d="m 96.933584,427.82435 40.415136,0 0,5.43988 -16.95963,0 0,42.3351 -6.49587,0 0,-42.3351 -16.959636,0 0,-5.43988 z"
           inkscape:connector-curvature="0" />
        <path
           id="path4178"
           style="fill:#ffffff;fill-opacity:1"
           d="m 166.27611,453.19981 q 2.07996,0.70399 4.03191,3.00794 1.98396,2.30395 3.96792,6.33586 l 6.55986,13.05572 -6.94385,0 -6.11187,-12.25573 q -2.36795,-4.7999 -4.6079,-6.36787 -2.20796,-1.56797 -6.04788,-1.56797 l -7.03985,0 0,20.19157 -6.46386,0 0,-47.77498 14.59169,0 q 8.19183,0 12.22374,3.42393 4.03192,3.42392 4.03192,10.33578 0,4.5119 -2.11196,7.48784 -2.07996,2.97594 -6.07987,4.12791 z m -16.19166,-20.06357 0,16.95964 8.12783,0 q 4.6719,0 7.03985,-2.14396 2.39995,-2.17595 2.39995,-6.36786 0,-4.19191 -2.39995,-6.30387 -2.36795,-2.14395 -7.03985,-2.14395 l -8.12783,0 z"
           inkscape:connector-curvature="0" />
        <path
           id="path4180"
           style="fill:#ffffff;fill-opacity:1"
           d="m 189.18762,427.82435 6.46387,0 0,47.77498 -6.46387,0 0,-47.77498 z"
           inkscape:connector-curvature="0" />
        <path
           id="path4182"
           style="fill:#ffffff;fill-opacity:1"
           d="m 224.48287,434.19221 -8.76781,23.7755 17.56763,0 -8.79982,-23.7755 z m -3.64792,-6.36786 7.32785,0 18.20761,47.77498 -6.71986,0 -4.3519,-12.25573 -21.53555,0 -4.3519,12.25573 -6.81586,0 18.23961,-47.77498 z"
           inkscape:connector-curvature="0" />
        <path
           id="path4184"
           style="fill:#ffffff;fill-opacity:1"
           d="m 284.73759,468.78348 0,-12.83173 -10.55977,0 0,-5.31188 16.95964,0 0,20.51156 q -3.74392,2.65594 -8.25583,4.03191 -4.5119,1.34397 -9.63179,1.34397 -11.19976,0 -17.53563,-6.52786 -6.30387,-6.55986 -6.30387,-18.23961 0,-11.71175 6.30387,-18.23961 6.33587,-6.55986 17.53563,-6.55986 4.6719,0 8.86381,1.15197 4.22391,1.15198 7.77583,3.39193 l 0,6.87986 q -3.58392,-3.03994 -7.61583,-4.57591 -4.03192,-1.53596 -8.47982,-1.53596 -8.76782,0 -13.18372,4.89589 -4.38391,4.8959 -4.38391,14.59169 0,9.6638 4.38391,14.55969 4.4159,4.8959 13.18372,4.8959 3.42392,0 6.11187,-0.57599 2.68794,-0.60799 4.83189,-1.85596 z"
           inkscape:connector-curvature="0" />
        <path
           id="path4186"
           style="fill:#ffffff;fill-opacity:1"
           d="m 302.9772,427.82435 30.20736,0 0,5.43988 -23.7435,0 0,14.1437 22.75152,0 0,5.43989 -22.75152,0 0,17.31163 24.31948,0 0,5.43988 -30.78334,0 0,-47.77498 z"
           inkscape:connector-curvature="0" />
      </g>
    </g>
  </g>
</svg>
