<?xml version="1.0" encoding="UTF-8" standalone="no"?>
<!-- Created with Inkscape (http://www.inkscape.org/) -->

<svg
   xmlns:dc="http://purl.org/dc/elements/1.1/"
   xmlns:cc="http://creativecommons.org/ns#"
   xmlns:rdf="http://www.w3.org/1999/02/22-rdf-syntax-ns#"
   xmlns:svg="http://www.w3.org/2000/svg"
   xmlns="http://www.w3.org/2000/svg"
   xmlns:sodipodi="http://sodipodi.sourceforge.net/DTD/sodipodi-0.dtd"
   xmlns:inkscape="http://www.inkscape.org/namespaces/inkscape"
   width="16.682888"
   height="5.3680553"
   id="svg2"
   version="1.1"
   inkscape:version="0.48.5 r10040"
   sodipodi:docname="hull_2.svg">
  <defs
     id="defs4" />
  <sodipodi:namedview
     id="base"
     pagecolor="#ffffff"
     bordercolor="#666666"
     borderopacity="1.0"
     inkscape:pageopacity="0.0"
     inkscape:pageshadow="2"
     inkscape:zoom="11.2"
     inkscape:cx="16.691293"
     inkscape:cy="13.67541"
     inkscape:document-units="px"
     inkscape:current-layer="layer1"
     showgrid="false"
     fit-margin-top="1"
     fit-margin-left="1"
     fit-margin-bottom="1"
     fit-margin-right="1"
     inkscape:window-width="1920"
     inkscape:window-height="1060"
     inkscape:window-x="-2"
     inkscape:window-y="-3"
     inkscape:window-maximized="1" />
  <metadata
     id="metadata7">
    <rdf:RDF>
      <cc:Work
         rdf:about="">
        <dc:format>image/svg+xml</dc:format>
        <dc:type
           rdf:resource="http://purl.org/dc/dcmitype/StillImage" />
        <dc:title></dc:title>
      </cc:Work>
    </rdf:RDF>
  </metadata>
  <g
     inkscape:label="Layer 1"
     inkscape:groupmode="layer"
     id="layer1"
     transform="translate(-168.44482,-591.91234)">
    <g
       id="g3870"
       transform="matrix(0.02494658,0,0,0.02494658,164.74954,587.48114)">
      <path
         id="path3797"
         d="M 219.28125,220.21875 211.1875,244.53125 238.84375,255 c 4.98315,11.05021 -12.4375,44.9375 -12.4375,44.9375 L 196.5,288.625 l -5.78125,17.3125 c 0,0 9.29464,25.69643 16.4375,27.125 7.14285,1.42857 109.99107,2.14732 143.5625,0.71875 33.57142,-1.42857 225.71875,-8.54911 230.71875,-6.40625 5,2.14286 97.86161,22.84375 130.71875,22.84375 32.85714,0 56.40625,-12.15625 56.40625,-12.15625 l 5.71875,-106.40625 c 0,0 -33.57143,-0.71875 -40,-0.71875 -6.42858,0 -69.98661,6.42857 -82.84375,5 -12.85714,-1.42857 -82.85268,-2.1384 -94.28125,-9.28125 -11.42857,-7.14286 -155,-0.71875 -155,-0.71875 0,0 -135.02678,4.28125 -149.3125,4.28125 -14.28571,0 -33.5625,-10 -33.5625,-10 z m 168.03125,29.875 45.6875,8.1875 c 6.92806,9.94691 -3.9375,46.4375 -3.9375,46.4375 l -55.5625,-9.9375 13.8125,-44.6875 z m 156.53125,1.1875 c 10.01815,6.82463 12.84375,44.8125 12.84375,44.8125 l -55.4375,10.5 -3.03125,-46.6875 45.625,-8.625 z m 73.84375,4.09375 45.0625,11.15625 c 6.25796,10.38156 -7,46.09375 -7,46.09375 L 600.96875,299.0625 617.6875,255.375 z m -335.53125,2 46.40625,0 c 8.57143,8.57143 4.28125,46.40625 4.28125,46.40625 l -56.40625,0 5.71875,-46.40625 z m 461.28125,3.03125 c 9.5465,7.47015 9.875,45.5625 9.875,45.5625 l -56,6.84375 0.0312,-46.78125 46.09375,-5.625 z"
         style="fill:#c19069;fill-opacity:1;stroke:#000000;stroke-width:1.00214136;stroke-linecap:butt;stroke-linejoin:miter;stroke-miterlimit:4;stroke-opacity:1;stroke-dasharray:none"
         inkscape:connector-curvature="0" />
      <path
         id="path3815"
         d="m 473.34375,223.65625 c -36.57593,0.73137 -71.1875,2.28125 -71.1875,2.28125 0,0 -15.21582,0.47073 -20.125,0.625 0.15608,0.30294 0.31988,0.6034 0.40625,0.8125 0.49513,1.19874 1.809,4.84474 3.46875,9.3125 -16.50309,1.02797 -46.53125,6.28125 -46.53125,6.28125 0,0 -5.36448,-8.12221 -11.5625,-14.75 -15.2919,0.45809 -30.62916,0.92727 -43.46875,1.28125 -1.20348,0.58136 -2.16378,1.08334 -2.5,1.375 -2.14495,1.86067 15.78669,11.2057 17.59375,12.78125 0.27784,0.24226 1.13132,1.10066 1.84375,1.78125 -4.61563,-0.49956 -9.95552,-1.03086 -15.34375,-1.78125 l -2.21875,8.90625 c 0,0 -4.64556,3.77132 -8.8125,6.5 L 233.5625,241.46875 c 0,0 19.57119,9.65491 38.65625,19.21875 -4.04627,2.59584 7,9.1308 7,11.84375 0,0.24457 0.36224,0.52067 0.96875,0.78125 l 1.96875,-15.9375 12.5625,0 c 1.71054,-2.14427 6.04853,-4.78591 11.90625,-6.75 3.45421,3.38094 6.42664,6.28038 6.90625,6.75 l 4.71875,0 22.40625,-2.84375 C 347.40167,263.85082 353.9004,272.83311 361,282.75 l -12.53125,-0.40625 0.96875,4.65625 14.65625,0 c 1.37784,1.92925 2.64003,3.75724 3.96875,5.625 -0.33052,0.0307 -0.64097,0.0327 -0.96875,0.0625 l -12.125,-0.71875 c -0.60706,-0.18416 -1.09709,-0.32171 -1.46875,-0.40625 0,0 -0.35158,0.13891 -0.71875,0.28125 l -19,-1.125 c -0.005,0.13355 -0.0258,0.27388 -0.0312,0.40625 7.99346,0.55643 8.85287,0.60883 17.625,1.21875 -1.91636,0.68317 -4.71263,1.56111 -6.625,1.625 -1.0691,0.0357 5.53157,1.92196 14.375,4.3125 l -4.15625,0 1.1562,-0.78125 c 0,0 -12.28833,-0.50405 -22.6875,-0.90625 -0.0275,0.4058 -0.0348,0.8401 -0.0625,1.21875 1.34031,0.14651 2.4523,0.25846 3.8125,0.40625 l -3.84375,-0.0312 c -0.0248,0.32911 -0.0381,0.5078 -0.0625,0.8125 l 11.9375,0.0937 c 3.62137,0.41276 6.41259,0.76091 7.1875,0.9375 l 1.28125,-0.875 8.96875,0.0625 c 3.53922,0.94686 7.1047,1.88558 10.875,2.875 -0.006,0.0549 0,0.21875 0,0.21875 0,0 0.55427,0.0508 1.46875,0.15625 0.0393,0.0563 0.0854,0.13132 0.125,0.1875 l -42.15625,-0.125 c -0.062,0.61774 -0.125,1.25 -0.125,1.25 l -56.40625,0 0.59375,-4.71875 c -2.34148,-0.0453 -4.93451,-0.0932 -6.28125,-0.0937 -0.92953,-4.3e-4 -1.69379,0.0147 -2.375,0.0312 l -0.21875,0 -14.375,-0.25 0.96875,-0.375 22.34375,0.1875 0.0625,-0.59375 -21.1875,-0.0625 7.71875,-2.96875 13.90625,-0.40625 0.25,-2.09375 c -2.36466,-0.0413 -5.13313,-0.0842 -7.25,-0.125 l 1.6875,-0.65625 -20.625,-2.34375 c -1.46628,-0.23944 -2.69434,-0.46427 -4.03125,-0.6875 2.9477,-0.80663 8.58777,-1.28899 4.8125,-1.875 -1.26078,-0.19569 -3.6127,-0.2909 -6.6875,-0.28125 -2.62876,0.008 -5.78101,0.0846 -9.34375,0.25 -1.37552,-0.24102 -2.50353,-0.41867 -3.6875,-0.625 -1.41062,3.42727 -2.76144,6.43184 -3.875,8.8125 2.1164,1.02194 4.25251,2.03171 6.3125,2.9375 l -7.6875,-0.0312 c -0.045,0.0922 -0.11392,0.2574 -0.15625,0.34375 l 8.75,0.0625 c 4.85329,2.1123 8.8125,3.6875 8.8125,3.6875 0,0 -12.50975,1.31503 -27.03125,3.03125 -11.67629,0.23296 -21.14741,0.46666 -27,0.65625 l -0.125,0.34375 c 0,0 0.0971,0.26784 0.125,0.34375 3.22034,0.13653 7.47718,0.284 12.28125,0.4375 -4.00239,0.51241 -7.88627,1.04863 -11.5,1.5625 0.89532,2.29852 2.37004,5.97486 4.28125,9.96875 7.55297,1.35916 14.67791,2.43027 17.3125,2.59375 6.35725,0.39443 34.38749,-6.2745 39.28125,-7.0313 C 257.39375,313.05569 297,307.5 297,307.5 l -0.65625,-0.34375 c 13.78902,-0.39561 26.8394,-0.78805 30.875,-0.875 2.8027,-0.0604 14.32092,-0.27822 25.5,-0.5 l -12.4375,3.5625 -42.4375,-0.40625 40.75,0.90625 -4.5625,1.3125 -0.0625,0 -56.5625,16.1875 -41.40625,-2.875 33.3125,5.21875 -14.9375,4.25 c 0,0 6.54853,-1.63589 16.3125,-4.0625 l 29.8125,4.65625 c 20.27923,-0.0549 39.12076,-0.27775 50.21875,-0.75 2.60341,-0.11078 7.65055,-0.32773 12,-0.5 l -82.59375,-5.75 c 21.19655,-5.25884 49.76412,-12.32192 68.9375,-16.90625 1.80525,-0.0627 7.80974,-0.2515 10.46875,-0.34375 l 19.375,0.4375 3.8125,21.8125 c 2.25024,-0.0849 4.47486,-0.16056 6.875,-0.25 l 1.0625,-6.6875 c 0.0858,0.16707 0.26612,0.51015 0.3125,0.625 l 8.09375,-7.40625 -6.21875,-7.34375 0.0625,-0.4375 24.34375,0.5 c -1.46337,2.24846 -2.70285,4.03696 -3.28125,4.53125 l 7.6875,4.0625 c 0,0 1.60072,-4.84458 2.78125,-8.4375 l 139.6875,3.03125 1.6875,1.34375 1.40625,-1.28125 8.53125,0.1875 -0.125,-3.34375 -4.75,-0.0312 2.6875,-2.40625 c 0.2613,0.0672 0.47558,0.14666 0.59375,0.1875 l 14.3125,-1.84375 -11,-1.8125 1.15625,-1.0625 c 3.10601,0.111 13.625,0.5 13.625,0.5 0,0 -9.58299,-0.51419 -13.34375,-0.71875 l 0.375,-0.3125 -5.59375,0.0312 c -3.09209,-0.16763 -4.61475,-0.25788 -8.53125,-0.46875 L 564.0625,303.5 c 0.58178,-0.01 1.19244,-0.0177 1.75,-0.0312 9.41341,-0.22772 14.8125,-0.28899 14.8125,-0.6875 0,-0.39852 -13.46875,-0.71875 -13.46875,-0.71875 l -10.78125,0.1875 -6.125,-1 16.90625,-0.15625 -4.5625,-1.46875 21.5625,0 c 0.18302,0.24047 0.42159,0.476 0.59375,0.71875 3.57961,5.04669 6.34011,4.16403 9.4375,0.34375 2.35788,0.0563 13.41145,0.32573 14.625,0.53125 0.04,0.007 0.5768,-0.0282 0.75,-0.0312 L 604.8125,300 c -4.70113,0.23409 -8.64343,0.44999 -10.5,0.5625 0.22966,-0.28818 0.45354,-0.61836 0.6875,-0.9375 l 8.25,0 -2.28125,-0.5625 0.0312,-0.0937 -5.46875,-0.0312 c 0.77779,-1.11256 1.58619,-2.44091 2.4375,-3.8125 0.26026,-0.003 2.98968,-0.0434 4.53125,-0.0625 l 0.21875,-0.5625 c -1.36476,0.10737 -3.62955,0.26493 -4.5625,0.34375 0.18159,-0.29385 0.31386,-0.572 0.5,-0.875 L 603,293.75 l 14.6875,-38.375 2.5,0.625 -0.0625,-0.0937 0.0625,-0.4375 24.34375,0.5 c -1.46337,2.24846 -2.70285,4.03696 -3.28125,4.53125 l 2.53125,1.34375 5.625,1.375 c 0.3785,-1.16726 1.31996,-4.07298 2.3125,-7.09375 l 121.09375,2.65625 0.1875,-3 -90.90625,-0.875 c -3.46968,-0.85311 -6.14561,-1.50689 -12.40625,-3.03125 42.82007,-1.46413 83.81426,-2.84312 89.75,-2.96875 l -17.46875,-0.53125 -74.40625,2.96875 c -4.68635,-1.13832 -9.4103,-2.28403 -13.21875,-3.1875 0.16579,-0.51715 0.30626,-0.95891 0.46875,-1.46875 7.00871,-0.28908 12.10058,-0.47743 12.96875,-0.53125 l -11.25,-0.3125 -1.46875,0.0937 c 0.42372,-1.33367 0.84596,-2.73615 1.21875,-3.9375 l 2.5625,-0.125 18.6875,0.3125 c 0,0 -10.28795,-0.99649 -20.6875,-2 0.54119,-1.77678 0.93311,-3.08041 1.1875,-4.0625 -0.35107,0.004 -0.63515,-7.1e-4 -0.96875,0 -0.66675,0.92525 -1.54876,2.1819 -2.59375,3.84375 -11.50274,-1.1141 -23.40911,-2.28068 -25.40625,-2.5625 -1.73753,-0.24516 -0.10593,-0.65925 3.78125,-1.09375 2.19078,0.46195 4.49304,1.03575 4.875,1.5 0.18134,0.22034 2.75553,-0.78294 6.5,-2.40625 -7.58131,-0.40835 -19.02568,-0.80529 -31.1875,-1.4375 l -0.15625,0.0625 -0.0312,-0.0937 c -6.85496,-0.35735 -13.87958,-0.78751 -20.625,-1.3125 1.05413,1.4922 2.07744,2.96497 3.125,4.4375 -0.33052,0.0307 -0.64097,0.0327 -0.96875,0.0625 l -12.125,-0.71875 c -0.60706,-0.18416 -1.09709,-0.32171 -1.46875,-0.40625 0,0 -0.35158,0.13891 -0.71875,0.28125 l -18.5,-1.09375 c 1.15037,-1.90722 2.39344,-3.90552 3.65625,-5.875 -3.62366,-0.77222 -6.44869,-1.64762 -8.0625,-2.65625 -1.87073,-1.1692 -7.31976,-1.97014 -15.0625,-2.5 l 2.8125,4.46875 c -0.10051,0.41889 0.0184,0.87175 0.5625,1.28125 0.18114,0.13634 0.30887,0.21698 0.46875,0.34375 L 548.5313,234.4063 520.75,232.75 c 0,0 17.70526,1.22579 27.96875,1.9375 l 0.53125,0.875 c -0.95344,-0.18445 -1.8661,-0.37292 -2.90625,-0.5625 0,0 -14.23353,-0.5665 -19.125,0.15625 -4.89173,0.72263 -10.29138,-0.66222 -14.0625,-2.4375 -1.83579,-0.86421 -5.63248,-1.82504 -9.5,-2.71875 l 32.5,1.84375 -0.0625,-4.84375 -64.3125,-1.625 c 0.59117,-0.64769 1.01822,-1.12496 1.5625,-1.71875 z m -4,4.4375 15.125,0.84375 c -2.26687,0.57814 -4.75046,1.26369 -7.375,2.03125 -0.01,0.003 -0.0214,-0.003 -0.0312,0 -1.12725,-0.045 -2.4626,-0.0673 -4,-0.0625 -1.85305,0.006 -4.0639,0.0431 -6.40625,0.125 0.93615,-1.05522 1.83291,-1.98993 2.6875,-2.9375 z m 264.9375,2.84375 c -1.69505,0 -7.55665,0.46175 -15.21875,1.09375 -0.18653,0.28772 -0.41278,0.59312 -0.59375,0.875 -4.38985,0.10201 -9.09375,0.21875 -9.09375,0.21875 0,0 -0.73953,-0.14111 -1.125,-0.21875 -16.84985,1.39039 -37.06985,2.98472 -49.1875,3.1875 2.28712,0.31774 5.25,0.75 5.25,0.75 L 711.75,236 c 1.46636,0.28225 2.78024,0.52331 4.28125,0.8125 -1.01905,1.6565 -1.14939,1.90484 -1.71875,2.875 -7.776,0.63237 -17.28453,1.41615 -19.96875,1.53125 l 13.8125,0.375 c 0,0 3.01628,-0.46363 5.5,-0.84375 -0.21267,0.36804 -0.9375,1.625 -0.9375,1.625 0,0 6.26243,-1.50808 14.1875,-3.4375 7.25884,1.40253 13.8387,2.69405 21.03125,4.09375 l -22.25,-0.125 1.71875,1.15625 26,0 c 4.97406,0.97028 9.38579,1.85419 13.9375,2.75 -14.80682,-0.77335 -28.54648,-1.46056 -32.75,-1.59375 0,0 -10.01974,0.53684 -15.53125,0.5625 -1.69296,0.008 7.57703,0.39224 20.1875,0.875 l 0.0937,0 c 9.13803,0.34974 19.53705,0.73752 31,1.15625 -0.006,0.0105 -0.0625,0.0312 -0.0625,0.0312 0,0 1.07559,0.037 2.65625,0.0625 0.15073,0.0298 0.31404,0.063 0.46875,0.0937 l 0.46875,-9 -11.09375,-3.53125 11.34375,-0.875 0.15625,-2.78125 c -6.21167,0.10358 -12.73035,0.21914 -19.21875,0.34375 1.26552,-0.29764 2.24847,-0.52776 3.46875,-0.8125 -9.88199,-0.19634 -20.69889,-0.40625 -24.25,-0.40625 z m 4.96875,15.71875 c -0.18158,-0.001 -57.78657,-0.3125 -64.5,-0.3125 2.38854,0.10422 52.87204,0.77965 57.84375,0.9375 l 6.65625,-0.625 z M 576.65625,231.125 l 0.0625,0.3125 2.65625,0 c -0.92178,-0.10285 -1.83178,-0.20377 -2.71875,-0.3125 z m -145.21875,2.96875 1.53125,1.34375 c -0.63544,0.0384 -1.2463,0.0839 -1.875,0.125 l 0.34375,-1.46875 z m 312.78125,0.625 18.0625,0.78125 0.0625,0 3.84375,7.59375 -4.4375,0 -30.9375,-5.125 c 4.40551,-1.0693 8.44299,-2.0624 13.40625,-3.25 z m -182.875,0.84375 c 7.88024,0.54692 8.69516,0.61959 17.3125,1.21875 -1.91636,0.68317 -4.71263,1.56111 -6.625,1.625 -1.0691,0.0357 5.56282,1.92196 14.40625,4.3125 l -4.1875,0 1.15625,-0.78125 c 0,0 -9.11282,-0.38801 -18.28125,-0.75 0.40257,-0.14298 0.64768,-0.30333 0.6875,-0.5 0.13065,-0.6464 -1.84575,-1.59299 -5.90625,-2.71875 0.44698,-0.75654 0.95199,-1.59885 1.4375,-2.40625 z m 23.34375,1.625 c 1.87935,0.13099 3.12072,0.21253 5,0.34375 -4.65183,0.42961 2.16221,1.27908 7.40625,2 0.71948,1.01349 1.33324,1.95147 2.03125,2.9375 -5.66114,-2.12415 -10.8582,-4.07721 -14.4375,-5.28125 z M 430.625,237.625 c 1.65357,0.0593 3.20696,0.0947 5,0.15625 l 5.0625,4.4375 -11.125,-0.0312 1.0625,-4.5625 z m 79.4375,1.1875 0.21875,0 c 8.86573,-0.0691 18.2015,0.30169 24.09375,0.75 l -7.59375,2.9375 -40.8125,-0.15625 c 0.98625,-0.50332 1.93661,-0.97134 2.84375,-1.375 2.22608,-0.99058 6.86268,-1.57381 12.4375,-1.875 l 8.8125,-0.28125 z M 541.75,240.25 c 4.20623,0.44542 7.76317,0.91214 11.15625,1.1875 l 0.75,1.1875 -19.4375,-0.0937 c 3.5128,-1.03444 6.0024,-1.7911 7.53125,-2.28125 z m 65.59375,0.5625 c 8.48357,0.31927 25.2866,0.6453 40.78125,0.90625 2.54033,0.19476 4.35518,0.33726 5,0.40625 -0.16816,0.27158 -0.3279,0.56493 -0.5,0.84375 l -32.4375,-0.125 c -2.22692,-0.93999 -5.84375,-1.59375 -5.84375,-1.59375 l -6.03125,0.75 -0.96875,-1.1875 z m -49.75,1.09375 c 2.34121,0.25621 4.36102,0.47686 6.875,0.75 l -7.28125,-0.0312 c 0.1467,-0.25945 0.24426,-0.43607 0.40625,-0.71875 z m -99.125,0.25 0.1875,0.125 -0.25,0 0.0625,-0.125 z m -28.96875,0.25 11.5,0.0937 7.40625,6.5 c -1.21912,0.14201 -2.02519,0.22655 -3.28125,0.375 -6.93286,0.13832 -12.08278,0.27831 -17.3125,0.40625 l 1.6875,-7.375 z m 28.6875,0.21875 1.09375,0 7.5,4.3125 c -3.00326,0.3268 -6.85847,0.76141 -12.25,1.375 l 3.65625,-5.6875 z m 217.875,0.0937 c 0,0 -8.4962,0.54314 -4.4375,0.96875 4.05882,0.42561 4.6098,0.66494 13.9375,0.71875 9.32758,0.0538 19.1875,-0.46875 19.1875,-0.46875 l -4.5,-0.71875 c -6.9054,-0.38458 -24.1875,-0.5 -24.1875,-0.5 z m -191.03125,0.125 40.09375,0.3125 -2.0625,0.78125 c -12.25169,-0.29943 -20.98422,-0.52955 -25.03125,-0.53125 -0.92953,-4.3e-4 -1.69379,0.0147 -2.375,0.0312 l -0.1875,0 L 484.25,243.25 c 0.26105,-0.14019 0.52147,-0.2697 0.78125,-0.40625 z m -96.75,0.28125 c 1.32361,3.58829 1.57529,4.22844 2.84375,7.65625 l 41.875,7.5 c 1.2906,1.85297 1.97785,4.6185 2.21875,7.90625 14.82892,-1.27058 29.95187,-2.51197 33.625,-2.6875 6.88752,-0.32915 21.51036,2.02516 29.9375,5.1875 l -0.46875,-7.15625 -3.375,-0.21875 c 0,0 -8.63623,-1.4155 -16.34375,-2.84375 0.38021,-0.0708 0.92944,-0.17884 1.1875,-0.21875 4.89375,-0.75681 44.5,-6.3125 44.5,-6.3125 L 523.625,251.5937 c 13.78902,-0.39561 26.87065,-0.78805 30.90625,-0.875 2.8027,-0.0604 14.28967,-0.27822 25.46875,-0.5 l -12.4375,3.5625 -21.40625,-0.21875 c 0.0728,0.0941 0.14689,0.18375 0.21875,0.28125 l 19.5,0.4375 -4.5625,1.3125 -0.0625,0 -12.03125,3.4375 c 0.329,0.7696 0.63431,1.57353 0.9375,2.40625 9.46483,-2.32035 18.63265,-4.56864 26.1875,-6.375 1.80525,-0.0627 7.80974,-0.2515 10.46875,-0.34375 l 19.375,0.4375 3.3125,19 c -7.63905,-3.16972 -15.9725,-5.83645 -22.375,-5.78125 -5.35171,0.0461 -13.57838,0.81597 -22.21875,1.84375 -4.25832,-2.11769 -8.59844,-4.40825 -11.5625,-6.25 -0.74034,-0.46006 -1.64513,-0.80722 -2.65625,-1.0625 2.19034,6.54698 3.65523,14.48732 4.59375,20.96875 1.73715,0.40991 3.07882,0.76384 3.59375,0.9375 0.88116,0.29727 3.32911,1.20537 6.28125,2.3125 -2.81985,0.024 -6.23417,0.0815 -9.40625,0.125 0.0998,0.77949 0.19881,1.51727 0.28125,2.21875 4.92906,-0.2851 9.58596,-0.53798 13.4375,-0.75 1.75875,0.66427 2.93774,1.08587 4.6875,1.75 3.63048,2.45079 6.93049,5.32549 9.4375,8.40625 l -23.75,-0.125 -6.4375,-2.03125 -21.4375,4.0625 c 2.68617,0.53139 5.45069,1.07358 8.09375,1.59375 -4.71972,-0.24651 -8.74016,-0.46932 -12.96875,-0.6875 l -4.78125,0.90625 c 6.66254,0.2505 13.08359,0.50121 20.75,0.78125 -0.006,0.0105 -0.0625,0.0312 -0.0625,0.0312 0,0 1.04434,0.037 2.625,0.0625 1.84938,0.36575 4.0617,0.78273 5.78125,1.125 l 8.6875,6.875 -105.28125,-1 c -3.46968,-0.85311 -6.14561,-1.50689 -12.40625,-3.03125 21.45311,-0.73354 42.42395,-1.44829 58.78125,-2 l -0.0625,-0.96875 -60.84375,2.4375 c -3.921,-0.95241 -7.6471,-1.8397 -11.0625,-2.65625 -0.0285,0.0975 -0.15625,0.46875 -0.15625,0.46875 l -11.5,-2.0625 c -0.0125,5.1e-4 -0.0188,-5.1e-4 -0.0312,0 l -1.78125,1.25 5.59375,1 c -0.60244,0.97674 -1.14084,1.88746 -1.71875,2.8125 l -20.28125,0.8125 c -1.0442,-0.40943 -2.39219,-0.95021 -5.65625,-2.21875 l 0.1875,-1.25 -3.15625,0.125 c -0.12309,-0.0477 -0.2504,-0.10798 -0.375,-0.15625 4.77856,-0.0939 16.25,-0.3125 16.25,-0.3125 L 392.125,303.6875 c 9.37729,-0.37497 15.2515,-0.61814 25.40625,-1.03125 l -2.71875,-0.5 -25,1.34375 -3.90625,-0.28125 -0.5,-0.5625 c 0.2995,-0.0382 0.61843,-0.075 0.90625,-0.125 5.27987,-0.91674 8.34375,-1.14572 8.34375,-2.75 0,-0.10669 -0.0938,-0.20815 -0.15625,-0.3125 l 5.46875,0.0312 -6.1875,-1.09375 -0.875,0 c -0.22854,-0.0965 -0.46635,-0.19121 -0.71875,-0.28125 l -6.4375,-1.15625 -4.71875,0.5625 -0.96875,-1.15625 c 0.78364,0.0295 1.95698,0.0642 2.875,0.0937 l -9.4375,-1.6875 5.96875,-19.28125 -10.125,-23.09375 10.09375,-5.6875 c 3.39571,-1.41926 6.29674,-2.58709 8.84375,-3.59375 z m 143.6875,0.0937 22.15625,0.15625 0.8125,1.28125 -1.90625,-0.0312 c -10.90823,-0.24817 -16.78648,-0.3866 -24,-0.5625 1.01118,-0.29454 1.98244,-0.56403 2.9375,-0.84375 z m 24.78125,0.1875 15.75,0.125 c 3.62137,0.41276 6.41259,0.76091 7.1875,0.9375 l 1.28125,-0.875 9,0.0625 c 3.53922,0.94686 7.07345,1.91683 10.84375,2.90625 -0.006,0.0549 0,0.1875 0,0.1875 0,0 0.55427,0.0508 1.46875,0.15625 0.0393,0.0563 0.0854,0.13132 0.125,0.1875 l -45.5625,-0.125 32.84375,-1.75 -33.65625,-0.53125 c 0.18218,-0.33397 0.43916,-0.78024 0.71875,-1.28125 z m 65.0625,0.5 30.03125,0.25 c -0.42116,0.68458 -0.7866,1.29599 -1.21875,2 l -4.09375,0.21875 c -0.0942,-0.0175 -0.4059,-0.0842 -0.46875,-0.0937 l -0.1875,0.125 -28.75,1.5625 -3.9375,-0.3125 -0.5,-0.5625 c 0.2995,-0.0382 0.61843,-0.0751 0.90625,-0.125 5.27987,-0.91674 8.34375,-1.14572 8.34375,-2.75 0,-0.10669 -0.0626,-0.20815 -0.125,-0.3125 z m -273.40625,2.15625 20.625,6.53125 0.0625,-0.0312 2.125,30.5625 -2.375,-0.0937 -25.125,-29.625 4.6875,-7.34375 z m 164.5,0 c 1.32803,0.0882 2.60253,0.19557 3.9375,0.28125 l -2,0.75 -1.9375,-1.03125 z m 7.53125,0.5 c 10.80018,0.67528 20.46875,1.1875 20.46875,1.1875 0,0 -10.10655,0.1583 -24,0.375 L 516.25,247.78125 c 1.83984,-0.52806 2.11233,-0.62076 4.1875,-1.21875 z m 129.75,0.3125 c -0.0587,0.0956 -0.16001,0.18558 -0.21875,0.28125 -0.29226,-0.0673 -0.67326,-0.18983 -0.9375,-0.25 0.36524,-0.0149 0.79763,-0.0165 1.15625,-0.0312 z m -5.34375,0.21875 -1.78125,1.25 5.5625,1 c -0.60244,0.97674 -1.14084,1.88746 -1.71875,2.8125 L 626.625,253 c -1.0442,-0.40943 -2.39219,-0.98146 -5.65625,-2.25 l 0.1875,-1.25 L 618,249.625 c -0.12309,-0.0477 -0.2504,-0.10798 -0.375,-0.15625 4.77856,-0.0939 16.25,-0.3125 16.25,-0.3125 L 619.4375,248.125 c 9.38881,-0.37543 15.22848,-0.61721 25.40625,-1.03125 z m -40.5625,2.65625 c 0.36711,0.52305 0.86207,1.17795 1.21875,1.6875 0.0169,0.0239 0.0457,0.0387 0.0625,0.0625 l 0.375,2.3125 -7.25,0.28125 -17.46875,-0.15625 c 6.7421,-1.59295 12.11404,-2.85195 13.5,-3.0625 l -4.125,-0.84375 c 6.48006,-0.12798 7.78803,-0.16512 13.6875,-0.28125 z m 49.375,0.5 7.625,1.34375 -8.15625,0.34375 c 0.24539,-0.75579 0.28318,-0.91906 0.53125,-1.6875 z M 427.5,251.0625 c 1.07133,0.0358 1.7692,0.0887 2.90625,0.125 -1.05508,0.13508 -1.99276,0.27033 -3.03125,0.40625 l 0.125,-0.53125 z m 193.34375,0.6875 c 2.60338,0.66993 3.96098,1.01534 5,1.28125 l -5.25,0.21875 0.25,-1.5 z m 43,0.3125 15.59375,2.8125 -27.21875,-0.28125 c 0.32965,-1.00695 0.36513,-1.06921 0.71875,-2.15625 3.96837,-0.13619 6.93606,-0.23906 10.90625,-0.375 z m -17.25,0.59375 c -0.38215,0.60972 -0.79557,1.33998 -1.15625,1.90625 l -25.0625,-0.28125 0.125,-0.71875 c 2.85669,-0.0987 3.4983,-0.14641 6.5,-0.25 0.16929,0.0433 1.40625,0.375 1.40625,0.375 0,0 -0.86338,-0.33364 -0.96875,-0.375 8.87801,-0.30638 9.51793,-0.32494 19.15625,-0.65625 z M 525.125,253.375 l 6.84375,0.15625 0.4375,-0.0937 -7.28125,-0.0625 z m 80.875,0.6875 0,0.0937 -2.3125,-0.0312 c 0.83658,-0.029 1.44708,-0.0326 2.3125,-0.0625 z m -27.40625,0.5 5.65625,0.0937 -7.40625,0.3125 c 0.64501,-0.15407 1.13152,-0.25911 1.75,-0.40625 z M 239.75,259.75 c 0.0185,1.0845 -0.08,2.24759 -0.21875,3.46875 l 10.96875,-2.375 c 0,0 -5.13723,-0.50808 -10.75,-1.09375 z m 108.21875,6.5 c -0.99387,0.0955 -9.71566,5.52137 -14.40625,8.0625 0.0482,0.60565 0.088,1.19883 0.125,1.8125 l 4.96875,0.9375 c 0,0 8.86569,-9.58333 9.375,-10.71875 0.0318,-0.071 0.0198,-0.10169 -0.0625,-0.0937 z m 424.3125,2.625 -22.8125,3.40625 c 0.0139,0.0523 0.0174,0.10373 0.0312,0.15625 2.53325,-0.28098 11.81111,-1.34282 22.71875,-2.5625 l 0.0625,-1 z m -309,0.0312 33.34375,5.21875 -14.96875,4.25 c 0,0 6.54853,-1.63589 16.3125,-4.0625 l 1.1875,0.1875 -0.1875,-3.09375 -35.6875,-2.5 z m -10.59375,5.4375 c 0,0 -8.55434,2.65901 -18.25,5.71875 -0.56283,4.04657 -1.33658,8.06896 -2.125,11.6875 2.09403,0.2934 4.6875,0.65625 4.6875,0.65625 l 47.46875,-0.84375 c 1.46636,0.28225 2.78024,0.52331 4.28125,0.8125 -1.01905,1.6565 -1.14939,1.90484 -1.71875,2.875 -7.776,0.63237 -17.28453,1.41615 -19.96875,1.53125 l 13.8125,0.375 c 0,0 3.01628,-0.46363 5.5,-0.84375 -0.21267,0.36804 -0.96875,1.625 -0.96875,1.625 0,0 6.29368,-1.53933 14.21875,-3.46875 0.29061,0.0562 0.55523,0.10034 0.84375,0.15625 L 499.3125,276.8437 c -2.94552,3.81209 -5.77779,7.96905 -8.125,11.625 -4.38985,0.10201 -9.09375,0.21875 -9.09375,0.21875 0,0 -3.31526,-0.71258 -8.09375,-1.59375 l 12.4375,0.0312 -15.40625,-0.53125 c -9.36728,-1.65625 -22.67726,-3.6851 -31.96875,-3.65625 -1.37254,0.004 -2.97981,0.0273 -4.6875,0.0625 9.44768,-4.42243 18.3125,-8.65625 18.3125,-8.65625 z m 211.46875,5.34375 c -0.41136,3.98314 -1.25729,8.30102 -2.25,12.46875 -0.17575,0.73788 -0.34722,1.46236 -0.53125,2.1875 14.71744,-0.17639 26.10374,-0.29922 35.9375,-0.40625 l 0.0312,-13.375 c -5.31453,0.22393 -10.78877,0.46347 -16.375,0.75 l -16.8125,-1.625 z m -429.3125,1 c -0.31602,0.85104 -0.64443,1.67044 -0.96875,2.5 l 44.78125,2.53125 0.5,-3.9375 -44.3125,-1.09375 z m 99.0625,2.78125 c 0.002,1.30659 -0.004,2.61467 -0.0312,3.875 1.71521,-0.44774 2.875,-0.875 2.875,-0.875 l -2.53125,-2.875 c -0.0981,-0.0392 -0.20727,-0.0873 -0.3125,-0.125 z m 421.25,1.34375 c -0.84961,10e-4 -2.07544,0.0356 -3.34375,0.0625 0.13953,1.07745 0.26017,2.13253 0.375,3.1875 4.52251,-0.15895 11.26051,-0.25125 19.09375,-0.3125 l 0.125,-2.40625 c -5.96193,-0.18665 -11.67108,-0.36033 -14.6875,-0.5 -0.36857,-0.0171 -0.90037,-0.0321 -1.5625,-0.0312 z m -2.96875,3.40625 c 0.15389,1.42599 0.3235,2.813 0.4375,4.15625 l 18.375,0.0625 0.15625,-2.40625 -18.96875,-1.8125 z m -548.96875,2.9375 c -2.69795,0.17816 -5.2719,0.37792 -7.75,0.5625 l -0.375,1.15625 c 3.89123,0.16127 8.52374,0.34145 14.03125,0.53125 l -5.90625,-2.25 z m 154.1875,1.59375 c 1.87935,0.13099 3.12072,0.21253 5,0.34375 -4.65183,0.42961 2.16221,1.27908 7.40625,2 0.71948,1.01349 1.33324,1.92022 2.03125,2.90625 -5.66114,-2.12415 -10.8582,-4.04596 -14.4375,-5.25 z m 395.28125,0.34375 c 0.0393,0.48361 0.0591,0.93893 0.0937,1.40625 7.0902,0.24001 13.51691,0.53726 18.0625,0.84375 l 0.125,-2 L 759.5,293.25 c 0,0 -4.33805,-0.0989 -6.8125,-0.15625 z m -321.3125,2.8438 c -0.13007,0.54251 -0.24997,1.02657 -0.375,1.53125 l 0.5625,-0.0312 18.6875,0.3125 c 0,0 -9.47639,-0.90503 -18.875,-1.8125 z m 252.75,0.53125 c 0,0 -15.65764,0.68572 -23.59375,1.03125 -0.0492,0.17934 -0.0757,0.35353 -0.125,0.53125 9.82543,-0.64982 23.71875,-1.5625 23.71875,-1.5625 z m 86.65625,0.0312 c -6.36639,1.07497 -12.61759,2.34792 -17.65625,3.4375 0.0418,0.86079 0.0363,1.35902 0.0625,2.0625 3.00757,-0.10287 10.74603,-0.36971 17.34375,-0.59375 l 0.25,-4.90625 z m -577.3125,1.1875 -0.0625,0.1875 28.15625,0.21875 -0.84375,-0.3125 -27.25,-0.0937 z m 255.28125,0.5938 c 0,0 -8.46495,0.54314 -4.40625,0.96875 4.05882,0.42561 4.57855,0.66494 13.90625,0.71875 9.32758,0.0538 19.21875,-0.46875 19.21875,-0.46875 l -4.5,-0.71875 c -6.9054,-0.38458 -24.21875,-0.5 -24.21875,-0.5 z m 49.625,0.1875 1.75,1.15625 0.6875,0 -0.0937,-1.15625 -2.34375,0 z M 660.0625,299.25 c -0.0358,0.12568 -0.0892,0.25033 -0.125,0.375 l 37.375,0.0312 0,-0.21875 -37.25,-0.1875 z m -326.90625,1.0625 c -0.0671,0.77127 -0.13768,1.52426 -0.1875,2.03125 l 29.4375,-1.5625 -29.25,-0.46875 z m 167.75,0.75 c -3.05049,0.13476 -6.56367,0.26933 -9.125,0.28125 -1.08969,0.005 3.20266,0.19458 9.15625,0.4375 l -0.0312,-0.71875 z m -70.9375,0.375 c -0.0617,0.2285 -0.13133,0.51358 -0.1875,0.71875 5.16147,-0.21564 9.97203,-0.4244 10.6875,-0.46875 l -10.5,-0.25 z m 17.5,0.46875 c 2.15039,0.0938 41.72233,0.64971 53.53125,0.875 l -0.0312,-0.625 c -13.77799,-0.0737 -47.93173,-0.25 -53.5,-0.25 z m 172.1875,1.78125 -1.40625,0.125 2.15625,0.0625 -0.75,-0.1875 z m -104.46875,0.25 -6.5625,1.25 c 10.51883,-0.34989 21.28072,-0.70237 23.53125,-0.75 l -16.96875,-0.5 z M 658.5,304.46875 c -0.0385,0.12273 -0.087,0.22306 -0.125,0.34375 l 5.28125,0.125 c -0.3006,0.33849 -4.35958,4.89859 -7.375,6.21875 -0.31323,0.88799 -0.53125,1.46875 -0.53125,1.46875 l -4.25,-1.0625 -5.0625,-0.0625 1.65625,3.21875 10.0625,0 c 1.36987,1.1393 3.06657,2.5029 5.125,4.09375 -3.56103,-0.46887 -6.47037,-0.83417 -8,-0.96875 0,0 -10.01974,1.585 -15.53125,1.65625 -2.04132,0.0264 11.28366,1.49146 28.78125,3.3125 13.68115,10.29548 30.56628,22.3644 37.375,27.21875 0.66764,0.0383 1.30035,0.0663 1.9375,0.0937 -4.13019,-4.49798 -13.55115,-14.75172 -24.0625,-25.75 27.06493,2.7673 56.4375,5.6875 56.4375,5.6875 0,0 -34.07795,-5.17949 -59.4375,-8.8125 -2.22745,-2.31162 -4.38911,-4.52503 -6.375,-6.53125 l 95.40625,0.0312 0.0937,-1.59375 -67.96875,-0.90625 -4.625,0.5625 0,-0.625 -25.78125,-0.34375 c -3.46168,-3.42266 -6.20917,-5.95343 -7.5625,-6.875 l 33.34375,0.84375 0,-0.0312 c -2.36302,-0.0808 -21.54569,-0.7293 -38.8125,-1.3125 z m -33.875,0.4375 c -4.23089,0.93639 -8.07193,1.76373 -9.53125,1.9375 l 13.8125,1.03125 c 0,0 2.00688,-0.88561 2.78125,-1.21875 l -7.0625,-1.75 z M 377,305.3125 c 0.36711,0.52305 0.86207,1.17795 1.21875,1.6875 0.0169,0.0239 0.0457,0.0387 0.0625,0.0625 l 0.375,2.3125 -7.25,0.28125 -17.46875,-0.1875 c 6.7421,-1.59295 12.11404,-2.8207 13.5,-3.03125 l -4.125,-0.84375 c 6.48006,-0.12798 7.78803,-0.16512 13.6875,-0.28125 z m 49.34375,0.46875 7.65625,1.375 -8.15625,0.34375 c 0.24539,-0.75579 0.25193,-0.95031 0.5,-1.71875 z m -32.78125,1.53125 c 2.60338,0.66993 3.96098,1.01534 5,1.28125 l -5.28125,0.21875 0.28125,-1.5 z m 43,0.3125 15.59375,2.78125 -27.21875,-0.25 c 0.32965,-1.00695 0.36513,-1.06921 0.71875,-2.15625 3.96837,-0.13619 6.93606,-0.23906 10.90625,-0.375 z m -17.28125,0.59375 c -0.38215,0.60972 -0.79557,1.30873 -1.15625,1.875 l -25.03125,-0.25 0.125,-0.71875 c 2.85669,-0.0987 3.4983,-0.14641 6.5,-0.25 0.16929,0.0433 1.40625,0.375 1.40625,0.375 0,0 -0.86338,-0.33364 -0.96875,-0.375 8.87801,-0.30638 9.48668,-0.32494 19.125,-0.65625 z m -40.5625,1.40625 0,0.0937 -2.3125,-0.0312 c 0.83658,-0.029 1.44708,-0.0326 2.3125,-0.0625 z m -27.40625,0.46875 5.65625,0.125 -7.40625,0.3125 c 0.64501,-0.15407 1.13152,-0.29036 1.75,-0.4375 z m 245.4375,0.9375 c 0,0 -8.49632,1.44317 -4.4375,2.625 4.05888,1.18183 4.67242,1.81932 14,1.96875 3.6981,0.0593 7.44912,-0.12396 10.65625,-0.375 l -15.90625,16.96875 c 1.20259,0.26954 2.46709,0.56108 3.75,0.84375 9.96674,-8.00514 20.47922,-16.55859 21.46875,-17.78125 l -1.59375,-0.84375 c 0.22771,-0.0313 0.75,-0.0937 0.75,-0.0937 l -4.4375,-2 c -0.12629,-0.0195 -0.30439,-0.0435 -0.4375,-0.0625 L 620,312 l -0.1875,0.21875 c -7.48229,-0.94034 -23.0625,-1.1875 -23.0625,-1.1875 z m -19.53125,8.59375 -55.5625,8.28125 c 0.51676,-0.0139 1.01853,-0.0176 1.53125,-0.0312 8.53542,-0.94695 62.14171,-6.89702 65.28125,-7.4375 l -11.25,-0.8125 z"
         style="fill:#604f42;fill-opacity:0.49479167;stroke:none"
         inkscape:connector-curvature="0" />
      <path
         id="path3834"
         d="m 376.96875,226.71875 c -0.78739,0.0247 -1.83543,0.0358 -2.6875,0.0625 4.63895,5.04683 12.65472,13.74871 22.09375,23.625 -27.06493,-2.7673 -56.4375,-5.6875 -56.4375,-5.6875 0,0 24.07858,3.6678 46.875,7 l 0.5,-1.625 37.90625,6.78125 c 0.95267,-0.14864 9.96327,-1.52621 15.1875,-1.59375 2.04132,-0.0264 -11.28366,-1.49146 -28.78125,-3.3125 -12.52498,-9.42543 -26.9506,-19.74832 -34.65625,-25.25 z m 396.84375,13.5625 c -17.97312,0.08 -34.36928,0.29298 -44.375,0.71875 -2.60341,0.11078 -7.65055,0.32773 -12,0.5 l 56.09375,3.90625 0.28125,-5.125 z m -298.46875,1.4375 C 465.37701,249.72389 454.86453,258.27734 453.875,259.5 l 1.59375,0.84375 c -0.22771,0.0313 -0.75,0.0937 -0.75,0.0937 l 4.4375,2 c 0.12629,0.0195 0.30439,0.0435 0.4375,0.0625 l 0.5625,0.28125 0.1875,-0.21875 c 7.48229,0.94034 23.0625,1.1875 23.0625,1.1875 0,0 8.49632,-1.44317 4.4375,-2.625 -4.05888,-1.18183 -4.67242,-1.81932 -14,-1.96875 -3.6981,-0.0593 -7.44912,0.12396 -10.65625,0.375 l 15.90625,-16.96875 c -1.20259,-0.26954 -2.46709,-0.56108 -3.75,-0.84375 z M 697.4375,242.25 c -2.25024,0.0849 -4.47486,0.16056 -6.875,0.25 l -1.0625,6.6875 c -0.0858,-0.16707 -0.26612,-0.51015 -0.3125,-0.625 l -8.09375,7.40625 6.21875,7.34375 -0.0625,0.4375 -24.34375,-0.5 c 1.46337,-2.24846 2.70285,-4.03696 3.28125,-4.53125 l -7.6875,-4.0625 c 0,0 -1.60072,4.84458 -2.78125,8.4375 l -7.5,-0.15625 6.8125,1.6875 0.1875,0 c -0.004,0.0131 0.004,0.0184 0,0.0312 l 5.90625,1.46875 c 0.30243,-0.49287 0.62803,-1.00069 0.90625,-1.4375 l 25.03125,0.25 -0.125,0.71875 c -2.85669,0.0987 -3.4983,0.14641 -6.5,0.25 -0.16929,-0.0433 -1.40625,-0.375 -1.40625,-0.375 0,0 0.86338,0.33364 0.96875,0.375 -8.0656,0.27834 -9.9884,0.34019 -17.375,0.59375 l 0.125,0.0312 c 0.0824,0.13679 0.143,0.29206 0.21875,0.4375 L 680.8125,266.25 c 1.0442,0.40943 2.39219,0.95021 5.65625,2.21875 l -0.1875,1.25 3.15625,-0.125 c 0.12309,0.0477 0.2504,0.10798 0.375,0.15625 -4.77856,0.0939 -16.25,0.3125 -16.25,0.3125 l 14.46875,1.03125 c -8.76605,0.35053 -14.74792,0.60208 -23.75,0.96875 0.0118,0.12367 0.0212,0.24936 0.0312,0.375 l 1.03125,0.1875 25,-1.34375 3.90625,0.28125 0.5,0.5625 c -0.2995,0.0382 -0.61843,0.075 -0.90625,0.125 -5.27987,0.91674 -8.34375,1.14572 -8.34375,2.75 0,0.10669 0.0938,0.20815 0.15625,0.3125 l -5.46875,-0.0312 6.1875,1.09375 0.875,0 c 0.22854,0.0965 0.46635,0.19121 0.71875,0.28125 l 6.4375,1.15625 2.9375,-0.34375 0,-11.4375 4.1875,-0.5 -0.0312,-0.125 1.40625,-0.0625 8.65625,-1.0625 L 701.25,264.0625 697.4375,242.25 z M 558.5,246.875 c -0.51676,0.0139 -1.01853,0.0177 -1.53125,0.0312 -8.53542,0.94695 -62.14171,6.89702 -65.28125,7.4375 l 11.25,0.8125 55.5625,-8.2812 z m 214.59375,7.03125 c -10.0555,2.47958 -19.7626,4.88922 -28.96875,7.125 0.71316,0.70127 1.36194,1.57 1.96875,2.59375 l 0.0312,0 0.0625,0 26.78125,-7.65625 0.125,-2.0625 z m -442.6875,6.125 c 0.29692,0.58061 0.59179,1.20393 0.84375,1.875 l 46.96875,0.625 4.625,-0.5625 0,0.625 0.59375,0 0.78125,-2.53125 -53.8125,-0.0312 z m 219.53125,0.78125 c 0.33717,0.8911 0.66141,1.8277 0.96875,2.78125 l 63.40625,0.625 0.75,-2 -65.125,-1.40625 z m 151.5,4.25 2.3125,0.0312 c -0.83658,0.029 -1.44708,0.0326 -2.3125,0.0625 l 0,-0.0937 z m 45.4375,0 c 0.0713,0.14521 0.14898,0.28817 0.21875,0.4375 l 25.34375,0.25 0.0312,-0.125 -25.59375,-0.5625 z m -60,0.90625 -0.28125,1.5 c -2.60338,-0.66993 -3.96098,-1.01534 -5,-1.28125 l 5.28125,-0.21875 z m -188.25,0.375 -6.9375,0.90625 7.09375,1.15625 -0.15625,-2.0625 z m -47.375,0.5625 c 0,0 -2.00688,0.88561 -2.78125,1.21875 l 7.0625,1.75 c 4.23089,-0.93639 8.07193,-1.76373 9.53125,-1.9375 L 451.25,266.90625 z m 321.09375,1.03125 c -7.60451,0.22096 -16.86966,0.50785 -19.40625,0.5625 -0.50834,0.011 -3.59726,0.0734 -4.625,0.0937 0.27098,0.77557 0.53889,1.57221 0.78125,2.40625 l 23.0625,0 0.1875,-3.0625 z m -159.5625,0.25 c -11.676,0.3978 -24.4033,0.83889 -33.8125,1.15625 l 0.0625,0.96875 33.4375,-1.34375 0.3125,-0.78125 z m -41.25,1.40625 c -8.40939,0.27972 -14.56562,0.46781 -18.8125,0.59375 0.0247,0.1036 0.0381,0.20874 0.0625,0.3125 l 12.1875,0.34375 6.5625,-1.25 z m -83.625,0.0312 c 0,0 6.57484,0.35645 10.96875,0.59375 l 0,-0.1875 c -4.27869,-0.15621 -10.96875,-0.40625 -10.96875,-0.40625 z m 176.25,1.21875 c 0.01,0.0623 0.0222,0.12462 0.0312,0.1875 l 0.21875,-0.15625 -0.25,-0.0312 z m -204.40625,0.0625 0.75,0.1875 1.40625,-0.125 -2.15625,-0.0625 z m 30.75,0.0312 c -1.52475,0.0674 -2.98256,1.24611 -4.53125,3.15625 -2.35788,-0.0563 -13.41145,-0.32573 -14.625,-0.53125 -0.04,-0.007 -0.5768,0.0283 -0.75,0.0312 l 4.75,1.1875 c 4.70113,-0.23409 8.64343,-0.44999 10.5,-0.5625 -0.22966,0.28818 -0.45354,0.61836 -0.6875,0.9375 l -8.25,0 2.28125,0.5625 -0.0312,0.0937 5.46875,0.0312 c -0.77779,1.11256 -1.58619,2.44091 -2.4375,3.8125 -0.26026,0.003 -2.98968,0.0434 -4.53125,0.0625 l -0.21875,0.5625 c 1.36476,-0.10737 3.62955,-0.26493 4.5625,-0.34375 -0.18159,0.29385 -0.31386,0.572 -0.5,0.875 l -4.34375,0.21875 -14.6875,38.375 -2.5,-0.625 0.0625,0.0937 -0.0625,0.4375 -24.34375,-0.5 c 1.46337,-2.24846 2.70285,-4.03696 3.28125,-4.53125 l -2.53125,-1.34375 -5.625,-1.375 c -0.3785,1.16726 -1.31996,4.07298 -2.3125,7.09375 L 307.34375,316 l -0.1875,3 90.90625,0.875 c 3.46968,0.85311 6.14561,1.50689 12.40625,3.03125 -42.82007,1.46413 -83.81426,2.84312 -89.75,2.96875 l 17.46875,0.53125 74.40625,-2.96875 c 4.68635,1.13832 9.4103,2.28403 13.21875,3.1875 -0.16579,0.51715 -0.30626,0.95891 -0.46875,1.46875 -7.00871,0.28908 -12.10058,0.47743 -12.96875,0.53125 l 11.25,0.3125 1.46875,-0.0937 c -0.23265,0.73227 -0.46368,1.42718 -0.6875,2.15625 3.29178,-0.1163 6.28291,-0.19517 9.65625,-0.3125 l -5.75,-0.0625 c 0.42116,-0.68458 0.7866,-1.29599 1.21875,-2 l 4.09375,-0.21875 c 0.0942,0.0175 0.4059,0.0842 0.46875,0.0937 l 0.1875,-0.125 28.75,-1.5625 3.9375,0.3125 0.5,0.5625 c -0.2995,0.0382 -0.61843,0.0751 -0.90625,0.125 -4.34341,0.75414 -7.19036,1.05945 -8.0625,2.03125 8.11796,-0.2704 16.00162,-0.52831 24.03125,-0.78125 -1.07274,-0.28715 -2.08014,-0.55315 -3.1875,-0.84375 0.006,-0.0549 0,-0.1875 0,-0.1875 0,0 -0.55427,-0.0508 -1.46875,-0.15625 -0.0393,-0.0563 -0.0854,-0.13132 -0.125,-0.1875 l 45.5625,0.125 -2.25,0.125 c 8.59572,-0.23178 16.65706,-0.4397 23.90625,-0.59375 -3.28677,-0.1843 -5.71875,-0.3125 -5.71875,-0.3125 0,0 10.10655,-0.1583 24,-0.375 L 563.90625,327 c -0.0543,0.0156 -0.0733,0.0164 -0.125,0.0312 10.13176,-0.10224 16.7983,-0.0239 17.65625,0.34375 4.11632,1.76414 67.7597,16.07932 108.46875,21.09375 3.70428,-0.11494 6.21395,-0.187 8.21875,-0.25 -0.15608,-0.30294 -0.31988,-0.6034 -0.40625,-0.8125 -0.49513,-1.19874 -1.809,-4.84474 -3.46875,-9.3125 16.50309,-1.02797 46.53125,-6.28125 46.53125,-6.28125 0,0 4.44357,6.70627 9.90625,12.90625 11.17706,-3.21913 17.875,-6.65625 17.875,-6.65625 l 0.96875,-17.8125 c -0.93569,-0.91383 -2.70431,-2.64602 -2.90625,-2.84375 l -4.71875,0 L 739.5,320.25 c -2.8124,-3.88565 -5.58694,-7.70193 -8.375,-11.5625 l -4.9375,0.59375 10.25,12.09375 -4.6875,7.34375 -20.625,-6.53125 -0.0625,0.0312 -0.75,-11 -4.15625,0.5 4.65625,10.65625 -10.09375,5.6875 c -3.39571,1.41926 -6.29674,2.58709 -8.84375,3.59375 -1.32361,-3.58829 -1.57529,-4.22844 -2.84375,-7.65625 l -41.875,-7.5 c -1.103,-1.58363 -1.74288,-3.82694 -2.0625,-6.5 l -4.25,-1.0625 c -13.33449,1.1327 -26.21616,2.18533 -29.53125,2.34375 -6.88752,0.32915 -21.51036,-2.02516 -29.9375,-5.1875 l 0.46875,7.15625 3.375,0.21875 c 0,0 8.63623,1.4155 16.34375,2.84375 -0.38021,0.0708 -0.92944,0.17884 -1.1875,0.21875 -4.89375,0.75681 -44.5,6.3125 -44.5,6.3125 l 0.65625,0.34375 c -13.78902,0.39561 -26.87065,0.78805 -30.90625,0.875 -2.8027,0.0604 -14.28967,0.27822 -25.46875,0.5 L 512.59375,321 534,321.21875 c -0.0728,-0.0941 -0.14689,-0.18375 -0.21875,-0.28125 l -19.5,-0.4375 4.5625,-1.3125 0.0625,0 12.03125,-3.4375 c -0.329,-0.7696 -0.63431,-1.57353 -0.9375,-2.40625 -9.46483,2.32035 -18.63265,4.56864 -26.1875,6.375 -1.80525,0.0627 -7.80974,0.2515 -10.46875,0.34375 l -19.375,-0.4375 -3.3125,-19 c 7.63905,3.16972 15.9725,5.83645 22.375,5.78125 2.25568,-0.0194 5.09463,-0.16454 8.1875,-0.40625 l -1.75,-26.9375 c -1.05191,-1.01844 -2.0288,-2.07798 -2.90625,-3.15625 l 2.6875,0 -0.0312,-0.75 -3.21875,0 c -0.18302,-0.24047 -0.42159,-0.476 -0.59375,-0.71875 -1.78981,-2.52335 -3.3815,-3.56736 -4.90625,-3.5 z M 553.15625,272 c 0.0763,0.34441 0.14532,0.68645 0.21875,1.03125 l 4.46875,-0.84375 c -1.50522,-0.0566 -3.18978,-0.13055 -4.6875,-0.1875 z m 26,0 0.0312,0.625 c 8.20081,0.0439 19.53006,0.0985 31.84375,0.15625 l 0.0937,-0.25 C 598.90496,272.343 585.46711,272.1204 579.15625,272 z m 0.0625,1 0.0312,0.71875 c 3.05049,-0.13476 6.56367,-0.26933 9.125,-0.28125 -0.68928,-0.0577 -4.35526,-0.24161 -9.15625,-0.4375 z m 30.96875,2 c -4.31643,0.13418 -7.5,0.28125 -7.5,0.28125 l 4.5,0.71875 c 0.72959,0.0406 1.63324,0.0902 2.5625,0.125 L 610.1875,275 z m -30.84375,0.15625 0.0937,1.15625 2.34375,0 -1.75,-1.15625 -0.6875,0 z m 15.40625,1.6875 c 0,0 -6.29368,1.53933 -14.21875,3.46875 -0.29061,-0.0562 -0.55523,-0.10034 -0.84375,-0.15625 l 1.15625,17.78125 c 2.94552,-3.81209 5.77779,-7.96905 8.125,-11.625 4.38985,-0.10201 9.09375,-0.21875 9.09375,-0.21875 0,0 3.04439,0.63865 7.3125,1.4375 l 1.75,-4.5 -11.4375,0.1875 c -1.46636,-0.28225 -2.78024,-0.52331 -4.28125,-0.8125 1.01905,-1.6565 1.14939,-1.90484 1.71875,-2.875 5.42388,-0.44109 11.57538,-0.93989 15.78125,-1.25 l 0.15625,-0.375 -9.78125,-0.28125 c 0,0 -3.01628,0.46363 -5.5,0.84375 0.21267,-0.36804 0.96875,-1.625 0.96875,-1.625 z m 102.46875,1.46875 0.125,0.0312 0,-0.0312 c -0.0408,-10e-4 -0.0851,10e-4 -0.125,0 z m -103.5,9.34375 11.46875,0.40625 0.125,-0.375 -11.59375,-0.0312 z m 4.78125,8.75 c 0,0 -6.54853,1.63589 -16.3125,4.0625 l -1.1875,-0.1875 0.1875,3.09375 35.6875,2.5 -33.34375,-5.21875 14.96875,-4.25 z m -71.6875,5.34375 -19.40625,3.6875 c 2.53724,-0.25606 5.15175,-0.55478 7.84375,-0.875 4.25832,2.11769 8.59844,4.40825 11.5625,6.25 0.74034,0.46006 1.64513,0.80722 2.65625,1.0625 -1.05716,-3.15987 -1.91469,-6.63666 -2.65625,-10.125 z m -208.90625,2.03125 c -3.72647,0.42177 -5.18256,0.58981 -9.96875,1.125 l -0.0625,1 14.21875,-2.125 -4.1875,0 z M 503.3125,319.8125 c -0.64501,0.15407 -1.13152,0.25911 -1.75,0.40625 l -5.65625,-0.0937 7.40625,-0.3125 z m -102.59375,0.0937 27.21875,0.28125 c -0.32965,1.00695 -0.36513,1.06921 -0.71875,2.15625 -3.96837,0.13619 -6.93606,0.23906 -10.90625,0.375 l -15.59375,-2.8125 z m 34,0.3125 25.0625,0.28125 -0.125,0.71875 c -2.85669,0.0987 -3.4983,0.14641 -6.5,0.25 -0.16929,-0.0433 -1.40625,-0.375 -1.40625,-0.375 0,0 0.86338,0.33364 0.96875,0.375 -8.87801,0.30638 -9.51793,0.32494 -19.15625,0.65625 0.38215,-0.60972 0.79557,-1.33998 1.15625,-1.90625 z m 39.4375,0.40625 2.3125,0.0312 c -0.83658,0.029 -1.44708,0.0326 -2.3125,0.0625 l 0,-0.0937 z m 7.3125,0.0625 17.46875,0.15625 c -6.7421,1.59295 -12.11404,2.85195 -13.5,3.0625 l 4.125,0.84375 c -6.48006,0.12798 -7.78803,0.16512 -13.6875,0.28125 -0.36711,-0.52305 -0.86207,-1.17795 -1.21875,-1.6875 -0.0169,-0.0239 -0.0457,-0.0387 -0.0625,-0.0625 l -0.375,-2.3125 7.25,-0.28125 z m 66.71875,0.5625 -0.4375,0.0937 7.28125,0.0625 -6.84375,-0.15625 z m -88.625,0.28125 -0.25,1.5 c -2.60338,-0.66993 -3.96098,-1.01534 -5,-1.28125 l 5.25,-0.21875 z m -6.03125,0.25 c 1.0442,0.40943 2.39219,0.98146 5.65625,2.25 l -0.1875,1.25 3.15625,-0.125 c 0.12309,0.0477 0.2504,0.10798 0.375,0.15625 -4.77856,0.0939 -16.25,0.3125 -16.25,0.3125 l 14.4375,1.03125 c -9.38881,0.37543 -15.22848,0.61721 -25.40625,1.03125 l 1.78125,-1.25 -5.5625,-1 c 0.60244,-0.97674 1.14084,-1.88746 1.71875,-2.8125 l 20.28125,-0.84375 z m -26.5,1.0625 c -0.24539,0.75579 -0.28318,0.91906 -0.53125,1.6875 l -7.625,-1.34375 8.15625,-0.34375 z m 225.75,0.34375 -0.125,0.53125 c -1.07133,-0.0358 -1.7692,-0.0887 -2.90625,-0.125 1.05508,-0.13508 1.99276,-0.27033 3.03125,-0.40625 z m -0.4375,1.8125 -1.6875,7.375 -11.5,-0.0937 -7.40625,-6.5 c 1.21912,-0.14201 2.02519,-0.22655 3.28125,-0.375 6.93286,-0.13832 12.08278,-0.27831 17.3125,-0.40625 z m -26.71875,1.46875 -3.65625,5.6875 -1.09375,0 -7.5,-4.3125 c 3.00326,-0.3268 6.85847,-0.76141 12.25,-1.375 z m -318.875,0.3125 -0.40625,7.71875 c 3.00337,-0.0137 6.14807,-0.009 9.03125,-0.0312 l -1.40625,-2.78125 4.4375,0 15.40625,2.5625 c 3.63379,-0.0649 7.04099,-0.13196 10.09375,-0.21875 -3.84069,-0.74872 -7.69005,-1.50333 -11.6875,-2.28125 l 22.25,0.125 -1.71875,-1.15625 -26,0 c -4.97406,-0.97028 -9.38579,-1.85419 -13.9375,-2.75 14.80682,0.77335 28.54648,1.46056 32.75,1.59375 0,0 10.01974,-0.53684 15.53125,-0.5625 -1.13178,-0.0951 -9.40394,-0.46218 -20.1875,-0.875 l -0.0937,0 c -9.13803,-0.34974 -19.53705,-0.73752 -31,-1.15625 0.006,-0.0105 0.0625,-0.0312 0.0625,-0.0312 0,0 -1.07559,-0.037 -2.65625,-0.0625 -0.15073,-0.0298 -0.31404,-0.063 -0.46875,-0.0937 z m 34.15625,1.34375 c 0.18158,10e-4 57.78657,0.3125 64.5,0.3125 -2.38854,-0.10422 -52.87204,-0.77965 -57.84375,-0.9375 l -6.65625,0.625 z m 89.28125,-0.5 c 0.29226,0.0673 0.67326,0.18983 0.9375,0.25 -0.36524,0.0149 -0.79763,0.0165 -1.15625,0.0312 0.0587,-0.0956 0.16001,-0.18558 0.21875,-0.28125 z m -35.59375,2.75 c -9.32758,-0.0538 -19.1875,0.46875 -19.1875,0.46875 l 4.5,0.71875 c 4.34997,0.24226 11.48483,0.37042 17.15625,0.4375 3.83173,-0.141 7.88204,-0.28977 11.96875,-0.4375 0.75936,-0.14982 0.92512,-0.31931 -0.5,-0.46875 -4.05882,-0.42561 -4.6098,-0.66494 -13.9375,-0.71875 z m -27.15625,2.03125 c 0,0 -2.787,0.67927 -3.46875,0.84375 1.15163,-0.0454 1.81252,-0.0763 3.0625,-0.125 0.17532,-0.30396 0.40625,-0.71875 0.40625,-0.71875 z M 621.5,332.5 l 0.25,0 -0.0625,0.125 L 621.5,332.5 z m 17.96875,0.0625 11.125,0.0312 -1.0625,4.5625 c -1.65357,-0.0593 -3.20696,-0.0947 -5,-0.15625 l -5.0625,-4.4375 z m 9.59375,6.65625 -0.34375,1.46875 -1.53125,-1.34375 c 0.63544,-0.0384 1.2463,-0.0839 1.875,-0.125 z"
         style="fill:#604f42;fill-opacity:0.49479167;stroke:none"
         inkscape:connector-curvature="0" />
    </g>
  </g>
</svg>
