<?xml version="1.0" encoding="UTF-8" standalone="no"?>
<!-- Created with Inkscape (http://www.inkscape.org/) -->

<svg
   xmlns:dc="http://purl.org/dc/elements/1.1/"
   xmlns:cc="http://creativecommons.org/ns#"
   xmlns:rdf="http://www.w3.org/1999/02/22-rdf-syntax-ns#"
   xmlns:svg="http://www.w3.org/2000/svg"
   xmlns="http://www.w3.org/2000/svg"
   xmlns:xlink="http://www.w3.org/1999/xlink"
   xmlns:sodipodi="http://sodipodi.sourceforge.net/DTD/sodipodi-0.dtd"
   xmlns:inkscape="http://www.inkscape.org/namespaces/inkscape"
   width="12"
   height="41"
   id="svg2"
   version="1.1"
   inkscape:version="0.48.5 r10040"
   sodipodi:docname="Embrayer_190_fuselage_1.svg">
  <defs
     id="defs4">
    <linearGradient
       inkscape:collect="always"
       id="linearGradient4077">
      <stop
         style="stop-color:#765337;stop-opacity:1"
         offset="0"
         id="stop4079" />
      <stop
         style="stop-color:#c19069;stop-opacity:1"
         offset="1"
         id="stop4081" />
    </linearGradient>
    <linearGradient
       inkscape:collect="always"
       id="linearGradient4069">
      <stop
         style="stop-color:#c19069;stop-opacity:1;"
         offset="0"
         id="stop4071" />
      <stop
         style="stop-color:#765337;stop-opacity:1"
         offset="1"
         id="stop4073" />
    </linearGradient>
    <linearGradient
       id="linearGradient4049">
      <stop
         style="stop-color:#765337;stop-opacity:1"
         offset="0"
         id="stop4051" />
      <stop
         id="stop4059"
         offset="0.39141679"
         style="stop-color:#c19069;stop-opacity:1;" />
      <stop
         id="stop4057"
         offset="0.58380252"
         style="stop-color:#c19069;stop-opacity:1;" />
      <stop
         style="stop-color:#765337;stop-opacity:1"
         offset="1"
         id="stop4053" />
    </linearGradient>
    <linearGradient
       inkscape:collect="always"
       xlink:href="#linearGradient4049"
       id="linearGradient4055"
       x1="345.4375"
       y1="490.57812"
       x2="413.625"
       y2="490.57812"
       gradientUnits="userSpaceOnUse"
       gradientTransform="matrix(0.14602907,0,0,0.14602907,48.420056,766.89258)" />
    <linearGradient
       inkscape:collect="always"
       xlink:href="#linearGradient4069"
       id="linearGradient4075"
       x1="317.75119"
       y1="484.21451"
       x2="346.28784"
       y2="484.21451"
       gradientUnits="userSpaceOnUse" />
    <linearGradient
       inkscape:collect="always"
       xlink:href="#linearGradient4077"
       id="linearGradient4083"
       x1="387.92267"
       y1="843.45294"
       x2="409.18774"
       y2="847.02435"
       gradientUnits="userSpaceOnUse" />
    <linearGradient
       inkscape:collect="always"
       xlink:href="#linearGradient4049"
       id="linearGradient3886"
       gradientUnits="userSpaceOnUse"
       gradientTransform="matrix(0.14602907,0,0,0.14602907,-7.267262,-11.13867)"
       x1="345.4375"
       y1="490.57812"
       x2="413.625"
       y2="490.57812" />
    <linearGradient
       inkscape:collect="always"
       xlink:href="#linearGradient4049"
       id="linearGradient3890"
       gradientUnits="userSpaceOnUse"
       gradientTransform="matrix(0.14602907,0,0,0.14602907,-7.267262,-11.13867)"
       x1="345.4375"
       y1="490.57812"
       x2="413.625"
       y2="490.57812" />
  </defs>
  <sodipodi:namedview
     id="base"
     pagecolor="#ffffff"
     bordercolor="#666666"
     borderopacity="1.0"
     inkscape:pageopacity="0.0"
     inkscape:pageshadow="2"
     inkscape:zoom="7.919596"
     inkscape:cx="-12.109352"
     inkscape:cy="-4.7875474"
     inkscape:document-units="px"
     inkscape:current-layer="layer1"
     showgrid="false"
     inkscape:window-width="1920"
     inkscape:window-height="1060"
     inkscape:window-x="-2"
     inkscape:window-y="-3"
     inkscape:window-maximized="1"
     inkscape:snap-bbox="true"
     fit-margin-top="1"
     fit-margin-left="1"
     fit-margin-right="1"
     fit-margin-bottom="1" />
  <metadata
     id="metadata7">
    <rdf:RDF>
      <cc:Work
         rdf:about="">
        <dc:format>image/svg+xml</dc:format>
        <dc:type
           rdf:resource="http://purl.org/dc/dcmitype/StillImage" />
        <dc:title></dc:title>
      </cc:Work>
    </rdf:RDF>
  </metadata>
  <g
     inkscape:label="Layer 1"
     inkscape:groupmode="layer"
     id="layer1"
     transform="translate(-97.8053,-777.96875)">
    <path
       style="fill:url(#linearGradient3890);fill-opacity:1;stroke:none"
       d="m 47.6875,1.0625 c -0.33899,0 -4.4375,3.12442 -4.4375,14.34375 l 0,24.53125 9.8125,0 0,-24.53125 C 53.0625,4.18692 48.96399,1.0625 48.625,1.0625 l -0.46875,0 -0.46875,0 z"
       transform="translate(55.687318,778.03125)"
       id="path3037"
       inkscape:connector-curvature="0" />
    <path
       style="fill:none;stroke:#000000;stroke-width:0.14602907px;stroke-linecap:butt;stroke-linejoin:miter;stroke-opacity:1"
       d="m 98.878315,795.03521 1.668905,0 c 0.33269,0 0.34104,2.69519 0,2.71196 l -1.590675,0.0782"
       id="path3039"
       inkscape:connector-curvature="0"
       sodipodi:nodetypes="cssc" />
    <path
       style="fill:#747474;fill-opacity:1;stroke:#000000;stroke-width:0.14602907px;stroke-linecap:butt;stroke-linejoin:miter;stroke-opacity:1"
       d="m 99.947601,800.40136 0,1.25385 -0.783542,-0.14342 0,-0.92025 z"
       id="path3045"
       inkscape:connector-curvature="0"
       sodipodi:nodetypes="ccccc" />
    <path
       sodipodi:nodetypes="ccccc"
       inkscape:connector-curvature="0"
       id="path3831"
       d="m 99.947601,803.05596 0,1.25385 -0.783542,-0.14342 0,-0.92025 z"
       style="fill:#747474;fill-opacity:1;stroke:#000000;stroke-width:0.14602907px;stroke-linecap:butt;stroke-linejoin:miter;stroke-opacity:1" />
    <path
       style="fill:#747474;fill-opacity:1;stroke:#000000;stroke-width:0.14602907px;stroke-linecap:butt;stroke-linejoin:miter;stroke-opacity:1"
       d="m 99.947601,805.71057 0,1.25385 -0.783542,-0.14343 0,-0.92025 z"
       id="path3833"
       inkscape:connector-curvature="0"
       sodipodi:nodetypes="ccccc" />
    <path
       sodipodi:nodetypes="ccccc"
       inkscape:connector-curvature="0"
       id="path3835"
       d="m 99.947601,808.36517 0,1.25385 -0.783542,-0.14342 0,-0.92026 z"
       style="fill:#747474;fill-opacity:1;stroke:#000000;stroke-width:0.14602907px;stroke-linecap:butt;stroke-linejoin:miter;stroke-opacity:1" />
    <path
       style="fill:#747474;fill-opacity:1;stroke:#000000;stroke-width:0.14602907px;stroke-linecap:butt;stroke-linejoin:miter;stroke-opacity:1"
       d="m 99.947601,811.01977 0,1.25385 -0.783542,-0.14342 0,-0.92025 z"
       id="path3837"
       inkscape:connector-curvature="0"
       sodipodi:nodetypes="ccccc" />
    <path
       sodipodi:nodetypes="ccccc"
       inkscape:connector-curvature="0"
       id="path3839"
       d="m 99.947601,813.67437 0,1.25385 -0.783542,-0.14342 0,-0.92025 z"
       style="fill:#747474;fill-opacity:1;stroke:#000000;stroke-width:0.14602907px;stroke-linecap:butt;stroke-linejoin:miter;stroke-opacity:1" />
    <path
       style="fill:#747474;fill-opacity:1;stroke:#000000;stroke-width:0.14602907px;stroke-linecap:butt;stroke-linejoin:miter;stroke-opacity:1"
       d="m 99.947601,816.32898 0,1.25385 -0.783542,-0.14342 0,-0.92026 z"
       id="path3841"
       inkscape:connector-curvature="0"
       sodipodi:nodetypes="ccccc" />
    <path
       sodipodi:nodetypes="ccccc"
       inkscape:connector-curvature="0"
       id="path3879"
       d="m 103.62441,784.59893 c 0,0 0,1.59953 0,2.45338 -1.1104,0 -2.08737,0.89358 -2.08737,0.89358 0,0 -0.26568,-0.45687 -0.75623,-1.13293 0,-0.70372 1.68804,-2.21403 2.8436,-2.21403 z"
       style="fill:#747474;fill-opacity:1;stroke:#000000;stroke-width:0.14602907px;stroke-linecap:butt;stroke-linejoin:miter;stroke-opacity:1" />
    <path
       style="fill:#747474;fill-opacity:1;stroke:#000000;stroke-width:0.14602907px;stroke-linecap:butt;stroke-linejoin:miter;stroke-opacity:1"
       d="m 100.44636,787.04626 0.94445,1.32344 c -0.53774,0.67203 -0.96103,1.85661 -0.96103,1.85661 0,0 0.0528,0.29576 -0.617905,-0.20204 -0.211068,-0.67133 0.157964,-2.3185 0.634485,-2.97801 z"
       id="path3881"
       inkscape:connector-curvature="0"
       sodipodi:nodetypes="ccccc" />
    <path
       sodipodi:nodetypes="cssc"
       inkscape:connector-curvature="0"
       id="path3947"
       d="m 108.77171,795.03521 -1.6689,0 c -0.3327,0 -0.34104,2.69519 0,2.71196 l 1.59067,0.0782"
       style="fill:none;stroke:#000000;stroke-width:0.14602907px;stroke-linecap:butt;stroke-linejoin:miter;stroke-opacity:1" />
    <path
       sodipodi:nodetypes="ccccc"
       inkscape:connector-curvature="0"
       id="path3953"
       d="m 107.70243,800.40136 0,1.25385 0.78354,-0.14342 0,-0.92025 z"
       style="fill:#747474;fill-opacity:1;stroke:#000000;stroke-width:0.14602907px;stroke-linecap:butt;stroke-linejoin:miter;stroke-opacity:1" />
    <path
       style="fill:#747474;fill-opacity:1;stroke:#000000;stroke-width:0.14602907px;stroke-linecap:butt;stroke-linejoin:miter;stroke-opacity:1"
       d="m 107.70243,803.05596 0,1.25385 0.78354,-0.14342 0,-0.92025 z"
       id="path3955"
       inkscape:connector-curvature="0"
       sodipodi:nodetypes="ccccc" />
    <path
       sodipodi:nodetypes="ccccc"
       inkscape:connector-curvature="0"
       id="path3957"
       d="m 107.70243,805.71057 0,1.25385 0.78354,-0.14343 0,-0.92025 z"
       style="fill:#747474;fill-opacity:1;stroke:#000000;stroke-width:0.14602907px;stroke-linecap:butt;stroke-linejoin:miter;stroke-opacity:1" />
    <path
       style="fill:#747474;fill-opacity:1;stroke:#000000;stroke-width:0.14602907px;stroke-linecap:butt;stroke-linejoin:miter;stroke-opacity:1"
       d="m 107.70243,808.36517 0,1.25385 0.78354,-0.14342 0,-0.92026 z"
       id="path3959"
       inkscape:connector-curvature="0"
       sodipodi:nodetypes="ccccc" />
    <path
       sodipodi:nodetypes="ccccc"
       inkscape:connector-curvature="0"
       id="path3961"
       d="m 107.70243,811.01977 0,1.25385 0.78354,-0.14342 0,-0.92025 z"
       style="fill:#747474;fill-opacity:1;stroke:#000000;stroke-width:0.14602907px;stroke-linecap:butt;stroke-linejoin:miter;stroke-opacity:1" />
    <path
       style="fill:#747474;fill-opacity:1;stroke:#000000;stroke-width:0.14602907px;stroke-linecap:butt;stroke-linejoin:miter;stroke-opacity:1"
       d="m 107.70243,813.67437 0,1.25385 0.78354,-0.14342 0,-0.92025 z"
       id="path3963"
       inkscape:connector-curvature="0"
       sodipodi:nodetypes="ccccc" />
    <path
       sodipodi:nodetypes="ccccc"
       inkscape:connector-curvature="0"
       id="path3965"
       d="m 107.70243,816.32898 0,1.25385 0.78354,-0.14342 0,-0.92026 z"
       style="fill:#747474;fill-opacity:1;stroke:#000000;stroke-width:0.14602907px;stroke-linecap:butt;stroke-linejoin:miter;stroke-opacity:1" />
    <path
       style="fill:#747474;fill-opacity:1;stroke:#000000;stroke-width:0.14602907px;stroke-linecap:butt;stroke-linejoin:miter;stroke-opacity:1"
       d="m 104.02562,784.59893 c 0,0 0,1.59953 0,2.45338 1.1104,0 2.08737,0.89358 2.08737,0.89358 0,0 0.26568,-0.45687 0.75622,-1.13293 0,-0.70372 -1.68803,-2.21403 -2.84359,-2.21403 z"
       id="path4003"
       inkscape:connector-curvature="0"
       sodipodi:nodetypes="ccccc" />
    <path
       sodipodi:nodetypes="ccccc"
       inkscape:connector-curvature="0"
       id="path4005"
       d="m 107.20367,787.04626 -0.94445,1.32344 c 0.53774,0.67203 0.96103,1.85661 0.96103,1.85661 0,0 -0.0528,0.29576 0.6179,-0.20204 0.21107,-0.67133 -0.15796,-2.3185 -0.63448,-2.97801 z"
       style="fill:#747474;fill-opacity:1;stroke:#000000;stroke-width:0.14602907px;stroke-linecap:butt;stroke-linejoin:miter;stroke-opacity:1" />
    <path
       style="font-size:medium;font-style:normal;font-variant:normal;font-weight:normal;font-stretch:normal;text-indent:0;text-align:start;text-decoration:none;line-height:normal;letter-spacing:normal;word-spacing:normal;text-transform:none;direction:ltr;block-progression:tb;writing-mode:lr-tb;text-anchor:start;baseline-shift:baseline;color:#000000;fill:#000000;fill-opacity:1;fill-rule:nonzero;stroke:none;stroke-width:0.146;marker:none;visibility:visible;display:inline;overflow:visible;enable-background:accumulate;font-family:Sans;-inkscape-font-specification:Sans"
       d="m 47.6875,1 c -0.0492,0 -0.10304,0.00305 -0.15625,0.03125 -0.0532,0.0281 -0.1131,0.0696 -0.1875,0.125 -0.1488,0.11073 -0.34441,0.2943 -0.5625,0.53125 C 46.34506,2.1614 45.81624,2.90248 45.28125,4 44.211269,6.19504 43.1875,9.78772 43.1875,15.40625 l 0,24.53125 0.125,0 0,-24.53125 c 0,-5.6008 1.03523,-9.17222 2.09375,-11.34375 0.52926,-1.08577 1.07444,-1.81889 1.5,-2.28125 0.21278,-0.23118 0.39163,-0.39609 0.53125,-0.5 0.0698,-0.052 0.11234,-0.07065 0.15625,-0.09375 0.0439,-0.0232 0.10064,-0.03125 0.09375,-0.03125 l 0.46875,0 0.46875,0 c -0.007,0 0.04985,0.00805 0.09375,0.03125 0.0439,0.0232 0.0864,0.04185 0.15625,0.09375 0.13962,0.10391 0.31847,0.26882 0.53125,0.5 0.42556,0.46236 0.97074,1.19548 1.5,2.28125 C 51.96477,6.23403 53,9.80545 53,15.40625 l 0,24.53125 0.125,0 0,-24.53125 C 53.125,9.78772 52.10123,6.19504 51.03125,4 50.49626,2.90248 49.96744,2.1614 49.53125,1.6875 49.31316,1.45055 49.11755,1.26698 48.96875,1.15625 48.89435,1.10085 48.83446,1.05935 48.78125,1.03125 48.72805,1.00315 48.67421,1 48.625,1 L 48.15625,1 47.6875,1 z"
       transform="translate(55.687318,778.03125)"
       id="path3880"
       inkscape:connector-curvature="0" />
  </g>
</svg>
