<?xml version="1.0" encoding="UTF-8" standalone="no"?>
<!-- Created with Inkscape (http://www.inkscape.org/) -->

<svg
   xmlns:dc="http://purl.org/dc/elements/1.1/"
   xmlns:cc="http://creativecommons.org/ns#"
   xmlns:rdf="http://www.w3.org/1999/02/22-rdf-syntax-ns#"
   xmlns:svg="http://www.w3.org/2000/svg"
   xmlns="http://www.w3.org/2000/svg"
   xmlns:xlink="http://www.w3.org/1999/xlink"
   xmlns:sodipodi="http://sodipodi.sourceforge.net/DTD/sodipodi-0.dtd"
   xmlns:inkscape="http://www.inkscape.org/namespaces/inkscape"
   width="21"
   height="26"
   id="svg2"
   version="1.1"
   inkscape:version="0.48.5 r10040"
   sodipodi:docname="Embrayer_190_wing_L_1.svg">
  <defs
     id="defs4">
    <linearGradient
       inkscape:collect="always"
       id="linearGradient4077">
      <stop
         style="stop-color:#765337;stop-opacity:1"
         offset="0"
         id="stop4079" />
      <stop
         style="stop-color:#c19069;stop-opacity:1"
         offset="1"
         id="stop4081" />
    </linearGradient>
    <linearGradient
       inkscape:collect="always"
       id="linearGradient4069">
      <stop
         style="stop-color:#c19069;stop-opacity:1;"
         offset="0"
         id="stop4071" />
      <stop
         style="stop-color:#765337;stop-opacity:1"
         offset="1"
         id="stop4073" />
    </linearGradient>
    <linearGradient
       inkscape:collect="always"
       id="linearGradient4061">
      <stop
         style="stop-color:#c19069;stop-opacity:1;"
         offset="0"
         id="stop4063" />
      <stop
         style="stop-color:#765337;stop-opacity:1"
         offset="1"
         id="stop4065" />
    </linearGradient>
    <linearGradient
       id="linearGradient4049">
      <stop
         style="stop-color:#765337;stop-opacity:1"
         offset="0"
         id="stop4051" />
      <stop
         id="stop4059"
         offset="0.39141679"
         style="stop-color:#c19069;stop-opacity:1;" />
      <stop
         id="stop4057"
         offset="0.58380252"
         style="stop-color:#c19069;stop-opacity:1;" />
      <stop
         style="stop-color:#765337;stop-opacity:1"
         offset="1"
         id="stop4053" />
    </linearGradient>
    <linearGradient
       inkscape:collect="always"
       xlink:href="#linearGradient4049"
       id="linearGradient4055"
       x1="345.4375"
       y1="490.57812"
       x2="413.625"
       y2="490.57812"
       gradientUnits="userSpaceOnUse"
       gradientTransform="matrix(0.14602907,0,0,0.14602907,48.420056,766.89258)" />
    <linearGradient
       inkscape:collect="always"
       xlink:href="#linearGradient4061"
       id="linearGradient4067"
       x1="318.65372"
       y1="484.21451"
       x2="346.28784"
       y2="484.21451"
       gradientUnits="userSpaceOnUse"
       gradientTransform="matrix(0.14602907,0,0,0.14602907,48.420056,766.89258)" />
    <linearGradient
       inkscape:collect="always"
       xlink:href="#linearGradient4069"
       id="linearGradient4075"
       x1="317.75119"
       y1="484.21451"
       x2="346.28784"
       y2="484.21451"
       gradientUnits="userSpaceOnUse" />
    <linearGradient
       inkscape:collect="always"
       xlink:href="#linearGradient4077"
       id="linearGradient4083"
       x1="387.92267"
       y1="843.45294"
       x2="409.18774"
       y2="847.02435"
       gradientUnits="userSpaceOnUse" />
    <linearGradient
       inkscape:collect="always"
       xlink:href="#linearGradient4077"
       id="linearGradient4093"
       gradientUnits="userSpaceOnUse"
       x1="387.92267"
       y1="843.45294"
       x2="409.18774"
       y2="847.02435"
       gradientTransform="matrix(-0.14602907,0,0,0.14602907,159.24095,766.89258)" />
    <linearGradient
       inkscape:collect="always"
       xlink:href="#linearGradient4077"
       id="linearGradient4097"
       gradientUnits="userSpaceOnUse"
       x1="387.92267"
       y1="843.45294"
       x2="409.18774"
       y2="847.02435"
       gradientTransform="matrix(0.14602907,0,0,0.14602907,48.420056,766.89258)" />
    <linearGradient
       inkscape:collect="always"
       xlink:href="#linearGradient4069"
       id="linearGradient4142"
       gradientUnits="userSpaceOnUse"
       x1="317.75119"
       y1="484.21451"
       x2="346.28784"
       y2="484.21451"
       gradientTransform="matrix(-0.14602907,0,0,0.14602907,159.21136,766.89258)" />
    <linearGradient
       inkscape:collect="always"
       xlink:href="#linearGradient4061"
       id="linearGradient4458"
       gradientUnits="userSpaceOnUse"
       gradientTransform="matrix(0.14602907,0,0,0.14602907,-7.267262,-11.13867)"
       x1="318.65372"
       y1="484.21451"
       x2="346.28784"
       y2="484.21451" />
    <linearGradient
       inkscape:collect="always"
       xlink:href="#linearGradient4061"
       id="linearGradient4463"
       gradientUnits="userSpaceOnUse"
       gradientTransform="matrix(-0.14602907,0,0,0.14602907,130.14208,766.89258)"
       x1="318.65372"
       y1="484.21451"
       x2="346.28784"
       y2="484.21451" />
  </defs>
  <sodipodi:namedview
     id="base"
     pagecolor="#ffffff"
     bordercolor="#666666"
     borderopacity="1.0"
     inkscape:pageopacity="0.0"
     inkscape:pageshadow="2"
     inkscape:zoom="11.2"
     inkscape:cx="9.125833"
     inkscape:cy="0.73205212"
     inkscape:document-units="px"
     inkscape:current-layer="layer1"
     showgrid="false"
     inkscape:window-width="1920"
     inkscape:window-height="1060"
     inkscape:window-x="-2"
     inkscape:window-y="-3"
     inkscape:window-maximized="1"
     inkscape:snap-bbox="true"
     fit-margin-top="1"
     fit-margin-left="1"
     fit-margin-right="1"
     fit-margin-bottom="1" />
  <metadata
     id="metadata7">
    <rdf:RDF>
      <cc:Work
         rdf:about="">
        <dc:format>image/svg+xml</dc:format>
        <dc:type
           rdf:resource="http://purl.org/dc/dcmitype/StillImage" />
        <dc:title></dc:title>
      </cc:Work>
    </rdf:RDF>
  </metadata>
  <g
     inkscape:label="Layer 1"
     inkscape:groupmode="layer"
     id="layer1"
     transform="translate(-78.562318,-821.04298)">
    <path
       style="fill:url(#linearGradient4463);fill-opacity:1;stroke:none"
       d="m 79.656068,822.125 c 0,0 1.046803,2.7537 1.96875,3.34375 0.429676,0.27499 8.75847,4.46011 17.375,8.78125 l -1.78125,10.0625 c -3.115378,-0.80648 -5.491714,-1.40625 -5.65625,-1.40625 l -11.90625,0 0,-20.78125 z"
       id="path3887"
       inkscape:connector-curvature="0" />
    <path
       style="font-size:medium;font-style:normal;font-variant:normal;font-weight:normal;font-stretch:normal;text-indent:0;text-align:start;text-decoration:none;line-height:normal;letter-spacing:normal;word-spacing:normal;text-transform:none;direction:ltr;block-progression:tb;writing-mode:lr-tb;text-anchor:start;baseline-shift:baseline;color:#000000;fill:#000000;fill-opacity:1;stroke:none;stroke-width:1px;marker:none;visibility:visible;display:inline;overflow:visible;enable-background:accumulate;font-family:Sans;-inkscape-font-specification:Sans"
       d="m 91.531068,837.96875 0.09375,0.0625 6.3125,2.28125 -0.03125,0.125 -1.15625,-0.40625 -0.59375,1.65625 -0.125,-0.0625 0.59375,-1.625 -4.9375,-1.8125 0,2.03125 c 0,0 2.73815,0.89576 4.46875,1.46875 0.556259,0.18417 0.782723,0.25221 1.4375,0.46875 l 0,0.15625 c -2.621629,-0.86954 -5.92316,-1.96399 -5.9375,-1.96875 l -12,0.15625 0,-0.125 6.3125,-0.0937 0,-1.4375 -6.3125,0 0,-0.15625 11.875,0 0,-0.59375 0,-0.125 z m 0,0.875 -5.40625,0 0,1.4375 5.40625,-0.0625 0,-1.375 z M 87.562318,841 l 0,0.0937 0,1.78125 -0.15625,0 0,-1.71875 -7.6875,0 0,-0.15625 7.75,0 0.09375,0 z m 4.6875,0.0312 5.28125,1.625 -0.03125,0.1875 -5.21875,-1.625 -0.125,1.75 -0.125,0 0.125,-1.875 0,-0.0625 0.09375,0 z"
       id="path3898"
       inkscape:connector-curvature="0" />
    <path
       inkscape:connector-curvature="0"
       id="path3937"
       d="m 96.140648,844.04639 c 0,0 0,1.92358 -0.368779,1.92358 -0.368778,0 -0.424096,-2.16328 -0.424096,-2.16328 z"
       style="fill:#c19069;fill-opacity:1;stroke:#000000;stroke-width:0.14602907px;stroke-linecap:butt;stroke-linejoin:miter;stroke-opacity:1"
       sodipodi:nodetypes="cscc" />
    <path
       style="fill:#c19069;fill-opacity:1;stroke:#000000;stroke-width:0.14602907px;stroke-linecap:butt;stroke-linejoin:miter;stroke-opacity:1"
       d="m 87.677169,842.9124 c 0,0 0,2.19094 -0.368779,2.19094 -0.368779,0 -0.424096,-2.19094 -0.424096,-2.19094 z"
       id="path3939"
       inkscape:connector-curvature="0"
       sodipodi:nodetypes="cscc" />
    <path
       style="font-size:medium;font-style:normal;font-variant:normal;font-weight:normal;font-stretch:normal;text-indent:0;text-align:start;text-decoration:none;line-height:normal;letter-spacing:normal;word-spacing:normal;text-transform:none;direction:ltr;block-progression:tb;writing-mode:lr-tb;text-anchor:start;baseline-shift:baseline;color:#000000;fill:#000000;fill-opacity:1;fill-rule:nonzero;stroke:none;stroke-width:0.14602907px;marker:none;visibility:visible;display:inline;overflow:visible;enable-background:accumulate;font-family:Sans;-inkscape-font-specification:Sans"
       d="m 79.718568,822.09375 c 0,0 -1.76e-4,0.0308 0,0.0312 0.0094,0.0244 0.253411,0.66307 0.625,1.40625 0.37851,0.75702 0.88416,1.60086 1.3125,1.875 0.04748,0.0304 0.275234,0.14629 0.59375,0.3125 0.318516,0.16621 0.736575,0.37799 1.28125,0.65625 1.089349,0.55652 2.593681,1.31988 4.375,2.21875 3.071963,1.55014 7.105956,3.59403 11.09375,5.59375 l 0,0.125 c -4.006475,-2.00906 -8.070282,-4.03655 -11.15625,-5.59375 -1.781433,-0.89893 -3.28524,-1.66202 -4.375,-2.21875 -0.54488,-0.27837 -0.993305,-0.48969 -1.3125,-0.65625 -0.319195,-0.16656 -0.494734,-0.26913 -0.5625,-0.3125 -0.493607,-0.31591 -0.992902,-1.17331 -1.375,-1.9375 -0.307076,-0.61415 -0.420679,-0.95767 -0.5,-1.15625 l 0,20.40625 11.84375,0 c 0.03689,0 0.08674,-0.0138 0.15625,0 0.06951,0.0138 0.165908,0.0362 0.28125,0.0625 0.230684,0.0526 0.540215,0.12068 0.9375,0.21875 0.794569,0.19613 1.911181,0.50687 3.21875,0.84375 0.301815,0.0778 0.771545,0.19806 1.09375,0.28125 l -0.03125,0.125 c -0.331017,-0.0853 -0.816118,-0.20167 -1.125,-0.28125 -1.307311,-0.33682 -2.393838,-0.61659 -3.1875,-0.8125 -0.396831,-0.0979 -0.708369,-0.16647 -0.9375,-0.21875 -0.114565,-0.0261 -0.214128,-0.0492 -0.28125,-0.0625 -0.06712,-0.0133 -0.125008,-0.0312 -0.125,-0.0312 l -11.90625,0 -0.09375,0 0,-0.0625 0,-20.78125 0.09375,0 0.0625,-0.0312 z"
       id="path4450"
       inkscape:connector-curvature="0" />
  </g>
</svg>
