<?xml version="1.0" encoding="UTF-8" standalone="no"?>
<!-- Created with Inkscape (http://www.inkscape.org/) -->

<svg
   xmlns:dc="http://purl.org/dc/elements/1.1/"
   xmlns:cc="http://creativecommons.org/ns#"
   xmlns:rdf="http://www.w3.org/1999/02/22-rdf-syntax-ns#"
   xmlns:svg="http://www.w3.org/2000/svg"
   xmlns="http://www.w3.org/2000/svg"
   xmlns:xlink="http://www.w3.org/1999/xlink"
   xmlns:sodipodi="http://sodipodi.sourceforge.net/DTD/sodipodi-0.dtd"
   xmlns:inkscape="http://www.inkscape.org/namespaces/inkscape"
   width="27"
   height="21"
   id="svg2"
   version="1.1"
   inkscape:version="0.48.5 r10040"
   sodipodi:docname="Embrayer_190_wing_L_1.svg">
  <defs
     id="defs4">
    <linearGradient
       inkscape:collect="always"
       id="linearGradient4077">
      <stop
         style="stop-color:#765337;stop-opacity:1"
         offset="0"
         id="stop4079" />
      <stop
         style="stop-color:#c19069;stop-opacity:1"
         offset="1"
         id="stop4081" />
    </linearGradient>
    <linearGradient
       inkscape:collect="always"
       id="linearGradient4069">
      <stop
         style="stop-color:#c19069;stop-opacity:1;"
         offset="0"
         id="stop4071" />
      <stop
         style="stop-color:#765337;stop-opacity:1"
         offset="1"
         id="stop4073" />
    </linearGradient>
    <linearGradient
       inkscape:collect="always"
       id="linearGradient4061">
      <stop
         style="stop-color:#c19069;stop-opacity:1;"
         offset="0"
         id="stop4063" />
      <stop
         style="stop-color:#765337;stop-opacity:1"
         offset="1"
         id="stop4065" />
    </linearGradient>
    <linearGradient
       id="linearGradient4049">
      <stop
         style="stop-color:#765337;stop-opacity:1"
         offset="0"
         id="stop4051" />
      <stop
         id="stop4059"
         offset="0.39141679"
         style="stop-color:#c19069;stop-opacity:1;" />
      <stop
         id="stop4057"
         offset="0.58380252"
         style="stop-color:#c19069;stop-opacity:1;" />
      <stop
         style="stop-color:#765337;stop-opacity:1"
         offset="1"
         id="stop4053" />
    </linearGradient>
    <linearGradient
       inkscape:collect="always"
       xlink:href="#linearGradient4049"
       id="linearGradient4055"
       x1="345.4375"
       y1="490.57812"
       x2="413.625"
       y2="490.57812"
       gradientUnits="userSpaceOnUse"
       gradientTransform="matrix(0.14602907,0,0,0.14602907,48.420056,766.89258)" />
    <linearGradient
       inkscape:collect="always"
       xlink:href="#linearGradient4061"
       id="linearGradient4067"
       x1="318.65372"
       y1="484.21451"
       x2="346.28784"
       y2="484.21451"
       gradientUnits="userSpaceOnUse"
       gradientTransform="matrix(0.14602907,0,0,0.14602907,-7.267262,-11.13867)" />
    <linearGradient
       inkscape:collect="always"
       xlink:href="#linearGradient4069"
       id="linearGradient4075"
       x1="317.75119"
       y1="484.21451"
       x2="346.28784"
       y2="484.21451"
       gradientUnits="userSpaceOnUse" />
    <linearGradient
       inkscape:collect="always"
       xlink:href="#linearGradient4077"
       id="linearGradient4083"
       x1="387.92267"
       y1="843.45294"
       x2="409.18774"
       y2="847.02435"
       gradientUnits="userSpaceOnUse" />
    <linearGradient
       inkscape:collect="always"
       xlink:href="#linearGradient4077"
       id="linearGradient4093"
       gradientUnits="userSpaceOnUse"
       x1="387.92267"
       y1="843.45294"
       x2="409.18774"
       y2="847.02435"
       gradientTransform="matrix(-0.14602907,0,0,0.14602907,159.24095,766.89258)" />
    <linearGradient
       inkscape:collect="always"
       xlink:href="#linearGradient4077"
       id="linearGradient4097"
       gradientUnits="userSpaceOnUse"
       x1="387.92267"
       y1="843.45294"
       x2="409.18774"
       y2="847.02435"
       gradientTransform="matrix(0.14602907,0,0,0.14602907,48.420056,766.89258)" />
    <linearGradient
       inkscape:collect="always"
       xlink:href="#linearGradient4069"
       id="linearGradient4142"
       gradientUnits="userSpaceOnUse"
       x1="317.75119"
       y1="484.21451"
       x2="346.28784"
       y2="484.21451"
       gradientTransform="matrix(-0.14602907,0,0,0.14602907,159.21136,766.89258)" />
    <linearGradient
       inkscape:collect="always"
       xlink:href="#linearGradient4061"
       id="linearGradient4493"
       gradientUnits="userSpaceOnUse"
       gradientTransform="matrix(0.14602907,0,0,0.14602907,-7.267262,-11.13867)"
       x1="318.65372"
       y1="484.21451"
       x2="346.28784"
       y2="484.21451" />
  </defs>
  <sodipodi:namedview
     id="base"
     pagecolor="#ffffff"
     bordercolor="#666666"
     borderopacity="1.0"
     inkscape:pageopacity="0.0"
     inkscape:pageshadow="2"
     inkscape:zoom="11.2"
     inkscape:cx="38.768872"
     inkscape:cy="8.5356237"
     inkscape:document-units="px"
     inkscape:current-layer="layer1"
     showgrid="false"
     inkscape:window-width="1920"
     inkscape:window-height="1060"
     inkscape:window-x="-2"
     inkscape:window-y="-3"
     inkscape:window-maximized="1"
     inkscape:snap-bbox="true"
     fit-margin-top="1"
     fit-margin-left="1"
     fit-margin-right="1"
     fit-margin-bottom="1" />
  <metadata
     id="metadata7">
    <rdf:RDF>
      <cc:Work
         rdf:about="">
        <dc:format>image/svg+xml</dc:format>
        <dc:type
           rdf:resource="http://purl.org/dc/dcmitype/StillImage" />
        <dc:title></dc:title>
      </cc:Work>
    </rdf:RDF>
  </metadata>
  <g
     inkscape:label="Layer 1"
     inkscape:groupmode="layer"
     id="layer1"
     transform="translate(-55.687136,-833.15625)">
    <path
       style="fill:url(#linearGradient4493);fill-opacity:1;stroke:none"
       d="M 23.875,56.21875 C 14.003205,61.169394 3.71875,66.3125 3.71875,66.3125 c 0,0 -0.482875,0.27671 -0.59375,0.46875 -0.110877,0.19204 -2.03125,7.05125 -2.03125,7.125 l 0,1.15625 0.71875,0 c 0,0 1.307921,-2.66068 1.625,-2.84375 0.2286607,-0.13202 14.161996,-3.85184 22.21875,-5.9375 L 23.875,56.21875 z"
       transform="translate(55.687318,778.03125)"
       id="path3887"
       inkscape:connector-curvature="0" />
    <path
       style="font-size:medium;font-style:normal;font-variant:normal;font-weight:normal;font-stretch:normal;text-indent:0;text-align:start;text-decoration:none;line-height:normal;letter-spacing:normal;word-spacing:normal;text-transform:none;direction:ltr;block-progression:tb;writing-mode:lr-tb;text-anchor:start;baseline-shift:baseline;color:#000000;fill:#000000;fill-opacity:1;stroke:none;stroke-width:1px;marker:none;visibility:visible;display:inline;overflow:visible;enable-background:accumulate;font-family:Sans;-inkscape-font-specification:Sans"
       d="M 24.9375,62.28125 18.8125,64.5 18.75,64.53125 l 0.03125,0.0625 0.4375,1.53125 c -1.216714,0.399889 -2.373447,0.778518 -3.34375,1.09375 -0.867156,0.28171 -1.600921,0.52184 -2.125,0.6875 -0.262039,0.0828 -0.475226,0.14252 -0.625,0.1875 -0.06905,0.0207 -0.114172,0.0511 -0.15625,0.0625 l -0.3125,-0.875 0,-0.0625 -0.0625,0.03125 -8.25,2.8125 -0.0625,0 0,0.0625 0,1.78125 0.15625,0 0,-1.71875 8.125,-2.78125 0.6875,2.0625 0.15625,-0.0625 L 13,68.28125 c 0.04298,-0.0124 0.121681,-0.01155 0.1875,-0.03125 0.151037,-0.0454 0.362604,-0.10455 0.625,-0.1875 0.524792,-0.16589 1.226403,-0.40572 2.09375,-0.6875 1.734693,-0.56356 4.042155,-1.31441 6.3125,-2.0625 1.54292,-0.5084 1.708199,-0.582056 3.0625,-1.03125 l 0,-0.15625 c -1.142649,0.377888 -1.220571,0.42185 -2.5,0.84375 l -0.53125,-1.5625 2.71875,-1 -0.03125,-0.125 z M 22.09375,63.46875 22.65625,65 c -0.179638,0.0592 -0.319942,0.09691 -0.5,0.15625 -0.953693,0.31424 -1.89576,0.63631 -2.8125,0.9375 L 18.9375,64.625 22.09375,63.46875 z m 3.25,1.15625 -11.65625,3.625 -0.03125,0.03125 0,0.0625 0.03125,0.96875 0.15625,0 L 13.8125,68.375 25.375,64.8125 25.34375,64.625 z"
       transform="translate(55.687318,778.03125)"
       id="path3898"
       inkscape:connector-curvature="0" />
    <path
       style="fill:#c19069;fill-opacity:1;stroke:#000000;stroke-width:0.14602907px;stroke-linecap:butt;stroke-linejoin:miter;stroke-opacity:1"
       d="m 72.611965,846.62785 c 0,0 0,2.50769 0.368779,2.50769 0.368778,0 0.424096,-2.7474 0.424096,-2.7474 z"
       id="path3935"
       inkscape:connector-curvature="0" />
    <path
       style="font-size:medium;font-style:normal;font-variant:normal;font-weight:normal;font-stretch:normal;text-indent:0;text-align:start;text-decoration:none;line-height:normal;letter-spacing:normal;word-spacing:normal;text-transform:none;direction:ltr;block-progression:tb;writing-mode:lr-tb;text-anchor:start;baseline-shift:baseline;color:#000000;fill:#000000;fill-opacity:1;fill-rule:nonzero;stroke:none;stroke-width:0.14602907px;marker:none;visibility:visible;display:inline;overflow:visible;enable-background:accumulate;font-family:Sans;-inkscape-font-specification:Sans"
       d="m 23.875,56.15625 c -0.636958,0.319408 -1.142872,0.555018 -1.78125,0.875 C 12.823626,61.67783 3.65625,66.25 3.65625,66.25 c 0,0 -0.118041,0.063 -0.25,0.15625 -0.131959,0.0933 -0.273795,0.22259 -0.34375,0.34375 -0.0095,0.0164 0.0074,0.01135 0,0.03125 -0.0074,0.0199 -0.02096,0.0316 -0.03125,0.0625 -0.02058,0.0618 -0.06189,0.14652 -0.09375,0.25 -0.06373,0.20696 -0.151411,0.50747 -0.25,0.84375 C 2.490322,68.61007 2.248945,69.49951 2,70.375 c -0.248945,0.87549 -0.504235,1.74864 -0.6875,2.40625 -0.09163,0.3288 -0.165529,0.5857 -0.21875,0.78125 -0.02661,0.0978 -0.04817,0.19512 -0.0625,0.25 -0.0072,0.0274 0.0039,0.0465 0,0.0625 -0.0019,0.008 -0.03006,-0.006 -0.03125,0 -5.95e-4,0.003 5.02e-4,0.02825 0,0.03125 l 0,1.15625 0,0.0625 0.09375,0 0.71875,0 0.0625,0 0,-0.03125 c 0,0 0.35344,-0.68932 0.71875,-1.375 0.182655,-0.34284 0.365562,-0.66484 0.53125,-0.9375 0.08284,-0.13633 0.154784,-0.25643 0.21875,-0.34375 0.06397,-0.0873 0.10908,-0.14706 0.125,-0.15625 -0.0081,0.005 0.01477,0.006 0.03125,0 0.01648,-0.006 0.03279,-0.02195 0.0625,-0.03125 0.05943,-0.0186 0.142779,-0.06265 0.25,-0.09375 0.214441,-0.0623 0.52214,-0.14345 0.90625,-0.25 0.76822,-0.2131 1.865962,-0.49548 3.15625,-0.84375 2.580576,-0.69654 5.98039,-1.62538 9.40625,-2.53125 3.021141,-0.798854 5.904031,-1.550973 8.375,-2.1875 l -0.03125,-0.125 c -2.469614,0.63763 -5.344339,1.386133 -8.375,2.1875 -3.426065,0.90592 -6.825308,1.80337 -9.40625,2.5 -1.290471,0.34832 -2.38742,0.66173 -3.15625,0.875 -0.384415,0.10663 -0.690732,0.18738 -0.90625,0.25 -0.107759,0.0313 -0.188793,0.0433 -0.25,0.0625 -0.0306,0.01 -0.04346,0.02465 -0.0625,0.03125 -0.01904,0.007 -0.04445,0.02085 -0.0625,0.03125 -0.06335,0.0366 -0.119378,0.0945 -0.1875,0.1875 C 3.15063,72.43675 3.08414,72.54904 3,72.6875 2.831719,72.96443 2.620867,73.31207 2.4375,73.65625 2.087435,74.31331 1.80904,74.91232 1.78125,74.96875 l -0.625,0 0,-1.0625 c 0.0035,-0.0144 0.02421,-0.0355 0.03125,-0.0625 0.01409,-0.0539 0.03596,-0.15249 0.0625,-0.25 0.05308,-0.19503 0.127164,-0.45261 0.21875,-0.78125 0.183172,-0.65727 0.407373,-1.531 0.65625,-2.40625 0.248877,-0.87525 0.521772,-1.76561 0.71875,-2.4375 0.09849,-0.33594 0.186636,-0.60671 0.25,-0.8125 0.03168,-0.10289 0.04254,-0.19006 0.0625,-0.25 0.01,-0.03 0.02481,-0.0452 0.03125,-0.0625 0.0064,-0.0173 0.0026,-0.03575 0,-0.03125 C 3.22842,66.7416 3.373875,66.62043 3.5,66.53125 3.626125,66.44205 3.75,66.375 3.75,66.375 c 0,0 9.136006,-4.5721 18.40625,-9.21875 0.62042,-0.310981 1.099601,-0.564526 1.71875,-0.875 l 0,-0.125 z"
       transform="translate(55.687318,778.03125)"
       id="path4450"
       inkscape:connector-curvature="0" />
  </g>
</svg>
